<svg width="189" height="189" viewBox="0 0 189 189" fill="none" xmlns="http://www.w3.org/2000/svg">
<path d="M185.041 105.233L185.573 104.291L185.25 103.259L182.56 94.6398L185.247 86.1731L185.576 85.1354L185.041 84.1875L180.656 76.4233L181.504 67.5283L181.607 66.454L180.896 65.6426L174.932 58.8418L173.799 50.073L173.664 49.0345L172.83 48.4017L165.733 43.0191L162.75 34.5123L162.404 33.5261L161.459 33.0795L153.376 29.2586L148.84 21.6208L148.291 20.695L147.24 20.4584L138.446 18.4767L132.353 11.9715L131.628 11.1977L130.568 11.1809L121.628 11.0393L114.247 5.94009L113.402 5.35612L112.391 5.53523L103.564 7.098L95.3092 3.68926L94.355 3.29524L93.4008 3.68926L85.146 7.098L76.3194 5.53523L75.2947 5.35379L74.4439 5.95312L67.2236 11.0393L58.1428 11.1809L57.0823 11.1974L56.3572 11.9715L50.2604 18.4802L41.6151 20.4603L40.5903 20.695L40.0412 21.5916L35.351 29.2507L27.2512 33.0795L26.3064 33.5261L25.9605 34.5123L22.977 43.0191L15.88 48.4017L15.0456 49.0345L14.9114 50.073L13.7755 58.8579L7.94894 65.6652L7.27377 66.454L7.35608 67.489L8.06663 76.4234L3.8063 84.2179L3.30483 85.1353L3.60584 86.1366L6.16197 94.6395L3.60261 103.295L3.30802 104.291L3.8063 105.203L8.06663 112.997L7.35608 121.932L7.27377 122.967L7.94894 123.756L13.7755 130.563L14.9114 139.348L15.0456 140.386L15.88 141.019L22.977 146.402L25.9605 154.908L26.3064 155.895L27.2512 156.341L35.351 160.17L40.0412 167.829L40.5903 168.726L41.6151 168.96L50.2604 170.941L56.3572 177.449L57.0823 178.223L58.1428 178.24L67.2236 178.381L74.4439 183.468L75.3134 184.08L76.3577 183.878L85.146 182.181L93.3672 185.717L94.355 186.142L95.3429 185.717L103.564 182.181L112.352 183.878L113.383 184.078L114.247 183.481L121.628 178.381L130.568 178.24L131.628 178.223L132.353 177.449L138.446 170.944L147.24 168.962L148.291 168.726L148.84 167.8L153.376 160.162L161.459 156.341L162.404 155.895L162.75 154.908L165.733 146.402L172.83 141.019L173.664 140.386L173.799 139.348L174.932 130.579L180.896 123.778L181.607 122.967L181.504 121.892L180.656 112.997L185.041 105.233Z" fill="#5C002A" stroke="white" stroke-width="5"/>
<path d="M170.703 94.6337C170.703 136.262 137.147 170.21 95.4322 170.671C95.1243 170.671 94.8165 170.671 94.5086 170.671C52.3322 170.671 18.314 136.569 18.314 94.6337C18.314 52.6978 52.4861 18.5962 94.5086 18.5962C94.8165 18.5962 95.1243 18.5962 95.4322 18.5962C136.993 19.2106 170.703 53.0051 170.703 94.6337Z" fill="white"/>
<mask id="mask0_452_4767" style="mask-type:alpha" maskUnits="userSpaceOnUse" x="18" y="18" width="153" height="153">
<path d="M170.703 94.6337C170.703 136.262 137.147 170.21 95.4322 170.671C95.1243 170.671 94.8165 170.671 94.5086 170.671C52.3322 170.671 18.314 136.569 18.314 94.6337C18.314 52.6978 52.4861 18.5962 94.5086 18.5962C94.8165 18.5962 95.1243 18.5962 95.4322 18.5962C136.993 19.2106 170.703 53.0051 170.703 94.6337Z" fill="white"/>
</mask>
<g mask="url(#mask0_452_4767)">
<path d="M142.203 55.8791C142.203 55.8791 142.9 56.577 143.422 57.2749C144.119 57.9728 144.641 58.6706 144.641 58.6706C144.641 58.6706 144.815 57.7983 144.99 56.9259C145.164 56.0536 145.338 55.1812 145.338 55.1812C145.512 54.1344 145.512 52.9131 145.164 51.8663C144.815 50.8194 144.119 49.7726 143.248 48.9003C143.248 48.9003 143.074 48.7258 142.726 48.5513C142.378 48.3769 142.029 48.0279 141.681 47.679C140.985 46.9811 140.114 46.2832 140.114 46.2832C140.114 46.2832 140.114 47.1556 139.94 48.0279C139.94 48.9003 139.766 49.7726 139.766 49.7726C139.766 50.8194 139.766 52.0407 140.288 53.0876C140.81 54.1344 141.333 55.0067 142.203 55.8791Z" fill="#DDDDDD"/>
<path d="M148.472 63.7306C148.995 64.4285 149.517 65.3008 149.517 65.3008C149.517 65.3008 149.866 64.4285 150.214 63.7306C150.562 62.8582 150.91 61.9859 150.91 61.9859C151.607 59.8922 151.259 57.2752 149.517 55.5305C149.517 55.5305 148.821 54.6581 148.298 53.9602C147.428 53.2623 146.731 52.5645 146.731 52.5645C146.731 52.5645 146.557 53.4368 146.383 54.3092C146.209 55.1815 146.035 56.0539 146.035 56.0539C145.512 58.322 146.035 60.5901 147.428 62.3348C147.428 62.3348 147.95 63.0327 148.472 63.7306Z" fill="#DDDDDD"/>
<path d="M150.911 65.9985C150.911 67.0454 151.259 68.2667 151.781 69.139C151.781 69.139 151.956 69.3135 152.13 69.6624C152.304 70.0114 152.478 70.3603 152.652 70.8837C153 71.7561 153.523 72.6284 153.523 72.6284C153.523 72.6284 153.871 71.9306 154.393 71.0582C154.742 70.3603 155.264 69.488 155.264 69.488C155.786 68.4411 155.961 67.3943 155.961 66.173C155.786 64.9517 155.612 63.9049 154.916 62.8581C154.916 62.8581 154.393 61.9857 153.871 61.1134C153.523 60.7644 153.349 60.241 153.174 59.8921C153 59.5431 152.826 59.3687 152.826 59.3687C152.826 59.3687 152.478 60.241 152.304 61.1134C151.956 61.9857 151.781 62.8581 151.781 62.8581C150.911 63.9049 150.737 64.9517 150.911 65.9985Z" fill="#DDDDDD"/>
<path d="M155.089 76.8156C155.089 76.8156 155.438 77.688 155.612 78.5603C155.786 78.9093 155.96 79.4327 155.96 79.7816C156.134 80.1306 156.134 80.305 156.134 80.305C156.134 80.305 156.656 79.6072 157.179 78.9093C157.701 78.2114 158.224 77.5135 158.224 77.5135C158.92 76.6412 159.268 75.4199 159.268 74.373C159.268 73.1517 159.094 72.1049 158.572 70.8836L156.831 67.2197C156.831 67.2197 156.482 68.0921 155.96 68.79C155.612 69.6623 155.089 70.3602 155.089 70.3602C154.567 72.2794 154.393 74.722 155.089 76.8156Z" fill="#DDDDDD"/>
<path d="M157.353 81.3519C157.179 82.3988 157.179 83.6201 157.353 84.6669C157.353 84.6669 157.527 85.5392 157.701 86.4116C157.875 86.935 157.875 87.2839 157.875 87.6329C157.875 87.9818 158.049 88.1563 158.049 88.1563C158.049 88.1563 158.746 87.4584 159.268 86.935C159.965 86.2371 160.487 85.7137 160.487 85.7137C161.184 84.8414 161.706 83.7945 162.054 82.7477C162.228 81.5264 162.228 80.4796 161.88 79.2583C161.88 79.2583 161.706 78.2115 161.358 77.3391C161.01 76.4667 160.661 75.4199 160.661 75.4199C160.661 75.4199 160.139 76.1178 159.616 76.9902C159.094 77.688 158.572 78.3859 158.572 78.3859C158.049 79.0838 157.701 80.1306 157.353 81.3519Z" fill="#DDDDDD"/>
<path d="M160.836 86.586C159.269 88.1562 158.572 90.4244 158.746 92.6925C158.746 92.6925 158.746 93.5648 158.92 94.6117C158.92 95.484 158.92 96.5308 158.92 96.5308C158.92 96.5308 159.617 96.0074 160.314 95.484C161.01 94.9606 161.707 94.4372 161.707 94.4372C163.274 93.0414 164.319 90.5988 163.796 88.1562C163.796 88.1562 163.622 87.1094 163.448 86.2371C163.274 85.1902 163.1 84.3179 163.1 84.3179C163.1 84.3179 162.577 85.0158 161.881 85.7136C161.532 86.0626 160.836 86.586 160.836 86.586Z" fill="#DDDDDD"/>
<path d="M161.88 95.135C161.01 95.8329 160.313 96.7052 159.791 97.752C159.268 98.7989 158.92 99.8457 158.92 100.893L158.746 104.556C158.746 104.556 159.443 104.033 160.139 103.684C160.836 103.161 161.532 102.812 161.532 102.812C162.403 102.288 163.273 101.416 163.796 100.369C164.318 99.3223 164.667 98.101 164.667 96.8797C164.667 96.8797 164.667 95.8329 164.667 94.786C164.667 94.2626 164.667 93.7392 164.667 93.3903C164.667 93.0413 164.667 92.6924 164.667 92.6924C164.667 92.6924 163.796 93.3903 163.099 94.0881C162.577 94.6116 161.88 95.135 161.88 95.135Z" fill="#DDDDDD"/>
<path d="M161.707 103.858C161.185 104.207 160.837 104.556 160.488 104.905C160.14 105.254 159.792 105.778 159.444 106.127C158.747 106.999 158.399 108.046 158.225 109.267C158.225 109.267 158.051 110.139 157.876 111.012C157.702 111.884 157.354 112.756 157.354 112.756C157.354 112.756 158.225 112.408 158.921 112.059C159.792 111.71 160.488 111.361 160.488 111.361C162.404 110.488 163.797 108.22 164.145 105.778C164.145 105.778 164.145 105.603 164.319 105.08C164.319 104.731 164.319 104.207 164.319 103.684C164.319 102.637 164.493 101.59 164.493 101.59C164.493 101.59 163.797 102.114 163.1 102.637C162.404 103.335 161.707 103.858 161.707 103.858Z" fill="#DDDDDD"/>
<path d="M160.313 112.233C158.224 113.106 156.656 114.85 156.134 117.119L154.915 120.608C154.915 120.608 155.786 120.433 156.656 120.085C157.527 119.91 158.398 119.561 158.398 119.561C159.442 119.212 160.487 118.689 161.184 117.816C161.88 116.944 162.403 115.897 162.751 114.676C162.751 114.676 162.925 113.629 163.273 112.757C163.447 112.233 163.447 111.71 163.622 111.361C163.622 111.012 163.796 110.663 163.796 110.663C163.796 110.663 163.099 111.012 162.229 111.535C161.184 111.884 160.313 112.233 160.313 112.233Z" fill="#DDDDDD"/>
<path d="M134.368 57.7984C134.542 57.9728 134.716 58.1473 134.716 58.1473C135.413 58.8452 136.283 59.3686 137.328 59.5431C138.199 59.892 139.244 59.892 140.462 59.7175C140.462 59.7175 141.333 59.5431 142.204 59.5431C143.074 59.5431 143.945 59.3686 143.945 59.3686C143.945 59.3686 143.423 58.6707 142.726 57.9728C141.856 57.4494 141.333 56.7515 141.333 56.7515C140.637 55.8792 139.592 55.3558 138.547 55.0068C137.502 54.6579 136.457 54.6579 135.413 55.0068C135.413 55.0068 134.542 55.1813 133.845 55.5302C132.975 55.7047 132.278 56.0536 132.278 56.0536C132.278 56.0536 132.975 56.5771 133.497 57.1005C133.671 57.2749 134.02 57.6239 134.368 57.7984Z" fill="#DDDDDD"/>
<path d="M144.99 65.8236C144.99 65.8236 145.861 65.8236 146.731 65.8236C147.602 65.8236 148.472 65.8236 148.472 65.8236C148.472 65.8236 147.95 65.1257 147.428 64.2534C146.905 63.5555 146.383 62.8576 146.383 62.8576C145.164 61.1129 142.9 60.0661 140.811 60.415C140.811 60.415 139.94 60.5895 139.069 60.5895C138.199 60.7639 137.328 60.9384 137.328 60.9384C137.328 60.9384 137.851 61.4618 138.373 62.1597C138.895 62.8576 139.418 63.381 139.418 63.381C140.985 65.1257 142.9 65.9981 144.99 65.8236Z" fill="#DDDDDD"/>
<path d="M150.91 70.1859C150.736 69.8369 150.562 69.6624 150.562 69.6624C150.04 68.6156 149.343 67.9177 148.298 67.3943C147.428 66.8709 146.383 66.522 145.338 66.522C145.338 66.522 144.467 66.522 143.597 66.522C142.726 66.522 141.855 66.522 141.855 66.522C141.855 66.522 142.03 66.6964 142.204 66.8709C142.378 67.0454 142.552 67.3943 142.9 67.7433C143.423 68.4412 143.771 69.139 143.771 69.139C144.293 70.0114 144.99 70.7093 145.86 71.2327C146.731 71.7561 147.776 72.105 148.821 72.2795C148.821 72.2795 149.691 72.454 150.562 72.454C151.433 72.6285 152.303 72.8029 152.303 72.8029C152.303 72.8029 151.955 71.9306 151.433 71.2327C151.259 70.8837 151.084 70.5348 150.91 70.1859Z" fill="#DDDDDD"/>
<path d="M154.567 78.9091C154.219 78.0367 154.044 77.1644 154.044 77.1644C153.174 75.0707 151.433 73.6749 149.343 73.326C149.343 73.326 148.472 73.1515 147.602 73.1515C146.731 73.1515 145.86 72.9771 145.86 72.9771L147.428 75.9431C147.776 76.8154 148.472 77.6878 149.169 78.2112C149.865 78.9091 150.91 79.258 151.955 79.6069C151.955 79.6069 152.826 79.7814 153.696 80.1304C154.567 80.3048 155.263 80.6538 155.263 80.6538C155.263 80.6538 155.263 80.4793 155.089 80.1304C154.915 79.7814 154.741 79.258 154.567 78.9091Z" fill="#DDDDDD"/>
<path d="M150.562 79.9559C149.692 79.7814 148.995 79.6069 148.995 79.6069C148.995 79.6069 149.343 80.3048 149.518 81.1772C149.866 81.8751 150.04 82.7474 150.04 82.7474C150.214 83.7942 150.911 84.4921 151.433 85.3645C152.129 86.0624 153 86.7602 153.871 87.1092C153.871 87.1092 154.741 87.4581 155.438 87.8071C156.134 88.156 157.005 88.505 157.005 88.505C157.005 88.505 157.005 88.3305 157.005 87.9815C157.005 87.6326 156.831 87.2837 156.831 86.7602C156.657 85.8879 156.483 85.0155 156.483 85.0155C156.309 83.9687 155.786 82.9219 154.916 82.224C154.219 81.5261 153.348 80.8282 152.304 80.6538C152.129 80.4793 151.259 80.1303 150.562 79.9559Z" fill="#DDDDDD"/>
<path d="M157.701 94.6114C157.701 93.7391 157.527 92.8667 157.527 92.8667C157.353 90.5986 155.96 88.6794 154.045 87.9815C154.045 87.9815 153.174 87.6326 152.477 87.2837C151.607 86.9347 150.91 86.7603 150.91 86.7603C150.91 86.7603 151.084 87.6326 151.258 88.3305C151.433 89.2028 151.433 89.9007 151.433 89.9007C151.781 91.8199 153 93.5646 154.915 94.6114C154.915 94.6114 155.612 94.9604 156.308 95.4838C157.005 96.0072 157.701 96.3562 157.701 96.3562C157.701 96.3562 157.701 95.4838 157.701 94.6114Z" fill="#DDDDDD"/>
<path d="M157.701 100.893C157.701 99.8457 157.527 98.6244 157.005 97.7521C156.482 96.8797 155.786 96.0074 154.915 95.484C154.915 95.484 154.219 94.9606 153.522 94.6116C152.826 94.2627 151.955 93.7393 151.955 93.7393C151.955 93.7393 151.955 93.9137 151.955 94.2627C151.955 94.6116 151.955 94.9606 151.955 95.3095C151.955 96.1819 151.955 96.8797 151.955 96.8797C151.955 97.9266 152.303 98.7989 152.652 99.6713C153.174 100.544 153.696 101.416 154.567 101.939C154.567 101.939 155.264 102.463 155.96 102.986C156.657 103.51 157.353 104.033 157.353 104.033L157.701 100.893Z" fill="#DDDDDD"/>
<path d="M156.656 110.663C156.83 109.79 157.004 108.918 157.004 108.918C157.179 107.871 157.004 106.65 156.656 105.778C156.482 105.254 156.308 104.905 155.96 104.382C155.611 104.033 155.263 103.509 154.741 103.161C154.741 103.161 154.044 102.637 153.348 102.114C152.651 101.59 151.955 101.067 151.955 101.067C151.955 101.067 151.955 101.939 151.955 102.637C151.955 102.986 151.955 103.509 151.955 103.684C151.955 104.033 151.955 104.207 151.955 104.207C151.606 106.127 152.477 108.22 154.044 109.79C154.044 109.79 154.567 110.314 155.263 111.012C155.786 111.71 156.482 112.233 156.482 112.233C156.482 112.233 156.308 111.535 156.656 110.663Z" fill="#DDDDDD"/>
<path d="M153.697 120.085L154.916 116.77C155.612 114.676 154.915 112.408 153.522 110.838C153.522 110.838 153 110.314 152.304 109.616C151.607 109.093 151.085 108.395 151.085 108.395C151.085 108.395 151.085 108.569 151.085 108.918C151.085 109.267 150.91 109.616 150.91 109.965C150.736 110.838 150.562 111.536 150.562 111.536C150.388 112.582 150.388 113.455 150.562 114.502C150.736 115.548 151.085 116.421 151.781 117.293C151.781 117.293 152.304 117.991 152.826 118.689C153.348 119.387 153.697 120.085 153.697 120.085Z" fill="#DDDDDD"/>
<path d="M135.238 52.3897C136.283 53.2621 137.676 53.7855 139.243 53.7855C139.243 52.2152 138.373 50.9939 137.328 49.9471C136.109 49.0748 134.716 48.5513 133.149 48.7258C133.323 50.2961 134.194 51.5173 135.238 52.3897Z" fill="#DDDDDD"/>
<path d="M54.5598 58C54.3857 58.1745 54.2116 58.349 54.2116 58.349C53.5151 59.0468 52.6444 59.5703 51.5996 59.7447C50.729 60.0937 49.6842 60.0937 48.4653 59.9192C48.4653 59.9192 47.5946 59.7447 46.724 59.7447C45.8533 59.7447 44.9827 59.5703 44.9827 59.5703C44.9827 59.5703 45.5051 58.8724 46.2016 58.1745C46.8981 57.6511 47.5946 56.9532 47.5946 56.9532C48.2911 56.0808 49.3359 55.5574 50.3807 55.2085C51.4255 54.8595 52.4703 54.8595 53.5151 55.2085C53.5151 55.2085 54.3857 55.383 55.0822 55.7319C55.9529 55.9064 56.6494 56.2553 56.6494 56.2553C56.6494 56.2553 55.9529 56.7787 55.4305 57.3021C55.0822 57.4766 54.734 57.8255 54.5598 58Z" fill="#DDDDDD"/>
<path d="M43.7639 66.0253C43.7639 66.0253 42.8932 66.0253 42.0226 66.0253C41.1519 66.0253 40.2812 66.0253 40.2812 66.0253C40.2812 66.0253 40.8036 65.3274 41.326 64.455C41.8484 63.7571 42.3708 63.0593 42.3708 63.0593C43.5897 61.3145 45.8534 60.2677 47.943 60.6167C47.943 60.6167 48.8136 60.7911 49.6843 60.7911C50.5549 60.9656 51.4256 61.1401 51.4256 61.1401C51.4256 61.1401 50.7291 61.838 50.2067 62.5358C49.6843 63.2337 49.1619 63.7571 49.1619 63.7571C47.7689 65.3274 45.8534 66.1997 43.7639 66.0253Z" fill="#DDDDDD"/>
<path d="M37.8433 70.3869C38.0174 70.2124 38.0174 70.0379 38.0174 70.0379C38.5398 68.9911 39.2363 68.2932 40.2811 67.7698C41.1518 67.2464 42.1966 66.8975 43.2413 66.8975C43.2413 66.8975 44.112 66.8975 44.9826 66.8975C45.8533 66.8975 46.724 66.8975 46.724 66.8975C46.724 66.8975 46.5498 67.0719 46.3757 67.2464C46.2016 67.4209 46.0274 67.7698 45.6792 68.1188C45.1568 68.8166 44.8085 69.5145 44.8085 69.5145C44.2861 70.3869 43.5896 71.0848 42.719 71.6082C41.8483 72.1316 40.8035 72.4805 39.7587 72.655C39.7587 72.655 38.8881 72.8295 38.0174 72.8295C37.1468 73.0039 36.2761 73.1784 36.2761 73.1784C36.2761 73.1784 36.6244 72.3061 37.1468 71.6082C37.495 71.0848 37.6692 70.7358 37.8433 70.3869Z" fill="#DDDDDD"/>
<path d="M34.1865 79.1107C34.5348 78.2384 34.7089 77.366 34.7089 77.366C35.5796 75.2724 37.3209 73.8766 39.4104 73.5277C39.4104 73.5277 40.2811 73.3532 41.1517 73.3532C42.0224 73.3532 42.893 73.1787 42.893 73.1787L41.3259 76.1447C40.9776 77.0171 40.2811 77.8894 39.5846 78.4128C38.888 79.1107 37.8433 79.4597 36.7985 79.8086C36.7985 79.8086 35.9278 79.9831 35.0572 80.332C34.1865 80.5065 33.49 80.8554 33.49 80.8554C33.49 80.8554 33.49 80.681 33.6641 80.332C33.8383 79.9831 34.0124 79.4597 34.1865 79.1107Z" fill="#DDDDDD"/>
<path d="M38.3652 80.1575C39.2358 79.9831 39.9324 79.8086 39.9324 79.8086C39.9324 79.8086 39.5841 80.5065 39.41 81.3788C39.0617 82.0767 38.8876 82.9491 38.8876 82.9491C38.7135 83.9959 38.0169 84.6938 37.4945 85.5661C36.798 86.264 35.9274 86.9619 35.0567 87.3108C35.0567 87.3108 34.1861 87.6598 33.4895 88.0087C32.793 88.3577 31.9224 88.7066 31.9224 88.7066C31.9224 88.7066 31.9224 88.5321 31.9224 88.1832C31.9224 87.8343 32.0965 87.4853 32.0965 86.9619C32.2706 86.0895 32.4448 85.2172 32.4448 85.2172C32.6189 84.1704 33.1413 83.1235 34.0119 82.4257C34.7085 81.7278 35.5791 81.0299 36.6239 80.8554C36.6239 80.6809 37.4945 80.332 38.3652 80.1575Z" fill="#DDDDDD"/>
<path d="M31.052 94.8131C31.052 93.9408 31.2261 93.0684 31.2261 93.0684C31.4003 90.8003 32.7933 88.8811 34.7087 88.1832C34.7087 88.1832 35.5794 87.8343 36.2759 87.4853C37.1466 87.1364 37.8431 86.9619 37.8431 86.9619C37.8431 86.9619 37.669 87.8343 37.4948 88.5322C37.4948 89.23 37.3207 90.1024 37.3207 90.1024C36.9724 92.0216 35.7535 93.7663 33.8381 94.8131C33.8381 94.8131 33.1416 95.162 32.445 95.6855C31.7485 96.2089 31.052 96.7323 31.052 96.7323C31.052 96.7323 31.052 95.6855 31.052 94.8131Z" fill="#DDDDDD"/>
<path d="M31.0518 101.094C31.0518 100.047 31.2259 98.8256 31.7483 97.9533C32.2707 97.0809 32.9672 96.2086 33.8378 95.6851C33.8378 95.6851 34.5344 95.1617 35.2309 94.8128C35.9274 94.4638 36.7981 93.9404 36.7981 93.9404C36.7981 93.9404 36.7981 94.1149 36.7981 94.4638C36.7981 94.8128 36.7981 95.1617 36.7981 95.5107C36.7981 96.383 36.7981 97.0809 36.7981 97.0809C36.7981 98.1277 36.4498 99.0001 36.1015 99.8724C35.5792 100.745 35.0568 101.617 34.1861 102.141C34.1861 102.141 33.4896 102.664 32.7931 103.187C32.0965 103.711 31.4 104.234 31.4 104.234L31.0518 101.094Z" fill="#DDDDDD"/>
<path d="M32.2708 110.864C32.0967 109.992 31.9226 109.12 31.9226 109.12C31.7484 108.073 31.9226 106.852 32.2708 105.979C32.445 105.456 32.6191 105.107 32.9673 104.584C33.3156 104.235 33.6639 103.711 34.1863 103.362C34.1863 103.362 34.8828 102.839 35.5793 102.315C36.2758 101.792 36.9723 101.269 36.9723 101.269C36.9723 101.269 36.9723 102.141 36.9723 102.839C36.9723 103.188 36.9723 103.711 36.9723 103.886C36.9723 104.235 36.9723 104.409 36.9723 104.409C37.3206 106.328 36.45 108.422 34.8828 109.992C34.8828 109.992 34.3604 110.516 33.6639 111.213C33.1415 111.911 32.445 112.435 32.445 112.435C32.445 112.435 32.445 111.737 32.2708 110.864Z" fill="#DDDDDD"/>
<path d="M35.0569 120.286L33.8379 116.971C33.1414 114.877 33.8379 112.609 35.231 111.039C35.231 111.039 35.7534 110.515 36.4499 109.817C37.1464 109.294 37.6688 108.596 37.6688 108.596C37.6688 108.596 37.6688 108.771 37.6688 109.12C37.6688 109.469 37.8429 109.817 37.8429 110.166C38.0171 111.039 38.3653 111.737 38.3653 111.737C38.5395 112.783 38.5395 113.656 38.3653 114.703C38.1912 115.749 37.8429 116.622 37.1464 117.494C37.1464 117.494 36.624 118.192 36.1016 118.89C35.5793 119.588 35.0569 120.286 35.0569 120.286Z" fill="#DDDDDD"/>
<path d="M46.7234 56.0808C46.7234 56.0808 46.0269 56.7786 45.5045 57.4765C44.808 58.1744 44.2856 58.8723 44.2856 58.8723C44.2856 58.8723 44.1115 57.9999 43.9373 57.1276C43.7632 56.2552 43.5891 55.3829 43.5891 55.3829C43.2408 54.3361 43.2408 53.1148 43.5891 52.0679C43.9373 51.0211 44.6339 49.9743 45.5045 49.1019C45.5045 49.1019 45.6786 48.9275 46.0269 48.753C46.3752 48.5785 46.7234 48.2296 47.0717 47.8806C47.7682 47.1827 48.6389 46.4849 48.6389 46.4849C48.6389 46.4849 48.6389 47.3572 48.813 48.2296C48.813 49.1019 48.9871 49.9743 48.9871 49.9743C48.9871 51.0211 48.9871 52.2424 48.4647 53.2892C48.1165 54.3361 47.4199 55.2084 46.7234 56.0808Z" fill="#DDDDDD"/>
<path d="M40.281 63.9318C39.7586 64.6296 39.2362 65.502 39.2362 65.502C39.2362 65.502 39.0621 64.8041 38.7138 63.9318C38.3656 63.0594 38.0173 62.1871 38.0173 62.1871C37.3208 60.0934 37.8432 57.6508 39.4103 55.7316C39.4103 55.7316 40.1069 54.8593 40.6293 54.1614C41.3258 53.4635 42.0223 52.7656 42.0223 52.7656C42.0223 52.7656 42.1964 53.638 42.3706 54.5103C42.5447 55.3827 42.7188 56.255 42.7188 56.255C43.2412 58.5232 42.7188 60.7913 41.3258 62.536C41.3258 62.536 40.8034 63.2339 40.281 63.9318Z" fill="#DDDDDD"/>
<path d="M38.0171 66.1997C38.0171 67.2465 37.6688 68.4678 37.1464 69.3402C37.1464 69.3402 36.9723 69.5147 36.7982 69.8636C36.624 70.2125 36.4499 70.5615 36.2758 71.0849C35.9275 71.9573 35.4051 72.8296 35.4051 72.8296C35.4051 72.8296 35.0569 71.9573 34.5345 71.2594C34.1862 70.5615 33.6638 69.6891 33.6638 69.6891C33.1414 68.6423 32.9673 67.5955 32.9673 66.3742C33.1414 65.1529 33.3155 64.1061 34.0121 63.0592C34.0121 63.0592 34.5345 62.1869 35.0569 61.3145C35.5792 60.7911 35.7534 60.4422 36.1016 60.0932C36.2758 59.7443 36.4499 59.5698 36.4499 59.5698C36.4499 59.5698 36.7982 60.4422 36.9723 61.3145C37.3205 62.1869 37.4947 63.0592 37.4947 63.0592C38.0171 64.1061 38.0171 65.1529 38.0171 66.1997Z" fill="#DDDDDD"/>
<path d="M33.6638 77.017C33.6638 77.017 33.3155 77.8893 33.1414 78.7617C32.9673 79.1106 32.7932 79.634 32.619 79.8085C32.4449 80.1574 32.4449 80.3319 32.4449 80.3319C32.4449 80.3319 31.9225 79.634 31.4001 78.9361C30.8777 78.2383 30.3553 77.5404 30.3553 77.5404C29.8329 76.668 29.3105 75.6212 29.3105 74.3999C29.3105 73.1786 29.4847 72.1318 30.0071 70.9105L31.7484 67.2466C31.7484 67.2466 32.0966 68.1189 32.619 68.8168C32.9673 69.6892 33.4897 70.3871 33.4897 70.3871C34.3603 72.4807 34.5345 74.9233 33.6638 77.017Z" fill="#DDDDDD"/>
<path d="M31.4002 81.5531C31.5743 82.5999 31.5743 83.8212 31.4002 84.8681C31.4002 84.8681 31.2261 85.7404 31.0519 86.6128C30.8778 87.1362 30.8778 87.4851 30.8778 87.8341C30.8778 88.183 30.7037 88.3575 30.7037 88.3575C30.7037 88.3575 30.0071 87.8341 29.3106 87.1362C28.6141 86.4383 28.0917 85.9149 28.0917 85.9149C27.3952 85.0425 26.8728 83.9957 26.5245 82.9489C26.3504 81.7276 26.3504 80.6807 26.6987 79.4595C26.6987 79.4595 26.8728 78.4126 27.2211 77.5403C27.5693 76.6679 27.9176 75.6211 27.9176 75.6211C27.9176 75.6211 28.44 76.319 28.9624 77.1913C29.4848 77.8892 30.0071 78.5871 30.0071 78.5871C30.7037 79.285 31.2261 80.3318 31.4002 81.5531Z" fill="#DDDDDD"/>
<path d="M27.9172 86.7872C29.4843 88.3574 30.1808 90.6255 30.0067 92.8936C30.0067 92.8936 30.0067 93.766 29.8326 94.8128C29.8326 95.6852 29.8326 96.732 29.8326 96.732C29.8326 96.732 29.1361 96.2086 28.4395 95.6852C27.743 95.1618 27.0465 94.6384 27.0465 94.6384C25.4793 93.2426 24.4345 90.8 24.9569 88.3574C24.9569 88.3574 25.1311 87.3106 25.3052 86.4382C25.4793 85.3914 25.6535 84.519 25.6535 84.519C25.6535 84.519 26.1758 85.2169 26.8724 85.9148C27.3948 86.2638 27.9172 86.7872 27.9172 86.7872Z" fill="#DDDDDD"/>
<path d="M27.0471 95.3366C27.9178 96.0345 28.6143 96.9069 29.1367 97.9537C29.6591 99.0005 30.0074 100.047 30.0074 101.094L30.1815 104.758C30.1815 104.758 29.485 104.235 28.7884 103.886C28.0919 103.362 27.3954 103.013 27.3954 103.013C26.5247 102.49 25.6541 101.618 25.1317 100.571C24.4352 99.5239 24.0869 98.3026 24.0869 97.0813C24.0869 97.0813 24.0869 96.0345 24.0869 94.9877C24.0869 94.4643 24.0869 93.9409 24.0869 93.5919C24.0869 93.243 24.0869 92.894 24.0869 92.894C24.0869 92.894 24.7834 93.4175 25.48 94.1153C26.3506 94.8132 27.0471 95.3366 27.0471 95.3366Z" fill="#DDDDDD"/>
<path d="M27.2209 104.06C27.7433 104.409 28.0916 104.758 28.4398 105.107C28.7881 105.456 29.1363 105.979 29.4846 106.328C30.1811 107.201 30.5294 108.247 30.7035 109.469C30.7035 109.469 30.8776 110.341 31.0518 111.213C31.2259 112.086 31.5742 112.958 31.5742 112.958C31.5742 112.958 30.7035 112.609 30.007 112.26C29.1363 111.911 28.4398 111.562 28.4398 111.562C26.5244 110.69 25.1313 108.422 24.7831 105.979C24.7831 105.979 24.7831 105.805 24.6089 105.281C24.6089 104.932 24.6089 104.409 24.6089 103.886C24.6089 102.839 24.4348 101.792 24.4348 101.792C24.4348 101.792 25.1313 102.315 25.8279 102.839C26.3503 103.537 27.2209 104.06 27.2209 104.06Z" fill="#DDDDDD"/>
<path d="M28.4396 112.434C30.5292 113.307 32.0964 115.052 32.6188 117.32L33.8377 120.809C33.8377 120.809 32.967 120.635 32.0964 120.286C31.2257 120.111 30.3551 119.762 30.3551 119.762C29.3103 119.413 28.2655 118.89 27.569 118.018C26.8725 117.145 26.3501 116.098 26.0018 114.877C26.0018 114.877 25.8277 113.83 25.4794 112.958C25.3053 112.434 25.3053 111.911 25.1312 111.562C25.1312 111.213 24.957 110.864 24.957 110.864C24.957 110.864 25.6536 111.213 26.5242 111.737C27.569 112.086 28.4396 112.434 28.4396 112.434Z" fill="#DDDDDD"/>
<path d="M53.6886 52.5914C52.6438 53.4637 51.2508 53.9871 49.6836 53.9871C49.6836 52.4169 50.5542 51.1956 51.599 50.1488C52.8179 49.2764 54.211 48.753 55.7782 48.9275C55.4299 50.4977 54.7334 51.719 53.6886 52.5914Z" fill="#DDDDDD"/>
<rect x="18.3318" y="117.806" width="152.089" height="64.124" fill="#930043"/>
</g>
<path d="M43.4616 137.561V127.615H41.6694V125.662H47.8832V127.615H46.1058V137.561H43.4616ZM52.6648 137.737C51.7736 137.737 51.0685 137.58 50.5495 137.267C50.0304 136.953 49.6583 136.503 49.433 135.915C49.2078 135.328 49.0952 134.627 49.0952 133.815V129.393C49.0952 128.57 49.2078 127.87 49.433 127.292C49.6583 126.714 50.0304 126.274 50.5495 125.97C51.0685 125.657 51.7736 125.5 52.6648 125.5C53.5658 125.5 54.2758 125.657 54.7949 125.97C55.3237 126.274 55.7008 126.714 55.926 127.292C56.1513 127.87 56.2639 128.57 56.2639 129.393V133.815C56.2639 134.627 56.1513 135.328 55.926 135.915C55.7008 136.503 55.3237 136.953 54.7949 137.267C54.2758 137.58 53.5658 137.737 52.6648 137.737ZM52.6648 135.871C52.9391 135.871 53.1398 135.803 53.2671 135.666C53.3944 135.528 53.4777 135.352 53.5169 135.137C53.556 134.921 53.5756 134.701 53.5756 134.476V128.747C53.5756 128.512 53.556 128.291 53.5169 128.085C53.4777 127.87 53.3944 127.694 53.2671 127.557C53.1398 127.42 52.9391 127.351 52.6648 127.351C52.4102 127.351 52.2192 127.42 52.0919 127.557C51.9646 127.694 51.8814 127.87 51.8422 128.085C51.803 128.291 51.7834 128.512 51.7834 128.747V134.476C51.7834 134.701 51.7981 134.921 51.8275 135.137C51.8667 135.352 51.945 135.528 52.0626 135.666C52.1899 135.803 52.3906 135.871 52.6648 135.871ZM58.3049 137.561V125.662H62.3006C63.0155 125.662 63.6031 125.799 64.0634 126.073C64.5236 126.337 64.8664 126.729 65.0917 127.248C65.3169 127.757 65.4295 128.379 65.4295 129.114C65.4295 130.034 65.2777 130.739 64.9741 131.229C64.6705 131.709 64.2592 132.042 63.7402 132.228C63.2211 132.414 62.6384 132.507 61.9921 132.507H60.9344V137.561H58.3049ZM60.9344 130.671H61.8158C62.139 130.671 62.3838 130.612 62.5503 130.495C62.7168 130.377 62.8245 130.201 62.8735 129.966C62.9322 129.731 62.9616 129.432 62.9616 129.07C62.9616 128.766 62.9371 128.502 62.8882 128.276C62.849 128.041 62.7462 127.855 62.5797 127.718C62.4132 127.581 62.1537 127.513 61.8011 127.513H60.9344V130.671ZM71.293 137.561L71.4987 125.662H74.3192L75.6266 132.581L77.0368 125.662H79.7545L79.9601 137.561H78.0945L77.8741 129.643L76.4933 137.561H74.8333L73.3643 129.584L73.188 137.561H71.293ZM85.5291 137.737C84.6379 137.737 83.9328 137.58 83.4138 137.267C82.8947 136.953 82.5226 136.503 82.2973 135.915C82.0721 135.328 81.9595 134.627 81.9595 133.815V129.393C81.9595 128.57 82.0721 127.87 82.2973 127.292C82.5226 126.714 82.8947 126.274 83.4138 125.97C83.9328 125.657 84.6379 125.5 85.5291 125.5C86.4301 125.5 87.1401 125.657 87.6592 125.97C88.188 126.274 88.5651 126.714 88.7903 127.292C89.0155 127.87 89.1282 128.57 89.1282 129.393V133.815C89.1282 134.627 89.0155 135.328 88.7903 135.915C88.5651 136.503 88.188 136.953 87.6592 137.267C87.1401 137.58 86.4301 137.737 85.5291 137.737ZM85.5291 135.871C85.8033 135.871 86.0041 135.803 86.1314 135.666C86.2587 135.528 86.342 135.352 86.3811 135.137C86.4203 134.921 86.4399 134.701 86.4399 134.476V128.747C86.4399 128.512 86.4203 128.291 86.3811 128.085C86.342 127.87 86.2587 127.694 86.1314 127.557C86.0041 127.42 85.8033 127.351 85.5291 127.351C85.2745 127.351 85.0835 127.42 84.9562 127.557C84.8289 127.694 84.7457 127.87 84.7065 128.085C84.6673 128.291 84.6477 128.512 84.6477 128.747V134.476C84.6477 134.701 84.6624 134.921 84.6918 135.137C84.731 135.352 84.8093 135.528 84.9268 135.666C85.0541 135.803 85.2549 135.871 85.5291 135.871ZM91.1692 137.561V125.662H94.2688C94.778 125.662 95.2579 125.701 95.7084 125.779C96.1687 125.858 96.5751 126.009 96.9276 126.235C97.2802 126.45 97.5544 126.763 97.7503 127.175C97.9559 127.576 98.0588 128.11 98.0588 128.776C98.0588 129.256 97.9853 129.662 97.8384 129.995C97.7013 130.318 97.5006 130.578 97.2361 130.774C96.9815 130.97 96.673 131.102 96.3107 131.17C96.771 131.229 97.1578 131.381 97.4712 131.626C97.7846 131.861 98.0196 132.179 98.1763 132.581C98.3428 132.982 98.426 133.467 98.426 134.035C98.426 134.652 98.3428 135.186 98.1763 135.636C98.0196 136.077 97.7895 136.439 97.4859 136.723C97.1823 137.007 96.8052 137.218 96.3547 137.355C95.914 137.492 95.4048 137.561 94.827 137.561H91.1692ZM93.7987 135.724H94.3569C94.9347 135.724 95.3313 135.577 95.5468 135.284C95.772 134.99 95.8847 134.559 95.8847 133.991C95.8847 133.54 95.8357 133.183 95.7378 132.919C95.6398 132.654 95.4782 132.463 95.253 132.346C95.0277 132.218 94.7241 132.155 94.3422 132.155H93.7987V135.724ZM93.7987 130.421H94.3128C94.7144 130.421 95.0179 130.362 95.2236 130.245C95.4293 130.118 95.5664 129.936 95.6349 129.701C95.7133 129.466 95.7524 129.182 95.7524 128.849C95.7524 128.536 95.6937 128.276 95.5762 128.071C95.4684 127.855 95.302 127.694 95.0767 127.586C94.8613 127.478 94.587 127.424 94.2541 127.424H93.7987V130.421ZM100.261 137.561V125.662H102.89V137.561H100.261ZM105.105 137.561V125.662H107.735V135.783H110.467V137.561H105.105ZM112.059 137.561V125.662H117.406V127.454H114.688V130.407H116.76V132.228H114.688V135.783H117.435V137.561H112.059ZM122.696 137.561L124.944 125.662H127.941L130.159 137.561H127.735L127.338 135.049H125.59L125.179 137.561H122.696ZM125.825 133.477H127.089L126.457 128.835L125.825 133.477ZM131.801 137.561V125.662H135.796C136.511 125.662 137.099 125.799 137.559 126.073C138.02 126.337 138.362 126.729 138.588 127.248C138.813 127.757 138.925 128.379 138.925 129.114C138.925 130.034 138.774 130.739 138.47 131.229C138.166 131.709 137.755 132.042 137.236 132.228C136.717 132.414 136.134 132.507 135.488 132.507H134.43V137.561H131.801ZM134.43 130.671H135.312C135.635 130.671 135.88 130.612 136.046 130.495C136.213 130.377 136.32 130.201 136.369 129.966C136.428 129.731 136.458 129.432 136.458 129.07C136.458 128.766 136.433 128.502 136.384 128.276C136.345 128.041 136.242 127.855 136.076 127.718C135.909 127.581 135.65 127.513 135.297 127.513H134.43V130.671ZM140.634 137.561V125.662H144.629C145.344 125.662 145.932 125.799 146.392 126.073C146.852 126.337 147.195 126.729 147.42 127.248C147.646 127.757 147.758 128.379 147.758 129.114C147.758 130.034 147.607 130.739 147.303 131.229C146.999 131.709 146.588 132.042 146.069 132.228C145.55 132.414 144.967 132.507 144.321 132.507H143.263V137.561H140.634ZM143.263 130.671H144.145C144.468 130.671 144.713 130.612 144.879 130.495C145.046 130.377 145.153 130.201 145.202 129.966C145.261 129.731 145.29 129.432 145.29 129.07C145.29 128.766 145.266 128.502 145.217 128.276C145.178 128.041 145.075 127.855 144.909 127.718C144.742 127.581 144.482 127.513 144.13 127.513H143.263V130.671ZM55.8876 155.561V143.662H58.8991C59.9372 143.662 60.7451 143.794 61.3229 144.058C61.9007 144.313 62.3072 144.719 62.5422 145.278C62.7772 145.826 62.8948 146.541 62.8948 147.422V151.741C62.8948 152.632 62.7772 153.362 62.5422 153.93C62.3072 154.488 61.9007 154.899 61.3229 155.164C60.7549 155.428 59.9568 155.561 58.9285 155.561H55.8876ZM58.5171 153.739H58.9285C59.33 153.739 59.6189 153.68 59.7952 153.563C59.9714 153.445 60.0792 153.269 60.1183 153.034C60.1673 152.799 60.1918 152.505 60.1918 152.152V146.967C60.1918 146.614 60.1624 146.33 60.1037 146.115C60.0547 145.899 59.9421 145.743 59.7658 145.645C59.5895 145.547 59.3055 145.498 58.9138 145.498H58.5171V153.739ZM64.9358 155.561V143.662H70.2829V145.454H67.5653V148.407H69.6366V150.228H67.5653V153.783H70.3123V155.561H64.9358ZM73.5333 155.561L71.3886 143.662H73.6361L74.9142 151.741L76.1041 143.662H78.4838L76.3097 155.561H73.5333ZM80.1198 155.561V143.662H85.467V145.454H82.7493V148.407H84.8206V150.228H82.7493V153.783H85.4964V155.561H80.1198ZM87.1309 155.561V143.662H89.7604V153.783H92.4927V155.561H87.1309ZM97.3061 155.737C96.4149 155.737 95.7098 155.58 95.1907 155.267C94.6717 154.953 94.2995 154.503 94.0743 153.915C93.849 153.328 93.7364 152.627 93.7364 151.815V147.393C93.7364 146.57 93.849 145.87 94.0743 145.292C94.2995 144.714 94.6717 144.274 95.1907 143.97C95.7098 143.657 96.4149 143.5 97.3061 143.5C98.2071 143.5 98.9171 143.657 99.4361 143.97C99.965 144.274 100.342 144.714 100.567 145.292C100.793 145.87 100.905 146.57 100.905 147.393V151.815C100.905 152.627 100.793 153.328 100.567 153.915C100.342 154.503 99.965 154.953 99.4361 155.267C98.9171 155.58 98.2071 155.737 97.3061 155.737ZM97.3061 153.871C97.5803 153.871 97.7811 153.803 97.9084 153.666C98.0357 153.528 98.1189 153.352 98.1581 153.137C98.1973 152.921 98.2169 152.701 98.2169 152.476V146.747C98.2169 146.512 98.1973 146.291 98.1581 146.085C98.1189 145.87 98.0357 145.694 97.9084 145.557C97.7811 145.42 97.5803 145.351 97.3061 145.351C97.0515 145.351 96.8605 145.42 96.7332 145.557C96.6059 145.694 96.5226 145.87 96.4834 146.085C96.4443 146.291 96.4247 146.512 96.4247 146.747V152.476C96.4247 152.701 96.4394 152.921 96.4688 153.137C96.5079 153.352 96.5863 153.528 96.7038 153.666C96.8311 153.803 97.0319 153.871 97.3061 153.871ZM102.946 155.561V143.662H106.942C107.657 143.662 108.244 143.799 108.705 144.073C109.165 144.337 109.508 144.729 109.733 145.248C109.958 145.757 110.071 146.379 110.071 147.114C110.071 148.034 109.919 148.739 109.615 149.229C109.312 149.709 108.9 150.042 108.381 150.228C107.862 150.414 107.28 150.507 106.633 150.507H105.576V155.561H102.946ZM105.576 148.671H106.457C106.78 148.671 107.025 148.612 107.192 148.495C107.358 148.377 107.466 148.201 107.515 147.966C107.573 147.731 107.603 147.432 107.603 147.07C107.603 146.766 107.578 146.502 107.529 146.276C107.49 146.041 107.387 145.855 107.221 145.718C107.054 145.581 106.795 145.513 106.442 145.513H105.576V148.671ZM111.779 155.561V143.662H117.126V145.454H114.409V148.407H116.48V150.228H114.409V153.783H117.156V155.561H111.779ZM118.79 155.561V143.662H122.066C122.869 143.662 123.564 143.75 124.152 143.926C124.74 144.102 125.195 144.421 125.518 144.881C125.851 145.331 126.018 145.973 126.018 146.805C126.018 147.295 125.978 147.731 125.9 148.113C125.822 148.495 125.675 148.828 125.459 149.112C125.254 149.386 124.955 149.616 124.563 149.802L126.194 155.561H123.476L122.169 150.228H121.42V155.561H118.79ZM121.42 148.715H122.154C122.526 148.715 122.815 148.651 123.021 148.524C123.226 148.387 123.368 148.196 123.447 147.951C123.535 147.697 123.579 147.393 123.579 147.04C123.579 146.531 123.486 146.134 123.3 145.85C123.114 145.566 122.771 145.424 122.272 145.424H121.42V148.715ZM131.14 155.737C130.396 155.737 129.774 155.605 129.274 155.34C128.775 155.076 128.398 154.669 128.143 154.121C127.889 153.563 127.747 152.843 127.717 151.961L129.965 151.624C129.975 152.133 130.019 152.544 130.097 152.858C130.185 153.171 130.303 153.396 130.45 153.533C130.606 153.67 130.792 153.739 131.008 153.739C131.282 153.739 131.458 153.646 131.537 153.46C131.625 153.274 131.669 153.078 131.669 152.872C131.669 152.383 131.551 151.971 131.316 151.638C131.081 151.296 130.763 150.953 130.361 150.61L129.333 149.714C128.883 149.332 128.501 148.901 128.187 148.421C127.884 147.932 127.732 147.329 127.732 146.614C127.732 145.606 128.031 144.837 128.628 144.308C129.225 143.769 130.038 143.5 131.067 143.5C131.703 143.5 132.212 143.608 132.594 143.823C132.986 144.039 133.28 144.323 133.476 144.675C133.681 145.018 133.818 145.385 133.887 145.777C133.965 146.159 134.009 146.526 134.019 146.879L131.757 147.158C131.747 146.805 131.723 146.502 131.684 146.247C131.654 145.983 131.586 145.782 131.478 145.645C131.37 145.498 131.204 145.424 130.978 145.424C130.734 145.424 130.552 145.527 130.435 145.733C130.327 145.939 130.273 146.144 130.273 146.35C130.273 146.791 130.376 147.153 130.582 147.437C130.797 147.711 131.076 148 131.419 148.304L132.403 149.17C132.922 149.611 133.358 150.111 133.711 150.669C134.073 151.227 134.254 151.917 134.254 152.74C134.254 153.298 134.127 153.808 133.872 154.268C133.618 154.718 133.255 155.076 132.785 155.34C132.325 155.605 131.777 155.737 131.14 155.737Z" fill="white"/>
<path d="M76.2442 85.6641V78.7888H78.6922C79.5048 78.7888 80.0985 78.9589 80.4735 79.2992C80.8486 79.6395 81.0361 80.1013 81.0361 80.6847C81.0361 81.0319 80.9354 81.3479 80.734 81.6326C80.5326 81.9104 80.2478 82.0875 79.8798 82.1639V82.1743C80.2895 82.2507 80.6124 82.4382 80.8486 82.7368C81.0916 83.0285 81.2132 83.3619 81.2132 83.7369C81.2132 84.3203 80.9944 84.789 80.5569 85.1432C80.1194 85.4904 79.4943 85.6641 78.6818 85.6641H76.2442ZM77.0776 84.8828H78.8797C79.3728 84.8828 79.7374 84.7821 79.9735 84.5807C80.2166 84.3793 80.3381 84.098 80.3381 83.7369C80.3381 83.3688 80.2166 83.0876 79.9735 82.8931C79.7374 82.6917 79.3728 82.591 78.8797 82.591H77.0776V84.8828ZM77.0776 81.8097H78.7026C79.6749 81.8097 80.161 81.4347 80.161 80.6847C80.161 79.9416 79.6749 79.57 78.7026 79.57H77.0776V81.8097ZM84.1958 85.6641V78.7888H89.0189V79.57H85.0292V81.7889H88.1335V82.5702H85.0292V84.8828H89.1752V85.6641H84.1958ZM94.1931 78.6846C94.7973 78.6846 95.3181 78.8096 95.7556 79.0596C96.1932 79.3027 96.5578 79.6638 96.8494 80.143L96.1515 80.6847C95.8945 80.2402 95.6029 79.9277 95.2764 79.7471C94.957 79.5596 94.5681 79.4659 94.1097 79.4659C93.7417 79.4659 93.4361 79.518 93.193 79.6221C92.9569 79.7263 92.7833 79.8652 92.6722 80.0388C92.561 80.2055 92.5055 80.3965 92.5055 80.6118C92.5055 80.8548 92.5819 81.0701 92.7347 81.2576C92.8875 81.4382 93.193 81.5805 93.6514 81.6847L95.141 82.0181C95.8008 82.1639 96.2591 82.3861 96.5161 82.6848C96.78 82.9764 96.9119 83.341 96.9119 83.7786C96.9119 84.1675 96.8008 84.5147 96.5786 84.8203C96.3633 85.1189 96.0577 85.3515 95.6619 85.5182C95.266 85.6849 94.8007 85.7682 94.266 85.7682C93.766 85.7682 93.325 85.7023 92.943 85.5703C92.568 85.4314 92.2451 85.2474 91.9742 85.0182C91.7034 84.789 91.4811 84.5321 91.3075 84.2473L92.0367 83.6536C92.1687 83.9175 92.3388 84.1501 92.5472 84.3515C92.7555 84.5529 93.0055 84.7092 93.2972 84.8203C93.5958 84.9314 93.9361 84.9869 94.3181 84.9869C94.6723 84.9869 94.9778 84.9453 95.2348 84.8619C95.4987 84.7717 95.7001 84.6432 95.839 84.4765C95.9779 84.3029 96.0473 84.0945 96.0473 83.8515C96.0473 83.6292 95.9744 83.4313 95.8286 83.2577C95.6827 83.0771 95.4084 82.9417 95.0056 82.8514L93.3909 82.4868C92.9673 82.3896 92.6236 82.2577 92.3597 82.091C92.1027 81.9174 91.9152 81.716 91.7971 81.4868C91.686 81.2507 91.6305 80.9972 91.6305 80.7263C91.6305 80.3583 91.7312 80.0215 91.9325 79.7159C92.1409 79.4034 92.436 79.1534 92.818 78.9658C93.2069 78.7783 93.6653 78.6846 94.1931 78.6846ZM104.322 78.7888V79.57H101.926V85.6641H101.093V79.57H98.6969V78.7888H104.322Z" fill="black"/>
<path d="M78.3963 89.8147V98.6431H76.0956V89.8147H78.3963ZM87.6442 89.8147V91.5937H84.7683V98.6431H82.4676V91.5937H79.5783V89.8147H87.6442ZM99.1462 91.5937H94.5848V93.4664H98.2232V95.2455H94.5848V98.6431H92.2841V89.8147H99.1462V91.5937ZM102.641 89.8147V98.6431H100.341V89.8147H102.641ZM108.679 89.8147C109.731 89.8147 110.547 90.0644 111.127 90.5638C111.715 91.0542 112.01 91.7097 112.01 92.5301C112.01 93.4308 111.72 94.1174 111.14 94.59C110.561 95.0627 109.745 95.299 108.692 95.299L108.478 95.4194H106.726V98.6431H104.465V89.8147H108.679ZM108.358 93.7875C108.804 93.7875 109.138 93.6983 109.361 93.5199C109.584 93.3416 109.696 93.0562 109.696 92.6638C109.696 92.2804 109.584 91.9995 109.361 91.8211C109.138 91.6428 108.804 91.5536 108.358 91.5536H106.726V93.7875H108.358ZM109.709 94.269L112.531 98.6431H109.99L107.729 94.7773L109.709 94.269ZM123.774 89.8147V98.6431H121.74V94.59L121.807 91.8746H121.78L119.6 98.6431H117.741L115.56 91.8746H115.534L115.601 94.59V98.6431H113.554V89.8147H116.831L118.222 94.3091L118.717 96.1818H118.744L119.252 94.3225L120.63 89.8147H123.774ZM129.046 89.6809C129.866 89.6809 130.589 89.8102 131.213 90.0688C131.846 90.3185 132.394 90.6886 132.858 91.1791L131.748 92.6638C131.364 92.2626 130.95 91.9638 130.504 91.7676C130.067 91.5625 129.568 91.46 129.006 91.46C128.676 91.46 128.408 91.4956 128.203 91.567C127.998 91.6383 127.851 91.7364 127.762 91.8613C127.673 91.9861 127.628 92.1288 127.628 92.2893C127.628 92.4766 127.713 92.6371 127.882 92.7709C128.061 92.8957 128.346 93.0027 128.738 93.0919L130.223 93.4263C131.106 93.6314 131.752 93.9301 132.163 94.3225C132.573 94.7149 132.778 95.2366 132.778 95.8875C132.778 96.5118 132.617 97.0424 132.296 97.4793C131.975 97.9074 131.534 98.2329 130.972 98.4558C130.41 98.6698 129.768 98.7768 129.046 98.7768C128.457 98.7768 127.896 98.7144 127.361 98.5896C126.825 98.4558 126.344 98.2685 125.916 98.0278C125.488 97.787 125.127 97.5105 124.832 97.1984L125.943 95.6601C126.166 95.9188 126.438 96.1506 126.759 96.3557C127.089 96.5519 127.445 96.708 127.829 96.8239C128.221 96.9398 128.618 96.9978 129.019 96.9978C129.331 96.9978 129.59 96.9666 129.795 96.9041C130.009 96.8417 130.165 96.7481 130.263 96.6232C130.361 96.4984 130.41 96.3513 130.41 96.1818C130.41 95.9946 130.343 95.8385 130.21 95.7136C130.076 95.5799 129.822 95.4684 129.447 95.3792L127.815 95.0181C127.316 94.9022 126.87 94.7506 126.478 94.5633C126.094 94.3671 125.791 94.1085 125.568 93.7875C125.345 93.4575 125.234 93.0473 125.234 92.5568C125.234 92.0039 125.385 91.5135 125.688 91.0854C125.992 90.6485 126.429 90.3052 126.999 90.0555C127.57 89.8058 128.252 89.6809 129.046 89.6809Z" fill="#930043"/>
<path d="M90.0482 75.3076C90.3233 75.3076 90.5449 75.0522 90.5449 74.7352V69.6055H76.693C76.4179 69.6055 76.1963 69.8609 76.1963 70.1779C76.1963 70.4949 76.4179 70.7503 76.693 70.7503H89.5514V74.7396C89.5514 75.0522 89.7731 75.3076 90.0482 75.3076Z" fill="#930043"/>
<path d="M65.212 86.6334C65.5457 86.6334 65.8146 86.3663 65.8146 86.0347V70.69H69.8752C70.209 70.69 70.4778 70.4229 70.4778 70.0914C70.4778 69.7598 70.209 69.4927 69.8752 69.4927H64.6094V86.0301C64.6094 86.3663 64.8782 86.6334 65.212 86.6334Z" fill="#930043"/>
<path d="M72.2343 97.6263C72.2343 97.2947 71.9655 97.0276 71.6317 97.0276H65.8087V92.6802C65.8087 92.3486 65.5399 92.0815 65.2061 92.0815C64.8724 92.0815 64.6035 92.3486 64.6035 92.6802V98.2249H71.6317C71.9655 98.2249 72.2343 97.9578 72.2343 97.6263Z" fill="#930043"/>
<path d="M67.2042 76.1749C67.32 76.2901 67.473 76.3499 67.6306 76.3499C67.7882 76.3499 67.9366 76.2901 68.0571 76.1749L79.0662 65.2375L82.1256 68.2769C82.362 68.5118 82.7421 68.5118 82.9739 68.2769C83.2103 68.0421 83.2103 67.6645 82.9739 67.4342L79.0662 63.5474L67.2042 75.3322C66.9678 75.5624 66.9678 75.9401 67.2042 76.1749Z" fill="#930043"/>
<path d="M70.9364 95.8482C71.0894 95.8482 71.2424 95.7884 71.3629 95.6732C71.5993 95.4384 71.5993 95.0607 71.3629 94.8305L60.3213 83.8608L63.427 80.7753C63.6635 80.5404 63.6635 80.1628 63.427 79.9325C63.1906 79.6976 62.8105 79.6976 62.5788 79.9325L58.6201 83.8608L70.51 95.6732C70.6305 95.793 70.7835 95.8482 70.9364 95.8482Z" fill="#930043"/>
<path d="M94.8856 25.7305L98.0753 32.2004L105.219 33.2363L100.048 38.2758L101.273 45.387L94.8856 42.0081L88.4978 45.3705L89.7228 38.2593L84.5518 33.2198L91.6958 32.184L94.8856 25.7305Z" fill="#ECC875"/>
<path d="M110.752 31.5015L112.725 35.5051L117.148 36.1463L113.95 39.2703L114.731 43.6521L110.777 41.5722L106.789 43.6521L107.546 39.2457L104.348 36.1217L108.771 35.4804L110.752 31.5015Z" fill="#ECC875"/>
<path d="M78.8129 31.5015L80.7859 35.5051L85.2171 36.1463L82.0109 39.2703L82.7672 43.6768L78.8129 41.5969L74.8586 43.6521L75.6067 39.2457L72.4087 36.1217L76.8316 35.4804L78.8129 31.5015Z" fill="#ECC875"/>
<path d="M68.3563 36.0645L69.5731 38.5308L72.286 38.9254L70.3376 40.8327L70.798 43.5374L68.3317 42.2631L65.8654 43.5374L66.334 40.8327L64.3691 38.9172L67.0821 38.5225L68.3563 36.0645Z" fill="#ECC875"/>
<path d="M121.078 36.0645L122.294 38.5308L125.007 38.9254L123.043 40.8409L123.503 43.5456L121.078 42.2713L118.611 43.5456L119.08 40.8409L117.115 38.9254L119.828 38.5308L121.078 36.0645Z" fill="#ECC875"/>
</svg>
