<svg width="243" height="184" viewBox="0 0 243 184" fill="none" xmlns="http://www.w3.org/2000/svg">
<path d="M0 138.152C13.5064 128.951 27.9058 121.539 42.7517 115.661C45.9888 123.967 49.2259 132.146 52.463 140.452C39.403 145.564 26.9012 152.081 14.9575 160.132C14.2878 155.276 13.7297 150.292 13.3948 145.308C9.04149 142.752 4.57656 140.452 0 138.152Z" fill="#6F0032"/>
<path d="M42.9157 115.581L24.5232 131.93L46.5942 125.39L42.9157 115.581Z" fill="#9C0148"/>
<path d="M242.78 138.152C229.274 128.951 214.875 121.539 200.029 115.661C196.792 123.967 193.554 132.146 190.317 140.452C203.377 145.564 215.879 152.081 227.823 160.132C228.493 155.276 229.051 150.292 229.386 145.308C233.739 142.752 238.204 140.324 242.78 138.152Z" fill="#6F0032"/>
<path d="M199.865 115.581L218.257 132.339L196.186 124.982L199.865 115.581Z" fill="#9C0148"/>
<path d="M210.591 102.134L210.887 101.609L210.708 101.033L207.93 92.1347L210.706 83.3885L210.889 82.8098L210.591 82.2812L206.061 74.2622L206.938 65.0759L206.995 64.4768L206.599 64.0243L200.45 57.012L199.28 47.9632L199.205 47.3841L198.74 47.0312L191.421 41.4806L188.346 32.712L188.153 32.1621L187.626 31.913L179.287 27.9712L174.607 20.0896L174.301 19.5734L173.715 19.4414L164.643 17.3973L158.355 10.6839L157.951 10.2524L157.36 10.2431L148.14 10.097L140.529 4.83862L140.057 4.51297L139.493 4.61285L130.403 6.22221L121.901 2.71142L121.369 2.49169L120.837 2.71142L112.335 6.22221L103.246 4.61285L102.674 4.51168L102.2 4.84589L94.7453 10.097L85.3794 10.2431L84.7881 10.2523L84.3837 10.6839L78.0934 17.3992L69.1721 19.4425L68.6006 19.5734L68.2944 20.0734L63.4607 27.9667L55.1125 31.913L54.5856 32.1621L54.3927 32.712L51.3174 41.4806L43.9988 47.0312L43.5336 47.3841L43.4587 47.9632L42.2875 57.021L36.2824 64.0369L35.9059 64.4768L35.9518 65.0539L36.6841 74.2622L32.2918 82.2981L32.0122 82.8098L32.18 83.3681L34.8154 92.1345L32.1782 101.053L32.014 101.609L32.2918 102.117L36.6841 110.153L35.9518 119.361L35.9059 119.938L36.2824 120.378L42.2875 127.394L43.4587 136.452L43.5336 137.031L43.9988 137.384L51.3174 142.935L54.3927 151.703L54.5856 152.253L55.1125 152.502L63.4607 156.448L68.2944 164.342L68.6006 164.842L69.1721 164.973L78.0934 167.016L84.3837 173.731L84.7881 174.163L85.3794 174.172L94.7453 174.318L102.2 179.569L102.685 179.911L103.267 179.798L112.335 178.047L120.819 181.696L121.369 181.933L121.92 181.696L130.403 178.047L139.472 179.798L140.047 179.909L140.529 179.577L148.14 174.318L157.36 174.172L157.951 174.163L158.355 173.731L164.643 167.018L173.715 164.974L174.301 164.842L174.607 164.326L179.287 156.444L187.626 152.502L188.153 152.253L188.346 151.703L191.421 142.935L198.74 137.384L199.205 137.031L199.28 136.452L200.45 127.403L206.599 120.391L206.995 119.938L206.938 119.339L206.061 110.153L210.591 102.134Z" fill="#ECC875" stroke="white" stroke-width="2.78824"/>
<path d="M197.285 92.1314C197.285 133.524 163.918 167.28 122.44 167.738C122.134 167.738 121.828 167.738 121.522 167.738C79.5844 167.738 45.759 133.83 45.759 92.1314C45.759 50.4333 79.7375 16.5249 121.522 16.5249C121.828 16.5249 122.134 16.5249 122.44 16.5249C163.765 17.1359 197.285 50.7388 197.285 92.1314Z" fill="white"/>
<path d="M103.361 85.7217V78.8853H105.795C106.603 78.8853 107.194 79.0545 107.566 79.3929C107.939 79.7313 108.126 80.1905 108.126 80.7705C108.126 81.1158 108.026 81.43 107.825 81.7131C107.625 81.9893 107.342 82.1654 106.976 82.2414V82.2517C107.383 82.3277 107.705 82.5141 107.939 82.8111C108.181 83.1011 108.302 83.4325 108.302 83.8054C108.302 84.3855 108.084 84.8516 107.649 85.2038C107.214 85.549 106.593 85.7217 105.785 85.7217H103.361ZM104.19 84.9448H105.982C106.472 84.9448 106.835 84.8447 107.069 84.6444C107.311 84.4442 107.432 84.1645 107.432 83.8054C107.432 83.4394 107.311 83.1598 107.069 82.9664C106.835 82.7662 106.472 82.666 105.982 82.666H104.19V84.9448ZM104.19 81.8892H105.806C106.772 81.8892 107.256 81.5163 107.256 80.7705C107.256 80.0316 106.772 79.6622 105.806 79.6622H104.19V81.8892ZM111.268 85.7217V78.8853H116.063V79.6622H112.096V81.8685H115.183V82.6453H112.096V84.9448H116.219V85.7217H111.268ZM121.208 78.7818C121.809 78.7818 122.327 78.9061 122.762 79.1547C123.197 79.3963 123.56 79.7554 123.85 80.2319L123.156 80.7705C122.9 80.3286 122.61 80.0178 122.285 79.8383C121.968 79.6518 121.581 79.5586 121.125 79.5586C120.759 79.5586 120.456 79.6104 120.214 79.714C119.979 79.8176 119.806 79.9557 119.696 80.1283C119.585 80.294 119.53 80.4839 119.53 80.698C119.53 80.9397 119.606 81.1538 119.758 81.3402C119.91 81.5197 120.214 81.6613 120.67 81.7649L122.151 82.0963C122.807 82.2414 123.263 82.4623 123.518 82.7593C123.781 83.0493 123.912 83.4118 123.912 83.8469C123.912 84.2336 123.801 84.5788 123.58 84.8827C123.366 85.1796 123.062 85.4109 122.669 85.5767C122.275 85.7424 121.812 85.8253 121.281 85.8253C120.784 85.8253 120.345 85.7597 119.965 85.6285C119.592 85.4903 119.271 85.3074 119.002 85.0795C118.733 84.8516 118.512 84.5961 118.339 84.313L119.064 83.7226C119.195 83.985 119.365 84.2163 119.572 84.4166C119.779 84.6168 120.027 84.7722 120.317 84.8827C120.614 84.9932 120.953 85.0484 121.333 85.0484C121.685 85.0484 121.989 85.007 122.244 84.9241C122.506 84.8343 122.707 84.7066 122.845 84.5409C122.983 84.3682 123.052 84.1611 123.052 83.9194C123.052 83.6984 122.979 83.5016 122.834 83.329C122.689 83.1494 122.417 83.0148 122.016 82.925L120.411 82.5625C119.989 82.4658 119.648 82.3346 119.385 82.1689C119.13 81.9962 118.943 81.796 118.826 81.5681C118.715 81.3333 118.66 81.0813 118.66 80.8119C118.66 80.446 118.76 80.111 118.961 79.8072C119.168 79.4965 119.461 79.2479 119.841 79.0614C120.228 78.875 120.683 78.7818 121.208 78.7818ZM131.28 78.8853V79.6622H128.898V85.7217H128.069V79.6622H125.687V78.8853H131.28Z" fill="black"/>
<path d="M105.501 89.8652V98.6436H103.213V89.8652H105.501ZM114.696 89.8652V91.6342H111.837V98.6436H109.549V91.6342H106.676V89.8652H114.696ZM126.133 91.6342H121.598V93.4963H125.216V95.2652H121.598V98.6436H119.31V89.8652H126.133V91.6342ZM129.609 89.8652V98.6436H127.321V89.8652H129.609ZM135.612 89.8652C136.658 89.8652 137.47 90.1135 138.046 90.61C138.631 91.0977 138.924 91.7495 138.924 92.5652C138.924 93.4608 138.636 94.1435 138.059 94.6135C137.483 95.0834 136.672 95.3184 135.625 95.3184L135.413 95.4381H133.67V98.6436H131.422V89.8652H135.612ZM135.293 93.8155C135.736 93.8155 136.069 93.7268 136.29 93.5495C136.512 93.3721 136.623 93.0884 136.623 92.6982C136.623 92.3169 136.512 92.0376 136.29 91.8603C136.069 91.6829 135.736 91.5943 135.293 91.5943H133.67V93.8155H135.293ZM136.636 94.2943L139.443 98.6436H136.916L134.668 94.7997L136.636 94.2943ZM150.621 89.8652V98.6436H148.599V94.6135L148.666 91.9135H148.639L146.471 98.6436H144.623L142.455 91.9135H142.428L142.494 94.6135V98.6436H140.46V89.8652H143.718L145.101 94.3342L145.594 96.1963H145.62L146.126 94.3475L147.495 89.8652H150.621ZM155.864 89.7322C156.679 89.7322 157.398 89.8608 158.018 90.1179C158.648 90.3662 159.193 90.7342 159.654 91.2219L158.55 92.6982C158.169 92.2992 157.757 92.0022 157.313 91.8071C156.879 91.6031 156.382 91.5012 155.824 91.5012C155.496 91.5012 155.23 91.5366 155.026 91.6076C154.822 91.6785 154.675 91.7761 154.587 91.9002C154.498 92.0243 154.454 92.1662 154.454 92.3258C154.454 92.512 154.538 92.6716 154.706 92.8046C154.884 92.9288 155.168 93.0352 155.558 93.1238L157.034 93.4564C157.912 93.6603 158.555 93.9573 158.963 94.3475C159.37 94.7376 159.574 95.2564 159.574 95.9036C159.574 96.5243 159.415 97.0519 159.096 97.4864C158.776 97.912 158.337 98.2357 157.779 98.4573C157.22 98.6702 156.582 98.7766 155.864 98.7766C155.278 98.7766 154.72 98.7145 154.188 98.5904C153.656 98.4573 153.177 98.2711 152.751 98.0317C152.326 97.7923 151.967 97.5174 151.674 97.2071L152.778 95.6775C153 95.9347 153.27 96.1652 153.589 96.3692C153.917 96.5642 154.272 96.7194 154.653 96.8347C155.043 96.95 155.438 97.0076 155.837 97.0076C156.147 97.0076 156.404 96.9766 156.608 96.9145C156.821 96.8524 156.976 96.7593 157.074 96.6352C157.171 96.511 157.22 96.3647 157.22 96.1963C157.22 96.0101 157.154 95.8549 157.021 95.7307C156.888 95.5977 156.635 95.4869 156.263 95.3982L154.64 95.0391C154.143 94.9238 153.7 94.7731 153.31 94.5869C152.929 94.3918 152.627 94.1347 152.405 93.8155C152.184 93.4874 152.073 93.0795 152.073 92.5918C152.073 92.0421 152.224 91.5544 152.525 91.1288C152.827 90.6943 153.261 90.3529 153.829 90.1046C154.396 89.8563 155.074 89.7322 155.864 89.7322Z" fill="#930043"/>
<path d="M117.087 75.367C117.361 75.367 117.581 75.1131 117.581 74.7979V69.6973H103.808C103.534 69.6973 103.314 69.9512 103.314 70.2664C103.314 70.5817 103.534 70.8356 103.808 70.8356H116.593V74.8023C116.593 75.1131 116.814 75.367 117.087 75.367Z" fill="#930043"/>
<path d="M92.3919 86.6285C92.7238 86.6285 92.9911 86.3629 92.9911 86.0332V70.7755H97.0287C97.3606 70.7755 97.6279 70.5099 97.6279 70.1802C97.6279 69.8506 97.3606 69.585 97.0287 69.585H91.7927V86.0287C91.7927 86.3629 92.0601 86.6285 92.3919 86.6285Z" fill="#930043"/>
<path d="M99.3739 97.5592C99.3739 97.2295 99.1066 96.9639 98.7747 96.9639H92.9848V92.6412C92.9848 92.3115 92.7174 92.0459 92.3856 92.0459C92.0537 92.0459 91.7864 92.3115 91.7864 92.6412V98.1545H98.7747C99.1066 98.1545 99.3739 97.8889 99.3739 97.5592Z" fill="#930043"/>
<path d="M94.3723 76.2294C94.4876 76.3438 94.6397 76.4034 94.7964 76.4034C94.9531 76.4034 95.1006 76.3438 95.2204 76.2294L106.167 65.3539L109.209 68.3761C109.444 68.6097 109.822 68.6097 110.053 68.3761C110.288 68.1426 110.288 67.7671 110.053 67.5381L106.167 63.6733L94.3723 75.3914C94.1373 75.6203 94.1373 75.9958 94.3723 76.2294Z" fill="#930043"/>
<path d="M98.0834 95.7912C98.2355 95.7912 98.3876 95.7317 98.5075 95.6172C98.7425 95.3837 98.7425 95.0082 98.5075 94.7792L87.5285 83.8717L90.6166 80.8037C90.8517 80.5701 90.8517 80.1946 90.6166 79.9657C90.3815 79.7321 90.0036 79.7321 89.7731 79.9657L85.8369 83.8717L97.6594 95.6172C97.7792 95.7363 97.9313 95.7912 98.0834 95.7912Z" fill="#930043"/>
<path d="M168.946 49.5093C168.946 49.5093 169.639 50.2032 170.158 50.8971C170.851 51.5911 171.37 52.285 171.37 52.285C171.37 52.285 171.544 51.4176 171.717 50.5502C171.89 49.6828 172.063 48.8154 172.063 48.8154C172.236 47.7745 172.236 46.5601 171.89 45.5192C171.544 44.4783 170.851 43.4374 169.985 42.57C169.985 42.57 169.812 42.3965 169.466 42.223C169.12 42.0496 168.773 41.7026 168.427 41.3556C167.734 40.6617 166.869 39.9678 166.869 39.9678C166.869 39.9678 166.869 40.8352 166.696 41.7026C166.696 42.57 166.522 43.4374 166.522 43.4374C166.522 44.4783 166.522 45.6927 167.042 46.7336C167.561 47.7745 168.081 48.6419 168.946 49.5093Z" fill="#DDDDDD"/>
<path d="M175.18 57.3157C175.699 58.0097 176.219 58.8771 176.219 58.8771C176.219 58.8771 176.565 58.0097 176.911 57.3157C177.258 56.4483 177.604 55.5809 177.604 55.5809C178.297 53.4991 177.95 50.8969 176.219 49.1621C176.219 49.1621 175.526 48.2947 175.007 47.6007C174.141 46.9068 173.449 46.2129 173.449 46.2129C173.449 46.2129 173.275 47.0803 173.102 47.9477C172.929 48.8151 172.756 49.6825 172.756 49.6825C172.236 51.9378 172.756 54.1931 174.141 55.9279C174.141 55.9279 174.661 56.6218 175.18 57.3157Z" fill="#DDDDDD"/>
<path d="M177.604 59.5708C177.604 60.6117 177.951 61.8261 178.47 62.6935C178.47 62.6935 178.643 62.867 178.816 63.214C178.989 63.5609 179.163 63.9079 179.336 64.4283C179.682 65.2957 180.201 66.1632 180.201 66.1632C180.201 66.1632 180.548 65.4692 181.067 64.6018C181.413 63.9079 181.933 63.0405 181.933 63.0405C182.452 61.9996 182.625 60.9587 182.625 59.7443C182.452 58.5299 182.279 57.489 181.587 56.4482C181.587 56.4482 181.067 55.5807 180.548 54.7133C180.201 54.3664 180.028 53.8459 179.855 53.499C179.682 53.152 179.509 52.9785 179.509 52.9785C179.509 52.9785 179.163 53.8459 178.989 54.7133C178.643 55.5807 178.47 56.4482 178.47 56.4482C177.604 57.489 177.431 58.5299 177.604 59.5708Z" fill="#DDDDDD"/>
<path d="M181.759 70.3267C181.759 70.3267 182.106 71.1941 182.279 72.0615C182.452 72.4085 182.625 72.9289 182.625 73.2759C182.798 73.6228 182.798 73.7963 182.798 73.7963C182.798 73.7963 183.318 73.1024 183.837 72.4085C184.356 71.7145 184.876 71.0206 184.876 71.0206C185.568 70.1532 185.915 68.9388 185.915 67.8979C185.915 66.6835 185.742 65.6427 185.222 64.4283L183.491 60.7852C183.491 60.7852 183.144 61.6526 182.625 62.3465C182.279 63.2139 181.759 63.9078 181.759 63.9078C181.24 65.8161 181.067 68.2449 181.759 70.3267Z" fill="#DDDDDD"/>
<path d="M184.01 74.8374C183.837 75.8782 183.837 77.0926 184.01 78.1335C184.01 78.1335 184.183 79.0009 184.356 79.8683C184.529 80.3888 184.529 80.7357 184.529 81.0827C184.529 81.4297 184.703 81.6032 184.703 81.6032C184.703 81.6032 185.395 80.9092 185.915 80.3888C186.607 79.6949 187.127 79.1744 187.127 79.1744C187.819 78.307 188.339 77.2661 188.685 76.2252C188.858 75.0108 188.858 73.9699 188.512 72.7556C188.512 72.7556 188.339 71.7147 187.992 70.8473C187.646 69.9799 187.3 68.939 187.3 68.939C187.3 68.939 186.78 69.6329 186.261 70.5003C185.741 71.1942 185.222 71.8882 185.222 71.8882C184.703 72.5821 184.356 73.623 184.01 74.8374Z" fill="#DDDDDD"/>
<path d="M187.473 80.0419C185.915 81.6032 185.222 83.8585 185.396 86.1138C185.396 86.1138 185.396 86.9812 185.569 88.0221C185.569 88.8895 185.569 89.9304 185.569 89.9304C185.569 89.9304 186.261 89.4099 186.954 88.8895C187.646 88.369 188.339 87.8486 188.339 87.8486C189.897 86.4607 190.936 84.032 190.417 81.6032C190.417 81.6032 190.244 80.5623 190.07 79.6949C189.897 78.654 189.724 77.7866 189.724 77.7866C189.724 77.7866 189.205 78.4806 188.512 79.1745C188.166 79.5214 187.473 80.0419 187.473 80.0419Z" fill="#DDDDDD"/>
<path d="M188.512 88.5425C187.646 89.2364 186.953 90.1039 186.434 91.1447C185.914 92.1856 185.568 93.2265 185.568 94.2674L185.395 97.9106C185.395 97.9106 186.088 97.3901 186.78 97.0431C187.473 96.5227 188.165 96.1757 188.165 96.1757C189.031 95.6553 189.897 94.7879 190.416 93.747C190.936 92.7061 191.282 91.4917 191.282 90.2773C191.282 90.2773 191.282 89.2364 191.282 88.1956C191.282 87.6751 191.282 87.1547 191.282 86.8077C191.282 86.4607 191.282 86.1138 191.282 86.1138C191.282 86.1138 190.416 86.8077 189.724 87.5016C189.204 88.0221 188.512 88.5425 188.512 88.5425Z" fill="#DDDDDD"/>
<path d="M188.339 97.2167C187.82 97.5637 187.474 97.9106 187.127 98.2576C186.781 98.6045 186.435 99.125 186.088 99.472C185.396 100.339 185.05 101.38 184.876 102.595C184.876 102.595 184.703 103.462 184.53 104.329C184.357 105.197 184.011 106.064 184.011 106.064C184.011 106.064 184.876 105.717 185.569 105.37C186.435 105.023 187.127 104.676 187.127 104.676C189.032 103.809 190.417 101.554 190.763 99.125C190.763 99.125 190.763 98.9515 190.936 98.4311C190.936 98.0841 190.936 97.5637 190.936 97.0432C190.936 96.0023 191.11 94.9614 191.11 94.9614C191.11 94.9614 190.417 95.4819 189.724 96.0023C189.032 96.6962 188.339 97.2167 188.339 97.2167Z" fill="#DDDDDD"/>
<path d="M186.953 105.544C184.875 106.411 183.317 108.146 182.798 110.401L181.586 113.871C181.586 113.871 182.451 113.697 183.317 113.35C184.183 113.177 185.049 112.83 185.049 112.83C186.087 112.483 187.126 111.963 187.819 111.095C188.511 110.228 189.031 109.187 189.377 107.973C189.377 107.973 189.55 106.932 189.897 106.064C190.07 105.544 190.07 105.023 190.243 104.676C190.243 104.329 190.416 103.982 190.416 103.982C190.416 103.982 189.723 104.329 188.858 104.85C187.819 105.197 186.953 105.544 186.953 105.544Z" fill="#DDDDDD"/>
<path d="M184.53 113.871C183.491 114.218 182.452 114.738 181.759 115.432C180.894 116.126 180.201 116.994 179.682 118.035C179.682 118.035 179.335 118.902 178.816 119.769C178.643 120.116 178.47 120.637 178.296 120.984C178.123 121.331 177.95 121.504 177.95 121.504C177.95 121.504 178.816 121.504 179.682 121.331C180.547 121.157 181.413 120.984 181.413 120.984C182.452 120.81 183.491 120.29 184.357 119.596C185.222 118.902 186.088 117.861 186.434 116.82L187.993 112.83C187.993 112.83 187.127 113.177 186.261 113.351C185.395 113.524 184.53 113.871 184.53 113.871Z" fill="#DDDDDD"/>
<path d="M181.067 121.677C180.028 121.851 178.989 122.198 177.95 122.892C177.084 123.412 176.219 124.28 175.699 125.147C175.699 125.147 175.526 125.32 175.353 125.667C175.18 126.014 174.834 126.361 174.66 126.708C174.141 127.402 173.622 128.096 173.622 128.096C173.622 128.096 174.487 128.096 175.353 128.096C176.219 128.096 177.084 128.096 177.084 128.096C179.335 128.096 181.413 126.535 182.625 124.453C182.625 124.453 183.144 123.586 183.664 122.718C184.183 121.851 184.53 120.983 184.53 120.983C184.53 120.983 183.664 121.157 182.798 121.33C181.932 121.504 181.067 121.677 181.067 121.677Z" fill="#DDDDDD"/>
<path d="M161.155 51.4173C161.328 51.5908 161.501 51.7642 161.501 51.7642C162.194 52.4582 163.059 52.9786 164.098 53.1521C164.964 53.4991 166.003 53.4991 167.215 53.3256C167.215 53.3256 168.081 53.1521 168.946 53.1521C169.812 53.1521 170.678 52.9786 170.678 52.9786C170.678 52.9786 170.158 52.2847 169.466 51.5908C168.6 51.0703 168.081 50.3764 168.081 50.3764C167.388 49.509 166.349 48.9885 165.31 48.6416C164.271 48.2946 163.233 48.2946 162.194 48.6416C162.194 48.6416 161.328 48.8151 160.635 49.162C159.77 49.3355 159.077 49.6825 159.077 49.6825C159.077 49.6825 159.77 50.2029 160.289 50.7234C160.462 50.8968 160.809 51.2438 161.155 51.4173Z" fill="#DDDDDD"/>
<path d="M171.717 59.3975C171.717 59.3975 172.582 59.3975 173.448 59.3975C174.314 59.3975 175.18 59.3975 175.18 59.3975C175.18 59.3975 174.66 58.7036 174.141 57.8362C173.621 57.1423 173.102 56.4484 173.102 56.4484C171.89 54.7135 169.639 53.6726 167.561 54.0196C167.561 54.0196 166.696 54.1931 165.83 54.1931C164.964 54.3666 164.098 54.54 164.098 54.54C164.098 54.54 164.618 55.0605 165.137 55.7544C165.657 56.4484 166.176 56.9688 166.176 56.9688C167.734 58.7036 169.639 59.571 171.717 59.3975Z" fill="#DDDDDD"/>
<path d="M177.604 63.7344C177.43 63.3875 177.257 63.214 177.257 63.214C176.738 62.1731 176.045 61.4792 175.006 60.9587C174.141 60.4383 173.102 60.0913 172.063 60.0913C172.063 60.0913 171.197 60.0913 170.332 60.0913C169.466 60.0913 168.6 60.0913 168.6 60.0913C168.6 60.0913 168.773 60.2648 168.946 60.4383C169.12 60.6118 169.293 60.9587 169.639 61.3057C170.158 61.9996 170.505 62.6935 170.505 62.6935C171.024 63.561 171.717 64.2549 172.582 64.7753C173.448 65.2958 174.487 65.6427 175.526 65.8162C175.526 65.8162 176.392 65.9897 177.257 65.9897C178.123 66.1632 178.989 66.3367 178.989 66.3367C178.989 66.3367 178.642 65.4693 178.123 64.7753C177.95 64.4284 177.777 64.0814 177.604 63.7344Z" fill="#DDDDDD"/>
<path d="M181.239 72.4086C180.893 71.5412 180.72 70.6738 180.72 70.6738C179.854 68.592 178.123 67.2042 176.045 66.8572C176.045 66.8572 175.179 66.6837 174.314 66.6837C173.448 66.6837 172.582 66.5103 172.582 66.5103L174.141 69.4594C174.487 70.3269 175.179 71.1943 175.872 71.7147C176.565 72.4086 177.603 72.7556 178.642 73.1026C178.642 73.1026 179.508 73.2761 180.374 73.623C181.239 73.7965 181.932 74.1435 181.932 74.1435C181.932 74.1435 181.932 73.97 181.759 73.623C181.586 73.2761 181.413 72.7556 181.239 72.4086Z" fill="#DDDDDD"/>
<path d="M177.258 73.4495C176.392 73.276 175.7 73.1025 175.7 73.1025C175.7 73.1025 176.046 73.7965 176.219 74.6639C176.565 75.3578 176.739 76.2252 176.739 76.2252C176.912 77.2661 177.604 77.96 178.124 78.8274C178.816 79.5214 179.682 80.2153 180.548 80.5623C180.548 80.5623 181.413 80.9092 182.106 81.2562C182.799 81.6032 183.664 81.9501 183.664 81.9501C183.664 81.9501 183.664 81.7766 183.664 81.4297C183.664 81.0827 183.491 80.7358 183.491 80.2153C183.318 79.3479 183.145 78.4805 183.145 78.4805C182.972 77.4396 182.452 76.3987 181.587 75.7048C180.894 75.0108 180.028 74.3169 178.989 74.1434C178.816 73.97 177.951 73.623 177.258 73.4495Z" fill="#DDDDDD"/>
<path d="M184.356 88.022C184.356 87.1546 184.183 86.2872 184.183 86.2872C184.01 84.0319 182.625 82.1236 180.72 81.4297C180.72 81.4297 179.855 81.0827 179.162 80.7358C178.296 80.3888 177.604 80.2153 177.604 80.2153C177.604 80.2153 177.777 81.0827 177.95 81.7767C178.123 82.6441 178.123 83.338 178.123 83.338C178.469 85.2463 179.681 86.9811 181.586 88.022C181.586 88.022 182.279 88.369 182.971 88.8894C183.664 89.4099 184.356 89.7568 184.356 89.7568C184.356 89.7568 184.356 88.8894 184.356 88.022Z" fill="#DDDDDD"/>
<path d="M184.356 94.2671C184.356 93.2262 184.183 92.0118 183.664 91.1444C183.144 90.277 182.452 89.4096 181.586 88.8891C181.586 88.8891 180.893 88.3687 180.201 88.0217C179.508 87.6747 178.643 87.1543 178.643 87.1543C178.643 87.1543 178.643 87.3278 178.643 87.6747C178.643 88.0217 178.643 88.3687 178.643 88.7156C178.643 89.583 178.643 90.277 178.643 90.277C178.643 91.3179 178.989 92.1853 179.335 93.0527C179.855 93.9201 180.374 94.7875 181.24 95.308C181.24 95.308 181.932 95.8284 182.625 96.3488C183.317 96.8693 184.01 97.3897 184.01 97.3897L184.356 94.2671Z" fill="#DDDDDD"/>
<path d="M183.317 103.982C183.49 103.115 183.663 102.248 183.663 102.248C183.837 101.207 183.663 99.9923 183.317 99.1249C183.144 98.6045 182.971 98.2575 182.625 97.7371C182.278 97.3901 181.932 96.8697 181.412 96.5227C181.412 96.5227 180.72 96.0023 180.027 95.4818C179.335 94.9614 178.642 94.4409 178.642 94.4409C178.642 94.4409 178.642 95.3083 178.642 96.0023C178.642 96.3492 178.642 96.8697 178.642 97.0432C178.642 97.3901 178.642 97.5636 178.642 97.5636C178.296 99.4719 179.162 101.554 180.72 103.115C180.72 103.115 181.239 103.635 181.932 104.329C182.451 105.023 183.144 105.544 183.144 105.544C183.144 105.544 182.971 104.85 183.317 103.982Z" fill="#DDDDDD"/>
<path d="M180.374 113.35L181.586 110.054C182.279 107.972 181.586 105.717 180.201 104.156C180.201 104.156 179.682 103.635 178.989 102.941C178.296 102.421 177.777 101.727 177.777 101.727C177.777 101.727 177.777 101.901 177.777 102.248C177.777 102.594 177.604 102.941 177.604 103.288C177.431 104.156 177.258 104.85 177.258 104.85C177.084 105.891 177.084 106.758 177.258 107.799C177.431 108.84 177.777 109.707 178.47 110.575C178.47 110.575 178.989 111.269 179.508 111.962C180.028 112.656 180.374 113.35 180.374 113.35Z" fill="#DDDDDD"/>
<path d="M177.085 120.81C177.085 120.81 177.258 120.636 177.431 120.29C177.604 119.943 177.777 119.596 177.95 119.249C178.297 118.381 178.643 117.687 178.643 117.687C179.162 116.646 179.335 115.606 179.162 114.565C178.989 113.524 178.643 112.483 177.95 111.615C177.95 111.615 177.431 110.921 176.911 110.228C176.392 109.534 175.873 109.013 175.873 109.013L174.834 112.136C174.487 113.003 174.314 114.044 174.314 115.085C174.314 116.126 174.66 116.993 175.18 118.034C175.18 118.034 175.526 118.728 176.046 119.596C176.738 119.943 177.085 120.81 177.085 120.81Z" fill="#DDDDDD"/>
<path d="M172.236 125.841C172.582 126.709 172.755 127.403 172.755 127.403C172.755 127.403 173.275 126.709 173.794 126.015C174.141 125.668 174.314 125.321 174.487 124.974C174.66 124.627 174.833 124.454 174.833 124.454C175.353 123.586 175.699 122.545 175.872 121.504C175.872 120.463 175.699 119.423 175.179 118.555C175.179 118.555 174.833 117.861 174.314 116.994C173.794 116.3 173.448 115.606 173.448 115.606C173.448 115.606 172.063 118.555 171.89 118.555C170.851 120.29 170.851 122.372 171.543 124.454C171.543 124.28 171.89 124.974 172.236 125.841Z" fill="#DDDDDD"/>
<path d="M167.216 131.913C167.389 132.78 167.562 133.647 167.562 133.647L169.986 131.045C170.679 130.178 171.198 129.137 171.371 128.096C171.544 127.055 171.371 126.014 171.025 124.973C171.025 124.973 170.679 124.279 170.505 123.412C170.159 122.718 169.813 121.851 169.813 121.851C169.813 121.851 169.64 122.024 169.467 122.198C169.293 122.371 169.12 122.718 168.774 123.065C168.255 123.759 167.735 124.453 167.735 124.453C167.043 125.32 166.869 126.188 166.523 127.229C166.35 128.096 166.35 129.137 166.523 130.178C166.869 130.178 167.043 131.045 167.216 131.913Z" fill="#DDDDDD"/>
<path d="M162.021 46.0396C163.06 46.9071 164.445 47.4275 166.003 47.4275C166.003 45.8662 165.137 44.6518 164.099 43.6109C162.887 42.7435 161.501 42.223 159.943 42.3965C160.116 43.9579 160.982 45.1722 162.021 46.0396Z" fill="#DDDDDD"/>
<path d="M81.7988 51.618C81.6256 51.7914 81.4525 51.9649 81.4525 51.9649C80.7599 52.6589 79.8942 53.1793 78.8553 53.3528C77.9896 53.6998 76.9508 53.6998 75.7388 53.5263C75.7388 53.5263 74.873 53.3528 74.0073 53.3528C73.1416 53.3528 72.2759 53.1793 72.2759 53.1793C72.2759 53.1793 72.7953 52.4854 73.4879 51.7914C74.1805 51.271 74.873 50.5771 74.873 50.5771C75.5656 49.7097 76.6045 49.1892 77.6433 48.8423C78.6822 48.4953 79.7211 48.4953 80.7599 48.8423C80.7599 48.8423 81.6256 49.0157 82.3182 49.3627C83.1839 49.5362 83.8765 49.8831 83.8765 49.8831C83.8765 49.8831 83.1839 50.4036 82.6645 50.924C82.3182 51.0975 81.9719 51.4445 81.7988 51.618Z" fill="#DDDDDD"/>
<path d="M71.0642 59.5982C71.0642 59.5982 70.1985 59.5982 69.3328 59.5982C68.467 59.5982 67.6013 59.5982 67.6013 59.5982C67.6013 59.5982 68.1207 58.9043 68.6402 58.0369C69.1596 57.343 69.679 56.649 69.679 56.649C70.891 54.9142 73.1419 53.8733 75.2196 54.2203C75.2196 54.2203 76.0854 54.3938 76.9511 54.3938C77.8168 54.5673 78.6825 54.7407 78.6825 54.7407C78.6825 54.7407 77.9899 55.4347 77.4705 56.1286C76.9511 56.8225 76.4316 57.343 76.4316 57.343C75.0465 58.9043 73.1419 59.7717 71.0642 59.5982Z" fill="#DDDDDD"/>
<path d="M65.1772 63.9355C65.3503 63.762 65.3503 63.5885 65.3503 63.5885C65.8698 62.5476 66.5623 61.8537 67.6012 61.3332C68.4669 60.8128 69.5058 60.4658 70.5446 60.4658C70.5446 60.4658 71.4104 60.4658 72.2761 60.4658C73.1418 60.4658 74.0075 60.4658 74.0075 60.4658C74.0075 60.4658 73.8344 60.6393 73.6612 60.8128C73.4881 60.9863 73.3149 61.3332 72.9686 61.6802C72.4492 62.3741 72.1029 63.0681 72.1029 63.0681C71.5835 63.9355 70.8909 64.6294 70.0252 65.1498C69.1595 65.6703 68.1206 66.0172 67.0818 66.1907C67.0818 66.1907 66.2161 66.3642 65.3503 66.3642C64.4846 66.5377 63.6189 66.7112 63.6189 66.7112C63.6189 66.7112 63.9652 65.8438 64.4846 65.1498C64.8309 64.6294 65.004 64.2824 65.1772 63.9355Z" fill="#DDDDDD"/>
<path d="M61.541 72.6093C61.8873 71.7419 62.0604 70.8745 62.0604 70.8745C62.9261 68.7927 64.6575 67.4049 66.7353 67.0579C66.7353 67.0579 67.601 66.8844 68.4667 66.8844C69.3324 66.8844 70.1981 66.7109 70.1981 66.7109L68.6398 69.6601C68.2936 70.5275 67.601 71.395 66.9084 71.9154C66.2158 72.6093 65.177 72.9563 64.1381 73.3033C64.1381 73.3033 63.2724 73.4767 62.4067 73.8237C61.541 73.9972 60.8484 74.3441 60.8484 74.3441C60.8484 74.3441 60.8484 74.1707 61.0215 73.8237C61.1947 73.4767 61.3678 72.9563 61.541 72.6093Z" fill="#DDDDDD"/>
<path d="M65.6964 73.6502C66.5621 73.4767 67.2546 73.3032 67.2546 73.3032C67.2546 73.3032 66.9084 73.9972 66.7352 74.8646C66.3889 75.5585 66.2158 76.4259 66.2158 76.4259C66.0426 77.4668 65.3501 78.1607 64.8306 79.0281C64.1381 79.7221 63.2723 80.416 62.4066 80.7629C62.4066 80.7629 61.5409 81.1099 60.8483 81.4569C60.1558 81.8038 59.29 82.1508 59.29 82.1508C59.29 82.1508 59.29 81.9773 59.29 81.6304C59.29 81.2834 59.4632 80.9364 59.4632 80.416C59.6363 79.5486 59.8095 78.6812 59.8095 78.6812C59.9826 77.6403 60.502 76.5994 61.3678 75.9055C62.0603 75.2115 62.9261 74.5176 63.9649 74.3441C63.9649 74.1706 64.8306 73.8237 65.6964 73.6502Z" fill="#DDDDDD"/>
<path d="M58.4241 88.2227C58.4241 87.3553 58.5972 86.4879 58.5972 86.4879C58.7704 84.2326 60.1555 82.3243 62.0601 81.6304C62.0601 81.6304 62.9258 81.2834 63.6184 80.9365C64.4841 80.5895 65.1767 80.416 65.1767 80.416C65.1767 80.416 65.0035 81.2834 64.8304 81.9774C64.8304 82.6713 64.6572 83.5387 64.6572 83.5387C64.311 85.447 63.0989 87.1818 61.1944 88.2227C61.1944 88.2227 60.5018 88.5697 59.8092 89.0901C59.1166 89.6106 58.4241 90.131 58.4241 90.131C58.4241 90.131 58.4241 89.0901 58.4241 88.2227Z" fill="#DDDDDD"/>
<path d="M58.4241 94.4677C58.4241 93.4269 58.5972 92.2125 59.1166 91.3451C59.6361 90.4777 60.3287 89.6102 61.1944 89.0898C61.1944 89.0898 61.8869 88.5694 62.5795 88.2224C63.2721 87.8754 64.1378 87.355 64.1378 87.355C64.1378 87.355 64.1378 87.5285 64.1378 87.8754C64.1378 88.2224 64.1378 88.5694 64.1378 88.9163C64.1378 89.7837 64.1378 90.4777 64.1378 90.4777C64.1378 91.5185 63.7915 92.386 63.4452 93.2534C62.9258 94.1208 62.4064 94.9882 61.5407 95.5086C61.5407 95.5086 60.8481 96.0291 60.1555 96.5495C59.4629 97.07 58.7704 97.5904 58.7704 97.5904L58.4241 94.4677Z" fill="#DDDDDD"/>
<path d="M59.6361 104.183C59.463 103.316 59.2898 102.448 59.2898 102.448C59.1167 101.407 59.2898 100.193 59.6361 99.3256C59.8093 98.8052 59.9824 98.4582 60.3287 97.9378C60.675 97.5908 61.0213 97.0703 61.5407 96.7234C61.5407 96.7234 62.2333 96.2029 62.9259 95.6825C63.6184 95.162 64.311 94.6416 64.311 94.6416C64.311 94.6416 64.311 95.509 64.311 96.2029C64.311 96.5499 64.311 97.0704 64.311 97.2438C64.311 97.5908 64.311 97.7643 64.311 97.7643C64.6573 99.6726 63.7916 101.754 62.2333 103.316C62.2333 103.316 61.7139 103.836 61.0213 104.53C60.5019 105.224 59.8093 105.744 59.8093 105.744C59.8093 105.744 59.8093 105.051 59.6361 104.183Z" fill="#DDDDDD"/>
<path d="M62.4066 113.551L61.1946 110.255C60.502 108.173 61.1946 105.918 62.5797 104.356C62.5797 104.356 63.0991 103.836 63.7917 103.142C64.4843 102.622 65.0037 101.928 65.0037 101.928C65.0037 101.928 65.0037 102.101 65.0037 102.448C65.0037 102.795 65.1769 103.142 65.1769 103.489C65.35 104.356 65.6963 105.05 65.6963 105.05C65.8694 106.091 65.8694 106.959 65.6963 108C65.5231 109.041 65.1769 109.908 64.4843 110.775C64.4843 110.775 63.9648 111.469 63.4454 112.163C62.926 112.857 62.4066 113.551 62.4066 113.551Z" fill="#DDDDDD"/>
<path d="M65.6964 121.011C65.6964 121.011 65.5232 120.837 65.3501 120.49C65.1769 120.143 65.0038 119.796 64.8306 119.449C64.4844 118.582 64.1381 117.888 64.1381 117.888C63.6186 116.674 63.4455 115.633 63.6186 114.592C63.7918 113.551 64.1381 112.51 64.8306 111.643C64.8306 111.643 65.3501 110.949 65.8695 110.255C66.3889 109.561 66.9084 109.041 66.9084 109.041L67.9472 112.163C68.2935 113.031 68.4667 114.072 68.4667 115.112C68.4667 116.153 68.1204 117.021 67.6009 118.062C67.6009 118.062 67.2547 118.756 66.7352 119.623C66.0427 120.143 65.6964 121.011 65.6964 121.011Z" fill="#DDDDDD"/>
<path d="M70.7171 126.042C70.3708 126.909 70.1976 127.603 70.1976 127.603C70.1976 127.603 69.6782 126.909 69.1588 126.216C68.8125 125.869 68.6393 125.522 68.4662 125.175C68.2931 124.828 68.1199 124.654 68.1199 124.654C67.4273 123.787 67.0811 122.746 67.0811 121.705C67.0811 120.664 67.2542 119.623 67.7736 118.756C67.7736 118.756 68.1199 118.062 68.6393 117.195C69.1588 116.501 69.5051 115.807 69.5051 115.807C69.5051 115.807 70.8902 118.756 71.0634 118.756C72.1022 120.491 72.1022 122.572 71.4096 124.654C71.2365 124.481 70.8902 125.175 70.7171 126.042Z" fill="#DDDDDD"/>
<path d="M75.5654 132.114C75.3923 132.981 75.2191 133.849 75.2191 133.849L72.7951 131.246C72.1025 130.379 71.5831 129.338 71.41 128.297C71.2368 127.256 71.41 126.215 71.7563 125.174C71.7563 125.174 72.1025 124.481 72.2757 123.613C72.622 122.919 72.9683 122.052 72.9683 122.052C72.9683 122.052 73.1414 122.225 73.3145 122.399C73.4877 122.572 73.6608 122.919 74.0071 123.266C74.5266 123.96 75.046 124.654 75.046 124.654C75.7386 125.521 75.9117 126.389 76.258 127.43C76.4311 128.297 76.4311 129.338 76.258 130.379C76.0848 130.379 75.9117 131.246 75.5654 132.114Z" fill="#DDDDDD"/>
<path d="M74.0072 49.71C74.0072 49.71 73.3146 50.4039 72.7952 51.0978C72.1026 51.7918 71.5831 52.4857 71.5831 52.4857C71.5831 52.4857 71.41 51.6183 71.2369 50.7509C71.0637 49.8835 70.8906 49.016 70.8906 49.016C70.5443 47.9752 70.5443 46.7608 70.8906 45.7199C71.2369 44.679 71.9294 43.6381 72.7952 42.7707C72.7952 42.7707 72.9683 42.5972 73.3146 42.4237C73.6609 42.2502 74.0072 41.9033 74.3534 41.5563C75.046 40.8624 75.9117 40.1685 75.9117 40.1685C75.9117 40.1685 75.9117 41.0359 76.0849 41.9033C76.0849 42.7707 76.258 43.6381 76.258 43.6381C76.258 44.679 76.258 45.8934 75.7386 46.9343C75.3923 47.9752 74.6997 48.8426 74.0072 49.71Z" fill="#DDDDDD"/>
<path d="M67.6012 57.5164C67.0817 58.2104 66.5623 59.0778 66.5623 59.0778C66.5623 59.0778 66.3892 58.3838 66.0429 57.5164C65.6966 56.649 65.3503 55.7816 65.3503 55.7816C64.6577 53.6998 65.1772 51.2711 66.7354 49.3628C66.7354 49.3628 67.428 48.4954 67.9475 47.8014C68.64 47.1075 69.3326 46.4136 69.3326 46.4136C69.3326 46.4136 69.5057 47.281 69.6789 48.1484C69.852 49.0158 70.0252 49.8832 70.0252 49.8832C70.5446 52.1385 70.0252 54.3937 68.64 56.1286C68.64 56.1286 68.1206 56.8225 67.6012 57.5164Z" fill="#DDDDDD"/>
<path d="M65.35 59.7715C65.35 60.8124 65.0037 62.0268 64.4843 62.8942C64.4843 62.8942 64.3112 63.0677 64.138 63.4146C63.9649 63.7616 63.7917 64.1086 63.6186 64.629C63.2723 65.4964 62.7529 66.3638 62.7529 66.3638C62.7529 66.3638 62.4066 65.4964 61.8871 64.8025C61.5409 64.1086 61.0214 63.2412 61.0214 63.2412C60.502 62.2003 60.3289 61.1594 60.3289 59.945C60.502 58.7306 60.6751 57.6897 61.3677 56.6488C61.3677 56.6488 61.8871 55.7814 62.4066 54.914C62.926 54.3936 63.0992 54.0466 63.4454 53.6996C63.6186 53.3527 63.7917 53.1792 63.7917 53.1792C63.7917 53.1792 64.138 54.0466 64.3112 54.914C64.6574 55.7814 64.8306 56.6488 64.8306 56.6488C65.35 57.6897 65.35 58.7306 65.35 59.7715Z" fill="#DDDDDD"/>
<path d="M61.0215 70.5275C61.0215 70.5275 60.6752 71.3949 60.502 72.2623C60.3289 72.6093 60.1557 73.1297 59.9826 73.3032C59.8095 73.6502 59.8095 73.8237 59.8095 73.8237C59.8095 73.8237 59.29 73.1297 58.7706 72.4358C58.2512 71.7419 57.7317 71.0479 57.7317 71.0479C57.2123 70.1805 56.6929 69.1396 56.6929 67.9253C56.6929 66.7109 56.866 65.67 57.3854 64.4556L59.1169 60.8125C59.1169 60.8125 59.4632 61.6799 59.9826 62.3738C60.3289 63.2413 60.8483 63.9352 60.8483 63.9352C61.714 66.017 61.8872 68.4457 61.0215 70.5275Z" fill="#DDDDDD"/>
<path d="M58.7706 75.038C58.9437 76.0789 58.9437 77.2933 58.7706 78.3342C58.7706 78.3342 58.5974 79.2016 58.4243 80.069C58.2512 80.5895 58.2512 80.9364 58.2512 81.2834C58.2512 81.6304 58.078 81.8038 58.078 81.8038C58.078 81.8038 57.3854 81.2834 56.6929 80.5895C56.0003 79.8955 55.4809 79.3751 55.4809 79.3751C54.7883 78.5077 54.2689 77.4668 53.9226 76.4259C53.7494 75.2115 53.7494 74.1706 54.0957 72.9563C54.0957 72.9563 54.2689 71.9154 54.6151 71.0479C54.9614 70.1805 55.3077 69.1396 55.3077 69.1396C55.3077 69.1396 55.8271 69.8336 56.3466 70.701C56.866 71.3949 57.3854 72.0888 57.3854 72.0888C58.078 72.7828 58.5974 73.8237 58.7706 75.038Z" fill="#DDDDDD"/>
<path d="M55.3073 80.2426C56.8656 81.8039 57.5582 84.0592 57.385 86.3144C57.385 86.3144 57.385 87.1819 57.2119 88.2228C57.2119 89.0902 57.2119 90.1311 57.2119 90.1311C57.2119 90.1311 56.5193 89.6106 55.8267 89.0902C55.1342 88.5697 54.4416 88.0493 54.4416 88.0493C52.8833 86.6614 51.8444 84.2327 52.3639 81.8039C52.3639 81.8039 52.537 80.763 52.7102 79.8956C52.8833 78.8547 53.0565 77.9873 53.0565 77.9873C53.0565 77.9873 53.5759 78.6812 54.2685 79.3752C54.7879 79.7221 55.3073 80.2426 55.3073 80.2426Z" fill="#DDDDDD"/>
<path d="M54.4425 88.7432C55.3082 89.4371 56.0008 90.3045 56.5202 91.3454C57.0396 92.3863 57.3859 93.4272 57.3859 94.4681L57.559 98.1112C57.559 98.1112 56.8665 97.5908 56.1739 97.2438C55.4813 96.7234 54.7888 96.3764 54.7888 96.3764C53.923 95.856 53.0573 94.9886 52.5379 93.9477C51.8453 92.9068 51.499 91.6924 51.499 90.478C51.499 90.478 51.499 89.4371 51.499 88.3962C51.499 87.8758 51.499 87.3553 51.499 87.0084C51.499 86.6614 51.499 86.3145 51.499 86.3145C51.499 86.3145 52.1916 86.8349 52.8842 87.5288C53.7499 88.2228 54.4425 88.7432 54.4425 88.7432Z" fill="#DDDDDD"/>
<path d="M54.615 97.4174C55.1345 97.7643 55.4807 98.1113 55.827 98.4583C56.1733 98.8052 56.5196 99.3257 56.8659 99.6726C57.5585 100.54 57.9048 101.581 58.0779 102.795C58.0779 102.795 58.251 103.663 58.4242 104.53C58.5973 105.398 58.9436 106.265 58.9436 106.265C58.9436 106.265 58.0779 105.918 57.3853 105.571C56.5196 105.224 55.827 104.877 55.827 104.877C53.9224 104.01 52.5373 101.754 52.191 99.3257C52.191 99.3257 52.191 99.1522 52.0179 98.6318C52.0179 98.2848 52.0179 97.7643 52.0179 97.2439C52.0179 96.203 51.8447 95.1621 51.8447 95.1621C51.8447 95.1621 52.5373 95.6826 53.2299 96.203C53.7493 96.8969 54.615 97.4174 54.615 97.4174Z" fill="#DDDDDD"/>
<path d="M55.8269 105.744C57.9046 106.612 59.4629 108.347 59.9823 110.602L61.1943 114.072C61.1943 114.072 60.3286 113.898 59.4629 113.551C58.5972 113.378 57.7315 113.031 57.7315 113.031C56.6926 112.684 55.6537 112.163 54.9612 111.296C54.2686 110.428 53.7492 109.388 53.4029 108.173C53.4029 108.173 53.2297 107.132 52.8834 106.265C52.7103 105.744 52.7103 105.224 52.5372 104.877C52.5372 104.53 52.364 104.183 52.364 104.183C52.364 104.183 53.0566 104.53 53.9223 105.051C54.9612 105.397 55.8269 105.744 55.8269 105.744Z" fill="#DDDDDD"/>
<path d="M58.251 114.072C59.2898 114.419 60.3287 114.939 61.0213 115.633C61.887 116.327 62.5795 117.194 63.099 118.235C63.099 118.235 63.4453 119.103 63.9647 119.97C64.1378 120.317 64.311 120.837 64.4841 121.184C64.6573 121.531 64.8304 121.705 64.8304 121.705C64.8304 121.705 63.9647 121.705 63.099 121.531C62.2333 121.358 61.3675 121.184 61.3675 121.184C60.3287 121.011 59.2898 120.49 58.4241 119.797C57.5584 119.103 56.6927 118.062 56.3464 117.021L54.7881 113.031C54.7881 113.031 55.6538 113.378 56.5195 113.551C57.3852 113.725 58.251 114.072 58.251 114.072Z" fill="#DDDDDD"/>
<path d="M61.7141 121.878C62.753 122.052 63.7918 122.399 64.8307 123.093C65.6964 123.613 66.5621 124.481 67.0815 125.348C67.0815 125.348 67.2547 125.522 67.4278 125.869C67.601 126.216 67.9473 126.563 68.1204 126.909C68.6398 127.603 69.1593 128.297 69.1593 128.297C69.1593 128.297 68.2935 128.297 67.4278 128.297C66.5621 128.297 65.6964 128.297 65.6964 128.297C63.4455 128.297 61.3678 126.736 60.1558 124.654C60.1558 124.654 59.6364 123.787 59.1169 122.919C58.5975 122.052 58.2512 121.185 58.2512 121.185C58.2512 121.185 59.1169 121.358 59.9827 121.532C60.8484 121.705 61.7141 121.878 61.7141 121.878Z" fill="#DDDDDD"/>
<path d="M80.9325 46.2403C79.8936 47.1077 78.5085 47.6282 76.9502 47.6282C76.9502 46.0668 77.8159 44.8525 78.8548 43.8116C80.0668 42.9442 81.4519 42.4237 83.0102 42.5972C82.6639 44.1585 81.9714 45.3729 80.9325 46.2403Z" fill="#DDDDDD"/>
<path d="M121.897 23.6187L125.069 30.0519L132.172 31.0819L127.031 36.0928L128.249 43.1637L121.897 39.804L115.546 43.1474L116.764 36.0765L111.622 31.0656L118.725 30.0356L121.897 23.6187Z" fill="#F3C252"/>
<path d="M137.674 29.3574L139.635 33.3384L144.033 33.976L140.853 37.0823L141.63 41.4392L137.698 39.3711L133.733 41.4392L134.486 37.0577L131.306 33.9515L135.704 33.3138L137.674 29.3574Z" fill="#F3C252"/>
<path d="M105.915 29.3574L107.877 33.3384L112.283 33.976L109.095 37.0823L109.847 41.4638L105.915 39.3956L101.984 41.4392L102.727 37.0577L99.5476 33.9515L103.945 33.3138L105.915 29.3574Z" fill="#F3C252"/>
<path d="M95.5183 33.894L96.7281 36.3464L99.4257 36.7387L97.4884 38.6352L97.9461 41.3246L95.4938 40.0576L93.0415 41.3246L93.5074 38.6352L91.5537 36.7306L94.2513 36.3382L95.5183 33.894Z" fill="#F3C252"/>
<path d="M147.941 33.894L149.15 36.3464L151.848 36.7387L149.894 38.6434L150.352 41.3328L147.941 40.0657L145.488 41.3328L145.954 38.6434L144 36.7387L146.698 36.3464L147.941 33.894Z" fill="#F3C252"/>
<path d="M24.5232 132.292C84.918 106.196 157.862 106.196 218.257 132.292C213.999 141.504 209.742 150.716 205.484 159.928C153.044 137.331 89.7362 137.331 37.2969 159.928C33.039 150.716 28.7811 141.504 24.5232 132.292Z" fill="#930043"/>
<g clip-path="url(#clip0_451_4652)">
<path d="M44.4692 139.37C44.0528 139.477 43.7196 139.692 43.3031 139.799C43.8029 141.73 44.2193 143.66 44.7191 145.591C44.136 145.806 43.6363 146.02 43.0532 146.235C42.5535 144.304 42.137 142.373 41.6373 140.442C41.2208 140.657 40.8043 140.764 40.3879 140.979C40.3046 140.335 40.138 139.692 40.0547 139.155C41.3874 138.619 42.8034 138.083 44.136 137.439C44.3026 138.083 44.3859 138.726 44.4692 139.37Z" fill="white"/>
<path d="M45.1354 137.976C45.3853 137.225 45.9683 136.689 46.8013 136.367C47.7175 136.045 48.3838 136.152 48.8836 136.581C49.3833 137.01 49.7998 137.976 50.133 139.37C50.4661 140.765 50.4661 141.837 50.2163 142.588C49.9664 143.339 49.4666 143.983 48.5504 144.305C47.7175 144.626 47.0511 144.519 46.4681 144.09C45.9683 143.554 45.5519 142.696 45.2187 141.301C44.8855 139.799 44.8855 138.727 45.1354 137.976ZM47.8841 138.405C47.7175 138.19 47.4676 138.083 47.2177 138.19C46.8845 138.298 46.8013 138.512 46.718 138.834C46.718 139.156 46.8013 139.692 46.9678 140.443C46.9678 140.55 47.0511 140.657 47.0511 140.765C47.2177 141.516 47.3843 142.052 47.5509 142.266C47.7175 142.481 47.9674 142.481 48.2172 142.374C48.5504 142.266 48.6337 142.052 48.717 141.837C48.717 141.516 48.717 141.087 48.5504 140.336C48.5504 140.228 48.4671 140.121 48.4671 139.907C48.2172 139.156 48.0506 138.619 47.8841 138.405Z" fill="white"/>
<path d="M53.2147 139.692C53.0482 139.692 52.8816 139.799 52.7983 139.799C52.9649 140.657 53.1314 141.515 53.298 142.266C52.715 142.481 52.2152 142.695 51.6322 142.91C51.0491 140.335 50.5494 137.761 49.9663 135.187C50.6327 134.972 51.299 134.65 52.0486 134.436C52.7983 134.221 53.3813 134.221 53.7978 134.436C54.2143 134.758 54.5474 135.294 54.714 136.259C54.8806 137.225 54.8806 137.868 54.6307 138.405C54.3808 139.048 53.8811 139.477 53.2147 139.692ZM53.0482 137.868C53.0482 137.654 53.0482 137.439 52.9649 137.117C52.8816 136.796 52.7983 136.474 52.715 136.367C52.6317 136.259 52.4651 136.259 52.2985 136.259C52.2152 136.259 52.1319 136.367 52.0486 136.367C52.2152 137.01 52.2985 137.654 52.4651 138.297C52.5484 138.297 52.6317 138.19 52.715 138.19C52.8816 138.19 53.0482 138.083 53.0482 137.868Z" fill="white"/>
<path d="M64.2092 138.834C63.7094 138.941 63.2097 139.155 62.6266 139.263C62.3767 137.868 62.1269 136.581 61.877 135.187H61.7937C61.877 136.581 61.877 137.976 61.9603 139.477C61.4605 139.692 60.8775 139.799 60.3777 140.014C59.9612 138.726 59.4615 137.439 59.045 136.152H58.9617C59.2116 137.546 59.4615 138.834 59.7114 140.228C59.2116 140.443 58.7118 140.55 58.2121 140.764C57.7956 138.19 57.2959 135.508 56.8794 132.934C57.629 132.72 58.3787 132.398 59.1283 132.183C59.5448 133.578 60.0445 134.865 60.461 136.259H60.5443C60.461 134.758 60.3777 133.363 60.2944 131.861C61.044 131.647 61.7937 131.432 62.5433 131.218C63.2097 133.685 63.7094 136.259 64.2092 138.834Z" fill="white"/>
<path d="M64.2099 131.432C64.4597 130.681 65.0428 130.145 65.959 129.93C66.8752 129.716 67.5416 129.823 68.0413 130.359C68.5411 130.896 68.8743 131.861 69.1242 133.256C69.374 134.65 69.2907 135.723 69.0409 136.473C68.791 137.224 68.2079 137.761 67.2917 137.975C66.4588 138.19 65.7924 138.082 65.2927 137.546C64.7929 137.01 64.4597 136.044 64.2099 134.65C63.96 133.256 63.96 132.183 64.2099 131.432ZM66.9585 132.183C66.792 131.968 66.6254 131.861 66.2922 131.968C65.959 132.076 65.7924 132.29 65.7924 132.505C65.7091 132.826 65.7924 133.363 65.959 134.114C65.959 134.221 65.959 134.328 66.0423 134.435C66.2089 135.294 66.2922 135.723 66.4588 136.044C66.6254 136.259 66.792 136.366 67.1251 136.259C67.4583 136.152 67.6249 136.044 67.6249 135.723C67.7082 135.508 67.6249 134.972 67.5416 134.221C67.5416 134.114 67.4583 133.899 67.4583 133.792C67.2084 132.934 67.1251 132.505 66.9585 132.183Z" fill="white"/>
<path d="M74.4547 133.792C74.7046 135.294 74.1216 136.259 72.8722 136.474C72.0392 136.688 71.2063 136.903 70.4567 137.117C70.0402 134.543 69.6237 131.861 69.2073 129.287C70.0402 129.072 70.8731 128.858 71.6228 128.643C72.2891 128.536 72.7889 128.536 73.122 128.75C73.4552 128.965 73.7051 129.501 73.7884 130.145C73.8717 130.896 73.7051 131.432 73.2886 131.968C73.2886 131.968 73.2886 131.968 73.2886 132.076C73.955 132.183 74.2881 132.719 74.4547 133.792ZM72.1225 131.861C72.2058 131.754 72.2058 131.539 72.1225 131.218C72.0392 130.896 72.0392 130.681 71.9559 130.574C71.8727 130.467 71.7894 130.467 71.6228 130.467C71.5395 130.467 71.3729 130.574 71.2896 130.574C71.3729 131.11 71.4562 131.647 71.5395 132.183C71.6228 132.183 71.7894 132.076 71.8727 132.076C71.9559 132.076 72.0392 131.968 72.1225 131.861ZM72.6223 134.865C72.7056 134.757 72.7056 134.436 72.6223 134.114C72.539 133.792 72.4557 133.47 72.3724 133.363C72.2891 133.256 72.1225 133.148 71.9559 133.256C71.8727 133.256 71.7061 133.363 71.6228 133.363C71.7061 134.007 71.7894 134.65 71.8727 135.186C71.9559 135.186 72.1225 135.079 72.2058 135.079C72.4557 135.079 72.539 135.079 72.6223 134.865Z" fill="white"/>
<path d="M77.12 135.508C76.537 135.615 75.9539 135.723 75.4541 135.937C75.121 133.363 74.7045 130.681 74.3713 128.107C74.9544 128 75.5374 127.785 76.1205 127.678C76.4537 130.252 76.7868 132.827 77.12 135.508Z" fill="white"/>
<path d="M81.2843 134.543C80.2015 134.758 79.202 134.972 78.1192 135.187C77.786 132.612 77.4528 129.931 77.0364 127.356C77.6194 127.249 78.2025 127.142 78.7855 126.927C79.0354 128.965 79.2853 131.003 79.5352 133.041C80.0349 132.934 80.618 132.827 81.1177 132.72C81.201 133.363 81.2843 134.007 81.2843 134.543Z" fill="white"/>
<path d="M85.1161 133.792C83.95 134.007 82.8672 134.221 81.7844 134.436C81.4512 131.754 81.118 129.18 80.8682 126.498C82.0343 126.284 83.2004 126.069 84.4498 125.854C84.4498 126.498 84.5331 127.142 84.5331 127.785C83.95 127.893 83.367 128 82.8672 128.107C82.9505 128.536 82.9505 128.858 83.0338 129.287C83.5335 129.18 84.0333 129.072 84.5331 128.965C84.6164 129.502 84.6163 130.038 84.6996 130.681C84.1999 130.789 83.7001 130.896 83.2837 131.003C83.367 131.432 83.367 131.861 83.4502 132.29C83.8667 132.29 84.4498 132.183 85.0328 132.076C85.1161 132.612 85.1161 133.256 85.1161 133.792Z" fill="white"/>
<path d="M92.446 132.612C91.8629 132.719 91.3632 132.827 90.7801 132.827C90.6968 132.398 90.6135 131.969 90.447 131.647C90.0305 131.754 89.614 131.754 89.2809 131.861C89.1976 132.29 89.1976 132.719 89.1976 133.149C88.6978 133.256 88.1147 133.363 87.615 133.363C87.6983 130.681 87.8649 128 87.9482 125.211C88.7811 125.104 89.6973 124.889 90.5302 124.782C91.1966 127.463 91.7796 130.038 92.446 132.612ZM90.1138 130.145C89.9472 129.18 89.6973 128.322 89.4474 127.356H89.3641C89.3641 128.322 89.2809 129.287 89.2809 130.252C89.614 130.252 89.8639 130.252 90.1138 130.145Z" fill="white"/>
<path d="M94.8614 129.609C94.6948 129.609 94.5282 129.609 94.3616 129.716C94.4449 130.574 94.5282 131.432 94.6115 132.29C94.0284 132.397 93.4454 132.397 92.9456 132.505C92.6958 129.823 92.5292 127.249 92.2793 124.567C92.9456 124.46 93.6953 124.352 94.3616 124.245C95.1113 124.138 95.6943 124.245 96.0275 124.674C96.4439 124.996 96.6105 125.747 96.6938 126.712C96.7771 127.678 96.6105 128.321 96.3607 128.858C96.1108 129.287 95.611 129.609 94.8614 129.609ZM94.9447 127.892C95.028 127.785 95.028 127.463 94.9447 127.141C94.9447 126.82 94.8614 126.498 94.7781 126.391C94.6948 126.283 94.5282 126.176 94.3616 126.176C94.2783 126.176 94.195 126.176 94.1117 126.176C94.195 126.82 94.2783 127.57 94.2783 128.214C94.3616 128.214 94.4449 128.214 94.5282 128.214C94.7781 128.107 94.9447 128.107 94.9447 127.892Z" fill="white"/>
<path d="M99.6089 129.073C99.4423 129.073 99.2757 129.073 99.1091 129.073C99.1924 130.038 99.2757 130.896 99.359 131.754C98.776 131.861 98.1929 131.861 97.6932 131.969C97.5266 129.287 97.2767 126.713 97.1101 124.031C97.7765 123.924 98.5261 123.816 99.1924 123.816C99.9421 123.709 100.525 123.924 100.858 124.246C101.275 124.675 101.441 125.318 101.525 126.284C101.608 127.249 101.441 127.893 101.108 128.429C100.775 128.751 100.275 128.965 99.6089 129.073ZM99.6922 127.356C99.7755 127.249 99.7755 126.927 99.6922 126.605C99.6922 126.176 99.6089 125.962 99.5256 125.855C99.4423 125.747 99.2757 125.64 99.1091 125.64C99.0258 125.64 98.9426 125.64 98.8593 125.64C98.9426 126.284 98.9426 127.034 99.0258 127.678C99.1091 127.678 99.1924 127.678 99.2757 127.678C99.5256 127.571 99.6089 127.464 99.6922 127.356Z" fill="white"/>
<path d="M108.938 126.713C109.021 129.502 108.188 130.896 106.522 131.003C105.856 131.003 105.106 131.111 104.44 131.218C104.273 128.536 104.19 125.855 104.023 123.28C104.773 123.173 105.439 123.173 106.189 123.066C107.105 122.958 107.855 123.28 108.271 123.924C108.688 124.567 108.938 125.533 108.938 126.713ZM107.105 128.751C107.189 128.429 107.189 127.893 107.189 127.142C107.189 126.391 107.105 125.855 106.939 125.533C106.772 125.211 106.522 125.104 106.189 125.104C106.106 125.104 106.022 125.104 105.856 125.104C105.939 126.498 106.022 127.893 106.022 129.287C106.106 129.287 106.272 129.287 106.356 129.287C106.772 129.18 107.022 129.073 107.105 128.751Z" fill="white"/>
<path d="M113.186 130.681C112.02 130.681 110.937 130.789 109.771 130.896C109.688 128.214 109.604 125.533 109.521 122.958C110.687 122.851 111.936 122.851 113.103 122.744C113.103 123.387 113.103 124.031 113.019 124.674C112.436 124.674 111.853 124.674 111.353 124.782C111.353 125.211 111.353 125.533 111.353 125.962C111.853 125.962 112.353 125.962 112.853 125.854C112.853 126.391 112.853 127.034 112.936 127.571C112.436 127.571 111.936 127.571 111.437 127.678C111.437 128.107 111.437 128.536 111.437 128.965C112.02 128.965 112.603 128.858 113.186 128.858C113.186 129.501 113.186 130.145 113.186 130.681Z" fill="white"/>
<path d="M118.35 122.529C118.016 125.211 117.683 127.893 117.35 130.574C116.434 130.574 115.601 130.574 114.685 130.682C114.185 128 113.769 125.318 113.352 122.637C114.018 122.637 114.685 122.637 115.351 122.529C115.601 124.246 115.768 125.962 116.017 127.785C116.101 127.785 116.101 127.785 116.184 127.785C116.267 126.069 116.434 124.246 116.517 122.529C117.1 122.529 117.683 122.529 118.35 122.529Z" fill="white"/>
<path d="M122.348 130.574C121.182 130.574 120.099 130.574 118.933 130.574C118.933 127.893 118.933 125.211 118.85 122.529C120.016 122.529 121.265 122.529 122.431 122.529C122.431 123.173 122.348 123.816 122.348 124.46C121.765 124.46 121.182 124.46 120.682 124.46C120.682 124.889 120.682 125.211 120.682 125.64C121.182 125.64 121.682 125.64 122.181 125.64C122.181 126.176 122.181 126.82 122.181 127.356C121.682 127.356 121.182 127.356 120.682 127.356C120.682 127.785 120.682 128.214 120.682 128.643C121.265 128.643 121.848 128.643 122.431 128.643C122.431 129.287 122.431 129.931 122.348 130.574Z" fill="white"/>
<path d="M126.263 130.574C125.18 130.574 124.097 130.574 123.098 130.574C123.098 127.893 123.098 125.211 123.098 122.529C123.681 122.529 124.264 122.529 124.847 122.529C124.847 124.567 124.764 126.713 124.764 128.751C125.264 128.751 125.847 128.751 126.346 128.751C126.346 129.394 126.263 130.038 126.263 130.574Z" fill="white"/>
<path d="M127.179 123.495C127.596 122.851 128.262 122.529 129.178 122.637C130.095 122.637 130.761 123.066 131.094 123.709C131.427 124.353 131.594 125.425 131.594 126.82C131.511 128.214 131.344 129.287 130.927 129.931C130.511 130.574 129.845 130.896 129.012 130.896C128.095 130.896 127.512 130.467 127.096 129.823C126.763 129.18 126.513 128.107 126.596 126.605C126.596 125.104 126.846 124.031 127.179 123.495ZM129.678 124.996C129.595 124.675 129.345 124.567 129.095 124.567C128.762 124.567 128.595 124.675 128.512 124.996C128.429 125.211 128.345 125.747 128.345 126.605C128.345 126.713 128.345 126.82 128.345 126.927C128.345 127.785 128.345 128.322 128.429 128.536C128.512 128.751 128.679 128.965 129.012 128.965C129.345 128.965 129.511 128.858 129.595 128.643C129.678 128.429 129.761 127.893 129.761 127.142C129.761 127.034 129.761 126.82 129.761 126.713C129.845 125.855 129.845 125.318 129.678 124.996Z" fill="white"/>
<path d="M134.425 128.322C134.259 128.322 134.092 128.322 133.926 128.322C133.926 129.18 133.842 130.038 133.842 130.896C133.259 130.896 132.676 130.789 132.177 130.789C132.26 128.107 132.343 125.425 132.426 122.851C133.093 122.851 133.842 122.958 134.509 122.958C135.258 122.958 135.758 123.28 136.091 123.709C136.424 124.138 136.591 124.889 136.508 125.855C136.424 126.82 136.258 127.464 135.925 127.893C135.675 128.214 135.092 128.322 134.425 128.322ZM134.675 126.605C134.759 126.498 134.759 126.176 134.759 125.855C134.759 125.425 134.759 125.211 134.675 125.104C134.592 124.996 134.509 124.889 134.259 124.889C134.176 124.889 134.092 124.889 134.009 124.889C134.009 125.533 133.926 126.284 133.926 126.927C134.009 126.927 134.092 126.927 134.176 126.927C134.509 126.82 134.592 126.713 134.675 126.605Z" fill="white"/>
<path d="M142.921 131.647C142.422 131.54 141.839 131.54 141.339 131.432C141.422 130.038 141.506 128.643 141.589 127.249H141.506C141.256 128.643 140.922 129.931 140.673 131.325C140.09 131.325 139.59 131.218 139.007 131.218C138.923 129.823 138.757 128.429 138.674 127.034H138.59C138.507 128.429 138.424 129.823 138.34 131.218C137.841 131.218 137.258 131.111 136.758 131.111C136.924 128.429 137.174 125.855 137.341 123.173C138.091 123.28 138.923 123.28 139.673 123.387C139.756 124.889 139.923 126.284 140.006 127.785H140.09C140.339 126.391 140.589 124.996 140.922 123.495C141.672 123.602 142.422 123.602 143.255 123.709C143.088 126.391 143.005 128.965 142.921 131.647Z" fill="white"/>
<path d="M147.17 132.183C146.004 132.076 144.921 131.861 143.755 131.754C143.921 129.072 144.088 126.498 144.255 123.816C145.421 123.924 146.67 124.138 147.836 124.245C147.753 124.889 147.67 125.533 147.586 126.176C147.003 126.069 146.42 126.069 145.92 125.962C145.92 126.391 145.837 126.713 145.837 127.142C146.337 127.249 146.837 127.249 147.336 127.356C147.253 127.893 147.253 128.536 147.17 129.072C146.67 128.965 146.17 128.965 145.671 128.858C145.671 129.287 145.587 129.716 145.587 130.145C146.17 130.252 146.753 130.252 147.336 130.36C147.336 131.003 147.253 131.54 147.17 132.183Z" fill="white"/>
<path d="M152.417 132.934C151.834 132.827 151.334 132.719 150.751 132.719C150.418 131.432 150.085 130.145 149.751 128.858H149.668C149.585 130.038 149.418 131.325 149.335 132.505C148.835 132.398 148.335 132.398 147.836 132.29C148.086 129.609 148.252 127.034 148.502 124.353C149.085 124.46 149.668 124.46 150.251 124.567C150.584 125.854 150.918 127.249 151.167 128.536H151.251C151.334 127.249 151.501 125.962 151.584 124.674C152.084 124.782 152.667 124.782 153.166 124.889C152.917 127.678 152.667 130.252 152.417 132.934Z" fill="white"/>
<path d="M157.581 127.678C157.165 127.57 156.748 127.57 156.415 127.463C156.165 129.501 155.999 131.432 155.749 133.47C155.166 133.363 154.583 133.256 154 133.148C154.166 131.11 154.416 129.179 154.583 127.141C154.166 127.034 153.75 127.034 153.333 126.927C153.417 126.283 153.5 125.64 153.583 124.996C154.999 125.211 156.415 125.425 157.831 125.747C157.748 126.391 157.664 127.034 157.581 127.678Z" fill="white"/>
<path d="M161.496 130.574C161.412 131.325 161.412 131.861 161.496 132.183C161.579 132.505 161.745 132.719 161.995 132.827C162.245 132.934 162.662 132.827 163.161 132.827C163.161 133.47 163.161 134.007 163.161 134.65C162.578 134.757 162.079 134.757 161.496 134.65C160.663 134.436 160.163 134.007 159.83 133.256C159.58 132.505 159.496 131.432 159.663 130.145C159.83 128.858 160.163 127.785 160.579 127.142C161.079 126.498 161.745 126.283 162.578 126.498C163.078 126.605 163.578 126.82 163.994 127.249C163.828 127.892 163.661 128.536 163.495 129.18C162.995 128.858 162.662 128.643 162.412 128.643C162.079 128.536 161.912 128.751 161.745 128.965C161.745 129.287 161.579 129.823 161.496 130.574Z" fill="white"/>
<path d="M164.911 128C165.411 127.464 166.077 127.249 166.993 127.464C167.91 127.678 168.493 128.107 168.743 128.858C169.076 129.609 169.076 130.682 168.909 132.076C168.743 133.47 168.326 134.436 167.91 135.079C167.41 135.616 166.744 135.83 165.911 135.616C165.078 135.401 164.495 134.972 164.162 134.221C163.828 133.47 163.828 132.398 163.995 131.003C164.078 129.609 164.411 128.536 164.911 128ZM167.243 130.038C167.16 129.716 166.993 129.609 166.66 129.502C166.327 129.394 166.161 129.502 165.994 129.823C165.827 130.038 165.744 130.574 165.661 131.325C165.661 131.432 165.661 131.54 165.661 131.647C165.577 132.505 165.494 133.041 165.577 133.256C165.661 133.578 165.827 133.685 166.077 133.792C166.41 133.9 166.577 133.792 166.744 133.578C166.827 133.363 166.993 132.827 167.077 132.076C167.077 131.969 167.077 131.754 167.16 131.647C167.243 130.896 167.327 130.36 167.243 130.038Z" fill="white"/>
<path d="M174.989 137.761C174.49 137.654 173.906 137.439 173.407 137.332C173.657 135.937 173.823 134.65 174.073 133.256H173.99C173.573 134.543 173.157 135.83 172.74 137.225C172.241 137.117 171.658 136.903 171.158 136.795C171.158 135.401 171.241 134.007 171.241 132.612H171.158C170.991 134.007 170.741 135.294 170.575 136.688C170.075 136.581 169.575 136.474 168.992 136.259C169.409 133.685 169.908 131.003 170.325 128.429C171.075 128.643 171.824 128.858 172.657 128.965C172.657 130.467 172.574 131.861 172.574 133.363H172.657C173.074 131.969 173.49 130.681 173.906 129.287C174.656 129.501 175.406 129.716 176.155 129.93C175.739 132.505 175.322 135.186 174.989 137.761Z" fill="white"/>
<path d="M178.404 136.045C178.238 136.045 178.071 135.938 177.905 135.938C177.738 136.796 177.571 137.654 177.488 138.512C176.905 138.405 176.405 138.19 175.822 138.083C176.239 135.508 176.655 132.827 177.155 130.252C177.821 130.467 178.571 130.682 179.237 130.789C179.987 131.003 180.487 131.325 180.737 131.861C180.986 132.398 181.07 133.149 180.903 134.007C180.737 134.972 180.487 135.508 180.07 135.83C179.57 136.259 179.071 136.259 178.404 136.045ZM178.904 134.436C178.987 134.329 179.071 134.114 179.154 133.685C179.237 133.363 179.237 133.041 179.154 132.827C179.154 132.612 178.987 132.505 178.821 132.505C178.738 132.505 178.654 132.505 178.571 132.398C178.488 133.041 178.321 133.685 178.238 134.436C178.321 134.436 178.404 134.543 178.488 134.543C178.654 134.543 178.821 134.543 178.904 134.436Z" fill="white"/>
<path d="M184.818 140.765C184.234 140.55 183.735 140.443 183.152 140.228C183.152 139.799 183.152 139.37 183.235 138.941C182.818 138.834 182.485 138.727 182.069 138.619C181.902 139.048 181.819 139.37 181.652 139.799C181.153 139.585 180.57 139.477 180.07 139.37C180.903 136.903 181.736 134.436 182.652 131.969C183.485 132.183 184.401 132.505 185.234 132.827C185.067 135.294 184.984 138.083 184.818 140.765ZM183.318 137.439C183.402 136.474 183.402 135.509 183.485 134.543H183.402C183.068 135.401 182.818 136.367 182.485 137.225C182.818 137.225 183.068 137.332 183.318 137.439Z" fill="white"/>
<path d="M189.815 142.481C189.316 142.266 188.733 142.052 188.233 141.944C188.066 140.55 187.9 139.263 187.733 137.868H187.65C187.4 139.048 187.15 140.228 186.9 141.515C186.4 141.301 185.901 141.194 185.401 140.979C185.901 138.405 186.4 135.83 186.983 133.256C187.566 133.47 188.15 133.685 188.733 133.792C188.899 135.187 189.066 136.581 189.232 137.976H189.316C189.566 136.688 189.815 135.508 190.065 134.221C190.565 134.436 191.065 134.543 191.648 134.758C190.898 137.332 190.398 139.906 189.815 142.481Z" fill="white"/>
<path d="M192.481 143.446C191.898 143.232 191.398 143.017 190.815 142.803C191.398 140.228 191.898 137.654 192.481 135.08C193.064 135.294 193.647 135.509 194.23 135.723C193.564 138.298 193.064 140.872 192.481 143.446Z" fill="white"/>
<path d="M196.729 145.055C195.646 144.626 194.563 144.197 193.397 143.768C193.98 141.194 194.563 138.619 195.146 136.045C196.312 136.474 197.478 136.903 198.644 137.332C198.478 137.976 198.311 138.512 198.061 139.156C197.478 138.941 196.979 138.727 196.396 138.512C196.312 138.941 196.229 139.263 196.146 139.692C196.645 139.907 197.062 140.014 197.562 140.228C197.395 140.765 197.312 141.301 197.145 141.837C196.645 141.623 196.229 141.516 195.729 141.301C195.646 141.73 195.563 142.159 195.396 142.588C195.979 142.803 196.562 143.017 197.145 143.232C197.062 143.875 196.895 144.412 196.729 145.055Z" fill="white"/>
<path d="M199.311 138.297C199.727 137.976 200.31 137.976 200.893 138.19C201.476 138.405 202.059 138.726 202.726 139.155C202.476 139.799 202.226 140.443 202.059 140.979C201.476 140.55 201.06 140.228 200.81 140.121C200.477 140.014 200.31 140.121 200.227 140.443C200.227 140.55 200.227 140.764 200.393 140.872C200.477 141.086 200.643 141.194 200.81 141.408C200.976 141.623 201.143 141.837 201.31 142.159C201.476 142.373 201.559 142.802 201.643 143.124C201.726 143.553 201.726 143.875 201.559 144.304C201.393 145.055 201.06 145.591 200.643 145.913C200.227 146.235 199.644 146.235 199.061 146.02C198.478 145.806 197.895 145.377 197.395 144.948C197.561 144.304 197.728 143.768 197.978 143.124C198.644 143.661 199.061 143.982 199.311 144.09C199.56 144.197 199.727 144.09 199.81 143.768C199.81 143.661 199.81 143.446 199.727 143.232C199.644 143.017 199.477 142.802 199.311 142.588C199.144 142.373 198.977 142.159 198.811 141.837C198.644 141.623 198.478 141.301 198.478 140.872C198.394 140.443 198.394 140.014 198.561 139.585C198.561 139.155 198.894 138.619 199.311 138.297Z" fill="white"/>
</g>
<defs>
<clipPath id="clip0_451_4652">
<rect width="162.671" height="23.7059" fill="white" transform="translate(40.0547 122.529)"/>
</clipPath>
</defs>
</svg>
