<svg width="172" height="118" viewBox="0 0 172 118" fill="none" xmlns="http://www.w3.org/2000/svg">
    <g clip-path="url(#clip0_1059_2361)">
    <path d="M164.018 104.626L161.925 104.532L164.86 39L164.971 36.5243L162.49 36.4131L123.959 34.6954L123.858 34.6911L124.905 11.3255L125.015 8.84898L122.534 8.73851L58.9347 5.90318L56.4526 5.79199L56.3419 8.26848L55.2955 31.6341L55.1942 31.6291L16.6639 29.9114L14.1825 29.8009L14.0717 32.2767L11.1359 97.8091L9.04305 97.7159L6.56092 97.6055L6.4502 100.081L6.07824 108.392L5.9668 110.869L8.44893 110.979L163.424 117.89L165.905 118L166.016 115.524L166.389 107.213L166.5 104.737L164.018 104.626Z" fill="#56032B" fill-opacity="0.16"/>
    <path d="M97.8011 84.1184H72.1562V102.551H97.8011V84.1184Z" fill="white"/>
    <path d="M50.5608 36.9524H11.9922V102.55H50.5608V36.9524Z" fill="#930043"/>
    <path d="M157.963 36.9524H119.395V102.55H157.963V36.9524Z" fill="#930043"/>
    <path d="M69.6719 102.551V82.9298C69.6719 82.2187 70.2515 81.6403 70.9643 81.6403H98.9922C99.705 81.6403 100.285 82.2187 100.285 82.9298V102.551H116.81V11.085H53.1465V102.55H69.6719V102.551Z" fill="#FAD37C"/>
    <path d="M162.544 105.029H7.41406V113.349H162.544V105.029Z" fill="white"/>
    <path d="M162.544 102.551H160.448V36.9525V34.4738H157.964H119.395H119.294V11.0851V8.60645H116.81H53.1476H50.6633V11.0851V34.4738H50.5619H11.9933H9.5097V36.9525V102.551H7.414H4.92969V105.029V113.349V115.828H7.414H162.544H165.028V113.349V105.029V102.551H162.544V102.551ZM162.544 113.349H7.414V105.029H162.544V113.349ZM97.8014 102.551H72.1565V84.1191H97.8014V102.551ZM157.965 36.9525V102.551H119.396V36.9525H157.965ZM116.81 11.0851V102.551H100.285V82.93C100.285 82.2188 99.7054 81.6405 98.9926 81.6405H70.9654C70.2526 81.6405 69.673 82.2188 69.673 82.93V102.551H53.1476V11.0851H116.81ZM11.9933 36.9525H50.5627V102.551H11.9933V36.9525Z" fill="black"/>
    <path d="M80.1455 50.3125H70.7011C68.376 50.3125 66.4844 52.1998 66.4844 54.5189V63.9426C66.4844 66.2624 68.376 68.1497 70.7011 68.1497H80.1463C82.4714 68.1497 84.3623 66.2624 84.3623 63.9426V54.5189C84.3623 52.1991 82.4706 50.3125 80.1455 50.3125Z" fill="#EAB659"/>
    <path d="M38.408 76.4153H28.9628C26.6377 76.4153 24.7461 78.3026 24.7461 80.6217V90.0454C24.7461 92.3652 26.6377 94.2518 28.9628 94.2518H38.408C40.7331 94.2518 42.624 92.3645 42.624 90.0454V80.6217C42.6247 78.3026 40.7331 76.4153 38.408 76.4153Z" fill="#84033E"/>
    <path d="M38.408 50.3125H28.9628C26.6377 50.3125 24.7461 52.1998 24.7461 54.5189V63.9426C24.7461 66.2624 26.6377 68.1497 28.9628 68.1497H38.408C40.7331 68.1497 42.624 66.2624 42.624 63.9426V54.5189C42.6247 52.1991 40.7331 50.3125 38.408 50.3125Z" fill="#84033E"/>
    <path d="M145.812 76.4153H136.366C134.041 76.4153 132.15 78.3026 132.15 80.6217V90.0454C132.15 92.3652 134.042 94.2518 136.366 94.2518H145.812C148.137 94.2518 150.028 92.3645 150.028 90.0454V80.6217C150.028 78.3026 148.137 76.4153 145.812 76.4153Z" fill="#84033E"/>
    <path d="M145.812 50.3125H136.366C134.041 50.3125 132.15 52.1998 132.15 54.5189V63.9426C132.15 66.2624 134.042 68.1497 136.366 68.1497H145.812C148.137 68.1497 150.028 66.2624 150.028 63.9426V54.5189C150.028 52.1991 148.137 50.3125 145.812 50.3125Z" fill="#84033E"/>
    <path d="M80.1455 23.2588H70.7011C68.376 23.2588 66.4844 25.1461 66.4844 27.4652V36.8889C66.4844 39.2087 68.376 41.0953 70.7011 41.0953H80.1463C82.4714 41.0953 84.3623 39.208 84.3623 36.8889V27.4652C84.3623 25.1454 82.4706 23.2588 80.1455 23.2588Z" fill="#EAB659"/>
    <path d="M104.076 50.3125H94.6308C92.3057 50.3125 90.4141 52.1998 90.4141 54.5189V63.9426C90.4141 66.2624 92.3057 68.1497 94.6308 68.1497H104.076C106.401 68.1497 108.293 66.2624 108.293 63.9426V54.5189C108.293 52.1991 106.401 50.3125 104.076 50.3125Z" fill="#EAB659"/>
    <path d="M104.076 23.2588H94.6308C92.3057 23.2588 90.4141 25.1461 90.4141 27.4652V36.8889C90.4141 39.2087 92.3057 41.0953 94.6308 41.0953H104.076C106.401 41.0953 108.293 39.208 108.293 36.8889V27.4652C108.293 25.1454 106.401 23.2588 104.076 23.2588Z" fill="#EAB659"/>
    <path d="M77.7374 50.3867H68.293C67.3363 50.3867 66.5605 51.1607 66.5605 52.1152V61.5389C66.5605 62.4934 67.3363 63.2674 68.293 63.2674H77.7381C78.6948 63.2674 79.4706 62.4934 79.4706 61.5389V52.1152C79.4698 51.1607 78.6941 50.3867 77.7374 50.3867Z" fill="white"/>
    <path d="M77.7373 47.9082H68.2929C65.9678 47.9082 64.0762 49.7955 64.0762 52.1153V61.539C64.0762 63.8588 65.9678 65.7461 68.2929 65.7461H77.7381C80.0632 65.7461 81.9548 63.8588 81.9548 61.539V52.1153C81.9541 49.7955 80.0624 47.9082 77.7373 47.9082ZM79.4698 61.539C79.4698 62.4935 78.694 63.2675 77.7373 63.2675H68.2929C67.3362 63.2675 66.5605 62.4935 66.5605 61.539V52.1153C66.5605 51.1609 67.3362 50.3869 68.2929 50.3869H77.7381C78.6947 50.3869 79.4705 51.1609 79.4705 52.1153V61.539H79.4698Z" fill="black"/>
    <path d="M36.0018 76.4895H26.5566C25.6 76.4895 24.8242 77.2635 24.8242 78.218V87.6416C24.8242 88.5961 25.6 89.3701 26.5566 89.3701H36.0018C36.9585 89.3701 37.7342 88.5961 37.7342 87.6416V78.218C37.7342 77.2635 36.9585 76.4895 36.0018 76.4895Z" fill="white"/>
    <path d="M36.0017 74.0117H26.5566C24.2315 74.0117 22.3398 75.899 22.3398 78.2181V87.6418C22.3398 89.9616 24.2315 91.8482 26.5566 91.8482H36.0017C38.3268 91.8482 40.2177 89.9609 40.2177 87.6418V78.2181C40.2177 75.8983 38.3268 74.0117 36.0017 74.0117ZM37.7342 87.6418C37.7342 88.5963 36.9584 89.3703 36.0017 89.3703H26.5566C25.5999 89.3703 24.8242 88.5963 24.8242 87.6418V78.2181C24.8242 77.2636 25.5999 76.4897 26.5566 76.4897H36.0017C36.9584 76.4897 37.7342 77.2636 37.7342 78.2181V87.6418Z" fill="black"/>
    <path d="M36.0018 50.3867H26.5566C25.6 50.3867 24.8242 51.1607 24.8242 52.1152V61.5389C24.8242 62.4934 25.6 63.2674 26.5566 63.2674H36.0018C36.9585 63.2674 37.7342 62.4934 37.7342 61.5389V52.1152C37.7342 51.1607 36.9585 50.3867 36.0018 50.3867Z" fill="white"/>
    <path d="M36.0017 47.9082H26.5566C24.2315 47.9082 22.3398 49.7955 22.3398 52.1153V61.539C22.3398 63.8588 24.2315 65.7461 26.5566 65.7461H36.0017C38.3268 65.7461 40.2177 63.8588 40.2177 61.539V52.1153C40.2177 49.7955 38.3268 47.9082 36.0017 47.9082ZM37.7342 61.539C37.7342 62.4935 36.9584 63.2675 36.0017 63.2675H26.5566C25.5999 63.2675 24.8242 62.4935 24.8242 61.539V52.1153C24.8242 51.1609 25.5999 50.3869 26.5566 50.3869H36.0017C36.9584 50.3869 37.7342 51.1609 37.7342 52.1153V61.539Z" fill="black"/>
    <path d="M143.402 76.4895H133.957C133 76.4895 132.225 77.2635 132.225 78.218V87.6416C132.225 88.5961 133 89.3701 133.957 89.3701H143.402C144.359 89.3701 145.135 88.5961 145.135 87.6416V78.218C145.135 77.2635 144.359 76.4895 143.402 76.4895Z" fill="white"/>
    <path d="M143.403 74.0117H133.958C131.633 74.0117 129.742 75.899 129.742 78.2181V87.6418C129.742 89.9616 131.634 91.8482 133.958 91.8482H143.403C145.728 91.8482 147.619 89.9609 147.619 87.6418V78.2181C147.62 75.8983 145.728 74.0117 143.403 74.0117ZM145.136 87.6418C145.136 88.5963 144.36 89.3703 143.403 89.3703H133.958C133.002 89.3703 132.226 88.5963 132.226 87.6418V78.2181C132.226 77.2636 133.002 76.4897 133.958 76.4897H143.403C144.36 76.4897 145.136 77.2636 145.136 78.2181V87.6418Z" fill="black"/>
    <path d="M143.402 50.3867H133.957C133 50.3867 132.225 51.1607 132.225 52.1152V61.5389C132.225 62.4934 133 63.2674 133.957 63.2674H143.402C144.359 63.2674 145.135 62.4934 145.135 61.5389V52.1152C145.135 51.1607 144.359 50.3867 143.402 50.3867Z" fill="white"/>
    <path d="M143.403 47.9082H133.958C131.633 47.9082 129.742 49.7955 129.742 52.1153V61.539C129.742 63.8588 131.634 65.7461 133.958 65.7461H143.403C145.728 65.7461 147.619 63.8588 147.619 61.539V52.1153C147.62 49.7955 145.728 47.9082 143.403 47.9082ZM145.136 61.539C145.136 62.4935 144.36 63.2675 143.403 63.2675H133.958C133.002 63.2675 132.226 62.4935 132.226 61.539V52.1153C132.226 51.1609 133.002 50.3869 133.958 50.3869H143.403C144.36 50.3869 145.136 51.1609 145.136 52.1153V61.539Z" fill="black"/>
    <path d="M77.7374 23.3333H68.293C67.3363 23.3333 66.5605 24.1072 66.5605 25.0617V34.4854C66.5605 35.4399 67.3363 36.2139 68.293 36.2139H77.7381C78.6948 36.2139 79.4706 35.4399 79.4706 34.4854V25.0617C79.4698 24.1072 78.6941 23.3333 77.7374 23.3333Z" fill="white"/>
    <path d="M77.7373 20.8552H68.2929C65.9678 20.8552 64.0762 22.7426 64.0762 25.0616V34.4853C64.0762 36.8051 65.9678 38.6917 68.2929 38.6917H77.7381C80.0632 38.6917 81.9548 36.8044 81.9548 34.4853V25.0616C81.9541 22.7418 80.0624 20.8552 77.7373 20.8552ZM79.4698 34.4853C79.4698 35.4398 78.694 36.2138 77.7373 36.2138H68.2929C67.3362 36.2138 66.5605 35.4398 66.5605 34.4853V25.0616C66.5605 24.1071 67.3362 23.3332 68.2929 23.3332H77.7381C78.6947 23.3332 79.4705 24.1071 79.4705 25.0616V34.4853H79.4698Z" fill="black"/>
    <path d="M101.666 50.3867H92.2207C91.264 50.3867 90.4883 51.1607 90.4883 52.1152V61.5389C90.4883 62.4934 91.264 63.2674 92.2207 63.2674H101.666C102.623 63.2674 103.398 62.4934 103.398 61.5389V52.1152C103.398 51.1607 102.623 50.3867 101.666 50.3867Z" fill="white"/>
    <path d="M101.666 47.9082H92.2206C89.8955 47.9082 88.0039 49.7955 88.0039 52.1153V61.539C88.0039 63.8588 89.8955 65.7461 92.2206 65.7461H101.666C103.991 65.7461 105.883 63.8588 105.883 61.539V52.1153C105.882 49.7955 103.991 47.9082 101.666 47.9082ZM103.398 61.539C103.398 62.4935 102.622 63.2675 101.666 63.2675H92.2206C91.264 63.2675 90.4882 62.4935 90.4882 61.539V52.1153C90.4882 51.1609 91.264 50.3869 92.2206 50.3869H101.666C102.622 50.3869 103.398 51.1609 103.398 52.1153V61.539Z" fill="black"/>
    <path d="M101.666 23.3333H92.2207C91.264 23.3333 90.4883 24.1072 90.4883 25.0617V34.4854C90.4883 35.4399 91.264 36.2139 92.2207 36.2139H101.666C102.623 36.2139 103.398 35.4399 103.398 34.4854V25.0617C103.398 24.1072 102.623 23.3333 101.666 23.3333Z" fill="white"/>
    <path d="M74.2295 86.187H97.8011V84.1184H72.1562V102.551H74.2295V86.187Z" fill="#56032B" fill-opacity="0.24"/>
    <path d="M14.0655 39.0209H50.5616V36.9524H11.9922V102.551H14.0655V39.0209Z" fill="#84033E"/>
    <path d="M121.467 39.0209H157.963V36.9524H119.395V102.551H121.467V39.0209Z" fill="#84033E"/>
    <path d="M55.219 13.1535H116.809V11.085H53.1465V102.551H55.219V13.1535Z" fill="#FDF5B5"/>
    <path d="M102.358 84.9978C102.358 84.2866 101.778 83.7083 101.065 83.7083H100.285V102.551H102.358V84.9978Z" fill="#FDF5B5"/>
    <path d="M9.48733 107.098H162.544V105.029H7.41406V113.349H9.48733V107.098Z" fill="#E4D6DD"/>
    <path d="M68.6331 54.183C68.6331 53.2285 69.4089 52.4545 70.3655 52.4545H79.4698V52.1145C79.4698 51.16 78.6941 50.386 77.7374 50.386H68.293C67.3363 50.386 66.5605 51.16 66.5605 52.1145V61.5381C66.5605 62.4926 67.3363 63.2666 68.293 63.2666H68.6338V54.183H68.6331Z" fill="#56032B" fill-opacity="0.24"/>
    <path d="M26.8975 80.2865C26.8975 79.332 27.6733 78.5581 28.6299 78.5581H37.7342V78.218C37.7342 77.2635 36.9585 76.4895 36.0018 76.4895H26.5566C25.6 76.4895 24.8242 77.2635 24.8242 78.218V87.6416C24.8242 88.5961 25.6 89.3701 26.5566 89.3701H26.8975V80.2865Z" fill="#56032B" fill-opacity="0.24"/>
    <path d="M26.8975 54.183C26.8975 53.2285 27.6733 52.4545 28.6299 52.4545H37.7342V52.1145C37.7342 51.16 36.9585 50.386 36.0018 50.386H26.5566C25.6 50.386 24.8242 51.16 24.8242 52.1145V61.5381C24.8242 62.4926 25.6 63.2666 26.5566 63.2666H26.8975V54.183Z" fill="#56032B" fill-opacity="0.24"/>
    <path d="M134.298 80.2865C134.298 79.332 135.074 78.5581 136.03 78.5581H145.135V78.218C145.135 77.2635 144.359 76.4895 143.402 76.4895H133.957C133 76.4895 132.225 77.2635 132.225 78.218V87.6416C132.225 88.5961 133 89.3701 133.957 89.3701H134.298V80.2865Z" fill="#56032B" fill-opacity="0.24"/>
    <path d="M134.298 54.183C134.298 53.2285 135.074 52.4545 136.03 52.4545H145.135V52.1145C145.135 51.16 144.359 50.386 143.402 50.386H133.957C133 50.386 132.225 51.16 132.225 52.1145V61.5381C132.225 62.4926 133 63.2666 133.957 63.2666H134.298V54.183Z" fill="#56032B" fill-opacity="0.24"/>
    <path d="M68.6331 27.1296C68.6331 26.1751 69.4089 25.4011 70.3655 25.4011H79.4698V25.061C79.4698 24.1065 78.6941 23.3325 77.7374 23.3325H68.293C67.3363 23.3325 66.5605 24.1065 66.5605 25.061V34.4847C66.5605 35.4392 67.3363 36.2131 68.293 36.2131H68.6338V27.1296H68.6331Z" fill="#56032B" fill-opacity="0.24"/>
    <path d="M92.5616 54.183C92.5616 53.2285 93.3373 52.4545 94.294 52.4545H103.398V52.1145C103.398 51.16 102.623 50.386 101.666 50.386H92.2207C91.264 50.386 90.4883 51.16 90.4883 52.1145V61.5381C90.4883 62.4926 91.264 63.2666 92.2207 63.2666H92.5616V54.183Z" fill="#56032B" fill-opacity="0.24"/>
    <path d="M92.5616 27.1296C92.5616 26.1751 93.3373 25.4011 94.294 25.4011H103.398V25.061C103.398 24.1065 102.623 23.3325 101.666 23.3325H92.2207C91.264 23.3325 90.4883 24.1065 90.4883 25.061V34.4847C90.4883 35.4392 91.264 36.2131 92.2207 36.2131H92.5616V27.1296Z" fill="#56032B" fill-opacity="0.24"/>
    <path d="M101.666 20.8552H92.2206C89.8955 20.8552 88.0039 22.7426 88.0039 25.0616V34.4853C88.0039 36.8051 89.8955 38.6917 92.2206 38.6917H101.666C103.991 38.6917 105.883 36.8044 105.883 34.4853V25.0616C105.882 22.7418 103.991 20.8552 101.666 20.8552ZM103.398 34.4853C103.398 35.4398 102.622 36.2138 101.666 36.2138H92.2206C91.264 36.2138 90.4882 35.4398 90.4882 34.4853V25.0616C90.4882 24.1071 91.264 23.3332 92.2206 23.3332H101.666C102.622 23.3332 103.398 24.1071 103.398 25.0616V34.4853Z" fill="black"/>
    <path d="M118.501 5.90251H74.8174C74.2818 5.90251 73.8477 5.46931 73.8477 4.93502C73.8477 4.40073 74.2818 3.96753 74.8174 3.96753H118.501C119.036 3.96753 119.471 4.40073 119.471 4.93502C119.471 5.46931 119.036 5.90251 118.501 5.90251Z" fill="black"/>
    <path d="M118.501 1.93498H94.6982C94.1627 1.93498 93.7285 1.50178 93.7285 0.967491C93.7285 0.433205 94.1627 0 94.6982 0H118.501C119.036 0 119.47 0.433205 119.47 0.967491C119.47 1.50178 119.036 1.93498 118.501 1.93498Z" fill="black"/>
    <path d="M91.3106 1.93498H88.497C87.9615 1.93498 87.5273 1.50178 87.5273 0.967491C87.5273 0.433205 87.9615 0 88.497 0H91.3106C91.8461 0 92.2803 0.433205 92.2803 0.967491C92.2803 1.50178 91.8461 1.93498 91.3106 1.93498Z" fill="black"/>
    <path d="M5.44626 34.5403C4.91076 34.5403 4.47656 34.9735 4.47656 35.5078V79.0918C4.47656 79.6261 4.91076 80.0593 5.44626 80.0593C5.98177 80.0593 6.41596 79.6261 6.41596 79.0918V35.5078C6.41668 34.9735 5.98249 34.5403 5.44626 34.5403Z" fill="black"/>
    <path d="M1.4697 34.5403C0.934193 34.5403 0.5 34.9735 0.5 35.5078V59.2561C0.5 59.7904 0.934193 60.2236 1.4697 60.2236C2.0052 60.2236 2.4394 59.7904 2.4394 59.2561V35.5078C2.4394 34.9735 2.0052 34.5403 1.4697 34.5403Z" fill="black"/>
    <path d="M1.4697 61.6682C0.934193 61.6682 0.5 62.1014 0.5 62.6357V65.4429C0.5 65.9772 0.934193 66.4104 1.4697 66.4104C2.0052 66.4104 2.4394 65.9772 2.4394 65.4429V62.6357C2.4394 62.1014 2.0052 61.6682 1.4697 61.6682Z" fill="black"/>
    </g>
    <path d="M168.725 36.3425C168.858 37.2004 167.927 38.1286 167.924 38.9703C167.922 39.8345 168.844 40.7676 168.708 41.6025C168.57 42.452 167.397 43.0473 167.13 43.8535C166.861 44.6681 167.447 45.8419 167.057 46.5989C166.664 47.3595 165.365 47.5644 164.86 48.2531C164.355 48.9418 164.551 50.24 163.943 50.843C163.338 51.4434 162.04 51.2399 161.343 51.742C160.654 52.2391 160.439 53.5347 159.67 53.9227C158.913 54.3039 157.744 53.7084 156.919 53.9715C156.116 54.2277 155.51 55.394 154.651 55.5268C153.792 55.6596 152.863 54.7309 152.019 54.7287C151.154 54.7269 150.219 55.6476 149.382 55.5126C148.532 55.3751 147.936 54.2047 147.129 53.9389C146.313 53.6703 145.137 54.2564 144.379 53.8667C143.617 53.475 143.412 52.1784 142.723 51.6744C142.033 51.1703 140.733 51.3671 140.129 50.7606C139.528 50.1568 139.733 48.8608 139.23 48.1655C138.732 47.4774 137.435 47.2639 137.047 46.4958C136.665 45.7408 137.262 44.573 136.999 43.7498C136.743 42.948 135.575 42.3442 135.442 41.4864C135.31 40.6285 136.241 39.7003 136.243 38.8586C136.246 37.9944 135.324 37.0613 135.459 36.2264C135.598 35.3769 136.77 34.7816 137.037 33.9754C137.306 33.1608 136.72 31.987 137.111 31.23C137.503 30.4694 138.802 30.2645 139.307 29.5758C139.813 28.8871 139.616 27.5889 140.224 26.9859C140.829 26.3855 142.127 26.589 142.824 26.0869C143.514 25.5898 143.728 24.2942 144.498 23.9062C145.254 23.525 146.424 24.1205 147.248 23.8574C148.051 23.6012 148.657 22.4349 149.516 22.3021C150.376 22.1693 151.305 23.0981 152.148 23.1002C153.014 23.102 153.949 22.1813 154.785 22.3163C155.636 22.4538 156.231 23.6242 157.039 23.89C157.855 24.1586 159.031 23.5725 159.789 23.9622C160.55 24.3539 160.755 25.6505 161.445 26.1545C162.134 26.6586 163.435 26.4618 164.038 27.0683C164.639 27.6721 164.435 28.9681 164.937 29.6634C165.435 30.3515 166.733 30.565 167.121 31.3331C167.502 32.0881 166.905 33.2559 167.168 34.0792C167.425 34.8808 168.592 35.4847 168.725 36.3425Z" fill="#2791F2"/>
    <path d="M154.002 51.3218C160.866 50.261 165.573 43.846 164.514 36.9937C163.454 30.1414 157.031 25.4465 150.167 26.5073C143.303 27.5682 138.597 33.9831 139.656 40.8355C140.715 47.6878 147.138 52.3827 154.002 51.3218Z" fill="white"/>
    <path d="M153.821 50.1537C160.039 49.1927 164.302 43.3816 163.343 37.1743C162.383 30.9669 156.565 26.714 150.347 27.675C144.129 28.636 139.866 34.4471 140.825 40.6544C141.784 46.8617 147.603 51.1147 153.821 50.1537Z" fill="#2791F2"/>
    <path d="M158.414 33.2758L151.758 44.8537L151.047 46.0907L149.78 45.3241L145.467 42.7144L147.563 39.8567L150.091 42.0655L154.863 31.4682L158.414 33.2758Z" fill="white"/>
    <defs>
    <clipPath id="clip0_1059_2361">
    <rect width="166" height="118" fill="white" transform="translate(0.5)"/>
    </clipPath>
    </defs>
    </svg>
    