<svg width="21" height="22" viewBox="0 0 21 22" fill="none" xmlns="http://www.w3.org/2000/svg">
    <g clip-path="url(#clip0_243_953)">
    <path d="M10.4989 2.94482C9.44554 2.94482 8.58887 3.8015 8.58887 4.85487C8.58887 5.90824 9.44554 6.76487 10.4989 6.76487C11.5523 6.76487 12.4089 5.9082 12.4089 4.85487C12.4089 3.80154 11.5522 2.94482 10.4989 2.94482ZM10.4989 5.81034C9.97223 5.81034 9.54344 5.38156 9.54344 4.85487C9.54344 4.32819 9.97223 3.8994 10.4989 3.8994C11.0256 3.8994 11.4544 4.32819 11.4544 4.85487C11.4544 5.38156 11.0256 5.81034 10.4989 5.81034Z" fill="black"/>
    <path d="M20.5228 8.67306C20.7866 8.67306 21 8.46088 21 8.19711V6.28823C21 6.11999 20.9115 5.96388 20.7665 5.8781L11.4303 0.333652C11.4261 0.330833 11.4219 0.328506 11.4177 0.326179C10.8374 0.00460167 10.1831 -0.00515261 9.56921 0.332712L0.233521 5.8781C0.0885491 5.96383 0 6.11999 0 6.28823V8.19711C0 8.46088 0.213475 8.67306 0.477288 8.67306H1.90911V17.2644C0.856183 17.2644 0 18.1205 0 19.1733V20.6049C0 20.8687 0.213475 21.0822 0.477288 21.0822H20.5228C20.7866 21.0822 21 20.8688 21 20.6049V19.1733C21 18.1205 20.1439 17.2644 19.0909 17.2644V8.67306H20.5228ZM20.0455 19.1731V20.1276H0.954531V19.1731C0.954531 18.6469 1.38287 18.2185 1.90906 18.2185H2.38635H18.6136H19.0909C19.6171 18.2185 20.0455 18.6468 20.0455 19.1731ZM2.86364 17.264V8.67306H4.77275V17.264H2.86364ZM5.72728 17.264V8.67306H8.59092V17.264H5.72728ZM9.54545 17.264V8.67306H11.4546V17.264H9.54545ZM12.4091 17.264V8.67306H15.2727V17.264H12.4091ZM16.2273 17.264V8.67306H18.1364V17.264H16.2273ZM0.954531 7.71853V6.55844L10.0428 1.15927C10.3402 0.995689 10.6561 0.996136 10.9498 1.15601L20.0455 6.55844V7.71853H0.954531Z" fill="black"/>
    </g>
    <defs>
    <clipPath id="clip0_243_953">
    <rect width="21" height="21" fill="white" transform="translate(0 0.0821533)"/>
    </clipPath>
    </defs>
    </svg>
    