<svg width="50" height="50" viewBox="0 0 50 50" fill="none" xmlns="http://www.w3.org/2000/svg">
    <path d="M22.9337 45.8665H26.0671C26.4997 45.8665 26.8504 45.5157 26.8504 45.0831C26.8504 44.6505 26.4997 44.2998 26.0671 44.2998H22.9337C22.5011 44.2998 22.1504 44.6505 22.1504 45.0831C22.1504 45.5157 22.5011 45.8665 22.9337 45.8665Z" fill="white"/>
    <path d="M11.1837 13.75C11.6163 13.75 11.9671 13.3993 11.9671 12.9667V8.26667H37.0337V14.5333C37.0337 14.9659 37.3845 15.3167 37.8171 15.3167C38.2497 15.3167 38.6004 14.9659 38.6004 14.5333V5.13333C38.6004 3.72333 36.7925 2 34.6837 2H14.3171C12.1551 2.00255 10.4029 3.75467 10.4004 5.91667V12.9667C10.4004 13.3993 10.7511 13.75 11.1837 13.75ZM11.9671 5.91667C11.9671 4.61878 13.0192 3.56667 14.3171 3.56667H34.6837C36.0412 3.56667 37.0337 4.66333 37.0337 5.13333V6.7H11.9671V5.91667Z" fill="white"/>
    <path d="M37.8171 36.4663C37.3845 36.4663 37.0337 36.817 37.0337 37.2496V41.1663H11.9671V38.033C11.9671 37.6004 11.6163 37.2496 11.1837 37.2496C10.7511 37.2496 10.4004 37.6004 10.4004 38.033V45.083C10.4029 47.245 12.1551 48.9971 14.3171 48.9996H34.6837C36.8457 48.9971 38.5978 47.245 38.6004 45.083V37.2496C38.6004 36.817 38.2497 36.4663 37.8171 36.4663ZM37.0337 45.083C37.0337 46.3809 35.9816 47.433 34.6837 47.433H14.3171C13.0192 47.433 11.9671 46.3809 11.9671 45.083V42.733H37.0337V45.083Z" fill="white"/>
    <path d="M22.934 4.3501H21.3673C20.9347 4.3501 20.584 4.70084 20.584 5.13343C20.584 5.56603 20.9347 5.91676 21.3673 5.91676H22.934C23.3666 5.91676 23.7173 5.56603 23.7173 5.13343C23.7173 4.70084 23.3666 4.3501 22.934 4.3501Z" fill="white"/>
    <path d="M27.6332 4.3501H26.0665C25.6339 4.3501 25.2832 4.70084 25.2832 5.13343C25.2832 5.56603 25.6339 5.91676 26.0665 5.91676H27.6332C28.0658 5.91676 28.4165 5.56603 28.4165 5.13343C28.4165 4.70084 28.0658 4.3501 27.6332 4.3501Z" fill="white"/>
    <path d="M47.8205 17.1664C47.6715 16.9871 47.4505 16.8834 47.2173 16.8836H26.6564L26.2569 14.1897C26.0805 13.0404 25.0947 12.1898 23.932 12.1836H20.584V13.7503H23.932C24.3206 13.75 24.6507 14.0347 24.7075 14.4192L27.4444 32.8941C27.6208 34.0435 28.6066 34.8941 29.7694 34.9003H31.6948C32.1193 36.1185 33.4509 36.762 34.6691 36.3377C35.3425 36.1031 35.8719 35.5737 36.1065 34.9003H39.5281C39.9607 36.1239 41.3034 36.7652 42.527 36.3325C43.7506 35.8998 44.3919 34.5572 43.9592 33.3336C43.5266 32.1099 42.1839 31.4687 40.9603 31.9014C40.2911 32.1379 39.7647 32.6644 39.5281 33.3336H36.1065C35.682 32.1153 34.3504 31.4718 33.1322 31.8962C32.4588 32.1308 31.9294 32.6601 31.6948 33.3336H29.7694C29.3816 33.3315 29.0528 33.048 28.9939 32.6646L28.7448 30.9836H44.8673C45.2438 30.9833 45.5669 30.7152 45.6366 30.3452L47.9866 17.8118C48.03 17.5827 47.9691 17.3461 47.8205 17.1664ZM41.734 33.3336C42.1666 33.3336 42.5173 33.6843 42.5173 34.1169C42.5173 34.5495 42.1666 34.9003 41.734 34.9003C41.3014 34.9003 40.9507 34.5495 40.9507 34.1169C40.9507 33.6843 41.3014 33.3336 41.734 33.3336ZM33.9007 33.3336C34.3332 33.3336 34.684 33.6843 34.684 34.1169C34.684 34.5495 34.3332 34.9003 33.9007 34.9003C33.4681 34.9003 33.1173 34.5495 33.1173 34.1169C33.1173 33.6843 33.4681 33.3336 33.9007 33.3336ZM44.2172 29.4169H28.5129L26.889 18.4503H46.2773L44.2172 29.4169Z" fill="white"/>
    <path d="M21.3667 25.4997C21.3667 19.8756 16.8075 15.3164 11.1833 15.3164C5.5592 15.3164 1 19.8756 1 25.4997C1 31.1239 5.5592 35.6831 11.1833 35.6831C16.8047 35.6766 21.3602 31.1211 21.3667 25.4997ZM2.56667 25.4997C2.56667 20.7409 6.42449 16.8831 11.1833 16.8831C15.9422 16.8831 19.8 20.7409 19.8 25.4997C19.8 30.2586 15.9422 34.1164 11.1833 34.1164C6.42684 34.1108 2.57225 30.2562 2.56667 25.4997Z" fill="white"/>
    <path d="M14.6455 28.3998C14.862 28.6147 15.2148 28.616 15.4326 28.396L17.7588 26.048C17.9738 25.8311 17.9738 25.4816 17.7588 25.2647L15.4326 22.9167C15.2162 22.6982 14.864 22.6971 14.6455 22.9129C14.4269 23.1293 14.4253 23.4818 14.6416 23.7L16.5798 25.6564L14.6416 27.6127C14.4253 27.831 14.4269 28.1835 14.6455 28.3998Z" fill="white"/>
    <path d="M7.77628 22.9126C7.55803 22.6957 7.20525 22.6973 6.98917 22.9164L4.66319 25.2644C4.44821 25.4813 4.44821 25.8308 4.66319 26.0477L6.98917 28.3957C7.20537 28.614 7.5576 28.616 7.77628 28.3995C7.9948 28.1831 7.99643 27.8306 7.78009 27.6124L5.84222 25.656L7.78009 23.6997C7.99643 23.4814 7.9948 23.1289 7.77628 22.9126Z" fill="white"/>
    <path d="M12.1075 21.3401L8.8403 29.5618C8.72669 29.8474 8.8664 30.1711 9.15205 30.2845C9.43614 30.3979 9.76071 30.2597 9.87474 29.9727L13.1419 21.7511C13.2555 21.4654 13.1158 21.1417 12.8302 21.0284C12.5434 20.9134 12.2208 21.0545 12.1075 21.3401Z" fill="white"/>
    <path d="M29.1993 20.8001H40.166C40.5986 20.8001 40.9493 20.4493 40.9493 20.0167C40.9493 19.5841 40.5986 19.2334 40.166 19.2334H29.1993C28.7668 19.2334 28.416 19.5841 28.416 20.0167C28.416 20.4493 28.7668 20.8001 29.1993 20.8001Z" fill="white"/>
    <path d="M42.5177 20.8001H44.0844C44.517 20.8001 44.8677 20.4493 44.8677 20.0167C44.8677 19.5841 44.517 19.2334 44.0844 19.2334H42.5177C42.0851 19.2334 41.7344 19.5841 41.7344 20.0167C41.7344 20.4493 42.0851 20.8001 42.5177 20.8001Z" fill="white"/>
    </svg>
    