<svg width="25" height="26" viewBox="0 0 25 26" fill="none" xmlns="http://www.w3.org/2000/svg">
    <path d="M24.1695 8.26154L14.2039 3.39327C13.3448 2.96372 11.8843 2.96372 11.0252 3.39327L0.83047 8.26154C0.114548 8.60518 0 9.09201 0 9.34974C0 9.60747 0.114548 10.0657 0.83047 10.4379L1.66094 10.8389V15.4208C1.14548 15.6212 0.773196 16.1367 0.773196 16.7094C0.773196 17.2822 1.14548 17.7976 1.6323 17.9981L0.343643 22.0932H3.95189L2.66323 17.9981C3.17869 17.7976 3.52234 17.2822 3.52234 16.7094C3.52234 16.108 3.15006 15.6212 2.63459 15.4208V11.3257L4.15235 12.0702V18.0267C4.15235 18.1126 4.18099 18.1985 4.23826 18.2845C4.38144 18.4563 7.04467 22.0932 12.4857 22.0932C17.9267 22.0932 20.5899 18.4276 20.7045 18.2845C20.7617 18.1985 20.7904 18.1126 20.7904 18.0267V12.0989L24.1695 10.4379C24.8855 10.0943 25 9.60747 25 9.34974C24.9714 9.09201 24.8855 8.60518 24.1695 8.26154ZM19.874 17.8835C19.4158 18.4563 16.953 21.2054 12.4857 21.2054C8.01833 21.2054 5.55556 18.4563 5.09737 17.8835V12.4712L11.0252 15.3062C11.4548 15.5067 12.0275 15.6212 12.6002 15.6212C13.2016 15.6212 13.7743 15.5067 14.2039 15.2776L19.874 12.4998V17.8835ZM23.7686 9.63611L20.3322 11.3257C20.189 11.3257 20.0745 11.383 20.0172 11.4975L13.803 14.5044C13.2016 14.8194 12.0275 14.8194 11.3975 14.5044L3.75143 10.8389L12.543 9.80793C12.8007 9.7793 12.9725 9.5502 12.9439 9.32111C12.9152 9.06337 12.6861 8.89155 12.457 8.92019L2.26231 10.1229L1.23139 9.63611C0.973654 9.52156 0.91638 9.37838 0.91638 9.37838C0.91638 9.34974 0.973654 9.2352 1.23139 9.12065L11.4261 4.22374C11.7411 4.08056 12.1707 3.99465 12.6002 3.99465C13.0584 3.99465 13.5166 4.08056 13.803 4.22374L23.7686 9.09201C24.0263 9.20656 24.0836 9.32111 24.0836 9.37838C24.0836 9.37838 23.9977 9.52156 23.7686 9.63611Z" fill="black"/>
    </svg>
    