<svg width="24" height="25" viewBox="0 0 24 25" fill="none" xmlns="http://www.w3.org/2000/svg">
    <g clip-path="url(#clip0_234_2522)">
    <path d="M23.7448 9.83512L12.3684 1.50558C12.149 1.34498 11.851 1.34498 11.6317 1.50558L0.255261 9.83512C-0.0226135 10.0386 -0.0829885 10.4288 0.120496 10.7067C0.32398 10.9845 0.714215 11.0448 0.992043 10.8414L12 2.78156L23.008 10.8414C23.119 10.9227 23.248 10.9619 23.3759 10.9619C23.5679 10.9619 23.7574 10.8735 23.8795 10.7066C24.083 10.4288 24.0227 10.0386 23.7448 9.83512Z" fill="black"/>
    <path d="M20.7301 10.9826C20.3857 10.9826 20.1065 11.2618 20.1065 11.6062V21.5319H15.118V16.1138C15.118 14.3944 13.7191 12.9957 11.9999 12.9957C10.2806 12.9957 8.88173 14.3945 8.88173 16.1138V21.532H3.89315V11.6062C3.89315 11.2618 3.61392 10.9827 3.26957 10.9827C2.92523 10.9827 2.646 11.2618 2.646 11.6062V22.1556C2.646 22.5 2.92523 22.7792 3.26957 22.7792H9.50531C9.83325 22.7792 10.1016 22.5258 10.1265 22.2042C10.128 22.1896 10.1289 22.1736 10.1289 22.1556V16.1139C10.1289 15.0822 10.9682 14.2429 11.9999 14.2429C13.0315 14.2429 13.8708 15.0822 13.8708 16.1139V22.1556C13.8708 22.1735 13.8718 22.1892 13.8733 22.2036C13.8978 22.5255 14.1663 22.7792 14.4944 22.7792H20.7301C21.0745 22.7792 21.3537 22.5 21.3537 22.1556V11.6062C21.3537 11.2618 21.0745 10.9826 20.7301 10.9826Z" fill="black"/>
    </g>
    <defs>
    <clipPath id="clip0_234_2522">
    <rect width="24" height="24" fill="white" transform="translate(0 0.0821533)"/>
    </clipPath>
    </defs>
    </svg>
    