<svg width="17" height="17" viewBox="0 0 17 17" fill="none" xmlns="http://www.w3.org/2000/svg">
<path fill-rule="evenodd" clip-rule="evenodd" d="M14.0573 3.96273C14.0573 4.52612 13.6005 4.98273 13.0373 4.98273C12.474 4.98273 12.0173 4.52612 12.0173 3.96273C12.0173 3.39934 12.474 2.94273 13.0373 2.94273C13.6007 2.94273 14.0573 3.39934 14.0573 3.96273ZM8.5 11.3333C6.9352 11.3333 5.66671 10.0648 5.66671 8.5C5.66671 6.9352 6.9352 5.66671 8.5 5.66671C10.0648 5.66671 11.3333 6.9352 11.3333 8.5C11.3333 10.0648 10.0648 11.3333 8.5 11.3333ZM8.5 4.13512C6.08932 4.13512 4.13512 6.08932 4.13512 8.5C4.13512 10.9107 6.08932 12.8649 8.5 12.8649C10.9107 12.8649 12.8649 10.9107 12.8649 8.5C12.8649 6.08932 10.9107 4.13512 8.5 4.13512ZM8.5 1.53159C10.7696 1.53159 11.0384 1.54023 11.9347 1.58113C12.7634 1.61898 13.2135 1.75738 13.513 1.87385C13.9097 2.02805 14.1929 2.21226 14.4904 2.50976C14.7879 2.80712 14.9721 3.09028 15.1263 3.48713C15.2426 3.78662 15.3811 4.23672 15.419 5.06547C15.4599 5.96182 15.4685 6.23063 15.4685 8.50027C15.4685 10.7699 15.4599 11.0387 15.419 11.9349C15.3811 12.7637 15.2428 13.2138 15.1263 13.5133C14.9721 13.91 14.7879 14.1931 14.4904 14.4906C14.193 14.7881 13.9099 14.9724 13.513 15.1265C13.2135 15.2429 12.7634 15.3814 11.9347 15.4193C11.0384 15.4602 10.7696 15.4688 8.5 15.4688C6.23023 15.4688 5.96142 15.4602 5.0652 15.4193C4.23645 15.3814 3.78635 15.243 3.48686 15.1265C3.09015 14.9724 2.80699 14.7881 2.50949 14.4906C2.21213 14.1933 2.02778 13.9101 1.87359 13.5133C1.75724 13.2138 1.61872 12.7637 1.58087 11.9349C1.53996 11.0386 1.53133 10.7698 1.53133 8.50027C1.53133 6.23063 1.53996 5.96182 1.58087 5.06547C1.61872 4.23672 1.75711 3.78662 1.87359 3.48713C2.02778 3.09041 2.21199 2.80726 2.50949 2.50976C2.80686 2.21226 3.09002 2.02805 3.48686 1.87385C3.78635 1.75751 4.23645 1.61898 5.0652 1.58113C5.96155 1.54023 6.23037 1.53159 8.5 1.53159ZM8.5 0C6.19159 0 5.90205 0.00982813 4.99548 0.0511328C4.09076 0.0924375 3.47278 0.236141 2.93223 0.44625C2.37323 0.663398 1.89922 0.954125 1.42667 1.42667C0.954125 1.89922 0.663398 2.37323 0.44625 2.93223C0.236141 3.47291 0.0924375 4.09076 0.0511328 4.99548C0.00982813 5.90205 0 6.19159 0 8.5C0 10.8084 0.00982813 11.0979 0.0511328 12.0045C0.0924375 12.9092 0.236141 13.5271 0.44625 14.0678C0.663398 14.6268 0.954125 15.1008 1.42667 15.5733C1.89922 16.0459 2.37323 16.3365 2.93223 16.5537C3.47291 16.7639 4.09076 16.9076 4.99548 16.9489C5.90205 16.9902 6.19159 17 8.5 17C10.8084 17 11.0979 16.9902 12.0045 16.9489C12.9092 16.9076 13.5271 16.7639 14.0678 16.5537C14.6268 16.3365 15.1008 16.0459 15.5733 15.5733C16.0459 15.1008 16.3365 14.6268 16.5537 14.0678C16.7639 13.5271 16.9076 12.9092 16.9489 12.0045C16.9902 11.0979 17 10.8084 17 8.5C17 6.19159 16.9902 5.90205 16.9489 4.99548C16.9076 4.09076 16.7639 3.47291 16.5537 2.93223C16.3365 2.37323 16.0459 1.89922 15.5733 1.42667C15.1008 0.954125 14.6268 0.663531 14.0678 0.44625C13.5271 0.236141 12.9092 0.0924375 12.0045 0.0511328C11.0979 0.00982813 10.8084 0 8.5 0Z" fill="white"/>
</svg>
