<svg width="16" height="15" viewBox="0 0 16 15" fill="none" xmlns="http://www.w3.org/2000/svg">
<path fill-rule="evenodd" clip-rule="evenodd" d="M0.403625 4.59071H3.52213V14.3158H0.403625V4.59071ZM1.88338 3.37435H1.86075C0.731875 3.37435 0 2.63091 0 1.68853C0 0.727821 0.7535 0 1.905 0C3.0555 0 3.763 0.725976 3.7855 1.68582C3.7855 2.62808 3.0555 3.37435 1.88338 3.37435ZM16 14.3158H12.4637V9.28317C12.4637 7.96593 11.9106 7.06661 10.6943 7.06661C9.76388 7.06661 9.2465 7.6735 9.00562 8.25824C8.91537 8.46812 8.92937 8.76055 8.92937 9.05299V14.3157H5.42613C5.42613 14.3157 5.47125 5.40096 5.42613 4.59059H8.92937V6.11685C9.13637 5.44956 10.2557 4.49709 12.0422 4.49709C14.2586 4.49709 15.9999 5.89589 15.9999 8.90818L16 14.3158Z" fill="white"/>
</svg>
