<svg width="20" height="20" viewBox="0 0 20 20" fill="none" xmlns="http://www.w3.org/2000/svg">
    <path d="M16.0812 6.60005V10.8917C16.0812 13.4584 14.6145 14.5584 12.4145 14.5584H5.08951C4.71451 14.5584 4.35618 14.5251 4.02285 14.4501C3.81451 14.4168 3.61452 14.3584 3.43119 14.2917C2.18119 13.8251 1.42285 12.7417 1.42285 10.8917V6.60005C1.42285 4.03338 2.88951 2.93341 5.08951 2.93341H12.4145C14.2812 2.93341 15.6229 3.72507 15.9812 5.53341C16.0395 5.86674 16.0812 6.20838 16.0812 6.60005Z" stroke="#930043" stroke-width="1.5" stroke-miterlimit="10" stroke-linecap="round" stroke-linejoin="round"/>
    <path d="M18.5842 9.10015V13.3918C18.5842 15.9585 17.1176 17.0585 14.9176 17.0585H7.59254C6.97588 17.0585 6.41755 16.9752 5.93422 16.7918C4.94255 16.4252 4.26755 15.6669 4.02588 14.4502C4.35921 14.5252 4.71754 14.5585 5.09254 14.5585H12.4176C14.6176 14.5585 16.0842 13.4585 16.0842 10.8918V6.60015C16.0842 6.20848 16.0509 5.85851 15.9842 5.53351C17.5676 5.86684 18.5842 6.98348 18.5842 9.10015Z" stroke="#930043" stroke-width="1.5" stroke-miterlimit="10" stroke-linecap="round" stroke-linejoin="round"/>
    <path d="M8.74884 10.9498C9.96387 10.9498 10.9489 9.96484 10.9489 8.74982C10.9489 7.53479 9.96387 6.5498 8.74884 6.5498C7.53381 6.5498 6.54883 7.53479 6.54883 8.74982C6.54883 9.96484 7.53381 10.9498 8.74884 10.9498Z" stroke="#930043" stroke-width="1.5" stroke-miterlimit="10" stroke-linecap="round" stroke-linejoin="round"/>
    <path d="M3.98145 6.91669V10.5834" stroke="#930043" stroke-width="1.5" stroke-miterlimit="10" stroke-linecap="round" stroke-linejoin="round"/>
    <path d="M13.5166 6.91687V10.5836" stroke="#930043" stroke-width="1.5" stroke-miterlimit="10" stroke-linecap="round" stroke-linejoin="round"/>
    </svg>
    