<svg width="25" height="26" viewBox="0 0 25 26" fill="none" xmlns="http://www.w3.org/2000/svg">
    <path d="M12.5 23.5197C10.3368 23.5197 8.22212 22.8782 6.42346 21.6764C4.62479 20.4745 3.22291 18.7663 2.39507 16.7678C1.56724 14.7692 1.35064 12.57 1.77267 10.4484C2.19469 8.32669 3.23639 6.37781 4.76602 4.84818C6.29566 3.31854 8.24454 2.27685 10.3662 1.85482C12.4879 1.43279 14.687 1.64939 16.6856 2.47723C18.6842 3.30506 20.3924 4.70695 21.5942 6.50561C22.796 8.30427 23.4375 10.4189 23.4375 12.5822C23.4343 15.482 22.2809 18.2621 20.2304 20.3126C18.1799 22.363 15.3998 23.5164 12.5 23.5197ZM12.5 2.42591C10.4913 2.42591 8.52768 3.02156 6.85749 4.13755C5.18731 5.25353 3.88556 6.83972 3.11685 8.69553C2.34815 10.5513 2.14702 12.5934 2.5389 14.5635C2.93079 16.5337 3.89807 18.3433 5.31845 19.7637C6.73883 21.1841 8.5485 22.1514 10.5186 22.5433C12.4887 22.9351 14.5308 22.734 16.3866 21.9653C18.2424 21.1966 19.8286 19.8949 20.9446 18.2247C22.0606 16.5545 22.6563 14.5909 22.6563 12.5822C22.6532 9.88951 21.5821 7.30802 19.6781 5.40403C17.7741 3.50004 15.1927 2.42901 12.5 2.42591Z" fill="black"/>
    <path d="M20.4592 11.0196H17.1874C17.1267 11.0196 17.0669 11.0055 17.0127 10.9784C16.9584 10.9513 16.9112 10.9119 16.8749 10.8634L16.1717 9.92589C16.0622 9.78071 15.9206 9.66284 15.758 9.58152C15.5953 9.50019 15.4161 9.45762 15.2342 9.45714H9.76548C9.58363 9.45758 9.40436 9.50013 9.2417 9.58146C9.07905 9.66278 8.93745 9.78068 8.82798 9.92589L8.12486 10.8634C8.08847 10.9119 8.04129 10.9513 7.98705 10.9784C7.93281 11.0055 7.873 11.0196 7.81236 11.0196H4.54048C4.48129 11.0196 4.42286 11.0062 4.36963 10.9803C4.3164 10.9544 4.26975 10.9167 4.23321 10.8701C4.19667 10.8236 4.17119 10.7693 4.1587 10.7114C4.14621 10.6536 4.14703 10.5936 4.16111 10.5361C4.61711 8.66859 5.68681 7.00818 7.1988 5.82095C8.71079 4.63372 10.5776 3.9884 12.5 3.9884C14.4224 3.9884 16.2891 4.63372 17.8011 5.82095C19.3131 7.00818 20.3828 8.66859 20.8388 10.5361C20.8529 10.5936 20.8537 10.6536 20.8412 10.7115C20.8287 10.7694 20.8032 10.8236 20.7666 10.8702C20.7301 10.9168 20.6834 10.9545 20.6301 10.9803C20.5769 11.0062 20.5184 11.0197 20.4592 11.0196ZM17.3827 10.2384H19.9452C19.4482 8.65281 18.4581 7.26729 17.1189 6.2836C15.7797 5.29992 14.1615 4.76945 12.4999 4.76945C10.8382 4.76945 9.21999 5.29992 7.88082 6.2836C6.54165 7.26729 5.55149 8.65281 5.05455 10.2384H7.61705L8.20298 9.45714C8.3854 9.21509 8.62141 9.01859 8.8925 8.88305C9.16359 8.7475 9.4624 8.6766 9.76548 8.67589H15.2342C15.5373 8.67662 15.8361 8.74753 16.1072 8.88308C16.3783 9.01862 16.6143 9.21511 16.7967 9.45714L17.3827 10.2384Z" fill="black"/>
    <path d="M10.9375 21.0248C10.9126 21.0249 10.8877 21.0225 10.8632 21.0178C9.11273 20.6777 7.51159 19.8009 6.28227 18.5091C5.05294 17.2173 4.25646 15.5747 4.00348 13.8095C3.99552 13.7541 3.99957 13.6976 4.01535 13.6439C4.03113 13.5902 4.05828 13.5405 4.09494 13.4982C4.13161 13.4559 4.17694 13.422 4.22787 13.3987C4.2788 13.3754 4.33413 13.3634 4.39012 13.3634H4.68746C6.44806 13.3654 8.13599 14.0656 9.38092 15.3106C10.6259 16.5555 11.3261 18.2434 11.3281 20.004V20.6342C11.3281 20.7378 11.2869 20.8372 11.2137 20.9104C11.1404 20.9837 11.0411 21.0248 10.9375 21.0248ZM4.85434 14.147C5.14589 15.5798 5.83412 16.9019 6.84058 17.9626C7.84704 19.0233 9.13125 19.7799 10.5468 20.1461V20.004C10.545 18.4795 9.94983 17.0155 8.88726 15.9222C7.82469 14.8289 6.37824 14.1922 4.85434 14.147Z" fill="black"/>
    <path d="M14.0625 21.0248C14.0112 21.0249 13.9604 21.0148 13.913 20.9952C13.8656 20.9756 13.8225 20.9468 13.7862 20.9105C13.7499 20.8742 13.7212 20.8312 13.7015 20.7838C13.6819 20.7363 13.6718 20.6855 13.6719 20.6342V20.004C13.6738 18.2434 14.3741 16.5555 15.619 15.3106C16.864 14.0656 18.5519 13.3654 20.3125 13.3634H20.61C20.666 13.3634 20.7213 13.3755 20.7723 13.3987C20.8232 13.422 20.8685 13.4559 20.9052 13.4982C20.9419 13.5405 20.969 13.5902 20.9848 13.6439C21.0006 13.6976 21.0047 13.7541 20.9968 13.8095C20.7436 15.5747 19.9471 17.2173 18.7177 18.509C17.4884 19.8008 15.8872 20.6776 14.1367 21.0178C14.1123 21.0225 14.0874 21.0249 14.0625 21.0248ZM20.1458 14.147C18.6219 14.1922 17.1754 14.8289 16.1128 15.9222C15.0502 17.0154 14.455 18.4794 14.4531 20.004V20.1461C15.8687 19.7798 17.1529 19.0232 18.1594 17.9625C19.1659 16.9019 19.8541 15.5798 20.1458 14.147Z" fill="black"/>
    <path d="M12.5 15.7072C12.0365 15.7072 11.5833 15.5697 11.1979 15.3122C10.8125 15.0546 10.5121 14.6886 10.3347 14.2603C10.1573 13.8321 10.1109 13.3608 10.2013 12.9062C10.2917 12.4515 10.5149 12.0339 10.8427 11.7061C11.1705 11.3783 11.5881 11.1551 12.0428 11.0647C12.4974 10.9743 12.9687 11.0207 13.3969 11.1981C13.8252 11.3755 14.1912 11.6759 14.4488 12.0613C14.7063 12.4467 14.8438 12.8999 14.8438 13.3634C14.8431 13.9848 14.5959 14.5805 14.1565 15.0199C13.7171 15.4593 13.1214 15.7065 12.5 15.7072ZM12.5 11.8009C12.191 11.8009 11.8889 11.8925 11.6319 12.0642C11.375 12.2359 11.1747 12.48 11.0564 12.7655C10.9382 13.051 10.9072 13.3651 10.9675 13.6682C11.0278 13.9713 11.1766 14.2497 11.3951 14.4683C11.6137 14.6868 11.8921 14.8356 12.1952 14.8959C12.4983 14.9562 12.8124 14.9252 13.0979 14.807C13.3835 14.6887 13.6275 14.4884 13.7992 14.2315C13.9709 13.9745 14.0625 13.6724 14.0625 13.3634C14.062 12.9491 13.8973 12.552 13.6043 12.2591C13.3114 11.9661 12.9143 11.8014 12.5 11.8009Z" fill="black"/>
    </svg>
    