<svg width="20" height="20" viewBox="0 0 20 20" fill="none" xmlns="http://www.w3.org/2000/svg">
    <path d="M3.47532 12.75L7.25032 16.525C8.80032 18.075 11.317 18.075 12.8753 16.525L16.5337 12.8667C18.0837 11.3167 18.0837 8.80004 16.5337 7.24171L12.7503 3.47504C11.9587 2.68337 10.867 2.25837 9.75032 2.31671L5.58365 2.51671C3.91698 2.59171 2.59198 3.91671 2.50865 5.57504L2.30865 9.74171C2.25865 10.8667 2.68365 11.9584 3.47532 12.75Z" stroke="#930043" stroke-width="1.5" stroke-linecap="round" stroke-linejoin="round"/>
    <path d="M7.91634 10C9.06693 10 9.99967 9.0673 9.99967 7.91671C9.99967 6.76611 9.06693 5.83337 7.91634 5.83337C6.76575 5.83337 5.83301 6.76611 5.83301 7.91671C5.83301 9.0673 6.76575 10 7.91634 10Z" stroke="#930043" stroke-width="1.5" stroke-linecap="round"/>
    </svg>
    