<svg width="22" height="22" viewBox="0 0 22 22" fill="none" xmlns="http://www.w3.org/2000/svg">
    <path d="M11.1098 11.7153C11.0457 11.7062 10.9632 11.7062 10.8898 11.7153C9.2765 11.6603 7.99316 10.3403 7.99316 8.71785C7.99316 7.05868 9.3315 5.71118 10.9998 5.71118C12.659 5.71118 14.0065 7.05868 14.0065 8.71785C13.9973 10.3403 12.7232 11.6603 11.1098 11.7153Z" stroke="white" stroke-width="1.5" stroke-linecap="round" stroke-linejoin="round"/>
    <path d="M17.1789 17.7647C15.5473 19.2589 13.3839 20.1664 11.0006 20.1664C8.61727 20.1664 6.45393 19.2589 4.82227 17.7647C4.91393 16.903 5.46393 16.0597 6.44477 15.3997C8.95643 13.7314 13.0631 13.7314 15.5564 15.3997C16.5373 16.0597 17.0873 16.903 17.1789 17.7647Z" stroke="white" stroke-width="1.5" stroke-linecap="round" stroke-linejoin="round"/>
    <path d="M11.0007 20.1668C16.0633 20.1668 20.1673 16.0628 20.1673 11.0002C20.1673 5.93755 16.0633 1.8335 11.0007 1.8335C5.93804 1.8335 1.83398 5.93755 1.83398 11.0002C1.83398 16.0628 5.93804 20.1668 11.0007 20.1668Z" stroke="white" stroke-width="1.5" stroke-linecap="round" stroke-linejoin="round"/>
    </svg>
    