<svg width="2585" height="1195" viewBox="0 0 2585 1195" fill="none" xmlns="http://www.w3.org/2000/svg">
    <path d="M1175.48 1113.02C1136.52 1064.25 1114.4 991.29 1109.13 894.18C1103.89 797.62 1117.99 722.98 1151.45 670.27C1184.91 617.56 1235.92 589.34 1304.51 585.61C1373.09 581.89 1426.87 604.43 1465.83 653.2C1504.79 701.99 1526.9 774.66 1532.14 871.22C1537.38 967.79 1523.28 1042.55 1489.84 1095.54C1456.4 1148.53 1405.38 1176.88 1336.81 1180.61C1268.21 1184.34 1214.45 1161.82 1175.48 1113.02Z" fill="white"/>
    <path d="M1175.48 1113.02C1136.52 1064.25 1114.4 991.29 1109.13 894.18C1103.89 797.62 1117.99 722.98 1151.45 670.27C1184.91 617.56 1235.92 589.34 1304.51 585.61C1373.09 581.89 1426.87 604.43 1465.83 653.2C1504.79 701.99 1526.9 774.66 1532.14 871.22C1537.38 967.79 1523.28 1042.55 1489.84 1095.54C1456.4 1148.53 1405.38 1176.88 1336.81 1180.61C1268.21 1184.34 1214.45 1161.82 1175.48 1113.02Z" stroke="#930043" stroke-width="10" stroke-miterlimit="10"/>
    <path d="M1410.97 1041.64C1426.11 1006.44 1431.67 951.52 1427.62 876.9C1423.54 801.74 1412.07 747.75 1393.24 714.93C1374.4 682.11 1346.32 666.72 1309.02 668.74C1271.71 670.77 1245.47 689.25 1230.32 724.18C1215.15 759.13 1209.6 813.9 1213.65 888.51C1217.7 963.13 1229.15 1017.12 1248.03 1050.48C1266.89 1083.85 1294.98 1099.52 1332.29 1097.49C1369.59 1095.47 1395.82 1076.86 1410.97 1041.64Z" fill="#FFF3F9"/>
    <path d="M1410.97 1041.64C1426.11 1006.44 1431.67 951.52 1427.62 876.9C1423.54 801.74 1412.07 747.75 1393.24 714.93C1374.4 682.11 1346.32 666.72 1309.02 668.74C1271.71 670.77 1245.47 689.25 1230.32 724.18C1215.15 759.13 1209.6 813.9 1213.65 888.51C1217.7 963.13 1229.15 1017.12 1248.03 1050.48C1266.89 1083.85 1294.98 1099.52 1332.29 1097.49C1369.59 1095.47 1395.82 1076.86 1410.97 1041.64Z" stroke="#930043" stroke-width="10" stroke-miterlimit="10"/>
    <path d="M1648.39 885.72H966.441V894.81H1648.39V885.72Z" fill="#930043"/>
    <path d="M2105.91 894.84H2022.7C2022.29 894.84 2021.95 894.5 2021.95 894.09V888.77C2021.95 888.36 2022.29 888.02 2022.7 888.02H2105.91C2106.32 888.02 2106.66 888.36 2106.66 888.77V894.09C2106.66 894.5 2106.32 894.84 2105.91 894.84Z" fill="#930043"/>
    <path d="M591.421 894.84H508.211C507.801 894.84 507.461 894.5 507.461 894.09V888.77C507.461 888.36 507.801 888.02 508.211 888.02H591.421C591.831 888.02 592.171 888.36 592.171 888.77V894.09C592.171 894.5 591.831 894.84 591.421 894.84Z" fill="#930043"/>
    <path d="M2033.06 1033.87H1949.35C1949.07 1033.87 1948.85 1033.65 1948.85 1033.37V1029.82C1948.85 1029.54 1949.07 1029.32 1949.35 1029.32H2033.06C2033.34 1029.32 2033.56 1029.54 2033.56 1029.82V1033.37C2033.56 1033.65 2033.34 1033.87 2033.06 1033.87Z" fill="#FFEFF6"/>
    <path d="M858.181 304.66C874.071 304.66 887.881 293.12 890.031 277.38C890.411 274.56 890.611 271.67 890.611 268.75C890.611 233.7 862.201 205.29 827.151 205.29C825.711 205.29 824.291 205.36 822.871 205.45C819.971 170.89 791.021 143.74 755.711 143.74C718.481 143.74 688.291 173.92 688.291 211.16C688.291 212.81 688.371 214.44 688.491 216.07C677.921 210.17 665.611 207.01 652.511 207.61C618.651 209.16 590.821 236.25 588.431 270.06C588.411 270.33 588.391 270.6 588.381 270.86C587.291 289.25 602.161 304.67 620.581 304.67H858.181V304.66Z" fill="#FFF3F9"/>
    <path d="M2516.95 460.28C2567.13 460.28 2569.91 384.76 2519.79 382.32C2518.42 382.25 2517.04 382.22 2515.66 382.22C2506.71 382.22 2498.1 383.64 2490.02 386.24C2483.31 345.36 2447.84 314.17 2405.06 314.17C2361.34 314.17 2325.26 346.76 2319.71 388.96C2309.34 383.99 2297.72 381.2 2285.45 381.2C2278.6 381.2 2271.94 382.07 2265.6 383.7C2221.72 395 2230.93 460.29 2276.24 460.29H2516.95V460.28Z" fill="#FFF3F9"/>
    <path d="M2079.13 146.43C2129.3 146.43 2132.07 70.9301 2081.97 68.4901C2080.6 68.4201 2079.22 68.3901 2077.84 68.3901C2068.9 68.3901 2060.28 69.8101 2052.2 72.4001C2045.49 31.5301 2010.03 0.350098 1967.27 0.350098C1923.56 0.350098 1887.49 32.9301 1881.94 75.1201C1871.57 70.1501 1859.95 67.3601 1847.69 67.3601C1840.84 67.3601 1834.19 68.2301 1827.84 69.8601C1783.97 81.1601 1793.18 146.42 1838.48 146.42H2079.13V146.43Z" fill="#FFF3F9"/>
    <path d="M2128.9 317.694C2129.92 280.297 2115.35 249.564 2096.36 249.049C2077.38 248.534 2061.17 278.433 2060.15 315.83C2059.14 353.227 2073.71 383.96 2092.69 384.475C2111.68 384.99 2127.89 355.091 2128.9 317.694Z" fill="#FFF3F9"/>
    <path d="M2263.96 132.153C2264.42 115.232 1758.26 87.7826 1133.43 70.8427C508.59 53.9029 1.68779 53.8873 1.22905 70.808C0.770317 87.7288 506.929 115.178 1131.77 132.118C1756.6 149.058 2263.5 149.073 2263.96 132.153Z" fill="#FFF3F9"/>
    <path d="M898.688 499.214C899.497 469.347 888.213 444.812 873.484 444.413C858.755 444.013 846.159 467.901 845.349 497.768C844.539 527.635 855.823 552.17 870.552 552.569C885.281 552.969 897.878 529.081 898.688 499.214Z" fill="#FFF3F9"/>
    <path d="M599.22 428.777C600.353 386.991 588.552 352.773 572.863 352.347C557.173 351.922 543.536 385.451 542.403 427.237C541.27 469.022 553.071 503.241 568.76 503.667C584.45 504.092 598.087 470.563 599.22 428.777Z" fill="#FFF3F9"/>
    <path d="M2434.7 636.546C2435.92 591.685 2422.08 554.917 2403.81 554.421C2385.53 553.926 2369.72 589.891 2368.51 634.751C2367.29 679.612 2381.12 716.381 2399.4 716.876C2417.68 717.372 2433.48 681.407 2434.7 636.546Z" fill="#FFF3F9"/>
    <path d="M1190.4 514.78L1430.73 444.2C1435.23 442.88 1437.81 438.16 1436.48 433.66L1338.39 99.6403C1337.07 95.1403 1332.35 92.5603 1327.85 93.8903L1163.3 142.21C1161.2 142.83 1159.41 144.23 1158.32 146.14L1103.9 241.16C1102.75 243.17 1102.47 245.55 1103.12 247.77L1179.84 509.03C1181.18 513.52 1185.9 516.1 1190.4 514.78Z" fill="white"/>
    <path d="M1190.4 514.78L1430.73 444.2C1435.23 442.88 1437.81 438.16 1436.48 433.66L1338.39 99.6403C1337.07 95.1403 1332.35 92.5603 1327.85 93.8903L1163.3 142.21C1161.2 142.83 1159.41 144.23 1158.32 146.14L1103.9 241.16C1102.75 243.17 1102.47 245.55 1103.12 247.77L1179.84 509.03C1181.18 513.52 1185.9 516.1 1190.4 514.78Z" stroke="#930043" stroke-width="8" stroke-miterlimit="10" stroke-linecap="round" stroke-linejoin="round"/>
    <path d="M1162.16 147.39L1182.22 215.72C1183.63 220.52 1180.89 225.56 1176.1 227L1104.68 248.31" fill="white"/>
    <path d="M1162.16 147.39L1182.22 215.72C1183.63 220.52 1180.89 225.56 1176.1 227L1104.68 248.31" stroke="#930043" stroke-width="8" stroke-miterlimit="10" stroke-linecap="round" stroke-linejoin="round"/>
    <path d="M1227.01 460.22L1213.4 464.22C1212.34 464.53 1211.23 463.92 1210.92 462.86L1194.11 405.63C1193.8 404.57 1194.41 403.46 1195.47 403.15L1209.08 399.15C1210.14 398.84 1211.25 399.45 1211.56 400.51L1228.37 457.74C1228.68 458.8 1228.07 459.91 1227.01 460.22Z" fill="#EB8DB8"/>
    <path d="M1296.8 439.73L1283.19 443.73C1282.13 444.04 1281.02 443.43 1280.71 442.37L1269.03 402.59C1268.72 401.53 1269.33 400.42 1270.39 400.11L1284 396.11C1285.06 395.8 1286.17 396.41 1286.48 397.47L1298.16 437.25C1298.47 438.3 1297.86 439.42 1296.8 439.73Z" fill="#EB8DB8"/>
    <path d="M1331.7 429.48L1318.09 433.48C1317.03 433.79 1315.92 433.18 1315.61 432.12L1298.8 374.89C1298.49 373.83 1299.1 372.72 1300.16 372.41L1313.77 368.41C1314.83 368.1 1315.94 368.71 1316.25 369.77L1333.06 427C1333.37 428.06 1332.76 429.17 1331.7 429.48Z" fill="#EB8DB8"/>
    <path d="M1261.91 449.98L1248.3 453.98C1247.24 454.29 1246.13 453.68 1245.82 452.62L1223.89 377.94C1223.58 376.88 1224.19 375.77 1225.25 375.46L1238.86 371.46C1239.92 371.15 1241.03 371.76 1241.34 372.82L1263.27 447.5C1263.57 448.55 1262.97 449.66 1261.91 449.98Z" fill="#EB8DB8"/>
    <path d="M1158.35 283.86L1319.75 236.46" stroke="#EB8DB8" stroke-width="6" stroke-miterlimit="10" stroke-linecap="round" stroke-linejoin="round"/>
    <path d="M1166.04 310.03L1327.44 262.64" stroke="#EB8DB8" stroke-width="6" stroke-miterlimit="10" stroke-linecap="round" stroke-linejoin="round"/>
    <path d="M1173.72 336.2L1335.12 288.81" stroke="#EB8DB8" stroke-width="6" stroke-miterlimit="10" stroke-linecap="round" stroke-linejoin="round"/>
    <path d="M1518.24 424.63L1524.23 411.9C1525.37 409.47 1524.18 406.59 1521.65 405.69L1441.21 376.8L1437.68 383.17L1511.82 426.63C1514.13 427.97 1517.1 427.05 1518.24 424.63Z" fill="#930043"/>
    <path d="M1380.85 422.74C1416.85 422.74 1446.02 393.563 1446.02 357.57C1446.02 321.578 1416.85 292.4 1380.85 292.4C1344.86 292.4 1315.68 321.578 1315.68 357.57C1315.68 393.563 1344.86 422.74 1380.85 422.74Z" fill="#EB8DB8"/>
    <path d="M1380.85 409.15C1409.34 409.15 1432.43 386.057 1432.43 357.57C1432.43 329.083 1409.34 305.99 1380.85 305.99C1352.37 305.99 1329.27 329.083 1329.27 357.57C1329.27 386.057 1352.37 409.15 1380.85 409.15Z" fill="white"/>
    <path d="M1380.85 422.74C1416.85 422.74 1446.02 393.563 1446.02 357.57C1446.02 321.578 1416.85 292.4 1380.85 292.4C1344.86 292.4 1315.68 321.578 1315.68 357.57C1315.68 393.563 1344.86 422.74 1380.85 422.74Z" stroke="#930043" stroke-width="8" stroke-linecap="round" stroke-linejoin="round"/>
    <path d="M1381.16 332.561L1380.77 364.381" stroke="#930043" stroke-width="8" stroke-linecap="round" stroke-linejoin="round"/>
    <circle cx="1380.54" cy="382.57" r="4" fill="#930043"/>
    <path d="M1380.54 382.591C1380.55 382.591 1380.56 382.582 1380.56 382.571C1380.56 382.56 1380.55 382.551 1380.54 382.551C1380.53 382.551 1380.52 382.56 1380.52 382.571C1380.52 382.582 1380.53 382.591 1380.54 382.591Z" stroke="#930043" stroke-width="8" stroke-linecap="round" stroke-linejoin="round"/>
    <path d="M2073.07 877.91L2008.96 890.79L2034.72 1019.02L1897.45 1046.6L1871.69 918.37L1620.17 968.91L1600.19 869.45L1753.91 476.83L1919.12 443.63L1985.18 772.42L2049.29 759.54L2073.07 877.91ZM1812.06 621.64L1739.4 821.8L1847.9 800L1812.06 621.64Z" fill="#930043"/>
    <path d="M1015.15 944.3L950.65 933.55L929.151 1062.56L791.041 1039.54L812.541 910.53L559.48 868.35L576.161 768.28L859.411 455.96L1025.63 483.67L970.49 814.47L1034.99 825.22L1015.15 944.3ZM862.301 611.98L723.23 773.24L832.391 791.43L862.301 611.98Z" fill="#930043"/>
    <path d="M2584.36 894.83H220.273V1194.83H2584.36V894.83Z" fill="white"/>
    <path d="M617.581 1040.11H533.871C533.591 1040.11 533.371 1039.89 533.371 1039.61V1036.06C533.371 1035.78 533.591 1035.56 533.871 1035.56H617.581C617.861 1035.56 618.081 1035.78 618.081 1036.06V1039.61C618.081 1039.89 617.851 1040.11 617.581 1040.11Z" fill="#EB8DB8"/>
    <path d="M847.44 1040.11H763.73C763.45 1040.11 763.23 1039.89 763.23 1039.61V1036.06C763.23 1035.78 763.45 1035.56 763.73 1035.56H847.44C847.72 1035.56 847.94 1035.78 847.94 1036.06V1039.61C847.94 1039.89 847.71 1040.11 847.44 1040.11Z" fill="#EB8DB8"/>
    <path d="M1056.64 986.12H972.93C972.65 986.12 972.43 985.9 972.43 985.62V982.07C972.43 981.79 972.65 981.57 972.93 981.57H1056.64C1056.92 981.57 1057.14 981.79 1057.14 982.07V985.62C1057.14 985.9 1056.91 986.12 1056.64 986.12Z" fill="#EB8DB8"/>
    <path d="M1175.62 1045.82H1091.91C1091.63 1045.82 1091.41 1045.6 1091.41 1045.32V1041.77C1091.41 1041.49 1091.63 1041.27 1091.91 1041.27H1175.62C1175.9 1041.27 1176.12 1041.49 1176.12 1041.77V1045.32C1176.12 1045.6 1175.89 1045.82 1175.62 1045.82Z" fill="#EB8DB8"/>
    <path d="M1469.18 1045.82H1385.47C1385.19 1045.82 1384.97 1045.6 1384.97 1045.32V1041.77C1384.97 1041.49 1385.19 1041.27 1385.47 1041.27H1469.18C1469.46 1041.27 1469.68 1041.49 1469.68 1041.77V1045.32C1469.68 1045.6 1469.45 1045.82 1469.18 1045.82Z" fill="#EB8DB8"/>
    <path d="M1797.6 1042.45H1713.89C1713.61 1042.45 1713.39 1042.23 1713.39 1041.95V1038.4C1713.39 1038.12 1713.61 1037.9 1713.89 1037.9H1797.6C1797.88 1037.9 1798.1 1038.12 1798.1 1038.4V1041.95C1798.1 1042.23 1797.88 1042.45 1797.6 1042.45Z" fill="#EB8DB8"/>
    <path d="M754.28 977.37H670.57C670.29 977.37 670.07 977.15 670.07 976.87V973.32C670.07 973.04 670.29 972.82 670.57 972.82H754.28C754.56 972.82 754.78 973.04 754.78 973.32V976.87C754.78 977.15 754.56 977.37 754.28 977.37Z" fill="#EB8DB8"/>
    <path d="M1338.77 975.16H1255.06C1254.78 975.16 1254.56 974.94 1254.56 974.66V971.11C1254.56 970.83 1254.78 970.61 1255.06 970.61H1338.77C1339.05 970.61 1339.27 970.83 1339.27 971.11V974.66C1339.27 974.93 1339.05 975.16 1338.77 975.16Z" fill="#EB8DB8"/>
    <path d="M1934.29 974.8H1850.58C1850.3 974.8 1850.08 974.58 1850.08 974.3V970.75C1850.08 970.47 1850.3 970.25 1850.58 970.25H1934.29C1934.57 970.25 1934.79 970.47 1934.79 970.75V974.3C1934.79 974.58 1934.56 974.8 1934.29 974.8Z" fill="#EB8DB8"/>
    <path d="M1641.17 953.63H1557.46C1557.18 953.63 1556.96 953.41 1556.96 953.13V949.58C1556.96 949.3 1557.18 949.08 1557.46 949.08H1641.17C1641.45 949.08 1641.67 949.3 1641.67 949.58V953.13C1641.67 953.41 1641.45 953.63 1641.17 953.63Z" fill="#EB8DB8"/>
    </svg>
    