<svg width="132" height="96" viewBox="0 0 132 96" fill="none" xmlns="http://www.w3.org/2000/svg">
    <path d="M43.1113 83.6049C43.1042 83.6037 43.0971 83.602 43.09 83.6008C42.1429 83.4004 41.1972 83.1545 40.279 82.8695C39.9964 82.782 39.839 82.4823 39.9269 82.2003C40.015 81.9179 40.316 81.7587 40.5979 81.8483C41.4849 82.1231 42.3982 82.361 43.3135 82.5547C43.6029 82.6157 43.7873 82.8996 43.7258 83.1887C43.6656 83.4703 43.3934 83.653 43.1113 83.6049ZM45.9272 84.0716C45.6476 84.0239 45.4521 83.7645 45.4868 83.4799C45.5227 83.1864 45.7898 82.9773 46.0836 83.0131C47.0014 83.1242 47.9443 83.1981 48.8859 83.232C49.1823 83.2419 49.4121 83.4907 49.4011 83.7859C49.39 84.0814 49.1412 84.3118 48.8457 84.3012C47.8741 84.2661 46.9009 84.19 45.9533 84.0756C45.9449 84.0742 45.936 84.0731 45.9272 84.0716ZM37.6644 81.9136C37.6253 81.9069 37.5861 81.8955 37.5481 81.8799C36.6589 81.5095 35.7758 81.0918 34.9226 80.6377C34.6618 80.4989 34.5631 80.1747 34.7024 79.914C34.8417 79.6533 35.1669 79.5544 35.4273 79.6935C36.2506 80.1318 37.1034 80.5352 37.9615 80.8925C38.2344 81.0065 38.3632 81.3194 38.2486 81.5921C38.1508 81.8262 37.9045 81.9545 37.6644 81.9136ZM51.6315 84.2842C51.3881 84.2427 51.1982 84.0361 51.1874 83.7796C51.1751 83.4844 51.405 83.2352 51.7006 83.2225C52.6289 83.1828 53.5742 83.1071 54.5094 82.9967C54.8031 82.9625 55.0696 83.1718 55.1034 83.4655C55.1377 83.7588 54.9274 84.0247 54.6332 84.0593C53.6714 84.1729 52.6998 84.2506 51.7445 84.2913C51.7062 84.2926 51.6681 84.2904 51.6315 84.2842ZM57.3058 83.6214C57.0918 83.5849 56.913 83.4195 56.8701 83.1939C56.8154 82.9036 57.0065 82.6236 57.2973 82.5685C58.2154 82.3944 59.1412 82.1856 60.0504 81.9477C60.3364 81.8724 60.6293 82.0438 60.7039 82.3293C60.7784 82.6152 60.6068 82.9076 60.3204 82.9824C59.3881 83.2264 58.4375 83.4408 57.4962 83.6193C57.4308 83.6319 57.3668 83.6318 57.3058 83.6214ZM32.6249 79.2416C32.5555 79.2298 32.4873 79.2039 32.4245 79.1638C31.6328 78.6523 30.8353 78.0939 30.0532 77.504C29.8172 77.3263 29.7707 76.9907 29.949 76.7548C30.1276 76.5194 30.4639 76.4717 30.6993 76.6502C31.4608 77.224 32.2375 77.7675 33.0074 78.265C33.2555 78.4253 33.326 78.7568 33.1651 79.0048C33.0449 79.19 32.8296 79.2765 32.6249 79.2416ZM62.8342 82.1733C62.6466 82.1413 62.4818 82.0103 62.4168 81.8177C62.3222 81.5378 62.4728 81.2341 62.7531 81.1392C63.5647 80.8647 64.3424 80.5711 65.0644 80.2666C65.3364 80.1522 65.6509 80.2788 65.7658 80.5513C65.8804 80.8233 65.7522 81.1374 65.4797 81.2522C64.7335 81.5668 63.9312 81.8697 63.0952 82.1525C63.0083 82.1822 62.9191 82.1878 62.8342 82.1733ZM28.0654 75.8085C27.9721 75.7926 27.8817 75.7517 27.8053 75.6855C27.0729 75.0505 26.3604 74.3882 25.687 73.7174C25.4776 73.5088 25.4775 73.1703 25.6867 72.9608C25.8958 72.7518 26.2347 72.7516 26.4443 72.9594C27.1003 73.613 27.7946 74.2579 28.5086 74.8768C28.7318 75.0705 28.7554 75.4083 28.5611 75.6315C28.4337 75.7784 28.2437 75.8389 28.0654 75.8085ZM24.0268 71.7764C23.9086 71.7563 23.7964 71.6965 23.712 71.5987C23.0979 70.8879 22.5175 70.1595 21.9853 69.4328C21.9395 69.3874 21.9024 69.3339 21.8759 69.2767C21.7447 69.0433 21.8073 68.7432 22.0294 68.5821C22.2352 68.4326 22.5115 68.4512 22.6952 68.6109C23.5174 68.9483 24.3603 69.2407 25.2032 69.4826C25.4874 69.5639 25.6514 69.8603 25.5696 70.1442C25.4877 70.4285 25.1931 70.5936 24.9066 70.511C24.5865 70.4193 24.2664 70.3206 23.9474 70.2152C24.1359 70.4449 24.328 70.6735 24.524 70.9002C24.717 71.1237 24.6917 71.4614 24.4675 71.6549C24.3412 71.7626 24.179 71.8024 24.0268 71.7764ZM27.7492 71.1461C27.4599 71.0968 27.2642 70.8235 27.3116 70.5333C27.3593 70.2418 27.6345 70.0436 27.9264 70.0904C28.6628 70.2095 29.4126 70.2936 30.1559 70.3404C30.3083 70.35 30.4877 70.3611 30.7108 70.3723C31.005 70.3831 31.2333 70.6382 31.2184 70.9331C31.203 71.2284 30.9513 71.4556 30.6557 71.4407C30.4274 71.4294 30.2433 71.4179 30.1092 71.4098C29.3095 71.359 28.5245 71.271 27.7542 71.147C27.7526 71.1467 27.7509 71.1464 27.7492 71.1461ZM33.455 71.448C33.2108 71.4064 33.0207 71.1985 33.0113 70.9414C33.0003 70.6464 33.2309 70.3978 33.5268 70.3864C34.4796 70.35 35.4223 70.2712 36.3287 70.1526C36.6229 70.1154 36.8909 70.321 36.9287 70.6137C36.9669 70.9068 36.7597 71.175 36.4662 71.2135C35.5276 71.3358 34.5518 71.4176 33.5663 71.4553C33.5284 71.4571 33.4912 71.4542 33.455 71.448ZM19.7044 68.3358C19.6464 68.3259 19.5892 68.3062 19.5347 68.2761C18.6937 67.8094 17.8649 67.2872 17.071 66.7256C16.83 66.5543 16.7732 66.2209 16.9446 65.9795C17.116 65.7385 17.4503 65.6822 17.6915 65.8522C18.4532 66.3919 19.2485 66.8928 20.0559 67.3408C20.3143 67.4843 20.407 67.8101 20.263 68.0683C20.1495 68.272 19.9222 68.3729 19.7044 68.3358ZM39.1193 70.6954C38.9146 70.6605 38.7405 70.5076 38.6891 70.2935C38.62 70.0063 38.7975 69.7175 39.0851 69.6481C40.0193 69.423 40.9157 69.1466 41.7494 68.8266C42.0251 68.721 42.3352 68.8582 42.4413 69.1339C42.547 69.4096 42.4089 69.7189 42.1326 69.8253C41.2553 70.1621 40.3141 70.4525 39.3352 70.6885C39.2621 70.7054 39.1891 70.7073 39.1193 70.6954ZM20.6912 67.1582C20.5406 67.1325 20.402 67.0428 20.3191 66.9011C19.8146 66.0386 19.3692 65.1651 18.9951 64.305C18.8773 64.0341 19.0018 63.7186 19.273 63.601C19.5444 63.483 19.8598 63.6068 19.9776 63.8776C20.335 64.699 20.761 65.5347 21.244 66.361C21.3931 66.616 21.3068 66.9437 21.0512 67.0929C20.9387 67.1581 20.811 67.1786 20.6912 67.1582ZM15.0541 65.0454C14.9591 65.0292 14.8677 64.9872 14.7902 64.9191C14.0663 64.2804 13.3682 63.595 12.7151 62.8815C12.5155 62.6637 12.5306 62.3252 12.7493 62.126C12.9676 61.9263 13.3065 61.9413 13.5061 62.159C14.1342 62.8441 14.8053 63.5033 15.5011 64.1169C15.7227 64.3125 15.7432 64.6506 15.5471 64.8718C15.4193 65.016 15.2311 65.0756 15.0541 65.0454ZM44.4276 68.6253C44.2771 68.5996 44.1385 68.5098 44.0556 68.3681C43.9065 68.1132 43.9928 67.7855 44.2484 67.6363C45.0611 67.1618 45.8119 66.6223 46.4788 66.0326C46.7007 65.837 47.0395 65.8576 47.2347 66.0785C47.4304 66.2995 47.4098 66.6375 47.1877 66.834C46.4684 67.4692 45.6607 68.05 44.7878 68.5596C44.6751 68.6255 44.5475 68.6457 44.4276 68.6253ZM11.2074 60.8463C11.0758 60.8238 10.9522 60.7526 10.8666 60.6364C10.2913 59.8562 9.75366 59.0382 9.26959 58.2056C9.121 57.9503 9.20816 57.6227 9.46397 57.4744C9.71985 57.3257 10.0478 57.4118 10.1959 57.6675C10.661 58.4666 11.1771 59.2519 11.7296 60.0015C11.905 60.2389 11.8538 60.5739 11.6154 60.7494C11.4939 60.8389 11.3462 60.8699 11.2074 60.8463ZM18.4449 61.932C18.246 61.8981 18.075 61.7531 18.0186 61.5455C17.7547 60.5753 17.5765 59.6025 17.489 58.6538C17.4618 58.3595 17.6786 58.0986 17.9732 58.0714C18.2683 58.0422 18.5284 58.2603 18.5557 58.5542C18.6378 59.4415 18.8049 60.3527 19.0522 61.2634C19.1299 61.5486 18.961 61.8428 18.6754 61.9203C18.5982 61.9417 18.5198 61.9448 18.4449 61.932ZM48.661 64.8566C48.5824 64.8432 48.506 64.812 48.4371 64.7622C48.1979 64.5883 48.1451 64.2542 48.3196 64.015C48.8196 63.3286 49.2552 62.5789 49.6142 61.7867L49.6781 61.6441C49.7975 61.3735 50.1143 61.2503 50.3845 61.3699C50.6553 61.4887 50.7779 61.8044 50.6586 62.075L50.5909 62.2269C50.2014 63.0856 49.7289 63.8987 49.1859 64.6435C49.0614 64.8138 48.8557 64.8898 48.661 64.8566ZM8.34786 55.9245C8.17674 55.8953 8.02331 55.7835 7.94798 55.6129C7.5567 54.7265 7.21315 53.8094 6.92685 52.8864C6.83914 52.6043 6.99728 52.3044 7.27991 52.2164C7.56219 52.128 7.86258 52.286 7.94988 52.568C8.22432 53.4518 8.55363 54.331 8.92834 55.1804C9.04754 55.4506 8.92473 55.7665 8.654 55.8859C8.55417 55.9303 8.44792 55.9415 8.34786 55.9245ZM17.9465 56.2875C17.6707 56.2404 17.4751 55.9866 17.5051 55.7047C17.5375 55.4011 17.58 55.0945 17.632 54.7925C17.747 54.1252 17.9117 53.4585 18.1215 52.8108C18.2129 52.5294 18.513 52.3748 18.796 52.4654C19.0773 52.5561 19.2318 52.8575 19.1405 53.1385C18.9464 53.7378 18.7938 54.3547 18.6874 54.972C18.6393 55.2513 18.5999 55.5351 18.5702 55.8154C18.539 56.1096 18.2751 56.3223 17.9809 56.2916C17.9697 56.291 17.9583 56.2895 17.9465 56.2875ZM50.9544 59.6751C50.9464 59.6737 50.939 59.672 50.9314 59.6708C50.6422 59.6085 50.4588 59.3239 50.5216 59.035C50.5655 58.8328 50.6048 58.6298 50.6399 58.4261C50.7591 57.7349 50.83 57.0215 50.8506 56.3044C50.8591 56.0088 51.1056 55.7763 51.4016 55.7844C51.6971 55.7925 51.93 56.0384 51.9215 56.3339C51.8992 57.1009 51.8233 57.8653 51.6957 58.6057C51.658 58.8245 51.6157 59.0425 51.5687 59.2602C51.5073 59.5411 51.2357 59.7231 50.9544 59.6751ZM6.6592 50.489C6.4452 50.4525 6.26638 50.2871 6.22389 50.0616C6.04516 49.1172 5.91727 48.1465 5.84304 47.1758C5.8207 46.881 6.04159 46.6239 6.33636 46.6011C6.6314 46.5792 6.88876 46.7986 6.91111 47.0933C6.98218 48.0245 7.10473 48.9559 7.27631 49.8614C7.33143 50.1518 7.14036 50.4318 6.84949 50.4873C6.78511 50.4992 6.72058 50.4995 6.6592 50.489ZM19.675 50.886C19.6186 50.8764 19.563 50.8578 19.51 50.8289C19.2503 50.6882 19.1539 50.3635 19.2952 50.1036C19.7499 49.2681 20.2877 48.4403 20.8944 47.6423C21.0739 47.407 21.4094 47.3609 21.6448 47.5394C21.8803 47.7179 21.9263 48.0534 21.7468 48.2891C21.1732 49.0434 20.6649 49.8257 20.2356 50.6137C20.1239 50.8199 19.8949 50.9235 19.675 50.886ZM51.1318 54.0018C50.909 53.9638 50.7262 53.7866 50.6925 53.5504C50.5637 52.6452 50.3582 51.7382 50.0823 50.8551C49.9942 50.5729 50.1519 50.2729 50.4342 50.1844C50.7165 50.096 51.017 50.2531 51.1052 50.5349C51.3984 51.4729 51.6163 52.4365 51.7535 53.398C51.7953 53.6904 51.5915 53.9618 51.2985 54.0039C51.2418 54.0119 51.1857 54.011 51.1318 54.0018ZM6.22111 44.8111C5.96254 44.767 5.76913 44.5382 5.77702 44.2689C5.80553 43.3123 5.88436 42.3375 6.0114 41.3717C6.0502 41.0787 6.31908 40.8721 6.61198 40.9104C6.91265 40.9513 7.11183 41.2169 7.07352 41.5096C6.9513 42.4398 6.87526 43.3784 6.84778 44.2989C6.83884 44.5943 6.59191 44.8267 6.29647 44.8183C6.27109 44.8174 6.24592 44.8153 6.22111 44.8111ZM23.1088 46.3425C23.0037 46.3246 22.9031 46.2754 22.8218 46.1946C22.6123 45.9864 22.6118 45.6478 22.8206 45.4382C23.5039 44.7528 24.2415 44.1017 25.0126 43.5026C25.2464 43.3211 25.5828 43.3629 25.7643 43.5957C25.9457 43.829 25.9034 44.165 25.6695 44.3465C24.934 44.918 24.2306 45.539 23.5792 46.1919C23.4515 46.3205 23.2749 46.3708 23.1088 46.3425ZM49.4398 48.5783C49.2771 48.5506 49.1298 48.4485 49.0507 48.2898C48.6364 47.4591 48.1554 46.6638 47.6213 45.926C47.4482 45.6868 47.502 45.3523 47.7418 45.1787C47.9815 45.0056 48.3161 45.0583 48.4899 45.2981C49.0584 46.0828 49.57 46.9288 50.0103 47.8118C50.1422 48.0764 50.0341 48.3973 49.7694 48.5295C49.6629 48.5822 49.5483 48.5968 49.4398 48.5783ZM27.6131 42.8453C27.4634 42.8198 27.3255 42.731 27.2424 42.5901C27.0924 42.3359 27.177 42.0079 27.4319 41.8572C28.2833 41.3548 29.1636 40.9122 30.0482 40.5412C30.3211 40.4265 30.6353 40.5548 30.7489 40.8271C30.863 41.0995 30.7345 41.413 30.4616 41.5273C29.6215 41.8795 28.7855 42.3003 27.9756 42.7783C27.8619 42.8453 27.7338 42.8658 27.6131 42.8453ZM6.9616 39.1603C6.95151 39.1586 6.94107 39.1564 6.93105 39.1542C6.64258 39.0878 6.46309 38.8008 6.53006 38.5126C6.7523 37.5545 7.02046 36.6137 7.32746 35.7162C7.42279 35.4368 7.72693 35.2867 8.00746 35.3817C8.28757 35.4766 8.43689 35.7804 8.34149 36.0603C8.04639 36.9239 7.78851 37.8301 7.5741 38.7529C7.50936 39.0306 7.23909 39.2076 6.9616 39.1603ZM46.0955 43.988C45.9933 43.9706 45.8954 43.9236 45.8152 43.8464C45.1435 43.2014 44.4188 42.63 43.6613 42.1481C43.4121 41.9893 43.3388 41.6586 43.4982 41.4095C43.6576 41.16 43.9896 41.087 44.2379 41.2456C45.0546 41.7657 45.8354 42.3809 46.558 43.0747C46.7712 43.2792 46.7777 43.618 46.5722 43.8311C46.4446 43.9641 46.2645 44.0168 46.0955 43.988ZM32.8716 40.6573C32.6685 40.6227 32.4954 40.4721 32.4424 40.2595C32.3711 39.9728 32.5462 39.6823 32.833 39.6106C33.8067 39.3676 34.7854 39.2107 35.7417 39.1442C36.037 39.1232 36.2925 39.3457 36.3126 39.641C36.3328 39.9358 36.1096 40.1913 35.8147 40.2119C34.9211 40.274 34.0047 40.4212 33.0916 40.649C33.017 40.6674 32.9422 40.6693 32.8716 40.6573ZM41.3056 40.9626C41.2741 40.9573 41.2426 40.9489 41.2117 40.9376C40.5133 40.6832 39.7836 40.49 39.0436 40.3638C38.8948 40.3359 38.7189 40.3115 38.556 40.2902C38.261 40.2563 38.0567 39.9829 38.0954 39.6903C38.1342 39.3973 38.4035 39.1908 38.6968 39.2295C38.8733 39.2527 39.0606 39.2881 39.2253 39.3093C40.0288 39.4463 40.8206 39.6556 41.5797 39.9325C41.8573 40.0339 42.0001 40.3409 41.8986 40.6185C41.8085 40.8651 41.5558 41.0053 41.3056 40.9626ZM8.82336 33.7738C8.77585 33.7657 8.72901 33.7512 8.6834 33.7296C8.41615 33.6028 8.30317 33.2839 8.43014 33.0168C8.84549 32.146 9.31395 31.286 9.82263 30.4615C9.97771 30.2095 10.308 30.1313 10.5601 30.2859C10.8117 30.4407 10.8899 30.7701 10.7349 31.0221C10.2461 31.8137 9.79617 32.6393 9.39755 33.4757C9.29187 33.6972 9.05376 33.8131 8.82336 33.7738ZM11.8127 28.9237C11.7295 28.9095 11.648 28.8753 11.5766 28.8198C11.3424 28.6394 11.2994 28.3035 11.4803 28.0698C12.0689 27.309 12.7071 26.5666 13.3777 25.8625C13.582 25.6488 13.9211 25.6396 14.1349 25.8434C14.3491 26.0468 14.357 26.3853 14.153 26.5995C13.5079 27.2768 12.8936 27.9909 12.3278 28.7227C12.2023 28.8855 12.0019 28.9559 11.8127 28.9237ZM15.7456 24.7917C15.6271 24.7714 15.5149 24.7117 15.4305 24.6134C15.238 24.3895 15.2633 24.0519 15.4879 23.8589C16.2174 23.2319 16.9896 22.6308 17.7831 22.0722C18.025 21.902 18.3596 21.9595 18.5296 22.2008C18.7001 22.4421 18.6417 22.7759 18.3998 22.9464C17.6344 23.4856 16.8896 24.0654 16.186 24.67C16.0596 24.7777 15.8978 24.8176 15.7456 24.7917ZM20.4119 21.5023C20.2597 21.4764 20.12 21.3851 20.0375 21.2409C19.8904 20.9846 19.9796 20.6578 20.2365 20.5109C21.0706 20.0332 21.9405 19.5862 22.822 19.1823C23.0908 19.0591 23.4089 19.1769 23.5319 19.4452C23.6548 19.7138 23.5365 20.0313 23.2677 20.1545C22.4153 20.5452 21.5744 20.9773 20.7682 21.4386C20.6562 21.5033 20.53 21.5225 20.4119 21.5023ZM25.6036 19.1218C25.419 19.0903 25.2562 18.9627 25.1893 18.7736C25.0905 18.4952 25.2363 18.1894 25.5152 18.0904C26.4206 17.7688 27.3552 17.4815 28.2926 17.2376C28.5791 17.1624 28.8715 17.3341 28.9456 17.62C29.0201 17.9059 28.8481 18.1982 28.5618 18.2726C27.6542 18.5091 26.7498 18.7868 25.873 19.0981C25.7831 19.1299 25.691 19.1367 25.6036 19.1218ZM31.1309 17.6796C30.9135 17.6425 30.7329 17.4725 30.6937 17.2432C30.6439 16.952 30.84 16.6754 31.1317 16.6253C32.0785 16.4625 33.0466 16.3375 34.0089 16.2534C34.3029 16.2274 34.5631 16.4456 34.5885 16.74C34.614 17.0344 34.3953 17.2937 34.1005 17.3195C33.1676 17.4009 32.2296 17.5224 31.3122 17.6798C31.2503 17.69 31.1893 17.6895 31.1309 17.6796Z" fill="black"/>
    <path opacity="0.1" d="M59.9689 7.60817L19.2229 6.12537L27.6187 15.0886L25.4495 28.5805L34.9876 22.9387L39.0568 27.2579L59.9689 7.60817Z" fill="#B1115A" fill-opacity="0.67"/>
    <path d="M26.4594 27.9117L29.6284 8.20371L60.9788 6.93935L26.4594 27.9117Z" fill="#930043"/>
    <path d="M28.6855 14.4807C28.8518 14.4299 60.9787 6.93947 60.9787 6.93947L20.2326 5.45709L28.6855 14.4807Z" fill="#B1115A"/>
    <path d="M31.5547 17.5542L26.4594 27.9118L42.269 18.5609L31.5547 17.5542Z" fill="#930043"/>
    <path d="M31.5546 17.5541L40.0665 26.5895L60.9786 6.93933L31.5546 17.5541Z" fill="#B1115A"/>
    <g clip-path="url(#clip0_364_13959)">
    <path d="M106.033 19.5382L67.8165 33.2685L64.092 44.6242C63.5838 45.9545 57.9898 65.4259 59.5215 66.0062L93.2631 58.2732L111.349 83.5454C112.88 84.1268 122.535 67.7203 123.043 66.39L128.91 56.3976L109.49 20.8489C108.746 19.7655 107.312 19.2223 106.033 19.5382Z" fill="#211F44"/>
    <path d="M129.297 34.4218C128.71 35.9559 127.018 36.7389 125.515 36.1689C124.012 35.5989 123.268 33.893 123.855 32.3589L122.351 31.7889C121.764 33.323 120.072 34.106 118.569 33.536C117.066 32.966 116.322 31.2601 116.909 29.726L115.405 29.1561C114.818 30.6901 113.125 31.4731 111.623 30.9031C110.12 30.3331 109.376 28.6272 109.963 27.0932L108.459 26.5232C107.872 28.0572 106.179 28.8402 104.677 28.2702C103.174 27.7002 102.43 25.9943 103.017 24.4603L101.513 23.8903C100.926 25.4243 99.2335 26.2073 97.7306 25.6373C96.2278 25.0673 95.4842 23.3614 96.0708 21.8274L94.567 21.2574C93.9803 22.7914 92.2874 23.5744 90.7846 23.0044C89.2818 22.4344 88.5382 20.7285 89.1248 19.1945L87.622 18.6245C87.0353 20.1586 85.3425 20.9415 83.8396 20.3715C82.3368 19.8015 81.5932 18.0957 82.1798 16.5616L80.269 15.8373L59.6489 69.813L110.699 89.1651L131.319 35.1894L129.297 34.4218Z" fill="white" stroke="#211F44" stroke-miterlimit="10"/>
    <path d="M91.8578 63.7211L110.959 55.3687C115.975 53.1751 121.965 53.1062 127.433 55.1783C128.717 55.665 129.447 56.8718 129.065 57.875L121.975 76.4328L115.157 94.2807C114.774 95.2828 112.457 96.147 111.172 95.6604L103.276 92.6674L90.9933 65.9835C90.5832 65.0905 90.9551 64.1161 91.8578 63.7211Z" fill="#8B0140"/>
    <path d="M90.6864 63.2489L81.9928 44.3598C79.7091 39.3985 75.2812 35.3808 69.8132 33.3076C68.5294 32.8209 67.1774 33.2387 66.7952 34.2418L59.7056 52.7996L52.804 70.8656C52.4208 71.8677 53.4041 73.7619 54.688 74.2485L62.8393 77.3105L89.8229 65.5103C90.7246 65.1163 91.0975 64.1419 90.6864 63.2489Z" fill="#8B0140"/>
    <path d="M118.003 86.8296L115.003 94.6809C114.555 95.8549 112.949 96.3343 111.417 95.754L54.6869 74.2485C53.1552 73.6682 52.2762 72.2453 52.7244 71.0724L55.7239 63.221L91.9888 56.4284C92.5786 56.3183 93.2107 56.3811 93.7963 56.5848C94.447 56.8112 95.0378 57.2114 95.4468 57.7392L118.003 86.8296Z" fill="#930043"/>
    <path d="M56.9749 59.9472L87.587 56.5149L87.8999 57.195L55.7241 63.2211L56.9749 59.9472Z" fill="#20284E"/>
    <path d="M119.253 83.5558L98.6766 60.7189L97.9897 61.0193L118.003 86.8296L119.253 83.5558Z" fill="#20284E"/>
    </g>
    <defs>
    <clipPath id="clip0_364_13959">
    <rect width="78.9119" height="80.3623" fill="white" transform="translate(52.6079 15.6377)"/>
    </clipPath>
    </defs>
    </svg>
    