<svg width="408" height="90" viewBox="0 0 408 90" fill="none" xmlns="http://www.w3.org/2000/svg">
    <g clip-path="url(#clip0_1092_390)">
    <path d="M115.064 30.9817V59.7762H108.634V48.9773H89.3365V59.7762H82.9062V30.9817H89.3365V41.7806H108.634V30.9817H115.064Z" fill="white"/>
    <path d="M120.559 59.7824V30.9426H128.57V59.7824H120.559Z" fill="white"/>
    <path d="M165.398 38.1784H152.538V59.7762H146.107V38.1784H133.24V30.9817H165.398V38.1784Z" fill="white"/>
    <path d="M201.935 30.9817V38.1784H176.207V38.1861H169.777V30.9817H201.935ZM201.935 42.39V48.2599H176.207V48.2754H169.777V42.39H201.935ZM201.935 52.5795V59.7762H169.777V52.5795H201.935Z" fill="white"/>
    <path d="M239.604 40.3073V43.5778H233.174V40.9475C233.174 39.4203 232.064 38.1784 230.7 38.1784H207.446V30.9817H231.272C231.926 30.9817 232.56 31.0665 233.174 31.2285C236.248 32.0307 238.667 34.7382 239.39 38.1861C239.528 38.8649 239.604 39.5745 239.604 40.3073ZM216.351 52.5795H239.604V59.7762H215.779C215.482 59.7762 215.193 59.7608 214.91 59.7222C214.559 59.6836 214.214 59.6142 213.876 59.5293C210.803 58.7271 208.384 56.0197 207.66 52.5718C207.605 52.3172 207.563 52.0627 207.529 51.8081C207.474 51.3608 207.439 50.9057 207.439 50.4428V42.0814H213.87V49.8026C213.876 51.3376 214.986 52.5795 216.351 52.5795Z" fill="white"/>
    <path d="M276.941 30.9817V59.7762H270.511V48.9773H251.213V59.7762H244.783V30.9817H251.213V41.7806H270.511V30.9817H276.941Z" fill="white"/>
    <path d="M331.596 30.9817V59.7762H325.165V48.9773H305.868V59.7762H299.438V30.9817H305.868V41.7806H325.165V30.9817H331.596Z" fill="white"/>
    <path d="M369.311 30.9817V59.7762H363.053V56.6908L360.551 59.7762H344.529C340.738 59.3365 337.698 56.0506 337.146 51.8621V30.9817H343.577V49.8103C343.577 51.3376 344.686 52.5795 346.051 52.5795H362.86L362.874 30.9817H369.311Z" fill="white"/>
    <path d="M407.23 49.1001C407.312 49.6169 407.354 50.1492 407.354 50.6891C407.354 51.3216 407.299 51.9387 407.188 52.5326C406.478 56.3971 403.57 59.3668 399.986 59.7293C399.745 59.7525 399.497 59.7679 399.242 59.7679C398.987 59.7679 398.746 59.7525 398.498 59.7293H381.543V59.7679H375.113V52.5404H375.12V49.1079H375.113V41.9729H375.12V38.0698H375.113V30.9426H399.242C403.143 30.9426 406.409 34.028 407.181 38.1393C407.299 38.7486 407.354 39.3734 407.354 40.0214C407.354 40.6693 407.292 41.2941 407.181 41.9034C406.947 43.1762 406.465 44.3486 405.81 45.3591C406.513 46.4467 407.009 47.7194 407.23 49.1001ZM400.924 40.0214C400.924 38.9877 400.172 38.1393 399.242 38.1393H394.48V38.0698H381.55V41.9729H394.48V41.9034H399.242C399.545 41.9034 399.821 41.8186 400.069 41.6643C400.579 41.3404 400.924 40.7233 400.924 40.0214ZM400.924 50.6968C400.924 50.0258 400.606 49.4395 400.138 49.1079H381.557V52.5404H399.586C400.345 52.363 400.924 51.5993 400.924 50.6968Z" fill="white"/>
    <mask id="mask0_1092_390" style="mask-type:luminance" maskUnits="userSpaceOnUse" x="0" y="0" width="61" height="90">
    <path d="M60.8841 0.5H0V89.4229H60.8841V0.5Z" fill="white"/>
    </mask>
    <g mask="url(#mask0_1092_390)">
    <path d="M56.0775 18.9251V33.345H42.4587V0.499634H37.6521V33.345H23.2321V0.499634H18.4255V51.7705H4.80665V18.9251H0V70.9971H4.80665V56.5771H37.6521V89.4225H42.4587V38.1517H56.0775V70.9971H60.8842V18.9251H56.0775ZM37.6521 51.7705H23.2321V38.1517H37.6521V51.7705Z" fill="white"/>
    <path d="M23.2324 58.9803H18.4258V89.4224H23.2324V58.9803Z" fill="white"/>
    </g>
    </g>
    <defs>
    <clipPath id="clip0_1092_390">
    <rect width="408" height="89" fill="white" transform="translate(0 0.5)"/>
    </clipPath>
    </defs>
    </svg>
    