<svg width="405" height="180" viewBox="0 0 405 180" fill="none" xmlns="http://www.w3.org/2000/svg">
<path d="M40.1416 144.049V179.992H32.115V166.512H8.02659V179.992H0V144.049H8.02659V157.529H32.115V144.049H40.1416Z" fill="black"/>
<path d="M47 180V144H57V180H47Z" fill="black"/>
<path d="M102.972 153.032H86.9185V179.992H78.8919V153.032H62.8301V144.049H102.972V153.032Z" fill="black"/>
<path d="M148.581 144.049V153.032H116.466V153.042H108.439V144.049H148.581ZM148.581 158.289V165.617H116.466V165.636H108.439V158.289H148.581ZM148.581 171.009V179.992H108.439V171.009H148.581Z" fill="black"/>
<path d="M195.603 155.69V159.772H187.577V156.489C187.577 154.582 186.192 153.032 184.488 153.032H155.462V144.049H185.202C186.02 144.049 186.811 144.155 187.577 144.357C191.414 145.358 194.433 148.738 195.337 153.042C195.509 153.889 195.603 154.775 195.603 155.69ZM166.577 171.009H195.603V179.992H165.863C165.493 179.992 165.132 179.973 164.779 179.925C164.34 179.877 163.91 179.79 163.488 179.684C159.651 178.683 156.632 175.303 155.728 170.999C155.66 170.681 155.608 170.364 155.565 170.046C155.496 169.487 155.453 168.919 155.453 168.342V157.904H163.48V167.542C163.488 169.459 164.873 171.009 166.577 171.009Z" fill="black"/>
<path d="M242.21 144.049V179.992H234.183V166.512H210.095V179.992H202.068V144.049H210.095V157.529H234.183V144.049H242.21Z" fill="black"/>
<path d="M310.433 144.049V179.992H302.406V166.512H278.318V179.992H270.291V144.049H278.318V157.529H302.406V144.049H310.433Z" fill="#930043"/>
<path d="M357.511 144.049V179.992H349.7V176.141L346.577 179.992H326.575C321.843 179.443 318.05 175.342 317.361 170.113V144.049H325.388V167.552C325.388 169.459 326.773 171.009 328.476 171.009H349.459L349.476 144.049H357.511Z" fill="#930043"/>
<path d="M404.844 166.666C404.947 167.311 404.999 167.975 404.999 168.649C404.999 169.439 404.93 170.209 404.792 170.95C403.906 175.774 400.276 179.481 395.802 179.934C395.501 179.963 395.191 179.982 394.873 179.982C394.555 179.982 394.254 179.963 393.944 179.934H372.78V179.982H364.754V170.96H364.763V166.675H364.754V157.769H364.763V152.897H364.754V144H394.873C399.742 144 403.82 147.851 404.784 152.983C404.93 153.744 404.999 154.524 404.999 155.333C404.999 156.142 404.921 156.922 404.784 157.682C404.491 159.271 403.889 160.734 403.072 161.996C403.949 163.353 404.569 164.942 404.844 166.666ZM396.972 155.333C396.972 154.043 396.034 152.983 394.873 152.983H388.928V152.897H372.789V157.769H388.928V157.682H394.873C395.252 157.682 395.596 157.576 395.905 157.384C396.542 156.979 396.972 156.209 396.972 155.333ZM396.972 168.659C396.972 167.821 396.576 167.089 395.991 166.675H372.798V170.96H395.303C396.249 170.738 396.972 169.785 396.972 168.659Z" fill="#930043"/>
<g clip-path="url(#clip0_671_1622)">
<path d="M234 23V41H217V0H211V41H193V0H187V64H170V23H164V88H170V70H211V111H217V47H234V88H240V23H234ZM211 64H193V47H211V64Z" fill="#930043"/>
<path d="M193 73H187V111H193V73Z" fill="#930043"/>
</g>
<defs>
<clipPath id="clip0_671_1622">
<rect width="76" height="111" fill="white" transform="translate(164)"/>
</clipPath>
</defs>
</svg>
