<svg width="469" height="375" viewBox="0 0 469 375" fill="none" xmlns="http://www.w3.org/2000/svg">
<g clip-path="url(#clip0_47_636)">
<path d="M452.942 374.773C458.826 355.133 468.142 313.398 455.149 264.298C450 244.903 433.574 182.547 374.612 152.228C367.747 148.668 320.063 125.1 266.494 141.917C195.519 164.257 203.977 229.56 132.144 253.128C85.9306 268.226 53.9366 250.304 28.1944 278.905C17.8974 290.321 7.60053 310.206 8.33602 333.897C8.94893 353.046 16.4265 367.285 20.5943 374.036C164.751 374.282 308.785 374.527 452.942 374.773Z" fill="#F5F5F5"/>
<path d="M359.044 319.563C360.147 320.054 361.863 320.913 363.947 322.263C370.076 326.437 370.812 330.488 376.451 333.065C377.309 333.434 379.393 334.293 381.967 334.661C386.135 335.152 389.567 334.047 391.406 333.311C391.406 333.311 396.309 321.159 373.876 315.635L373.141 319.318C372.528 318.336 371.915 317.354 371.302 316.372C370.199 316.126 368.483 315.758 366.399 316.003C362.599 316.617 360.025 318.581 359.044 319.563Z" fill="#930043"/>
<path d="M366.276 277.46C368.237 283.229 371.057 286.666 373.386 288.63C376.818 291.699 379.27 291.822 384.418 296.363C387.238 298.818 388.954 300.414 390.425 303.237C392.631 307.656 392.263 312.075 391.896 314.408C391.896 314.408 382.212 313.917 373.263 306.674L375.592 302.378L371.547 304.833C371.302 304.956 362.599 293.172 366.276 277.46Z" fill="#930043"/>
<path d="M397.657 296.363C380.741 292.681 374.489 275.25 374.489 275.25C374.979 274.268 382.457 272.059 382.457 272.059L372.65 270.709C372.65 270.709 370.811 268.008 371.792 262.116C372.773 256.224 368.728 248 368.728 248C375.837 249.596 381.108 252.173 384.541 254.137C389.812 257.206 397.657 261.748 400.844 270.709C401.457 272.55 401.825 274.146 401.947 275.25L398.638 279.915L402.315 278.196C402.805 288.139 397.657 296.363 397.657 296.363Z" fill="#930043"/>
<path d="M412.49 305.692C412.49 305.692 398.025 278.687 435.413 268.622C435.413 268.622 431.245 273.286 431.98 282.247C432.716 291.208 430.019 292.681 430.019 292.681L423.032 291.699L428.793 296.977C428.793 297.1 421.316 306.92 412.49 305.692Z" fill="#930043"/>
<path d="M436.516 314.776C436.516 314.776 411.264 306.306 412.245 328.401C412.245 328.401 420.212 335.643 427.69 324.719L425.729 320.545L429.161 321.281C429.284 321.159 433.942 315.39 436.516 314.776Z" fill="#930043"/>
<path d="M403.051 350.25C402.806 350.25 402.56 350.005 402.683 349.759C406.483 323.859 427.445 316.863 427.69 316.863C427.935 316.74 428.18 316.862 428.303 317.108C428.425 317.353 428.303 317.599 428.058 317.722C427.812 317.844 407.341 324.596 403.664 349.882C403.541 350.128 403.296 350.25 403.051 350.25Z" fill="#231F20"/>
<path d="M402.684 355.283C402.438 355.283 402.193 355.038 402.316 354.792C403.174 339.939 405.871 325.332 410.529 311.339C413.961 301.028 418.374 291.085 423.645 281.633C423.768 281.388 424.013 281.265 424.258 281.511C424.503 281.633 424.503 281.879 424.381 282.124C419.11 291.576 414.697 301.519 411.264 311.707C406.729 325.7 403.909 340.185 403.174 354.915C403.174 355.038 402.929 355.283 402.684 355.283Z" fill="#231F20"/>
<path d="M401.58 365.471C401.335 365.471 401.09 365.226 401.212 364.98C404.277 345.709 403.786 326.314 399.741 307.534C397.29 295.627 393.367 283.966 388.096 272.795C387.973 272.55 388.096 272.304 388.341 272.182C388.586 272.059 388.831 272.182 388.954 272.427C394.225 283.597 398.148 295.381 400.722 307.411C404.767 326.314 405.135 345.831 402.193 365.226C402.07 365.349 401.825 365.471 401.58 365.471Z" fill="#231F20"/>
<path d="M402.438 357.37C402.193 357.37 401.948 357.124 402.071 356.879C402.316 344.604 400.354 321.527 383.928 305.201C381.354 302.624 378.412 300.291 375.348 298.327C375.102 298.205 375.102 297.959 375.225 297.714C375.348 297.468 375.715 297.468 375.838 297.591C379.025 299.678 381.967 302.01 384.541 304.588C401.335 321.159 403.296 344.481 403.051 357.002C402.929 357.124 402.683 357.37 402.438 357.37Z" fill="#231F20"/>
<path d="M404.767 357.615C404.522 357.615 404.399 357.493 404.399 357.247C403.051 351.11 399.864 342.149 391.896 334.416C387.361 329.997 381.599 326.56 375.47 324.473C375.225 324.35 375.102 324.105 375.225 323.859C375.347 323.614 375.593 323.491 375.838 323.614C382.089 325.7 387.851 329.26 392.632 333.802C400.845 341.658 404.154 350.864 405.38 357.124C405.38 357.37 405.258 357.615 405.012 357.615C404.89 357.615 404.767 357.615 404.767 357.615Z" fill="#231F20"/>
<path d="M385.031 352.214L389.567 375.169H416.657L421.193 352.214H385.031ZM415.554 373.941H390.425L386.38 353.442H419.477L415.554 373.941Z" fill="#231F20"/>
<path d="M419.599 353.442L415.554 373.941H390.547L386.502 353.442H419.599Z" fill="white"/>
<path d="M422.296 352.828H383.928L381.722 345.34H424.503L422.296 352.828Z" fill="#231F20"/>
<path d="M349.728 213.339H216.971C214.519 213.339 212.436 211.252 212.436 208.797V21.1129C212.436 18.6579 214.519 16.5712 216.971 16.5712H349.728C352.179 16.5712 354.263 18.6579 354.263 21.1129V208.797C354.263 211.375 352.179 213.339 349.728 213.339Z" fill="white"/>
<path d="M348.87 214.075H217.707C214.397 214.075 211.7 211.375 211.7 208.061V21.9722C211.7 18.6579 214.397 15.9574 217.707 15.9574H348.87C352.18 15.9574 354.876 18.6579 354.876 21.9722V208.061C354.999 211.375 352.18 214.075 348.87 214.075ZM217.707 17.3077C215.133 17.3077 213.049 19.3944 213.049 21.9722V208.061C213.049 210.638 215.133 212.725 217.707 212.725H348.87C351.444 212.725 353.528 210.638 353.528 208.061V21.9722C353.528 19.3944 351.444 17.3077 348.87 17.3077H217.707Z" fill="#17313B"/>
<path d="M365.541 197.504H232.785C230.333 197.504 228.249 195.417 228.249 192.962V5.27823C228.249 2.82324 230.333 0.736496 232.785 0.736496H365.541C367.993 0.736496 370.077 2.82324 370.077 5.27823V192.962C370.077 195.417 368.115 197.504 365.541 197.504Z" fill="white"/>
<path d="M364.805 198.241H233.642C230.333 198.241 227.636 195.54 227.636 192.226V6.01473C227.636 2.70049 230.333 0 233.642 0H364.805C368.115 0 370.812 2.70049 370.812 6.01473V192.103C370.812 195.417 368.115 198.241 364.805 198.241ZM233.642 1.473C231.068 1.473 228.984 3.55974 228.984 6.13748V192.226C228.984 194.804 231.068 196.89 233.642 196.89H364.805C367.38 196.89 369.463 194.804 369.463 192.226V6.01473C369.463 3.43699 367.38 1.35025 364.805 1.35025H233.642V1.473Z" fill="#17313B"/>
<path d="M260.733 134.288C254.481 134.288 249.455 129.255 249.455 122.995C249.455 116.735 254.481 111.702 260.733 111.702H383.07C389.322 111.702 394.347 116.735 394.347 122.995C394.347 129.255 389.322 134.288 383.07 134.288H260.733Z" fill="white"/>
<path d="M383.07 112.439C388.831 112.439 393.612 117.226 393.612 122.995C393.612 128.764 388.831 133.552 383.07 133.552H260.733C254.971 133.552 250.191 128.764 250.191 122.995C250.191 117.226 254.971 112.439 260.733 112.439H383.07ZM383.07 111.088H260.733C254.113 111.088 248.72 116.489 248.72 123.118C248.72 129.746 254.113 135.147 260.733 135.147H383.07C389.689 135.147 395.083 129.746 395.083 123.118C395.083 116.367 389.689 111.088 383.07 111.088Z" fill="#17313B"/>
<path d="M263.184 128.028C265.96 128.028 268.21 125.775 268.21 122.995C268.21 120.216 265.96 117.962 263.184 117.962C260.408 117.962 258.158 120.216 258.158 122.995C258.158 125.775 260.408 128.028 263.184 128.028Z" fill="#930043"/>
<path d="M376.328 125.205H280.959C279.978 125.205 279.12 124.345 279.12 123.363V122.75C279.12 121.768 279.978 120.908 280.959 120.908H376.328C377.309 120.908 378.167 121.768 378.167 122.75V123.363C378.167 124.345 377.309 125.205 376.328 125.205Z" fill="#17313B"/>
<path d="M260.733 90.9574C254.481 90.9574 249.455 85.9247 249.455 79.6645C249.455 73.4043 254.481 68.3715 260.733 68.3715H383.07C389.322 68.3715 394.347 73.4043 394.347 79.6645C394.347 85.9247 389.322 90.9574 383.07 90.9574H260.733Z" fill="white"/>
<path d="M383.07 69.108C388.831 69.108 393.612 73.8953 393.612 79.6645C393.612 85.4337 388.831 90.2209 383.07 90.2209H260.733C254.971 90.2209 250.191 85.4337 250.191 79.6645C250.191 73.8953 254.971 69.108 260.733 69.108H383.07ZM383.07 67.7578H260.733C254.113 67.7578 248.72 73.1588 248.72 79.7872C248.72 86.4157 254.113 91.8167 260.733 91.8167H383.07C389.689 91.8167 395.083 86.4157 395.083 79.7872C395.083 73.036 389.689 67.7578 383.07 67.7578Z" fill="#17313B"/>
<path d="M263.184 84.6972C265.96 84.6972 268.21 82.444 268.21 79.6645C268.21 76.885 265.96 74.6318 263.184 74.6318C260.408 74.6318 258.158 76.885 258.158 79.6645C258.158 82.444 260.408 84.6972 263.184 84.6972Z" fill="#930043"/>
<path d="M376.328 81.874H280.959C279.978 81.874 279.12 81.0147 279.12 80.0327V79.419C279.12 78.437 279.978 77.5777 280.959 77.5777H376.328C377.309 77.5777 378.167 78.437 378.167 79.419V80.0327C378.167 81.1375 377.309 81.874 376.328 81.874Z" fill="#17313B"/>
<path d="M260.733 47.6268C254.481 47.6268 249.455 42.5941 249.455 36.3339C249.455 30.0737 254.481 25.0409 260.733 25.0409H383.07C389.322 25.0409 394.347 30.0737 394.347 36.3339C394.347 42.5941 389.322 47.6268 383.07 47.6268H260.733Z" fill="white"/>
<path d="M383.07 25.7774C388.831 25.7774 393.612 30.5647 393.612 36.3339C393.612 42.1031 388.831 46.8903 383.07 46.8903H260.733C254.971 46.8903 250.191 42.1031 250.191 36.3339C250.191 30.5647 254.971 25.7774 260.733 25.7774H383.07ZM383.07 24.4272H260.733C254.113 24.4272 248.72 29.8282 248.72 36.4566C248.72 43.0851 254.113 48.4861 260.733 48.4861H383.07C389.689 48.4861 395.083 43.0851 395.083 36.4566C395.083 29.7054 389.689 24.4272 383.07 24.4272Z" fill="#17313B"/>
<path d="M263.184 41.3666C265.96 41.3666 268.21 39.1134 268.21 36.3339C268.21 33.5544 265.96 31.3011 263.184 31.3011C260.408 31.3011 258.158 33.5544 258.158 36.3339C258.158 39.1134 260.408 41.3666 263.184 41.3666Z" fill="#930043"/>
<path d="M376.328 38.5434H280.959C279.978 38.5434 279.12 37.6841 279.12 36.7021V36.0884C279.12 35.1064 279.978 34.2471 280.959 34.2471H376.328C377.309 34.2471 378.167 35.1064 378.167 36.0884V36.8249C378.167 37.8069 377.309 38.5434 376.328 38.5434Z" fill="#17313B"/>
<path d="M337.225 175.164H261.101C256.566 175.164 253.011 171.481 253.011 167.062V164.239C253.011 159.697 256.688 156.137 261.101 156.137H337.347C341.883 156.137 345.438 159.82 345.438 164.239V167.062C345.438 171.481 341.76 175.164 337.225 175.164Z" fill="#930043"/>
<path d="M114.001 351.06L114.614 366.035L124.175 364.685L122.704 347.255L114.001 351.06Z" fill="white"/>
<path d="M114.614 366.649C114.491 366.649 114.369 366.649 114.246 366.526C114.124 366.404 114.001 366.281 114.001 366.035L113.266 351.183C113.266 350.937 113.388 350.692 113.633 350.569L122.459 346.641C122.704 346.518 122.827 346.518 123.072 346.641C123.195 346.764 123.317 346.886 123.44 347.132L124.788 364.685C124.788 365.053 124.543 365.299 124.175 365.422L114.614 366.649C114.737 366.649 114.737 366.649 114.614 366.649ZM114.614 351.551L115.227 365.299L123.44 364.194L122.214 348.237L114.614 351.551Z" fill="#17313B"/>
<path d="M52.2201 354.129L50.5039 363.335H58.8395L60.6782 351.919L52.2201 354.129Z" fill="white"/>
<path d="M58.8391 363.949H50.5035C50.2584 363.949 50.1358 363.826 50.0132 363.703C49.8906 363.58 49.8906 363.335 49.8906 363.212L51.6068 354.006C51.6068 353.76 51.8519 353.515 52.0971 353.515L60.5553 351.428C60.8005 351.428 61.0456 351.428 61.1682 351.551C61.2908 351.674 61.4134 351.919 61.4134 352.165L59.5746 363.58C59.452 363.826 59.2069 363.949 58.8391 363.949ZM51.3616 362.721H58.3488L59.9424 352.901L52.8326 354.742L51.3616 362.721Z" fill="#17313B"/>
<path d="M61.4136 363.335V373.278H28.3164C28.439 372.296 29.1745 371.436 30.2777 371.068C33.2197 370.332 36.5294 369.227 40.2069 367.508C44.1295 365.667 47.3167 363.703 49.7683 361.862H60.0652C60.8007 361.985 61.4136 362.598 61.4136 363.335Z" fill="#17313B"/>
<path d="M146.731 373.523H112.653C112.776 370.209 112.776 366.895 112.898 363.458C112.898 362.721 113.511 362.107 114.369 362.107C118.17 362.107 121.97 361.985 125.647 361.985C126.015 361.985 126.383 362.107 126.628 362.353C128.712 363.949 131.286 365.79 134.473 367.386C138.273 369.35 141.828 370.454 144.647 371.191C145.873 371.559 146.731 372.418 146.731 373.523Z" fill="#17313B"/>
<path d="M61.4136 373.278V375.119H28.3164V373.523C28.3164 373.4 28.3164 373.278 28.3164 373.278H61.4136Z" fill="#17313B"/>
<path d="M146.731 373.523V375.119C135.331 375.242 124.053 375.364 112.653 375.487C112.653 374.873 112.653 374.137 112.653 373.523H146.731Z" fill="#17313B"/>
<path d="M49.7686 356.093L62.3945 258.507L71.7108 166.567H122.828L125.279 269.186V354.374C120.744 354.988 116.331 355.602 111.795 356.338C108.976 326.142 106.156 296.068 103.337 265.872C101.131 249.301 99.0467 232.852 96.8402 216.281C92.6724 233.589 88.382 250.774 84.2142 268.081C77.3496 297.541 70.3624 326.878 63.4978 356.338C58.8396 356.215 54.3041 356.215 49.7686 356.093Z" fill="#17313B"/>
<path d="M106.278 82.3611C105.42 82.9749 103.459 83.5886 99.7811 82.1156C100.271 87.3939 100.762 92.6721 101.252 97.9503C97.2068 99.3006 93.1616 100.651 89.1164 102.001C87.1551 100.283 85.0712 98.5641 83.1099 96.8456C83.9679 93.4086 84.7034 89.3578 84.9486 84.8161C85.3163 79.7834 85.0712 75.3644 84.7034 71.5592C81.884 70.3317 80.0453 68.2449 80.1679 66.2809C80.1679 66.0354 80.2905 64.6852 81.3937 63.9487C82.7421 62.9667 84.4583 63.5804 84.5808 63.5804C85.1938 61.0027 85.8067 58.5477 86.4196 55.97L96.9617 55.2335L107.504 54.3742C107.749 57.0747 108.117 60.7572 108.362 65.1762C109.097 79.4151 107.626 81.5019 106.278 82.3611Z" fill="white"/>
<path d="M89.1169 102.615C88.9943 102.615 88.8717 102.615 88.7491 102.492L82.7426 97.3366C82.4974 97.2138 82.4974 96.9683 82.4974 96.7228C83.4781 92.7948 84.091 88.7441 84.3362 84.8161C84.7039 80.6426 84.5813 76.3464 84.2136 72.0502C81.2716 70.6999 79.5554 68.4904 79.678 66.2809C79.678 65.5444 80.0458 64.3169 81.149 63.4577C82.2523 62.7212 83.4781 62.7212 84.2136 62.8439L85.9297 55.8472C86.0523 55.6017 86.1749 55.3562 86.5426 55.3562L97.0847 54.6197L107.627 53.7605C107.995 53.7605 108.24 54.006 108.362 54.3742C108.73 57.9339 108.975 61.6164 109.22 65.1762C109.956 79.6606 108.362 81.8701 106.769 82.8521C105.298 83.7114 103.214 83.8341 100.762 82.9749L102.111 97.8276C102.111 98.0731 101.988 98.4413 101.62 98.4413L89.4846 102.492C89.2394 102.615 89.2394 102.615 89.1169 102.615ZM83.8458 96.6001L89.2395 101.265L100.517 97.4593L99.1686 82.1156C99.1686 81.8701 99.2912 81.6246 99.4138 81.5019C99.5364 81.3791 99.7815 81.3791 100.027 81.3791C102.601 82.3611 104.562 82.4839 105.911 81.6246C107.136 80.8881 108.362 78.3104 107.749 65.1762C107.627 61.7392 107.382 58.4249 107.014 54.988L97.0847 55.8472L87.033 56.7065L85.3168 63.8259C85.3168 63.9487 85.1942 64.1942 84.9491 64.1942C84.8265 64.3169 84.5813 64.3169 84.4587 64.1942C84.3362 64.1942 82.9878 63.7032 81.8845 64.4397C81.149 64.9307 80.9039 65.9127 80.9039 66.2809C80.7813 67.9994 82.3748 69.8407 84.9491 70.9454C85.1942 71.0682 85.3168 71.1909 85.3168 71.4364C85.8071 75.8554 85.8071 80.3971 85.562 84.8161C85.3168 88.8668 84.7039 92.7948 83.8458 96.6001Z" fill="#17313B"/>
<path d="M162.054 101.878C162.176 101.019 162.544 99.7916 163.525 98.8096C164.996 97.5821 166.712 97.9503 168.305 97.5821C170.021 97.2138 172.351 95.7408 174.434 90.5854C174.434 90.4626 174.925 89.7261 174.68 89.1124C174.434 88.4986 173.576 88.3759 173.331 88.3759C171.738 88.1304 171.002 89.9716 169.041 91.3218C166.344 93.0403 162.789 93.6541 162.054 92.5493C161.318 91.5673 163.77 89.3579 163.279 88.8669C162.667 88.2531 158.131 90.9536 156.783 94.1451C156.66 94.5133 156.17 95.4953 155.802 96.8456C155.434 97.8276 155.312 98.6868 155.066 99.3006C157.395 100.16 159.725 101.019 162.054 101.878Z" fill="white"/>
<path d="M161.931 102.492C161.808 102.492 161.808 102.492 161.686 102.492L154.821 99.9143C154.576 99.7916 154.331 99.4233 154.454 99.1778C154.699 98.3186 154.821 97.4593 155.189 96.7228C155.557 95.4953 156.047 94.3906 156.17 94.0223C157.518 91.0763 161.196 88.4986 162.667 88.2531C163.157 88.1304 163.525 88.2531 163.77 88.4986C164.383 89.1124 163.892 89.8489 163.402 90.5854C163.157 90.9536 162.544 92.0583 162.667 92.1811C163.034 92.6721 166.099 92.5493 168.796 90.7081C169.531 90.2171 170.021 89.7261 170.512 89.2351C171.37 88.3759 172.228 87.5166 173.454 87.7621C174.312 87.8849 174.925 88.2531 175.292 88.8669C175.66 89.7261 175.293 90.5853 175.047 90.9536C173.209 95.2498 171.002 97.7048 168.428 98.3186C167.938 98.4413 167.325 98.4413 166.834 98.5641C165.731 98.6868 164.75 98.6868 163.892 99.4233C163.157 100.037 162.789 100.896 162.544 102.124C162.544 102.369 162.421 102.492 162.176 102.615C162.176 102.492 162.054 102.492 161.931 102.492ZM155.924 98.9323L161.563 101.019C161.808 99.9143 162.421 99.0551 163.157 98.3186C164.26 97.3366 165.609 97.2138 166.834 97.0911C167.325 97.0911 167.815 96.9683 168.183 96.9683C170.389 96.4773 172.228 94.2678 173.944 90.3398C173.944 90.3398 173.944 90.2171 174.067 90.2171C174.189 90.0943 174.312 89.7261 174.189 89.3579C174.067 89.1124 173.822 88.9896 173.454 88.9896C172.841 88.8669 172.351 89.3579 171.492 90.2171C171.002 90.7081 170.389 91.3218 169.531 91.8128C166.834 93.5313 162.667 94.3906 161.686 92.9176C161.073 91.9356 161.808 90.8308 162.421 89.8488C162.421 89.7261 162.544 89.7261 162.544 89.6034C161.196 90.2171 158.621 92.0583 157.641 94.3906C157.518 94.6361 157.15 95.7408 156.66 96.9683C156.17 97.7048 156.047 98.3186 155.924 98.9323Z" fill="#17313B"/>
<path d="M154.086 98.5641C150.654 107.157 147.099 115.872 143.667 124.464L126.995 96.9683C126.26 95.6181 125.034 94.6361 123.563 94.1451C115.84 91.3218 108.118 88.3758 100.395 85.5526C99.2917 89.2351 95.8594 91.8128 92.0594 91.8128C91.4465 91.8128 88.7497 91.9356 86.5432 89.9716C84.5819 88.2531 84.2141 86.0436 84.0915 85.3071C76.4914 89.4806 69.0139 93.6541 61.4138 97.8276C57.8589 99.7916 55.2847 103.351 54.6718 107.279C52.5879 119.677 50.3814 132.075 48.2975 144.35C47.3168 149.873 53.0782 154.17 58.2267 151.715C62.8848 149.505 67.5429 147.296 72.201 145.086C72.4462 147.664 72.5688 150.733 72.4462 154.17C72.4462 155.029 72.4462 155.888 72.4462 156.87C72.4462 156.993 72.4462 156.993 72.4462 157.116C72.4462 158.466 72.3236 159.816 72.201 161.166C72.201 162.026 72.0785 162.885 71.9559 163.744C71.8333 165.831 71.5881 167.918 71.343 169.759C78.2076 171.232 87.1561 172.582 97.6982 172.459C107.75 172.337 116.331 170.864 122.95 169.268C122.95 167.918 122.95 166.445 122.828 165.094C122.828 164.358 122.828 163.499 122.828 162.762C122.828 161.166 122.828 159.693 122.828 158.098C122.828 157.361 122.828 156.502 122.828 155.765C122.828 155.152 122.828 154.538 122.828 153.924C122.95 144.104 123.563 134.775 124.299 125.937L143.421 149.26C145.75 152.206 150.531 151.101 151.389 147.541C155.067 132.075 158.867 116.608 162.544 101.265C157.273 99.5461 159.357 100.16 154.086 98.5641ZM64.4784 137.23C65.9493 132.934 67.4203 128.76 68.7687 124.464C69.7494 128.147 70.3623 131.584 70.8526 134.775C68.7687 135.512 66.5623 136.371 64.4784 137.23Z" fill="#930043"/>
<path d="M109.343 57.934C113.511 54.497 114.247 51.9192 114.002 50.2007C113.511 47.5002 110.202 44.186 110.202 44.186C106.034 40.6263 102.601 39.8898 100.395 40.0125C96.7175 40.1353 96.3497 42.0993 90.7109 43.0813C85.9302 43.9405 84.0915 42.9585 82.0076 44.7997C80.9044 45.7817 80.414 47.132 79.3108 50.078C78.2075 53.024 77.5946 54.497 77.8398 56.2155C78.085 58.4249 79.5559 60.7572 81.2721 62.2302C82.2528 63.0894 83.4786 63.7032 84.2141 65.4217C84.5818 66.1582 84.7044 66.8947 84.827 67.3857C85.4399 66.0354 85.9302 64.1942 86.1754 61.8619C86.298 61.0027 86.298 60.2662 86.1754 59.5297C86.1754 58.7932 86.6657 58.0567 87.4012 57.934C90.7109 57.3202 98.0659 59.8979 106.647 58.5477C107.872 58.3022 108.731 58.1795 109.343 57.934Z" fill="#17313B"/>
<path d="M93.2855 67.8767C93.4081 68.8587 94.021 69.5952 94.5113 69.4724C95.0016 69.3497 95.3694 68.4904 95.2468 67.5084C95.1242 66.5264 94.5113 65.7899 94.021 65.9127C93.5306 66.0354 93.1629 66.8947 93.2855 67.8767Z" fill="#17313B"/>
<path d="M102.724 66.6492C102.847 67.6312 103.459 68.3677 103.95 68.2449C104.44 68.1222 104.808 67.2629 104.685 66.2809C104.563 65.2989 103.95 64.5624 103.459 64.6852C102.847 64.8079 102.601 65.6672 102.724 66.6492Z" fill="#17313B"/>
<path d="M102.479 75.4871C102.479 75.4871 98.5561 76.4691 96.3496 76.3464C96.3496 76.3464 97.0851 79.0469 100.15 78.3104C102.479 77.8194 102.479 75.4871 102.479 75.4871Z" fill="#17313B"/>
<path d="M90.7104 65.5444C90.5878 65.5444 90.4652 65.5444 90.4652 65.4217C90.22 65.2989 90.0975 64.9307 90.3426 64.6852C90.4652 64.5624 92.4265 61.7392 95.6137 62.5984C95.8588 62.7212 96.104 62.9667 95.9814 63.2122C95.8588 63.4577 95.6137 63.7032 95.3685 63.5804C92.9169 62.9667 91.3233 65.1762 91.3233 65.2989C91.0781 65.4217 90.833 65.5444 90.7104 65.5444Z" fill="#17313B"/>
<path d="M100.64 63.4577C100.518 63.4577 100.395 63.4577 100.272 63.3349C100.027 63.0894 100.15 62.7212 100.272 62.5984C102.724 60.5117 105.789 62.1074 105.911 62.1074C106.156 62.2302 106.279 62.5984 106.156 62.8439C106.034 63.0894 105.666 63.2122 105.421 63.0894C105.298 63.0894 102.847 61.7392 101.008 63.4577C100.885 63.4577 100.763 63.4577 100.64 63.4577Z" fill="#17313B"/>
<path d="M98.8009 73.6459C98.5558 73.6459 98.3106 73.5231 98.3106 73.2777C98.188 73.0322 98.3106 72.6639 98.6784 72.6639L101.375 71.6819C98.6784 67.2629 98.6784 67.1402 98.6784 67.1402C98.5558 66.8947 98.6784 66.5264 99.0461 66.5264C99.2913 66.4037 99.659 66.5264 99.659 66.7719C99.7816 67.0174 101.498 69.8407 102.601 71.8047C102.724 71.9274 102.724 72.0502 102.601 72.2957C102.601 72.4184 102.478 72.5412 102.233 72.6639L99.0461 73.6459C98.9235 73.6459 98.9235 73.6459 98.8009 73.6459Z" fill="#17313B"/>
<path d="M95.247 108.752L90.7114 138.703C90.5889 139.194 91.0792 139.685 91.5695 139.685H114.615C115.105 139.685 115.473 139.317 115.473 138.949L120.009 108.875C120.131 108.384 119.641 107.893 119.151 107.893H96.1051C95.6147 108.016 95.247 108.261 95.247 108.752Z" fill="white"/>
<path d="M114.615 140.422H91.5692C91.0788 140.422 90.7111 140.176 90.3433 139.931C90.0982 139.562 89.9756 139.194 89.9756 138.703L94.5111 108.63C94.6337 107.893 95.2466 107.279 95.9821 107.279H119.028C119.518 107.279 119.886 107.525 120.253 107.77C120.499 108.139 120.621 108.507 120.621 108.998L116.086 139.071C115.963 139.808 115.35 140.422 114.615 140.422ZM95.8595 108.752L91.324 138.826C91.324 138.949 91.324 138.949 91.324 138.949C91.324 138.949 91.4466 139.071 91.5692 139.071H114.615C114.737 139.071 114.86 138.949 114.86 138.826L119.395 108.752C119.395 108.63 119.395 108.63 119.395 108.63C119.395 108.63 119.273 108.507 119.15 108.507H96.1047C95.9821 108.63 95.8595 108.63 95.8595 108.752Z" fill="#17313B"/>
<path d="M106.525 126.183C107.879 126.183 108.977 125.139 108.977 123.85C108.977 122.562 107.879 121.518 106.525 121.518C105.171 121.518 104.073 122.562 104.073 123.85C104.073 125.139 105.171 126.183 106.525 126.183Z" fill="white"/>
<path d="M106.525 126.919C104.808 126.919 103.46 125.569 103.46 123.85C103.46 122.132 104.808 120.782 106.525 120.782C108.241 120.782 109.589 122.132 109.589 123.85C109.589 125.569 108.241 126.919 106.525 126.919ZM106.525 122.132C105.544 122.132 104.686 122.868 104.686 123.85C104.686 124.832 105.544 125.569 106.525 125.569C107.505 125.569 108.363 124.832 108.363 123.85C108.363 122.868 107.505 122.132 106.525 122.132Z" fill="#17313B"/>
<path d="M86.4209 130.233C87.1564 130.111 88.137 129.865 89.1177 129.251C90.5887 128.392 91.4468 127.41 92.0597 126.551C92.3048 126.183 92.7952 125.814 93.4081 125.814C96.3501 125.569 96.8404 124.955 98.5566 124.096C101.008 122.868 101.253 121.15 102.97 121.273C103.092 121.273 103.828 121.395 104.44 121.886C105.789 122.991 105.176 125.446 104.931 126.428C104.318 129.251 102.479 130.97 101.744 131.706C100.273 133.179 98.5566 134.039 97.3307 134.53C96.8404 134.652 96.3501 134.775 95.8597 134.775C95.2468 134.775 94.6339 134.652 93.8984 134.775C91.8145 134.898 90.0984 135.634 88.9951 136.125C88.137 134.039 87.279 132.197 86.4209 130.233Z" fill="white"/>
<path d="M88.9949 136.739C88.8723 136.739 88.8723 136.739 88.7497 136.739C88.6272 136.739 88.5046 136.494 88.382 136.371L85.8078 130.602C85.6852 130.479 85.6852 130.233 85.8078 129.988C85.9303 129.865 86.0529 129.742 86.2981 129.62C87.1562 129.497 88.0142 129.129 88.7497 128.638C89.853 128.024 90.711 127.165 91.4465 126.183C91.8143 125.569 92.5498 125.201 93.2853 125.201C95.4918 125.078 96.1047 124.587 97.2079 124.096C97.4531 123.973 97.8208 123.728 98.1886 123.605C99.1692 123.114 99.7821 122.5 100.272 122.009C101.008 121.273 101.621 120.659 102.847 120.659C103.092 120.659 103.95 120.782 104.685 121.395C106.279 122.868 105.666 125.446 105.421 126.551C104.685 129.62 102.724 131.584 102.111 132.197C100.763 133.425 99.2918 134.53 97.4531 135.143C96.8402 135.389 96.3498 135.512 95.7369 135.389C95.124 135.389 94.5111 135.266 93.8982 135.389C92.3046 135.512 90.7111 135.88 89.2401 136.616C89.1175 136.616 89.1175 136.739 88.9949 136.739ZM87.2787 130.602L89.2401 135.143C90.7111 134.53 92.182 134.161 93.7756 134.039C94.5111 134.039 95.124 134.039 95.8595 134.039C96.2273 134.039 96.595 134.039 96.9627 133.916C98.5563 133.302 99.9047 132.32 101.131 131.215C101.743 130.602 103.46 128.883 104.073 126.183C104.318 125.323 104.808 123.114 103.827 122.255C103.46 121.886 102.847 121.886 102.847 121.764C102.234 121.764 101.866 122.009 101.253 122.746C100.64 123.359 99.9047 124.096 98.8015 124.587C98.4337 124.71 98.1886 124.955 97.8208 125.078C96.7176 125.692 95.8595 126.183 93.4079 126.428C93.0401 126.428 92.7949 126.674 92.5498 126.919C91.6917 128.147 90.7111 129.006 89.4852 129.742C88.7497 130.111 88.0142 130.479 87.2787 130.602Z" fill="#17313B"/>
<path d="M83.7236 85.4299L82.0074 86.1664C81.7622 86.2891 81.6396 86.6574 81.6396 86.9029C83.4784 91.4446 88.0139 94.3906 92.9172 94.1451C97.4528 93.8996 101.498 90.9536 103.092 86.6574C103.214 86.4119 103.092 86.0436 102.724 85.9209L101.253 85.4299C100.64 85.1844 99.9044 85.5526 99.5367 86.1664C98.1883 88.8668 95.3689 90.5853 92.1817 90.4626C89.2398 90.3398 86.6655 88.6214 85.4397 86.0436C85.1945 85.5526 84.459 85.1844 83.7236 85.4299Z" fill="#580028"/>
<path d="M85.808 129.006C84.337 129.497 82.9886 130.111 81.5176 130.602C82.866 133.302 84.2144 136.003 85.5628 138.826C86.9112 138.212 88.2596 137.598 89.608 136.985L85.808 129.006Z" fill="#580028"/>
<path d="M153.963 98.4413C153.473 99.7916 152.983 101.142 152.492 102.492L161.318 105.193L162.544 101.265C159.725 100.283 156.905 99.3006 153.963 98.4413Z" fill="#580028"/>
<path d="M122.828 165.094C121.234 164.972 120.376 164.481 119.64 163.99C118.905 163.499 118.415 163.253 117.311 163.253C116.208 163.253 115.718 163.621 114.982 163.99C114.247 164.481 113.266 165.094 111.427 165.094C109.589 165.094 108.608 164.481 107.873 163.99C107.137 163.499 106.647 163.253 105.544 163.253C104.44 163.253 103.95 163.621 103.214 163.99C102.479 164.481 101.498 165.094 99.6596 165.094C97.8208 165.094 96.8402 164.481 96.1047 163.99C95.3692 163.499 94.8789 163.253 93.7756 163.253C92.6724 163.253 92.182 163.621 91.4466 163.99C90.7111 164.481 89.7304 165.094 87.8917 165.094C86.0529 165.094 85.0723 164.481 84.3368 163.99C83.6013 163.499 83.111 163.253 82.0077 163.253C80.9045 163.253 80.4141 163.621 79.6786 163.99C78.9432 164.481 77.9625 165.094 76.1238 165.094C74.285 165.094 73.3044 164.481 72.5689 163.99C72.4463 163.99 72.4463 163.867 72.4463 163.867C72.5689 163.008 72.5689 162.148 72.6915 161.289C73.1818 161.535 73.5495 161.78 73.9173 162.026C74.6528 162.517 75.1431 162.762 76.2463 162.762C77.3496 162.762 77.8399 162.394 78.5754 162.026C79.3109 161.535 80.2916 160.921 82.1303 160.921C83.969 160.921 84.9497 161.535 85.6852 162.026C86.4207 162.517 86.911 162.762 88.0143 162.762C89.1175 162.762 89.6078 162.394 90.3433 162.026C91.0788 161.535 92.0595 160.921 93.8982 160.921C95.7369 160.921 96.7176 161.535 97.4531 162.026C98.1886 162.517 98.6789 162.762 99.7822 162.762C100.885 162.762 101.376 162.394 102.111 162.026C102.847 161.535 103.827 160.921 105.666 160.921C107.505 160.921 108.485 161.535 109.221 162.026C109.956 162.517 110.447 162.762 111.55 162.762C112.653 162.762 113.144 162.394 113.879 162.026C114.615 161.535 115.595 160.921 117.434 160.921C119.273 160.921 120.253 161.535 120.989 162.026C121.602 162.394 122.092 162.639 122.95 162.762C122.705 163.499 122.705 164.235 122.828 165.094Z" fill="#580028"/>
<path d="M122.828 155.643C122.828 156.379 122.828 157.238 122.828 157.975C121.234 157.852 120.376 157.361 119.64 156.87C118.905 156.379 118.415 156.134 117.311 156.134C116.208 156.134 115.718 156.502 114.982 156.87C114.247 157.361 113.266 157.975 111.427 157.975C109.589 157.975 108.608 157.361 107.873 156.87C107.137 156.379 106.647 156.134 105.543 156.134C104.44 156.134 103.95 156.502 103.214 156.87C102.479 157.361 101.498 157.975 99.6595 157.975C97.8208 157.975 96.8401 157.361 96.1046 156.87C95.3691 156.379 94.8788 156.134 93.7756 156.134C92.6723 156.134 92.182 156.502 91.4465 156.87C90.711 157.361 89.7303 157.975 87.8916 157.975C86.0529 157.975 85.0722 157.361 84.3367 156.87C83.6012 156.379 83.1109 156.134 82.0077 156.134C80.9044 156.134 80.4141 156.502 79.6786 156.87C78.9431 157.361 77.9624 157.975 76.1237 157.975C74.4076 157.975 73.4269 157.484 72.6914 156.993C72.6914 156.134 72.6914 155.152 72.6914 154.292C73.0592 154.538 73.4269 154.661 73.6721 154.906C74.4076 155.397 74.8979 155.643 76.0011 155.643C77.1044 155.643 77.5947 155.274 78.3302 154.906C79.0657 154.415 80.0464 153.801 81.8851 153.801C83.7238 153.801 84.7045 154.415 85.44 154.906C86.1755 155.397 86.6658 155.643 87.769 155.643C88.8723 155.643 89.3626 155.274 90.0981 154.906C90.8336 154.415 91.8143 153.801 93.653 153.801C95.4917 153.801 96.4724 154.415 97.2079 154.906C97.9434 155.397 98.4337 155.643 99.5369 155.643C100.64 155.643 101.131 155.274 101.866 154.906C102.601 154.415 103.582 153.801 105.421 153.801C107.26 153.801 108.24 154.415 108.976 154.906C109.711 155.397 110.202 155.643 111.305 155.643C112.408 155.643 112.898 155.274 113.634 154.906C114.369 154.415 115.35 153.801 117.189 153.801C119.028 153.801 120.008 154.415 120.744 154.906C121.479 155.397 121.847 155.643 122.828 155.643Z" fill="#580028"/>
<path d="M72.5684 144.963L85.9298 138.58" stroke="#17313B" stroke-miterlimit="10" stroke-linecap="round"/>
<path d="M70.8525 134.775L81.5172 130.724" stroke="#17313B" stroke-miterlimit="10" stroke-linecap="round"/>
<path d="M68.7686 124.464L70.4847 117.713" stroke="#17313B" stroke-miterlimit="10" stroke-linecap="round"/>
<path d="M124.299 125.937L120.621 121.15" stroke="#231F20" stroke-miterlimit="10" stroke-linecap="round"/>
<path d="M283.016 166.027V168.281C282.927 168.388 282.79 168.504 282.605 168.629C282.421 168.751 282.182 168.857 281.891 168.945C281.599 169.034 281.246 169.078 280.832 169.078C280.465 169.078 280.13 169.018 279.828 168.898C279.526 168.776 279.266 168.598 279.047 168.363C278.831 168.129 278.664 167.842 278.547 167.504C278.43 167.163 278.371 166.773 278.371 166.336V165.98C278.371 165.543 278.427 165.154 278.539 164.812C278.654 164.471 278.816 164.184 279.027 163.949C279.238 163.715 279.49 163.536 279.781 163.414C280.073 163.292 280.397 163.23 280.754 163.23C281.249 163.23 281.655 163.311 281.973 163.473C282.29 163.632 282.533 163.853 282.699 164.137C282.868 164.418 282.973 164.741 283.012 165.105H281.875C281.846 164.913 281.792 164.745 281.711 164.602C281.63 164.458 281.514 164.346 281.363 164.266C281.215 164.185 281.022 164.145 280.785 164.145C280.59 164.145 280.415 164.185 280.262 164.266C280.111 164.344 279.983 164.46 279.879 164.613C279.775 164.767 279.695 164.957 279.641 165.184C279.586 165.41 279.559 165.673 279.559 165.973V166.336C279.559 166.633 279.587 166.896 279.645 167.125C279.702 167.352 279.786 167.543 279.898 167.699C280.013 167.853 280.154 167.969 280.32 168.047C280.487 168.125 280.681 168.164 280.902 168.164C281.087 168.164 281.241 168.148 281.363 168.117C281.488 168.086 281.589 168.048 281.664 168.004C281.742 167.957 281.802 167.913 281.844 167.871V166.863H280.773V166.027H283.016ZM287.777 168.086V169H284.75V168.086H287.777ZM285.133 163.312V169H283.961V163.312H285.133ZM287.383 165.629V166.52H284.75V165.629H287.383ZM287.773 163.312V164.23H284.75V163.312H287.773ZM291.082 163.312V169H289.914V163.312H291.082ZM292.832 163.312V164.23H288.191V163.312H292.832ZM298.938 168.086V169H296.074V168.086H298.938ZM296.453 163.312V169H295.281V163.312H296.453ZM300.855 163.312V169H299.688V163.312H300.855ZM304.914 167.512C304.914 167.41 304.898 167.319 304.867 167.238C304.839 167.155 304.784 167.079 304.703 167.012C304.622 166.941 304.509 166.872 304.363 166.805C304.217 166.737 304.029 166.667 303.797 166.594C303.539 166.51 303.294 166.417 303.062 166.312C302.833 166.208 302.63 166.087 302.453 165.949C302.279 165.809 302.141 165.646 302.039 165.461C301.94 165.276 301.891 165.061 301.891 164.816C301.891 164.579 301.943 164.365 302.047 164.172C302.151 163.977 302.297 163.81 302.484 163.672C302.672 163.531 302.893 163.423 303.148 163.348C303.406 163.272 303.689 163.234 303.996 163.234C304.415 163.234 304.781 163.31 305.094 163.461C305.406 163.612 305.648 163.819 305.82 164.082C305.995 164.345 306.082 164.646 306.082 164.984H304.918C304.918 164.818 304.883 164.672 304.812 164.547C304.745 164.419 304.641 164.319 304.5 164.246C304.362 164.173 304.188 164.137 303.977 164.137C303.773 164.137 303.604 164.168 303.469 164.23C303.333 164.29 303.232 164.372 303.164 164.477C303.096 164.578 303.062 164.693 303.062 164.82C303.062 164.917 303.086 165.004 303.133 165.082C303.182 165.16 303.255 165.233 303.352 165.301C303.448 165.368 303.566 165.432 303.707 165.492C303.848 165.552 304.01 165.611 304.195 165.668C304.505 165.762 304.777 165.867 305.012 165.984C305.249 166.102 305.447 166.233 305.605 166.379C305.764 166.525 305.884 166.69 305.965 166.875C306.046 167.06 306.086 167.27 306.086 167.504C306.086 167.751 306.038 167.973 305.941 168.168C305.845 168.363 305.706 168.529 305.523 168.664C305.341 168.799 305.124 168.902 304.871 168.973C304.618 169.043 304.336 169.078 304.023 169.078C303.742 169.078 303.465 169.042 303.191 168.969C302.918 168.893 302.669 168.78 302.445 168.629C302.224 168.478 302.047 168.285 301.914 168.051C301.781 167.816 301.715 167.539 301.715 167.219H302.891C302.891 167.396 302.918 167.546 302.973 167.668C303.027 167.79 303.104 167.889 303.203 167.965C303.305 168.04 303.424 168.095 303.562 168.129C303.703 168.163 303.857 168.18 304.023 168.18C304.227 168.18 304.393 168.151 304.523 168.094C304.656 168.036 304.754 167.957 304.816 167.855C304.882 167.754 304.914 167.639 304.914 167.512ZM309.426 163.312V169H308.258V163.312H309.426ZM311.176 163.312V164.23H306.535V163.312H311.176ZM315.66 168.086V169H312.633V168.086H315.66ZM313.016 163.312V169H311.844V163.312H313.016ZM315.266 165.629V166.52H312.633V165.629H315.266ZM315.656 163.312V164.23H312.633V163.312H315.656ZM318.09 169H316.852L316.859 168.086H318.09C318.397 168.086 318.656 168.017 318.867 167.879C319.078 167.738 319.237 167.534 319.344 167.266C319.453 166.997 319.508 166.673 319.508 166.293V166.016C319.508 165.724 319.477 165.467 319.414 165.246C319.354 165.025 319.264 164.839 319.145 164.688C319.025 164.536 318.878 164.423 318.703 164.348C318.529 164.27 318.328 164.23 318.102 164.23H316.828V163.312H318.102C318.482 163.312 318.829 163.378 319.145 163.508C319.462 163.635 319.737 163.819 319.969 164.059C320.201 164.298 320.379 164.585 320.504 164.918C320.632 165.249 320.695 165.617 320.695 166.023V166.293C320.695 166.697 320.632 167.065 320.504 167.398C320.379 167.732 320.201 168.018 319.969 168.258C319.74 168.495 319.465 168.678 319.145 168.809C318.827 168.936 318.475 169 318.09 169ZM317.516 163.312V169H316.344V163.312H317.516Z" fill="white"/>
</g>
<defs>
<clipPath id="clip0_47_636">
<rect width="469" height="375" fill="white"/>
</clipPath>
</defs>
</svg>
