<svg width="370" height="279" viewBox="0 0 370 279" fill="none" xmlns="http://www.w3.org/2000/svg">
<path d="M78.1183 212.262C59.2838 219.741 41.2097 229.142 23.8975 240.627C23.0159 233.963 22.2862 227.165 21.8301 220.373L21.7798 219.625L21.1327 219.245C15.1468 215.729 9.03023 212.532 2.79865 209.378C22.3038 196.307 43.0126 185.661 64.3509 177.11C66.6443 182.992 68.9376 188.834 71.2302 194.675L71.2329 194.682C73.5285 200.53 75.8235 206.377 78.1183 212.262Z" fill="#6F0032" stroke="white" stroke-width="2.83885"/>
<path d="M65.4044 175.14L37.374 200.069L71.0104 190.098L65.4044 175.14Z" fill="#9C0148"/>
<path d="M348.867 219.245L348.22 219.625L348.17 220.373C347.714 227.165 346.984 233.963 346.103 240.627C328.79 229.142 310.716 219.741 291.882 212.262C294.177 206.377 296.472 200.53 298.767 194.682L298.768 194.68C301.061 188.838 303.355 182.994 305.649 177.11C326.972 185.655 347.667 196.292 367.159 209.35C360.918 212.402 354.82 215.748 348.867 219.245Z" fill="#6F0032" stroke="white" stroke-width="2.83885"/>
<path d="M304.596 175.14L332.626 200.692L298.99 189.474L304.596 175.14Z" fill="#9C0148"/>
<path d="M320.946 154.637L321.399 153.835L321.125 152.956L316.892 139.389L321.122 126.053L321.402 125.17L320.946 124.363L314.044 112.136L315.38 98.1294L315.468 97.2149L314.862 96.524L305.492 85.8323L303.709 72.0353L303.595 71.1511L302.885 70.6121L291.732 62.1491L287.046 48.7797L286.751 47.9398L285.947 47.5593L273.239 41.5492L266.107 29.5324L265.639 28.7437L264.745 28.542L250.921 25.4254L241.338 15.1899L240.721 14.5305L239.818 14.5162L225.768 14.2935L214.17 6.27627L213.45 5.77852L212.588 5.93121L198.737 8.38489L185.781 3.0322L184.968 2.6963L184.155 3.0322L171.199 8.38489L157.348 5.93121L156.475 5.77653L155.75 6.28738L144.391 14.2935L130.119 14.5161L129.215 14.5302L128.598 15.1899L119.012 25.4284L105.418 28.5437L104.545 28.7437L104.077 29.5076L96.7111 41.5425L83.9895 47.5593L83.1849 47.9398L82.8905 48.7797L78.204 62.1491L67.0513 70.6121L66.341 71.1511L66.2268 72.0353L64.442 85.846L55.2907 96.5432L54.7162 97.2149L54.7862 98.096L55.9022 112.136L49.2086 124.389L48.782 125.17L49.0381 126.022L53.0542 139.389L49.0353 152.987L48.7847 153.835L49.2086 154.611L55.9022 166.864L54.7862 180.904L54.7162 181.785L55.2907 182.457L64.442 193.154L66.2268 206.965L66.341 207.849L67.0513 208.388L78.204 216.851L82.8905 230.22L83.1849 231.06L83.9895 231.441L96.7111 237.458L104.077 249.492L104.545 250.256L105.418 250.456L119.012 253.572L128.598 263.81L129.215 264.47L130.119 264.484L144.391 264.706L155.75 272.713L156.491 273.235L157.381 273.063L171.199 270.392L184.126 275.956L184.968 276.318L185.81 275.956L198.737 270.392L212.555 273.063L213.434 273.233L214.17 272.724L225.768 264.707L239.818 264.484L240.721 264.47L241.338 263.81L250.921 253.575L264.745 250.458L265.639 250.256L266.107 249.468L273.239 237.451L285.947 231.441L286.751 231.06L287.046 230.22L291.732 216.851L302.885 208.388L303.595 207.849L303.709 206.965L305.492 193.168L314.862 182.476L315.468 181.785L315.38 180.871L314.044 166.864L320.946 154.637Z" fill="#ECC875" stroke="white" stroke-width="4.25827"/>
<path d="M300.664 139.384C300.664 202.5 249.814 253.971 186.6 254.67C186.134 254.67 185.667 254.67 185.201 254.67C121.288 254.67 69.7373 202.966 69.7373 139.384C69.7373 75.802 121.521 24.0981 185.201 24.0981C185.667 24.0981 186.134 24.0981 186.6 24.0981C249.58 25.0297 300.664 76.2678 300.664 139.384Z" fill="white"/>
<path d="M157.527 129.362V118.921H161.244C162.478 118.921 163.38 119.18 163.949 119.696C164.519 120.213 164.804 120.914 164.804 121.8C164.804 122.328 164.651 122.807 164.345 123.24C164.039 123.662 163.607 123.931 163.048 124.047V124.062C163.67 124.178 164.16 124.463 164.519 124.917C164.888 125.36 165.073 125.866 165.073 126.435C165.073 127.321 164.74 128.033 164.076 128.571C163.412 129.098 162.462 129.362 161.228 129.362H157.527ZM158.792 128.175H161.529C162.278 128.175 162.832 128.022 163.19 127.717C163.559 127.411 163.744 126.984 163.744 126.435C163.744 125.876 163.559 125.449 163.19 125.154C162.832 124.848 162.278 124.695 161.529 124.695H158.792V128.175ZM158.792 123.509H161.26C162.737 123.509 163.475 122.939 163.475 121.8C163.475 120.672 162.737 120.108 161.26 120.108H158.792V123.509ZM169.602 129.362V118.921H176.926V120.108H170.867V123.477H175.582V124.664H170.867V128.175H177.163V129.362H169.602ZM184.783 118.763C185.701 118.763 186.492 118.953 187.156 119.333C187.821 119.702 188.374 120.25 188.817 120.978L187.757 121.8C187.367 121.125 186.924 120.651 186.429 120.377C185.943 120.092 185.353 119.949 184.657 119.949C184.098 119.949 183.634 120.029 183.265 120.187C182.906 120.345 182.643 120.556 182.474 120.82C182.305 121.073 182.221 121.363 182.221 121.69C182.221 122.059 182.337 122.386 182.569 122.67C182.801 122.945 183.265 123.161 183.961 123.319L186.223 123.825C187.225 124.047 187.921 124.384 188.311 124.838C188.712 125.281 188.912 125.834 188.912 126.499C188.912 127.089 188.743 127.616 188.406 128.08C188.079 128.534 187.615 128.887 187.014 129.14C186.413 129.393 185.706 129.52 184.894 129.52C184.135 129.52 183.465 129.42 182.885 129.219C182.316 129.009 181.825 128.729 181.414 128.381C181.003 128.033 180.665 127.643 180.402 127.21L181.509 126.309C181.709 126.71 181.968 127.063 182.284 127.369C182.6 127.674 182.98 127.912 183.423 128.08C183.876 128.249 184.393 128.334 184.973 128.334C185.511 128.334 185.975 128.27 186.365 128.144C186.766 128.007 187.072 127.812 187.283 127.558C187.494 127.295 187.599 126.978 187.599 126.609C187.599 126.272 187.488 125.971 187.267 125.708C187.046 125.433 186.629 125.228 186.017 125.091L183.565 124.537C182.922 124.389 182.4 124.189 181.999 123.936C181.609 123.672 181.324 123.366 181.145 123.018C180.976 122.66 180.892 122.275 180.892 121.864C180.892 121.305 181.045 120.793 181.351 120.329C181.667 119.855 182.115 119.475 182.695 119.19C183.286 118.905 183.982 118.763 184.783 118.763ZM200.165 118.921V120.108H196.527V129.362H195.261V120.108H191.623V118.921H200.165Z" fill="black"/>
<path d="M160.795 135.085V148.491H157.301V135.085H160.795ZM174.839 135.085V137.786H170.471V148.491H166.977V137.786H162.59V135.085H174.839ZM192.305 137.786H185.378V140.63H190.903V143.332H185.378V148.491H181.885V135.085H192.305V137.786ZM197.613 135.085V148.491H194.119V135.085H197.613ZM206.781 135.085C208.379 135.085 209.618 135.464 210.499 136.222C211.392 136.967 211.839 137.962 211.839 139.208C211.839 140.576 211.399 141.619 210.519 142.336C209.639 143.054 208.4 143.413 206.802 143.413L206.477 143.596H203.816V148.491H200.383V135.085H206.781ZM206.294 141.118C206.971 141.118 207.479 140.982 207.817 140.711C208.156 140.44 208.325 140.007 208.325 139.411C208.325 138.829 208.156 138.402 207.817 138.132C207.479 137.861 206.971 137.725 206.294 137.725H203.816V141.118H206.294ZM208.345 141.849L212.631 148.491H208.772L205.339 142.621L208.345 141.849ZM229.703 135.085V148.491H226.616V142.336L226.717 138.213H226.677L223.366 148.491H220.542L217.231 138.213H217.191L217.292 142.336V148.491H214.184V135.085H219.161L221.274 141.91L222.025 144.754H222.066L222.838 141.93L224.93 135.085H229.703ZM237.71 134.882C238.956 134.882 240.053 135.078 241.001 135.471C241.962 135.85 242.795 136.412 243.499 137.157L241.813 139.411C241.231 138.802 240.601 138.348 239.924 138.05C239.26 137.739 238.502 137.583 237.649 137.583C237.148 137.583 236.742 137.637 236.43 137.746C236.119 137.854 235.895 138.003 235.76 138.193C235.624 138.382 235.557 138.599 235.557 138.843C235.557 139.127 235.685 139.371 235.943 139.574C236.214 139.763 236.647 139.926 237.243 140.061L239.497 140.569C240.838 140.881 241.82 141.334 242.443 141.93C243.066 142.526 243.377 143.318 243.377 144.307C243.377 145.255 243.133 146.06 242.646 146.724C242.158 147.374 241.488 147.868 240.635 148.207C239.782 148.532 238.807 148.694 237.71 148.694C236.816 148.694 235.963 148.599 235.15 148.41C234.338 148.207 233.607 147.922 232.957 147.557C232.307 147.191 231.758 146.771 231.311 146.297L232.997 143.961C233.336 144.354 233.749 144.706 234.236 145.018C234.737 145.316 235.279 145.553 235.861 145.729C236.457 145.905 237.06 145.993 237.669 145.993C238.143 145.993 238.536 145.945 238.847 145.85C239.172 145.756 239.409 145.613 239.558 145.424C239.707 145.234 239.782 145.011 239.782 144.754C239.782 144.469 239.68 144.232 239.477 144.043C239.274 143.839 238.888 143.67 238.319 143.535L235.841 142.986C235.083 142.81 234.406 142.58 233.81 142.296C233.228 141.998 232.767 141.605 232.429 141.118C232.09 140.617 231.921 139.994 231.921 139.249C231.921 138.409 232.151 137.664 232.611 137.014C233.072 136.351 233.735 135.829 234.602 135.45C235.469 135.071 236.505 134.882 237.71 134.882Z" fill="#930043"/>
<path d="M178.442 113.821C178.859 113.821 179.195 113.434 179.195 112.953V105.176H158.204C157.787 105.176 157.451 105.563 157.451 106.044C157.451 106.525 157.787 106.912 158.204 106.912H177.689V112.96C177.689 113.434 178.025 113.821 178.442 113.821Z" fill="#930043"/>
<path d="M140.806 130.993C141.312 130.993 141.719 130.588 141.719 130.086V106.82H147.873C148.379 106.82 148.786 106.415 148.786 105.913C148.786 105.41 148.379 105.005 147.873 105.005H139.893V130.079C139.893 130.588 140.3 130.993 140.806 130.993Z" fill="#930043"/>
<path d="M151.447 147.66C151.447 147.157 151.04 146.752 150.534 146.752H141.71V140.161C141.71 139.658 141.303 139.253 140.797 139.253C140.291 139.253 139.884 139.658 139.884 140.161V148.567H150.534C151.04 148.567 151.447 148.163 151.447 147.66Z" fill="#930043"/>
<path d="M143.825 115.136C144 115.311 144.232 115.402 144.471 115.402C144.71 115.402 144.935 115.311 145.117 115.136L161.8 98.5533L166.436 103.162C166.795 103.518 167.371 103.518 167.722 103.162C168.08 102.805 168.08 102.233 167.722 101.884L161.8 95.9907L143.825 113.859C143.467 114.208 143.467 114.78 143.825 115.136Z" fill="#930043"/>
<path d="M149.48 144.964C149.712 144.964 149.944 144.874 150.126 144.699C150.485 144.343 150.485 143.77 150.126 143.421L133.394 126.789L138.101 122.111C138.459 121.755 138.459 121.183 138.101 120.833C137.742 120.477 137.166 120.477 136.815 120.833L130.816 126.789L148.834 144.699C149.017 144.881 149.248 144.964 149.48 144.964Z" fill="#930043"/>
<path d="M257.476 74.3926C257.476 74.3926 258.532 75.4507 259.324 76.5088C260.379 77.5669 261.171 78.625 261.171 78.625C261.171 78.625 261.435 77.3024 261.698 75.9798C261.962 74.6571 262.226 73.3345 262.226 73.3345C262.49 71.7473 262.49 69.8956 261.962 68.3085C261.435 66.7213 260.379 65.1341 259.06 63.8115C259.06 63.8115 258.796 63.547 258.268 63.2824C257.74 63.0179 257.213 62.4888 256.685 61.9598C255.629 60.9017 254.31 59.8436 254.31 59.8436C254.31 59.8436 254.31 61.1662 254.046 62.4888C254.046 63.8115 253.782 65.1341 253.782 65.1341C253.782 66.7213 253.782 68.573 254.574 70.1601C255.365 71.7473 256.157 73.07 257.476 74.3926Z" fill="#DDDDDD"/>
<path d="M266.976 86.2964C267.768 87.3545 268.56 88.6771 268.56 88.6771C268.56 88.6771 269.087 87.3545 269.615 86.2964C270.143 84.9737 270.671 83.6511 270.671 83.6511C271.726 80.4768 271.198 76.5088 268.56 73.8636C268.56 73.8636 267.504 72.5409 266.712 71.4828C265.393 70.4247 264.338 69.3666 264.338 69.3666C264.338 69.3666 264.074 70.6892 263.81 72.0119C263.546 73.3345 263.282 74.6572 263.282 74.6572C262.49 78.096 263.282 81.5349 265.393 84.1801C265.393 84.1801 266.185 85.2383 266.976 86.2964Z" fill="#DDDDDD"/>
<path d="M270.671 89.735C270.671 91.3222 271.199 93.1739 271.99 94.4965C271.99 94.4965 272.254 94.761 272.518 95.2901C272.782 95.8191 273.046 96.3482 273.31 97.1418C273.838 98.4644 274.629 99.7871 274.629 99.7871C274.629 99.7871 275.157 98.7289 275.949 97.4063C276.476 96.3482 277.268 95.0256 277.268 95.0256C278.059 93.4384 278.323 91.8512 278.323 89.9995C278.059 88.1478 277.796 86.5607 276.74 84.9735C276.74 84.9735 275.949 83.6509 275.157 82.3282C274.629 81.7992 274.365 81.0056 274.101 80.4765C273.838 79.9475 273.574 79.683 273.574 79.683C273.574 79.683 273.046 81.0056 272.782 82.3282C272.254 83.6509 271.99 84.9735 271.99 84.9735C270.671 86.5607 270.407 88.1478 270.671 89.735Z" fill="#DDDDDD"/>
<path d="M277.003 106.136C277.003 106.136 277.531 107.458 277.795 108.781C278.059 109.31 278.323 110.104 278.323 110.633C278.587 111.162 278.587 111.426 278.587 111.426C278.587 111.426 279.378 110.368 280.17 109.31C280.961 108.252 281.753 107.194 281.753 107.194C282.808 105.871 283.336 104.019 283.336 102.432C283.336 100.581 283.072 98.9934 282.281 97.1417L279.642 91.5866C279.642 91.5866 279.114 92.9092 278.323 93.9674C277.795 95.29 277.003 96.3481 277.003 96.3481C276.212 99.2579 275.948 102.961 277.003 106.136Z" fill="#DDDDDD"/>
<path d="M280.433 113.013C280.169 114.601 280.169 116.452 280.433 118.039C280.433 118.039 280.697 119.362 280.961 120.685C281.225 121.478 281.225 122.007 281.225 122.536C281.225 123.065 281.489 123.33 281.489 123.33C281.489 123.33 282.544 122.272 283.336 121.478C284.391 120.42 285.183 119.627 285.183 119.627C286.238 118.304 287.03 116.717 287.558 115.13C287.822 113.278 287.822 111.691 287.294 109.839C287.294 109.839 287.03 108.252 286.502 106.929C285.975 105.607 285.447 104.019 285.447 104.019C285.447 104.019 284.655 105.078 283.864 106.4C283.072 107.458 282.28 108.516 282.28 108.516C281.489 109.575 280.961 111.162 280.433 113.013Z" fill="#DDDDDD"/>
<path d="M285.711 120.949C283.337 123.33 282.281 126.769 282.545 130.208C282.545 130.208 282.545 131.53 282.809 133.117C282.809 134.44 282.809 136.027 282.809 136.027C282.809 136.027 283.864 135.234 284.92 134.44C285.975 133.647 287.031 132.853 287.031 132.853C289.406 130.737 290.989 127.033 290.197 123.33C290.197 123.33 289.933 121.743 289.67 120.42C289.406 118.833 289.142 117.51 289.142 117.51C289.142 117.51 288.35 118.568 287.295 119.627C286.767 120.156 285.711 120.949 285.711 120.949Z" fill="#DDDDDD"/>
<path d="M287.294 133.911C285.974 134.969 284.919 136.292 284.127 137.879C283.336 139.466 282.808 141.053 282.808 142.64L282.544 148.195C282.544 148.195 283.599 147.402 284.655 146.873C285.71 146.079 286.766 145.55 286.766 145.55C288.085 144.757 289.405 143.434 290.196 141.847C290.988 140.26 291.516 138.408 291.516 136.556C291.516 136.556 291.516 134.969 291.516 133.382C291.516 132.588 291.516 131.795 291.516 131.266C291.516 130.737 291.516 130.208 291.516 130.208C291.516 130.208 290.196 131.266 289.141 132.324C288.349 133.117 287.294 133.911 287.294 133.911Z" fill="#DDDDDD"/>
<path d="M287.031 147.137C286.24 147.666 285.712 148.195 285.184 148.725C284.657 149.254 284.129 150.047 283.601 150.576C282.546 151.899 282.018 153.486 281.754 155.338C281.754 155.338 281.49 156.66 281.226 157.983C280.962 159.306 280.435 160.628 280.435 160.628C280.435 160.628 281.754 160.099 282.809 159.57C284.129 159.041 285.184 158.512 285.184 158.512C288.087 157.189 290.198 153.751 290.726 150.047C290.726 150.047 290.726 149.783 290.989 148.989C290.989 148.46 290.989 147.666 290.989 146.873C290.989 145.286 291.253 143.699 291.253 143.699C291.253 143.699 290.198 144.492 289.142 145.286C288.087 146.344 287.031 147.137 287.031 147.137Z" fill="#DDDDDD"/>
<path d="M284.919 159.835C281.752 161.158 279.377 163.803 278.586 167.242L276.739 172.532C276.739 172.532 278.058 172.268 279.377 171.739C280.697 171.474 282.016 170.945 282.016 170.945C283.599 170.416 285.183 169.622 286.238 168.3C287.294 166.977 288.085 165.39 288.613 163.538C288.613 163.538 288.877 161.951 289.405 160.629C289.669 159.835 289.669 159.041 289.932 158.512C289.932 157.983 290.196 157.454 290.196 157.454C290.196 157.454 289.141 157.983 287.821 158.777C286.238 159.306 284.919 159.835 284.919 159.835Z" fill="#DDDDDD"/>
<path d="M281.225 172.532C279.642 173.061 278.058 173.855 277.003 174.913C275.684 175.971 274.628 177.294 273.836 178.881C273.836 178.881 273.309 180.204 272.517 181.526C272.253 182.055 271.989 182.849 271.726 183.378C271.462 183.907 271.198 184.171 271.198 184.171C271.198 184.171 272.517 184.171 273.836 183.907C275.156 183.642 276.475 183.378 276.475 183.378C278.058 183.113 279.642 182.32 280.961 181.262C282.28 180.204 283.6 178.616 284.128 177.029L286.502 170.945C286.502 170.945 285.183 171.474 283.864 171.739C282.544 172.003 281.225 172.532 281.225 172.532Z" fill="#DDDDDD"/>
<path d="M275.948 184.436C274.365 184.7 272.782 185.229 271.198 186.287C269.879 187.081 268.56 188.404 267.768 189.726C267.768 189.726 267.504 189.991 267.24 190.52C266.976 191.049 266.449 191.578 266.185 192.107C265.393 193.165 264.602 194.223 264.602 194.223C264.602 194.223 265.921 194.223 267.24 194.223C268.56 194.223 269.879 194.223 269.879 194.223C273.309 194.223 276.476 191.842 278.323 188.668C278.323 188.668 279.115 187.346 279.906 186.023C280.698 184.7 281.226 183.378 281.226 183.378C281.226 183.378 279.906 183.642 278.587 183.907C277.267 184.171 275.948 184.436 275.948 184.436Z" fill="#DDDDDD"/>
<path d="M245.602 77.3025C245.866 77.567 246.13 77.8315 246.13 77.8315C247.185 78.8896 248.505 79.6832 250.088 79.9477C251.407 80.4768 252.99 80.4768 254.838 80.2123C254.838 80.2123 256.157 79.9477 257.476 79.9477C258.796 79.9477 260.115 79.6832 260.115 79.6832C260.115 79.6832 259.323 78.6251 258.268 77.567C256.949 76.7734 256.157 75.7153 256.157 75.7153C255.101 74.3926 253.518 73.5991 251.935 73.07C250.352 72.541 248.768 72.541 247.185 73.07C247.185 73.07 245.866 73.3345 244.81 73.8636C243.491 74.1281 242.436 74.6572 242.436 74.6572C242.436 74.6572 243.491 75.4508 244.283 76.2443C244.547 76.5089 245.074 77.0379 245.602 77.3025Z" fill="#DDDDDD"/>
<path d="M261.698 89.4703C261.698 89.4703 263.017 89.4703 264.337 89.4703C265.656 89.4703 266.975 89.4703 266.975 89.4703C266.975 89.4703 266.184 88.4122 265.392 87.0896C264.6 86.0315 263.809 84.9734 263.809 84.9734C261.962 82.3281 258.531 80.7409 255.365 81.27C255.365 81.27 254.045 81.5345 252.726 81.5345C251.407 81.799 250.087 82.0635 250.087 82.0635C250.087 82.0635 250.879 82.8571 251.671 83.9152C252.462 84.9734 253.254 85.7669 253.254 85.7669C255.629 88.4122 258.531 89.7348 261.698 89.4703Z" fill="#DDDDDD"/>
<path d="M270.67 96.0836C270.406 95.5545 270.142 95.29 270.142 95.29C269.351 93.7028 268.295 92.6447 266.712 91.8512C265.393 91.0576 263.809 90.5285 262.226 90.5285C262.226 90.5285 260.907 90.5285 259.587 90.5285C258.268 90.5285 256.949 90.5285 256.949 90.5285C256.949 90.5285 257.213 90.793 257.476 91.0576C257.74 91.3221 258.004 91.8512 258.532 92.3802C259.324 93.4383 259.851 94.4964 259.851 94.4964C260.643 95.8191 261.698 96.8772 263.018 97.6708C264.337 98.4643 265.92 98.9934 267.504 99.2579C267.504 99.2579 268.823 99.5225 270.142 99.5225C271.462 99.787 272.781 100.052 272.781 100.052C272.781 100.052 272.253 98.7289 271.462 97.6708C271.198 97.1417 270.934 96.6127 270.67 96.0836Z" fill="#DDDDDD"/>
<path d="M276.211 109.31C275.683 107.987 275.42 106.665 275.42 106.665C274.1 103.49 271.462 101.374 268.295 100.845C268.295 100.845 266.976 100.581 265.656 100.581C264.337 100.581 263.018 100.316 263.018 100.316L265.392 104.813C265.92 106.136 266.976 107.458 268.031 108.252C269.087 109.31 270.67 109.839 272.253 110.368C272.253 110.368 273.572 110.633 274.892 111.162C276.211 111.426 277.267 111.955 277.267 111.955C277.267 111.955 277.267 111.691 277.003 111.162C276.739 110.633 276.475 109.839 276.211 109.31Z" fill="#DDDDDD"/>
<path d="M270.143 110.897C268.824 110.632 267.769 110.368 267.769 110.368C267.769 110.368 268.296 111.426 268.56 112.749C269.088 113.807 269.352 115.129 269.352 115.129C269.616 116.717 270.671 117.775 271.463 119.097C272.518 120.155 273.838 121.214 275.157 121.743C275.157 121.743 276.476 122.272 277.532 122.801C278.587 123.33 279.907 123.859 279.907 123.859C279.907 123.859 279.907 123.594 279.907 123.065C279.907 122.536 279.643 122.007 279.643 121.214C279.379 119.891 279.115 118.568 279.115 118.568C278.851 116.981 278.06 115.394 276.74 114.336C275.685 113.278 274.365 112.22 272.782 111.955C272.518 111.691 271.199 111.161 270.143 110.897Z" fill="#DDDDDD"/>
<path d="M280.961 133.117C280.961 131.795 280.697 130.472 280.697 130.472C280.433 127.033 278.322 124.123 275.42 123.065C275.42 123.065 274.1 122.536 273.045 122.007C271.725 121.478 270.67 121.213 270.67 121.213C270.67 121.213 270.934 122.536 271.198 123.594C271.462 124.917 271.462 125.975 271.462 125.975C271.989 128.885 273.836 131.53 276.739 133.117C276.739 133.117 277.794 133.646 278.85 134.44C279.905 135.233 280.961 135.762 280.961 135.762C280.961 135.762 280.961 134.44 280.961 133.117Z" fill="#DDDDDD"/>
<path d="M280.962 142.64C280.962 141.053 280.698 139.201 279.906 137.879C279.115 136.556 278.059 135.233 276.74 134.44C276.74 134.44 275.684 133.646 274.629 133.117C273.573 132.588 272.254 131.795 272.254 131.795C272.254 131.795 272.254 132.059 272.254 132.588C272.254 133.117 272.254 133.646 272.254 134.175C272.254 135.498 272.254 136.556 272.254 136.556C272.254 138.143 272.782 139.466 273.309 140.789C274.101 142.111 274.893 143.434 276.212 144.227C276.212 144.227 277.267 145.021 278.323 145.815C279.378 146.608 280.434 147.402 280.434 147.402L280.962 142.64Z" fill="#DDDDDD"/>
<path d="M279.377 157.454C279.641 156.131 279.905 154.809 279.905 154.809C280.169 153.221 279.905 151.37 279.377 150.047C279.113 149.254 278.85 148.724 278.322 147.931C277.794 147.402 277.266 146.608 276.475 146.079C276.475 146.079 275.419 145.286 274.364 144.492C273.308 143.698 272.253 142.905 272.253 142.905C272.253 142.905 272.253 144.228 272.253 145.286C272.253 145.815 272.253 146.608 272.253 146.873C272.253 147.402 272.253 147.666 272.253 147.666C271.725 150.576 273.044 153.751 275.419 156.131C275.419 156.131 276.211 156.925 277.266 157.983C278.058 159.041 279.113 159.835 279.113 159.835C279.113 159.835 278.85 158.777 279.377 157.454Z" fill="#DDDDDD"/>
<path d="M274.892 171.739L276.74 166.713C277.795 163.538 276.74 160.099 274.629 157.719C274.629 157.719 273.837 156.925 272.781 155.867C271.726 155.073 270.934 154.015 270.934 154.015C270.934 154.015 270.934 154.28 270.934 154.809C270.934 155.338 270.67 155.867 270.67 156.396C270.407 157.719 270.143 158.777 270.143 158.777C269.879 160.364 269.879 161.686 270.143 163.274C270.407 164.861 270.934 166.183 271.99 167.506C271.99 167.506 272.781 168.564 273.573 169.622C274.365 170.68 274.892 171.739 274.892 171.739Z" fill="#DDDDDD"/>
<path d="M269.879 183.113C269.879 183.113 270.143 182.849 270.406 182.319C270.67 181.79 270.934 181.261 271.198 180.732C271.726 179.41 272.254 178.352 272.254 178.352C273.045 176.764 273.309 175.177 273.045 173.59C272.781 172.003 272.254 170.416 271.198 169.093C271.198 169.093 270.406 168.035 269.615 166.977C268.823 165.919 268.032 165.125 268.032 165.125L266.448 169.887C265.921 171.209 265.657 172.796 265.657 174.384C265.657 175.971 266.184 177.293 266.976 178.881C266.976 178.881 267.504 179.939 268.295 181.261C269.351 181.79 269.879 183.113 269.879 183.113Z" fill="#DDDDDD"/>
<path d="M262.49 190.785C263.018 192.107 263.281 193.166 263.281 193.166C263.281 193.166 264.073 192.107 264.865 191.049C265.392 190.52 265.656 189.991 265.92 189.462C266.184 188.933 266.448 188.669 266.448 188.669C267.24 187.346 267.767 185.759 268.031 184.172C268.031 182.584 267.767 180.997 266.976 179.675C266.976 179.675 266.448 178.617 265.656 177.294C264.865 176.236 264.337 175.178 264.337 175.178C264.337 175.178 262.226 179.675 261.962 179.675C260.379 182.32 260.379 185.494 261.434 188.669C261.434 188.404 261.962 189.462 262.49 190.785Z" fill="#DDDDDD"/>
<path d="M254.838 200.043C255.102 201.365 255.366 202.688 255.366 202.688L259.06 198.72C260.116 197.397 260.907 195.81 261.171 194.223C261.435 192.636 261.171 191.049 260.644 189.462C260.644 189.462 260.116 188.404 259.852 187.081C259.324 186.023 258.796 184.7 258.796 184.7C258.796 184.7 258.533 184.965 258.269 185.229C258.005 185.494 257.741 186.023 257.213 186.552C256.422 187.61 255.63 188.668 255.63 188.668C254.574 189.991 254.311 191.313 253.783 192.9C253.519 194.223 253.519 195.81 253.783 197.397C254.311 197.397 254.574 198.72 254.838 200.043Z" fill="#DDDDDD"/>
<path d="M246.922 69.1019C248.505 70.4246 250.616 71.2182 252.991 71.2182C252.991 68.8374 251.672 66.9857 250.088 65.3986C248.241 64.0759 246.13 63.2823 243.755 63.5469C244.019 65.9276 245.339 67.7793 246.922 69.1019Z" fill="#DDDDDD"/>
<path d="M124.662 77.6082C124.399 77.8728 124.135 78.1373 124.135 78.1373C123.079 79.1954 121.76 79.989 120.177 80.2535C118.857 80.7826 117.274 80.7826 115.427 80.5181C115.427 80.5181 114.108 80.2535 112.788 80.2535C111.469 80.2535 110.149 79.989 110.149 79.989C110.149 79.989 110.941 78.9309 111.997 77.8728C113.052 77.0792 114.108 76.0211 114.108 76.0211C115.163 74.6984 116.746 73.9049 118.329 73.3758C119.913 72.8468 121.496 72.8468 123.079 73.3758C123.079 73.3758 124.399 73.6403 125.454 74.1694C126.773 74.4339 127.829 74.963 127.829 74.963C127.829 74.963 126.773 75.7566 125.982 76.5501C125.454 76.8147 124.926 77.3437 124.662 77.6082Z" fill="#DDDDDD"/>
<path d="M108.302 89.7761C108.302 89.7761 106.983 89.7761 105.664 89.7761C104.344 89.7761 103.025 89.7761 103.025 89.7761C103.025 89.7761 103.817 88.718 104.608 87.3954C105.4 86.3373 106.191 85.2791 106.191 85.2791C108.038 82.6339 111.469 81.0467 114.635 81.5758C114.635 81.5758 115.955 81.8403 117.274 81.8403C118.593 82.1048 119.913 82.3693 119.913 82.3693C119.913 82.3693 118.857 83.4275 118.066 84.4856C117.274 85.5437 116.482 86.3373 116.482 86.3373C114.371 88.718 111.469 90.0406 108.302 89.7761Z" fill="#DDDDDD"/>
<path d="M99.3309 96.3893C99.5948 96.1248 99.5948 95.8603 99.5948 95.8603C100.386 94.2731 101.442 93.215 103.025 92.4214C104.344 91.6278 105.928 91.0988 107.511 91.0988C107.511 91.0988 108.83 91.0988 110.15 91.0988C111.469 91.0988 112.788 91.0988 112.788 91.0988C112.788 91.0988 112.525 91.3633 112.261 91.6278C111.997 91.8923 111.733 92.4214 111.205 92.9505C110.414 94.0086 109.886 95.0667 109.886 95.0667C109.094 96.3893 108.039 97.4474 106.719 98.241C105.4 99.0346 103.817 99.5636 102.234 99.8282C102.234 99.8282 100.914 100.093 99.5948 100.093C98.2754 100.357 96.9561 100.622 96.9561 100.622C96.9561 100.622 97.4838 99.2991 98.2754 98.241C98.8032 97.4474 99.067 96.9184 99.3309 96.3893Z" fill="#DDDDDD"/>
<path d="M93.7894 109.616C94.3171 108.293 94.581 106.97 94.581 106.97C95.9004 103.796 98.5391 101.68 101.706 101.151C101.706 101.151 103.025 100.886 104.344 100.886C105.664 100.886 106.983 100.622 106.983 100.622L104.608 105.119C104.08 106.441 103.025 107.764 101.969 108.558C100.914 109.616 99.3307 110.145 97.7475 110.674C97.7475 110.674 96.4281 110.938 95.1087 111.467C93.7894 111.732 92.7339 112.261 92.7339 112.261C92.7339 112.261 92.7339 111.996 92.9978 111.467C93.2616 110.938 93.5255 110.145 93.7894 109.616Z" fill="#DDDDDD"/>
<path d="M100.122 111.203C101.442 110.938 102.497 110.674 102.497 110.674C102.497 110.674 101.969 111.732 101.705 113.054C101.178 114.113 100.914 115.435 100.914 115.435C100.65 117.022 99.5944 118.08 98.8028 119.403C97.7473 120.461 96.428 121.519 95.1086 122.048C95.1086 122.048 93.7892 122.577 92.7337 123.107C91.6783 123.636 90.3589 124.165 90.3589 124.165C90.3589 124.165 90.3589 123.9 90.3589 123.371C90.3589 122.842 90.6228 122.313 90.6228 121.519C90.8866 120.197 91.1505 118.874 91.1505 118.874C91.4144 117.287 92.206 115.7 93.5254 114.642C94.5809 113.584 95.9002 112.525 97.4835 112.261C97.4835 111.996 98.8028 111.467 100.122 111.203Z" fill="#DDDDDD"/>
<path d="M89.0396 133.423C89.0396 132.1 89.3034 130.778 89.3034 130.778C89.5673 127.339 91.6783 124.429 94.5809 123.371C94.5809 123.371 95.9002 122.842 96.9557 122.313C98.2751 121.784 99.3306 121.519 99.3306 121.519C99.3306 121.519 99.0667 122.842 98.8028 123.9C98.8028 124.958 98.539 126.281 98.539 126.281C98.0112 129.191 96.1641 131.836 93.2615 133.423C93.2615 133.423 92.206 133.952 91.1505 134.746C90.095 135.539 89.0396 136.333 89.0396 136.333C89.0396 136.333 89.0396 134.746 89.0396 133.423Z" fill="#DDDDDD"/>
<path d="M89.0396 142.946C89.0396 141.359 89.3034 139.507 90.095 138.185C90.8867 136.862 91.9422 135.539 93.2615 134.746C93.2615 134.746 94.317 133.952 95.3725 133.423C96.428 132.894 97.7474 132.1 97.7474 132.1C97.7474 132.1 97.7474 132.365 97.7474 132.894C97.7474 133.423 97.7474 133.952 97.7474 134.481C97.7474 135.804 97.7474 136.862 97.7474 136.862C97.7474 138.449 97.2196 139.772 96.6919 141.094C95.9002 142.417 95.1086 143.74 93.7893 144.533C93.7893 144.533 92.7338 145.327 91.6783 146.12C90.6228 146.914 89.5673 147.707 89.5673 147.707L89.0396 142.946Z" fill="#DDDDDD"/>
<path d="M90.8861 157.76C90.6223 156.437 90.3584 155.114 90.3584 155.114C90.0945 153.527 90.3584 151.676 90.8861 150.353C91.15 149.559 91.4139 149.03 91.9416 148.237C92.4694 147.708 92.9971 146.914 93.7887 146.385C93.7887 146.385 94.8442 145.591 95.8997 144.798C96.9552 144.004 98.0107 143.211 98.0107 143.211C98.0107 143.211 98.0107 144.533 98.0107 145.591C98.0107 146.12 98.0107 146.914 98.0107 147.179C98.0107 147.708 98.0107 147.972 98.0107 147.972C98.5385 150.882 97.2191 154.056 94.8442 156.437C94.8442 156.437 94.0526 157.231 92.9971 158.289C92.2055 159.347 91.15 160.14 91.15 160.14C91.15 160.14 91.15 159.082 90.8861 157.76Z" fill="#DDDDDD"/>
<path d="M95.1084 172.044L93.2612 167.018C92.2058 163.844 93.2612 160.405 95.3722 158.024C95.3722 158.024 96.1638 157.231 97.2193 156.173C98.2748 155.379 99.0664 154.321 99.0664 154.321C99.0664 154.321 99.0664 154.586 99.0664 155.115C99.0664 155.644 99.3303 156.173 99.3303 156.702C99.5942 158.024 100.122 159.082 100.122 159.082C100.386 160.67 100.386 161.992 100.122 163.579C99.8581 165.167 99.3303 166.489 98.2748 167.812C98.2748 167.812 97.4832 168.87 96.6916 169.928C95.9 170.986 95.1084 172.044 95.1084 172.044Z" fill="#DDDDDD"/>
<path d="M100.122 183.419C100.122 183.419 99.858 183.154 99.5941 182.625C99.3303 182.096 99.0664 181.567 98.8025 181.038C98.2748 179.716 97.747 178.657 97.747 178.657C96.9554 176.806 96.6915 175.219 96.9554 173.631C97.2193 172.044 97.747 170.457 98.8025 169.134C98.8025 169.134 99.5941 168.076 100.386 167.018C101.177 165.96 101.969 165.167 101.969 165.167L103.552 169.928C104.08 171.251 104.344 172.838 104.344 174.425C104.344 176.012 103.816 177.335 103.024 178.922C103.024 178.922 102.497 179.98 101.705 181.303C100.65 182.096 100.122 183.419 100.122 183.419Z" fill="#DDDDDD"/>
<path d="M107.774 191.091C107.246 192.413 106.982 193.471 106.982 193.471C106.982 193.471 106.191 192.413 105.399 191.355C104.871 190.826 104.607 190.297 104.343 189.768C104.08 189.239 103.816 188.974 103.816 188.974C102.76 187.652 102.232 186.065 102.232 184.477C102.232 182.89 102.496 181.303 103.288 179.98C103.288 179.98 103.816 178.922 104.607 177.6C105.399 176.542 105.927 175.484 105.927 175.484C105.927 175.484 108.038 179.98 108.301 179.98C109.885 182.626 109.885 185.8 108.829 188.974C108.565 188.71 108.038 189.768 107.774 191.091Z" fill="#DDDDDD"/>
<path d="M115.163 200.349C114.899 201.671 114.635 202.994 114.635 202.994L110.941 199.026C109.885 197.703 109.093 196.116 108.83 194.529C108.566 192.942 108.83 191.355 109.357 189.767C109.357 189.767 109.885 188.709 110.149 187.387C110.677 186.329 111.204 185.006 111.204 185.006C111.204 185.006 111.468 185.27 111.732 185.535C111.996 185.8 112.26 186.329 112.788 186.858C113.579 187.916 114.371 188.974 114.371 188.974C115.426 190.296 115.69 191.619 116.218 193.206C116.482 194.529 116.482 196.116 116.218 197.703C115.954 197.703 115.69 199.026 115.163 200.349Z" fill="#DDDDDD"/>
<path d="M112.788 74.6984C112.788 74.6984 111.732 75.7565 110.941 76.8146C109.885 77.8727 109.093 78.9308 109.093 78.9308C109.093 78.9308 108.83 77.6082 108.566 76.2856C108.302 74.9629 108.038 73.6403 108.038 73.6403C107.51 72.0531 107.51 70.2014 108.038 68.6143C108.566 67.0271 109.621 65.4399 110.941 64.1173C110.941 64.1173 111.204 63.8528 111.732 63.5882C112.26 63.3237 112.788 62.7946 113.315 62.2656C114.371 61.2075 115.69 60.1494 115.69 60.1494C115.69 60.1494 115.69 61.472 115.954 62.7946C115.954 64.1173 116.218 65.4399 116.218 65.4399C116.218 67.0271 116.218 68.8788 115.426 70.4659C114.899 72.0531 113.843 73.3757 112.788 74.6984Z" fill="#DDDDDD"/>
<path d="M103.025 86.6022C102.234 87.6603 101.442 88.9829 101.442 88.9829C101.442 88.9829 101.178 87.9248 100.65 86.6022C100.123 85.2795 99.5949 83.9569 99.5949 83.9569C98.5394 80.7826 99.3311 77.0792 101.706 74.1694C101.706 74.1694 102.761 72.8467 103.553 71.7886C104.609 70.7305 105.664 69.6724 105.664 69.6724C105.664 69.6724 105.928 70.995 106.192 72.3177C106.456 73.6403 106.72 74.9629 106.72 74.9629C107.511 78.4018 106.72 81.8407 104.609 84.4859C104.609 84.4859 103.817 85.5441 103.025 86.6022Z" fill="#DDDDDD"/>
<path d="M99.5942 90.0408C99.5942 91.628 99.0665 93.4797 98.2748 94.8023C98.2748 94.8023 98.011 95.0668 97.7471 95.5959C97.4832 96.1249 97.2194 96.654 96.9555 97.4476C96.4277 98.7702 95.6361 100.093 95.6361 100.093C95.6361 100.093 95.1084 98.7702 94.3168 97.7121C93.789 96.654 92.9974 95.3314 92.9974 95.3314C92.2058 93.7442 91.9419 92.157 91.9419 90.3053C92.2058 88.4536 92.4696 86.8665 93.5251 85.2793C93.5251 85.2793 94.3168 83.9567 95.1084 82.634C95.9 81.8405 96.1639 81.3114 96.6916 80.7823C96.9555 80.2533 97.2194 79.9888 97.2194 79.9888C97.2194 79.9888 97.7471 81.3114 98.011 82.634C98.5387 83.9567 98.8026 85.2793 98.8026 85.2793C99.5942 86.8665 99.5942 88.4536 99.5942 90.0408Z" fill="#DDDDDD"/>
<path d="M92.9972 106.441C92.9972 106.441 92.4695 107.764 92.2056 109.087C91.9417 109.616 91.6778 110.409 91.414 110.674C91.1501 111.203 91.1501 111.468 91.1501 111.468C91.1501 111.468 90.3585 110.409 89.5669 109.351C88.7752 108.293 87.9836 107.235 87.9836 107.235C87.192 105.912 86.4004 104.325 86.4004 102.474C86.4004 100.622 86.6643 99.0347 87.4559 97.183L90.0946 91.628C90.0946 91.628 90.6224 92.9506 91.414 94.0087C91.9417 95.3313 92.7333 96.3894 92.7333 96.3894C94.0527 99.5638 94.3166 103.267 92.9972 106.441Z" fill="#DDDDDD"/>
<path d="M89.5671 113.319C89.831 114.906 89.831 116.758 89.5671 118.345C89.5671 118.345 89.3033 119.668 89.0394 120.99C88.7755 121.784 88.7755 122.313 88.7755 122.842C88.7755 123.371 88.5116 123.636 88.5116 123.636C88.5116 123.636 87.4562 122.842 86.4007 121.784C85.3452 120.726 84.5536 119.932 84.5536 119.932C83.4981 118.61 82.7064 117.023 82.1787 115.435C81.9148 113.584 81.9148 111.997 82.4426 110.145C82.4426 110.145 82.7064 108.558 83.2342 107.235C83.7619 105.912 84.2897 104.325 84.2897 104.325C84.2897 104.325 85.0813 105.383 85.8729 106.706C86.6645 107.764 87.4562 108.822 87.4562 108.822C88.5116 109.88 89.3033 111.467 89.5671 113.319Z" fill="#DDDDDD"/>
<path d="M84.2889 121.255C86.6638 123.636 87.7193 127.075 87.4554 130.513C87.4554 130.513 87.4554 131.836 87.1915 133.423C87.1915 134.746 87.1915 136.333 87.1915 136.333C87.1915 136.333 86.136 135.539 85.0805 134.746C84.0251 133.952 82.9696 133.159 82.9696 133.159C80.5947 131.043 79.0115 127.339 79.8031 123.636C79.8031 123.636 80.067 122.049 80.3308 120.726C80.5947 119.139 80.8586 117.816 80.8586 117.816C80.8586 117.816 81.6502 118.874 82.7057 119.932C83.4973 120.461 84.2889 121.255 84.2889 121.255Z" fill="#DDDDDD"/>
<path d="M82.9707 134.217C84.2901 135.275 85.3456 136.598 86.1372 138.185C86.9288 139.772 87.4565 141.359 87.4565 142.946L87.7204 148.501C87.7204 148.501 86.6649 147.708 85.6094 147.179C84.5539 146.385 83.4984 145.856 83.4984 145.856C82.1791 145.062 80.8597 143.74 80.0681 142.153C79.0126 140.565 78.4849 138.714 78.4849 136.862C78.4849 136.862 78.4849 135.275 78.4849 133.688C78.4849 132.894 78.4849 132.101 78.4849 131.572C78.4849 131.042 78.4849 130.513 78.4849 130.513C78.4849 130.513 79.5404 131.307 80.5958 132.365C81.9152 133.423 82.9707 134.217 82.9707 134.217Z" fill="#DDDDDD"/>
<path d="M83.2342 147.443C84.0258 147.972 84.5535 148.501 85.0813 149.03C85.609 149.559 86.1368 150.353 86.6645 150.882C87.72 152.205 88.2478 153.792 88.5116 155.644C88.5116 155.644 88.7755 156.966 89.0394 158.289C89.3032 159.611 89.831 160.934 89.831 160.934C89.831 160.934 88.5116 160.405 87.4561 159.876C86.1368 159.347 85.0813 158.818 85.0813 158.818C82.1787 157.495 80.0677 154.056 79.54 150.353C79.54 150.353 79.54 150.088 79.2761 149.295C79.2761 148.766 79.2761 147.972 79.2761 147.179C79.2761 145.591 79.0122 144.004 79.0122 144.004C79.0122 144.004 80.0677 144.798 81.1232 145.591C81.9148 146.65 83.2342 147.443 83.2342 147.443Z" fill="#DDDDDD"/>
<path d="M85.0807 160.141C88.2472 161.463 90.622 164.109 91.4136 167.547L93.2607 172.838C93.2607 172.838 91.9414 172.574 90.622 172.044C89.3026 171.78 87.9833 171.251 87.9833 171.251C86.4 170.722 84.8168 169.928 83.7613 168.606C82.7058 167.283 81.9142 165.696 81.3865 163.844C81.3865 163.844 81.1226 162.257 80.5948 160.934C80.331 160.141 80.331 159.347 80.0671 158.818C80.0671 158.289 79.8032 157.76 79.8032 157.76C79.8032 157.76 80.8587 158.289 82.1781 159.083C83.7613 159.612 85.0807 160.141 85.0807 160.141Z" fill="#DDDDDD"/>
<path d="M88.7755 172.838C90.3587 173.367 91.942 174.161 92.9975 175.219C94.3168 176.277 95.3723 177.6 96.1639 179.187C96.1639 179.187 96.6917 180.509 97.4833 181.832C97.7472 182.361 98.0111 183.155 98.2749 183.684C98.5388 184.213 98.8027 184.477 98.8027 184.477C98.8027 184.477 97.4833 184.477 96.1639 184.213C94.8446 183.948 93.5252 183.684 93.5252 183.684C91.942 183.419 90.3587 182.626 89.0394 181.567C87.72 180.509 86.4006 178.922 85.8729 177.335L83.498 171.251C83.498 171.251 84.8174 171.78 86.1368 172.044C87.4561 172.309 88.7755 172.838 88.7755 172.838Z" fill="#DDDDDD"/>
<path d="M94.0533 184.742C95.6366 185.006 97.2198 185.535 98.803 186.593C100.122 187.387 101.442 188.709 102.233 190.032C102.233 190.032 102.497 190.297 102.761 190.826C103.025 191.355 103.553 191.884 103.817 192.413C104.608 193.471 105.4 194.529 105.4 194.529C105.4 194.529 104.081 194.529 102.761 194.529C101.442 194.529 100.122 194.529 100.122 194.529C96.6921 194.529 93.5256 192.148 91.6785 188.974C91.6785 188.974 90.8869 187.651 90.0952 186.329C89.3036 185.006 88.7759 183.683 88.7759 183.683C88.7759 183.683 90.0952 183.948 91.4146 184.212C92.734 184.477 94.0533 184.742 94.0533 184.742Z" fill="#DDDDDD"/>
<path d="M123.343 69.4077C121.759 70.7304 119.648 71.524 117.273 71.524C117.273 69.1432 118.593 67.2915 120.176 65.7044C122.023 64.3817 124.134 63.5881 126.509 63.8527C125.981 66.2334 124.926 68.0851 123.343 69.4077Z" fill="#DDDDDD"/>
<path d="M185.773 34.9147L190.607 44.7243L201.433 46.2948L193.597 53.9355L195.453 64.7173L185.773 59.5944L176.094 64.6923L177.95 53.9106L170.114 46.2698L180.94 44.6993L185.773 34.9147Z" fill="#F3C252"/>
<path d="M209.817 43.6648L212.806 49.735L219.509 50.7072L214.663 55.4437L215.846 62.0873L209.854 58.9338L203.812 62.0873L204.958 55.4063L200.112 50.6698L206.814 49.6976L209.817 43.6648Z" fill="#F3C252"/>
<path d="M161.417 43.6648L164.407 49.735L171.122 50.7072L166.263 55.4437L167.409 62.1247L161.417 58.9712L155.425 62.0873L156.559 55.4063L151.712 50.6698L158.415 49.6976L161.417 43.6648Z" fill="#F3C252"/>
<path d="M145.571 50.5826L147.415 54.322L151.526 54.9203L148.574 57.812L149.271 61.9129L145.534 59.9809L141.797 61.9129L142.507 57.812L139.529 54.9078L143.64 54.3095L145.571 50.5826Z" fill="#F3C252"/>
<path d="M225.464 50.5826L227.308 54.322L231.419 54.9203L228.442 57.8245L229.139 61.9253L225.464 59.9933L221.727 61.9253L222.437 57.8245L219.459 54.9203L223.571 54.322L225.464 50.5826Z" fill="#F3C252"/>
<path d="M48.3962 221.095L39.2741 201.349C130.249 162.48 239.752 162.48 330.727 201.349L321.605 221.095L312.45 240.912C232.848 207.028 137.153 207.028 57.551 240.912L48.3962 221.095Z" fill="#930043" stroke="white" stroke-width="2.83885"/>
<g clip-path="url(#clip0_452_4941)">
<path d="M67.7713 211.414C67.1366 211.577 66.6288 211.905 65.9941 212.068C66.7557 215.012 67.3904 217.956 68.1521 220.9C67.2635 221.227 66.5019 221.555 65.6133 221.882C64.8516 218.938 64.2169 215.994 63.4553 213.049C62.8206 213.377 62.1859 213.54 61.5512 213.867C61.4243 212.886 61.1704 211.905 61.0435 211.087C63.0745 210.269 65.2325 209.451 67.2635 208.47C67.5174 209.451 67.6443 210.432 67.7713 211.414Z" fill="white"/>
<path d="M68.7866 209.288C69.1674 208.143 70.056 207.325 71.3254 206.834C72.7217 206.344 73.7372 206.507 74.4989 207.161C75.2605 207.816 75.8952 209.288 76.403 211.414C76.9107 213.54 76.9107 215.176 76.5299 216.321C76.1491 217.466 75.3874 218.447 73.9911 218.938C72.7217 219.428 71.7062 219.265 70.8176 218.611C70.056 217.793 69.4213 216.484 68.9135 214.358C68.4058 212.068 68.4058 210.433 68.7866 209.288ZM72.9756 209.942C72.7217 209.615 72.3409 209.451 71.9601 209.615C71.4523 209.778 71.3254 210.105 71.1984 210.596C71.1984 211.087 71.3254 211.905 71.5793 213.05C71.5793 213.213 71.7062 213.377 71.7062 213.54C71.9601 214.685 72.214 215.503 72.4678 215.83C72.7217 216.157 73.1025 216.157 73.4834 215.994C73.9911 215.83 74.118 215.503 74.245 215.176C74.245 214.685 74.245 214.031 73.9911 212.886C73.9911 212.722 73.8642 212.559 73.8642 212.232C73.4834 211.087 73.2295 210.269 72.9756 209.942Z" fill="white"/>
<path d="M81.1001 211.905C80.8462 211.905 80.5923 212.068 80.4654 212.068C80.7192 213.377 80.9731 214.685 81.227 215.83C80.3384 216.157 79.5768 216.484 78.6882 216.812C77.7996 212.886 77.038 208.961 76.1494 205.035C77.1649 204.708 78.1804 204.217 79.3229 203.89C80.4654 203.563 81.3539 203.563 81.9886 203.89C82.6233 204.381 83.1311 205.199 83.385 206.671C83.6388 208.143 83.6388 209.124 83.258 209.942C82.8772 210.923 82.1156 211.578 81.1001 211.905ZM80.8462 209.124C80.8462 208.797 80.8462 208.47 80.7192 207.979C80.5923 207.489 80.4654 206.998 80.3384 206.834C80.2115 206.671 79.9576 206.671 79.7037 206.671C79.5768 206.671 79.4498 206.834 79.3229 206.834C79.5768 207.816 79.7037 208.797 79.9576 209.778C80.0845 209.778 80.2115 209.615 80.3384 209.615C80.5923 209.615 80.8462 209.451 80.8462 209.124Z" fill="white"/>
<path d="M97.8552 210.596C97.0936 210.76 96.332 211.087 95.4434 211.25C95.0626 209.124 94.6818 207.161 94.3009 205.035H94.174C94.3009 207.161 94.3009 209.288 94.4279 211.577C93.6662 211.905 92.7777 212.068 92.016 212.395C91.3813 210.432 90.6197 208.47 89.985 206.507H89.8581C90.2389 208.633 90.6197 210.596 91.0005 212.722C90.2389 213.049 89.4772 213.213 88.7156 213.54C88.0809 209.615 87.3193 205.526 86.6846 201.6C87.827 201.273 88.9695 200.782 90.1119 200.455C90.7466 202.582 91.5083 204.544 92.143 206.671H92.2699C92.143 204.381 92.016 202.254 91.8891 199.965C93.0315 199.637 94.174 199.31 95.3165 198.983C96.332 202.745 97.0936 206.671 97.8552 210.596Z" fill="white"/>
<path d="M97.8564 199.31C98.2372 198.165 99.1258 197.348 100.522 197.02C101.918 196.693 102.934 196.857 103.696 197.675C104.457 198.493 104.965 199.965 105.346 202.091C105.727 204.217 105.6 205.853 105.219 206.998C104.838 208.143 103.95 208.96 102.553 209.288C101.284 209.615 100.268 209.451 99.5066 208.633C98.745 207.815 98.2372 206.343 97.8564 204.217C97.4756 202.091 97.4756 200.455 97.8564 199.31ZM102.045 200.455C101.792 200.128 101.538 199.965 101.03 200.128C100.522 200.292 100.268 200.619 100.268 200.946C100.141 201.437 100.268 202.254 100.522 203.399C100.522 203.563 100.522 203.726 100.649 203.89C100.903 205.199 101.03 205.853 101.284 206.343C101.538 206.671 101.792 206.834 102.299 206.671C102.807 206.507 103.061 206.343 103.061 205.853C103.188 205.526 103.061 204.708 102.934 203.563C102.934 203.399 102.807 203.072 102.807 202.909C102.426 201.6 102.299 200.946 102.045 200.455Z" fill="white"/>
<path d="M113.47 202.909C113.851 205.199 112.962 206.671 111.058 206.998C109.789 207.325 108.519 207.652 107.377 207.979C106.742 204.054 106.107 199.965 105.473 196.039C106.742 195.712 108.011 195.385 109.154 195.058C110.169 194.894 110.931 194.894 111.439 195.222C111.947 195.549 112.327 196.366 112.454 197.348C112.581 198.493 112.327 199.311 111.693 200.128C111.693 200.128 111.693 200.128 111.693 200.292C112.708 200.455 113.216 201.273 113.47 202.909ZM109.916 199.965C110.042 199.801 110.042 199.474 109.916 198.983C109.789 198.493 109.789 198.166 109.662 198.002C109.535 197.839 109.408 197.839 109.154 197.839C109.027 197.839 108.773 198.002 108.646 198.002C108.773 198.82 108.9 199.638 109.027 200.455C109.154 200.455 109.408 200.292 109.535 200.292C109.662 200.292 109.789 200.128 109.916 199.965ZM110.677 204.545C110.804 204.381 110.804 203.89 110.677 203.4C110.55 202.909 110.423 202.418 110.296 202.255C110.169 202.091 109.916 201.928 109.662 202.091C109.535 202.091 109.281 202.255 109.154 202.255C109.281 203.236 109.408 204.217 109.535 205.035C109.662 205.035 109.916 204.872 110.042 204.872C110.423 204.872 110.55 204.872 110.677 204.545Z" fill="white"/>
<path d="M117.531 205.526C116.643 205.689 115.754 205.853 114.992 206.18C114.485 202.254 113.85 198.165 113.342 194.24C114.231 194.076 115.119 193.749 116.008 193.586C116.516 197.511 117.024 201.437 117.531 205.526Z" fill="white"/>
<path d="M123.878 204.054C122.228 204.381 120.705 204.708 119.055 205.035C118.547 201.11 118.039 197.021 117.404 193.095C118.293 192.932 119.181 192.768 120.07 192.441C120.451 195.549 120.832 198.656 121.212 201.764C121.974 201.6 122.863 201.437 123.624 201.273C123.751 202.255 123.878 203.236 123.878 204.054Z" fill="white"/>
<path d="M129.718 202.909C127.94 203.236 126.29 203.563 124.64 203.89C124.132 199.801 123.624 195.876 123.244 191.787C125.021 191.459 126.798 191.132 128.702 190.805C128.702 191.787 128.829 192.768 128.829 193.749C127.94 193.913 127.052 194.076 126.29 194.24C126.417 194.894 126.417 195.385 126.544 196.039C127.306 195.876 128.067 195.712 128.829 195.549C128.956 196.366 128.956 197.184 129.083 198.165C128.321 198.329 127.56 198.493 126.925 198.656C127.052 199.31 127.052 199.965 127.179 200.619C127.813 200.619 128.702 200.455 129.591 200.292C129.718 201.11 129.718 202.091 129.718 202.909Z" fill="white"/>
<path d="M140.888 201.11C140 201.273 139.238 201.437 138.35 201.437C138.223 200.782 138.096 200.128 137.842 199.637C137.207 199.801 136.572 199.801 136.065 199.965C135.938 200.619 135.938 201.273 135.938 201.927C135.176 202.091 134.288 202.254 133.526 202.254C133.653 198.165 133.907 194.076 134.034 189.824C135.303 189.66 136.699 189.333 137.969 189.17C138.984 193.259 139.873 197.184 140.888 201.11ZM137.334 197.348C137.08 195.876 136.699 194.567 136.319 193.095H136.192C136.192 194.567 136.065 196.039 136.065 197.511C136.572 197.511 136.953 197.511 137.334 197.348Z" fill="white"/>
<path d="M144.569 196.53C144.316 196.53 144.062 196.53 143.808 196.693C143.935 198.002 144.062 199.31 144.189 200.619C143.3 200.782 142.411 200.782 141.65 200.946C141.269 196.857 141.015 192.932 140.634 188.843C141.65 188.679 142.792 188.515 143.808 188.352C144.95 188.188 145.839 188.352 146.347 189.006C146.981 189.497 147.235 190.642 147.362 192.114C147.489 193.586 147.235 194.567 146.854 195.385C146.473 196.039 145.712 196.53 144.569 196.53ZM144.696 193.913C144.823 193.749 144.823 193.259 144.696 192.768C144.696 192.277 144.569 191.787 144.442 191.623C144.316 191.46 144.062 191.296 143.808 191.296C143.681 191.296 143.554 191.296 143.427 191.296C143.554 192.277 143.681 193.422 143.681 194.404C143.808 194.404 143.935 194.404 144.062 194.404C144.442 194.24 144.696 194.24 144.696 193.913Z" fill="white"/>
<path d="M151.805 195.712C151.551 195.712 151.297 195.712 151.043 195.712C151.17 197.184 151.297 198.493 151.424 199.801C150.535 199.965 149.647 199.965 148.885 200.128C148.631 196.039 148.25 192.114 147.997 188.025C149.012 187.861 150.155 187.698 151.17 187.698C152.313 187.534 153.201 187.861 153.709 188.352C154.344 189.006 154.597 189.987 154.724 191.459C154.851 192.932 154.597 193.913 154.09 194.731C153.582 195.221 152.82 195.549 151.805 195.712ZM151.932 193.095C152.059 192.932 152.059 192.441 151.932 191.95C151.932 191.296 151.805 190.969 151.678 190.805C151.551 190.642 151.297 190.478 151.043 190.478C150.916 190.478 150.789 190.478 150.662 190.478C150.789 191.459 150.789 192.604 150.916 193.586C151.043 193.586 151.17 193.586 151.297 193.586C151.678 193.422 151.805 193.259 151.932 193.095Z" fill="white"/>
<path d="M166.022 192.114C166.149 196.366 164.88 198.493 162.341 198.656C161.325 198.656 160.183 198.82 159.167 198.983C158.914 194.894 158.787 190.805 158.533 186.88C159.675 186.716 160.691 186.716 161.833 186.553C163.229 186.389 164.372 186.88 165.007 187.861C165.641 188.843 166.022 190.315 166.022 192.114ZM163.229 195.222C163.356 194.731 163.356 193.913 163.356 192.768C163.356 191.623 163.229 190.805 162.976 190.315C162.722 189.824 162.341 189.66 161.833 189.66C161.706 189.66 161.579 189.66 161.325 189.66C161.452 191.787 161.579 193.913 161.579 196.039C161.706 196.039 161.96 196.039 162.087 196.039C162.722 195.876 163.103 195.712 163.229 195.222Z" fill="white"/>
<path d="M172.496 198.165C170.719 198.165 169.069 198.329 167.292 198.493C167.165 194.404 167.038 190.315 166.911 186.389C168.688 186.226 170.592 186.226 172.37 186.062C172.37 187.043 172.37 188.025 172.243 189.006C171.354 189.006 170.465 189.006 169.704 189.17C169.704 189.824 169.704 190.315 169.704 190.969C170.465 190.969 171.227 190.969 171.989 190.805C171.989 191.623 171.989 192.604 172.116 193.422C171.354 193.422 170.592 193.422 169.831 193.586C169.831 194.24 169.831 194.894 169.831 195.549C170.719 195.549 171.608 195.385 172.496 195.385C172.496 196.366 172.496 197.348 172.496 198.165Z" fill="white"/>
<path d="M180.366 185.735C179.859 189.824 179.351 193.913 178.843 198.002C177.447 198.002 176.177 198.002 174.781 198.165C174.019 194.076 173.385 189.987 172.75 185.898C173.766 185.898 174.781 185.898 175.797 185.735C176.177 188.352 176.431 190.969 176.812 193.749C176.939 193.749 176.939 193.749 177.066 193.749C177.193 191.132 177.447 188.352 177.574 185.735C178.462 185.735 179.351 185.735 180.366 185.735Z" fill="white"/>
<path d="M186.459 198.002C184.682 198.002 183.032 198.002 181.255 198.002C181.255 193.913 181.255 189.824 181.128 185.735C182.905 185.735 184.809 185.735 186.586 185.735C186.586 186.716 186.459 187.698 186.459 188.679C185.571 188.679 184.682 188.679 183.921 188.679C183.921 189.333 183.921 189.824 183.921 190.478C184.682 190.478 185.444 190.478 186.206 190.478C186.206 191.296 186.206 192.277 186.206 193.095C185.444 193.095 184.682 193.095 183.921 193.095C183.921 193.749 183.921 194.404 183.921 195.058C184.809 195.058 185.698 195.058 186.586 195.058C186.586 196.039 186.586 197.021 186.459 198.002Z" fill="white"/>
<path d="M192.426 198.002C190.776 198.002 189.126 198.002 187.603 198.002C187.603 193.913 187.603 189.824 187.603 185.735C188.491 185.735 189.38 185.735 190.268 185.735C190.268 188.843 190.141 192.114 190.141 195.221C190.903 195.221 191.792 195.221 192.553 195.221C192.553 196.203 192.426 197.184 192.426 198.002Z" fill="white"/>
<path d="M193.822 187.207C194.457 186.226 195.473 185.735 196.869 185.899C198.265 185.899 199.281 186.553 199.789 187.534C200.296 188.516 200.55 190.151 200.55 192.278C200.423 194.404 200.169 196.04 199.535 197.021C198.9 198.002 197.884 198.493 196.615 198.493C195.219 198.493 194.33 197.839 193.695 196.857C193.188 195.876 192.807 194.24 192.934 191.95C192.934 189.661 193.315 188.025 193.822 187.207ZM197.631 189.497C197.504 189.006 197.123 188.843 196.742 188.843C196.234 188.843 195.98 189.006 195.853 189.497C195.726 189.824 195.6 190.642 195.6 191.95C195.6 192.114 195.6 192.278 195.6 192.441C195.6 193.75 195.6 194.567 195.726 194.895C195.853 195.222 196.107 195.549 196.615 195.549C197.123 195.549 197.377 195.385 197.504 195.058C197.631 194.731 197.757 193.913 197.757 192.768C197.757 192.605 197.757 192.278 197.757 192.114C197.884 190.806 197.884 189.988 197.631 189.497Z" fill="white"/>
<path d="M204.866 194.567C204.612 194.567 204.358 194.567 204.104 194.567C204.104 195.875 203.977 197.184 203.977 198.492C203.089 198.492 202.2 198.329 201.438 198.329C201.565 194.24 201.692 190.151 201.819 186.225C202.835 186.225 203.977 186.389 204.993 186.389C206.135 186.389 206.897 186.88 207.405 187.534C207.912 188.188 208.166 189.333 208.039 190.805C207.912 192.277 207.659 193.259 207.151 193.913C206.77 194.403 205.881 194.567 204.866 194.567ZM205.247 191.95C205.374 191.786 205.374 191.296 205.374 190.805C205.374 190.151 205.374 189.824 205.247 189.66C205.12 189.497 204.993 189.333 204.612 189.333C204.485 189.333 204.358 189.333 204.231 189.333C204.231 190.314 204.104 191.459 204.104 192.441C204.231 192.441 204.358 192.441 204.485 192.441C204.993 192.277 205.12 192.114 205.247 191.95Z" fill="white"/>
<path d="M217.813 199.638C217.052 199.474 216.163 199.474 215.402 199.31C215.529 197.184 215.655 195.058 215.782 192.932H215.655C215.275 195.058 214.767 197.021 214.386 199.147C213.498 199.147 212.736 198.983 211.847 198.983C211.72 196.857 211.466 194.731 211.34 192.604H211.213C211.086 194.731 210.959 196.857 210.832 198.983C210.07 198.983 209.182 198.82 208.42 198.82C208.674 194.731 209.055 190.805 209.309 186.716C210.451 186.88 211.72 186.88 212.863 187.043C212.99 189.333 213.244 191.46 213.371 193.749H213.498C213.878 191.623 214.259 189.497 214.767 187.207C215.909 187.37 217.052 187.37 218.321 187.534C218.067 191.623 217.94 195.549 217.813 199.638Z" fill="white"/>
<path d="M224.288 200.455C222.511 200.292 220.861 199.965 219.083 199.801C219.337 195.712 219.591 191.787 219.845 187.698C221.622 187.861 223.526 188.188 225.304 188.352C225.177 189.333 225.05 190.315 224.923 191.296C224.034 191.132 223.146 191.132 222.384 190.969C222.384 191.623 222.257 192.114 222.257 192.768C223.019 192.932 223.78 192.932 224.542 193.095C224.415 193.913 224.415 194.894 224.288 195.712C223.526 195.549 222.765 195.549 222.003 195.385C222.003 196.039 221.876 196.693 221.876 197.348C222.765 197.511 223.653 197.511 224.542 197.675C224.542 198.656 224.415 199.474 224.288 200.455Z" fill="white"/>
<path d="M232.285 201.6C231.396 201.437 230.635 201.273 229.746 201.273C229.238 199.31 228.731 197.348 228.223 195.385H228.096C227.969 197.184 227.715 199.147 227.588 200.946C226.827 200.782 226.065 200.782 225.303 200.619C225.684 196.53 225.938 192.604 226.319 188.515C227.207 188.679 228.096 188.679 228.984 188.842C229.492 190.805 230 192.931 230.381 194.894H230.508C230.635 192.931 230.889 190.969 231.016 189.006C231.777 189.17 232.666 189.17 233.427 189.333C233.047 193.586 232.666 197.511 232.285 201.6Z" fill="white"/>
<path d="M240.156 193.586C239.521 193.422 238.886 193.422 238.378 193.259C237.998 196.366 237.744 199.31 237.363 202.418C236.474 202.254 235.586 202.091 234.697 201.927C234.951 198.82 235.332 195.876 235.586 192.768C234.951 192.604 234.316 192.604 233.682 192.441C233.809 191.459 233.936 190.478 234.062 189.497C236.22 189.824 238.378 190.151 240.536 190.642C240.409 191.623 240.283 192.604 240.156 193.586Z" fill="white"/>
<path d="M246.121 198.002C245.994 199.147 245.994 199.965 246.121 200.455C246.248 200.946 246.502 201.273 246.883 201.437C247.263 201.6 247.898 201.437 248.66 201.437C248.66 202.418 248.66 203.236 248.66 204.217C247.771 204.381 247.01 204.381 246.121 204.217C244.852 203.89 244.09 203.236 243.582 202.091C243.201 200.946 243.074 199.31 243.328 197.348C243.582 195.385 244.09 193.749 244.725 192.768C245.486 191.787 246.502 191.46 247.771 191.787C248.533 191.95 249.295 192.277 249.929 192.932C249.675 193.913 249.421 194.894 249.168 195.876C248.406 195.385 247.898 195.058 247.517 195.058C247.01 194.894 246.756 195.221 246.502 195.549C246.502 196.039 246.248 196.857 246.121 198.002Z" fill="white"/>
<path d="M251.326 194.076C252.088 193.259 253.103 192.931 254.5 193.259C255.896 193.586 256.785 194.24 257.165 195.385C257.673 196.53 257.673 198.165 257.419 200.292C257.165 202.418 256.531 203.89 255.896 204.871C255.134 205.689 254.119 206.016 252.85 205.689C251.58 205.362 250.692 204.708 250.184 203.563C249.676 202.418 249.676 200.782 249.93 198.656C250.057 196.53 250.565 194.894 251.326 194.076ZM254.881 197.184C254.754 196.693 254.5 196.53 253.992 196.366C253.484 196.203 253.23 196.366 252.976 196.857C252.723 197.184 252.596 198.002 252.469 199.147C252.469 199.31 252.469 199.474 252.469 199.637C252.342 200.946 252.215 201.764 252.342 202.091C252.469 202.582 252.723 202.745 253.103 202.909C253.611 203.072 253.865 202.909 254.119 202.582C254.246 202.254 254.5 201.437 254.627 200.292C254.627 200.128 254.627 199.801 254.754 199.637C254.881 198.493 255.008 197.675 254.881 197.184Z" fill="white"/>
<path d="M266.686 208.961C265.924 208.797 265.035 208.47 264.274 208.306C264.655 206.18 264.908 204.217 265.289 202.091H265.162C264.528 204.054 263.893 206.017 263.258 208.143C262.497 207.979 261.608 207.652 260.846 207.489C260.846 205.362 260.973 203.236 260.973 201.11H260.846C260.592 203.236 260.212 205.199 259.958 207.325C259.196 207.161 258.434 206.998 257.546 206.671C258.181 202.745 258.942 198.656 259.577 194.731C260.719 195.058 261.862 195.385 263.131 195.549C263.131 197.838 263.004 199.965 263.004 202.255H263.131C263.766 200.128 264.401 198.166 265.035 196.039C266.178 196.366 267.32 196.694 268.463 197.021C267.828 200.946 267.193 205.035 266.686 208.961Z" fill="white"/>
<path d="M271.89 206.344C271.636 206.344 271.382 206.18 271.129 206.18C270.875 207.489 270.621 208.797 270.494 210.105C269.605 209.942 268.844 209.615 267.955 209.451C268.59 205.526 269.224 201.437 269.986 197.511C271.002 197.838 272.144 198.166 273.16 198.329C274.302 198.656 275.064 199.147 275.445 199.965C275.825 200.783 275.952 201.927 275.698 203.236C275.445 204.708 275.064 205.526 274.429 206.016C273.667 206.671 272.906 206.671 271.89 206.344ZM272.652 203.89C272.779 203.727 272.906 203.399 273.033 202.745C273.16 202.255 273.16 201.764 273.033 201.437C273.033 201.11 272.779 200.946 272.525 200.946C272.398 200.946 272.271 200.946 272.144 200.783C272.017 201.764 271.763 202.745 271.636 203.89C271.763 203.89 271.89 204.054 272.017 204.054C272.271 204.054 272.525 204.054 272.652 203.89Z" fill="white"/>
<path d="M281.664 213.54C280.775 213.213 280.014 213.05 279.125 212.723C279.125 212.068 279.125 211.414 279.252 210.76C278.617 210.596 278.109 210.433 277.475 210.269C277.221 210.923 277.094 211.414 276.84 212.068C276.078 211.741 275.19 211.578 274.428 211.414C275.698 207.652 276.967 203.89 278.363 200.128C279.633 200.455 281.029 200.946 282.298 201.437C282.045 205.199 281.918 209.451 281.664 213.54ZM279.379 208.47C279.506 206.998 279.506 205.526 279.633 204.054H279.506C278.998 205.362 278.617 206.834 278.109 208.143C278.617 208.143 278.998 208.306 279.379 208.47Z" fill="white"/>
<path d="M289.281 216.157C288.519 215.83 287.63 215.503 286.869 215.339C286.615 213.213 286.361 211.25 286.107 209.124H285.98C285.599 210.923 285.218 212.722 284.838 214.685C284.076 214.358 283.314 214.194 282.553 213.867C283.314 209.942 284.076 206.016 284.965 202.091C285.853 202.418 286.742 202.745 287.63 202.909C287.884 205.035 288.138 207.161 288.392 209.288H288.519C288.9 207.325 289.281 205.526 289.661 203.563C290.423 203.89 291.185 204.054 292.073 204.381C290.931 208.306 290.169 212.232 289.281 216.157Z" fill="white"/>
<path d="M293.343 217.629C292.454 217.302 291.692 216.975 290.804 216.648C291.692 212.723 292.454 208.797 293.343 204.872C294.231 205.199 295.12 205.526 296.008 205.853C294.993 209.778 294.231 213.704 293.343 217.629Z" fill="white"/>
<path d="M299.817 220.083C298.167 219.428 296.516 218.774 294.739 218.12C295.628 214.194 296.516 210.269 297.405 206.344C299.182 206.998 300.959 207.652 302.736 208.306C302.483 209.288 302.229 210.105 301.848 211.087C300.959 210.76 300.198 210.433 299.309 210.105C299.182 210.76 299.055 211.25 298.928 211.905C299.69 212.232 300.325 212.395 301.086 212.722C300.832 213.54 300.705 214.358 300.452 215.176C299.69 214.849 299.055 214.685 298.294 214.358C298.167 215.012 298.04 215.667 297.786 216.321C298.674 216.648 299.563 216.975 300.452 217.302C300.325 218.283 300.071 219.101 299.817 220.083Z" fill="white"/>
<path d="M303.751 209.778C304.386 209.288 305.274 209.288 306.163 209.615C307.052 209.942 307.94 210.433 308.956 211.087C308.575 212.068 308.194 213.05 307.94 213.868C307.052 213.213 306.417 212.723 306.036 212.559C305.528 212.395 305.274 212.559 305.147 213.05C305.147 213.213 305.147 213.54 305.401 213.704C305.528 214.031 305.782 214.195 306.036 214.522C306.29 214.849 306.544 215.176 306.798 215.667C307.052 215.994 307.179 216.648 307.305 217.139C307.432 217.793 307.432 218.284 307.179 218.938C306.925 220.083 306.417 220.901 305.782 221.391C305.147 221.882 304.259 221.882 303.37 221.555C302.482 221.228 301.593 220.574 300.832 219.919C301.085 218.938 301.339 218.12 301.72 217.139C302.736 217.957 303.37 218.447 303.751 218.611C304.132 218.774 304.386 218.611 304.513 218.12C304.513 217.957 304.513 217.629 304.386 217.302C304.259 216.975 304.005 216.648 303.751 216.321C303.497 215.994 303.243 215.667 302.99 215.176C302.736 214.849 302.482 214.358 302.482 213.704C302.355 213.05 302.355 212.395 302.609 211.741C302.609 211.087 303.116 210.269 303.751 209.778Z" fill="white"/>
</g>
<defs>
<clipPath id="clip0_452_4941">
<rect width="247.913" height="36.147" fill="white" transform="translate(61.0435 185.735)"/>
</clipPath>
</defs>
</svg>
