<?xml version="1.0" encoding="UTF-8"?>
<svg xmlns="http://www.w3.org/2000/svg" width="25" height="25" viewBox="0 0 25 25" fill="none">
  <path d="M21.2651 4.10879C20.9601 3.97217 20.6202 3.96404 20.3086 4.08546C19.997 4.20715 19.7522 4.44324 19.6199 4.75079L16.7898 11.3326C16.6818 11.342 16.587 11.4096 16.5459 11.5109L16.1192 12.5634L16.1084 12.5876C15.3165 12.2717 14.5009 11.9844 13.6814 11.7348C13.5418 11.692 13.3924 11.7604 13.3326 11.8936L11.9552 14.9769C11.7882 15.3507 11.6727 15.7361 11.5993 16.1273C11.2378 15.7989 10.7576 15.6008 10.2301 15.6008C9.64494 15.6008 9.09263 15.8577 8.71156 16.2836C8.29654 15.2596 8.23805 14.1318 8.55419 13.0626C8.8461 12.0743 9.42961 11.2188 10.2412 10.5885C10.2704 10.5659 10.2926 10.5379 10.3105 10.508C11.4116 10.2728 12.3399 9.50364 12.8125 8.42271C13.3053 7.2956 13.2141 6.03262 12.5687 5.04386C12.5061 4.94799 12.3925 4.89826 12.279 4.91657C11.111 5.11035 10.1186 5.9012 9.62405 7.03217C9.15988 8.09382 9.21423 9.27604 9.76148 10.2361C9.36588 10.5624 9.01979 10.9358 8.73419 11.3518C8.67965 10.6642 8.42267 9.98796 7.97454 9.40827C7.22214 8.43471 6.07334 7.9064 4.89307 8.00075C4.77867 8.0096 4.68031 8.08533 4.64254 8.19386C4.25196 9.31124 4.46929 10.5616 5.22418 11.5383C5.90836 12.423 6.92254 12.9354 7.98543 12.9528C7.70521 13.9376 7.70658 14.9641 7.98085 15.9326C7.66134 15.7235 7.28032 15.6008 6.87072 15.6008C5.91414 15.6008 5.11063 16.2503 4.89463 17.1533C4.88076 17.1527 4.86729 17.154 4.85347 17.1536C4.83667 17.1533 4.82014 17.1512 4.80325 17.1512C4.79796 17.1512 4.79356 17.154 4.78831 17.1543C3.6784 17.1641 2.76951 18.0689 2.76951 19.185C2.76951 19.4642 2.82818 19.7375 2.93756 19.9907H2.28951C2.1296 19.9907 2 20.1203 2 20.2802C2 20.4401 2.1296 20.5697 2.28951 20.5697H21.4811C21.641 20.5697 21.7706 20.4401 21.7706 20.2802C21.7706 20.1203 21.641 19.9907 21.4811 19.9907H18.092C18.6192 19.5229 19.0466 18.9429 19.3442 18.2768L20.7212 15.1942C20.7807 15.0609 20.7317 14.9041 20.6068 14.8285C19.7561 14.3132 19.0815 13.9364 18.4046 13.5987L18.8917 12.6292C18.9377 12.5376 18.9318 12.4284 18.8763 12.3422C18.8681 12.3294 18.8583 12.3188 18.8499 12.3062L21.8841 5.76253C22.025 5.45906 22.0378 5.11937 21.9205 4.80617C21.8034 4.49279 21.5704 4.24515 21.2651 4.10879ZM10.1546 7.26417C10.5429 6.37564 11.2928 5.73773 12.1841 5.52604C12.6298 6.32364 12.6691 7.30533 12.282 8.19071C11.8937 9.07924 11.1437 9.71716 10.2525 9.92911C9.80654 9.13124 9.76748 8.14955 10.1546 7.26417ZM5.68236 11.1842C5.13738 10.4789 4.92911 9.60818 5.08609 8.78595C6.53987 9.90431 7.07489 11.4742 7.08036 11.4906C7.12063 11.6123 7.23374 11.6893 7.35538 11.6893C7.38525 11.6893 7.41578 11.6848 7.44583 11.6749C7.59738 11.6249 7.6801 11.4619 7.63058 11.3101C7.60841 11.2429 7.13303 9.83093 5.82912 8.65027C6.48107 8.80889 7.07827 9.19542 7.51636 9.76236C8.10934 10.5295 8.30925 11.4935 8.06725 12.3768C8.05841 12.377 8.04983 12.377 8.04098 12.377C7.13672 12.3771 6.26765 11.9413 5.68236 11.1842ZM13.5084 19.9908H3.584C3.57934 19.9812 3.57867 19.9708 3.57285 19.9616C3.42609 19.7296 3.34853 19.4609 3.34853 19.185C3.34853 18.3603 4.04774 17.6911 4.87316 17.7335C4.88943 17.7343 4.90574 17.7346 4.92196 17.7359C4.97418 17.7404 5.02671 17.747 5.07969 17.7573C5.0812 17.7577 5.08276 17.757 5.08431 17.7572C5.31089 17.8014 5.52294 17.8993 5.70529 18.0437C5.48369 18.3693 5.35378 18.7622 5.35378 19.185C5.35378 19.3449 5.48338 19.4745 5.64325 19.4745C5.80312 19.4745 5.93272 19.3449 5.93272 19.185C5.93272 18.3829 6.58538 17.7302 7.38752 17.7302C7.54743 17.7302 7.67698 17.6006 7.67698 17.4407C7.67698 17.2808 7.54743 17.1513 7.38752 17.1513C6.89725 17.1513 6.44703 17.3257 6.09543 17.6156C5.90654 17.4597 5.69329 17.3419 5.46534 17.2636C5.6292 16.6319 6.19609 16.1797 6.87081 16.1797C7.67294 16.1797 8.32561 16.8325 8.32561 17.6345C8.32561 17.7945 8.45516 17.924 8.61507 17.924C8.77499 17.924 8.90454 17.7945 8.90454 17.6345C8.90454 17.4518 8.8781 17.2755 8.83272 17.1069C8.86721 17.0802 8.8977 17.0479 8.91792 17.0059C9.15876 16.5041 9.6737 16.1797 10.2302 16.1797C10.9048 16.1797 11.4715 16.6314 11.6355 17.2626C11.4073 17.3408 11.1947 17.4594 11.0058 17.6158C10.6542 17.3257 10.2039 17.1513 9.71348 17.1513C9.55356 17.1513 9.42396 17.2809 9.42396 17.4407C9.42396 17.6006 9.55356 17.7302 9.71348 17.7302C10.5156 17.7302 11.1683 18.3829 11.1683 19.185C11.1683 19.3449 11.2978 19.4745 11.4577 19.4745C11.6177 19.4745 11.7473 19.3449 11.7473 19.185C11.7473 18.7626 11.6177 18.3701 11.3964 18.0446C11.5792 17.8994 11.791 17.8011 12.0191 17.7573C12.0199 17.7572 12.0206 17.7575 12.0213 17.7573C12.0733 17.7472 12.1249 17.7408 12.1761 17.7363C12.1953 17.7347 12.2146 17.7342 12.2339 17.7334C13.0573 17.6942 13.7525 18.3623 13.7525 19.185C13.7524 19.4735 13.6676 19.7518 13.5084 19.9908ZM20.0881 15.1919L18.8155 18.0407C18.4502 18.8587 17.8678 19.5319 17.1317 19.9907H14.161C14.2705 19.7376 14.3313 19.4653 14.3313 19.185C14.3313 18.0688 13.4218 17.164 12.3125 17.1543C12.3073 17.154 12.3029 17.1512 12.2976 17.1512C12.2813 17.1512 12.2653 17.1533 12.2491 17.1537C12.2348 17.154 12.2208 17.1526 12.2064 17.1533C12.1784 17.036 12.14 16.9232 12.093 16.8153C12.0931 16.8139 12.094 16.8128 12.094 16.8113C12.1225 16.2659 12.2537 15.7281 12.4839 15.2129L13.7566 12.364C14.4707 12.5882 15.1793 12.8424 15.8703 13.1175L15.2451 14.5094C14.8107 15.4767 14.6587 16.5429 14.8057 17.5927L14.8286 17.756C14.8421 17.853 14.9039 17.9367 14.9928 17.9781C15.0317 17.9964 15.0735 18.0054 15.1153 18.0054C15.1687 18.0054 15.2217 17.9907 15.2685 17.9617L15.3713 17.8975C16.3205 17.3075 17.0654 16.4577 17.5256 15.4395C17.5917 15.2939 17.527 15.1225 17.3811 15.0567C17.2352 14.99 17.0642 15.0557 16.9982 15.2012C16.6319 16.0112 16.0647 16.7025 15.3466 17.2179C15.2784 16.3726 15.424 15.5239 15.7734 14.7466L16.6515 12.7906L17.01 11.9068C17.565 11.9209 17.9883 12.1239 18.2967 12.5238L17.3768 14.3542C17.3051 14.4972 17.3628 14.671 17.5055 14.743C17.6491 14.8142 17.8223 14.757 17.8942 14.6143L18.1447 14.1159C18.7487 14.4173 19.3522 14.7514 20.0881 15.1919ZM21.359 5.51902L18.4312 11.8334C18.1437 11.5891 17.8018 11.4322 17.4057 11.366L20.1518 4.97968C20.2224 4.81568 20.3526 4.68973 20.5189 4.62484C20.6851 4.56017 20.8662 4.56444 21.029 4.63728C21.1918 4.70986 21.316 4.84195 21.3785 5.00911C21.4409 5.17595 21.4341 5.35711 21.359 5.51902Z" fill="black"></path>
</svg>
