<svg width="356" height="400" viewBox="0 0 356 400" fill="none" xmlns="http://www.w3.org/2000/svg">
<path d="M17.0407 81.9397L163.036 5.18367C172.307 0.297499 183.737 0.297499 193.008 5.18367L339.004 81.9397C348.275 86.8259 353.99 95.8306 353.99 105.584V294.591C353.99 304.345 348.275 313.35 339.004 318.236L193.008 394.992C183.737 399.878 172.307 399.878 163.036 394.992L17.0407 318.236C7.76952 313.35 2.05469 304.345 2.05469 294.591V105.584C2.05469 95.8119 7.76952 86.8071 17.0407 81.9397Z" fill="white" stroke="#930043" stroke-width="2.23497" stroke-miterlimit="10"/>
<path d="M330.54 286.067C330.54 293.588 326.095 300.604 318.914 304.365L188.043 373.065C180.862 376.826 171.952 376.826 164.812 373.065L33.8997 304.365C26.7183 300.604 22.2736 293.588 22.2736 286.067V269.41H14.9688V286.067C14.9688 295.946 20.8127 305.151 30.237 310.09L161.149 378.809C165.84 381.279 171.129 382.513 176.417 382.513C181.685 382.513 186.953 381.279 191.665 378.809L322.577 310.09C332.001 305.151 337.845 295.946 337.845 286.067V269.41H330.561V286.067H330.54ZM322.577 90.0752L191.665 21.375C182.261 16.417 170.553 16.4357 161.149 21.375L30.2576 90.0752C20.8332 95.0332 14.9893 104.238 14.9893 114.117V207.756H22.2942V114.117C22.2942 106.595 26.7389 99.5795 33.9203 95.819L164.77 27.1187C171.952 23.3581 180.862 23.3581 188.002 27.1187L318.914 95.819C326.095 99.5795 330.54 106.595 330.54 114.117V207.756H337.824V114.117C337.845 104.238 332.001 95.0332 322.577 90.0752Z" fill="#930043"/>
<path d="M104.162 95.8344V77.762H107.732L110.293 91.5986L112.855 77.762H116.425V95.8344H113.843V81.5741L111.261 95.8344H109.325L106.743 81.5741V95.8344H104.162ZM125.318 96.0159C124.411 96.0159 123.631 95.8781 122.979 95.6024C122.333 95.3267 121.819 94.9233 121.436 94.3922C121.052 93.861 120.773 93.2391 120.599 92.5265C120.424 91.8071 120.336 90.9734 120.336 90.0254V83.4701C120.336 82.5221 120.424 81.6951 120.599 80.9892C120.773 80.2832 121.052 79.6714 121.436 79.1537C121.819 78.6293 122.333 78.236 122.979 77.9738C123.631 77.7116 124.411 77.5805 125.318 77.5805C127.08 77.5805 128.351 78.0847 129.131 79.0932C129.91 80.1017 130.3 81.5607 130.3 83.4701V90.0254C130.3 90.9599 130.21 91.7869 130.028 92.5063C129.853 93.219 129.574 93.8442 129.191 94.3821C128.808 94.9133 128.29 95.32 127.638 95.6024C126.992 95.8781 126.219 96.0159 125.318 96.0159ZM123.432 93.0811C123.782 93.6257 124.411 93.898 125.318 93.898C126.226 93.898 126.851 93.6257 127.194 93.0811C127.544 92.5365 127.719 91.7331 127.719 90.6708V82.8247C127.719 81.7758 127.547 80.9926 127.204 80.4749C126.861 79.9572 126.233 79.6983 125.318 79.6983C124.404 79.6983 123.775 79.9572 123.432 80.4749C123.09 80.9926 122.918 81.7758 122.918 82.8247V90.6708C122.918 91.7331 123.09 92.5365 123.432 93.0811ZM138.921 96.0159C137.294 96.0159 136.051 95.5385 135.19 94.5838C134.336 93.6291 133.859 92.3248 133.758 90.6708L136.34 90.0254C136.467 92.6071 137.328 93.898 138.921 93.898C140.212 93.898 140.858 93.2526 140.858 91.9617C140.858 91.5785 140.804 91.2255 140.696 90.9028C140.596 90.5733 140.438 90.2741 140.222 90.0052C140.007 89.7295 139.812 89.511 139.638 89.3497C139.463 89.1816 139.224 88.9765 138.921 88.7345L135.694 86.1527C135.103 85.6888 134.629 85.1005 134.272 84.3878C133.923 83.6685 133.748 82.8516 133.748 81.9372C133.748 80.606 134.161 79.547 134.988 78.7604C135.815 77.9738 136.911 77.5805 138.276 77.5805C139.742 77.5805 140.905 77.9402 141.765 78.6596C142.633 79.3722 143.167 80.3841 143.369 81.6951C143.389 81.8363 143.413 82.0313 143.44 82.2801L140.858 82.9255C140.851 82.8112 140.834 82.6398 140.807 82.4112C140.693 81.5909 140.434 80.9354 140.031 80.4446C139.634 79.9471 139.049 79.6983 138.276 79.6983C137.657 79.6983 137.18 79.8731 136.844 80.2227C136.508 80.5656 136.34 81.0463 136.34 81.6649C136.34 82.6801 136.77 83.5306 137.631 84.2164L140.858 86.7982C142.579 88.1899 143.44 89.8539 143.44 91.7903C143.44 93.1148 143.029 94.1502 142.209 94.8964C141.396 95.6427 140.3 96.0159 138.921 96.0159ZM148.904 95.8344V80.0614H145.677V77.762H154.713V80.0614H151.486V95.8344H148.904ZM166.076 85.5073H166.721C167.797 85.5073 168.604 85.2821 169.141 84.8316C169.679 84.3744 169.948 83.6315 169.948 82.6028C169.948 81.5741 169.679 80.8346 169.141 80.3841C168.604 79.9269 167.797 79.6983 166.721 79.6983H166.076V85.5073ZM163.494 95.8344V77.762H166.721C168.644 77.762 170.093 78.1351 171.068 78.8814C172.043 79.6277 172.53 80.8682 172.53 82.6028C172.53 83.6785 172.338 84.5795 171.955 85.3056C171.572 86.0317 171.011 86.5292 170.271 86.7982L173.175 95.8344H170.614L168.012 87.4436H166.076V95.8344H163.494ZM176.32 95.8344V77.762H183.42V79.6983H178.902V85.5073H182.129V87.4436H178.902V93.898H183.42V95.8344H176.32ZM189.369 95.8344L185.496 77.762H188.078L189.984 87.4436L190.65 91.9617L191.335 87.4436L193.241 77.762H195.823L191.951 95.8344H189.369ZM199.008 95.8344V77.762H201.59V95.8344H199.008ZM206.006 95.8344V77.762H213.106V79.6983H208.588V85.5073H211.815V87.4436H208.588V93.898H213.106V95.8344H206.006ZM218.399 95.8344L215.171 77.762H217.753L219.044 86.1527L219.7 91.3163L220.335 86.1527L221.626 77.762H224.208L225.499 86.1527L226.134 91.3163L226.789 86.1527L228.08 77.762H230.662L227.435 95.8344H224.853L223.562 87.4436L222.917 82.2801L222.271 87.4436L220.98 95.8344H218.399ZM233.716 95.8344V77.762H240.816V79.6983H236.298V85.5073H239.525V87.4436H236.298V93.898H240.816V95.8344H233.716ZM244.062 95.8344V77.762H248.066C249.955 77.762 251.286 78.1486 252.059 78.9218C252.839 79.695 253.229 81.0295 253.229 82.9255V90.0254C253.229 92.0088 252.832 93.4745 252.039 94.4224C251.252 95.3637 249.921 95.8344 248.045 95.8344H244.062ZM246.644 93.898H248.066C248.489 93.898 248.852 93.861 249.155 93.7871C249.457 93.7064 249.703 93.5652 249.891 93.3635C250.079 93.1551 250.227 92.9601 250.335 92.7786C250.442 92.5903 250.516 92.3012 250.557 91.9113C250.604 91.5213 250.631 91.202 250.637 90.9532C250.644 90.6977 250.647 90.3044 250.647 89.7733C250.647 89.5984 250.647 89.4673 250.647 89.3799V83.571C250.647 83.2415 250.644 82.9793 250.637 82.7843C250.637 82.5894 250.627 82.3608 250.607 82.0985C250.594 81.8296 250.57 81.6178 250.536 81.4632C250.503 81.3086 250.456 81.1371 250.395 80.9489C250.335 80.7539 250.257 80.6026 250.163 80.495C250.076 80.3875 249.965 80.2765 249.83 80.1622C249.703 80.0412 249.551 79.9538 249.377 79.9C249.209 79.8395 249.01 79.7924 248.782 79.7588C248.553 79.7185 248.298 79.6983 248.015 79.6983H246.644V93.898Z" fill="#930043"/>
<path d="M38.9635 148L42.9838 127.898H46.9049L50.9253 148H47.5254L46.7312 143.359H43.232L42.4131 148H38.9635ZM43.6043 141.026H46.3341L44.9692 132.589L43.6043 141.026ZM52.9469 148V127.898H55.503L60.392 139.364V127.898H63.4196V148H60.9876L56.0738 135.989V148H52.9469ZM66.4702 148V127.898H71.2102C72.8481 127.898 74.1221 128.122 75.032 128.568C75.9585 129.015 76.612 129.702 76.9926 130.628C77.3896 131.555 77.5882 132.729 77.5882 134.152V141.498C77.5882 142.954 77.3896 144.17 76.9926 145.146C76.612 146.106 75.9668 146.825 75.0569 147.305C74.1634 147.768 72.9309 148 71.3591 148H66.4702ZM70.1431 145.444H71.2599C72.1036 145.444 72.7075 145.295 73.0715 144.997C73.4355 144.699 73.6588 144.269 73.7416 143.707C73.8243 143.128 73.8656 142.424 73.8656 141.597V133.904C73.8656 133.093 73.8077 132.44 73.6919 131.943C73.5761 131.447 73.3362 131.083 72.9722 130.851C72.6082 130.62 72.0209 130.504 71.2102 130.504H70.1431V145.444ZM80.2843 148V127.898H85.0988C86.4555 127.898 87.597 128.064 88.5235 128.395C89.4666 128.709 90.178 129.255 90.6578 130.033C91.1541 130.81 91.4023 131.869 91.4023 133.209C91.4023 134.02 91.3279 134.748 91.179 135.393C91.0301 136.038 90.7736 136.592 90.4096 137.056C90.0622 137.502 89.5741 137.85 88.9454 138.098L91.7497 148H88.0768L85.6448 138.793H83.9572V148H80.2843ZM83.9572 136.485H85.0988C85.8102 136.485 86.3727 136.386 86.7864 136.187C87.2165 135.972 87.5226 135.641 87.7046 135.194C87.8866 134.731 87.9776 134.144 87.9776 133.432C87.9776 132.423 87.7873 131.67 87.4068 131.174C87.0428 130.661 86.3396 130.405 85.2973 130.405H83.9572V136.485ZM99.5582 148.273C98.1353 148.273 97.002 148.008 96.1582 147.479C95.3145 146.949 94.7106 146.188 94.3466 145.196C93.9826 144.203 93.8006 143.028 93.8006 141.672V134.152C93.8006 132.795 93.9826 131.637 94.3466 130.678C94.7106 129.702 95.3145 128.957 96.1582 128.444C97.002 127.931 98.1353 127.675 99.5582 127.675C101.014 127.675 102.156 127.931 102.983 128.444C103.827 128.957 104.431 129.702 104.795 130.678C105.175 131.637 105.365 132.795 105.365 134.152V141.696C105.365 143.037 105.175 144.203 104.795 145.196C104.431 146.172 103.827 146.933 102.983 147.479C102.156 148.008 101.014 148.273 99.5582 148.273ZM99.5582 145.568C100.17 145.568 100.617 145.436 100.898 145.171C101.196 144.906 101.395 144.542 101.494 144.079C101.593 143.616 101.643 143.111 101.643 142.565V133.308C101.643 132.746 101.593 132.241 101.494 131.795C101.395 131.348 101.196 131 100.898 130.752C100.617 130.488 100.17 130.355 99.5582 130.355C98.9791 130.355 98.5407 130.488 98.2429 130.752C97.9451 131 97.7465 131.348 97.6473 131.795C97.548 132.241 97.4984 132.746 97.4984 133.308V142.565C97.4984 143.111 97.5397 143.616 97.6224 144.079C97.7217 144.542 97.9202 144.906 98.2181 145.171C98.5159 145.436 98.9626 145.568 99.5582 145.568ZM108.181 148V127.898H111.805V148H108.181ZM114.917 148V127.898H119.657C121.295 127.898 122.568 128.122 123.478 128.568C124.405 129.015 125.058 129.702 125.439 130.628C125.836 131.555 126.035 132.729 126.035 134.152V141.498C126.035 142.954 125.836 144.17 125.439 145.146C125.058 146.106 124.413 146.825 123.503 147.305C122.61 147.768 121.377 148 119.806 148H114.917ZM118.589 145.444H119.706C120.55 145.444 121.154 145.295 121.518 144.997C121.882 144.699 122.105 144.269 122.188 143.707C122.271 143.128 122.312 142.424 122.312 141.597V133.904C122.312 133.093 122.254 132.44 122.138 131.943C122.022 131.447 121.783 131.083 121.419 130.851C121.055 130.62 120.467 130.504 119.657 130.504H118.589V145.444ZM133.748 148L137.768 127.898H141.689L145.71 148H142.31L141.515 143.359H138.016L137.197 148H133.748ZM138.389 141.026H141.118L139.753 132.589L138.389 141.026ZM147.731 148V127.898H153.638C154.845 127.898 155.821 128.122 156.566 128.568C157.327 129.015 157.881 129.669 158.229 130.529C158.593 131.373 158.775 132.398 158.775 133.606C158.775 134.913 158.551 135.972 158.105 136.783C157.658 137.577 157.029 138.156 156.219 138.52C155.424 138.884 154.481 139.066 153.389 139.066H151.404V148H147.731ZM151.404 136.485H152.794C153.456 136.485 153.969 136.394 154.332 136.212C154.713 136.013 154.969 135.707 155.102 135.294C155.251 134.864 155.325 134.293 155.325 133.581C155.325 132.853 155.267 132.266 155.151 131.819C155.052 131.356 154.821 131.017 154.457 130.802C154.109 130.587 153.555 130.479 152.794 130.479H151.404V136.485ZM160.818 148V127.898H166.725C167.932 127.898 168.909 128.122 169.653 128.568C170.414 129.015 170.968 129.669 171.316 130.529C171.68 131.373 171.862 132.398 171.862 133.606C171.862 134.913 171.638 135.972 171.192 136.783C170.745 137.577 170.116 138.156 169.306 138.52C168.511 138.884 167.568 139.066 166.477 139.066H164.491V148H160.818ZM164.491 136.485H165.881C166.543 136.485 167.056 136.394 167.42 136.212C167.8 136.013 168.057 135.707 168.189 135.294C168.338 134.864 168.412 134.293 168.412 133.581C168.412 132.853 168.354 132.266 168.239 131.819C168.139 131.356 167.908 131.017 167.544 130.802C167.196 130.587 166.642 130.479 165.881 130.479H164.491V136.485ZM179.94 148V127.898H184.68C186.318 127.898 187.592 128.122 188.502 128.568C189.428 129.015 190.082 129.702 190.462 130.628C190.859 131.555 191.058 132.729 191.058 134.152V141.498C191.058 142.954 190.859 144.17 190.462 145.146C190.082 146.106 189.437 146.825 188.527 147.305C187.633 147.768 186.401 148 184.829 148H179.94ZM183.613 145.444H184.73C185.573 145.444 186.177 145.295 186.541 144.997C186.905 144.699 187.129 144.269 187.211 143.707C187.294 143.128 187.335 142.424 187.335 141.597V133.904C187.335 133.093 187.277 132.44 187.162 131.943C187.046 131.447 186.806 131.083 186.442 130.851C186.078 130.62 185.491 130.504 184.68 130.504H183.613V145.444ZM193.754 148V127.898H202.192V130.479H197.427V136.262H201.174V138.818H197.427V145.469H202.241V148H193.754ZM207.446 148L203.401 127.898H206.652L209.308 142.118L211.789 127.898H215.115L211.07 148H207.446ZM217.165 148V127.898H225.603V130.479H220.838V136.262H224.586V138.818H220.838V145.469H225.653V148H217.165ZM227.78 148V127.898H231.453V145.469H236.317V148H227.78ZM243.443 148.273C242.02 148.273 240.887 148.008 240.043 147.479C239.199 146.949 238.596 146.188 238.232 145.196C237.868 144.203 237.686 143.028 237.686 141.672V134.152C237.686 132.795 237.868 131.637 238.232 130.678C238.596 129.702 239.199 128.957 240.043 128.444C240.887 127.931 242.02 127.675 243.443 127.675C244.899 127.675 246.041 127.931 246.868 128.444C247.712 128.957 248.316 129.702 248.68 130.678C249.06 131.637 249.25 132.795 249.25 134.152V141.696C249.25 143.037 249.06 144.203 248.68 145.196C248.316 146.172 247.712 146.933 246.868 147.479C246.041 148.008 244.899 148.273 243.443 148.273ZM243.443 145.568C244.055 145.568 244.502 145.436 244.783 145.171C245.081 144.906 245.28 144.542 245.379 144.079C245.478 143.616 245.528 143.111 245.528 142.565V133.308C245.528 132.746 245.478 132.241 245.379 131.795C245.28 131.348 245.081 131 244.783 130.752C244.502 130.488 244.055 130.355 243.443 130.355C242.864 130.355 242.426 130.488 242.128 130.752C241.83 131 241.632 131.348 241.532 131.795C241.433 132.241 241.383 132.746 241.383 133.308V142.565C241.383 143.111 241.425 143.616 241.507 144.079C241.607 144.542 241.805 144.906 242.103 145.171C242.401 145.436 242.848 145.568 243.443 145.568ZM251.967 148V127.898H257.874C259.081 127.898 260.058 128.122 260.802 128.568C261.563 129.015 262.117 129.669 262.465 130.529C262.829 131.373 263.011 132.398 263.011 133.606C263.011 134.913 262.787 135.972 262.341 136.783C261.894 137.577 261.265 138.156 260.455 138.52C259.66 138.884 258.717 139.066 257.625 139.066H255.64V148H251.967ZM255.64 136.485H257.03C257.692 136.485 258.205 136.394 258.569 136.212C258.949 136.013 259.205 135.707 259.338 135.294C259.487 134.864 259.561 134.293 259.561 133.581C259.561 132.853 259.503 132.266 259.387 131.819C259.288 131.356 259.057 131.017 258.693 130.802C258.345 130.587 257.791 130.479 257.03 130.479H255.64V136.485ZM265.005 148L265.352 127.898H269.149L272.003 141.821L274.981 127.898H278.654L279.026 148H276.296L275.999 134.028L273.145 148H270.936L268.032 133.978L267.759 148H265.005ZM281.995 148V127.898H290.433V130.479H285.668V136.262H289.415V138.818H285.668V145.469H290.482V148H281.995ZM292.61 148V127.898H295.166L300.055 139.364V127.898H303.083V148H300.651L295.737 135.989V148H292.61ZM308.143 148V130.603H304.942V127.898H314.968V130.603H311.816V148H308.143ZM127.525 185.273C126.052 185.273 124.894 184.983 124.05 184.404C123.223 183.825 122.644 183.039 122.313 182.047C121.982 181.038 121.817 179.879 121.817 178.572V171.4C121.817 170.027 121.982 168.836 122.313 167.827C122.644 166.817 123.223 166.04 124.05 165.494C124.894 164.948 126.052 164.675 127.525 164.675C128.914 164.675 129.998 164.915 130.776 165.395C131.57 165.858 132.132 166.528 132.463 167.405C132.794 168.282 132.959 169.299 132.959 170.457V172.145H129.435V170.408C129.435 169.845 129.402 169.332 129.336 168.869C129.287 168.406 129.129 168.042 128.865 167.777C128.616 167.496 128.178 167.355 127.549 167.355C126.921 167.355 126.457 167.504 126.16 167.802C125.878 168.083 125.696 168.472 125.614 168.968C125.531 169.448 125.49 169.994 125.49 170.606V179.342C125.49 180.07 125.547 180.674 125.663 181.153C125.779 181.617 125.986 181.972 126.284 182.221C126.598 182.452 127.02 182.568 127.549 182.568C128.162 182.568 128.592 182.427 128.84 182.146C129.105 181.848 129.27 181.459 129.336 180.98C129.402 180.5 129.435 179.962 129.435 179.367V177.555H132.959V179.168C132.959 180.359 132.802 181.418 132.488 182.345C132.174 183.255 131.619 183.974 130.825 184.504C130.048 185.017 128.947 185.273 127.525 185.273ZM140.976 185.273C139.553 185.273 138.42 185.008 137.576 184.479C136.733 183.949 136.129 183.188 135.765 182.196C135.401 181.203 135.219 180.028 135.219 178.672V171.152C135.219 169.795 135.401 168.637 135.765 167.678C136.129 166.702 136.733 165.957 137.576 165.444C138.42 164.931 139.553 164.675 140.976 164.675C142.432 164.675 143.574 164.931 144.401 165.444C145.245 165.957 145.849 166.702 146.213 167.678C146.593 168.637 146.783 169.795 146.783 171.152V178.696C146.783 180.037 146.593 181.203 146.213 182.196C145.849 183.172 145.245 183.933 144.401 184.479C143.574 185.008 142.432 185.273 140.976 185.273ZM140.976 182.568C141.588 182.568 142.035 182.436 142.316 182.171C142.614 181.906 142.813 181.542 142.912 181.079C143.011 180.616 143.061 180.111 143.061 179.565V170.308C143.061 169.746 143.011 169.241 142.912 168.795C142.813 168.348 142.614 168 142.316 167.752C142.035 167.488 141.588 167.355 140.976 167.355C140.397 167.355 139.959 167.488 139.661 167.752C139.363 168 139.165 168.348 139.065 168.795C138.966 169.241 138.916 169.746 138.916 170.308V179.565C138.916 180.111 138.958 180.616 139.041 181.079C139.14 181.542 139.338 181.906 139.636 182.171C139.934 182.436 140.381 182.568 140.976 182.568ZM149.451 185L149.798 164.898H153.595L156.449 178.821L159.427 164.898H163.1L163.472 185H160.742L160.445 171.028L157.591 185H155.382L152.478 170.978L152.205 185H149.451ZM166.441 185V164.898H172.347C173.555 164.898 174.531 165.122 175.276 165.568C176.037 166.015 176.591 166.669 176.938 167.529C177.302 168.373 177.484 169.398 177.484 170.606C177.484 171.913 177.261 172.972 176.814 173.783C176.368 174.577 175.739 175.156 174.928 175.52C174.134 175.884 173.191 176.066 172.099 176.066H170.114V185H166.441ZM170.114 173.485H171.503C172.165 173.485 172.678 173.394 173.042 173.212C173.423 173.013 173.679 172.707 173.811 172.294C173.96 171.864 174.035 171.293 174.035 170.581C174.035 169.853 173.977 169.266 173.861 168.819C173.762 168.356 173.53 168.017 173.166 167.802C172.819 167.587 172.265 167.479 171.503 167.479H170.114V173.485ZM177.444 185L181.464 164.898H185.385L189.406 185H186.006L185.212 180.359H181.713L180.894 185H177.444ZM182.085 178.026H184.815L183.45 169.589L182.085 178.026ZM191.427 185V164.898H193.984L198.873 176.364V164.898H201.9V185H199.468L194.554 172.989V185H191.427ZM205.05 185V164.898H208.673V185H205.05ZM211.785 185V164.898H220.223V167.479H215.458V173.262H219.205V175.818H215.458V182.469H220.272V185H211.785ZM227.463 185.273C226.255 185.273 225.246 185.041 224.435 184.578C223.624 184.098 223.012 183.403 222.599 182.493C222.185 181.584 221.953 180.467 221.904 179.143L225.056 178.523C225.089 179.3 225.18 179.987 225.329 180.583C225.494 181.178 225.734 181.641 226.048 181.972C226.379 182.287 226.809 182.444 227.339 182.444C227.934 182.444 228.356 182.27 228.604 181.923C228.853 181.559 228.977 181.104 228.977 180.558C228.977 179.681 228.778 178.961 228.381 178.399C227.984 177.836 227.455 177.274 226.793 176.711L224.261 174.478C223.55 173.865 222.979 173.187 222.549 172.443C222.135 171.682 221.929 170.747 221.929 169.638C221.929 168.05 222.392 166.826 223.318 165.965C224.245 165.105 225.511 164.675 227.115 164.675C228.058 164.675 228.844 164.824 229.473 165.122C230.102 165.403 230.598 165.8 230.962 166.313C231.343 166.826 231.624 167.413 231.806 168.075C231.988 168.72 232.104 169.407 232.153 170.135L229.026 170.681C228.993 170.052 228.919 169.489 228.803 168.993C228.704 168.497 228.513 168.108 228.232 167.827C227.967 167.545 227.57 167.405 227.041 167.405C226.495 167.405 226.073 167.587 225.775 167.951C225.494 168.298 225.353 168.737 225.353 169.266C225.353 169.944 225.494 170.507 225.775 170.954C226.057 171.384 226.462 171.83 226.991 172.294L229.498 174.502C230.325 175.197 231.028 176.016 231.607 176.959C232.203 177.886 232.501 179.011 232.501 180.334C232.501 181.294 232.286 182.146 231.855 182.891C231.442 183.635 230.854 184.222 230.093 184.653C229.349 185.066 228.472 185.273 227.463 185.273Z" fill="black"/>
<rect x="2.05469" y="216.007" width="351.935" height="44.37" fill="#930043"/>
<circle cx="178.524" cy="235.165" r="37.3111" fill="white"/>
<path d="M70.7257 223.671L75.119 232.571L84.9436 234.007L77.8347 240.931L79.5124 250.713L70.7257 246.092L61.9391 250.713L63.6168 240.931L56.5078 234.007L66.3324 232.571L70.7257 223.671Z" fill="white"/>
<path d="M111.829 223.671L116.223 232.571L126.047 234.007L118.938 240.931L120.616 250.713L111.829 246.092L103.043 250.713L104.72 240.931L97.6113 234.007L107.436 232.571L111.829 223.671Z" fill="white"/>
<path d="M179.731 213.985L187.27 229.259L204.131 231.724L191.931 243.607L194.81 260.394L179.731 252.464L164.651 260.394L167.53 243.607L155.33 231.724L172.191 229.259L179.731 213.985Z" fill="#930043"/>
<path d="M241.505 223.671L245.898 232.571L255.723 234.007L248.614 240.931L250.292 250.713L241.505 246.092L232.718 250.713L234.396 240.931L227.287 234.007L237.112 232.571L241.505 223.671Z" fill="white"/>
<path d="M282.609 223.671L287.002 232.571L296.826 234.007L289.717 240.931L291.395 250.713L282.609 246.092L273.822 250.713L275.5 240.931L268.391 234.007L278.215 232.571L282.609 223.671Z" fill="white"/>
<g clip-path="url(#clip0_929_2436)">
<path d="M186.466 290.142V294.896H181.976V284.068H180.391V294.896H175.638V284.068H174.053V300.971H169.563V290.142H167.979V307.309H169.563V302.555H180.391V313.384H181.976V296.481H186.466V307.309H188.051V290.142H186.466ZM180.391 300.971H175.638V296.481H180.391V300.971Z" fill="#930043"/>
<path d="M175.635 303.35H174.051V313.386H175.635V303.35Z" fill="#930043"/>
</g>
<path d="M135.135 321.465V330.958H133.015V327.398H126.653V330.958H124.533V321.465H126.653V325.026H133.015V321.465H135.135Z" fill="black"/>
<path d="M136.945 330.959V321.451H139.586V330.959H136.945Z" fill="black"/>
<path d="M151.73 323.837H147.491V330.957H145.371V323.837H141.129V321.464H151.73V323.837Z" fill="black"/>
<path d="M163.773 321.464V323.837H155.292V323.839H153.172V321.464H163.773ZM163.773 325.225V327.16H155.292V327.166H153.172V325.225H163.773ZM163.773 328.585V330.957H153.172V328.585H163.773Z" fill="black"/>
<path d="M176.196 324.539V325.617H174.076V324.75C174.076 324.246 173.71 323.837 173.26 323.837H165.594V321.464H173.449C173.665 321.464 173.874 321.492 174.076 321.546C175.089 321.81 175.887 322.703 176.125 323.839C176.171 324.063 176.196 324.297 176.196 324.539ZM168.53 328.585H176.196V330.957H168.341C168.243 330.957 168.148 330.952 168.055 330.939C167.939 330.927 167.825 330.904 167.714 330.876C166.701 330.611 165.903 329.719 165.665 328.582C165.646 328.498 165.633 328.414 165.621 328.33C165.603 328.183 165.592 328.033 165.592 327.88V325.124H167.712V327.669C167.714 328.175 168.08 328.585 168.53 328.585Z" fill="black"/>
<path d="M188.502 321.464V330.957H186.382V327.397H180.02V330.957H177.9V321.464H180.02V325.024H186.382V321.464H188.502Z" fill="black"/>
<path d="M206.522 321.464V330.957H204.402V327.397H198.04V330.957H195.92V321.464H198.04V325.024H204.402V321.464H206.522Z" fill="#930043"/>
<path d="M218.953 321.464V330.957H216.89V329.94L216.066 330.957H210.783C209.533 330.812 208.531 329.729 208.35 328.348V321.464H210.469V327.672C210.469 328.175 210.835 328.585 211.285 328.585H216.827L216.831 321.464H218.953Z" fill="#930043"/>
<path d="M231.453 327.437C231.48 327.608 231.494 327.783 231.494 327.961C231.494 328.17 231.476 328.373 231.44 328.569C231.206 329.843 230.247 330.822 229.065 330.942C228.986 330.949 228.904 330.954 228.82 330.954C228.736 330.954 228.656 330.949 228.574 330.942H222.985V330.954H220.865V328.572H220.868V327.44H220.865V325.088H220.868V323.801H220.865V321.451H228.82C230.106 321.451 231.183 322.468 231.437 323.824C231.476 324.025 231.494 324.231 231.494 324.444C231.494 324.658 231.474 324.864 231.437 325.065C231.36 325.484 231.201 325.871 230.985 326.204C231.217 326.563 231.38 326.982 231.453 327.437ZM229.374 324.444C229.374 324.104 229.127 323.824 228.82 323.824H227.25V323.801H222.987V325.088H227.25V325.065H228.82C228.92 325.065 229.011 325.037 229.092 324.986C229.261 324.879 229.374 324.676 229.374 324.444ZM229.374 327.964C229.374 327.743 229.27 327.549 229.115 327.44H222.99V328.572H228.933C229.183 328.513 229.374 328.261 229.374 327.964Z" fill="#930043"/>
<defs>
<clipPath id="clip0_929_2436">
<rect width="20.072" height="29.3157" fill="white" transform="translate(167.979 284.068)"/>
</clipPath>
</defs>
</svg>
