<svg width="355" height="400" viewBox="0 0 355 400" fill="none" xmlns="http://www.w3.org/2000/svg">
<path d="M16.2048 81.9397L162.2 5.18367C171.471 0.297499 182.901 0.297499 192.172 5.18367L338.168 81.9397C347.439 86.8259 353.154 95.8307 353.154 105.584V294.591C353.154 304.345 347.439 313.35 338.168 318.236L192.172 394.992C182.901 399.878 171.471 399.878 162.2 394.992L16.2048 318.236C6.93358 313.35 1.21875 304.345 1.21875 294.591V105.584C1.21875 95.8119 6.93358 86.8071 16.2048 81.9397Z" fill="white" stroke="#930043" stroke-width="2.23497" stroke-miterlimit="10"/>
<path d="M329.706 286.067C329.706 293.588 325.261 300.604 318.08 304.365L187.209 373.065C180.028 376.826 171.118 376.826 163.978 373.065L33.0657 304.365C25.8843 300.604 21.4397 293.588 21.4397 286.067V269.409H14.1348V286.067C14.1348 295.946 19.9787 305.151 29.403 310.09L160.315 378.809C165.006 381.279 170.295 382.513 175.583 382.513C180.851 382.513 186.119 381.279 190.831 378.809L321.743 310.09C331.167 305.151 337.011 295.946 337.011 286.067V269.409H329.727V286.067H329.706ZM321.743 90.0751L190.831 21.3748C181.427 16.4169 169.719 16.4356 160.315 21.3748L29.4236 90.0751C19.9993 95.0331 14.1553 104.238 14.1553 114.116V207.756H21.4602V114.116C21.4602 106.595 25.9049 99.5794 33.0863 95.8188L163.936 27.1186C171.118 23.358 180.028 23.358 187.168 27.1186L318.08 95.8188C325.261 99.5794 329.706 106.595 329.706 114.116V207.756H336.99V114.116C337.011 104.238 331.167 95.0331 321.743 90.0751Z" fill="#930043"/>
<path d="M103.324 95.8343V77.7619H106.894L109.455 91.5986L112.017 77.7619H115.587V95.8343H113.005V81.5741L110.424 95.8343H108.487L105.905 81.5741V95.8343H103.324ZM124.48 96.0158C123.573 96.0158 122.793 95.878 122.141 95.6023C121.495 95.3267 120.981 94.9233 120.598 94.3921C120.215 93.861 119.936 93.2391 119.761 92.5264C119.586 91.807 119.498 90.9733 119.498 90.0253V83.4701C119.498 82.5221 119.586 81.6951 119.761 80.9891C119.936 80.2832 120.215 79.6714 120.598 79.1537C120.981 78.6292 121.495 78.2359 122.141 77.9737C122.793 77.7115 123.573 77.5804 124.48 77.5804C126.242 77.5804 127.513 78.0846 128.293 79.0932C129.073 80.1017 129.462 81.5606 129.462 83.4701V90.0253C129.462 90.9599 129.372 91.7868 129.19 92.5062C129.015 93.2189 128.736 93.8442 128.353 94.382C127.97 94.9132 127.452 95.32 126.8 95.6023C126.155 95.878 125.381 96.0158 124.48 96.0158ZM122.595 93.0811C122.944 93.6257 123.573 93.898 124.48 93.898C125.388 93.898 126.013 93.6257 126.356 93.0811C126.706 92.5365 126.881 91.733 126.881 90.6708V82.8246C126.881 81.7758 126.709 80.9925 126.366 80.4748C126.024 79.9571 125.395 79.6983 124.48 79.6983C123.566 79.6983 122.937 79.9571 122.595 80.4748C122.252 80.9925 122.08 81.7758 122.08 82.8246V90.6708C122.08 91.733 122.252 92.5365 122.595 93.0811ZM138.084 96.0158C136.457 96.0158 135.213 95.5385 134.352 94.5837C133.498 93.629 133.021 92.3247 132.92 90.6708L135.502 90.0253C135.63 92.6071 136.49 93.898 138.084 93.898C139.374 93.898 140.02 93.2525 140.02 91.9616C140.02 91.5784 139.966 91.2254 139.859 90.9027C139.758 90.5733 139.6 90.2741 139.385 90.0051C139.169 89.7295 138.974 89.511 138.8 89.3496C138.625 89.1815 138.386 88.9765 138.084 88.7344L134.856 86.1527C134.265 85.6888 133.791 85.1005 133.434 84.3878C133.085 83.6684 132.91 82.8515 132.91 81.9371C132.91 80.6059 133.323 79.547 134.15 78.7603C134.977 77.9737 136.073 77.5804 137.438 77.5804C138.904 77.5804 140.067 77.9401 140.928 78.6595C141.795 79.3722 142.329 80.384 142.531 81.6951C142.551 81.8363 142.575 82.0313 142.602 82.28L140.02 82.9255C140.013 82.8112 139.996 82.6397 139.969 82.4111C139.855 81.5909 139.596 80.9353 139.193 80.4445C138.796 79.947 138.211 79.6983 137.438 79.6983C136.82 79.6983 136.342 79.8731 136.006 80.2227C135.67 80.5656 135.502 81.0463 135.502 81.6648C135.502 82.6801 135.932 83.5306 136.793 84.2163L140.02 86.7981C141.741 88.1898 142.602 89.8539 142.602 91.7902C142.602 93.1147 142.192 94.1501 141.371 94.8964C140.558 95.6427 139.462 96.0158 138.084 96.0158ZM148.066 95.8343V80.0613H144.839V77.7619H153.875V80.0613H150.648V95.8343H148.066ZM165.238 85.5072H165.883C166.959 85.5072 167.766 85.282 168.304 84.8315C168.841 84.3743 169.11 83.6314 169.11 82.6027C169.11 81.5741 168.841 80.8345 168.304 80.384C167.766 79.9268 166.959 79.6983 165.883 79.6983H165.238V85.5072ZM162.656 95.8343V77.7619H165.883C167.806 77.7619 169.255 78.1351 170.23 78.8814C171.205 79.6277 171.692 80.8681 171.692 82.6027C171.692 83.6785 171.5 84.5794 171.117 85.3055C170.734 86.0316 170.173 86.5292 169.433 86.7981L172.338 95.8343H169.776L167.174 87.4436H165.238V95.8343H162.656ZM175.482 95.8343V77.7619H182.582V79.6983H178.064V85.5072H181.291V87.4436H178.064V93.898H182.582V95.8343H175.482ZM188.531 95.8343L184.658 77.7619H187.24L189.146 87.4436L189.812 91.9616L190.497 87.4436L192.404 77.7619H194.985L191.113 95.8343H188.531ZM198.171 95.8343V77.7619H200.752V95.8343H198.171ZM205.168 95.8343V77.7619H212.268V79.6983H207.75V85.5072H210.977V87.4436H207.75V93.898H212.268V95.8343H205.168ZM217.561 95.8343L214.334 77.7619H216.915L218.206 86.1527L218.862 91.3162L219.497 86.1527L220.788 77.7619H223.37L224.661 86.1527L225.296 91.3162L225.952 86.1527L227.242 77.7619H229.824L226.597 95.8343H224.015L222.724 87.4436L222.079 82.28L221.433 87.4436L220.143 95.8343H217.561ZM232.878 95.8343V77.7619H239.978V79.6983H235.46V85.5072H238.687V87.4436H235.46V93.898H239.978V95.8343H232.878ZM243.224 95.8343V77.7619H247.228C249.117 77.7619 250.448 78.1485 251.221 78.9217C252.001 79.6949 252.391 81.0295 252.391 82.9255V90.0253C252.391 92.0087 251.995 93.4744 251.201 94.4224C250.415 95.3637 249.083 95.8343 247.208 95.8343H243.224ZM245.806 93.898H247.228C247.651 93.898 248.014 93.861 248.317 93.787C248.619 93.7063 248.865 93.5652 249.053 93.3635C249.241 93.155 249.389 92.9601 249.497 92.7785C249.604 92.5903 249.678 92.3012 249.719 91.9112C249.766 91.5213 249.793 91.2019 249.799 90.9531C249.806 90.6977 249.809 90.3043 249.809 89.7732C249.809 89.5984 249.809 89.4673 249.809 89.3799V83.5709C249.809 83.2415 249.806 82.9792 249.799 82.7843C249.799 82.5893 249.789 82.3607 249.769 82.0985C249.756 81.8296 249.732 81.6178 249.699 81.4631C249.665 81.3085 249.618 81.137 249.557 80.9488C249.497 80.7538 249.42 80.6025 249.325 80.495C249.238 80.3874 249.127 80.2765 248.993 80.1622C248.865 80.0411 248.714 79.9537 248.539 79.9C248.371 79.8394 248.172 79.7924 247.944 79.7588C247.715 79.7184 247.46 79.6983 247.177 79.6983H245.806V93.898Z" fill="#930043"/>
<path d="M61.3213 162L65.3416 141.898H69.2627L73.283 162H69.8831L69.089 157.359H65.5898L64.7708 162H61.3213ZM65.962 155.026H68.6919L67.327 146.589L65.962 155.026ZM75.3046 162V141.898H81.2111C82.4188 141.898 83.395 142.122 84.1395 142.568C84.9005 143.015 85.4548 143.669 85.8022 144.529C86.1662 145.373 86.3482 146.398 86.3482 147.606C86.3482 148.913 86.1248 149.972 85.6781 150.783C85.2314 151.577 84.6027 152.156 83.792 152.52C82.9979 152.884 82.0549 153.066 80.9629 153.066H78.9776V162H75.3046ZM78.9776 150.485H80.3673C81.0291 150.485 81.542 150.394 81.906 150.212C82.2865 150.013 82.5429 149.707 82.6753 149.294C82.8242 148.864 82.8986 148.293 82.8986 147.581C82.8986 146.853 82.8407 146.266 82.7249 145.819C82.6256 145.356 82.394 145.017 82.03 144.802C81.6826 144.587 81.1284 144.479 80.3673 144.479H78.9776V150.485ZM88.3917 162V141.898H94.2981C95.5059 141.898 96.482 142.122 97.2265 142.568C97.9876 143.015 98.5418 143.669 98.8893 144.529C99.2533 145.373 99.4353 146.398 99.4353 147.606C99.4353 148.913 99.2119 149.972 98.7652 150.783C98.3185 151.577 97.6898 152.156 96.8791 152.52C96.085 152.884 95.1419 153.066 94.05 153.066H92.0646V162H88.3917ZM92.0646 150.485H93.4544C94.1162 150.485 94.629 150.394 94.993 150.212C95.3735 150.013 95.63 149.707 95.7623 149.294C95.9112 148.864 95.9857 148.293 95.9857 147.581C95.9857 146.853 95.9278 146.266 95.812 145.819C95.7127 145.356 95.4811 145.017 95.1171 144.802C94.7697 144.587 94.2154 144.479 93.4544 144.479H92.0646V150.485ZM107.513 162V141.898H112.253C113.891 141.898 115.165 142.122 116.075 142.568C117.002 143.015 117.655 143.702 118.036 144.628C118.433 145.555 118.631 146.729 118.631 148.152V155.498C118.631 156.954 118.433 158.17 118.036 159.146C117.655 160.106 117.01 160.825 116.1 161.305C115.207 161.768 113.974 162 112.402 162H107.513ZM111.186 159.444H112.303C113.147 159.444 113.751 159.295 114.115 158.997C114.479 158.699 114.702 158.269 114.785 157.707C114.867 157.128 114.909 156.424 114.909 155.597V147.904C114.909 147.093 114.851 146.44 114.735 145.943C114.619 145.447 114.379 145.083 114.015 144.851C113.651 144.62 113.064 144.504 112.253 144.504H111.186V159.444ZM121.327 162V141.898H129.765V144.479H125V150.262H128.748V152.818H125V159.469H129.815V162H121.327ZM137.005 162.273C135.797 162.273 134.788 162.041 133.978 161.578C133.167 161.098 132.555 160.403 132.141 159.493C131.727 158.584 131.496 157.467 131.446 156.143L134.598 155.523C134.631 156.3 134.722 156.987 134.871 157.583C135.036 158.178 135.276 158.641 135.591 158.972C135.922 159.287 136.352 159.444 136.881 159.444C137.477 159.444 137.899 159.27 138.147 158.923C138.395 158.559 138.519 158.104 138.519 157.558C138.519 156.681 138.321 155.961 137.923 155.399C137.526 154.836 136.997 154.274 136.335 153.711L133.804 151.478C133.092 150.865 132.522 150.187 132.091 149.443C131.678 148.682 131.471 147.747 131.471 146.638C131.471 145.05 131.934 143.826 132.861 142.965C133.787 142.105 135.053 141.675 136.658 141.675C137.601 141.675 138.387 141.824 139.015 142.122C139.644 142.403 140.14 142.8 140.504 143.313C140.885 143.826 141.166 144.413 141.348 145.075C141.53 145.72 141.646 146.407 141.696 147.135L138.569 147.681C138.536 147.052 138.461 146.489 138.345 145.993C138.246 145.497 138.056 145.108 137.775 144.827C137.51 144.545 137.113 144.405 136.583 144.405C136.037 144.405 135.615 144.587 135.318 144.951C135.036 145.298 134.896 145.737 134.896 146.266C134.896 146.944 135.036 147.507 135.318 147.954C135.599 148.384 136.004 148.83 136.534 149.294L139.04 151.502C139.867 152.197 140.571 153.016 141.15 153.959C141.745 154.886 142.043 156.011 142.043 157.334C142.043 158.294 141.828 159.146 141.398 159.891C140.984 160.635 140.397 161.222 139.636 161.653C138.891 162.066 138.014 162.273 137.005 162.273ZM144.305 162V141.898H147.928V162H144.305ZM156.078 162.273C154.754 162.273 153.704 161.992 152.926 161.429C152.148 160.867 151.586 160.073 151.239 159.047C150.908 158.004 150.742 156.78 150.742 155.374V148.624C150.742 147.184 150.908 145.943 151.239 144.901C151.569 143.859 152.148 143.065 152.976 142.519C153.819 141.956 154.978 141.675 156.45 141.675C157.823 141.675 158.915 141.907 159.726 142.37C160.537 142.833 161.116 143.503 161.463 144.38C161.827 145.24 162.009 146.291 162.009 147.532V148.574H158.51V147.432C158.51 146.787 158.46 146.233 158.361 145.77C158.278 145.306 158.096 144.959 157.815 144.727C157.55 144.479 157.112 144.355 156.5 144.355C155.854 144.355 155.383 144.512 155.085 144.827C154.804 145.141 154.622 145.555 154.539 146.068C154.473 146.58 154.44 147.143 154.44 147.755V156.168C154.44 156.863 154.498 157.467 154.614 157.98C154.729 158.493 154.945 158.89 155.259 159.171C155.573 159.436 156.02 159.568 156.599 159.568C157.195 159.568 157.65 159.419 157.964 159.121C158.278 158.823 158.493 158.41 158.609 157.88C158.742 157.351 158.808 156.722 158.808 155.994V154.108H156.649V151.8H162.108V162H159.751L159.478 160.015C159.213 160.676 158.808 161.222 158.262 161.653C157.732 162.066 157.004 162.273 156.078 162.273ZM164.903 162V141.898H167.459L172.348 153.364V141.898H175.375V162H172.943L168.03 149.989V162H164.903ZM189.871 162.273C188.398 162.273 187.24 161.983 186.396 161.404C185.569 160.825 184.99 160.039 184.659 159.047C184.328 158.038 184.163 156.879 184.163 155.572V148.4C184.163 147.027 184.328 145.836 184.659 144.827C184.99 143.817 185.569 143.04 186.396 142.494C187.24 141.948 188.398 141.675 189.871 141.675C191.26 141.675 192.344 141.915 193.122 142.395C193.916 142.858 194.478 143.528 194.809 144.405C195.14 145.282 195.305 146.299 195.305 147.457V149.145H191.781V147.408C191.781 146.845 191.748 146.332 191.682 145.869C191.633 145.406 191.475 145.042 191.211 144.777C190.963 144.496 190.524 144.355 189.895 144.355C189.267 144.355 188.803 144.504 188.506 144.802C188.224 145.083 188.042 145.472 187.96 145.968C187.877 146.448 187.836 146.994 187.836 147.606V156.342C187.836 157.07 187.893 157.674 188.009 158.153C188.125 158.617 188.332 158.972 188.63 159.221C188.944 159.452 189.366 159.568 189.895 159.568C190.508 159.568 190.938 159.427 191.186 159.146C191.451 158.848 191.616 158.459 191.682 157.98C191.748 157.5 191.781 156.962 191.781 156.367V154.555H195.305V156.168C195.305 157.359 195.148 158.418 194.834 159.345C194.52 160.255 193.965 160.974 193.171 161.504C192.394 162.017 191.293 162.273 189.871 162.273ZM203.322 162.273C201.899 162.273 200.766 162.008 199.922 161.479C199.079 160.949 198.475 160.188 198.111 159.196C197.747 158.203 197.565 157.028 197.565 155.672V148.152C197.565 146.795 197.747 145.637 198.111 144.678C198.475 143.702 199.079 142.957 199.922 142.444C200.766 141.931 201.899 141.675 203.322 141.675C204.778 141.675 205.92 141.931 206.747 142.444C207.591 142.957 208.195 143.702 208.559 144.678C208.939 145.637 209.129 146.795 209.129 148.152V155.696C209.129 157.037 208.939 158.203 208.559 159.196C208.195 160.172 207.591 160.933 206.747 161.479C205.92 162.008 204.778 162.273 203.322 162.273ZM203.322 159.568C203.934 159.568 204.381 159.436 204.662 159.171C204.96 158.906 205.159 158.542 205.258 158.079C205.357 157.616 205.407 157.111 205.407 156.565V147.308C205.407 146.746 205.357 146.241 205.258 145.795C205.159 145.348 204.96 145 204.662 144.752C204.381 144.488 203.934 144.355 203.322 144.355C202.743 144.355 202.305 144.488 202.007 144.752C201.709 145 201.511 145.348 201.411 145.795C201.312 146.241 201.263 146.746 201.263 147.308V156.565C201.263 157.111 201.304 157.616 201.387 158.079C201.486 158.542 201.684 158.906 201.982 159.171C202.28 159.436 202.727 159.568 203.322 159.568ZM211.797 162L212.144 141.898H215.941L218.795 155.821L221.773 141.898H225.446L225.818 162H223.088L222.791 148.028L219.937 162H217.728L214.824 147.978L214.551 162H211.797ZM228.787 162V141.898H234.693C235.901 141.898 236.877 142.122 237.622 142.568C238.383 143.015 238.937 143.669 239.284 144.529C239.648 145.373 239.83 146.398 239.83 147.606C239.83 148.913 239.607 149.972 239.16 150.783C238.714 151.577 238.085 152.156 237.274 152.52C236.48 152.884 235.537 153.066 234.445 153.066H232.46V162H228.787ZM232.46 150.485H233.85C234.511 150.485 235.024 150.394 235.388 150.212C235.769 150.013 236.025 149.707 236.157 149.294C236.306 148.864 236.381 148.293 236.381 147.581C236.381 146.853 236.323 146.266 236.207 145.819C236.108 145.356 235.876 145.017 235.512 144.802C235.165 144.587 234.611 144.479 233.85 144.479H232.46V150.485ZM239.79 162L243.81 141.898H247.731L251.752 162H248.352L247.558 157.359H244.059L243.24 162H239.79ZM244.431 155.026H247.161L245.796 146.589L244.431 155.026ZM253.773 162V141.898H256.33L261.219 153.364V141.898H264.246V162H261.814L256.9 149.989V162H253.773ZM267.396 162V141.898H271.019V162H267.396ZM274.131 162V141.898H282.569V144.479H277.804V150.262H281.551V152.818H277.804V159.469H282.618V162H274.131ZM289.809 162.273C288.601 162.273 287.592 162.041 286.781 161.578C285.97 161.098 285.358 160.403 284.945 159.493C284.531 158.584 284.299 157.467 284.25 156.143L287.402 155.523C287.435 156.3 287.526 156.987 287.675 157.583C287.84 158.178 288.08 158.641 288.394 158.972C288.725 159.287 289.155 159.444 289.685 159.444C290.28 159.444 290.702 159.27 290.95 158.923C291.199 158.559 291.323 158.104 291.323 157.558C291.323 156.681 291.124 155.961 290.727 155.399C290.33 154.836 289.801 154.274 289.139 153.711L286.607 151.478C285.896 150.865 285.325 150.187 284.895 149.443C284.481 148.682 284.275 147.747 284.275 146.638C284.275 145.05 284.738 143.826 285.664 142.965C286.591 142.105 287.857 141.675 289.461 141.675C290.404 141.675 291.19 141.824 291.819 142.122C292.448 142.403 292.944 142.8 293.308 143.313C293.689 143.826 293.97 144.413 294.152 145.075C294.334 145.72 294.45 146.407 294.499 147.135L291.372 147.681C291.339 147.052 291.265 146.489 291.149 145.993C291.05 145.497 290.859 145.108 290.578 144.827C290.313 144.545 289.916 144.405 289.387 144.405C288.841 144.405 288.419 144.587 288.121 144.951C287.84 145.298 287.699 145.737 287.699 146.266C287.699 146.944 287.84 147.507 288.121 147.954C288.403 148.384 288.808 148.83 289.337 149.294L291.844 151.502C292.671 152.197 293.374 153.016 293.953 153.959C294.549 154.886 294.847 156.011 294.847 157.334C294.847 158.294 294.632 159.146 294.201 159.891C293.788 160.635 293.2 161.222 292.439 161.653C291.695 162.066 290.818 162.273 289.809 162.273Z" fill="black"/>
<rect x="1.21875" y="216.008" width="351.935" height="44.37" fill="#930043"/>
<circle cx="177.688" cy="235.165" r="37.3111" fill="white"/>
<path d="M69.8898 223.671L74.2831 232.571L84.1077 234.007L76.9987 240.931L78.6764 250.713L69.8898 246.092L61.1031 250.713L62.7808 240.931L55.6719 234.007L65.4964 232.571L69.8898 223.671Z" fill="white"/>
<path d="M110.993 223.671L115.387 232.571L125.211 234.007L118.102 240.931L119.78 250.713L110.993 246.092L102.207 250.713L103.884 240.931L96.7754 234.007L106.6 232.571L110.993 223.671Z" fill="white"/>
<path d="M178.897 213.984L186.436 229.259L203.297 231.724L191.097 243.607L193.976 260.394L178.897 252.464L163.817 260.394L166.696 243.607L154.496 231.724L171.357 229.259L178.897 213.984Z" fill="#930043"/>
<path d="M240.669 223.671L245.062 232.571L254.887 234.007L247.778 240.931L249.456 250.713L240.669 246.092L231.882 250.713L233.56 240.931L226.451 234.007L236.276 232.571L240.669 223.671Z" fill="white"/>
<path d="M281.773 223.671L286.166 232.571L295.99 234.007L288.882 240.931L290.559 250.713L281.773 246.092L272.986 250.713L274.664 240.931L267.555 234.007L277.379 232.571L281.773 223.671Z" fill="white"/>
<g clip-path="url(#clip0_929_2535)">
<path d="M185.63 290.143V294.897H181.14V284.068H179.556V294.897H174.802V284.068H173.217V300.971H168.727V290.143H167.143V307.31H168.727V302.556H179.556V313.384H181.14V296.481H185.63V307.31H187.215V290.143H185.63ZM179.556 300.971H174.802V296.481H179.556V300.971Z" fill="#930043"/>
<path d="M174.799 303.35H173.215V313.386H174.799V303.35Z" fill="#930043"/>
</g>
<path d="M134.299 321.465V330.958H132.179V327.398H125.817V330.958H123.697V321.465H125.817V325.025H132.179V321.465H134.299Z" fill="black"/>
<path d="M136.109 330.959V321.451H138.75V330.959H136.109Z" fill="black"/>
<path d="M150.895 323.837H146.655V330.957H144.535V323.837H140.293V321.464H150.895V323.837Z" fill="black"/>
<path d="M162.938 321.464V323.837H154.456V323.839H152.336V321.464H162.938ZM162.938 325.225V327.16H154.456V327.165H152.336V325.225H162.938ZM162.938 328.584V330.957H152.336V328.584H162.938Z" fill="black"/>
<path d="M175.358 324.539V325.617H173.238V324.75C173.238 324.246 172.872 323.837 172.422 323.837H164.756V321.464H172.611C172.827 321.464 173.036 321.492 173.238 321.546C174.251 321.81 175.049 322.703 175.287 323.839C175.333 324.063 175.358 324.297 175.358 324.539ZM167.692 328.584H175.358V330.957H167.503C167.405 330.957 167.31 330.952 167.217 330.939C167.101 330.927 166.987 330.904 166.876 330.876C165.863 330.611 165.065 329.719 164.827 328.582C164.808 328.498 164.795 328.414 164.783 328.33C164.765 328.183 164.754 328.033 164.754 327.88V325.123H166.874V327.669C166.876 328.175 167.242 328.584 167.692 328.584Z" fill="black"/>
<path d="M187.666 321.464V330.957H185.546V327.397H179.184V330.957H177.064V321.464H179.184V325.024H185.546V321.464H187.666Z" fill="black"/>
<path d="M205.686 321.464V330.957H203.566V327.397H197.204V330.957H195.084V321.464H197.204V325.024H203.566V321.464H205.686Z" fill="#930043"/>
<path d="M218.118 321.464V330.957H216.054V329.94L215.23 330.957H209.947C208.697 330.812 207.695 329.729 207.514 328.348V321.464H209.634V327.672C209.634 328.175 209.999 328.584 210.449 328.584H215.991L215.995 321.464H218.118Z" fill="#930043"/>
<path d="M230.619 327.437C230.646 327.608 230.66 327.783 230.66 327.961C230.66 328.17 230.642 328.373 230.606 328.569C230.372 329.843 229.413 330.822 228.231 330.942C228.152 330.949 228.07 330.954 227.986 330.954C227.902 330.954 227.822 330.949 227.74 330.942H222.151V330.954H220.031V328.572H220.034V327.44H220.031V325.088H220.034V323.801H220.031V321.451H227.986C229.272 321.451 230.349 322.468 230.603 323.824C230.642 324.025 230.66 324.231 230.66 324.444C230.66 324.658 230.64 324.864 230.603 325.065C230.526 325.484 230.367 325.871 230.151 326.204C230.383 326.563 230.547 326.982 230.619 327.437ZM228.54 324.444C228.54 324.104 228.293 323.824 227.986 323.824H226.416V323.801H222.153V325.088H226.416V325.065H227.986C228.086 325.065 228.177 325.037 228.259 324.986C228.427 324.879 228.54 324.676 228.54 324.444ZM228.54 327.964C228.54 327.743 228.436 327.549 228.281 327.44H222.156V328.572H228.099C228.349 328.513 228.54 328.261 228.54 327.964Z" fill="#930043"/>
<defs>
<clipPath id="clip0_929_2535">
<rect width="20.072" height="29.3157" fill="white" transform="translate(167.143 284.068)"/>
</clipPath>
</defs>
</svg>
