<?xml version="1.0" encoding="UTF-8"?>
<svg xmlns="http://www.w3.org/2000/svg" width="25" height="25" viewBox="0 0 25 25" fill="none">
  <path d="M9.32214 23C6.93483 22.9997 4.99975 21.0642 5 18.6769C5.00025 16.2896 6.93581 14.3545 9.32313 14.3547C9.96346 14.3548 10.5958 14.4971 11.1744 14.7714V2.41016C11.1744 2.18363 11.358 2 11.5845 2H13.2301C13.4566 2 13.6402 2.18363 13.6402 2.41016C13.6402 3.22801 14.7407 3.9708 16.015 4.83008C17.4313 5.78574 19.035 6.86855 19.9497 8.60352C20.9258 10.4546 20.8951 12.5988 19.8566 15.1595C19.6057 15.7925 18.8892 16.1023 18.2561 15.8514C17.6231 15.6005 17.3133 14.884 17.5642 14.251C17.5667 14.2445 17.5693 14.2381 17.572 14.2317C18.3599 12.2957 18.3985 10.8274 17.695 9.60963C17.0568 8.50754 15.8821 7.7143 14.6385 6.87512C14.3071 6.65158 13.9696 6.42395 13.6419 6.18564V18.6302C13.6419 21.0345 11.7092 22.9947 9.33523 23H9.32214ZM9.32214 15.175C7.38018 15.1848 5.81387 16.7671 5.82368 18.709C5.82376 18.7265 5.82396 18.744 5.82433 18.7614C5.86863 20.6482 7.43707 22.1797 9.32173 22.1797H9.32912C11.2536 22.1756 12.8191 20.5834 12.8191 18.6302V5.35139C12.8174 5.12486 12.9996 4.93984 13.2261 4.93807C13.3242 4.93733 13.4194 4.97175 13.4943 5.03516C13.9811 5.44531 14.5475 5.82717 15.0939 6.19713C16.36 7.05148 17.6692 7.93496 18.4018 9.2007C19.2327 10.6362 19.209 12.3831 18.3304 14.543C18.2476 14.7459 18.3376 14.978 18.5355 15.0721C18.7413 15.1695 18.987 15.0815 19.0844 14.8757C19.0878 14.8684 19.0911 14.861 19.0941 14.8535C20.0375 12.5308 20.0785 10.6121 19.2221 8.98824C18.4018 7.43457 16.8903 6.41287 15.5549 5.51176C14.2539 4.63156 13.1091 3.85883 12.8671 2.82031H11.9947V15.479C11.9997 15.7055 11.8201 15.893 11.5936 15.898C11.5054 15.8999 11.419 15.8734 11.3471 15.8223C10.7564 15.4 10.0482 15.1736 9.32214 15.175Z" fill="black"></path>
</svg>
