<?xml version="1.0" encoding="UTF-8"?>
<svg xmlns="http://www.w3.org/2000/svg" width="25" height="25" viewBox="0 0 25 25" fill="none">
  <path d="M19.5957 13.4607C19.4258 13.4607 19.2881 13.5984 19.2881 13.7683V16.0481C19.2881 19.542 16.4456 22.3846 12.9516 22.3846C11.3449 22.3846 9.81232 21.7819 8.63632 20.6875C8.512 20.5718 8.31734 20.5788 8.20155 20.7031C8.08585 20.8275 8.09282 21.0221 8.21718 21.1379C9.50745 22.3386 11.1888 22.9998 12.9516 22.9998C16.7848 22.9998 19.9033 19.8813 19.9033 16.0481V13.7683C19.9033 13.5984 19.7656 13.4607 19.5957 13.4607Z" fill="black"></path>
  <path d="M6.61523 16.0481V14.7821L10.9103 14.1079C11.0781 14.0816 11.1928 13.9242 11.1665 13.7563C11.1401 13.5885 10.9827 13.4737 10.8149 13.5002L6.61523 14.1594V10.2C6.61523 10.0301 6.4775 9.89233 6.30762 9.89233C6.13773 9.89233 6 10.0301 6 10.2V16.0481C6 17.5612 6.47771 18.9997 7.38157 20.2081C7.44199 20.2888 7.53448 20.3314 7.62816 20.3314C7.69226 20.3314 7.7569 20.3115 7.81215 20.2701C7.9482 20.1683 7.97601 19.9756 7.87425 19.8395C7.05062 18.7384 6.61523 17.4274 6.61523 16.0481Z" fill="black"></path>
  <path d="M18.1383 7.11756C17.6857 7.10895 17.257 7.26591 16.9195 7.56184V5.36619C16.9195 4.48637 16.2037 3.77056 15.3239 3.77056C14.9546 3.77056 14.6142 3.89669 14.3435 4.10808V3.59563C14.3434 2.7158 13.6276 2 12.7478 2C11.9088 2 11.2191 2.65075 11.1567 3.47402C10.8852 3.26041 10.5431 3.13289 10.1717 3.13289C9.29187 3.13289 8.57607 3.8487 8.57607 4.72852V6.13511C8.30536 5.92368 7.96494 5.7976 7.59563 5.7976C6.7158 5.7976 6 6.5134 6 7.39323V9.00649C6 9.17638 6.13773 9.31411 6.30762 9.31411C6.4775 9.31411 6.61523 9.17638 6.61523 9.00649V7.39323C6.61523 6.85264 7.05504 6.41283 7.59567 6.41283C8.13626 6.41283 8.57607 6.85264 8.57607 7.39323V11.2885H8.01584C7.84595 11.2885 7.70822 11.4263 7.70822 11.5961C7.70822 11.766 7.84595 11.9038 8.01584 11.9038H15.2784C15.4483 11.9038 15.586 11.766 15.586 11.5961C15.586 11.4263 15.4483 11.2885 15.2784 11.2885H14.3434C14.3434 11.2885 14.3434 5.38723 14.3434 5.36615C14.3434 4.82557 14.7833 4.38576 15.3238 4.38576C15.8644 4.38576 16.3042 4.82557 16.3042 5.36615V13.4918L15.2489 13.7685C14.6339 13.9298 14.0661 14.2011 13.558 14.5754L13.1593 13.9252C13.0709 13.781 12.9171 13.6949 12.7479 13.6949C12.5787 13.6949 12.4249 13.781 12.3365 13.9252L11.4465 15.3765H9.89702C9.7225 15.3765 9.56114 15.4712 9.47587 15.6235C9.40475 15.7505 9.39646 15.9015 9.44839 16.0346L8.92831 16.1185C8.7606 16.1456 8.64657 16.3035 8.67364 16.4713C8.69805 16.6224 8.82864 16.7299 8.97695 16.7299C8.99324 16.7299 9.00977 16.7286 9.02638 16.7259L9.78705 16.6031L10.2407 17.3429L9.48559 18.5743C9.39437 18.723 9.39064 18.91 9.47587 19.0623C9.56114 19.2146 9.7225 19.3092 9.89702 19.3092H11.4465L12.3365 20.7605C12.4249 20.9048 12.5787 20.9909 12.7479 20.9909C12.9171 20.9909 13.0709 20.9048 13.1593 20.7605L14.0493 19.3092H15.5988C15.7733 19.3092 15.9346 19.2146 16.0199 19.0623C16.1051 18.9101 16.1014 18.7231 16.0102 18.5743L15.2551 17.3429L16.0102 16.1115C16.1015 15.9627 16.1051 15.7757 16.0199 15.6235C15.9347 15.4712 15.7733 15.3765 15.5988 15.3765H14.0493L13.8808 15.1017C14.3367 14.7576 14.8489 14.5094 15.405 14.3636L16.6899 14.0267C16.8252 13.9912 16.9195 13.869 16.9195 13.7291C16.9195 13.7291 16.9195 8.93636 16.9195 8.91683C16.9195 8.59576 17.0459 8.2952 17.2753 8.0706C17.5047 7.84596 17.8078 7.72582 18.1288 7.73271C18.1309 7.73275 18.1331 7.73275 18.1352 7.73275C18.771 7.73275 19.2884 8.25004 19.2884 8.88587V12.5749C19.2884 12.7447 19.4261 12.8825 19.596 12.8825C19.7659 12.8825 19.9036 12.7447 19.9036 12.5749V8.88587C19.9036 7.91187 19.112 7.1192 18.1383 7.11756ZM9.1913 4.72852C9.1913 4.18794 9.63111 3.74813 10.1717 3.74813C10.7123 3.74813 11.1521 4.18794 11.1521 4.72852V11.2885H9.19126L9.1913 4.72852ZM11.7674 11.2885V3.59563C11.7674 3.05504 12.2072 2.61523 12.7478 2.61523C13.2884 2.61523 13.7282 3.05504 13.7282 3.59563V11.2885H11.7674ZM10.1339 15.9918H11.0692L10.6015 16.7544L10.1339 15.9918ZM11.7909 15.9918H13.7049L14.5333 17.3429L13.7048 18.694H11.7908L10.9624 17.3429L11.7909 15.9918ZM10.1339 18.694L10.6015 17.9314L11.0692 18.694H10.1339ZM12.7478 20.2546L12.1681 19.3092H13.3276L12.7478 20.2546ZM15.3619 18.694H14.4266L14.8942 17.9313L15.3619 18.694ZM15.3619 15.9918L14.8942 16.7544L14.4265 15.9918H15.3619ZM12.1682 15.3766L12.7479 14.4312L13.3276 15.3766H12.1682Z" fill="black"></path>
  <path d="M12.167 17.6506H12.4414V17.7412C12.4414 17.9111 12.5792 18.0489 12.749 18.0489C12.9189 18.0489 13.0567 17.9111 13.0567 17.7412V17.6506H13.3311C13.5009 17.6506 13.6387 17.5129 13.6387 17.343C13.6387 17.1731 13.5009 17.0354 13.3311 17.0354H12.167C11.9971 17.0354 11.8594 17.1731 11.8594 17.343C11.8594 17.5129 11.9971 17.6506 12.167 17.6506Z" fill="black"></path>
</svg>
