<?xml version="1.0" encoding="UTF-8"?>
<svg xmlns="http://www.w3.org/2000/svg" width="25" height="25" viewBox="0 0 25 25" fill="none">
  <path d="M12 23C10.0222 23 8.08879 22.4135 6.4443 21.3147C4.79981 20.2159 3.51809 18.6541 2.76121 16.8268C2.00433 14.9996 1.8063 12.9889 2.19215 11.0491C2.578 9.10929 3.53041 7.32746 4.92894 5.92894C6.32746 4.53041 8.10929 3.578 10.0491 3.19215C11.9889 2.8063 13.9996 3.00433 15.8268 3.76121C17.6541 4.51809 19.2159 5.79981 20.3147 7.4443C21.4135 9.08879 22 11.0222 22 13C21.997 15.6513 20.9425 18.1931 19.0678 20.0678C17.1931 21.9425 14.6513 22.997 12 23ZM12 3.71429C10.1635 3.71429 8.36816 4.25889 6.84114 5.27921C5.31411 6.29954 4.12394 7.74977 3.42112 9.44651C2.71831 11.1433 2.53442 13.0103 2.89271 14.8116C3.251 16.6128 4.13538 18.2674 5.43401 19.566C6.73264 20.8646 8.3872 21.749 10.1885 22.1073C11.9897 22.4656 13.8567 22.2817 15.5535 21.5789C17.2502 20.8761 18.7005 19.6859 19.7208 18.1589C20.7411 16.6318 21.2857 14.8365 21.2857 13C21.2829 10.5381 20.3037 8.17794 18.5629 6.43714C16.8221 4.69635 14.4619 3.71713 12 3.71429Z" fill="black"></path>
  <path d="M19.2766 11.5714H16.2852C16.2297 11.5714 16.1751 11.5585 16.1255 11.5337C16.0759 11.5089 16.0327 11.4729 15.9995 11.4285L15.3566 10.5714C15.2565 10.4386 15.127 10.3309 14.9783 10.2565C14.8296 10.1822 14.6657 10.1433 14.4995 10.1428H9.49948C9.33322 10.1432 9.16931 10.1821 9.0206 10.2565C8.87188 10.3308 8.74242 10.4386 8.64234 10.5714L7.99948 11.4285C7.96621 11.4729 7.92308 11.5089 7.87348 11.5337C7.82389 11.5585 7.76921 11.5714 7.71376 11.5714H4.72234C4.66821 11.5714 4.6148 11.5591 4.56613 11.5354C4.51746 11.5117 4.47481 11.4773 4.4414 11.4347C4.40799 11.3921 4.38469 11.3425 4.37327 11.2896C4.36185 11.2367 4.36261 11.1819 4.37548 11.1293C4.79239 9.42185 5.7704 7.90376 7.1528 6.81829C8.53519 5.73283 10.2419 5.14282 11.9996 5.14282C13.7572 5.14282 15.4639 5.73283 16.8463 6.81829C18.2287 7.90376 19.2067 9.42185 19.6237 11.1293C19.6365 11.1819 19.6373 11.2367 19.6259 11.2896C19.6144 11.3426 19.5911 11.3922 19.5577 11.4348C19.5242 11.4774 19.4816 11.5118 19.4329 11.5354C19.3842 11.5591 19.3308 11.5714 19.2766 11.5714ZM16.4638 10.8571H18.8066C18.3523 9.40742 17.447 8.14066 16.2226 7.24129C14.9982 6.34192 13.5187 5.85692 11.9995 5.85692C10.4803 5.85692 9.00074 6.34192 7.77636 7.24129C6.55197 8.14066 5.64669 9.40742 5.19234 10.8571H7.53519L8.07091 10.1428C8.23769 9.92151 8.45347 9.74185 8.70132 9.61793C8.94918 9.494 9.22237 9.42917 9.49948 9.42853H14.4995C14.7766 9.42919 15.0498 9.49403 15.2976 9.61795C15.5455 9.74188 15.7613 9.92152 15.928 10.1428L16.4638 10.8571Z" fill="black"></path>
  <path d="M10.5718 20.7191C10.549 20.7191 10.5263 20.717 10.5039 20.7126C8.90346 20.4017 7.43956 19.6 6.3156 18.419C5.19165 17.2379 4.46344 15.7361 4.23214 14.1222C4.22487 14.0716 4.22857 14.0199 4.243 13.9708C4.25743 13.9217 4.28224 13.8763 4.31577 13.8376C4.34929 13.7989 4.39074 13.7679 4.4373 13.7466C4.48386 13.7254 4.53445 13.7144 4.58564 13.7144H4.8575C6.46719 13.7162 8.01044 14.3564 9.14866 15.4946C10.2869 16.6328 10.9271 18.1761 10.9289 19.7858V20.362C10.9289 20.4567 10.8913 20.5475 10.8243 20.6145C10.7573 20.6815 10.6665 20.7191 10.5718 20.7191ZM5.01007 14.4307C5.27663 15.7408 5.90587 16.9496 6.82606 17.9193C7.74626 18.8891 8.92039 19.5808 10.2146 19.9157V19.7858C10.213 18.3919 9.6688 17.0534 8.69731 16.0538C7.72582 15.0542 6.40335 14.4721 5.01007 14.4307Z" fill="black"></path>
  <path d="M13.4294 20.7191C13.3825 20.7191 13.336 20.7099 13.2927 20.692C13.2494 20.674 13.21 20.6477 13.1768 20.6146C13.1436 20.5814 13.1173 20.542 13.0994 20.4987C13.0814 20.4553 13.0722 20.4089 13.0723 20.362V19.7858C13.0741 18.1761 13.7143 16.6328 14.8525 15.4946C15.9908 14.3564 17.534 13.7162 19.1437 13.7144H19.4157C19.4669 13.7144 19.5175 13.7254 19.5641 13.7467C19.6106 13.7679 19.6521 13.799 19.6856 13.8376C19.7191 13.8763 19.7439 13.9217 19.7584 13.9708C19.7728 14.0199 19.7765 14.0716 19.7693 14.1222C19.5379 15.7361 18.8096 17.2379 17.6856 18.4189C16.5616 19.6 15.0977 20.4017 13.4973 20.7126C13.4749 20.717 13.4522 20.7191 13.4294 20.7191ZM18.9913 14.4307C17.598 14.4721 16.2755 15.0542 15.304 16.0538C14.3325 17.0534 13.7882 18.3919 13.7866 19.7858V19.9157C15.0808 19.5808 16.2549 18.889 17.1751 17.9193C18.0953 16.9495 18.7246 15.7408 18.9913 14.4307Z" fill="black"></path>
  <path d="M12.0003 15.8572C11.5765 15.8572 11.1622 15.7316 10.8098 15.4961C10.4574 15.2607 10.1827 14.926 10.0205 14.5344C9.85835 14.1429 9.81591 13.712 9.8986 13.2963C9.98128 12.8807 10.1854 12.4988 10.4851 12.1992C10.7847 11.8995 11.1666 11.6954 11.5822 11.6127C11.9979 11.53 12.4288 11.5725 12.8203 11.7346C13.2119 11.8968 13.5465 12.1715 13.782 12.5239C14.0175 12.8763 14.1431 13.2906 14.1431 13.7144C14.1425 14.2825 13.9165 14.8272 13.5148 15.2289C13.1131 15.6307 12.5684 15.8566 12.0003 15.8572ZM12.0003 12.2858C11.7177 12.2858 11.4415 12.3696 11.2066 12.5266C10.9717 12.6836 10.7886 12.9067 10.6805 13.1677C10.5723 13.4287 10.544 13.716 10.5992 13.9931C10.6543 14.2702 10.7903 14.5248 10.9901 14.7245C11.1899 14.9243 11.4445 15.0604 11.7216 15.1155C11.9987 15.1706 12.2859 15.1423 12.547 15.0342C12.808 14.9261 13.0311 14.743 13.1881 14.5081C13.3451 14.2731 13.4289 13.9969 13.4289 13.7144C13.4284 13.3356 13.2778 12.9725 13.01 12.7047C12.7421 12.4369 12.379 12.2862 12.0003 12.2858Z" fill="black"></path>
</svg>
