<svg width="355" height="400" viewBox="0 0 355 400" fill="none" xmlns="http://www.w3.org/2000/svg">
<path d="M16.2048 81.782L162.2 5.02596C171.471 0.139784 182.901 0.139784 192.172 5.02596L338.168 81.782C347.439 86.6681 353.154 95.6729 353.154 105.427V294.434C353.154 304.187 347.439 313.192 338.168 318.078L192.172 394.834C182.901 399.72 171.471 399.72 162.2 394.834L16.2048 318.078C6.93358 313.192 1.21875 304.187 1.21875 294.434V105.427C1.21875 95.6542 6.93358 86.6494 16.2048 81.782Z" fill="white" stroke="#930043" stroke-width="2.23497" stroke-miterlimit="10"/>
<path d="M329.571 285.91C329.571 293.431 325.127 300.447 317.945 304.208L187.074 372.908C179.893 376.669 170.983 376.669 163.843 372.908L32.931 304.208C25.7496 300.447 21.3049 293.431 21.3049 285.91V269.252H14V285.91C14 295.789 19.8439 304.994 29.2682 309.933L160.18 378.652C164.872 381.121 170.16 382.356 175.448 382.356C180.716 382.356 185.984 381.121 190.696 378.652L321.608 309.933C331.032 304.994 336.876 295.789 336.876 285.91V269.252H329.592V285.91H329.571ZM321.608 89.918L190.696 21.2177C181.292 16.2597 169.584 16.2784 160.18 21.2177L29.2888 89.918C19.8645 94.8759 14.0206 104.081 14.0206 113.959V207.598H21.3255V113.959C21.3255 106.438 25.7701 99.4222 32.9516 95.6617L163.802 26.9614C170.983 23.2008 179.893 23.2008 187.033 26.9614L317.945 95.6617C325.127 99.4222 329.571 106.438 329.571 113.959V207.598H336.855V113.959C336.876 104.081 331.032 94.8759 321.608 89.918Z" fill="#930043"/>
<path d="M101.623 122.677V104.605H105.193L107.754 118.441L110.316 104.605H113.886V122.677H111.304V108.417L108.722 122.677H106.786L104.204 108.417V122.677H101.623ZM122.779 122.859C121.872 122.859 121.092 122.721 120.44 122.445C119.794 122.17 119.28 121.766 118.897 121.235C118.513 120.704 118.234 120.082 118.06 119.369C117.885 118.65 117.797 117.816 117.797 116.868V110.313C117.797 109.365 117.885 108.538 118.06 107.832C118.234 107.126 118.513 106.514 118.897 105.996C119.28 105.472 119.794 105.079 120.44 104.817C121.092 104.554 121.872 104.423 122.779 104.423C124.541 104.423 125.812 104.927 126.591 105.936C127.371 106.944 127.761 108.403 127.761 110.313V116.868C127.761 117.803 127.671 118.63 127.489 119.349C127.314 120.062 127.035 120.687 126.652 121.225C126.269 121.756 125.751 122.163 125.099 122.445C124.453 122.721 123.68 122.859 122.779 122.859ZM120.893 119.924C121.243 120.469 121.872 120.741 122.779 120.741C123.687 120.741 124.312 120.469 124.655 119.924C125.005 119.379 125.18 118.576 125.18 117.514V109.667C125.18 108.619 125.008 107.835 124.665 107.318C124.322 106.8 123.694 106.541 122.779 106.541C121.865 106.541 121.236 106.8 120.893 107.318C120.551 107.835 120.379 108.619 120.379 109.667V117.514C120.379 118.576 120.551 119.379 120.893 119.924ZM136.382 122.859C134.755 122.859 133.512 122.381 132.651 121.427C131.797 120.472 131.32 119.168 131.219 117.514L133.801 116.868C133.928 119.45 134.789 120.741 136.382 120.741C137.673 120.741 138.319 120.095 138.319 118.804C138.319 118.421 138.265 118.068 138.157 117.746C138.057 117.416 137.899 117.117 137.683 116.848C137.468 116.572 137.273 116.354 137.098 116.192C136.924 116.024 136.685 115.819 136.382 115.577L133.155 112.996C132.564 112.532 132.09 111.943 131.733 111.231C131.384 110.511 131.209 109.694 131.209 108.78C131.209 107.449 131.622 106.39 132.449 105.603C133.276 104.817 134.372 104.423 135.737 104.423C137.203 104.423 138.366 104.783 139.226 105.502C140.094 106.215 140.628 107.227 140.83 108.538C140.85 108.679 140.874 108.874 140.9 109.123L138.319 109.768C138.312 109.654 138.295 109.483 138.268 109.254C138.154 108.434 137.895 107.778 137.492 107.287C137.095 106.79 136.51 106.541 135.737 106.541C135.118 106.541 134.641 106.716 134.305 107.066C133.969 107.408 133.801 107.889 133.801 108.508C133.801 109.523 134.231 110.373 135.092 111.059L138.319 113.641C140.04 115.033 140.9 116.697 140.9 118.633C140.9 119.958 140.49 120.993 139.67 121.739C138.857 122.486 137.761 122.859 136.382 122.859ZM146.365 122.677V106.904H143.138V104.605H152.174V106.904H148.947V122.677H146.365ZM163.537 112.35H164.182C165.258 112.35 166.065 112.125 166.602 111.674C167.14 111.217 167.409 110.474 167.409 109.446C167.409 108.417 167.14 107.677 166.602 107.227C166.065 106.77 165.258 106.541 164.182 106.541H163.537V112.35ZM160.955 122.677V104.605H164.182C166.105 104.605 167.554 104.978 168.529 105.724C169.504 106.47 169.991 107.711 169.991 109.446C169.991 110.521 169.799 111.422 169.416 112.148C169.033 112.874 168.471 113.372 167.732 113.641L170.636 122.677H168.075L165.473 114.286H163.537V122.677H160.955ZM173.781 122.677V104.605H180.881V106.541H176.363V112.35H179.59V114.286H176.363V120.741H180.881V122.677H173.781ZM186.83 122.677L182.957 104.605H185.539L187.445 114.286L188.111 118.804L188.796 114.286L190.702 104.605H193.284L189.411 122.677H186.83ZM196.469 122.677V104.605H199.051V122.677H196.469ZM203.467 122.677V104.605H210.567V106.541H206.049V112.35H209.276V114.286H206.049V120.741H210.567V122.677H203.467ZM215.86 122.677L212.632 104.605H215.214L216.505 112.996L217.161 118.159L217.796 112.996L219.087 104.605H221.669L222.959 112.996L223.595 118.159L224.25 112.996L225.541 104.605H228.123L224.896 122.677H222.314L221.023 114.286L220.378 109.123L219.732 114.286L218.441 122.677H215.86ZM231.177 122.677V104.605H238.277V106.541H233.759V112.35H236.986V114.286H233.759V120.741H238.277V122.677H231.177ZM241.523 122.677V104.605H245.527C247.416 104.605 248.747 104.991 249.52 105.765C250.3 106.538 250.69 107.872 250.69 109.768V116.868C250.69 118.852 250.293 120.317 249.5 121.265C248.713 122.206 247.382 122.677 245.506 122.677H241.523ZM244.105 120.741H245.527C245.95 120.741 246.313 120.704 246.616 120.63C246.918 120.549 247.164 120.408 247.352 120.206C247.54 119.998 247.688 119.803 247.796 119.621C247.903 119.433 247.977 119.144 248.018 118.754C248.065 118.364 248.091 118.045 248.098 117.796C248.105 117.54 248.108 117.147 248.108 116.616C248.108 116.441 248.108 116.31 248.108 116.223V110.414C248.108 110.084 248.105 109.822 248.098 109.627C248.098 109.432 248.088 109.204 248.068 108.941C248.055 108.672 248.031 108.461 247.997 108.306C247.964 108.151 247.917 107.98 247.856 107.792C247.796 107.597 247.718 107.445 247.624 107.338C247.537 107.23 247.426 107.119 247.291 107.005C247.164 106.884 247.012 106.797 246.838 106.743C246.67 106.682 246.471 106.635 246.243 106.602C246.014 106.561 245.758 106.541 245.476 106.541H244.105V120.741Z" fill="#930043"/>
<path d="M67.5187 168V147.898H72.4573C73.3507 147.898 74.1531 147.981 74.8645 148.146C75.5925 148.312 76.2129 148.593 76.7258 148.99C77.2552 149.371 77.6606 149.892 77.9418 150.554C78.2231 151.215 78.3637 152.051 78.3637 153.06C78.3637 153.871 78.2479 154.566 78.0163 155.145C77.8012 155.724 77.4786 156.187 77.0484 156.535C76.6183 156.865 76.0806 157.089 75.4353 157.205C76.2295 157.337 76.883 157.618 77.3959 158.048C77.9253 158.462 78.3141 159.008 78.5623 159.686C78.827 160.365 78.9593 161.184 78.9593 162.143C78.9593 163.103 78.8352 163.955 78.5871 164.699C78.3555 165.427 77.9997 166.039 77.5199 166.536C77.0567 167.016 76.4694 167.38 75.7579 167.628C75.0631 167.876 74.2441 168 73.3011 168H67.5187ZM71.1916 165.419H72.5814C73.6899 165.419 74.4426 165.154 74.8397 164.625C75.2368 164.079 75.4353 163.243 75.4353 162.118C75.4353 161.308 75.3361 160.654 75.1375 160.158C74.9555 159.645 74.6412 159.264 74.1945 159.016C73.7643 158.768 73.1853 158.644 72.4573 158.644H71.1916V165.419ZM71.1916 156.113H72.4325C73.1604 156.113 73.723 156.005 74.12 155.79C74.5171 155.575 74.7901 155.244 74.939 154.797C75.1044 154.351 75.1872 153.788 75.1872 153.11C75.1872 152.398 75.0631 151.852 74.8149 151.472C74.5833 151.075 74.2276 150.81 73.7478 150.678C73.268 150.529 72.6558 150.454 71.9113 150.454H71.1916V156.113ZM80.2911 168L84.3115 147.898H88.2325L92.2529 168H88.853L88.0588 163.359H84.5596L83.7407 168H80.2911ZM84.9319 161.026H87.6617L86.2968 152.589L84.9319 161.026ZM99.4665 168.273C97.994 168.273 96.8359 167.983 95.9921 167.404C95.1649 166.825 94.5858 166.039 94.2549 165.047C93.924 164.038 93.7586 162.879 93.7586 161.572V154.4C93.7586 153.027 93.924 151.836 94.2549 150.827C94.5858 149.817 95.1649 149.04 95.9921 148.494C96.8359 147.948 97.994 147.675 99.4665 147.675C100.856 147.675 101.94 147.915 102.717 148.395C103.512 148.858 104.074 149.528 104.405 150.405C104.736 151.282 104.901 152.299 104.901 153.457V155.145H101.377V153.408C101.377 152.845 101.344 152.332 101.278 151.869C101.228 151.406 101.071 151.042 100.807 150.777C100.558 150.496 100.12 150.355 99.4913 150.355C98.8626 150.355 98.3993 150.504 98.1015 150.802C97.8203 151.083 97.6383 151.472 97.5556 151.968C97.4728 152.448 97.4315 152.994 97.4315 153.606V162.342C97.4315 163.07 97.4894 163.674 97.6052 164.153C97.721 164.617 97.9278 164.972 98.2256 165.221C98.54 165.452 98.9619 165.568 99.4913 165.568C100.103 165.568 100.534 165.427 100.782 165.146C101.046 164.848 101.212 164.459 101.278 163.98C101.344 163.5 101.377 162.962 101.377 162.367V160.555H104.901V162.168C104.901 163.359 104.744 164.418 104.43 165.345C104.116 166.255 103.561 166.974 102.767 167.504C101.99 168.017 100.889 168.273 99.4665 168.273ZM107.459 168V147.898H111.131V156.733L115.102 147.898H118.601L114.755 156.882L118.998 168H115.35L111.975 158.843L111.131 160.381V168H107.459ZM120.667 168V147.898H129.105V150.479H124.34V156.262H128.087V158.818H124.34V165.469H129.154V168H120.667ZM131.282 168V147.898H133.838L138.727 159.364V147.898H141.755V168H139.323L134.409 155.989V168H131.282ZM144.805 168V147.898H149.545C151.183 147.898 152.457 148.122 153.367 148.568C154.293 149.015 154.947 149.702 155.327 150.628C155.725 151.555 155.923 152.729 155.923 154.152V161.498C155.923 162.954 155.725 164.17 155.327 165.146C154.947 166.106 154.302 166.825 153.392 167.305C152.498 167.768 151.266 168 149.694 168H144.805ZM148.478 165.444H149.595C150.439 165.444 151.042 165.295 151.406 164.997C151.77 164.699 151.994 164.269 152.076 163.707C152.159 163.128 152.201 162.424 152.201 161.597V153.904C152.201 153.093 152.143 152.44 152.027 151.943C151.911 151.447 151.671 151.083 151.307 150.851C150.943 150.62 150.356 150.504 149.545 150.504H148.478V165.444ZM164.654 168V147.898H169.394C171.032 147.898 172.306 148.122 173.216 148.568C174.142 149.015 174.796 149.702 175.176 150.628C175.573 151.555 175.772 152.729 175.772 154.152V161.498C175.772 162.954 175.573 164.17 175.176 165.146C174.796 166.106 174.15 166.825 173.24 167.305C172.347 167.768 171.115 168 169.543 168H164.654ZM168.327 165.444H169.443C170.287 165.444 170.891 165.295 171.255 164.997C171.619 164.699 171.842 164.269 171.925 163.707C172.008 163.128 172.049 162.424 172.049 161.597V153.904C172.049 153.093 171.991 152.44 171.876 151.943C171.76 151.447 171.52 151.083 171.156 150.851C170.792 150.62 170.205 150.504 169.394 150.504H168.327V165.444ZM178.468 168V147.898H186.906V150.479H182.141V156.262H185.888V158.818H182.141V165.469H186.955V168H178.468ZM192.16 168L188.115 147.898H191.366L194.022 162.118L196.503 147.898H199.829L195.784 168H192.16ZM201.879 168V147.898H210.317V150.479H205.552V156.262H209.3V158.818H205.552V165.469H210.367V168H201.879ZM212.494 168V147.898H216.167V165.469H221.031V168H212.494ZM228.157 168.273C226.734 168.273 225.601 168.008 224.757 167.479C223.913 166.949 223.31 166.188 222.946 165.196C222.582 164.203 222.4 163.028 222.4 161.672V154.152C222.4 152.795 222.582 151.637 222.946 150.678C223.31 149.702 223.913 148.957 224.757 148.444C225.601 147.931 226.734 147.675 228.157 147.675C229.613 147.675 230.755 147.931 231.582 148.444C232.426 148.957 233.03 149.702 233.393 150.678C233.774 151.637 233.964 152.795 233.964 154.152V161.696C233.964 163.037 233.774 164.203 233.393 165.196C233.03 166.172 232.426 166.933 231.582 167.479C230.755 168.008 229.613 168.273 228.157 168.273ZM228.157 165.568C228.769 165.568 229.216 165.436 229.497 165.171C229.795 164.906 229.994 164.542 230.093 164.079C230.192 163.616 230.242 163.111 230.242 162.565V153.308C230.242 152.746 230.192 152.241 230.093 151.795C229.994 151.348 229.795 151 229.497 150.752C229.216 150.488 228.769 150.355 228.157 150.355C227.578 150.355 227.14 150.488 226.842 150.752C226.544 151 226.345 151.348 226.246 151.795C226.147 152.241 226.097 152.746 226.097 153.308V162.565C226.097 163.111 226.139 163.616 226.221 164.079C226.321 164.542 226.519 164.906 226.817 165.171C227.115 165.436 227.562 165.568 228.157 165.568ZM236.681 168V147.898H242.588C243.795 147.898 244.771 148.122 245.516 148.568C246.277 149.015 246.831 149.669 247.179 150.529C247.543 151.373 247.725 152.398 247.725 153.606C247.725 154.913 247.501 155.972 247.055 156.783C246.608 157.577 245.979 158.156 245.169 158.52C244.374 158.884 243.431 159.066 242.339 159.066H240.354V168H236.681ZM240.354 156.485H241.744C242.406 156.485 242.918 156.394 243.282 156.212C243.663 156.013 243.919 155.707 244.052 155.294C244.201 154.864 244.275 154.293 244.275 153.581C244.275 152.853 244.217 152.266 244.101 151.819C244.002 151.356 243.771 151.017 243.407 150.802C243.059 150.587 242.505 150.479 241.744 150.479H240.354V156.485ZM249.768 168V147.898H258.206V150.479H253.441V156.262H257.188V158.818H253.441V165.469H258.256V168H249.768ZM260.383 168V147.898H265.198C266.554 147.898 267.696 148.064 268.623 148.395C269.566 148.709 270.277 149.255 270.757 150.033C271.253 150.81 271.501 151.869 271.501 153.209C271.501 154.02 271.427 154.748 271.278 155.393C271.129 156.038 270.873 156.592 270.509 157.056C270.161 157.502 269.673 157.85 269.044 158.098L271.849 168H268.176L265.744 158.793H264.056V168H260.383ZM264.056 156.485H265.198C265.909 156.485 266.472 156.386 266.885 156.187C267.315 155.972 267.622 155.641 267.804 155.194C267.986 154.731 268.077 154.144 268.077 153.432C268.077 152.423 267.886 151.67 267.506 151.174C267.142 150.661 266.439 150.405 265.396 150.405H264.056V156.485ZM279.309 168.273C278.101 168.273 277.092 168.041 276.281 167.578C275.47 167.098 274.858 166.403 274.444 165.493C274.031 164.584 273.799 163.467 273.75 162.143L276.901 161.523C276.934 162.3 277.025 162.987 277.174 163.583C277.34 164.178 277.58 164.641 277.894 164.972C278.225 165.287 278.655 165.444 279.184 165.444C279.78 165.444 280.202 165.27 280.45 164.923C280.698 164.559 280.822 164.104 280.822 163.558C280.822 162.681 280.624 161.961 280.227 161.399C279.83 160.836 279.3 160.274 278.638 159.711L276.107 157.478C275.396 156.865 274.825 156.187 274.395 155.443C273.981 154.682 273.774 153.747 273.774 152.638C273.774 151.05 274.238 149.826 275.164 148.965C276.091 148.105 277.356 147.675 278.961 147.675C279.904 147.675 280.69 147.824 281.319 148.122C281.947 148.403 282.444 148.8 282.808 149.313C283.188 149.826 283.47 150.413 283.652 151.075C283.834 151.72 283.949 152.407 283.999 153.135L280.872 153.681C280.839 153.052 280.764 152.489 280.649 151.993C280.549 151.497 280.359 151.108 280.078 150.827C279.813 150.545 279.416 150.405 278.887 150.405C278.341 150.405 277.919 150.587 277.621 150.951C277.34 151.298 277.199 151.737 277.199 152.266C277.199 152.944 277.34 153.507 277.621 153.954C277.902 154.384 278.308 154.83 278.837 155.294L281.344 157.502C282.171 158.197 282.874 159.016 283.453 159.959C284.049 160.886 284.346 162.011 284.346 163.334C284.346 164.294 284.131 165.146 283.701 165.891C283.288 166.635 282.7 167.222 281.939 167.653C281.195 168.066 280.318 168.273 279.309 168.273Z" fill="black"/>
<rect x="1.21875" y="215.85" width="351.935" height="44.37" fill="#930043"/>
<circle cx="177.69" cy="235.008" r="37.3111" fill="white"/>
<path d="M69.8898 223.514L74.2831 232.414L84.1077 233.85L76.9987 240.774L78.6764 250.556L69.8898 245.935L61.1031 250.556L62.7808 240.774L55.6719 233.85L65.4964 232.414L69.8898 223.514Z" fill="white"/>
<path d="M110.993 223.514L115.387 232.414L125.211 233.85L118.102 240.774L119.78 250.556L110.993 245.935L102.207 250.556L103.884 240.774L96.7754 233.85L106.6 232.414L110.993 223.514Z" fill="white"/>
<path d="M178.897 213.827L186.436 229.101L203.297 231.566L191.097 243.449L193.976 260.236L178.897 252.306L163.817 260.236L166.696 243.449L154.496 231.566L171.357 229.101L178.897 213.827Z" fill="#930043"/>
<path d="M240.669 223.514L245.062 232.414L254.887 233.85L247.778 240.774L249.456 250.556L240.669 245.935L231.882 250.556L233.56 240.774L226.451 233.85L236.276 232.414L240.669 223.514Z" fill="white"/>
<path d="M281.773 223.514L286.166 232.414L295.99 233.85L288.882 240.774L290.559 250.556L281.773 245.935L272.986 250.556L274.664 240.774L267.555 233.85L277.379 232.414L281.773 223.514Z" fill="white"/>
<g clip-path="url(#clip0_929_2734)">
<path d="M185.634 289.985V294.739H181.144V283.911H179.559V294.739H174.806V283.911H173.221V300.813H168.731V289.985H167.146V307.152H168.731V302.398H179.559V313.226H181.144V296.324H185.634V307.152H187.218V289.985H185.634ZM179.559 300.813H174.806V296.324H179.559V300.813Z" fill="#930043"/>
<path d="M174.805 303.192H173.221V313.228H174.805V303.192Z" fill="#930043"/>
</g>
<path d="M134.301 321.308V330.801H132.181V327.241H125.819V330.801H123.699V321.308H125.819V324.868H132.181V321.308H134.301Z" fill="black"/>
<path d="M136.111 330.802V321.294H138.752V330.802H136.111Z" fill="black"/>
<path d="M150.897 323.68H146.657V330.8H144.537V323.68H140.295V321.307H150.897V323.68Z" fill="black"/>
<path d="M162.939 321.307V323.68H154.458V323.682H152.338V321.307H162.939ZM162.939 325.068V327.003H154.458V327.008H152.338V325.068H162.939ZM162.939 328.427V330.8H152.338V328.427H162.939Z" fill="black"/>
<path d="M175.362 324.382V325.46H173.242V324.593C173.242 324.089 172.876 323.68 172.426 323.68H164.76V321.307H172.615C172.831 321.307 173.04 321.335 173.242 321.389C174.255 321.653 175.053 322.546 175.291 323.682C175.337 323.906 175.362 324.14 175.362 324.382ZM167.696 328.427H175.362V330.8H167.507C167.409 330.8 167.314 330.795 167.221 330.782C167.105 330.769 166.991 330.747 166.88 330.719C165.867 330.454 165.069 329.562 164.831 328.425C164.812 328.341 164.799 328.257 164.787 328.173C164.769 328.026 164.758 327.876 164.758 327.723V324.966H166.878V327.512C166.88 328.018 167.246 328.427 167.696 328.427Z" fill="black"/>
<path d="M187.668 321.307V330.8H185.548V327.24H179.186V330.8H177.066V321.307H179.186V324.867H185.548V321.307H187.668Z" fill="black"/>
<path d="M205.688 321.307V330.8H203.568V327.24H197.206V330.8H195.086V321.307H197.206V324.867H203.568V321.307H205.688Z" fill="#930043"/>
<path d="M218.119 321.307V330.8H216.056V329.783L215.232 330.8H209.949C208.699 330.655 207.697 329.572 207.516 328.191V321.307H209.635V327.514C209.635 328.018 210.001 328.427 210.451 328.427H215.993L215.997 321.307H218.119Z" fill="#930043"/>
<path d="M230.621 327.28C230.648 327.45 230.662 327.626 230.662 327.804C230.662 328.012 230.644 328.216 230.608 328.411C230.374 329.685 229.415 330.664 228.233 330.784C228.154 330.792 228.072 330.797 227.988 330.797C227.904 330.797 227.824 330.792 227.742 330.784H222.153V330.797H220.033V328.414H220.035V327.282H220.033V324.93H220.035V323.643H220.033V321.294H227.988C229.274 321.294 230.351 322.311 230.605 323.666C230.644 323.867 230.662 324.073 230.662 324.287C230.662 324.5 230.642 324.706 230.605 324.907C230.528 325.327 230.369 325.713 230.153 326.046C230.385 326.405 230.548 326.825 230.621 327.28ZM228.542 324.287C228.542 323.946 228.295 323.666 227.988 323.666H226.418V323.643H222.155V324.93H226.418V324.907H227.988C228.088 324.907 228.179 324.879 228.26 324.828C228.429 324.722 228.542 324.518 228.542 324.287ZM228.542 327.806C228.542 327.585 228.438 327.392 228.283 327.282H222.158V328.414H228.101C228.351 328.355 228.542 328.104 228.542 327.806Z" fill="#930043"/>
<defs>
<clipPath id="clip0_929_2734">
<rect width="20.072" height="29.3157" fill="white" transform="translate(167.145 283.911)"/>
</clipPath>
</defs>
</svg>
