<?xml version="1.0" encoding="UTF-8"?>
<svg xmlns="http://www.w3.org/2000/svg" width="25" height="25" viewBox="0 0 25 25" fill="none">
  <path d="M11.4463 5.24476C10.7293 3.32703 8.77465 1.9766 6.72527 2.00031C4.67156 1.9764 2.71496 3.33234 2 5.255L3.06355 6.85031L3.55105 6.52531L2.66324 5.19355C3.38996 3.60441 4.9677 2.58625 6.72527 2.58625C8.48617 2.58625 10.0666 3.60848 10.7915 5.20273L8.19746 9.04023L8.51812 7.13109L7.94027 7.03406L7.55559 9.32453H7.01328V6.68781H6.42734V9.32453H5.89188L5.50719 7.03406L4.92934 7.13109L5.2575 9.08488L3.91281 7.06262L3.42531 7.38762L4.9675 9.70613V20.2422C4.9675 21.2114 5.75605 22 6.72531 22C7.69457 22 8.48313 21.2114 8.48313 20.2422V9.69762L11.4463 5.24476ZM5.5534 9.91047H7.89715V11.0823H5.5534V9.91047ZM6.72527 21.4141C6.0791 21.4141 5.5534 20.8884 5.5534 20.2422V11.6683H7.89715V20.2422C7.89715 20.8884 7.37145 21.4141 6.72527 21.4141Z" fill="black"></path>
  <path d="M12.293 14.9683H11.4141V12.6312H12V12.0453H11.4141V11.4569H12.1465V10.8709H11.4141V10.2825H12.1465V9.6966H11.4141V9.10816H12V8.52223H11.4141V7.9375H10.8281V8.52219H10.2422V9.10813H10.8281V9.69656H10.0957V10.2825H10.8281V10.8709H10.0957V11.4568H10.8281V12.0452H10.2422V12.6312H10.8281V14.9683H9.94922V16.1277H9.65625V22H12.5859V16.1277H12.293V14.9683ZM10.5352 15.5543H11.707V16.1277H10.5352V15.5543ZM12 21.4141H10.2422V16.7137H12V21.4141Z" fill="black"></path>
  <path d="M22.0039 16.1062C22.0039 13.683 20.0325 11.7117 17.6094 11.7117C15.1862 11.7117 13.2148 13.683 13.2148 16.1062C13.2148 17.7323 14.1026 19.1548 15.4188 19.9148H13.2148V20.8104C13.2148 21.4664 13.7485 22.0001 14.4045 22.0001H19.0673V21.4141H14.4045C14.0716 21.4141 13.8008 21.1433 13.8008 20.8104V20.5007H21.418V20.8104C21.418 21.1433 21.1471 21.4141 20.8143 21.4141H19.6533V22.0001H20.8143C21.4702 22.0001 22.0039 21.4664 22.0039 20.8104V19.9148H19.7999C21.1162 19.1548 22.0039 17.7323 22.0039 16.1062ZM13.8008 16.1062C13.8008 14.0061 15.5093 12.2976 17.6094 12.2976C19.7095 12.2976 21.418 14.0061 21.418 16.1062C21.418 18.2063 19.7095 19.9148 17.6094 19.9148C15.5093 19.9148 13.8008 18.2063 13.8008 16.1062Z" fill="black"></path>
  <path d="M17.6094 12.8835C15.8324 12.8835 14.3867 14.3292 14.3867 16.1062C14.3867 17.8832 15.8324 19.3289 17.6094 19.3289C19.3863 19.3289 20.832 17.8832 20.832 16.1062C20.832 14.3292 19.3863 12.8835 17.6094 12.8835ZM17.6094 18.7429C16.1555 18.7429 14.9727 17.5601 14.9727 16.1062C14.9727 14.6523 16.1555 13.4695 17.6094 13.4695C19.0633 13.4695 20.2461 14.6523 20.2461 16.1062C20.2461 17.5601 19.0633 18.7429 17.6094 18.7429Z" fill="black"></path>
  <path d="M6.14062 12.293H6.72156V12.8789H6.14062V12.293Z" fill="black"></path>
  <path d="M6.14062 13.4648H6.72156V14.0508H6.14062V13.4648Z" fill="black"></path>
</svg>
