<?xml version="1.0" encoding="UTF-8"?>
<svg xmlns="http://www.w3.org/2000/svg" width="25" height="25" viewBox="0 0 25 25" fill="none">
  <path d="M5.25578 14.0952C3.97977 14.0952 2.94141 15.1336 2.94141 16.4096C2.94141 17.6856 3.97977 18.7236 5.25578 18.7236C6.5318 18.7236 7.57016 17.6856 7.57016 16.4096C7.57016 15.1336 6.5318 14.0952 5.25578 14.0952ZM5.25578 17.9423C4.41045 17.9423 3.72266 17.2549 3.72266 16.4096C3.72266 15.5643 4.41045 14.8765 5.25578 14.8765C6.10112 14.8765 6.78891 15.5643 6.78891 16.4096C6.78891 17.2549 6.10112 17.9423 5.25578 17.9423Z" fill="black"></path>
  <path d="M5.25325 12.4924C3.09337 12.4924 1.33594 14.2499 1.33594 16.4097C1.33594 18.5696 3.09337 20.3267 5.25325 20.3267C7.41313 20.3267 9.17056 18.5696 9.17056 16.4097C9.17056 14.2499 7.41313 12.4924 5.25325 12.4924ZM5.25325 19.5454C3.52405 19.5454 2.11719 18.1389 2.11719 16.4097C2.11719 14.6805 3.52405 13.2737 5.25325 13.2737C6.98245 13.2737 8.38931 14.6805 8.38931 16.4097C8.38931 18.1389 6.98245 19.5454 5.25325 19.5454Z" fill="black"></path>
  <path d="M21.2084 12.6017L22.454 11.2972C22.9507 10.7788 22.9411 9.94449 22.433 9.43675L17.7802 4.78778C17.6276 4.63519 17.3804 4.63519 17.2279 4.78778C16.2822 5.73344 16.2818 7.27534 17.2282 8.22635L18.6893 9.68356C18.7247 9.71904 18.7247 9.77664 18.6893 9.81212C18.6542 9.84607 18.6019 9.85027 18.5683 9.82089C17.9095 9.24144 16.4882 8.26945 14.3752 8.26945C12.025 8.26945 11.0126 9.51534 10.6738 10.0811L7.34589 9.73735L6.79962 8.58455C6.75346 8.48689 6.66839 8.41251 6.56502 8.3797L1.29005 6.70505C1.12678 6.65355 0.948638 6.71382 0.850982 6.85458C0.753325 6.99535 0.758666 7.18341 0.864333 7.31845L3.97827 11.2899C4.0683 11.4048 4.21554 11.4601 4.35783 11.4326C4.64584 11.3788 4.9472 11.3513 5.25391 11.3513C8.04436 11.3513 10.3149 13.6199 10.3149 16.4085C10.3149 17.1318 10.1669 17.8272 9.87465 18.4749C9.81399 18.6088 9.83383 18.7648 9.92538 18.8797L9.96963 18.935C10.044 19.0277 10.1562 19.0815 10.2748 19.0815H14.854C14.9608 19.0815 15.063 19.0376 15.1366 18.9605L16.5412 17.4896C17.0149 19.1304 18.5349 20.3254 20.3017 20.3254C22.4616 20.3254 24.2187 18.5684 24.2187 16.4085C24.2187 14.5792 22.9264 13.0148 21.2084 12.6017ZM14.6869 18.3002H10.7833C10.9912 17.696 11.0961 17.062 11.0961 16.4085C11.0961 13.1893 8.47542 10.5701 5.25391 10.5701C4.98192 10.5701 4.7126 10.5888 4.45053 10.6258L2.26051 7.83267L6.16676 9.07283L6.73439 10.2706C6.79275 10.3939 6.91139 10.4778 7.04719 10.4919L10.8569 10.8856C11.0263 10.9016 11.1926 10.8036 11.2586 10.6441C11.2857 10.5793 11.9491 9.0507 14.3752 9.0507C16.2318 9.0507 17.4762 9.901 18.0522 10.4072C18.394 10.709 18.9166 10.6891 19.2416 10.3645C19.5815 10.0246 19.5815 9.47108 19.2413 9.13081L17.781 7.67436C17.234 7.12466 17.1527 6.28314 17.5372 5.64952L21.8806 9.98912C22.0905 10.1989 22.0946 10.543 21.8898 10.7566C21.8898 10.757 21.8894 10.757 21.889 10.7574L18.1199 14.7048L16.5042 16.3963C16.5037 16.3968 16.5036 16.3976 16.5031 16.3981L14.6869 18.3002ZM20.3017 19.5442C18.7243 19.5442 17.3902 18.3553 17.1929 16.807L18.0398 15.9201C18.0056 16.078 17.9866 16.2416 17.9866 16.4096C17.9866 17.6857 19.0246 18.7236 20.3006 18.7236C21.5766 18.7236 22.615 17.6857 22.615 16.4096C22.615 15.1336 21.5766 14.0953 20.3006 14.0953C20.0945 14.0953 19.8957 14.1249 19.7054 14.1757L19.8989 13.973L20.5562 13.285C22.1599 13.4136 23.4374 14.7804 23.4374 16.4085C23.4374 18.1377 22.0309 19.5442 20.3017 19.5442ZM20.3006 14.8765C21.1459 14.8765 21.8337 15.5643 21.8337 16.4096C21.8337 17.255 21.1459 17.9424 20.3006 17.9424C19.4553 17.9424 18.7679 17.255 18.7679 16.4096C18.7679 15.5643 19.4553 14.8765 20.3006 14.8765Z" fill="black"></path>
</svg>
