<?xml version="1.0" encoding="UTF-8"?>
<svg xmlns="http://www.w3.org/2000/svg" width="25" height="25" viewBox="0 0 25 25" fill="none">
  <path d="M22.6914 22.3386C21.5236 22.3607 20.5345 21.9788 19.5442 21.5425C20.3106 21.0004 20.8512 20.355 21.1198 19.6531C21.1564 19.5577 21.1423 19.4502 21.0825 19.3673C21.0227 19.2845 20.9277 19.2371 20.8229 19.242C20.7782 19.2441 18.4688 19.3513 15.5234 19.5254C15.4764 19.3247 15.3773 19.1455 15.2244 18.9914C14.7777 18.5411 13.9729 18.4099 13.303 18.3875V18.2023H20.3333C20.4389 18.2023 20.5317 18.1482 20.5859 18.0663C20.6463 18.0091 20.6838 17.9282 20.6813 17.8385C20.5679 13.8087 19.8956 10.6859 18.6259 8.29172C18.5542 8.15652 18.4804 8.02434 18.405 7.8941C18.3913 7.85285 18.3686 7.81527 18.339 7.78344C17.1392 5.76023 15.4868 4.34523 13.3031 3.4698V3.30305C13.3031 3.1357 13.1673 3 13 3C12.8327 3 12.697 3.1357 12.697 3.30305V3.67832C12.397 5.12016 12.0127 6.52934 11.5541 7.86688C11.4998 8.0252 11.5841 8.19754 11.7424 8.25184C11.775 8.26301 11.8081 8.26828 11.8407 8.26828C11.9666 8.26828 12.0843 8.18918 12.1273 8.06344C12.3324 7.46535 12.5219 6.85266 12.6969 6.23V17.5962H6.17914C6.68551 17.1932 7.18059 16.7197 7.67672 16.1636C9.22981 14.4227 10.5186 12.2262 11.6169 9.44848C11.6784 9.29285 11.6022 9.11676 11.4465 9.05523C11.291 8.99375 11.1148 9.06992 11.0533 9.22563C9.98168 11.9359 8.72926 14.0733 7.22446 15.7601C6.53797 16.5295 5.85703 17.13 5.14582 17.5962H4.8386C4.67125 17.5962 4.53555 17.7319 4.53555 17.8992C4.53555 18.0666 4.67121 18.2023 4.8386 18.2023H12.697V18.3949C12.2101 18.41 11.3629 18.437 10.9066 18.4546C10.3903 18.4748 9.99055 18.8169 9.83739 19.3698C9.79438 19.5251 9.73223 19.7787 9.69875 19.9171C8.68434 19.9961 7.7095 20.0797 6.83125 20.1666C6.57051 20.1923 6.17184 20.3121 5.95606 20.4682C5.42543 20.8516 4.86137 21.4861 4.78785 22.1622C4.31395 22.3107 3.84301 22.3939 3.32621 22.3939C3.31848 22.3939 3.31086 22.394 3.30301 22.3938C3.13629 22.3938 3.00075 22.5286 3 22.6955C2.99926 22.8629 3.1343 22.9992 3.30168 22.9999C3.30969 22.9999 3.31774 23 3.32575 23C4.43844 23 5.3716 22.6531 6.42825 22.1326C7.32996 21.6883 8.15567 21.5887 9.02664 21.8188C9.18864 21.8617 9.35426 21.7649 9.397 21.6032C9.43973 21.4414 9.34317 21.2755 9.18133 21.2329C8.17469 20.967 7.18657 21.0834 6.16047 21.5889C5.92735 21.7038 5.70418 21.808 5.48606 21.9012C5.64727 21.5488 5.97977 21.1989 6.31106 20.9594C6.41813 20.882 6.70528 20.788 6.89082 20.7698C11.3785 20.326 18.3987 19.9668 20.3394 19.8721C20.0255 20.3904 19.5189 20.8679 18.8493 21.2741C17.9821 21.0041 17.1873 21.0176 16.3879 21.3095C16.0634 21.428 15.7535 21.569 15.4538 21.7054C14.8783 21.9673 14.3348 22.2147 13.7209 22.2991C12.7409 22.4339 11.7484 22.2561 10.5015 21.7234C10.3477 21.6577 10.1696 21.7291 10.1038 21.8831C10.038 22.037 10.1095 22.215 10.2634 22.2808C11.323 22.7335 12.2222 22.9487 13.0879 22.9487C13.328 22.9487 13.5656 22.9322 13.8033 22.8995C14.5051 22.803 15.115 22.5255 15.7048 22.257C15.9941 22.1254 16.2932 21.9892 16.5957 21.8788C17.4341 21.5727 18.242 21.6286 19.2156 22.0602C20.2553 22.521 21.382 22.9693 22.7025 22.9446C22.8698 22.9415 23.003 22.8033 22.9999 22.6361C22.9969 22.4686 22.859 22.3327 22.6914 22.3386ZM14.2264 14.817C15.2453 14.4554 16.3237 14.2962 17.4348 14.3444C17.6004 14.3537 17.7434 14.2221 17.7507 14.0548C17.7581 13.8877 17.6284 13.7462 17.4612 13.7389C16.3861 13.692 15.3391 13.827 14.3411 14.1396C14.465 13.3264 14.551 12.4365 14.5665 11.4936C15.9964 10.9747 17.475 10.9278 19.1929 11.3466C19.4324 12.189 19.6231 13.1004 19.7662 14.083C19.4755 14.0116 19.1882 13.9505 18.9092 13.9012C18.7448 13.8719 18.5873 13.9819 18.5581 14.1468C18.5289 14.3116 18.6389 14.4688 18.8037 14.4979C19.1429 14.558 19.4956 14.6362 19.8521 14.7301C19.9607 15.6286 20.0321 16.5834 20.0671 17.5962H13.5084C13.7402 16.9053 14.0147 15.9532 14.2264 14.817ZM18.9878 10.6781C17.375 10.3351 15.9498 10.3907 14.5665 10.8512C14.5566 9.98957 14.5089 9.14863 14.4236 8.33051C15.5032 7.95727 16.6236 7.93332 17.9241 8.25422C18.3398 8.98051 18.6937 9.78766 18.9878 10.6781ZM17.4777 7.53996C16.3507 7.34 15.3372 7.3975 14.352 7.71555C14.1968 6.51449 13.9595 5.365 13.6395 4.27539C15.2173 5.01449 16.4915 6.09273 17.4777 7.53996ZM13.9631 11.1889C13.9631 13.1368 13.6448 14.8682 13.3031 16.1663V5.36461C13.7409 7.16316 13.9631 9.11473 13.9631 11.1889ZM10.4215 19.5317C10.5054 19.2288 10.6765 19.0702 10.9302 19.0603C11.5707 19.0355 12.9881 18.9923 13.0805 18.9895C13.9 18.9901 14.5244 19.1463 14.7941 19.4182C14.8388 19.4633 14.8728 19.5112 14.8979 19.5628C13.4374 19.6512 11.8555 19.7545 10.3346 19.8685C10.3638 19.751 10.3965 19.6217 10.4215 19.5317Z" fill="black"></path>
</svg>
