<?xml version="1.0" encoding="UTF-8"?>
<svg xmlns="http://www.w3.org/2000/svg" width="25" height="25" viewBox="0 0 25 25" fill="none">
  <path d="M18.5829 22.0063L15.2421 14.0986C15.082 13.7276 14.9978 13.3284 14.9946 12.9244C14.9914 12.5204 15.0691 12.1198 15.2233 11.7463C15.4156 11.295 15.6793 10.8776 16.0043 10.5101C16.2641 10.2584 16.4544 9.94375 16.5566 9.59673C16.6588 9.24971 16.6694 8.88215 16.5875 8.5298C16.5055 8.17745 16.3338 7.85231 16.0889 7.586C15.8441 7.31969 15.5345 7.12128 15.1903 7.01007V5.42303L17.4044 5.88677C17.4623 5.89882 17.5153 5.92768 17.5569 5.96975C17.5985 6.01182 17.6267 6.06522 17.638 6.12326C17.6473 6.16699 17.6465 6.21224 17.6359 6.25564C17.6252 6.29904 17.6049 6.33948 17.5764 6.37394C17.548 6.40881 17.5121 6.4369 17.4715 6.45615C17.4308 6.47541 17.3863 6.48536 17.3414 6.48526H16.2548C16.1606 6.48526 16.0703 6.52267 16.0037 6.58926C15.9371 6.65585 15.8997 6.74617 15.8997 6.84034C15.8997 6.93452 15.9371 7.02483 16.0037 7.09143C16.0703 7.15802 16.1606 7.19543 16.2548 7.19543H17.3414C17.5919 7.19549 17.8336 7.10267 18.0197 6.93491C18.2058 6.76715 18.3231 6.53636 18.3489 6.28715C18.3747 6.03794 18.3073 5.788 18.1595 5.58563C18.0118 5.38327 17.7943 5.24285 17.5491 5.19152L13.2011 4.28091C13.2515 4.10447 13.3515 3.94622 13.4892 3.82499C13.6317 3.69997 13.7375 3.53864 13.7955 3.35821C13.8535 3.17777 13.8614 2.98498 13.8184 2.8004C13.7748 2.61224 13.6793 2.44009 13.5427 2.30353C13.4061 2.16697 13.2339 2.07148 13.0458 2.02792C12.8929 1.99179 12.7338 1.99071 12.5805 2.02477C12.4271 2.05883 12.2835 2.12714 12.1603 2.22459C12.0371 2.32204 11.9375 2.44609 11.8691 2.58747C11.8006 2.72885 11.765 2.88389 11.765 3.04097C11.765 3.13514 11.8024 3.22546 11.869 3.29205C11.9356 3.35864 12.0259 3.39605 12.1201 3.39605C12.2142 3.39605 12.3045 3.35864 12.3711 3.29205C12.4377 3.22546 12.4751 3.13514 12.4751 3.04097C12.475 2.99127 12.4862 2.94219 12.5078 2.89742C12.5294 2.85265 12.5608 2.81335 12.5998 2.78247C12.6398 2.75069 12.6866 2.72856 12.7366 2.71779C12.7866 2.70701 12.8383 2.70788 12.8879 2.72033C12.9455 2.7347 12.9981 2.76446 13.0401 2.80643C13.082 2.8484 13.1118 2.901 13.1262 2.95859C13.1409 3.01801 13.139 3.08034 13.1208 3.13876C13.1025 3.19719 13.0685 3.24947 13.0225 3.28988C12.7343 3.54331 12.542 3.88815 12.478 4.26653L8.06235 5.19134C7.81699 5.24248 7.59931 5.38279 7.45141 5.58514C7.30351 5.78748 7.2359 6.03748 7.26165 6.28679C7.2874 6.53609 7.40469 6.76699 7.59083 6.93483C7.77697 7.10267 8.01873 7.19552 8.26936 7.19543H9.35591C9.45009 7.19543 9.54041 7.15802 9.607 7.09143C9.67359 7.02483 9.711 6.93452 9.711 6.84034C9.711 6.74617 9.67359 6.65585 9.607 6.58926C9.54041 6.52267 9.45009 6.48526 9.35591 6.48526H8.26936C8.22437 6.48538 8.17991 6.47545 8.13924 6.45619C8.09857 6.43693 8.06272 6.40883 8.0343 6.37394C8.00162 6.33362 7.97985 6.28558 7.97106 6.23442C7.96228 6.18326 7.96678 6.13071 7.98414 6.08179C8.0015 6.03287 8.03113 5.98924 8.07019 5.95506C8.10925 5.92088 8.15644 5.8973 8.20723 5.88659L10.4206 5.42303V7.01007C10.0771 7.12104 9.76812 7.31885 9.52351 7.58432C9.27891 7.84979 9.10702 8.17393 9.02448 8.52534C8.94193 8.87675 8.95155 9.24353 9.05238 9.59014C9.15322 9.93674 9.34186 10.2514 9.60003 10.5037C9.92911 10.8718 10.1951 11.2917 10.3874 11.7465C10.5416 12.12 10.6193 12.5205 10.6161 12.9245C10.6129 13.3285 10.5287 13.7278 10.3686 14.0988L7.028 22.0064C6.99466 22.0853 6.99097 22.1736 7.01759 22.255C7.04421 22.3364 7.09936 22.4054 7.17287 22.4494C8.87648 23.4643 10.8226 24 12.8056 24C14.7886 24 16.7348 23.4643 18.4384 22.4494C18.5119 22.4054 18.567 22.3364 18.5937 22.255C18.6203 22.1736 18.6166 22.0853 18.5833 22.0064L18.5829 22.0063ZM12.8052 4.92361L14.4799 5.27443V6.91207C14.1473 6.92166 13.8218 7.01055 13.5304 7.17135C13.2391 7.33215 12.9904 7.5602 12.805 7.83653C12.6196 7.56024 12.3709 7.33222 12.0796 7.17143C11.7883 7.01063 11.4628 6.92172 11.1303 6.91207V5.27443L12.8052 4.92361ZM10.1027 10.0025C9.96216 9.86718 9.85183 9.7037 9.77886 9.52277C9.7059 9.34185 9.67195 9.14757 9.67923 8.95262C9.68651 8.75768 9.73486 8.56646 9.82111 8.39149C9.90737 8.21651 10.0296 8.06172 10.1798 7.93722C10.33 7.81273 10.5048 7.72134 10.6927 7.66904C10.8806 7.61673 11.0775 7.60469 11.2704 7.63369C11.4633 7.6627 11.6479 7.7321 11.8122 7.83736C11.9764 7.94262 12.1166 8.08136 12.2236 8.24452C12.2868 8.34099 12.373 8.42017 12.4746 8.47489C12.5761 8.52961 12.6897 8.55813 12.805 8.55788C12.9204 8.55811 13.034 8.52958 13.1355 8.47487C13.2371 8.42015 13.3234 8.34098 13.3866 8.24452C13.4938 8.08109 13.6343 7.94217 13.799 7.83688C13.9636 7.7316 14.1487 7.66232 14.342 7.63361C14.5353 7.60489 14.7326 7.61738 14.9207 7.67026C15.1089 7.72314 15.2837 7.81521 15.4337 7.94043C15.5838 8.06565 15.7057 8.22119 15.7914 8.39684C15.8771 8.57249 15.9247 8.76427 15.931 8.95961C15.9374 9.15494 15.9023 9.34942 15.8282 9.53026C15.7541 9.7111 15.6426 9.87422 15.501 10.0089C15.1111 10.4395 14.7964 10.9325 14.5699 11.4674C14.3615 11.964 14.2664 12.5009 14.2917 13.0388H11.3183C11.3436 12.5009 11.2486 11.964 11.0401 11.4674C10.8125 10.9297 10.4956 10.4344 10.1027 10.0025ZM12.8052 23.2897C11.0549 23.2909 9.33335 22.8449 7.80385 21.994L11.0225 14.375C11.1068 14.1724 11.1737 13.963 11.2224 13.749H12.1781L11.51 15.4598C11.4931 15.5032 11.4848 15.5496 11.4858 15.5962C11.4867 15.6428 11.4968 15.6888 11.5156 15.7315C11.5343 15.7742 11.5612 15.8128 11.5949 15.8451C11.6285 15.8774 11.6682 15.9027 11.7116 15.9197C11.7551 15.9367 11.8014 15.9449 11.848 15.944C11.8946 15.943 11.9406 15.9329 11.9833 15.9142C12.026 15.8954 12.0646 15.8685 12.0969 15.8348C12.1292 15.8012 12.1546 15.7615 12.1715 15.7181L12.8054 14.095L13.439 15.7181C13.4733 15.8059 13.541 15.8764 13.6272 15.9142C13.7135 15.952 13.8113 15.954 13.899 15.9198C13.9868 15.8855 14.0573 15.8178 14.0951 15.7316C14.133 15.6453 14.135 15.5475 14.1007 15.4598L13.4326 13.749H14.3883C14.4369 13.963 14.5038 14.1724 14.588 14.375L17.8069 21.994C16.2773 22.8449 14.5555 23.2909 12.8052 23.2897Z" fill="black"></path>
</svg>
