<?xml version="1.0" encoding="UTF-8"?>
<svg xmlns="http://www.w3.org/2000/svg" width="25" height="25" viewBox="0 0 25 25" fill="none">
  <path d="M5.07813 15.625C4.84635 15.625 4.61978 15.6937 4.42707 15.8225C4.23435 15.9513 4.08415 16.1343 3.99545 16.3484C3.90676 16.5626 3.88355 16.7982 3.92877 17.0255C3.97398 17.2528 4.0856 17.4616 4.24948 17.6255C4.41337 17.7894 4.62218 17.901 4.8495 17.9462C5.07683 17.9915 5.31245 17.9682 5.52658 17.8795C5.74071 17.7908 5.92374 17.6406 6.0525 17.4479C6.18127 17.2552 6.25 17.0287 6.25 16.7969C6.24964 16.4862 6.12606 16.1883 5.90637 15.9686C5.68668 15.7489 5.38882 15.6254 5.07813 15.625ZM5.07813 17.1875C5.00087 17.1875 4.92534 17.1646 4.86111 17.1217C4.79687 17.0787 4.7468 17.0177 4.71724 16.9464C4.68767 16.875 4.67993 16.7964 4.69501 16.7207C4.71008 16.6449 4.74728 16.5753 4.80191 16.5207C4.85654 16.466 4.92614 16.4288 5.00192 16.4138C5.07769 16.3987 5.15623 16.4064 5.22761 16.436C5.29899 16.4656 5.36 16.5156 5.40292 16.5799C5.44584 16.6441 5.46875 16.7196 5.46875 16.7969C5.46863 16.9004 5.42744 16.9997 5.35421 17.073C5.28098 17.1462 5.18169 17.1874 5.07813 17.1875Z" fill="black"></path>
  <path d="M19.9219 15.625C19.6901 15.625 19.4635 15.6937 19.2708 15.8225C19.0781 15.9513 18.9279 16.1343 18.8392 16.3484C18.7505 16.5626 18.7273 16.7982 18.7725 17.0255C18.8177 17.2528 18.9293 17.4616 19.0932 17.6255C19.2571 17.7894 19.4659 17.901 19.6933 17.9462C19.9206 17.9915 20.1562 17.9682 20.3703 17.8795C20.5845 17.7908 20.7675 17.6406 20.8963 17.4479C21.025 17.2552 21.0938 17.0287 21.0938 16.7969C21.0934 16.4862 20.9698 16.1883 20.7501 15.9686C20.5304 15.7489 20.2326 15.6254 19.9219 15.625ZM19.9219 17.1875C19.8446 17.1875 19.7691 17.1646 19.7049 17.1217C19.6406 17.0787 19.5906 17.0177 19.561 16.9464C19.5314 16.875 19.5237 16.7964 19.5388 16.7207C19.5538 16.6449 19.591 16.5753 19.6457 16.5207C19.7003 16.466 19.7699 16.4288 19.8457 16.4138C19.9214 16.3987 20 16.4064 20.0714 16.436C20.1427 16.4656 20.2037 16.5156 20.2467 16.5799C20.2896 16.6441 20.3125 16.7196 20.3125 16.7969C20.3124 16.9004 20.2712 16.9997 20.198 17.073C20.1247 17.1462 20.0254 17.1874 19.9219 17.1875Z" fill="black"></path>
  <path d="M23.8281 14.8438V12.5C23.8275 11.8786 23.5803 11.2828 23.1409 10.8434C22.7015 10.4041 22.1058 10.1569 21.4844 10.1563H18.2393L17.165 7.29102C17.0245 6.87355 16.7565 6.51076 16.3987 6.25388C16.0408 5.997 15.6114 5.859 15.1709 5.85938H7.8125C7.3751 5.85895 6.94846 5.995 6.59206 6.24856C6.23565 6.50213 5.96723 6.86057 5.82422 7.27393L4.44141 10.1563H3.51562C2.89423 10.1569 2.29847 10.4041 1.85907 10.8434C1.41968 11.2828 1.17253 11.8786 1.17188 12.5V14.8438C0.964758 14.844 0.766202 14.9264 0.619747 15.0729C0.473293 15.2193 0.390896 15.4179 0.390625 15.625V16.4063C0.390896 16.6134 0.473293 16.8119 0.619747 16.9584C0.766202 17.1048 0.964758 17.1872 1.17188 17.1875H2.37207C2.46597 17.8382 2.79122 18.4333 3.28821 18.8638C3.7852 19.2942 4.42065 19.5311 5.07812 19.5311C5.7356 19.5311 6.37105 19.2942 6.86804 18.8638C7.36503 18.4333 7.69028 17.8382 7.78418 17.1875H17.2158C17.3097 17.8382 17.635 18.4333 18.132 18.8638C18.629 19.2942 19.2644 19.5311 19.9219 19.5311C20.5793 19.5311 21.2148 19.2942 21.7118 18.8638C22.2088 18.4333 22.534 17.8382 22.6279 17.1875H23.8281C24.0352 17.1872 24.2338 17.1048 24.3803 16.9584C24.5267 16.8119 24.6091 16.6134 24.6094 16.4063V15.625C24.6091 15.4179 24.5267 15.2193 24.3803 15.0729C24.2338 14.9264 24.0352 14.844 23.8281 14.8438ZM17.4053 10.1563H12.5V7.8125H16.5264L17.4053 10.1563ZM1.95312 12.8906H2.73438V13.2813H1.95312V12.8906ZM2.37207 16.4063H1.17188V15.625H2.60791C2.49031 15.872 2.4108 16.1354 2.37207 16.4063ZM5.07812 18.75C4.69183 18.75 4.31422 18.6355 3.99303 18.4208C3.67184 18.2062 3.4215 17.9012 3.27367 17.5443C3.12585 17.1874 3.08717 16.7947 3.16253 16.4158C3.23789 16.037 3.42391 15.689 3.69706 15.4158C3.97021 15.1427 4.31822 14.9566 4.69709 14.8813C5.07596 14.8059 5.46867 14.8446 5.82555 14.9924C6.18244 15.1403 6.48748 15.3906 6.70209 15.7118C6.9167 16.033 7.03125 16.4106 7.03125 16.7969C7.03073 17.3147 6.82479 17.8112 6.45862 18.1774C6.09245 18.5435 5.59597 18.7495 5.07812 18.75ZM17.2158 16.4063H7.78418C7.74545 16.1354 7.66594 15.872 7.54834 15.625H17.4517C17.3341 15.872 17.2545 16.1354 17.2158 16.4063ZM19.9219 18.75C19.5356 18.75 19.158 18.6355 18.8368 18.4208C18.5156 18.2062 18.2653 17.9012 18.1174 17.5443C17.9696 17.1874 17.9309 16.7947 18.0063 16.4158C18.0816 16.037 18.2677 15.689 18.5408 15.4158C18.814 15.1427 19.162 14.9566 19.5408 14.8813C19.9197 14.8059 20.3124 14.8446 20.6693 14.9924C21.0262 15.1403 21.3312 15.3906 21.5458 15.7118C21.7605 16.033 21.875 16.4106 21.875 16.7969C21.8745 17.3147 21.6685 17.8112 21.3024 18.1774C20.9362 18.5435 20.4397 18.7495 19.9219 18.75ZM21.875 14.8438C21.8618 14.8438 21.8486 14.8446 21.8354 14.8462C21.3252 14.3441 20.6381 14.0626 19.9222 14.0625C19.2064 14.0624 18.5191 14.3437 18.0088 14.8457C17.9955 14.8443 17.9821 14.8437 17.9688 14.8438H7.03125C7.01788 14.8437 7.00451 14.8443 6.99121 14.8457C6.48086 14.3437 5.79365 14.0624 5.07778 14.0625C4.36192 14.0626 3.67477 14.3441 3.16455 14.8462C3.15142 14.8446 3.13822 14.8438 3.125 14.8438H1.95312V14.0625H3.125C3.2286 14.0625 3.32796 14.0213 3.40121 13.9481C3.47447 13.8748 3.51562 13.7755 3.51562 13.6719V12.5C3.51562 12.3964 3.47447 12.297 3.40121 12.2238C3.32796 12.1505 3.2286 12.1094 3.125 12.1094H2.00244C2.08949 11.7742 2.28525 11.4773 2.55907 11.2652C2.83289 11.0532 3.1693 10.9379 3.51562 10.9375H4.6875C4.76111 10.9375 4.83321 10.9166 4.89549 10.8774C4.95778 10.8382 5.00772 10.7822 5.03955 10.7158L6.53906 7.59082C6.54609 7.5761 6.55212 7.56093 6.55713 7.54541C6.64482 7.28185 6.81329 7.0526 7.03863 6.89019C7.26397 6.72778 7.53473 6.64046 7.8125 6.64063H15.1709C15.3454 6.64046 15.5182 6.6749 15.6793 6.74195C15.8403 6.809 15.9865 6.90733 16.1094 7.03125H7.8125C7.7089 7.03125 7.60954 7.07241 7.53629 7.14566C7.46303 7.21892 7.42188 7.31828 7.42188 7.42188V10.5469C7.42188 10.6505 7.46303 10.7498 7.53629 10.8231C7.60954 10.8963 7.7089 10.9375 7.8125 10.9375H21.4844C21.8307 10.9379 22.1671 11.0532 22.4409 11.2652C22.7147 11.4773 22.9105 11.7742 22.9976 12.1094H21.875C21.7714 12.1094 21.672 12.1505 21.5988 12.2238C21.5255 12.297 21.4844 12.3964 21.4844 12.5V13.6719C21.4844 13.7755 21.5255 13.8748 21.5988 13.9481C21.672 14.0213 21.7714 14.0625 21.875 14.0625H23.0469V14.8438H21.875ZM11.7188 7.8125V10.1563H8.20312V7.8125H11.7188ZM23.0469 12.8906V13.2813H22.2656V12.8906H23.0469ZM23.8281 16.4063H22.6279C22.5892 16.1354 22.5097 15.872 22.3921 15.625H23.8281V16.4063Z" fill="black"></path>
  <path d="M12.5 12.1094H14.4531C14.5567 12.1094 14.6561 12.0682 14.7293 11.995C14.8026 11.9217 14.8438 11.8224 14.8438 11.7188C14.8438 11.6151 14.8026 11.5158 14.7293 11.4425C14.6561 11.3693 14.5567 11.3281 14.4531 11.3281H12.5C12.3964 11.3281 12.297 11.3693 12.2238 11.4425C12.1505 11.5158 12.1094 11.6151 12.1094 11.7188C12.1094 11.8224 12.1505 11.9217 12.2238 11.995C12.297 12.0682 12.3964 12.1094 12.5 12.1094Z" fill="black"></path>
</svg>
