<?xml version="1.0" encoding="UTF-8"?>
<svg xmlns="http://www.w3.org/2000/svg" width="25" height="25" viewBox="0 0 25 25" fill="none">
  <path d="M19.4732 21.8963H4.52682C3.685 21.8963 3 21.2113 3 20.3694V7.05469C3 6.89937 3.12593 6.77344 3.28125 6.77344H20.7188C20.8741 6.77344 21 6.89937 21 7.05469V20.3694C21 21.2113 20.315 21.8963 19.4732 21.8963ZM3.5625 7.33594V20.3694C3.5625 20.9012 3.99509 21.3338 4.52682 21.3338H19.4732C20.0049 21.3338 20.4375 20.9012 20.4375 20.3694V7.33594H3.5625Z" fill="black"></path>
  <path d="M20.7188 7.33586H3.28125C3.12593 7.33586 3 7.20993 3 7.05461V5.52682C3 4.685 3.685 4 4.52682 4H19.4732C20.315 4 21 4.685 21 5.52682V7.05461C21 7.20993 20.8741 7.33586 20.7188 7.33586ZM3.5625 6.77336H20.4375V5.52682C20.4375 4.99509 20.0049 4.5625 19.4732 4.5625H4.52682C3.99509 4.5625 3.5625 4.99509 3.5625 5.52682V6.77336Z" fill="black"></path>
  <path d="M5.55859 5.94815C5.4854 5.94815 5.41234 5.92 5.36166 5.86658C5.33351 5.84117 5.31387 5.81028 5.29973 5.77649C5.28572 5.73996 5.27734 5.70618 5.27734 5.6669C5.27734 5.59371 5.30824 5.52065 5.36166 5.46997C5.46576 5.36313 5.65417 5.36588 5.75827 5.46997C5.81169 5.52065 5.83984 5.59371 5.83984 5.6669C5.83984 5.70618 5.83421 5.73996 5.82007 5.77649C5.80606 5.81028 5.78354 5.84117 5.75827 5.86658C5.70485 5.92 5.63454 5.94815 5.55859 5.94815Z" fill="black"></path>
  <path d="M6.77734 5.94844C6.70428 5.94844 6.63109 5.92029 6.57767 5.86687C6.52713 5.8162 6.49609 5.74314 6.49609 5.66719C6.49609 5.594 6.52713 5.52094 6.57767 5.47026C6.65649 5.39157 6.78023 5.36617 6.88432 5.40847C6.91797 5.42247 6.94901 5.44211 6.97702 5.47026C7.02769 5.52094 7.05859 5.594 7.05859 5.66719C7.05859 5.74314 7.02769 5.81345 6.97702 5.86687C6.94901 5.89214 6.91797 5.91466 6.88432 5.92867C6.85054 5.94281 6.81401 5.94844 6.77734 5.94844Z" fill="black"></path>
  <path d="M7.98828 5.9482C7.91508 5.9482 7.84203 5.92005 7.79135 5.86663C7.73793 5.81321 7.70703 5.7429 7.70703 5.66695C7.70703 5.63029 7.71541 5.59376 7.72955 5.55997C7.74356 5.52633 7.7632 5.49529 7.79135 5.47002C7.89545 5.36318 8.08386 5.36318 8.18796 5.47002C8.21323 5.49529 8.23575 5.52633 8.24976 5.55997C8.2639 5.59376 8.26953 5.63029 8.26953 5.66695C8.26953 5.7429 8.24138 5.81321 8.18796 5.86663C8.13728 5.92005 8.06422 5.9482 7.98828 5.9482Z" fill="black"></path>
  <path d="M18.4356 5.94922H13.168C13.0126 5.94922 12.8867 5.82329 12.8867 5.66797C12.8867 5.51265 13.0126 5.38672 13.168 5.38672H18.4356C18.591 5.38672 18.7169 5.51265 18.7169 5.66797C18.7169 5.82329 18.591 5.94922 18.4356 5.94922Z" fill="black"></path>
  <path d="M14.1853 14.9466H9.82259C9.66727 14.9466 9.54134 14.8207 9.54134 14.6653V11.5824L8.41675 13.3982C8.37747 13.4617 8.31457 13.507 8.24193 13.524C8.16956 13.5408 8.09293 13.5285 8.02948 13.4893L7.09798 12.9118C6.966 12.8299 6.92522 12.6566 7.00706 12.5245L9.5835 8.36606C9.62442 8.30014 9.69075 8.25386 9.76697 8.23862L11.1078 7.96781C11.1898 7.95037 11.2762 7.9722 11.3416 8.02576C11.4068 8.07918 11.4447 8.15911 11.4447 8.24343C11.4447 8.41495 11.5219 8.5737 11.6563 8.6789C11.6653 8.6859 11.6739 8.69345 11.6819 8.70156C11.8728 8.83339 12.1396 8.83326 12.3236 8.70142C12.332 8.69304 12.3431 8.68549 12.3523 8.67821C12.4864 8.57425 12.5631 8.41578 12.5631 8.24343C12.5631 8.15911 12.601 8.07918 12.6663 8.02576C12.7316 7.97234 12.8179 7.95092 12.9 7.96781L14.2409 8.23862C14.3171 8.25386 14.3834 8.30014 14.4243 8.36606L17.0008 12.5245C17.0826 12.6566 17.0418 12.8299 16.9099 12.9118L15.9784 13.4893C15.9148 13.5285 15.8386 13.5408 15.7659 13.524C15.6933 13.507 15.6304 13.4617 15.5911 13.3982L14.4665 11.5824V14.6653C14.4665 14.8207 14.3406 14.9466 14.1853 14.9466ZM10.1038 14.3841H13.904V10.5941C13.904 10.4684 13.9874 10.358 14.1082 10.3236C14.2291 10.2888 14.3582 10.3392 14.4243 10.446L15.9211 12.8629L16.3746 12.5818L14.0103 8.76583L13.0756 8.577C13.0107 8.78698 12.8845 8.97374 12.7081 9.11409C12.6895 9.13085 12.67 9.14554 12.6496 9.15982C12.2775 9.42652 11.7376 9.4294 11.3574 9.15914C11.3376 9.14527 11.318 9.13057 11.2993 9.11354C11.1235 8.97264 10.9974 8.78615 10.9325 8.577L9.99754 8.76583L7.63329 12.5818L8.08675 12.8629L9.5835 10.446C9.64955 10.3391 9.77795 10.2887 9.89963 10.3236C10.0205 10.358 10.1038 10.4684 10.1038 10.5941V14.3841Z" fill="black"></path>
  <path d="M17.1196 19.3786H6.87967C5.83034 19.3786 4.97656 18.5248 4.97656 17.4754C4.97656 16.4242 5.83034 15.5706 6.87967 15.5706H17.1196C18.1689 15.5706 19.0226 16.4242 19.0226 17.4735V17.4754C19.0226 18.5248 18.1689 19.3786 17.1196 19.3786ZM6.87967 16.1331C6.14043 16.1331 5.53906 16.7344 5.53906 17.4735C5.53906 18.2147 6.14043 18.8161 6.87967 18.8161H17.1196C17.8587 18.8161 18.4601 18.2147 18.4601 17.4754V17.4735C18.4601 16.7344 17.8587 16.1331 17.1196 16.1331H6.87967Z" fill="black"></path>
  <path d="M16.6979 18.6485C16.626 18.6485 16.554 18.621 16.4991 18.5661L15.9965 18.0636C15.8866 17.9539 15.8866 17.7758 15.9965 17.6659C16.1063 17.556 16.2843 17.556 16.3942 17.6659L16.8968 18.1684C17.0067 18.2781 17.0067 18.4562 16.8968 18.5661C16.8419 18.621 16.7699 18.6485 16.6979 18.6485Z" fill="black"></path>
  <path d="M15.6649 18.3656C15.4004 18.3656 15.1361 18.265 14.9347 18.0637C14.5321 17.6609 14.5322 17.0058 14.9347 16.6033C15.3248 16.2133 16.0051 16.2133 16.3951 16.6033C16.5909 16.7991 16.6987 17.059 16.6983 17.3347C16.6979 17.6096 16.5902 17.8685 16.3951 18.0637C16.1938 18.265 15.9294 18.3656 15.6649 18.3656ZM15.6649 16.8634C15.5393 16.8634 15.4212 16.9123 15.3325 17.001C15.1493 17.1843 15.1493 17.4826 15.3326 17.666C15.5158 17.8492 15.8139 17.8492 15.9974 17.666C16.0865 17.5768 16.1357 17.4589 16.1358 17.3339C16.136 17.2086 16.0868 17.0904 15.9974 17.001C15.9087 16.9123 15.7906 16.8634 15.6649 16.8634Z" fill="black"></path>
</svg>
