<?xml version="1.0" encoding="UTF-8"?>
<svg xmlns="http://www.w3.org/2000/svg" width="25" height="25" viewBox="0 0 25 25" fill="none">
  <path d="M10.547 10.7529C10.1579 10.7519 9.77243 10.828 9.41295 10.977C9.05347 11.1259 8.72709 11.3446 8.45272 11.6205L7.74775 12.3255L7.04279 11.6205C6.48617 11.0709 5.7347 10.7638 4.95244 10.7662C4.17017 10.7687 3.42065 11.0805 2.8675 11.6337C2.31435 12.1868 2.0025 12.9363 2.00001 13.7186C1.99753 14.5009 2.30463 15.2523 2.85426 15.809L6.0188 18.9735C6.47768 19.4314 7.09943 19.6885 7.74766 19.6885C8.39589 19.6885 9.01764 19.4314 9.47652 18.9735L12.6411 15.8089C13.0553 15.3947 13.3374 14.867 13.4517 14.2925C13.566 13.718 13.5073 13.1225 13.2832 12.5813C13.059 12.0401 12.6794 11.5776 12.1924 11.2521C11.7053 10.9267 11.1327 10.753 10.547 10.7529ZM12.1191 15.2868L8.95453 18.4514C8.79606 18.6099 8.60792 18.7356 8.40086 18.8213C8.1938 18.9071 7.97187 18.9513 7.74775 18.9513C7.52363 18.9513 7.3017 18.9071 7.09464 18.8213C6.88758 18.7356 6.69945 18.6099 6.54097 18.4514L3.37639 15.2868C3.16993 15.0804 3.00616 14.8353 2.89442 14.5655C2.78268 14.2958 2.72517 14.0067 2.72517 13.7147C2.72517 13.4227 2.78267 13.1336 2.89441 12.8639C3.00614 12.5941 3.16991 12.349 3.37636 12.1425C3.58282 11.9361 3.82792 11.7723 4.09767 11.6606C4.36742 11.5488 4.65653 11.4913 4.94851 11.4913C5.24049 11.4913 5.5296 11.5488 5.79935 11.6606C6.0691 11.7723 6.31421 11.9361 6.52067 12.1425L7.48669 13.1086C7.52097 13.1429 7.56167 13.1701 7.60647 13.1886C7.65126 13.2072 7.69927 13.2167 7.74775 13.2167C7.79624 13.2167 7.84425 13.2072 7.88904 13.1886C7.93383 13.1701 7.97453 13.1429 8.00881 13.1086L8.97484 12.1425C9.3918 11.7256 9.95731 11.4913 10.547 11.4913C11.1366 11.4913 11.7022 11.7256 12.1191 12.1425C12.5361 12.5595 12.7703 13.125 12.7703 13.7147C12.7703 14.3043 12.5361 14.8698 12.1191 15.2868Z" fill="black"></path>
  <path d="M18.0449 10.6194L18.5358 10.1285L19.0578 10.6505L18.5669 11.1414L18.0449 10.6194Z" fill="black"></path>
  <path d="M19.5471 10.1621C19.9357 9.77355 20.222 9.29489 20.3807 8.76881C20.5394 8.24272 20.5654 7.68555 20.4565 7.14696C20.3475 6.60837 20.107 6.1051 19.7564 5.68202C19.4058 5.25894 18.9559 4.92919 18.4469 4.72217L18.168 5.40586C18.5642 5.56688 18.9145 5.82347 19.1875 6.15273C19.4605 6.482 19.6478 6.87371 19.7327 7.29294C19.8175 7.71216 19.7973 8.14588 19.6738 8.5554C19.5504 8.96492 19.3275 9.33752 19.025 9.63998L19.5471 10.1621Z" fill="black"></path>
  <path d="M4.218 10.0545C3.66084 9.21363 3.4359 8.19578 3.5868 7.19843C3.73771 6.20107 4.25371 5.29533 5.03468 4.65693C5.81566 4.01853 6.80593 3.69298 7.81337 3.74346C8.82081 3.79393 9.77359 4.21682 10.4868 4.93008L12.1405 6.58377C12.1748 6.61805 12.2155 6.64525 12.2603 6.6638C12.3051 6.68236 12.3531 6.69191 12.4015 6.69191C12.45 6.69191 12.498 6.68236 12.5428 6.6638C12.5876 6.64525 12.6283 6.61805 12.6626 6.58377L14.3162 4.93008C15.08 4.17049 16.1138 3.74476 17.191 3.74623C18.2682 3.7477 19.3008 4.17625 20.0625 4.93793C20.8241 5.6996 21.2527 6.73223 21.2542 7.80941C21.2557 8.88658 20.8299 9.92038 20.0704 10.6841L16.2015 14.553L16.7237 15.0751L20.5924 11.2063C21.4939 10.3048 22.0004 9.08206 22.0004 7.80713C22.0004 6.53221 21.494 5.3095 20.5925 4.40798C19.6909 3.50647 18.4682 3 17.1933 3C15.9184 3 14.6957 3.50645 13.7942 4.40796L12.4015 5.80063L11.0089 4.40796C10.1662 3.56532 9.04057 3.06574 7.85035 3.00613C6.66013 2.94652 5.49019 3.33113 4.56751 4.08535C3.64484 4.83957 3.0352 5.90963 2.85687 7.08792C2.67855 8.26622 2.94425 9.46875 3.60242 10.4622L4.218 10.0545Z" fill="black"></path>
  <path d="M18.869 15.1832C18.5904 15.1824 18.3145 15.2369 18.0571 15.3435C17.7997 15.4501 17.566 15.6067 17.3696 15.8042L16.9782 16.1957L16.5867 15.8042C16.3898 15.6073 16.156 15.4511 15.8987 15.3445C15.6415 15.238 15.3657 15.1831 15.0873 15.1831C14.8088 15.1831 14.5331 15.2379 14.2758 15.3445C14.0185 15.4511 13.7848 15.6073 13.5879 15.8042C13.391 16.0011 13.2348 16.2348 13.1282 16.4921C13.0216 16.7494 12.9668 17.0251 12.9668 17.3036C12.9668 17.582 13.0216 17.8578 13.1282 18.115C13.2348 18.3723 13.391 18.6061 13.5879 18.803L15.7255 20.9405C16.0577 21.2727 16.5082 21.4593 16.978 21.4593C17.4478 21.4593 17.8984 21.2727 18.2306 20.9405L20.3682 18.8029C20.6647 18.5064 20.8666 18.1286 20.9484 17.7173C21.0302 17.306 20.9883 16.8797 20.8278 16.4922C20.6673 16.1048 20.3956 15.7736 20.0469 15.5406C19.6983 15.3076 19.2883 15.1832 18.869 15.1832ZM19.8462 18.2808L17.7086 20.4184C17.6127 20.5144 17.4988 20.5905 17.3735 20.6424C17.2481 20.6943 17.1138 20.721 16.9782 20.721C16.8425 20.721 16.7082 20.6943 16.5828 20.6424C16.4575 20.5905 16.3436 20.5144 16.2477 20.4184L14.1101 18.2808C13.8509 18.0217 13.7053 17.6701 13.7053 17.3036C13.7053 16.9371 13.8509 16.5855 14.1101 16.3264C14.3693 16.0672 14.7208 15.9216 15.0873 15.9216C15.4538 15.9216 15.8054 16.0672 16.0646 16.3264L16.7171 16.9789C16.7514 17.0132 16.7921 17.0404 16.8369 17.059C16.8817 17.0775 16.9297 17.0871 16.9782 17.0871C17.0266 17.0871 17.0746 17.0775 17.1194 17.059C17.1642 17.0404 17.2049 17.0132 17.2392 16.9789L17.8917 16.3264C18.02 16.1981 18.1724 16.0963 18.3401 16.0268C18.5077 15.9574 18.6875 15.9216 18.8689 15.9216C19.0504 15.9216 19.2301 15.9574 19.3978 16.0268C19.5655 16.0963 19.7179 16.1981 19.8462 16.3264C19.9745 16.4547 20.0763 16.6071 20.1458 16.7748C20.2152 16.9424 20.251 17.1222 20.251 17.3036C20.251 17.4851 20.2152 17.6648 20.1458 17.8325C20.0763 18.0002 19.9745 18.1525 19.8462 18.2809V18.2808Z" fill="black"></path>
</svg>
