<?xml version="1.0" encoding="UTF-8"?>
<svg xmlns="http://www.w3.org/2000/svg" width="25" height="25" viewBox="0 0 25 25" fill="none">
  <path d="M20.8257 12.365H17.6208V5.7233C17.6203 5.26638 17.4386 4.82831 17.1155 4.50523C16.7923 4.18216 16.3543 4.00045 15.8973 4H3.72349C3.26657 4.00045 2.82849 4.18215 2.50537 4.50523C2.18226 4.8283 2.00051 5.26636 2 5.72329V13.5494C2.00049 14.0063 2.18221 14.4444 2.50529 14.7675C2.82836 15.0905 3.2664 15.2722 3.7233 15.2727H5.27727V17.1546C5.27556 17.3117 5.32137 17.4658 5.4087 17.5964C5.49604 17.7271 5.62082 17.8284 5.76669 17.8869C5.86431 17.928 5.96911 17.9492 6.07501 17.9495C6.1785 17.9491 6.28087 17.9282 6.37621 17.888C6.47156 17.8477 6.55796 17.789 6.63042 17.7151L9.07278 15.2727H12.1445V18.3651C12.1448 18.6765 12.2686 18.975 12.4888 19.1952C12.7089 19.4154 13.0075 19.5393 13.3188 19.5396H17.4809L18.9541 21.013C19.0096 21.0688 19.0757 21.1131 19.1484 21.1433C19.2211 21.1735 19.2991 21.189 19.3779 21.189C19.457 21.1889 19.5353 21.1733 19.6085 21.1431C19.7183 21.0978 19.8122 21.0208 19.8782 20.922C19.9442 20.8232 19.9793 20.7071 19.9792 20.5882V19.5396H20.8257C21.137 19.5393 21.4356 19.4154 21.6557 19.1952C21.8759 18.975 21.9997 18.6765 22 18.3651V13.5396C21.9997 13.2282 21.8759 12.9297 21.6557 12.7095C21.4356 12.4893 21.137 12.3654 20.8257 12.365ZM8.95217 14.6902C8.87494 14.6902 8.80087 14.7209 8.74625 14.7755L6.21856 17.3032C6.18916 17.3326 6.15171 17.3526 6.11094 17.3607C6.07017 17.3688 6.02792 17.3646 5.98952 17.3487C5.95112 17.3328 5.9183 17.3059 5.89521 17.2713C5.87212 17.2368 5.8598 17.1961 5.85979 17.1546V14.9815C5.85977 14.9042 5.82908 14.8302 5.77446 14.7755C5.71984 14.7209 5.64577 14.6902 5.56853 14.6902H3.7233C3.42085 14.6899 3.13088 14.5696 2.91701 14.3557C2.70314 14.1419 2.58285 13.8519 2.58252 13.5494V5.72329C2.58286 5.4208 2.70318 5.13081 2.91709 4.91694C3.13099 4.70307 3.42101 4.5828 3.72349 4.58251H15.8973C16.1998 4.5828 16.4898 4.70307 16.7037 4.91694C16.9176 5.13081 17.038 5.4208 17.0383 5.72329V12.365H13.3188C13.0075 12.3654 12.709 12.4892 12.4889 12.7093C12.2687 12.9294 12.1449 13.2279 12.1445 13.5392V14.6902L8.95217 14.6902ZM21.4175 18.3651C21.4173 18.5221 21.3549 18.6725 21.244 18.7835C21.133 18.8945 20.9826 18.9569 20.8257 18.9571H19.6879C19.6107 18.9571 19.5366 18.9878 19.482 19.0424C19.4274 19.0971 19.3967 19.1711 19.3967 19.2484L19.3659 20.6012L17.8074 19.0424C17.7528 18.9878 17.6787 18.9571 17.6015 18.9571H13.3188C13.1619 18.9569 13.0114 18.8945 12.9005 18.7835C12.7895 18.6725 12.7272 18.522 12.727 18.3651V13.5392C12.7272 13.3823 12.7897 13.2319 12.9006 13.121C13.0115 13.0101 13.162 12.9477 13.3188 12.9476H20.8257C20.9826 12.9478 21.133 13.0102 21.244 13.1212C21.355 13.2322 21.4173 13.3826 21.4175 13.5396V18.3651Z" fill="black"></path>
  <path d="M13.356 10.431V8.84191C13.3558 8.67078 13.2877 8.50673 13.1667 8.38573C13.0457 8.26473 12.8816 8.19665 12.7105 8.19643H11.2498V6.73557C11.2496 6.56445 11.1815 6.40039 11.0605 6.27939C10.9395 6.15839 10.7755 6.09031 10.6043 6.09009H9.0153C8.84418 6.09031 8.68013 6.15839 8.55913 6.27939C8.43813 6.4004 8.37005 6.56445 8.36983 6.73557V8.19643H6.90915C6.73802 8.19665 6.57398 8.26473 6.45297 8.38573C6.33197 8.50674 6.2639 8.67079 6.26367 8.84191V10.431C6.2639 10.6021 6.33197 10.7661 6.45297 10.8871C6.57398 11.0081 6.73802 11.0762 6.90915 11.0765H8.36983V12.5369C8.37005 12.7081 8.43813 12.8721 8.55913 12.9931C8.68013 13.1141 8.84418 13.1822 9.0153 13.1824H10.6044C10.7755 13.1822 10.9395 13.1141 11.0605 12.9931C11.1815 12.8721 11.2496 12.7081 11.2498 12.5369V11.0764H12.7105C12.8816 11.0762 13.0457 11.0081 13.1667 10.8871C13.2877 10.7661 13.3558 10.6021 13.356 10.431ZM10.9586 10.4939C10.8813 10.4939 10.8073 10.5246 10.7526 10.5793C10.698 10.6339 10.6673 10.7079 10.6673 10.7852V12.5369C10.6673 12.5452 10.6657 12.5534 10.6625 12.561C10.6594 12.5687 10.6547 12.5756 10.6489 12.5815C10.643 12.5873 10.6361 12.5919 10.6285 12.5951C10.6208 12.5983 10.6126 12.5999 10.6044 12.5999H9.0153C9.00703 12.5999 8.99885 12.5983 8.99121 12.5951C8.98357 12.5919 8.97662 12.5873 8.97078 12.5815C8.96493 12.5756 8.96029 12.5687 8.95713 12.561C8.95397 12.5534 8.95235 12.5452 8.95235 12.5369V10.7852C8.95233 10.7079 8.92164 10.6339 8.86702 10.5792C8.8124 10.5246 8.73833 10.4939 8.66109 10.4939H6.90915C6.90088 10.4939 6.89269 10.4923 6.88505 10.4891C6.87741 10.486 6.87047 10.4813 6.86462 10.4755C6.85878 10.4696 6.85414 10.4627 6.85098 10.4551C6.84782 10.4474 6.84619 10.4392 6.8462 10.431V8.84191C6.84619 8.83364 6.84782 8.82545 6.85098 8.81781C6.85414 8.81017 6.85878 8.80323 6.86462 8.79738C6.87047 8.79154 6.87741 8.7869 6.88505 8.78374C6.89269 8.78057 6.90088 8.77895 6.90915 8.77895H8.66109C8.73833 8.77893 8.8124 8.74824 8.86702 8.69362C8.92164 8.639 8.95233 8.56493 8.95235 8.48769V6.73557C8.95235 6.7273 8.95397 6.71911 8.95713 6.71147C8.96029 6.70383 8.96493 6.69689 8.97078 6.69104C8.97662 6.68519 8.98357 6.68056 8.99121 6.6774C8.99885 6.67423 9.00703 6.67261 9.0153 6.67261H10.6044C10.6126 6.67261 10.6208 6.67423 10.6285 6.67739C10.6361 6.68056 10.643 6.68519 10.6489 6.69104C10.6547 6.69689 10.6594 6.70383 10.6625 6.71147C10.6657 6.71911 10.6673 6.7273 10.6673 6.73557V8.48769C10.6673 8.56493 10.698 8.639 10.7526 8.69362C10.8073 8.74824 10.8813 8.77893 10.9586 8.77895H12.7105C12.7188 8.77895 12.727 8.78057 12.7346 8.78374C12.7423 8.7869 12.7492 8.79153 12.755 8.79738C12.7609 8.80323 12.7655 8.81017 12.7687 8.81781C12.7718 8.82545 12.7735 8.83364 12.7735 8.84191V10.431C12.7735 10.4392 12.7718 10.4474 12.7687 10.4551C12.7655 10.4627 12.7609 10.4697 12.755 10.4755C12.7492 10.4813 12.7423 10.486 12.7346 10.4891C12.727 10.4923 12.7188 10.4939 12.7105 10.4939H10.9586Z" fill="black"></path>
  <path d="M19.7484 14.6089H14.3987C14.3214 14.6089 14.2474 14.6396 14.1927 14.6942C14.1381 14.7488 14.1074 14.8229 14.1074 14.9001C14.1074 14.9774 14.1381 15.0515 14.1927 15.1061C14.2474 15.1607 14.3214 15.1914 14.3987 15.1914H19.7484C19.8256 15.1914 19.8997 15.1607 19.9543 15.1061C20.0089 15.0515 20.0396 14.9774 20.0396 14.9001C20.0396 14.8229 20.0089 14.7488 19.9543 14.6942C19.8997 14.6396 19.8256 14.6089 19.7484 14.6089Z" fill="black"></path>
  <path d="M19.7484 16.7129H14.3987C14.3214 16.7129 14.2474 16.7436 14.1927 16.7982C14.1381 16.8528 14.1074 16.9269 14.1074 17.0042C14.1074 17.0814 14.1381 17.1555 14.1927 17.2101C14.2474 17.2647 14.3214 17.2954 14.3987 17.2954H19.7484C19.8256 17.2954 19.8997 17.2647 19.9543 17.2101C20.0089 17.1555 20.0396 17.0814 20.0396 17.0042C20.0396 16.9269 20.0089 16.8528 19.9543 16.7982C19.8997 16.7436 19.8256 16.7129 19.7484 16.7129Z" fill="black"></path>
</svg>
