<?xml version="1.0" encoding="UTF-8"?>
<svg xmlns="http://www.w3.org/2000/svg" width="25" height="25" viewBox="0 0 25 25" fill="none">
  <path d="M22.8038 13.3193L17.6302 10.786V6.59841C17.6302 5.71709 16.9143 5 16.0344 5H3.59585C2.71589 5 2 5.71709 2 6.59841V15.0777C2 15.9592 2.71589 16.6763 3.59585 16.6763H7.11482V17.3528C6.45643 17.3898 5.93083 17.933 5.93083 18.6018V19.0188C5.93083 19.2121 6.08755 19.3688 6.28083 19.3688H10.2147C10.4794 19.7377 11.6278 20.9674 15.1848 20.9674C19.2801 20.9674 20.1843 19.336 20.2208 19.2666C20.2472 19.2164 20.261 19.1605 20.261 19.1037V15.1922L22.804 13.9479C22.9239 13.8891 23 13.7673 23 13.6336C23 13.5 22.9239 13.378 22.8038 13.3193ZM10.1086 18.6688H6.63083V18.6018C6.63083 18.2952 6.87915 18.0457 7.18437 18.0457H10.1086V18.6688ZM10.1086 17.3457H7.81482V16.6763H10.1086V17.3457ZM10.1086 15.9763H3.59585C3.10195 15.9763 2.7 15.5731 2.7 15.0777V6.59841C2.7 6.10298 3.10195 5.7 3.59585 5.7H16.0344C16.5282 5.7 16.9302 6.10298 16.9302 6.59841V10.4432L15.3388 9.66399C15.2419 9.61665 15.1281 9.61631 15.0308 9.66399L7.56582 13.3193C7.44585 13.378 7.3698 13.5 7.3698 13.6336C7.3698 13.7673 7.44585 13.8891 7.56582 13.9479L10.1086 15.1931V15.9763ZM19.561 18.9954C19.3551 19.2555 18.349 20.2674 15.1848 20.2674C12.0099 20.2674 11.0077 19.2485 10.8086 18.9966V15.5355L15.031 17.6007C15.0795 17.6244 15.1322 17.6364 15.1848 17.6364C15.2375 17.6364 15.2901 17.6246 15.3386 17.6009L19.561 15.5357V18.9954ZM15.1848 16.8968L8.51567 13.6336L15.1848 10.3681L17.1262 11.3197C17.1283 11.3207 17.1306 11.3209 17.1326 11.3218L21.854 13.6336L15.1848 16.8968Z" fill="black"></path>
  <path d="M13.6632 7.43695C13.5106 7.28436 13.2635 7.28436 13.1109 7.43695L11.1144 9.43356C10.9619 9.58615 10.9619 9.83334 11.1144 9.98593C11.1907 10.0622 11.2907 10.1004 11.3906 10.1004C11.4906 10.1004 11.5905 10.0622 11.6668 9.98593L13.6632 7.98932C13.8158 7.83673 13.8158 7.58954 13.6632 7.43695Z" fill="black"></path>
  <path d="M12.6046 9.10052L12.1144 9.5909C11.9619 9.74349 11.9619 9.99088 12.1144 10.1433C12.1907 10.2196 12.2907 10.2577 12.3906 10.2577C12.4906 10.2577 12.5907 10.2196 12.6668 10.1433L13.157 9.65289C13.3096 9.50031 13.3096 9.25292 13.157 9.10052C13.0044 8.94794 12.7568 8.94794 12.6046 9.10052Z" fill="black"></path>
</svg>
