<svg width="355" height="400" viewBox="0 0 355 400" fill="none" xmlns="http://www.w3.org/2000/svg">
<path d="M16.3161 81.9397L162.312 5.18367C171.583 0.297499 183.012 0.297499 192.284 5.18367L338.279 81.9397C347.55 86.8259 353.265 95.8306 353.265 105.584V294.591C353.265 304.345 347.55 313.35 338.279 318.236L192.284 394.992C183.012 399.878 171.583 399.878 162.312 394.992L16.3161 318.236C7.04491 313.35 1.33008 304.345 1.33008 294.591V105.584C1.33008 95.8119 7.04491 86.8071 16.3161 81.9397Z" fill="white" stroke="#930043" stroke-width="2.23497" stroke-miterlimit="10"/>
<path d="M329.816 286.067C329.816 293.588 325.372 300.604 318.19 304.365L187.32 373.065C180.138 376.826 171.228 376.826 164.088 373.065L33.1761 304.365C25.9947 300.604 21.55 293.588 21.55 286.067V269.41H14.2451V286.067C14.2451 295.946 20.089 305.151 29.5134 310.09L160.425 378.809C165.117 381.279 170.405 382.513 175.693 382.513C180.961 382.513 186.229 381.279 190.941 378.809L321.853 310.09C331.277 305.151 337.121 295.946 337.121 286.067V269.41H329.837V286.067H329.816ZM321.853 90.0752L190.941 21.375C181.537 16.417 169.829 16.4357 160.425 21.375L29.5339 90.0752C20.1096 95.0332 14.2657 104.238 14.2657 114.117V207.756H21.5706V114.117C21.5706 106.595 26.0152 99.5795 33.1967 95.819L164.047 27.1187C171.228 23.3581 180.138 23.3581 187.278 27.1187L318.19 95.819C325.372 99.5795 329.816 106.595 329.816 114.117V207.756H337.101V114.117C337.121 104.238 331.277 95.0332 321.853 90.0752Z" fill="#930043"/>
<path d="M103.436 95.8344V77.762H107.006L109.568 91.5986L112.129 77.762H115.699V95.8344H113.118V81.5741L110.536 95.8344H108.6L106.018 81.5741V95.8344H103.436ZM124.593 96.0159C123.685 96.0159 122.905 95.8781 122.253 95.6024C121.608 95.3267 121.093 94.9233 120.71 94.3922C120.327 93.861 120.048 93.2391 119.873 92.5265C119.698 91.8071 119.611 90.9734 119.611 90.0254V83.4701C119.611 82.5221 119.698 81.6951 119.873 80.9892C120.048 80.2832 120.327 79.6714 120.71 79.1537C121.093 78.6293 121.608 78.236 122.253 77.9738C122.905 77.7116 123.685 77.5805 124.593 77.5805C126.354 77.5805 127.625 78.0847 128.405 79.0932C129.185 80.1017 129.575 81.5607 129.575 83.4701V90.0254C129.575 90.9599 129.484 91.7869 129.303 92.5063C129.128 93.219 128.849 93.8442 128.465 94.3821C128.082 94.9133 127.565 95.32 126.912 95.6024C126.267 95.8781 125.494 96.0159 124.593 96.0159ZM122.707 93.0811C123.057 93.6257 123.685 93.898 124.593 93.898C125.5 93.898 126.126 93.6257 126.469 93.0811C126.818 92.5365 126.993 91.7331 126.993 90.6708V82.8247C126.993 81.7758 126.822 80.9926 126.479 80.4749C126.136 79.9572 125.507 79.6983 124.593 79.6983C123.678 79.6983 123.05 79.9572 122.707 80.4749C122.364 80.9926 122.193 81.7758 122.193 82.8247V90.6708C122.193 91.7331 122.364 92.5365 122.707 93.0811ZM138.196 96.0159C136.569 96.0159 135.325 95.5385 134.464 94.5838C133.611 93.6291 133.133 92.3248 133.032 90.6708L135.614 90.0254C135.742 92.6071 136.602 93.898 138.196 93.898C139.487 93.898 140.132 93.2526 140.132 91.9617C140.132 91.5785 140.078 91.2255 139.971 90.9028C139.87 90.5733 139.712 90.2741 139.497 90.0052C139.282 89.7295 139.087 89.511 138.912 89.3497C138.737 89.1816 138.498 88.9765 138.196 88.7345L134.969 86.1527C134.377 85.6888 133.903 85.1005 133.547 84.3878C133.197 83.6685 133.022 82.8516 133.022 81.9372C133.022 80.606 133.436 79.547 134.263 78.7604C135.09 77.9738 136.186 77.5805 137.55 77.5805C139.016 77.5805 140.179 77.9402 141.04 78.6596C141.907 79.3722 142.442 80.3841 142.643 81.6951C142.664 81.8363 142.687 82.0313 142.714 82.2801L140.132 82.9255C140.125 82.8112 140.109 82.6398 140.082 82.4112C139.967 81.5909 139.709 80.9354 139.305 80.4446C138.909 79.9471 138.324 79.6983 137.55 79.6983C136.932 79.6983 136.455 79.8731 136.118 80.2227C135.782 80.5656 135.614 81.0463 135.614 81.6649C135.614 82.6801 136.044 83.5306 136.905 84.2164L140.132 86.7982C141.853 88.1899 142.714 89.8539 142.714 91.7903C142.714 93.1148 142.304 94.1502 141.484 94.8964C140.67 95.6427 139.574 96.0159 138.196 96.0159ZM148.178 95.8344V80.0614H144.951V77.762H153.987V80.0614H150.76V95.8344H148.178ZM165.35 85.5073H165.995C167.071 85.5073 167.878 85.2821 168.416 84.8316C168.954 84.3744 169.223 83.6315 169.223 82.6028C169.223 81.5741 168.954 80.8346 168.416 80.3841C167.878 79.9269 167.071 79.6983 165.995 79.6983H165.35V85.5073ZM162.768 95.8344V77.762H165.995C167.918 77.762 169.367 78.1351 170.342 78.8814C171.317 79.6277 171.804 80.8682 171.804 82.6028C171.804 83.6785 171.613 84.5795 171.23 85.3056C170.846 86.0317 170.285 86.5292 169.545 86.7982L172.45 95.8344H169.888L167.286 87.4436H165.35V95.8344H162.768ZM175.595 95.8344V77.762H182.695V79.6983H178.177V85.5073H181.404V87.4436H178.177V93.898H182.695V95.8344H175.595ZM188.643 95.8344L184.771 77.762H187.352L189.258 87.4436L189.924 91.9617L190.61 87.4436L192.516 77.762H195.098L191.225 95.8344H188.643ZM198.283 95.8344V77.762H200.865V95.8344H198.283ZM205.28 95.8344V77.762H212.38V79.6983H207.862V85.5073H211.089V87.4436H207.862V93.898H212.38V95.8344H205.28ZM217.673 95.8344L214.446 77.762H217.028L218.319 86.1527L218.974 91.3163L219.609 86.1527L220.9 77.762H223.482L224.773 86.1527L225.408 91.3163L226.064 86.1527L227.355 77.762H229.937L226.709 95.8344H224.128L222.837 87.4436L222.191 82.2801L221.546 87.4436L220.255 95.8344H217.673ZM232.991 95.8344V77.762H240.091V79.6983H235.572V85.5073H238.8V87.4436H235.572V93.898H240.091V95.8344H232.991ZM243.336 95.8344V77.762H247.34C249.229 77.762 250.561 78.1486 251.334 78.9218C252.114 79.695 252.504 81.0295 252.504 82.9255V90.0254C252.504 92.0088 252.107 93.4745 251.314 94.4224C250.527 95.3637 249.196 95.8344 247.32 95.8344H243.336ZM245.918 93.898H247.34C247.764 93.898 248.127 93.861 248.429 93.7871C248.732 93.7064 248.977 93.5652 249.165 93.3635C249.354 93.1551 249.502 92.9601 249.609 92.7786C249.717 92.5903 249.791 92.3012 249.831 91.9113C249.878 91.5213 249.905 91.202 249.912 90.9532C249.918 90.6977 249.922 90.3044 249.922 89.7733C249.922 89.5984 249.922 89.4673 249.922 89.3799V83.571C249.922 83.2415 249.918 82.9793 249.912 82.7843C249.912 82.5894 249.902 82.3608 249.881 82.0985C249.868 81.8296 249.844 81.6178 249.811 81.4632C249.777 81.3086 249.73 81.1371 249.67 80.9489C249.609 80.7539 249.532 80.6026 249.438 80.495C249.35 80.3875 249.239 80.2765 249.105 80.1622C248.977 80.0412 248.826 79.9538 248.651 79.9C248.483 79.8395 248.285 79.7924 248.056 79.7588C247.827 79.7185 247.572 79.6983 247.29 79.6983H245.918V93.898Z" fill="#930043"/>
<path d="M46.9704 148V127.898H55.4082V130.479H50.6433V136.262H54.3907V138.818H50.6433V145.469H55.4578V148H46.9704ZM62.9956 148.273C61.5231 148.273 60.365 147.983 59.5212 147.404C58.694 146.825 58.1149 146.039 57.784 145.047C57.4531 144.038 57.2877 142.879 57.2877 141.572V134.4C57.2877 133.027 57.4531 131.836 57.784 130.827C58.1149 129.817 58.694 129.04 59.5212 128.494C60.365 127.948 61.5231 127.675 62.9956 127.675C64.3853 127.675 65.469 127.915 66.2466 128.395C67.0407 128.858 67.6032 129.528 67.9341 130.405C68.265 131.282 68.4305 132.299 68.4305 133.457V135.145H64.9065V133.408C64.9065 132.845 64.8734 132.332 64.8072 131.869C64.7576 131.406 64.6004 131.042 64.3357 130.777C64.0875 130.496 63.6491 130.355 63.0204 130.355C62.3917 130.355 61.9284 130.504 61.6306 130.802C61.3494 131.083 61.1674 131.472 61.0847 131.968C61.0019 132.448 60.9606 132.994 60.9606 133.606V142.342C60.9606 143.07 61.0185 143.674 61.1343 144.153C61.2501 144.617 61.4569 144.972 61.7547 145.221C62.0691 145.452 62.491 145.568 63.0204 145.568C63.6325 145.568 64.0627 145.427 64.3109 145.146C64.5756 144.848 64.741 144.459 64.8072 143.98C64.8734 143.5 64.9065 142.962 64.9065 142.367V140.555H68.4305V142.168C68.4305 143.359 68.2733 144.418 67.959 145.345C67.6446 146.255 67.0904 146.974 66.2962 147.504C65.5186 148.017 64.4184 148.273 62.9956 148.273ZM76.4473 148.273C75.0245 148.273 73.8912 148.008 73.0474 147.479C72.2036 146.949 71.5997 146.188 71.2358 145.196C70.8718 144.203 70.6898 143.028 70.6898 141.672V134.152C70.6898 132.795 70.8718 131.637 71.2358 130.678C71.5997 129.702 72.2036 128.957 73.0474 128.444C73.8912 127.931 75.0245 127.675 76.4473 127.675C77.9033 127.675 79.0448 127.931 79.8721 128.444C80.7158 128.957 81.3197 129.702 81.6837 130.678C82.0642 131.637 82.2545 132.795 82.2545 134.152V141.696C82.2545 143.037 82.0642 144.203 81.6837 145.196C81.3197 146.172 80.7158 146.933 79.8721 147.479C79.0448 148.008 77.9033 148.273 76.4473 148.273ZM76.4473 145.568C77.0595 145.568 77.5062 145.436 77.7874 145.171C78.0852 144.906 78.2838 144.542 78.383 144.079C78.4823 143.616 78.532 143.111 78.532 142.565V133.308C78.532 132.746 78.4823 132.241 78.383 131.795C78.2838 131.348 78.0852 131 77.7874 130.752C77.5062 130.488 77.0595 130.355 76.4473 130.355C75.8683 130.355 75.4298 130.488 75.132 130.752C74.8342 131 74.6357 131.348 74.5364 131.795C74.4372 132.241 74.3875 132.746 74.3875 133.308V142.565C74.3875 143.111 74.4289 143.616 74.5116 144.079C74.6109 144.542 74.8094 144.906 75.1072 145.171C75.405 145.436 75.8517 145.568 76.4473 145.568ZM84.9217 148L85.2692 127.898H89.0662L91.9201 141.821L94.8982 127.898H98.5711L98.9433 148H96.2134L95.9156 134.028L93.0617 148H90.853L87.9494 133.978L87.6764 148H84.9217ZM101.862 148L102.21 127.898H106.007L108.861 141.821L111.839 127.898H115.512L115.884 148H113.154L112.856 134.028L110.002 148H107.793L104.89 133.978L104.617 148H101.862ZM118.852 148V127.898H127.29V130.479H122.525V136.262H126.273V138.818H122.525V145.469H127.34V148H118.852ZM129.467 148V127.898H134.282C135.639 127.898 136.78 128.064 137.707 128.395C138.65 128.709 139.361 129.255 139.841 130.033C140.337 130.81 140.585 131.869 140.585 133.209C140.585 134.02 140.511 134.748 140.362 135.393C140.213 136.038 139.957 136.592 139.593 137.056C139.245 137.502 138.757 137.85 138.129 138.098L140.933 148H137.26L134.828 138.793H133.14V148H129.467ZM133.14 136.485H134.282C134.993 136.485 135.556 136.386 135.969 136.187C136.4 135.972 136.706 135.641 136.888 135.194C137.07 134.731 137.161 134.144 137.161 133.432C137.161 132.423 136.97 131.67 136.59 131.174C136.226 130.661 135.523 130.405 134.48 130.405H133.14V136.485ZM148.692 148.273C147.219 148.273 146.061 147.983 145.217 147.404C144.39 146.825 143.811 146.039 143.48 145.047C143.149 144.038 142.984 142.879 142.984 141.572V134.4C142.984 133.027 143.149 131.836 143.48 130.827C143.811 129.817 144.39 129.04 145.217 128.494C146.061 127.948 147.219 127.675 148.692 127.675C150.081 127.675 151.165 127.915 151.943 128.395C152.737 128.858 153.299 129.528 153.63 130.405C153.961 131.282 154.127 132.299 154.127 133.457V135.145H150.603V133.408C150.603 132.845 150.569 132.332 150.503 131.869C150.454 131.406 150.296 131.042 150.032 130.777C149.784 130.496 149.345 130.355 148.716 130.355C148.088 130.355 147.624 130.504 147.327 130.802C147.045 131.083 146.863 131.472 146.781 131.968C146.698 132.448 146.657 132.994 146.657 133.606V142.342C146.657 143.07 146.715 143.674 146.83 144.153C146.946 144.617 147.153 144.972 147.451 145.221C147.765 145.452 148.187 145.568 148.716 145.568C149.329 145.568 149.759 145.427 150.007 145.146C150.272 144.848 150.437 144.459 150.503 143.98C150.569 143.5 150.603 142.962 150.603 142.367V140.555H154.127V142.168C154.127 143.359 153.969 144.418 153.655 145.345C153.341 146.255 152.786 146.974 151.992 147.504C151.215 148.017 150.114 148.273 148.692 148.273ZM156.684 148V127.898H165.121V130.479H160.357V136.262H164.104V138.818H160.357V145.469H165.171V148H156.684ZM173.333 148V127.898H178.073C179.711 127.898 180.985 128.122 181.895 128.568C182.822 129.015 183.475 129.702 183.856 130.628C184.253 131.555 184.451 132.729 184.451 134.152V141.498C184.451 142.954 184.253 144.17 183.856 145.146C183.475 146.106 182.83 146.825 181.92 147.305C181.027 147.768 179.794 148 178.222 148H173.333ZM177.006 145.444H178.123C178.967 145.444 179.571 145.295 179.935 144.997C180.299 144.699 180.522 144.269 180.605 143.707C180.687 143.128 180.729 142.424 180.729 141.597V133.904C180.729 133.093 180.671 132.44 180.555 131.943C180.439 131.447 180.199 131.083 179.835 130.851C179.471 130.62 178.884 130.504 178.073 130.504H177.006V145.444ZM187.147 148V127.898H195.585V130.479H190.82V136.262H194.568V138.818H190.82V145.469H195.635V148H187.147ZM200.84 148L196.795 127.898H200.046L202.701 142.118L205.183 127.898H208.508L204.463 148H200.84ZM210.559 148V127.898H218.996V130.479H214.232V136.262H217.979V138.818H214.232V145.469H219.046V148H210.559ZM221.174 148V127.898H224.847V145.469H229.711V148H221.174ZM236.837 148.273C235.414 148.273 234.28 148.008 233.437 147.479C232.593 146.949 231.989 146.188 231.625 145.196C231.261 144.203 231.079 143.028 231.079 141.672V134.152C231.079 132.795 231.261 131.637 231.625 130.678C231.989 129.702 232.593 128.957 233.437 128.444C234.28 127.931 235.414 127.675 236.837 127.675C238.293 127.675 239.434 127.931 240.261 128.444C241.105 128.957 241.709 129.702 242.073 130.678C242.453 131.637 242.644 132.795 242.644 134.152V141.696C242.644 143.037 242.453 144.203 242.073 145.196C241.709 146.172 241.105 146.933 240.261 147.479C239.434 148.008 238.293 148.273 236.837 148.273ZM236.837 145.568C237.449 145.568 237.895 145.436 238.177 145.171C238.475 144.906 238.673 144.542 238.772 144.079C238.872 143.616 238.921 143.111 238.921 142.565V133.308C238.921 132.746 238.872 132.241 238.772 131.795C238.673 131.348 238.475 131 238.177 130.752C237.895 130.488 237.449 130.355 236.837 130.355C236.258 130.355 235.819 130.488 235.521 130.752C235.223 131 235.025 131.348 234.926 131.795C234.826 132.241 234.777 132.746 234.777 133.308V142.565C234.777 143.111 234.818 143.616 234.901 144.079C235 144.542 235.199 144.906 235.496 145.171C235.794 145.436 236.241 145.568 236.837 145.568ZM245.361 148V127.898H251.267C252.475 127.898 253.451 128.122 254.195 128.568C254.957 129.015 255.511 129.669 255.858 130.529C256.222 131.373 256.404 132.398 256.404 133.606C256.404 134.913 256.181 135.972 255.734 136.783C255.287 137.577 254.659 138.156 253.848 138.52C253.054 138.884 252.111 139.066 251.019 139.066H249.034V148H245.361ZM249.034 136.485H250.423C251.085 136.485 251.598 136.394 251.962 136.212C252.342 136.013 252.599 135.707 252.731 135.294C252.88 134.864 252.955 134.293 252.955 133.581C252.955 132.853 252.897 132.266 252.781 131.819C252.682 131.356 252.45 131.017 252.086 130.802C251.739 130.587 251.184 130.479 250.423 130.479H249.034V136.485ZM258.398 148L258.745 127.898H262.542L265.396 141.821L268.374 127.898H272.047L272.42 148H269.69L269.392 134.028L266.538 148H264.329L261.426 133.978L261.153 148H258.398ZM275.388 148V127.898H283.826V130.479H279.061V136.262H282.808V138.818H279.061V145.469H283.876V148H275.388ZM286.003 148V127.898H288.559L293.448 139.364V127.898H296.476V148H294.044L289.13 135.989V148H286.003ZM301.537 148V130.603H298.335V127.898H308.361V130.603H305.21V148H301.537ZM136.525 185.273C135.053 185.273 133.895 184.983 133.051 184.404C132.224 183.825 131.645 183.039 131.314 182.047C130.983 181.038 130.818 179.879 130.818 178.572V171.4C130.818 170.027 130.983 168.836 131.314 167.827C131.645 166.817 132.224 166.04 133.051 165.494C133.895 164.948 135.053 164.675 136.525 164.675C137.915 164.675 138.999 164.915 139.777 165.395C140.571 165.858 141.133 166.528 141.464 167.405C141.795 168.282 141.96 169.299 141.96 170.457V172.145H138.436V170.408C138.436 169.845 138.403 169.332 138.337 168.869C138.287 168.406 138.13 168.042 137.866 167.777C137.617 167.496 137.179 167.355 136.55 167.355C135.922 167.355 135.458 167.504 135.161 167.802C134.879 168.083 134.697 168.472 134.615 168.968C134.532 169.448 134.491 169.994 134.491 170.606V179.342C134.491 180.07 134.548 180.674 134.664 181.153C134.78 181.617 134.987 181.972 135.285 182.221C135.599 182.452 136.021 182.568 136.55 182.568C137.162 182.568 137.593 182.427 137.841 182.146C138.106 181.848 138.271 181.459 138.337 180.98C138.403 180.5 138.436 179.962 138.436 179.367V177.555H141.96V179.168C141.96 180.359 141.803 181.418 141.489 182.345C141.175 183.255 140.62 183.974 139.826 184.504C139.049 185.017 137.948 185.273 136.525 185.273ZM149.977 185.273C148.554 185.273 147.421 185.008 146.577 184.479C145.734 183.949 145.13 183.188 144.766 182.196C144.402 181.203 144.22 180.028 144.22 178.672V171.152C144.22 169.795 144.402 168.637 144.766 167.678C145.13 166.702 145.734 165.957 146.577 165.444C147.421 164.931 148.554 164.675 149.977 164.675C151.433 164.675 152.575 164.931 153.402 165.444C154.246 165.957 154.85 166.702 155.214 167.678C155.594 168.637 155.784 169.795 155.784 171.152V178.696C155.784 180.037 155.594 181.203 155.214 182.196C154.85 183.172 154.246 183.933 153.402 184.479C152.575 185.008 151.433 185.273 149.977 185.273ZM149.977 182.568C150.589 182.568 151.036 182.436 151.317 182.171C151.615 181.906 151.814 181.542 151.913 181.079C152.012 180.616 152.062 180.111 152.062 179.565V170.308C152.062 169.746 152.012 169.241 151.913 168.795C151.814 168.348 151.615 168 151.317 167.752C151.036 167.488 150.589 167.355 149.977 167.355C149.398 167.355 148.96 167.488 148.662 167.752C148.364 168 148.166 168.348 148.066 168.795C147.967 169.241 147.917 169.746 147.917 170.308V179.565C147.917 180.111 147.959 180.616 148.042 181.079C148.141 181.542 148.339 181.906 148.637 182.171C148.935 182.436 149.382 182.568 149.977 182.568ZM158.452 185L158.799 164.898H162.596L165.45 178.821L168.428 164.898H172.101L172.473 185H169.743L169.446 171.028L166.592 185H164.383L161.479 170.978L161.206 185H158.452ZM175.442 185V164.898H181.348C182.556 164.898 183.532 165.122 184.277 165.568C185.038 166.015 185.592 166.669 185.939 167.529C186.303 168.373 186.485 169.398 186.485 170.606C186.485 171.913 186.262 172.972 185.815 173.783C185.369 174.577 184.74 175.156 183.929 175.52C183.135 175.884 182.192 176.066 181.1 176.066H179.115V185H175.442ZM179.115 173.485H180.504C181.166 173.485 181.679 173.394 182.043 173.212C182.424 173.013 182.68 172.707 182.812 172.294C182.961 171.864 183.036 171.293 183.036 170.581C183.036 169.853 182.978 169.266 182.862 168.819C182.763 168.356 182.531 168.017 182.167 167.802C181.82 167.587 181.265 167.479 180.504 167.479H179.115V173.485ZM186.445 185L190.465 164.898H194.386L198.407 185H195.007L194.213 180.359H190.714L189.895 185H186.445ZM191.086 178.026H193.816L192.451 169.589L191.086 178.026ZM200.428 185V164.898H202.985L207.873 176.364V164.898H210.901V185H208.469L203.555 172.989V185H200.428ZM216.756 185V177.332L212.686 164.898H216.111L218.592 172.865L220.925 164.898H224.276L220.255 177.332V185H216.756Z" fill="black"/>
<rect x="1.33008" y="216.007" width="351.935" height="44.37" fill="#930043"/>
<circle cx="177.8" cy="235.165" r="37.3111" fill="white"/>
<path d="M70.0021 223.671L74.3954 232.571L84.22 234.007L77.111 240.931L78.7887 250.713L70.0021 246.092L61.2154 250.713L62.8931 240.931L55.7842 234.007L65.6088 232.571L70.0021 223.671Z" fill="white"/>
<path d="M111.107 223.671L115.5 232.571L125.324 234.007L118.216 240.931L119.893 250.713L111.107 246.092L102.32 250.713L103.998 240.931L96.8887 234.007L106.713 232.571L111.107 223.671Z" fill="white"/>
<path d="M179.007 213.985L186.547 229.259L203.407 231.724L191.207 243.607L194.086 260.394L179.007 252.464L163.927 260.394L166.807 243.607L154.606 231.724L171.467 229.259L179.007 213.985Z" fill="#930043"/>
<path d="M240.78 223.671L245.174 232.571L254.998 234.007L247.889 240.931L249.567 250.713L240.78 246.092L231.994 250.713L233.671 240.931L226.562 234.007L236.387 232.571L240.78 223.671Z" fill="white"/>
<path d="M281.885 223.671L286.278 232.571L296.103 234.007L288.994 240.931L290.672 250.713L281.885 246.092L273.098 250.713L274.776 240.931L267.667 234.007L277.492 232.571L281.885 223.671Z" fill="white"/>
<g clip-path="url(#clip0_1055_1974)">
<path d="M185.74 290.143V294.897H181.251V284.068H179.666V294.897H174.912V284.068H173.327V300.971H168.838V290.143H167.253V307.31H168.838V302.556H179.666V313.384H181.251V296.481H185.74V307.31H187.325V290.143H185.74ZM179.666 300.971H174.912V296.481H179.666V300.971Z" fill="#930043"/>
<path d="M174.911 303.35H173.326V313.386H174.911V303.35Z" fill="#930043"/>
</g>
<path d="M134.411 321.465V330.958H132.291V327.398H125.929V330.958H123.81V321.465H125.929V325.026H132.291V321.465H134.411Z" fill="black"/>
<path d="M136.221 330.959V321.451H138.862V330.959H136.221Z" fill="black"/>
<path d="M151.007 323.837H146.767V330.957H144.647V323.837H140.405V321.464H151.007V323.837Z" fill="black"/>
<path d="M163.05 321.464V323.837H154.568V323.839H152.448V321.464H163.05ZM163.05 325.225V327.16H154.568V327.166H152.448V325.225H163.05ZM163.05 328.585V330.957H152.448V328.585H163.05Z" fill="black"/>
<path d="M175.47 324.539V325.617H173.35V324.75C173.35 324.246 172.984 323.837 172.535 323.837H164.868V321.464H172.723C172.939 321.464 173.148 321.492 173.35 321.546C174.364 321.81 175.161 322.703 175.4 323.839C175.445 324.063 175.47 324.297 175.47 324.539ZM167.804 328.585H175.47V330.957H167.615C167.518 330.957 167.422 330.952 167.329 330.939C167.213 330.927 167.1 330.904 166.988 330.876C165.975 330.611 165.177 329.719 164.939 328.582C164.921 328.498 164.907 328.414 164.896 328.33C164.878 328.183 164.866 328.033 164.866 327.88V325.124H166.986V327.669C166.988 328.175 167.354 328.585 167.804 328.585Z" fill="black"/>
<path d="M187.777 321.464V330.957H185.658V327.397H179.296V330.957H177.176V321.464H179.296V325.024H185.658V321.464H187.777Z" fill="black"/>
<path d="M205.798 321.464V330.957H203.678V327.397H197.316V330.957H195.196V321.464H197.316V325.024H203.678V321.464H205.798Z" fill="#930043"/>
<path d="M218.231 321.464V330.957H216.168V329.94L215.343 330.957H210.06C208.811 330.812 207.809 329.729 207.627 328.348V321.464H209.747V327.672C209.747 328.175 210.113 328.585 210.562 328.585H216.104L216.109 321.464H218.231Z" fill="#930043"/>
<path d="M230.73 327.437C230.757 327.608 230.77 327.783 230.77 327.961C230.77 328.17 230.752 328.373 230.716 328.569C230.482 329.843 229.523 330.822 228.342 330.942C228.262 330.949 228.18 330.954 228.096 330.954C228.012 330.954 227.933 330.949 227.851 330.942H222.261V330.954H220.142V328.572H220.144V327.44H220.142V325.088H220.144V323.801H220.142V321.451H228.096C229.382 321.451 230.459 322.468 230.714 323.824C230.752 324.025 230.77 324.231 230.77 324.444C230.77 324.658 230.75 324.864 230.714 325.065C230.636 325.484 230.477 325.871 230.262 326.204C230.493 326.563 230.657 326.982 230.73 327.437ZM228.651 324.444C228.651 324.104 228.403 323.824 228.096 323.824H226.526V323.801H222.264V325.088H226.526V325.065H228.096C228.196 325.065 228.287 325.037 228.369 324.986C228.537 324.879 228.651 324.676 228.651 324.444ZM228.651 327.964C228.651 327.743 228.546 327.549 228.392 327.44H222.266V328.572H228.21C228.46 328.513 228.651 328.261 228.651 327.964Z" fill="#930043"/>
<defs>
<clipPath id="clip0_1055_1974">
<rect width="20.072" height="29.3157" fill="white" transform="translate(167.254 284.068)"/>
</clipPath>
</defs>
</svg>
