<?xml version="1.0" encoding="UTF-8"?>
<svg xmlns="http://www.w3.org/2000/svg" width="25" height="25" viewBox="0 0 25 25" fill="none">
  <path d="M22.3024 9.35997L13.9313 5.27062C13.2096 4.90979 11.9828 4.90979 11.2612 5.27062L2.69759 9.35997C2.09622 9.64863 2 10.0576 2 10.2741C2 10.4905 2.09622 10.8754 2.69759 11.1881L3.39519 11.5249V15.3737C2.9622 15.5421 2.64948 15.9751 2.64948 16.4562C2.64948 16.9373 2.9622 17.3703 3.37113 17.5387L2.28866 20.9785H5.31959L4.23711 17.5387C4.6701 17.3703 4.95876 16.9373 4.95876 16.4562C4.95876 15.951 4.64605 15.5421 4.21306 15.3737V11.9338L5.48797 12.5593V17.5627C5.48797 17.6349 5.51203 17.707 5.56014 17.7792C5.68041 17.9235 7.91753 20.9785 12.488 20.9785C17.0584 20.9785 19.2955 17.8995 19.3918 17.7792C19.4399 17.707 19.4639 17.6349 19.4639 17.5627V12.5833L22.3024 11.1881C22.9038 10.8995 23 10.4905 23 10.2741C22.9759 10.0576 22.9038 9.64863 22.3024 9.35997ZM18.6942 17.4424C18.3093 17.9235 16.2405 20.2328 12.488 20.2328C8.73539 20.2328 6.66667 17.9235 6.28179 17.4424V12.896L11.2612 15.2775C11.622 15.4459 12.1031 15.5421 12.5842 15.5421C13.0893 15.5421 13.5704 15.4459 13.9313 15.2534L18.6942 12.9201V17.4424ZM21.9656 10.5146L19.079 11.9338C18.9588 11.9338 18.8625 11.982 18.8144 12.0782L13.5945 14.604C13.0893 14.8686 12.1031 14.8686 11.5739 14.604L5.1512 11.5249L12.5361 10.6589C12.7526 10.6349 12.8969 10.4424 12.8729 10.25C12.8488 10.0335 12.6564 9.88917 12.4639 9.91323L3.90034 10.9235L3.03436 10.5146C2.81787 10.4184 2.76976 10.2981 2.76976 10.2981C2.76976 10.2741 2.81787 10.1778 3.03436 10.0816L11.5979 5.96821C11.8625 5.84794 12.2234 5.77577 12.5842 5.77577C12.9691 5.77577 13.354 5.84794 13.5945 5.96821L21.9656 10.0576C22.1821 10.1538 22.2302 10.25 22.2302 10.2981C22.2302 10.2981 22.1581 10.4184 21.9656 10.5146Z" fill="black"></path>
</svg>
