<?xml version="1.0" encoding="UTF-8"?>
<svg xmlns="http://www.w3.org/2000/svg" width="25" height="25" viewBox="0 0 25 25" fill="none">
  <path d="M14.9893 22.2856H3.78571C3.31229 22.285 2.85841 22.0967 2.52365 21.762C2.18889 21.4272 2.00057 20.9733 2 20.4999V6.21418C2.00057 5.74075 2.18889 5.28688 2.52365 4.95212C2.85841 4.61735 3.31229 4.42903 3.78571 4.42847H19.5C19.9734 4.42903 20.4273 4.61735 20.7621 4.95212C21.0968 5.28688 21.2851 5.74075 21.2857 6.21418V15.9892C21.2857 16.0839 21.2481 16.1747 21.1811 16.2417C21.1141 16.3087 21.0233 16.3463 20.9286 16.3463C20.8339 16.3463 20.743 16.3087 20.676 16.2417C20.6091 16.1747 20.5714 16.0839 20.5714 15.9892V6.21418C20.5714 5.93002 20.4585 5.6575 20.2576 5.45657C20.0567 5.25563 19.7842 5.14275 19.5 5.14275H3.78571C3.50155 5.14275 3.22903 5.25563 3.0281 5.45657C2.82717 5.6575 2.71429 5.93002 2.71429 6.21418V20.4999C2.71429 20.7841 2.82717 21.0566 3.0281 21.2575C3.22903 21.4584 3.50155 21.5713 3.78571 21.5713H14.9893C15.084 21.5713 15.1748 21.609 15.2418 21.6759C15.3088 21.7429 15.3464 21.8337 15.3464 21.9285C15.3464 22.0232 15.3088 22.114 15.2418 22.181C15.1748 22.248 15.084 22.2856 14.9893 22.2856Z" fill="black"></path>
  <path d="M20.9286 9.42864H2.35714C2.26242 9.42864 2.17158 9.39101 2.1046 9.32404C2.03763 9.25706 2 9.16622 2 9.0715C2 8.97678 2.03763 8.88594 2.1046 8.81896C2.17158 8.75198 2.26242 8.71436 2.35714 8.71436H20.9286C21.0233 8.71436 21.1141 8.75198 21.1811 8.81896C21.2481 8.88594 21.2857 8.97678 21.2857 9.0715C21.2857 9.16622 21.2481 9.25706 21.1811 9.32404C21.1141 9.39101 21.0233 9.42864 20.9286 9.42864Z" fill="black"></path>
  <path d="M9.1423 6.92857C9.04758 6.92857 8.95674 6.89094 8.88976 6.82397C8.82278 6.75699 8.78516 6.66615 8.78516 6.57143V4.42857C8.78516 4.04969 8.93567 3.68633 9.20358 3.41842C9.47148 3.15051 9.83485 3 10.2137 3C10.5926 3 10.956 3.15051 11.2239 3.41842C11.4918 3.68633 11.6423 4.04969 11.6423 4.42857V4.78571C11.6423 4.88043 11.6047 4.97127 11.5377 5.03825C11.4707 5.10523 11.3799 5.14286 11.2852 5.14286C11.1904 5.14286 11.0996 5.10523 11.0326 5.03825C10.9656 4.97127 10.928 4.88043 10.928 4.78571V4.42857C10.928 4.23913 10.8528 4.05745 10.7188 3.92349C10.5848 3.78954 10.4032 3.71429 10.2137 3.71429C10.0243 3.71429 9.84261 3.78954 9.70865 3.92349C9.5747 4.05745 9.49944 4.23913 9.49944 4.42857V6.57143C9.49944 6.66615 9.46181 6.75699 9.39484 6.82397C9.32786 6.89094 9.23702 6.92857 9.1423 6.92857Z" fill="black"></path>
  <path d="M5.21261 6.92857C5.11789 6.92857 5.02705 6.89094 4.96007 6.82397C4.8931 6.75699 4.85547 6.66615 4.85547 6.57143V4.42857C4.85547 4.04969 5.00598 3.68633 5.27389 3.41842C5.5418 3.15051 5.90516 3 6.28404 3C6.66292 3 7.02628 3.15051 7.29419 3.41842C7.5621 3.68633 7.71261 4.04969 7.71261 4.42857V4.78571C7.71261 4.88043 7.67498 4.97127 7.60801 5.03825C7.54103 5.10523 7.45019 5.14286 7.35547 5.14286C7.26075 5.14286 7.16991 5.10523 7.10293 5.03825C7.03595 4.97127 6.99833 4.88043 6.99833 4.78571V4.42857C6.99833 4.23913 6.92307 4.05745 6.78912 3.92349C6.65516 3.78954 6.47348 3.71429 6.28404 3.71429C6.0946 3.71429 5.91292 3.78954 5.77896 3.92349C5.64501 4.05745 5.56975 4.23913 5.56975 4.42857V6.57143C5.56975 6.66615 5.53213 6.75699 5.46515 6.82397C5.39817 6.89094 5.30733 6.92857 5.21261 6.92857Z" fill="black"></path>
  <path d="M5.21429 7.64293C5.60877 7.64293 5.92857 7.32313 5.92857 6.92864C5.92857 6.53415 5.60877 6.21436 5.21429 6.21436C4.8198 6.21436 4.5 6.53415 4.5 6.92864C4.5 7.32313 4.8198 7.64293 5.21429 7.64293Z" fill="black"></path>
  <path d="M9.14397 7.64293C9.53846 7.64293 9.85826 7.32313 9.85826 6.92864C9.85826 6.53415 9.53846 6.21436 9.14397 6.21436C8.74948 6.21436 8.42969 6.53415 8.42969 6.92864C8.42969 7.32313 8.74948 7.64293 9.14397 7.64293Z" fill="black"></path>
  <path d="M13.072 6.92857C12.9773 6.92857 12.8864 6.89094 12.8194 6.82397C12.7525 6.75699 12.7148 6.66615 12.7148 6.57143V4.42857C12.7148 4.04969 12.8654 3.68633 13.1333 3.41842C13.4012 3.15051 13.7645 3 14.1434 3C14.5223 3 14.8857 3.15051 15.1536 3.41842C15.4215 3.68633 15.572 4.04969 15.572 4.42857V4.78571C15.572 4.88043 15.5344 4.97127 15.4674 5.03825C15.4004 5.10523 15.3096 5.14286 15.2148 5.14286C15.1201 5.14286 15.0293 5.10523 14.9623 5.03825C14.8953 4.97127 14.8577 4.88043 14.8577 4.78571V4.42857C14.8577 4.23913 14.7824 4.05745 14.6485 3.92349C14.5145 3.78954 14.3329 3.71429 14.1434 3.71429C13.954 3.71429 13.7723 3.78954 13.6383 3.92349C13.5044 4.05745 13.4291 4.23913 13.4291 4.42857V6.57143C13.4291 6.66615 13.3915 6.75699 13.3245 6.82397C13.2575 6.89094 13.1667 6.92857 13.072 6.92857Z" fill="black"></path>
  <path d="M13.0698 7.64293C13.4642 7.64293 13.784 7.32313 13.784 6.92864C13.784 6.53415 13.4642 6.21436 13.0698 6.21436C12.6753 6.21436 12.3555 6.53415 12.3555 6.92864C12.3555 7.32313 12.6753 7.64293 13.0698 7.64293Z" fill="black"></path>
  <path d="M17.0017 6.92857C16.907 6.92857 16.8161 6.89094 16.7491 6.82397C16.6822 6.75699 16.6445 6.66615 16.6445 6.57143V4.42857C16.6445 4.04969 16.795 3.68633 17.063 3.41842C17.3309 3.15051 17.6942 3 18.0731 3C18.452 3 18.8153 3.15051 19.0833 3.41842C19.3512 3.68633 19.5017 4.04969 19.5017 4.42857V4.78571C19.5017 4.88043 19.464 4.97127 19.3971 5.03825C19.3301 5.10523 19.2393 5.14286 19.1445 5.14286C19.0498 5.14286 18.959 5.10523 18.892 5.03825C18.825 4.97127 18.7874 4.88043 18.7874 4.78571V4.42857C18.7874 4.23913 18.7121 4.05745 18.5782 3.92349C18.4442 3.78954 18.2625 3.71429 18.0731 3.71429C17.8837 3.71429 17.702 3.78954 17.568 3.92349C17.4341 4.05745 17.3588 4.23913 17.3588 4.42857V6.57143C17.3588 6.66615 17.3212 6.75699 17.2542 6.82397C17.1872 6.89094 17.0964 6.92857 17.0017 6.92857Z" fill="black"></path>
  <path d="M16.9994 7.64293C17.3939 7.64293 17.7137 7.32313 17.7137 6.92864C17.7137 6.53415 17.3939 6.21436 16.9994 6.21436C16.605 6.21436 16.2852 6.53415 16.2852 6.92864C16.2852 7.32313 16.605 7.64293 16.9994 7.64293Z" fill="black"></path>
  <path d="M16.9984 19.7859C16.9037 19.7858 16.8129 19.7482 16.7459 19.6812L15.6745 18.6098C15.6094 18.5424 15.5734 18.4522 15.5742 18.3586C15.575 18.2649 15.6126 18.1754 15.6788 18.1091C15.745 18.0429 15.8346 18.0054 15.9283 18.0045C16.0219 18.0037 16.1121 18.0397 16.1795 18.1048L16.9984 18.9237L18.8888 17.0334C18.9561 16.9683 19.0463 16.9323 19.14 16.9331C19.2336 16.9339 19.3232 16.9715 19.3894 17.0377C19.4556 17.1039 19.4932 17.1935 19.494 17.2871C19.4948 17.3808 19.4588 17.471 19.3938 17.5384L17.2509 19.6812C17.1839 19.7482 17.0931 19.7858 16.9984 19.7859Z" fill="black"></path>
  <path d="M17.3577 23.0001C16.4394 23.0001 15.5418 22.7278 14.7783 22.2176C14.0148 21.7074 13.4197 20.9823 13.0683 20.134C12.7169 19.2856 12.6249 18.3521 12.8041 17.4514C12.9832 16.5508 13.4254 15.7235 14.0747 15.0742C14.724 14.4249 15.5513 13.9827 16.4519 13.8036C17.3526 13.6244 18.2861 13.7164 19.1344 14.0678C19.9828 14.4192 20.7079 15.0143 21.2181 15.7778C21.7283 16.5413 22.0006 17.4389 22.0006 18.3572C21.9991 19.5881 21.5095 20.7682 20.6391 21.6386C19.7687 22.509 18.5886 22.9987 17.3577 23.0001ZM17.3577 14.4286C16.5807 14.4286 15.8212 14.6591 15.1751 15.0907C14.5291 15.5224 14.0255 16.136 13.7282 16.8538C13.4308 17.5717 13.353 18.3616 13.5046 19.1236C13.6562 19.8857 14.0304 20.5857 14.5798 21.1351C15.1292 21.6846 15.8292 22.0587 16.5913 22.2103C17.3533 22.3619 18.1432 22.2841 18.8611 21.9867C19.579 21.6894 20.1925 21.1859 20.6242 20.5398C21.0559 19.8938 21.2863 19.1342 21.2863 18.3572C21.285 17.3157 20.8707 16.3171 20.1343 15.5807C19.3978 14.8442 18.3992 14.4299 17.3577 14.4286Z" fill="black"></path>
</svg>
