<?xml version="1.0" encoding="UTF-8"?>
<svg xmlns="http://www.w3.org/2000/svg" width="25" height="25" viewBox="0 0 25 25" fill="none">
  <path d="M12.9638 3.00016C10.9096 2.99227 8.90409 3.62484 7.22621 4.80987L7.01897 4.59299C6.87309 4.44397 6.69157 4.33469 6.49161 4.27551C6.29165 4.21633 6.07988 4.20922 5.8764 4.25484C5.67292 4.30046 5.48447 4.3973 5.32891 4.53619C5.17336 4.67507 5.05586 4.85139 4.98757 5.04843L3.98031 7.96661C3.90663 8.1816 3.89413 8.41284 3.94421 8.63452C3.99429 8.8562 4.10498 9.05961 4.26392 9.22205C4.42286 9.38449 4.62381 9.49958 4.84435 9.55447C5.06489 9.60937 5.29634 9.60191 5.51289 9.53293L8.44071 8.59314C8.63946 8.52941 8.81861 8.41592 8.96115 8.26345C9.10369 8.11099 9.20487 7.92461 9.25509 7.72202C9.30532 7.51944 9.30291 7.30738 9.2481 7.10599C9.19329 6.9046 9.0879 6.72057 8.94193 6.57138L8.86723 6.48945C9.98091 5.78783 11.256 5.38384 12.5706 5.31615C13.8851 5.24846 15.195 5.51935 16.3748 6.10286C17.5547 6.68638 18.565 7.563 19.309 8.64879C20.0531 9.73458 20.506 10.9932 20.6243 12.3041C20.6326 12.4586 20.6719 12.6097 20.7399 12.7487C20.8078 12.8876 20.9029 13.0115 21.0197 13.113C21.1364 13.2144 21.2723 13.2914 21.4194 13.3393C21.5664 13.3872 21.7216 13.4051 21.8757 13.3918C22.0298 13.3786 22.1797 13.3345 22.3164 13.2622C22.4531 13.1899 22.5739 13.0909 22.6716 12.971C22.7693 12.8511 22.8419 12.7128 22.8852 12.5643C22.9284 12.4158 22.9413 12.2601 22.9232 12.1065C22.7139 9.61377 21.5723 7.29163 19.7262 5.60362C17.8801 3.91562 15.4652 2.98594 12.9638 3.00016ZM22.0918 12.5017C22.0508 12.5462 22.0008 12.5815 21.9451 12.6051C21.8895 12.6288 21.8294 12.6404 21.7689 12.6391C21.6604 12.6375 21.5563 12.5954 21.4773 12.5209C21.3984 12.4463 21.3502 12.3449 21.3424 12.2366C21.21 10.7624 20.6909 9.34923 19.8374 8.13987C18.984 6.93051 17.8265 5.96781 16.4819 5.34904C15.1372 4.73027 13.6531 4.47734 12.1794 4.6158C10.7058 4.75426 9.29472 5.27922 8.08889 6.13763C8.04592 6.16743 8.01018 6.20651 7.98433 6.25197C7.95847 6.29743 7.94314 6.34811 7.93949 6.40029C7.93487 6.45218 7.94152 6.50445 7.95899 6.55353C7.97646 6.60261 8.00433 6.64733 8.0407 6.68463L8.41902 7.0726C8.47869 7.13348 8.52176 7.20864 8.54411 7.2909C8.56647 7.37317 8.56738 7.45979 8.54674 7.5425C8.52782 7.62643 8.48678 7.70377 8.42788 7.76648C8.36898 7.8292 8.29437 7.875 8.21179 7.89914L5.28397 8.83893C5.1955 8.87029 5.09981 8.87514 5.00863 8.85288C4.91745 8.83062 4.83476 8.78222 4.7707 8.71362C4.70847 8.64701 4.66569 8.56463 4.647 8.47541C4.62831 8.3862 4.63442 8.29357 4.66467 8.20758L5.67193 5.29181C5.6985 5.21055 5.74619 5.13782 5.81014 5.08108C5.87408 5.02434 5.95196 4.98562 6.0358 4.96891C6.1189 4.9482 6.20602 4.95001 6.28818 4.97416C6.37035 4.9983 6.4446 5.0439 6.50329 5.10626L6.93945 5.54001C7.00116 5.60446 7.08452 5.6438 7.17349 5.65048C7.26247 5.65715 7.35077 5.63068 7.4214 5.57616C8.74315 4.5908 10.3036 3.97544 11.9422 3.79343C13.5807 3.61142 15.2382 3.86932 16.7439 4.5406C18.2497 5.21188 19.5494 6.27229 20.5093 7.61268C21.4691 8.95307 22.0545 10.525 22.2051 12.1668C22.2106 12.2274 22.2034 12.2885 22.1839 12.3462C22.1644 12.4039 22.133 12.4569 22.0918 12.5017Z" fill="black"></path>
  <path d="M12.968 18.5934C14.0748 18.5938 15.157 18.266 16.0775 17.6514C16.998 17.0367 17.7156 16.1629 18.1394 15.1404C18.5632 14.1178 18.6742 12.9926 18.4584 11.907C18.2426 10.8213 17.7096 9.82412 16.9269 9.04144C16.1442 8.25877 15.147 7.72581 14.0614 7.50999C12.9758 7.29416 11.8505 7.40517 10.828 7.82898C9.80549 8.25278 8.93163 8.97032 8.31699 9.89085C7.70234 10.8114 7.37452 11.8935 7.375 13.0004C7.37628 14.4833 7.96595 15.9052 9.01456 16.9538C10.0632 18.0024 11.485 18.5921 12.968 18.5934ZM12.968 8.12792C13.9318 8.12744 14.874 8.4128 15.6756 8.94791C16.4772 9.48301 17.1021 10.2438 17.4713 11.1341C17.8404 12.0244 17.9373 13.0042 17.7495 13.9495C17.5618 14.8948 17.0979 15.7632 16.4166 16.4449C15.7353 17.1266 14.8671 17.5909 13.9218 17.7791C12.9766 17.9673 11.9968 17.8709 11.1063 17.5022C10.2159 17.1335 9.45475 16.509 8.91924 15.7076C8.38374 14.9063 8.09792 13.9642 8.09792 13.0004C8.09856 11.7087 8.61178 10.4701 9.52488 9.55659C10.438 8.64303 11.6763 8.12919 12.968 8.12792Z" fill="black"></path>
  <path d="M12.9681 15.2656C12.7145 15.2657 12.4711 15.1658 12.2907 14.9876C12.1103 14.8094 12.0073 14.5673 12.0042 14.3138C12.0042 14.2179 11.9661 14.126 11.8983 14.0582C11.8305 13.9904 11.7386 13.9523 11.6427 13.9523C11.5468 13.9523 11.4549 13.9904 11.3871 14.0582C11.3193 14.126 11.2812 14.2179 11.2812 14.3138C11.2838 14.6943 11.4149 15.0629 11.6533 15.3595C11.8917 15.6561 12.2234 15.8633 12.5946 15.9476V16.285C12.5946 16.3808 12.6326 16.4728 12.7004 16.5405C12.7682 16.6083 12.8601 16.6464 12.956 16.6464C13.0519 16.6464 13.1438 16.6083 13.2116 16.5405C13.2794 16.4728 13.3175 16.3808 13.3175 16.285V15.9476C13.6896 15.865 14.0224 15.658 14.2609 15.3608C14.4995 15.0635 14.6295 14.6937 14.6295 14.3126C14.6295 13.9314 14.4995 13.5617 14.2609 13.2644C14.0224 12.9672 13.6896 12.7602 13.3175 12.6776V12.639L13.2837 12.6704C13.1798 12.6497 13.0741 12.6392 12.9681 12.639C12.7774 12.639 12.5911 12.5825 12.4325 12.4766C12.274 12.3707 12.1505 12.2201 12.0775 12.044C12.0046 11.8679 11.9855 11.6741 12.0227 11.4871C12.0599 11.3001 12.1517 11.1284 12.2865 10.9936C12.4213 10.8588 12.593 10.767 12.78 10.7298C12.967 10.6926 13.1608 10.7117 13.3369 10.7846C13.5131 10.8576 13.6636 10.9811 13.7695 11.1396C13.8754 11.2981 13.9319 11.4845 13.9319 11.6751C13.9319 11.771 13.97 11.8629 14.0378 11.9307C14.1056 11.9985 14.1975 12.0366 14.2934 12.0366C14.3893 12.0366 14.4812 11.9985 14.549 11.9307C14.6168 11.8629 14.6549 11.771 14.6549 11.6751C14.6524 11.2946 14.5212 10.9261 14.2828 10.6295C14.0444 10.3329 13.7127 10.1256 13.3416 10.0414V9.70399C13.3416 9.60812 13.3035 9.51619 13.2357 9.4484C13.1679 9.38061 13.076 9.34253 12.9801 9.34253C12.8842 9.34253 12.7923 9.38061 12.7245 9.4484C12.6567 9.51619 12.6186 9.60812 12.6186 9.70399V10.0414C12.2466 10.1239 11.9137 10.3309 11.6752 10.6282C11.4367 10.9255 11.3067 11.2952 11.3067 11.6764C11.3067 12.0575 11.4367 12.4272 11.6752 12.7245C11.9137 13.0218 12.2466 13.2288 12.6186 13.3114V13.3523L12.6524 13.3186C12.7602 13.3409 12.87 13.3522 12.9801 13.3523C13.2326 13.3523 13.4747 13.4526 13.6532 13.6311C13.8317 13.8096 13.9319 14.0517 13.9319 14.3042C13.9319 14.5566 13.8317 14.7987 13.6532 14.9772C13.4747 15.1557 13.2326 15.256 12.9801 15.256L12.9681 15.2656Z" fill="black"></path>
  <path d="M20.4182 16.4706L17.4904 17.4104C17.2917 17.4741 17.1125 17.5876 16.97 17.74C16.8274 17.8925 16.7263 18.0789 16.676 18.2815C16.6258 18.484 16.6282 18.6961 16.683 18.8975C16.7378 19.0989 16.8432 19.2829 16.9892 19.4321L17.0639 19.5092C15.9506 20.2107 14.6758 20.6148 13.3617 20.6827C12.0475 20.7506 10.7379 20.4802 9.55815 19.8972C8.37842 19.3142 7.36804 18.4382 6.62368 17.3531C5.87933 16.2679 5.42592 15.0099 5.30684 13.6994C5.29849 13.5449 5.25919 13.3938 5.19127 13.2548C5.12335 13.1158 5.0282 12.992 4.91147 12.8905C4.79474 12.789 4.6588 12.7121 4.51175 12.6642C4.36469 12.6163 4.2095 12.5984 4.05541 12.6117C3.90132 12.6249 3.75146 12.669 3.61473 12.7413C3.478 12.8136 3.3572 12.9126 3.25949 13.0325C3.16179 13.1524 3.08917 13.2907 3.04596 13.4392C3.00275 13.5877 2.98983 13.7434 3.00796 13.897C3.16567 15.6433 3.77968 17.3175 4.78842 18.7518C5.79717 20.186 7.16521 21.3299 8.75541 22.0687C10.3456 22.8076 12.1021 23.1154 13.8488 22.9614C15.5954 22.8074 17.271 22.1969 18.7073 21.1912L18.9122 21.3985C19.0577 21.5481 19.2392 21.658 19.4393 21.7175C19.6394 21.7771 19.8515 21.7844 20.0552 21.7387C20.2589 21.6931 20.4475 21.5959 20.6031 21.4566C20.7586 21.3173 20.8758 21.1405 20.9436 20.943L21.9508 18.0369C22.0245 17.8219 22.037 17.5907 21.9869 17.369C21.9368 17.1473 21.8261 16.9439 21.6672 16.7814C21.5083 16.619 21.3073 16.5039 21.0868 16.449C20.8662 16.3941 20.6348 16.4016 20.4182 16.4706ZM21.2665 17.8007L20.2592 20.7069C20.2316 20.7878 20.1837 20.8604 20.1201 20.9175C20.0564 20.9746 19.9791 21.0144 19.8956 21.0331C19.8121 21.0517 19.7252 21.0485 19.6433 21.0239C19.5614 20.9993 19.4872 20.954 19.4278 20.8924L19.0061 20.4611C18.9444 20.3966 18.8611 20.3573 18.7721 20.3506C18.6831 20.3439 18.5948 20.3704 18.5242 20.4249C17.2022 21.4133 15.6405 22.0311 14.0001 22.2148C12.3597 22.3984 10.7001 22.1412 9.19221 21.4696C7.68438 20.7981 6.38294 19.7365 5.4221 18.3944C4.46126 17.0523 3.87579 15.4781 3.72605 13.8343C3.72186 13.7752 3.72974 13.7159 3.74921 13.66C3.76868 13.6041 3.79934 13.5527 3.83931 13.509C3.88012 13.4643 3.93008 13.4288 3.9858 13.4051C4.04152 13.3814 4.10169 13.37 4.16222 13.3716C4.27077 13.3732 4.37481 13.4154 4.45378 13.4899C4.53275 13.5644 4.58091 13.6658 4.58874 13.7741C4.72151 15.2481 5.24093 16.661 6.09452 17.87C6.94811 19.0791 8.10564 20.0414 9.45021 20.6599C10.7948 21.2784 12.2787 21.5312 13.7522 21.3926C15.2257 21.254 16.6366 20.729 17.8422 19.8707C17.8852 19.8409 17.9209 19.8018 17.9468 19.7563C17.9727 19.7109 17.988 19.6602 17.9916 19.608C17.9963 19.5561 17.9896 19.5039 17.9721 19.4548C17.9547 19.4057 17.9268 19.361 17.8904 19.3237L17.5121 18.9357C17.4504 18.8736 17.4061 18.7964 17.3837 18.7118C17.3613 18.6272 17.3615 18.5382 17.3844 18.4538C17.4033 18.3698 17.4443 18.2925 17.5032 18.2298C17.5621 18.1671 17.6368 18.1213 17.7193 18.0971L20.6472 17.1573C20.7355 17.1268 20.8309 17.1226 20.9216 17.1453C21.0123 17.1679 21.0944 17.2165 21.158 17.285C21.2242 17.3512 21.2697 17.4352 21.289 17.5268C21.3082 17.6183 21.3004 17.7135 21.2665 17.8007Z" fill="black"></path>
</svg>
