<?xml version="1.0" encoding="UTF-8"?>
<svg xmlns="http://www.w3.org/2000/svg" width="25" height="25" viewBox="0 0 25 25" fill="none">
  <path d="M22.9446 13.0995C21.1955 9.96851 18.3202 8.05397 14.95 7.69919C13.2604 5.56513 7.95866 5.0245 7.72983 5.00223C7.58074 4.98685 7.43074 5.05178 7.33932 5.17314C7.24744 5.29365 7.2248 5.4534 7.27952 5.59483C7.79931 6.94408 8.33182 8.47877 8.47275 9.10664C7.50998 9.54719 6.66846 10.0157 6.12595 10.4061C4.94928 8.5236 2.54732 8.5001 2.43752 8.5001C2.19569 8.5001 2 8.69579 2 8.93762C2 11.4725 2.88356 12.7448 3.47444 13.3127C2.88356 13.8804 2 15.1528 2 17.6876C2 17.9295 2.19569 18.1252 2.43752 18.1252C2.54732 18.1252 4.94933 18.1017 6.12595 16.2192C6.84672 16.7379 8.09294 17.3938 9.45475 17.939C9.15382 18.4258 9.00005 19.1999 9.00005 20.3127C9.00005 20.5545 9.19573 20.7502 9.43756 20.7502C9.56767 20.7502 12.5428 20.7244 14.0244 18.9864C17.7926 18.9136 21.0372 16.9401 22.9446 13.5258C23.0185 13.3934 23.0185 13.2319 22.9446 13.0995ZM8.3536 5.96057C9.82365 6.17336 12.2371 6.69688 13.6009 7.63397C12.3434 7.68311 10.7388 8.15856 9.28429 8.75518C9.09061 7.98613 8.66089 6.78466 8.3536 5.96057ZM9.88529 19.85C9.94358 18.633 10.2244 18.322 10.3031 18.2583C11.1556 18.5575 12.0194 18.7954 12.8038 18.9147C11.8547 19.5825 10.5609 19.7903 9.88529 19.85ZM10.2523 18.2422L10.2525 18.241C10.2537 18.2414 10.2549 18.2418 10.256 18.2422C10.2536 18.2419 10.2549 18.2426 10.2523 18.2422ZM13.8126 18.1252C11.2559 18.1252 7.07571 16.0261 6.30153 15.234C6.21864 15.1489 6.10544 15.1024 5.98879 15.1024C5.96229 15.1024 5.93539 15.105 5.90889 15.1096C5.76575 15.1361 5.64483 15.2327 5.58716 15.3664C4.9967 16.7357 3.60815 17.1096 2.88652 17.2117C3.02322 14.47 4.3208 13.7373 4.38745 13.7019C4.53141 13.6279 4.6203 13.4788 4.62243 13.3169C4.62456 13.1533 4.53269 13.0008 4.38786 12.9239C4.32933 12.8927 3.02408 12.1651 2.88652 9.41615C3.6077 9.52168 5.00137 9.90108 5.58716 11.2589C5.64483 11.3926 5.76575 11.4892 5.90889 11.5156C6.05331 11.5425 6.19986 11.4955 6.30153 11.3913C7.07571 10.5992 11.2559 8.5001 13.8126 8.5001C17.2669 8.5001 20.2589 10.2505 22.0585 13.3126C20.2589 16.3747 17.2669 18.1252 13.8126 18.1252Z" fill="black"></path>
  <path d="M15.125 13.3126C15.125 11.2994 15.9193 10.0664 15.9274 10.054C16.0598 9.85231 16.0043 9.58144 15.8035 9.44814C15.6027 9.3157 15.3318 9.36996 15.1985 9.56992C15.1596 9.62803 14.25 11.0191 14.25 13.3126C14.25 15.6061 15.1596 16.9972 15.1985 17.0553C15.2827 17.1818 15.4215 17.2501 15.5629 17.2501C15.6462 17.2501 15.7304 17.2262 15.8052 17.1766C16.0064 17.0425 16.0606 16.7712 15.9265 16.5699C15.9184 16.558 15.125 15.3442 15.125 13.3126Z" fill="black"></path>
  <path d="M14.0535 9.44814C13.8523 9.3157 13.5822 9.36996 13.4485 9.56992C13.4096 9.62799 12.5 11.0191 12.5 13.3126C12.5 14.5375 12.764 15.5001 12.9858 16.0918C13.0516 16.2674 13.2182 16.3759 13.3955 16.3759C13.4464 16.3759 13.4985 16.3669 13.5489 16.3481C13.7754 16.2635 13.8899 16.0115 13.8053 15.785C13.6092 15.2608 13.375 14.4063 13.375 13.3126C13.375 11.2994 14.1693 10.0663 14.1774 10.0539C14.3098 9.85231 14.2543 9.58144 14.0535 9.44814Z" fill="black"></path>
  <path d="M17.75 12.875C18.2332 12.875 18.625 12.4832 18.625 12C18.625 11.5167 18.2332 11.125 17.75 11.125C17.2667 11.125 16.875 11.5167 16.875 12C16.875 12.4832 17.2667 12.875 17.75 12.875Z" fill="black"></path>
</svg>
