<?xml version="1.0" encoding="UTF-8"?>
<svg xmlns="http://www.w3.org/2000/svg" width="25" height="25" viewBox="0 0 25 25" fill="none">
  <path d="M18.1382 8.79575C18.2056 8.86318 18.2937 8.89673 18.3819 8.89673C18.4701 8.89673 18.5584 8.86302 18.6258 8.79575L21.0281 6.39344C21.7163 5.70509 21.7163 4.58497 21.0281 3.89663C20.3398 3.20813 19.2195 3.20844 18.5313 3.89663L18.3819 4.04572L18.2328 3.89663C17.5441 3.20829 16.4243 3.20829 15.736 3.89663C15.4025 4.23012 15.2188 4.67345 15.2188 5.14495C15.2188 5.61646 15.4025 6.05995 15.736 6.39328L18.1382 8.79575ZM16.2236 4.38428C16.4335 4.1744 16.7089 4.06978 16.9843 4.06978C17.2597 4.06978 17.5354 4.17456 17.7452 4.38428L18.1382 4.77744C18.2029 4.84201 18.2906 4.87842 18.3819 4.87842C18.4734 4.87842 18.5611 4.84201 18.6258 4.77744L19.019 4.38428C19.4387 3.96437 20.121 3.96485 20.5405 4.38428C20.9599 4.80371 20.9599 5.48635 20.5405 5.90579L18.3819 8.0642L16.2236 5.90579C16.0204 5.70256 15.9084 5.43222 15.9084 5.14511C15.9085 4.85768 16.0204 4.58735 16.2236 4.38428Z" fill="black"></path>
  <path d="M21.6171 22.0022C18.6695 22.3292 16.3319 21.024 16.3085 21.0109C16.2292 20.9656 16.1352 20.9534 16.047 20.9776C16.0098 20.9876 12.3022 21.9814 9.316 21.3186C7.45436 20.9047 5.69844 19.5934 4.41624 18.6359C4.24404 18.5074 4.08086 18.3854 3.92765 18.2735C3.71841 18.1204 3.38571 17.9932 3.09242 17.8808C2.96074 17.8305 2.7803 17.7613 2.74152 17.7371C2.70797 17.7108 2.68961 17.6722 2.68961 17.628V16.8288C2.70623 16.1963 5.35799 6.46435 5.76919 5.22631C5.77932 5.21175 5.81889 5.1831 5.84801 5.16933L11.0958 2.7724L12.7924 4.98114C12.8761 5.09558 12.8682 5.25559 12.7739 5.36116L11.0974 7.24054C10.9877 7.36367 10.803 7.37713 10.6884 7.28137L10.0105 6.65634C9.93106 6.58321 9.81805 6.559 9.71217 6.57847C9.60596 6.59746 9.511 6.67312 9.46193 6.76935C9.40527 6.88093 8.89198 7.01768 8.3684 7.02164L8.19778 7.00439C8.06103 6.98808 7.92839 7.05947 7.8616 7.17992C7.79449 7.30036 7.80589 7.44914 7.89009 7.55835C8.03571 7.74654 8.14919 7.8977 8.21345 7.98443L8.549 13.6882C8.34102 14.4983 8.15046 14.7284 8.10313 14.7745C7.96337 14.8186 7.86192 14.9492 7.86192 15.1034C7.86192 15.2938 8.0164 15.4483 8.2068 15.4483C8.5979 15.4483 8.93028 14.9343 9.19714 13.931C11.9399 11.8788 14.3335 13.8156 14.5212 13.975C15.3924 14.8493 15.4464 15.4301 15.4481 15.4559C15.4522 15.6426 15.605 15.793 15.793 15.793C15.9834 15.793 16.1379 15.6387 16.1379 15.4483C16.1379 15.369 16.1091 14.6885 15.2165 13.7055C16.0583 12.6707 17.0166 12.0746 18.0722 11.9448C19.892 11.7207 21.4218 12.9445 21.4371 12.9567C21.5849 13.077 21.8018 13.0548 21.9221 12.9073C22.0424 12.7599 22.0207 12.5431 21.8735 12.4227C21.8023 12.3646 20.1089 11.0023 17.9949 11.2595C16.7593 11.4094 15.6501 12.0776 14.6939 13.2473C13.9179 12.7196 11.6928 11.5252 9.20442 13.0873L8.89578 7.84183C8.89261 7.78516 8.8752 7.73024 8.84561 7.68197C9.15424 7.64541 9.52176 7.56484 9.7883 7.38947L10.2326 7.79893C10.6462 8.14603 11.2519 8.10282 11.6118 7.69985L13.2883 5.82032C13.5975 5.47386 13.6233 4.94996 13.3443 4.56788L11.4754 2.1347C11.3779 2.00761 11.2053 1.9644 11.0586 2.03119L5.56565 4.54019C5.50819 4.56535 5.21681 4.70637 5.12105 4.99444C4.92574 5.58069 2 16.0147 2 16.8276V17.6282C2 17.8851 2.11538 18.1227 2.31624 18.2801C2.41674 18.3588 2.56695 18.4183 2.84599 18.525C3.0739 18.6124 3.38587 18.7315 3.52056 18.8302C3.67219 18.9409 3.83331 19.0614 4.00362 19.1886C5.33583 20.1836 7.16028 21.546 9.16659 21.9919C12.0227 22.6266 15.3754 21.8592 16.094 21.6782C16.5739 21.9262 18.3346 22.7456 20.6396 22.7456C20.9797 22.7456 21.3319 22.7279 21.6932 22.6875C21.8825 22.6666 22.0188 22.496 21.9979 22.3068C21.9767 22.1172 21.8056 21.9799 21.6171 22.0022Z" fill="black"></path>
  <path d="M19.926 17.8241C19.907 17.6516 19.7609 17.5173 19.5832 17.5173C19.3928 17.5173 19.2383 17.6718 19.2383 17.8622C19.2383 18.0925 19.4084 18.8723 21.5955 19.2367C21.6146 19.2399 21.6338 19.2414 21.6525 19.2414C21.818 19.2414 21.9641 19.1219 21.9923 18.9534C22.0235 18.7655 21.8965 18.5879 21.7088 18.5564C20.1794 18.3016 19.9464 17.87 19.926 17.8241Z" fill="black"></path>
  <path d="M13.306 19.5937C8.78957 20.5611 6.85686 17.4709 6.77693 17.339C6.67832 17.1762 6.46703 17.1238 6.30416 17.2216C6.14082 17.3196 6.08795 17.5314 6.18593 17.6947C6.20872 17.7325 6.75746 18.6333 7.93076 19.4006C8.73924 19.9291 9.97205 20.4675 11.6395 20.4675C12.1949 20.4675 12.7984 20.4079 13.4503 20.2683C13.6366 20.2284 13.7553 20.0449 13.7154 19.8588C13.6754 19.6727 13.4923 19.5535 13.306 19.5937Z" fill="black"></path>
</svg>
