<svg width="355" height="400" viewBox="0 0 355 400" fill="none" xmlns="http://www.w3.org/2000/svg">
<path d="M16.1501 81.9397L162.145 5.18367C171.417 0.297499 182.846 0.297499 192.118 5.18367L338.113 81.9397C347.384 86.8259 353.099 95.8306 353.099 105.584V294.591C353.099 304.345 347.384 313.35 338.113 318.236L192.118 394.992C182.846 399.878 171.417 399.878 162.145 394.992L16.1501 318.236C6.87889 313.35 1.16406 304.345 1.16406 294.591V105.584C1.16406 95.8119 6.87889 86.8071 16.1501 81.9397Z" fill="white" stroke="#930043" stroke-width="2.23497" stroke-miterlimit="10"/>
<path d="M329.649 286.067C329.649 293.588 325.205 300.604 318.023 304.365L187.153 373.065C179.971 376.826 171.061 376.826 163.921 373.065L33.0091 304.365C25.8277 300.604 21.383 293.588 21.383 286.067V269.41H14.0781V286.067C14.0781 295.946 19.922 305.151 29.3464 310.09L160.258 378.809C164.95 381.279 170.238 382.513 175.526 382.513C180.794 382.513 186.062 381.279 190.774 378.809L321.686 310.09C331.11 305.151 336.954 295.946 336.954 286.067V269.41H329.67V286.067H329.649ZM321.686 90.0752L190.774 21.375C181.37 16.417 169.662 16.4357 160.258 21.375L29.3669 90.0752C19.9426 95.0332 14.0987 104.238 14.0987 114.117V207.756H21.4036V114.117C21.4036 106.595 25.8483 99.5795 33.0297 95.819L163.88 27.1187C171.061 23.3581 179.971 23.3581 187.111 27.1187L318.023 95.819C325.205 99.5795 329.649 106.595 329.649 114.117V207.756H336.934V114.117C336.954 104.238 331.11 95.0332 321.686 90.0752Z" fill="#930043"/>
<path d="M103.271 95.8344V77.762H106.841L109.403 91.5986L111.964 77.762H115.534V95.8344H112.953V81.5741L110.371 95.8344H108.435L105.853 81.5741V95.8344H103.271ZM124.428 96.0159C123.52 96.0159 122.74 95.8781 122.088 95.6024C121.443 95.3267 120.928 94.9233 120.545 94.3922C120.162 93.861 119.883 93.2391 119.708 92.5265C119.533 91.8071 119.446 90.9734 119.446 90.0254V83.4701C119.446 82.5221 119.533 81.6951 119.708 80.9892C119.883 80.2832 120.162 79.6714 120.545 79.1537C120.928 78.6293 121.443 78.236 122.088 77.9738C122.74 77.7116 123.52 77.5805 124.428 77.5805C126.189 77.5805 127.46 78.0847 128.24 79.0932C129.02 80.1017 129.41 81.5607 129.41 83.4701V90.0254C129.41 90.9599 129.319 91.7869 129.137 92.5063C128.963 93.219 128.684 93.8442 128.3 94.3821C127.917 94.9133 127.399 95.32 126.747 95.6024C126.102 95.8781 125.329 96.0159 124.428 96.0159ZM122.542 93.0811C122.891 93.6257 123.52 93.898 124.428 93.898C125.335 93.898 125.961 93.6257 126.304 93.0811C126.653 92.5365 126.828 91.7331 126.828 90.6708V82.8247C126.828 81.7758 126.657 80.9926 126.314 80.4749C125.971 79.9572 125.342 79.6983 124.428 79.6983C123.513 79.6983 122.885 79.9572 122.542 80.4749C122.199 80.9926 122.028 81.7758 122.028 82.8247V90.6708C122.028 91.7331 122.199 92.5365 122.542 93.0811ZM138.031 96.0159C136.404 96.0159 135.16 95.5385 134.299 94.5838C133.446 93.6291 132.968 92.3248 132.867 90.6708L135.449 90.0254C135.577 92.6071 136.437 93.898 138.031 93.898C139.322 93.898 139.967 93.2526 139.967 91.9617C139.967 91.5785 139.913 91.2255 139.806 90.9028C139.705 90.5733 139.547 90.2741 139.332 90.0052C139.117 89.7295 138.922 89.511 138.747 89.3497C138.572 89.1816 138.333 88.9765 138.031 88.7345L134.804 86.1527C134.212 85.6888 133.738 85.1005 133.382 84.3878C133.032 83.6685 132.857 82.8516 132.857 81.9372C132.857 80.606 133.271 79.547 134.098 78.7604C134.925 77.9738 136.021 77.5805 137.385 77.5805C138.851 77.5805 140.014 77.9402 140.875 78.6596C141.742 79.3722 142.277 80.3841 142.478 81.6951C142.499 81.8363 142.522 82.0313 142.549 82.2801L139.967 82.9255C139.96 82.8112 139.944 82.6398 139.917 82.4112C139.802 81.5909 139.544 80.9354 139.14 80.4446C138.744 79.9471 138.159 79.6983 137.385 79.6983C136.767 79.6983 136.289 79.8731 135.953 80.2227C135.617 80.5656 135.449 81.0463 135.449 81.6649C135.449 82.6801 135.879 83.5306 136.74 84.2164L139.967 86.7982C141.688 88.1899 142.549 89.8539 142.549 91.7903C142.549 93.1148 142.139 94.1502 141.319 94.8964C140.505 95.6427 139.409 96.0159 138.031 96.0159ZM148.013 95.8344V80.0614H144.786V77.762H153.822V80.0614H150.595V95.8344H148.013ZM165.185 85.5073H165.83C166.906 85.5073 167.713 85.2821 168.251 84.8316C168.789 84.3744 169.058 83.6315 169.058 82.6028C169.058 81.5741 168.789 80.8346 168.251 80.3841C167.713 79.9269 166.906 79.6983 165.83 79.6983H165.185V85.5073ZM162.603 95.8344V77.762H165.83C167.753 77.762 169.202 78.1351 170.177 78.8814C171.152 79.6277 171.639 80.8682 171.639 82.6028C171.639 83.6785 171.448 84.5795 171.065 85.3056C170.681 86.0317 170.12 86.5292 169.38 86.7982L172.285 95.8344H169.723L167.121 87.4436H165.185V95.8344H162.603ZM175.43 95.8344V77.762H182.53V79.6983H178.012V85.5073H181.239V87.4436H178.012V93.898H182.53V95.8344H175.43ZM188.478 95.8344L184.605 77.762H187.187L189.093 87.4436L189.759 91.9617L190.445 87.4436L192.351 77.762H194.933L191.06 95.8344H188.478ZM198.118 95.8344V77.762H200.7V95.8344H198.118ZM205.115 95.8344V77.762H212.215V79.6983H207.697V85.5073H210.924V87.4436H207.697V93.898H212.215V95.8344H205.115ZM217.508 95.8344L214.281 77.762H216.863L218.154 86.1527L218.809 91.3163L219.444 86.1527L220.735 77.762H223.317L224.608 86.1527L225.243 91.3163L225.899 86.1527L227.19 77.762H229.771L226.544 95.8344H223.962L222.672 87.4436L222.026 82.2801L221.381 87.4436L220.09 95.8344H217.508ZM232.826 95.8344V77.762H239.925V79.6983H235.407V85.5073H238.635V87.4436H235.407V93.898H239.925V95.8344H232.826ZM243.171 95.8344V77.762H247.175C249.064 77.762 250.395 78.1486 251.169 78.9218C251.949 79.695 252.339 81.0295 252.339 82.9255V90.0254C252.339 92.0088 251.942 93.4745 251.148 94.4224C250.362 95.3637 249.031 95.8344 247.155 95.8344H243.171ZM245.753 93.898H247.175C247.599 93.898 247.962 93.861 248.264 93.7871C248.567 93.7064 248.812 93.5652 249 93.3635C249.189 93.1551 249.337 92.9601 249.444 92.7786C249.552 92.5903 249.626 92.3012 249.666 91.9113C249.713 91.5213 249.74 91.202 249.747 90.9532C249.753 90.6977 249.757 90.3044 249.757 89.7733C249.757 89.5984 249.757 89.4673 249.757 89.3799V83.571C249.757 83.2415 249.753 82.9793 249.747 82.7843C249.747 82.5894 249.737 82.3608 249.716 82.0985C249.703 81.8296 249.679 81.6178 249.646 81.4632C249.612 81.3086 249.565 81.1371 249.505 80.9489C249.444 80.7539 249.367 80.6026 249.273 80.495C249.185 80.3875 249.074 80.2765 248.94 80.1622C248.812 80.0412 248.661 79.9538 248.486 79.9C248.318 79.8395 248.12 79.7924 247.891 79.7588C247.662 79.7185 247.407 79.6983 247.125 79.6983H245.753V93.898Z" fill="#930043"/>
<path d="M44.6749 148V127.898H52.9389V130.43H48.3478V136.286H52.0951V138.843H48.3478V148H44.6749ZM54.9264 148V127.898H58.5993V145.469H63.4634V148H54.9264ZM70.6873 148.273C69.1983 148.273 68.0402 148 67.2129 147.454C66.3857 146.908 65.8149 146.13 65.5005 145.121C65.1862 144.112 65.029 142.904 65.029 141.498V127.898H68.6027V141.92C68.6027 142.549 68.644 143.144 68.7268 143.707C68.8095 144.253 68.9997 144.699 69.2975 145.047C69.6119 145.378 70.0751 145.543 70.6873 145.543C71.3325 145.543 71.7958 145.378 72.077 145.047C72.3748 144.699 72.5651 144.253 72.6478 143.707C72.7471 143.144 72.7967 142.549 72.7967 141.92V127.898H76.3456V141.498C76.3456 142.904 76.1884 144.112 75.874 145.121C75.5597 146.13 74.9889 146.908 74.1617 147.454C73.351 148 72.1929 148.273 70.6873 148.273ZM81.2446 148V130.603H78.0432V127.898H88.0692V130.603H84.9175V148H81.2446ZM91.9081 148V130.603H88.7067V127.898H98.7328V130.603H95.581V148H91.9081ZM100.561 148V127.898H108.999V130.479H104.234V136.262H107.982V138.818H104.234V145.469H109.049V148H100.561ZM111.177 148V127.898H115.991C117.348 127.898 118.489 128.064 119.416 128.395C120.359 128.709 121.07 129.255 121.55 130.033C122.046 130.81 122.295 131.869 122.295 133.209C122.295 134.02 122.22 134.748 122.071 135.393C121.922 136.038 121.666 136.592 121.302 137.056C120.954 137.502 120.466 137.85 119.838 138.098L122.642 148H118.969L116.537 138.793H114.849V148H111.177ZM114.849 136.485H115.991C116.702 136.485 117.265 136.386 117.679 136.187C118.109 135.972 118.415 135.641 118.597 135.194C118.779 134.731 118.87 134.144 118.87 133.432C118.87 132.423 118.68 131.67 118.299 131.174C117.935 130.661 117.232 130.405 116.19 130.405H114.849V136.485ZM130.105 148L134.125 127.898H138.046L142.066 148H138.667L137.872 143.359H134.373L133.554 148H130.105ZM134.745 141.026H137.475L136.11 132.589L134.745 141.026ZM144.088 148V127.898H149.995C151.202 127.898 152.178 128.122 152.923 128.568C153.684 129.015 154.238 129.669 154.586 130.529C154.95 131.373 155.132 132.398 155.132 133.606C155.132 134.913 154.908 135.972 154.462 136.783C154.015 137.577 153.386 138.156 152.575 138.52C151.781 138.884 150.838 139.066 149.746 139.066H147.761V148H144.088ZM147.761 136.485H149.151C149.813 136.485 150.325 136.394 150.689 136.212C151.07 136.013 151.326 135.707 151.459 135.294C151.608 134.864 151.682 134.293 151.682 133.581C151.682 132.853 151.624 132.266 151.508 131.819C151.409 131.356 151.177 131.017 150.813 130.802C150.466 130.587 149.912 130.479 149.151 130.479H147.761V136.485ZM157.175 148V127.898H163.082C164.289 127.898 165.265 128.122 166.01 128.568C166.771 129.015 167.325 129.669 167.673 130.529C168.037 131.373 168.219 132.398 168.219 133.606C168.219 134.913 167.995 135.972 167.549 136.783C167.102 137.577 166.473 138.156 165.663 138.52C164.868 138.884 163.925 139.066 162.833 139.066H160.848V148H157.175ZM160.848 136.485H162.238C162.9 136.485 163.412 136.394 163.776 136.212C164.157 136.013 164.413 135.707 164.546 135.294C164.695 134.864 164.769 134.293 164.769 133.581C164.769 132.853 164.711 132.266 164.595 131.819C164.496 131.356 164.265 131.017 163.901 130.802C163.553 130.587 162.999 130.479 162.238 130.479H160.848V136.485ZM176.297 148V127.898H181.037C182.675 127.898 183.949 128.122 184.859 128.568C185.785 129.015 186.439 129.702 186.819 130.628C187.216 131.555 187.415 132.729 187.415 134.152V141.498C187.415 142.954 187.216 144.17 186.819 145.146C186.439 146.106 185.793 146.825 184.883 147.305C183.99 147.768 182.757 148 181.186 148H176.297ZM179.97 145.444H181.086C181.93 145.444 182.534 145.295 182.898 144.997C183.262 144.699 183.485 144.269 183.568 143.707C183.651 143.128 183.692 142.424 183.692 141.597V133.904C183.692 133.093 183.634 132.44 183.519 131.943C183.403 131.447 183.163 131.083 182.799 130.851C182.435 130.62 181.848 130.504 181.037 130.504H179.97V145.444ZM190.111 148V127.898H198.549V130.479H193.784V136.262H197.531V138.818H193.784V145.469H198.598V148H190.111ZM203.803 148L199.758 127.898H203.009L205.665 142.118L208.146 127.898H211.472L207.427 148H203.803ZM213.522 148V127.898H221.96V130.479H217.195V136.262H220.943V138.818H217.195V145.469H222.01V148H213.522ZM224.137 148V127.898H227.81V145.469H232.674V148H224.137ZM239.8 148.273C238.377 148.273 237.244 148.008 236.4 147.479C235.556 146.949 234.953 146.188 234.589 145.196C234.225 144.203 234.043 143.028 234.043 141.672V134.152C234.043 132.795 234.225 131.637 234.589 130.678C234.953 129.702 235.556 128.957 236.4 128.444C237.244 127.931 238.377 127.675 239.8 127.675C241.256 127.675 242.398 127.931 243.225 128.444C244.069 128.957 244.672 129.702 245.036 130.678C245.417 131.637 245.607 132.795 245.607 134.152V141.696C245.607 143.037 245.417 144.203 245.036 145.196C244.672 146.172 244.069 146.933 243.225 147.479C242.398 148.008 241.256 148.273 239.8 148.273ZM239.8 145.568C240.412 145.568 240.859 145.436 241.14 145.171C241.438 144.906 241.637 144.542 241.736 144.079C241.835 143.616 241.885 143.111 241.885 142.565V133.308C241.885 132.746 241.835 132.241 241.736 131.795C241.637 131.348 241.438 131 241.14 130.752C240.859 130.488 240.412 130.355 239.8 130.355C239.221 130.355 238.783 130.488 238.485 130.752C238.187 131 237.988 131.348 237.889 131.795C237.79 132.241 237.74 132.746 237.74 133.308V142.565C237.74 143.111 237.782 143.616 237.864 144.079C237.964 144.542 238.162 144.906 238.46 145.171C238.758 145.436 239.204 145.568 239.8 145.568ZM248.324 148V127.898H254.231C255.438 127.898 256.414 128.122 257.159 128.568C257.92 129.015 258.474 129.669 258.822 130.529C259.186 131.373 259.368 132.398 259.368 133.606C259.368 134.913 259.144 135.972 258.698 136.783C258.251 137.577 257.622 138.156 256.812 138.52C256.017 138.884 255.074 139.066 253.982 139.066H251.997V148H248.324ZM251.997 136.485H253.387C254.049 136.485 254.561 136.394 254.925 136.212C255.306 136.013 255.562 135.707 255.695 135.294C255.844 134.864 255.918 134.293 255.918 133.581C255.918 132.853 255.86 132.266 255.744 131.819C255.645 131.356 255.414 131.017 255.05 130.802C254.702 130.587 254.148 130.479 253.387 130.479H251.997V136.485ZM261.362 148L261.709 127.898H265.506L268.36 141.821L271.338 127.898H275.011L275.383 148H272.653L272.355 134.028L269.502 148H267.293L264.389 133.978L264.116 148H261.362ZM278.352 148V127.898H286.789V130.479H282.025V136.262H285.772V138.818H282.025V145.469H286.839V148H278.352ZM288.967 148V127.898H291.523L296.412 139.364V127.898H299.44V148H297.007L292.094 135.989V148H288.967ZM304.5 148V130.603H301.299V127.898H311.325V130.603H308.173V148H304.5ZM128.05 185.273C126.577 185.273 125.419 184.983 124.576 184.404C123.748 183.825 123.169 183.039 122.838 182.047C122.507 181.038 122.342 179.879 122.342 178.572V171.4C122.342 170.027 122.507 168.836 122.838 167.827C123.169 166.817 123.748 166.04 124.576 165.494C125.419 164.948 126.577 164.675 128.05 164.675C129.44 164.675 130.523 164.915 131.301 165.395C132.095 165.858 132.658 166.528 132.989 167.405C133.319 168.282 133.485 169.299 133.485 170.457V172.145H129.961V170.408C129.961 169.845 129.928 169.332 129.862 168.869C129.812 168.406 129.655 168.042 129.39 167.777C129.142 167.496 128.703 167.355 128.075 167.355C127.446 167.355 126.983 167.504 126.685 167.802C126.404 168.083 126.222 168.472 126.139 168.968C126.056 169.448 126.015 169.994 126.015 170.606V179.342C126.015 180.07 126.073 180.674 126.189 181.153C126.304 181.617 126.511 181.972 126.809 182.221C127.123 182.452 127.545 182.568 128.075 182.568C128.687 182.568 129.117 182.427 129.365 182.146C129.63 181.848 129.795 181.459 129.862 180.98C129.928 180.5 129.961 179.962 129.961 179.367V177.555H133.485V179.168C133.485 180.359 133.328 181.418 133.013 182.345C132.699 183.255 132.145 183.974 131.351 184.504C130.573 185.017 129.473 185.273 128.05 185.273ZM141.502 185.273C140.079 185.273 138.946 185.008 138.102 184.479C137.258 183.949 136.654 183.188 136.29 182.196C135.926 181.203 135.744 180.028 135.744 178.672V171.152C135.744 169.795 135.926 168.637 136.29 167.678C136.654 166.702 137.258 165.957 138.102 165.444C138.946 164.931 140.079 164.675 141.502 164.675C142.958 164.675 144.099 164.931 144.926 165.444C145.77 165.957 146.374 166.702 146.738 167.678C147.119 168.637 147.309 169.795 147.309 171.152V178.696C147.309 180.037 147.119 181.203 146.738 182.196C146.374 183.172 145.77 183.933 144.926 184.479C144.099 185.008 142.958 185.273 141.502 185.273ZM141.502 182.568C142.114 182.568 142.561 182.436 142.842 182.171C143.14 181.906 143.338 181.542 143.437 181.079C143.537 180.616 143.586 180.111 143.586 179.565V170.308C143.586 169.746 143.537 169.241 143.437 168.795C143.338 168.348 143.14 168 142.842 167.752C142.561 167.488 142.114 167.355 141.502 167.355C140.923 167.355 140.484 167.488 140.186 167.752C139.889 168 139.69 168.348 139.591 168.795C139.492 169.241 139.442 169.746 139.442 170.308V179.565C139.442 180.111 139.483 180.616 139.566 181.079C139.665 181.542 139.864 181.906 140.162 182.171C140.459 182.436 140.906 182.568 141.502 182.568ZM149.976 185L150.324 164.898H154.121L156.974 178.821L159.953 164.898H163.625L163.998 185H161.268L160.97 171.028L158.116 185H155.907L153.004 170.978L152.731 185H149.976ZM166.966 185V164.898H172.873C174.08 164.898 175.057 165.122 175.801 165.568C176.562 166.015 177.116 166.669 177.464 167.529C177.828 168.373 178.01 169.398 178.01 170.606C178.01 171.913 177.786 172.972 177.34 173.783C176.893 174.577 176.264 175.156 175.454 175.52C174.659 175.884 173.716 176.066 172.624 176.066H170.639V185H166.966ZM170.639 173.485H172.029C172.691 173.485 173.204 173.394 173.568 173.212C173.948 173.013 174.204 172.707 174.337 172.294C174.486 171.864 174.56 171.293 174.56 170.581C174.56 169.853 174.502 169.266 174.386 168.819C174.287 168.356 174.056 168.017 173.692 167.802C173.344 167.587 172.79 167.479 172.029 167.479H170.639V173.485ZM177.969 185L181.99 164.898H185.911L189.931 185H186.531L185.737 180.359H182.238L181.419 185H177.969ZM182.61 178.026H185.34L183.975 169.589L182.61 178.026ZM191.953 185V164.898H194.509L199.398 176.364V164.898H202.426V185H199.994L195.08 172.989V185H191.953ZM205.575 185V164.898H209.199V185H205.575ZM212.31 185V164.898H220.748V167.479H215.983V173.262H219.731V175.818H215.983V182.469H220.798V185H212.31ZM227.988 185.273C226.78 185.273 225.771 185.041 224.961 184.578C224.15 184.098 223.538 183.403 223.124 182.493C222.71 181.584 222.479 180.467 222.429 179.143L225.581 178.523C225.614 179.3 225.705 179.987 225.854 180.583C226.019 181.178 226.259 181.641 226.574 181.972C226.905 182.287 227.335 182.444 227.864 182.444C228.46 182.444 228.882 182.27 229.13 181.923C229.378 181.559 229.502 181.104 229.502 180.558C229.502 179.681 229.304 178.961 228.906 178.399C228.509 177.836 227.98 177.274 227.318 176.711L224.787 174.478C224.075 173.865 223.505 173.187 223.074 172.443C222.661 171.682 222.454 170.747 222.454 169.638C222.454 168.05 222.917 166.826 223.844 165.965C224.77 165.105 226.036 164.675 227.641 164.675C228.584 164.675 229.37 164.824 229.998 165.122C230.627 165.403 231.123 165.8 231.487 166.313C231.868 166.826 232.149 167.413 232.331 168.075C232.513 168.72 232.629 169.407 232.679 170.135L229.552 170.681C229.519 170.052 229.444 169.489 229.328 168.993C229.229 168.497 229.039 168.108 228.758 167.827C228.493 167.545 228.096 167.405 227.566 167.405C227.02 167.405 226.598 167.587 226.301 167.951C226.019 168.298 225.879 168.737 225.879 169.266C225.879 169.944 226.019 170.507 226.301 170.954C226.582 171.384 226.987 171.83 227.517 172.294L230.023 174.502C230.85 175.197 231.554 176.016 232.133 176.959C232.728 177.886 233.026 179.011 233.026 180.334C233.026 181.294 232.811 182.146 232.381 182.891C231.967 183.635 231.38 184.222 230.619 184.653C229.874 185.066 228.997 185.273 227.988 185.273Z" fill="black"/>
<rect x="1.16406" y="216.007" width="351.935" height="44.37" fill="#930043"/>
<circle cx="177.633" cy="235.165" r="37.3111" fill="white"/>
<path d="M69.8351 223.671L74.2284 232.571L84.053 234.007L76.944 240.931L78.6218 250.713L69.8351 246.092L61.0484 250.713L62.7261 240.931L55.6172 234.007L65.4418 232.571L69.8351 223.671Z" fill="white"/>
<path d="M110.939 223.671L115.332 232.571L125.157 234.007L118.048 240.931L119.725 250.713L110.939 246.092L102.152 250.713L103.83 240.931L96.7207 234.007L106.545 232.571L110.939 223.671Z" fill="white"/>
<path d="M178.842 213.985L186.382 229.259L203.242 231.724L191.042 243.607L193.921 260.394L178.842 252.464L163.762 260.394L166.642 243.607L154.441 231.724L171.302 229.259L178.842 213.985Z" fill="#930043"/>
<path d="M240.614 223.671L245.008 232.571L254.832 234.007L247.723 240.931L249.401 250.713L240.614 246.092L231.828 250.713L233.505 240.931L226.396 234.007L236.221 232.571L240.614 223.671Z" fill="white"/>
<path d="M281.718 223.671L286.111 232.571L295.936 234.007L288.827 240.931L290.505 250.713L281.718 246.092L272.931 250.713L274.609 240.931L267.5 234.007L277.325 232.571L281.718 223.671Z" fill="white"/>
<g clip-path="url(#clip0_929_2502)">
<path d="M185.573 290.143V294.897H181.084V284.068H179.499V294.897H174.745V284.068H173.16V300.971H168.671V290.143H167.086V307.31H168.671V302.556H179.499V313.384H181.084V296.481H185.573V307.31H187.158V290.143H185.573ZM179.499 300.971H174.745V296.481H179.499V300.971Z" fill="#930043"/>
<path d="M174.743 303.35H173.158V313.386H174.743V303.35Z" fill="#930043"/>
</g>
<path d="M134.244 321.465V330.958H132.124V327.398H125.762V330.958H123.643V321.465H125.762V325.026H132.124V321.465H134.244Z" fill="black"/>
<path d="M136.055 330.959V321.451H138.696V330.959H136.055Z" fill="black"/>
<path d="M150.84 323.837H146.6V330.957H144.48V323.837H140.238V321.464H150.84V323.837Z" fill="black"/>
<path d="M162.883 321.464V323.837H154.401V323.839H152.281V321.464H162.883ZM162.883 325.225V327.16H154.401V327.166H152.281V325.225H162.883ZM162.883 328.585V330.957H152.281V328.585H162.883Z" fill="black"/>
<path d="M175.303 324.539V325.617H173.183V324.75C173.183 324.246 172.817 323.837 172.368 323.837H164.701V321.464H172.556C172.772 321.464 172.981 321.492 173.183 321.546C174.197 321.81 174.994 322.703 175.233 323.839C175.278 324.063 175.303 324.297 175.303 324.539ZM167.637 328.585H175.303V330.957H167.448C167.351 330.957 167.255 330.952 167.162 330.939C167.046 330.927 166.933 330.904 166.821 330.876C165.808 330.611 165.01 329.719 164.772 328.582C164.754 328.498 164.74 328.414 164.729 328.33C164.711 328.183 164.699 328.033 164.699 327.88V325.124H166.819V327.669C166.821 328.175 167.187 328.585 167.637 328.585Z" fill="black"/>
<path d="M187.611 321.464V330.957H185.491V327.397H179.13V330.957H177.01V321.464H179.13V325.024H185.491V321.464H187.611Z" fill="black"/>
<path d="M205.631 321.464V330.957H203.511V327.397H197.149V330.957H195.029V321.464H197.149V325.024H203.511V321.464H205.631Z" fill="#930043"/>
<path d="M218.063 321.464V330.957H216V329.94L215.175 330.957H209.892C208.643 330.812 207.641 329.729 207.459 328.348V321.464H209.579V327.672C209.579 328.175 209.945 328.585 210.395 328.585H215.936L215.941 321.464H218.063Z" fill="#930043"/>
<path d="M230.563 327.437C230.59 327.608 230.603 327.783 230.603 327.961C230.603 328.17 230.585 328.373 230.549 328.569C230.315 329.843 229.356 330.822 228.175 330.942C228.095 330.949 228.013 330.954 227.929 330.954C227.845 330.954 227.766 330.949 227.684 330.942H222.094V330.954H219.975V328.572H219.977V327.44H219.975V325.088H219.977V323.801H219.975V321.451H227.929C229.215 321.451 230.292 322.468 230.547 323.824C230.585 324.025 230.603 324.231 230.603 324.444C230.603 324.658 230.583 324.864 230.547 325.065C230.469 325.484 230.31 325.871 230.095 326.204C230.326 326.563 230.49 326.982 230.563 327.437ZM228.484 324.444C228.484 324.104 228.236 323.824 227.929 323.824H226.359V323.801H222.097V325.088H226.359V325.065H227.929C228.029 325.065 228.12 325.037 228.202 324.986C228.37 324.879 228.484 324.676 228.484 324.444ZM228.484 327.964C228.484 327.743 228.379 327.549 228.225 327.44H222.099V328.572H228.043C228.293 328.513 228.484 328.261 228.484 327.964Z" fill="#930043"/>
<defs>
<clipPath id="clip0_929_2502">
<rect width="20.072" height="29.3157" fill="white" transform="translate(167.088 284.068)"/>
</clipPath>
</defs>
</svg>
