<?xml version="1.0" encoding="UTF-8"?>
<svg xmlns="http://www.w3.org/2000/svg" width="25" height="25" viewBox="0 0 25 25" fill="none">
  <path d="M20.9932 13.7152C20.9216 11.5724 20.0887 9.52533 18.6439 7.94128C17.1992 6.35722 15.2371 5.33994 13.11 5.072C13.2436 4.87117 13.3203 4.63784 13.3318 4.39688C13.3433 4.15592 13.2892 3.91635 13.1753 3.7037C13.0614 3.49106 12.8919 3.3133 12.6849 3.18937C12.478 3.06545 12.2412 3 12 3C11.7588 3 11.522 3.06545 11.3151 3.18937C11.1081 3.3133 10.9386 3.49106 10.8247 3.7037C10.7108 3.91635 10.6567 4.15592 10.6682 4.39688C10.6797 4.63784 10.7564 4.87117 10.89 5.072C8.76286 5.33994 6.80084 6.35722 5.35607 7.94128C3.9113 9.52533 3.07838 11.5724 3.0068 13.7152C2.71277 13.7884 2.45263 13.96 2.26959 14.2015C2.08655 14.443 1.99163 14.7398 2.00058 15.0427C2.00953 15.3456 2.12183 15.6363 2.31881 15.8666C2.5158 16.0968 2.78562 16.2528 3.08347 16.3085L3.68346 18.1085C3.70642 18.1743 3.74918 18.2314 3.80587 18.272C3.86256 18.3126 3.93041 18.3346 4.00012 18.3351H5.3701C5.14751 18.5519 4.97059 18.811 4.84979 19.0973C4.72899 19.3835 4.66675 19.6911 4.66675 20.0018C4.66675 20.3125 4.72899 20.62 4.84979 20.9063C4.97059 21.1925 5.14751 21.4517 5.3701 21.6684H3.00014C2.91173 21.6684 2.82695 21.7035 2.76444 21.766C2.70193 21.8286 2.66681 21.9133 2.66681 22.0017C2.66681 22.0901 2.70193 22.1749 2.76444 22.2374C2.82695 22.3 2.91173 22.3351 3.00014 22.3351H7.00008C7.46377 22.3355 7.91704 22.1975 8.30196 21.939C8.68687 21.6804 8.98593 21.3129 9.16092 20.8835C9.3359 20.4541 9.37886 19.9823 9.28429 19.5283C9.18973 19.0744 8.96194 18.659 8.63005 18.3351H14.7033C14.4807 18.5519 14.3038 18.811 14.183 19.0973C14.0622 19.3835 13.9999 19.6911 13.9999 20.0018C13.9999 20.3125 14.0622 20.62 14.183 20.9063C14.3038 21.1925 14.4807 21.4517 14.7033 21.6684H12.3333C12.2449 21.6684 12.1601 21.7035 12.0976 21.766C12.0351 21.8286 12 21.9133 12 22.0017C12 22.0901 12.0351 22.1749 12.0976 22.2374C12.1601 22.3 12.2449 22.3351 12.3333 22.3351H16.3333C16.797 22.3355 17.2502 22.1975 17.6351 21.939C18.0201 21.6804 18.3191 21.3129 18.4941 20.8835C18.6691 20.4541 18.712 19.9823 18.6175 19.5283C18.5229 19.0744 18.2951 18.659 17.9632 18.3351H19.9999C20.0696 18.3346 20.1374 18.3126 20.1941 18.272C20.2508 18.2314 20.2936 18.1743 20.3165 18.1085L20.9165 16.3085C21.2144 16.2528 21.4842 16.0968 21.6812 15.8666C21.8782 15.6363 21.9905 15.3456 21.9994 15.0427C22.0084 14.7398 21.9134 14.443 21.7304 14.2015C21.5474 13.96 21.2872 13.7884 20.9932 13.7152ZM12 3.66869C12.1319 3.66869 12.2607 3.70779 12.3704 3.78104C12.48 3.8543 12.5655 3.95841 12.6159 4.08023C12.6664 4.20204 12.6796 4.33609 12.6538 4.4654C12.6281 4.59472 12.5646 4.71351 12.4714 4.80674C12.3782 4.89998 12.2594 4.96347 12.1301 4.98919C12.0007 5.01492 11.8667 5.00171 11.7449 4.95126C11.6231 4.9008 11.5189 4.81535 11.4457 4.70572C11.3724 4.59609 11.3333 4.4672 11.3333 4.33535C11.3339 4.1587 11.4043 3.98944 11.5292 3.86453C11.6541 3.73962 11.8234 3.66922 12 3.66869ZM12 5.66866C14.1515 5.67155 16.2188 6.50533 17.7703 7.99595C19.3218 9.48658 20.2376 11.5188 20.3265 13.6685H3.67346C3.76241 11.5188 4.67821 9.48658 6.2297 7.99595C7.78119 6.50533 9.84847 5.67155 12 5.66866ZM8.66672 20.0018C8.66672 20.3314 8.56897 20.6536 8.38584 20.9277C8.2027 21.2018 7.94241 21.4154 7.63787 21.5416C7.33333 21.6677 6.99823 21.7007 6.67493 21.6364C6.35163 21.5721 6.05467 21.4134 5.82158 21.1803C5.5885 20.9472 5.42977 20.6502 5.36546 20.3269C5.30115 20.0036 5.33416 19.6685 5.4603 19.364C5.58644 19.0594 5.80006 18.7991 6.07414 18.616C6.34822 18.4329 6.67044 18.3351 7.00008 18.3351C7.4421 18.3351 7.86601 18.5107 8.17857 18.8233C8.49112 19.1358 8.66672 19.5598 8.66672 20.0018ZM17.9999 20.0018C17.9999 20.3314 17.9022 20.6536 17.719 20.9277C17.5359 21.2018 17.2756 21.4154 16.9711 21.5416C16.6665 21.6677 16.3314 21.7007 16.0081 21.6364C15.6848 21.5721 15.3879 21.4134 15.1548 21.1803C14.9217 20.9472 14.763 20.6502 14.6986 20.3269C14.6343 20.0036 14.6673 19.6685 14.7935 19.364C14.9196 19.0594 15.1333 18.7991 15.4073 18.616C15.6814 18.4329 16.0036 18.3351 16.3333 18.3351C16.7753 18.3351 17.1992 18.5107 17.5118 18.8233C17.8243 19.1358 17.9999 19.5598 17.9999 20.0018ZM19.7599 17.6685H4.24012L3.79679 16.3352H20.2032L19.7599 17.6685ZM20.6665 15.6685H3.33346C3.15666 15.6685 2.98709 15.5983 2.86207 15.4732C2.73704 15.3482 2.66681 15.1787 2.66681 15.0019C2.66681 14.825 2.73704 14.6555 2.86207 14.5305C2.98709 14.4054 3.15666 14.3352 3.33346 14.3352H20.6665C20.8433 14.3352 21.0129 14.4054 21.1379 14.5305C21.263 14.6555 21.3332 14.825 21.3332 15.0019C21.3332 15.1787 21.263 15.3482 21.1379 15.4732C21.0129 15.5983 20.8433 15.6685 20.6665 15.6685Z" fill="black"></path>
  <path d="M16.332 21.0019C16.5298 21.0019 16.7231 20.9433 16.8876 20.8334C17.052 20.7235 17.1802 20.5673 17.2559 20.3846C17.3316 20.2019 17.3514 20.0008 17.3128 19.8069C17.2742 19.6129 17.179 19.4347 17.0391 19.2948C16.8993 19.155 16.7211 19.0598 16.5271 19.0212C16.3331 18.9826 16.1321 19.0024 15.9493 19.0781C15.7666 19.1538 15.6104 19.2819 15.5006 19.4464C15.3907 19.6108 15.332 19.8042 15.332 20.0019C15.332 20.2672 15.4374 20.5215 15.6249 20.709C15.8125 20.8966 16.0668 21.0019 16.332 21.0019ZM16.332 19.6686C16.3979 19.6686 16.4624 19.6882 16.5172 19.7248C16.572 19.7614 16.6147 19.8135 16.64 19.8744C16.6652 19.9353 16.6718 20.0023 16.6589 20.067C16.6461 20.1316 16.6143 20.191 16.5677 20.2376C16.5211 20.2843 16.4617 20.316 16.397 20.3289C16.3324 20.3417 16.2654 20.3351 16.2045 20.3099C16.1435 20.2847 16.0915 20.2419 16.0549 20.1871C16.0182 20.1323 15.9987 20.0679 15.9987 20.0019C15.9987 19.9135 16.0338 19.8288 16.0963 19.7662C16.1588 19.7037 16.2436 19.6686 16.332 19.6686Z" fill="black"></path>
  <path d="M6.99998 21.0019C7.19776 21.0019 7.3911 20.9433 7.55555 20.8334C7.71999 20.7235 7.84816 20.5673 7.92385 20.3846C7.99954 20.2019 8.01934 20.0008 7.98076 19.8069C7.94217 19.6129 7.84693 19.4347 7.70708 19.2948C7.56723 19.155 7.38905 19.0598 7.19507 19.0212C7.00109 18.9826 6.80003 19.0024 6.61731 19.0781C6.43458 19.1538 6.27841 19.2819 6.16853 19.4464C6.05865 19.6108 6 19.8042 6 20.0019C6 20.2672 6.10536 20.5215 6.29289 20.709C6.48042 20.8966 6.73477 21.0019 6.99998 21.0019ZM6.99998 19.6686C7.06591 19.6686 7.13036 19.6882 7.18517 19.7248C7.23999 19.7614 7.28271 19.8135 7.30794 19.8744C7.33317 19.9353 7.33977 20.0023 7.32691 20.067C7.31405 20.1316 7.2823 20.191 7.23568 20.2376C7.18907 20.2843 7.12967 20.316 7.06501 20.3289C7.00035 20.3417 6.93333 20.3351 6.87243 20.3099C6.81152 20.2847 6.75946 20.2419 6.72283 20.1871C6.68621 20.1323 6.66666 20.0679 6.66666 20.0019C6.66666 19.9135 6.70177 19.8288 6.76429 19.7662C6.8268 19.7037 6.91158 19.6686 6.99998 19.6686Z" fill="black"></path>
  <path d="M14.0907 6.62532C14.0481 6.61177 14.0033 6.60692 13.9588 6.61104C13.9143 6.61517 13.8712 6.62818 13.8318 6.64932C13.7925 6.67045 13.7578 6.69928 13.7298 6.73408C13.7018 6.76888 13.6811 6.80895 13.6689 6.8519C13.6567 6.89486 13.6533 6.93983 13.6588 6.98414C13.6643 7.02846 13.6787 7.07121 13.7011 7.10986C13.7234 7.14852 13.7533 7.18228 13.789 7.20916C13.8246 7.23603 13.8653 7.25547 13.9087 7.26631C15.1622 7.62731 16.2909 8.32909 17.1692 9.29352C18.0476 10.2579 18.641 11.4472 18.8836 12.7289C18.8977 12.8055 18.9382 12.8748 18.998 12.9246C19.0579 12.9745 19.1333 13.0018 19.2112 13.0019C19.2316 13.002 19.2519 13.0001 19.2719 12.9962C19.3587 12.98 19.4355 12.9301 19.4855 12.8574C19.5354 12.7846 19.5546 12.695 19.5386 12.6082C19.273 11.2045 18.6232 9.90206 17.6613 8.84577C16.6995 7.78948 15.4634 7.02081 14.0907 6.62532Z" fill="black"></path>
  <path d="M12.6983 6.36678C12.468 6.34612 12.2346 6.33545 12.0013 6.33545C11.9129 6.33545 11.8281 6.37057 11.7656 6.43308C11.7031 6.49559 11.668 6.58037 11.668 6.66878C11.668 6.75718 11.7031 6.84196 11.7656 6.90448C11.8281 6.96699 11.9129 7.00211 12.0013 7.00211C12.2146 7.00211 12.4286 7.01177 12.6376 7.03077C12.648 7.03077 12.6583 7.03077 12.6683 7.03077C12.7567 7.03475 12.8431 7.00345 12.9084 6.94375C12.9737 6.88405 13.0126 6.80085 13.0166 6.71244C13.0206 6.62404 12.9893 6.53768 12.9296 6.47235C12.8699 6.40703 12.7867 6.36809 12.6983 6.36412V6.36678Z" fill="black"></path>
  <path d="M2.33333 6.66861H5.66661C5.75502 6.66861 5.8398 6.63349 5.90231 6.57098C5.96482 6.50847 5.99994 6.42369 5.99994 6.33528C5.99994 6.24688 5.96482 6.16209 5.90231 6.09958C5.8398 6.03707 5.75502 6.00195 5.66661 6.00195H2.33333C2.24492 6.00195 2.16014 6.03707 2.09763 6.09958C2.03512 6.16209 2 6.24688 2 6.33528C2 6.42369 2.03512 6.50847 2.09763 6.57098C2.16014 6.63349 2.24492 6.66861 2.33333 6.66861Z" fill="black"></path>
  <path d="M3.66536 5.33536H7.6653C7.7537 5.33536 7.83849 5.30024 7.901 5.23773C7.96351 5.17522 7.99863 5.09043 7.99863 5.00203C7.99863 4.91363 7.96351 4.82884 7.901 4.76633C7.83849 4.70382 7.7537 4.6687 7.6653 4.6687H3.66536C3.57696 4.6687 3.49217 4.70382 3.42966 4.76633C3.36715 4.82884 3.33203 4.91363 3.33203 5.00203C3.33203 5.09043 3.36715 5.17522 3.42966 5.23773C3.49217 5.30024 3.57696 5.33536 3.66536 5.33536Z" fill="black"></path>
  <path d="M6.33333 4.00211H8.99995C9.08836 4.00211 9.17314 3.96699 9.23565 3.90448C9.29816 3.84196 9.33328 3.75718 9.33328 3.66878C9.33328 3.58037 9.29816 3.49559 9.23565 3.43308C9.17314 3.37057 9.08836 3.33545 8.99995 3.33545H6.33333C6.24492 3.33545 6.16014 3.37057 6.09763 3.43308C6.03512 3.49559 6 3.58037 6 3.66878C6 3.75718 6.03512 3.84196 6.09763 3.90448C6.16014 3.96699 6.24492 4.00211 6.33333 4.00211Z" fill="black"></path>
  <path d="M4.66536 4.00211H4.99869C5.08709 4.00211 5.17188 3.96699 5.23439 3.90448C5.2969 3.84196 5.33202 3.75718 5.33202 3.66878C5.33202 3.58037 5.2969 3.49559 5.23439 3.43308C5.17188 3.37057 5.08709 3.33545 4.99869 3.33545H4.66536C4.57696 3.33545 4.49217 3.37057 4.42966 3.43308C4.36715 3.49559 4.33203 3.58037 4.33203 3.66878C4.33203 3.75718 4.36715 3.84196 4.42966 3.90448C4.49217 3.96699 4.57696 4.00211 4.66536 4.00211Z" fill="black"></path>
</svg>
