<svg width="355" height="400" viewBox="0 0 355 400" fill="none" xmlns="http://www.w3.org/2000/svg">
<path d="M16.2604 81.782L162.256 5.02596C171.527 0.139784 182.957 0.139784 192.228 5.02596L338.223 81.782C347.495 86.6681 353.209 95.6729 353.209 105.427V294.434C353.209 304.187 347.495 313.192 338.223 318.078L192.228 394.834C182.957 399.72 171.527 399.72 162.256 394.834L16.2604 318.078C6.98925 313.192 1.27441 304.187 1.27441 294.434V105.427C1.27441 95.6542 6.98925 86.6494 16.2604 81.782Z" fill="white" stroke="#930043" stroke-width="2.23497" stroke-miterlimit="10"/>
<path d="M329.571 285.909C329.571 293.431 325.127 300.447 317.945 304.207L187.074 372.907C179.893 376.668 170.983 376.668 163.843 372.907L32.931 304.207C25.7496 300.447 21.3049 293.431 21.3049 285.909V269.252H14V285.909C14 295.788 19.8439 304.993 29.2682 309.932L160.18 378.651C164.872 381.121 170.16 382.356 175.448 382.356C180.716 382.356 185.984 381.121 190.696 378.651L321.608 309.932C331.032 304.993 336.876 295.788 336.876 285.909V269.252H329.592V285.909H329.571ZM321.608 89.9173L190.696 21.2171C181.292 16.2591 169.584 16.2778 160.18 21.2171L29.2888 89.9173C19.8645 94.8753 14.0206 104.08 14.0206 113.959V207.598H21.3255V113.959C21.3255 106.438 25.7701 99.4216 32.9516 95.6611L163.802 26.9608C170.983 23.2002 179.893 23.2002 187.033 26.9608L317.945 95.6611C325.127 99.4216 329.571 106.438 329.571 113.959V207.598H336.855V113.959C336.876 104.08 331.032 94.8753 321.608 89.9173Z" fill="#930043"/>
<path d="M101.623 122.677V104.604H105.193L107.754 118.441L110.316 104.604H113.886V122.677H111.304V108.416L108.722 122.677H106.786L104.204 108.416V122.677H101.623ZM122.779 122.858C121.872 122.858 121.092 122.72 120.44 122.445C119.794 122.169 119.28 121.765 118.897 121.234C118.513 120.703 118.234 120.081 118.06 119.369C117.885 118.649 117.797 117.816 117.797 116.868V110.312C117.797 109.364 117.885 108.537 118.06 107.831C118.234 107.125 118.513 106.514 118.897 105.996C119.28 105.471 119.794 105.078 120.44 104.816C121.092 104.554 121.872 104.423 122.779 104.423C124.541 104.423 125.812 104.927 126.591 105.935C127.371 106.944 127.761 108.403 127.761 110.312V116.868C127.761 117.802 127.671 118.629 127.489 119.348C127.314 120.061 127.035 120.686 126.652 121.224C126.269 121.755 125.751 122.162 125.099 122.445C124.453 122.72 123.68 122.858 122.779 122.858ZM120.893 119.923C121.243 120.468 121.872 120.74 122.779 120.74C123.687 120.74 124.312 120.468 124.655 119.923C125.005 119.379 125.18 118.575 125.18 117.513V109.667C125.18 108.618 125.008 107.835 124.665 107.317C124.322 106.799 123.694 106.54 122.779 106.54C121.865 106.54 121.236 106.799 120.893 107.317C120.551 107.835 120.379 108.618 120.379 109.667V117.513C120.379 118.575 120.551 119.379 120.893 119.923ZM136.382 122.858C134.755 122.858 133.512 122.381 132.651 121.426C131.797 120.471 131.32 119.167 131.219 117.513L133.801 116.868C133.928 119.449 134.789 120.74 136.382 120.74C137.673 120.74 138.319 120.095 138.319 118.804C138.319 118.421 138.265 118.068 138.157 117.745C138.057 117.415 137.899 117.116 137.683 116.847C137.468 116.572 137.273 116.353 137.098 116.192C136.924 116.024 136.685 115.819 136.382 115.577L133.155 112.995C132.564 112.531 132.09 111.943 131.733 111.23C131.384 110.511 131.209 109.694 131.209 108.779C131.209 107.448 131.622 106.389 132.449 105.603C133.276 104.816 134.372 104.423 135.737 104.423C137.203 104.423 138.366 104.782 139.226 105.502C140.094 106.214 140.628 107.226 140.83 108.537C140.85 108.679 140.874 108.873 140.9 109.122L138.319 109.768C138.312 109.653 138.295 109.482 138.268 109.253C138.154 108.433 137.895 107.778 137.492 107.287C137.095 106.789 136.51 106.54 135.737 106.54C135.118 106.54 134.641 106.715 134.305 107.065C133.969 107.408 133.801 107.889 133.801 108.507C133.801 109.522 134.231 110.373 135.092 111.059L138.319 113.64C140.04 115.032 140.9 116.696 140.9 118.632C140.9 119.957 140.49 120.992 139.67 121.739C138.857 122.485 137.761 122.858 136.382 122.858ZM146.365 122.677V106.904H143.138V104.604H152.174V106.904H148.947V122.677H146.365ZM163.537 112.349H164.182C165.258 112.349 166.065 112.124 166.602 111.674C167.14 111.217 167.409 110.474 167.409 109.445C167.409 108.416 167.14 107.677 166.602 107.226C166.065 106.769 165.258 106.54 164.182 106.54H163.537V112.349ZM160.955 122.677V104.604H164.182C166.105 104.604 167.554 104.977 168.529 105.724C169.504 106.47 169.991 107.71 169.991 109.445C169.991 110.521 169.799 111.422 169.416 112.148C169.033 112.874 168.471 113.371 167.732 113.64L170.636 122.677H168.075L165.473 114.286H163.537V122.677H160.955ZM173.781 122.677V104.604H180.881V106.54H176.363V112.349H179.59V114.286H176.363V120.74H180.881V122.677H173.781ZM186.83 122.677L182.957 104.604H185.539L187.445 114.286L188.111 118.804L188.796 114.286L190.702 104.604H193.284L189.411 122.677H186.83ZM196.469 122.677V104.604H199.051V122.677H196.469ZM203.467 122.677V104.604H210.567V106.54H206.049V112.349H209.276V114.286H206.049V120.74H210.567V122.677H203.467ZM215.86 122.677L212.632 104.604H215.214L216.505 112.995L217.161 118.158L217.796 112.995L219.087 104.604H221.669L222.959 112.995L223.595 118.158L224.25 112.995L225.541 104.604H228.123L224.896 122.677H222.314L221.023 114.286L220.378 109.122L219.732 114.286L218.441 122.677H215.86ZM231.177 122.677V104.604H238.277V106.54H233.759V112.349H236.986V114.286H233.759V120.74H238.277V122.677H231.177ZM241.523 122.677V104.604H245.527C247.416 104.604 248.747 104.991 249.52 105.764C250.3 106.537 250.69 107.872 250.69 109.768V116.868C250.69 118.851 250.293 120.317 249.5 121.265C248.713 122.206 247.382 122.677 245.506 122.677H241.523ZM244.105 120.74H245.527C245.95 120.74 246.313 120.703 246.616 120.629C246.918 120.549 247.164 120.407 247.352 120.206C247.54 119.997 247.688 119.802 247.796 119.621C247.903 119.432 247.977 119.143 248.018 118.753C248.065 118.363 248.091 118.044 248.098 117.795C248.105 117.54 248.108 117.147 248.108 116.615C248.108 116.441 248.108 116.31 248.108 116.222V110.413C248.108 110.084 248.105 109.821 248.098 109.626C248.098 109.432 248.088 109.203 248.068 108.941C248.055 108.672 248.031 108.46 247.997 108.305C247.964 108.151 247.917 107.979 247.856 107.791C247.796 107.596 247.718 107.445 247.624 107.337C247.537 107.23 247.426 107.119 247.291 107.004C247.164 106.883 247.012 106.796 246.838 106.742C246.67 106.682 246.471 106.635 246.243 106.601C246.014 106.561 245.758 106.54 245.476 106.54H244.105V120.74Z" fill="#930043"/>
<path d="M62.9746 168V147.898H71.2386V150.43H66.6475V156.286H70.3949V158.843H66.6475V168H62.9746ZM73.2261 168V147.898H78.0406C79.3973 147.898 80.5389 148.064 81.4654 148.395C82.4084 148.709 83.1198 149.255 83.5996 150.033C84.096 150.81 84.3441 151.869 84.3441 153.209C84.3441 154.02 84.2697 154.748 84.1208 155.393C83.9719 156.038 83.7154 156.592 83.3514 157.056C83.004 157.502 82.5159 157.85 81.8872 158.098L84.6916 168H81.0187L78.5866 158.793H76.899V168H73.2261ZM76.899 156.485H78.0406C78.752 156.485 79.3146 156.386 79.7282 156.187C80.1583 155.972 80.4644 155.641 80.6464 155.194C80.8284 154.731 80.9194 154.144 80.9194 153.432C80.9194 152.423 80.7291 151.67 80.3486 151.174C79.9846 150.661 79.2815 150.405 78.2392 150.405H76.899V156.485ZM92.5 168.273C91.0771 168.273 89.9438 168.008 89.1001 167.479C88.2563 166.949 87.6524 166.188 87.2884 165.196C86.9244 164.203 86.7425 163.028 86.7425 161.672V154.152C86.7425 152.795 86.9244 151.637 87.2884 150.678C87.6524 149.702 88.2563 148.957 89.1001 148.444C89.9438 147.931 91.0771 147.675 92.5 147.675C93.9559 147.675 95.0975 147.931 95.9247 148.444C96.7685 148.957 97.3724 149.702 97.7364 150.678C98.1169 151.637 98.3072 152.795 98.3072 154.152V161.696C98.3072 163.037 98.1169 164.203 97.7364 165.196C97.3724 166.172 96.7685 166.933 95.9247 167.479C95.0975 168.008 93.9559 168.273 92.5 168.273ZM92.5 165.568C93.1121 165.568 93.5588 165.436 93.8401 165.171C94.1379 164.906 94.3364 164.542 94.4357 164.079C94.535 163.616 94.5846 163.111 94.5846 162.565V153.308C94.5846 152.746 94.535 152.241 94.4357 151.795C94.3364 151.348 94.1379 151 93.8401 150.752C93.5588 150.488 93.1121 150.355 92.5 150.355C91.9209 150.355 91.4825 150.488 91.1847 150.752C90.8869 151 90.6883 151.348 90.5891 151.795C90.4898 152.241 90.4402 152.746 90.4402 153.308V162.565C90.4402 163.111 90.4815 163.616 90.5643 164.079C90.6635 164.542 90.8621 164.906 91.1599 165.171C91.4577 165.436 91.9044 165.568 92.5 165.568ZM101.024 168V147.898H103.58L108.469 159.364V147.898H111.497V168H109.065L104.151 155.989V168H101.024ZM116.558 168V150.603H113.356V147.898H123.382V150.603H120.23V168H116.558ZM125.211 168V147.898H133.649V150.479H128.884V156.262H132.631V158.818H128.884V165.469H133.698V168H125.211ZM135.826 168V147.898H138.382L143.271 159.364V147.898H146.299V168H143.867L138.953 155.989V168H135.826ZM149.349 168V147.898H154.089C155.727 147.898 157.001 148.122 157.911 148.568C158.838 149.015 159.491 149.702 159.872 150.628C160.269 151.555 160.467 152.729 160.467 154.152V161.498C160.467 162.954 160.269 164.17 159.872 165.146C159.491 166.106 158.846 166.825 157.936 167.305C157.042 167.768 155.81 168 154.238 168H149.349ZM153.022 165.444H154.139C154.983 165.444 155.587 165.295 155.951 164.997C156.315 164.699 156.538 164.269 156.621 163.707C156.703 163.128 156.745 162.424 156.745 161.597V153.904C156.745 153.093 156.687 152.44 156.571 151.943C156.455 151.447 156.215 151.083 155.851 150.851C155.487 150.62 154.9 150.504 154.089 150.504H153.022V165.444ZM169.198 168V147.898H173.938C175.576 147.898 176.85 148.122 177.76 148.568C178.686 149.015 179.34 149.702 179.72 150.628C180.117 151.555 180.316 152.729 180.316 154.152V161.498C180.316 162.954 180.117 164.17 179.72 165.146C179.34 166.106 178.695 166.825 177.785 167.305C176.891 167.768 175.659 168 174.087 168H169.198ZM172.871 165.444H173.988C174.831 165.444 175.435 165.295 175.799 164.997C176.163 164.699 176.387 164.269 176.469 163.707C176.552 163.128 176.593 162.424 176.593 161.597V153.904C176.593 153.093 176.535 152.44 176.42 151.943C176.304 151.447 176.064 151.083 175.7 150.851C175.336 150.62 174.749 150.504 173.938 150.504H172.871V165.444ZM183.012 168V147.898H191.45V150.479H186.685V156.262H190.432V158.818H186.685V165.469H191.499V168H183.012ZM196.704 168L192.659 147.898H195.91L198.566 162.118L201.047 147.898H204.373L200.328 168H196.704ZM206.423 168V147.898H214.861V150.479H210.096V156.262H213.844V158.818H210.096V165.469H214.911V168H206.423ZM217.038 168V147.898H220.711V165.469H225.575V168H217.038ZM232.701 168.273C231.278 168.273 230.145 168.008 229.301 167.479C228.458 166.949 227.854 166.188 227.49 165.196C227.126 164.203 226.944 163.028 226.944 161.672V154.152C226.944 152.795 227.126 151.637 227.49 150.678C227.854 149.702 228.458 148.957 229.301 148.444C230.145 147.931 231.278 147.675 232.701 147.675C234.157 147.675 235.299 147.931 236.126 148.444C236.97 148.957 237.574 149.702 237.938 150.678C238.318 151.637 238.508 152.795 238.508 154.152V161.696C238.508 163.037 238.318 164.203 237.938 165.196C237.574 166.172 236.97 166.933 236.126 167.479C235.299 168.008 234.157 168.273 232.701 168.273ZM232.701 165.568C233.313 165.568 233.76 165.436 234.041 165.171C234.339 164.906 234.538 164.542 234.637 164.079C234.736 163.616 234.786 163.111 234.786 162.565V153.308C234.786 152.746 234.736 152.241 234.637 151.795C234.538 151.348 234.339 151 234.041 150.752C233.76 150.488 233.313 150.355 232.701 150.355C232.122 150.355 231.684 150.488 231.386 150.752C231.088 151 230.89 151.348 230.79 151.795C230.691 152.241 230.641 152.746 230.641 153.308V162.565C230.641 163.111 230.683 163.616 230.766 164.079C230.865 164.542 231.063 164.906 231.361 165.171C231.659 165.436 232.106 165.568 232.701 165.568ZM241.225 168V147.898H247.132C248.339 147.898 249.316 148.122 250.06 148.568C250.821 149.015 251.375 149.669 251.723 150.529C252.087 151.373 252.269 152.398 252.269 153.606C252.269 154.913 252.045 155.972 251.599 156.783C251.152 157.577 250.523 158.156 249.713 158.52C248.919 158.884 247.976 159.066 246.884 159.066H244.898V168H241.225ZM244.898 156.485H246.288C246.95 156.485 247.463 156.394 247.827 156.212C248.207 156.013 248.464 155.707 248.596 155.294C248.745 154.864 248.819 154.293 248.819 153.581C248.819 152.853 248.761 152.266 248.646 151.819C248.546 151.356 248.315 151.017 247.951 150.802C247.603 150.587 247.049 150.479 246.288 150.479H244.898V156.485ZM254.312 168V147.898H262.75V150.479H257.985V156.262H261.733V158.818H257.985V165.469H262.8V168H254.312ZM264.927 168V147.898H269.742C271.099 147.898 272.24 148.064 273.167 148.395C274.11 148.709 274.821 149.255 275.301 150.033C275.797 150.81 276.045 151.869 276.045 153.209C276.045 154.02 275.971 154.748 275.822 155.393C275.673 156.038 275.417 156.592 275.053 157.056C274.705 157.502 274.217 157.85 273.589 158.098L276.393 168H272.72L270.288 158.793H268.6V168H264.927ZM268.6 156.485H269.742C270.453 156.485 271.016 156.386 271.429 156.187C271.86 155.972 272.166 155.641 272.348 155.194C272.53 154.731 272.621 154.144 272.621 153.432C272.621 152.423 272.43 151.67 272.05 151.174C271.686 150.661 270.983 150.405 269.94 150.405H268.6V156.485ZM283.853 168.273C282.645 168.273 281.636 168.041 280.825 167.578C280.014 167.098 279.402 166.403 278.989 165.493C278.575 164.584 278.343 163.467 278.294 162.143L281.445 161.523C281.478 162.3 281.569 162.987 281.718 163.583C281.884 164.178 282.124 164.641 282.438 164.972C282.769 165.287 283.199 165.444 283.729 165.444C284.324 165.444 284.746 165.27 284.994 164.923C285.242 164.559 285.366 164.104 285.366 163.558C285.366 162.681 285.168 161.961 284.771 161.399C284.374 160.836 283.844 160.274 283.183 159.711L280.651 157.478C279.94 156.865 279.369 156.187 278.939 155.443C278.525 154.682 278.318 153.747 278.318 152.638C278.318 151.05 278.782 149.826 279.708 148.965C280.635 148.105 281.9 147.675 283.505 147.675C284.448 147.675 285.234 147.824 285.863 148.122C286.492 148.403 286.988 148.8 287.352 149.313C287.732 149.826 288.014 150.413 288.196 151.075C288.378 151.72 288.493 152.407 288.543 153.135L285.416 153.681C285.383 153.052 285.309 152.489 285.193 151.993C285.093 151.497 284.903 151.108 284.622 150.827C284.357 150.545 283.96 150.405 283.431 150.405C282.885 150.405 282.463 150.587 282.165 150.951C281.884 151.298 281.743 151.737 281.743 152.266C281.743 152.944 281.884 153.507 282.165 153.954C282.446 154.384 282.852 154.83 283.381 155.294L285.888 157.502C286.715 158.197 287.418 159.016 287.997 159.959C288.593 160.886 288.89 162.011 288.89 163.334C288.89 164.294 288.675 165.146 288.245 165.891C287.832 166.635 287.244 167.222 286.483 167.653C285.739 168.066 284.862 168.273 283.853 168.273Z" fill="black"/>
<rect x="1.27441" y="215.85" width="351.935" height="44.37" fill="#930043"/>
<circle cx="177.745" cy="235.007" r="37.3111" fill="white"/>
<path d="M69.9464 223.513L74.3398 232.413L84.1643 233.849L77.0554 240.773L78.7331 250.555L69.9464 245.935L61.1598 250.555L62.8375 240.773L55.7285 233.849L65.5531 232.413L69.9464 223.513Z" fill="white"/>
<path d="M111.051 223.513L115.444 232.413L125.269 233.849L118.16 240.773L119.838 250.555L111.051 245.935L102.264 250.555L103.942 240.773L96.833 233.849L106.658 232.413L111.051 223.513Z" fill="white"/>
<path d="M178.951 213.827L186.491 229.101L203.352 231.566L191.151 243.449L194.031 260.236L178.951 252.306L163.872 260.236L166.751 243.449L154.551 231.566L171.411 229.101L178.951 213.827Z" fill="#930043"/>
<path d="M240.725 223.513L245.118 232.413L254.943 233.849L247.834 240.773L249.511 250.555L240.725 245.935L231.938 250.555L233.616 240.773L226.507 233.849L236.331 232.413L240.725 223.513Z" fill="white"/>
<path d="M281.829 223.513L286.223 232.413L296.047 233.849L288.938 240.773L290.616 250.555L281.829 245.935L273.043 250.555L274.72 240.773L267.611 233.849L277.436 232.413L281.829 223.513Z" fill="white"/>
<g clip-path="url(#clip0_929_2767)">
<path d="M185.685 289.985V294.739H181.195V283.91H179.61V294.739H174.856V283.91H173.272V300.813H168.782V289.985H167.197V307.152H168.782V302.398H179.61V313.226H181.195V296.323H185.685V307.152H187.269V289.985H185.685ZM179.61 300.813H174.856V296.323H179.61V300.813Z" fill="#930043"/>
<path d="M174.855 303.192H173.271V313.228H174.855V303.192Z" fill="#930043"/>
</g>
<path d="M134.355 321.307V330.8H132.235V327.24H125.873V330.8H123.753V321.307H125.873V324.867H132.235V321.307H134.355Z" fill="black"/>
<path d="M136.164 330.802V321.294H138.805V330.802H136.164Z" fill="black"/>
<path d="M150.95 323.68H146.71V330.8H144.591V323.68H140.349V321.307H150.95V323.68Z" fill="black"/>
<path d="M162.993 321.307V323.68H154.511V323.682H152.392V321.307H162.993ZM162.993 325.068V327.003H154.511V327.008H152.392V325.068H162.993ZM162.993 328.427V330.8H152.392V328.427H162.993Z" fill="black"/>
<path d="M175.414 324.382V325.46H173.295V324.593C173.295 324.089 172.929 323.68 172.479 323.68H164.813V321.307H172.667C172.883 321.307 173.092 321.335 173.295 321.389C174.308 321.653 175.105 322.546 175.344 323.682C175.389 323.906 175.414 324.14 175.414 324.382ZM167.748 328.427H175.414V330.8H167.56C167.462 330.8 167.367 330.795 167.273 330.782C167.158 330.769 167.044 330.747 166.933 330.719C165.919 330.454 165.122 329.562 164.883 328.425C164.865 328.341 164.851 328.257 164.84 328.173C164.822 328.026 164.811 327.876 164.811 327.723V324.966H166.93V327.512C166.933 328.018 167.298 328.427 167.748 328.427Z" fill="black"/>
<path d="M187.721 321.307V330.8H185.601V327.24H179.239V330.8H177.119V321.307H179.239V324.867H185.601V321.307H187.721Z" fill="black"/>
<path d="M205.741 321.307V330.8H203.621V327.24H197.26V330.8H195.14V321.307H197.26V324.867H203.621V321.307H205.741Z" fill="#930043"/>
<path d="M218.174 321.307V330.8H216.111V329.783L215.286 330.8H210.004C208.754 330.655 207.752 329.572 207.57 328.191V321.307H209.69V327.514C209.69 328.018 210.056 328.427 210.506 328.427H216.047L216.052 321.307H218.174Z" fill="#930043"/>
<path d="M230.674 327.28C230.701 327.45 230.715 327.626 230.715 327.804C230.715 328.012 230.697 328.216 230.66 328.411C230.426 329.685 229.467 330.664 228.286 330.784C228.206 330.792 228.125 330.797 228.041 330.797C227.956 330.797 227.877 330.792 227.795 330.784H222.206V330.797H220.086V328.414H220.088V327.282H220.086V324.93H220.088V323.643H220.086V321.294H228.041C229.327 321.294 230.404 322.311 230.658 323.666C230.697 323.867 230.715 324.073 230.715 324.287C230.715 324.5 230.694 324.706 230.658 324.907C230.581 325.327 230.422 325.713 230.206 326.046C230.438 326.405 230.601 326.825 230.674 327.28ZM228.595 324.287C228.595 323.946 228.347 323.666 228.041 323.666H226.471V323.643H222.208V324.93H226.471V324.907H228.041C228.141 324.907 228.231 324.879 228.313 324.828C228.481 324.722 228.595 324.518 228.595 324.287ZM228.595 327.806C228.595 327.585 228.49 327.392 228.336 327.282H222.21V328.414H228.154C228.404 328.355 228.595 328.104 228.595 327.806Z" fill="#930043"/>
<defs>
<clipPath id="clip0_929_2767">
<rect width="20.072" height="29.3157" fill="white" transform="translate(167.198 283.911)"/>
</clipPath>
</defs>
</svg>
