<?xml version="1.0" encoding="UTF-8"?>
<svg xmlns="http://www.w3.org/2000/svg" width="25" height="25" viewBox="0 0 25 25" fill="none">
  <path d="M24.5722 12.1198H22.4572C23.3365 10.1236 23.2414 8.50767 22.9087 7.41452C22.3384 5.46585 20.4135 3.35083 17.5618 3.35083C16.8013 3.35083 16.0409 3.49342 15.2567 3.77859C13.9021 4.27764 12.999 4.82421 12.5951 5.10939C12.1911 4.82421 11.3118 4.27764 9.93346 3.77859C9.14924 3.49342 8.36502 3.35083 7.62833 3.35083C4.77662 3.35083 2.85171 5.46585 2.28137 7.41452C1.94867 8.57897 1.82985 10.3375 2.94677 12.5476H0.380228C0.16635 12.5476 0 12.7139 0 12.9278C0 13.1417 0.16635 13.3081 0.380228 13.3081H3.39829C3.51711 13.5219 3.6597 13.7358 3.82605 13.9497C6.29753 17.5143 11.6683 21.3879 12.6426 21.6255V21.6493C12.6426 21.6493 12.6664 21.6493 12.6901 21.6255C12.7139 21.6255 12.7376 21.6255 12.7614 21.6255V21.6018C13.5932 21.1978 18.75 17.8708 21.4591 13.9259C21.7205 13.5695 21.9344 13.213 22.1245 12.8565H24.6198C24.8336 12.8565 25 12.6902 25 12.4763C25 12.2624 24.7861 12.1198 24.5722 12.1198ZM20.77 13.5219C18.251 17.2054 13.6169 20.1759 12.6188 20.8176C11.597 20.1759 6.98669 17.1816 4.44392 13.5219C4.39639 13.4506 4.34886 13.3793 4.30133 13.3081H7.79468C7.93726 13.3081 8.07985 13.2368 8.15114 13.0942L9.74335 9.95729L12.2386 16.3499C12.2861 16.4925 12.4525 16.5875 12.5951 16.5875C12.5951 16.5875 12.5951 16.5875 12.6188 16.5875C12.7852 16.5875 12.9278 16.4687 12.9753 16.3024L15.1616 8.81661L16.326 12.5951C16.3736 12.7377 16.4924 12.8328 16.635 12.8565C16.7776 12.8803 16.9202 12.809 17.0152 12.6902L17.942 11.3356L18.7262 12.6664C18.7975 12.7852 18.9163 12.8565 19.0589 12.8565H21.1977C21.0551 13.0942 20.9125 13.3081 20.77 13.5219ZM21.6255 12.1198H19.2966L18.3222 10.4563C18.251 10.3375 18.1321 10.2662 17.9895 10.2662C17.847 10.2662 17.7281 10.3138 17.6568 10.4326L16.8489 11.6208L15.5418 7.36699C15.4943 7.20064 15.3279 7.10558 15.1616 7.08182C14.9952 7.08182 14.8289 7.20064 14.7814 7.36699L12.5713 14.9953L10.1711 8.86414C10.1236 8.72155 9.98099 8.6265 9.8384 8.6265C9.67205 8.6265 9.55323 8.69779 9.48194 8.84037L7.60456 12.5238H3.82605C2.87548 10.789 2.61407 9.12554 3.04183 7.6284C3.54087 5.94113 5.18061 4.13505 7.65209 4.13505C8.31749 4.13505 9.00665 4.27764 9.69582 4.51528C11.4306 5.15691 12.3574 5.89361 12.3812 5.89361C12.5238 6.01243 12.7139 6.01243 12.8565 5.89361C12.8565 5.89361 13.7833 5.15691 15.5418 4.51528C16.231 4.25387 16.9202 4.13505 17.5856 4.13505C20.0333 4.13505 21.6968 5.94113 22.1958 7.6284C22.5998 9.00672 22.3859 10.5276 21.6255 12.1198Z" fill="black"></path>
</svg>
