<?xml version="1.0" encoding="UTF-8"?>
<svg xmlns="http://www.w3.org/2000/svg" width="25" height="25" viewBox="0 0 25 25" fill="none">
  <path d="M12 3C6.48193 3 2 7.48193 2 13C2 18.5181 6.48193 23 12 23C17.5181 23 22 18.5181 22 13C22 7.48193 17.5181 3 12 3ZM12 22.1325C6.96386 22.1325 2.86747 18.0361 2.86747 13C2.86747 7.96386 6.96386 3.86747 12 3.86747C17.0361 3.86747 21.1325 7.96386 21.1325 13C21.1325 18.0361 17.0361 22.1325 12 22.1325Z" fill="black"></path>
  <path d="M17.2027 10.8312H14.1666V7.79506C14.1666 7.5541 13.9738 7.36133 13.7329 7.36133H10.263C10.022 7.36133 9.82925 7.5541 9.82925 7.79506V10.8312H6.79311C6.55215 10.8312 6.35938 11.024 6.35938 11.2649V14.7348C6.35938 14.9758 6.55215 15.1686 6.79311 15.1686H9.82925V18.2047C9.82925 18.4457 10.022 18.6384 10.263 18.6384H13.7329C13.9738 18.6384 14.1666 18.4457 14.1666 18.2047V15.1686H17.2027C17.4437 15.1686 17.6365 14.9758 17.6365 14.7348V11.2649C17.6124 11.024 17.4196 10.8312 17.2027 10.8312ZM16.7931 14.3011H16.769H13.7329C13.4919 14.3011 13.2991 14.4939 13.2991 14.7348V17.771H10.6967V14.7348C10.6967 14.4939 10.504 14.3011 10.263 14.3011H7.22684V11.6987H10.263C10.504 11.6987 10.6967 11.5059 10.6967 11.2649V8.2288H13.3232V11.2649C13.3232 11.5059 13.516 11.6987 13.757 11.6987H16.7931V14.3011Z" fill="black"></path>
</svg>
