<svg width="356" height="400" viewBox="0 0 356 400" fill="none" xmlns="http://www.w3.org/2000/svg">
<path d="M16.986 81.9397L162.981 5.18367C172.253 0.297499 183.682 0.297499 192.953 5.18367L338.949 81.9397C348.22 86.8259 353.935 95.8306 353.935 105.584V294.591C353.935 304.345 348.22 313.35 338.949 318.236L192.953 394.992C183.682 399.878 172.253 399.878 162.981 394.992L16.986 318.236C7.71483 313.35 2 304.345 2 294.591V105.584C2 95.8119 7.71483 86.8071 16.986 81.9397Z" fill="white" stroke="#930043" stroke-width="2.23497" stroke-miterlimit="10"/>
<path d="M330.487 286.067C330.487 293.588 326.043 300.604 318.861 304.365L187.99 373.065C180.809 376.826 171.899 376.826 164.759 373.065L33.847 304.365C26.6656 300.604 22.2209 293.588 22.2209 286.067V269.409H14.916V286.067C14.916 295.946 20.7599 305.151 30.1843 310.09L161.096 378.809C165.788 381.279 171.076 382.513 176.364 382.513C181.632 382.513 186.9 381.279 191.612 378.809L322.524 310.09C331.948 305.151 337.792 295.946 337.792 286.067V269.409H330.508V286.067H330.487ZM322.524 90.0751L191.612 21.3748C182.208 16.4169 170.5 16.4356 161.096 21.3748L30.2048 90.0751C20.7805 95.0331 14.9366 104.238 14.9366 114.116V207.756H22.2415V114.116C22.2415 106.595 26.6861 99.5794 33.8676 95.8188L164.718 27.1186C171.899 23.358 180.809 23.358 187.949 27.1186L318.861 95.8188C326.043 99.5794 330.487 106.595 330.487 114.116V207.756H337.772V114.116C337.792 104.238 331.948 95.0331 322.524 90.0751Z" fill="#930043"/>
<path d="M104.107 95.8343V77.7619H107.677L110.239 91.5986L112.8 77.7619H116.37V95.8343H113.789V81.5741L111.207 95.8343H109.27L106.689 81.5741V95.8343H104.107ZM125.264 96.0158C124.356 96.0158 123.576 95.878 122.924 95.6023C122.279 95.3267 121.764 94.9233 121.381 94.3921C120.998 93.861 120.719 93.2391 120.544 92.5264C120.369 91.807 120.282 90.9733 120.282 90.0253V83.4701C120.282 82.5221 120.369 81.6951 120.544 80.9891C120.719 80.2832 120.998 79.6714 121.381 79.1537C121.764 78.6292 122.279 78.2359 122.924 77.9737C123.576 77.7115 124.356 77.5804 125.264 77.5804C127.025 77.5804 128.296 78.0846 129.076 79.0932C129.856 80.1017 130.246 81.5606 130.246 83.4701V90.0253C130.246 90.9599 130.155 91.7868 129.973 92.5062C129.799 93.2189 129.52 93.8442 129.136 94.382C128.753 94.9132 128.235 95.32 127.583 95.6023C126.938 95.878 126.165 96.0158 125.264 96.0158ZM123.378 93.0811C123.727 93.6257 124.356 93.898 125.264 93.898C126.171 93.898 126.797 93.6257 127.14 93.0811C127.489 92.5365 127.664 91.733 127.664 90.6708V82.8246C127.664 81.7758 127.492 80.9925 127.15 80.4748C126.807 79.9571 126.178 79.6983 125.264 79.6983C124.349 79.6983 123.721 79.9571 123.378 80.4748C123.035 80.9925 122.863 81.7758 122.863 82.8246V90.6708C122.863 91.733 123.035 92.5365 123.378 93.0811ZM138.867 96.0158C137.24 96.0158 135.996 95.5385 135.135 94.5837C134.281 93.629 133.804 92.3247 133.703 90.6708L136.285 90.0253C136.413 92.6071 137.273 93.898 138.867 93.898C140.158 93.898 140.803 93.2525 140.803 91.9616C140.803 91.5784 140.749 91.2254 140.642 90.9027C140.541 90.5733 140.383 90.2741 140.168 90.0051C139.953 89.7295 139.758 89.511 139.583 89.3496C139.408 89.1815 139.169 88.9765 138.867 88.7344L135.64 86.1527C135.048 85.6888 134.574 85.1005 134.218 84.3878C133.868 83.6684 133.693 82.8515 133.693 81.9371C133.693 80.6059 134.107 79.547 134.934 78.7603C135.761 77.9737 136.856 77.5804 138.221 77.5804C139.687 77.5804 140.85 77.9401 141.711 78.6595C142.578 79.3722 143.113 80.384 143.314 81.6951C143.334 81.8363 143.358 82.0313 143.385 82.28L140.803 82.9255C140.796 82.8112 140.78 82.6397 140.753 82.4111C140.638 81.5909 140.38 80.9353 139.976 80.4445C139.579 79.947 138.995 79.6983 138.221 79.6983C137.603 79.6983 137.125 79.8731 136.789 80.2227C136.453 80.5656 136.285 81.0463 136.285 81.6648C136.285 82.6801 136.715 83.5306 137.576 84.2163L140.803 86.7981C142.524 88.1898 143.385 89.8539 143.385 91.7902C143.385 93.1147 142.975 94.1501 142.154 94.8964C141.341 95.6427 140.245 96.0158 138.867 96.0158ZM148.849 95.8343V80.0613H145.622V77.7619H154.658V80.0613H151.431V95.8343H148.849ZM166.021 85.5072H166.666C167.742 85.5072 168.549 85.282 169.087 84.8315C169.625 84.3743 169.894 83.6314 169.894 82.6027C169.894 81.5741 169.625 80.8345 169.087 80.384C168.549 79.9268 167.742 79.6983 166.666 79.6983H166.021V85.5072ZM163.439 95.8343V77.7619H166.666C168.589 77.7619 170.038 78.1351 171.013 78.8814C171.988 79.6277 172.475 80.8681 172.475 82.6027C172.475 83.6785 172.284 84.5794 171.9 85.3055C171.517 86.0316 170.956 86.5292 170.216 86.7981L173.121 95.8343H170.559L167.957 87.4436H166.021V95.8343H163.439ZM176.266 95.8343V77.7619H183.366V79.6983H178.847V85.5072H182.075V87.4436H178.847V93.898H183.366V95.8343H176.266ZM189.314 95.8343L185.441 77.7619H188.023L189.929 87.4436L190.595 91.9616L191.281 87.4436L193.187 77.7619H195.768L191.896 95.8343H189.314ZM198.954 95.8343V77.7619H201.536V95.8343H198.954ZM205.951 95.8343V77.7619H213.051V79.6983H208.533V85.5072H211.76V87.4436H208.533V93.898H213.051V95.8343H205.951ZM218.344 95.8343L215.117 77.7619H217.699L218.989 86.1527L219.645 91.3162L220.28 86.1527L221.571 77.7619H224.153L225.444 86.1527L226.079 91.3162L226.735 86.1527L228.026 77.7619H230.607L227.38 95.8343H224.798L223.508 87.4436L222.862 82.28L222.217 87.4436L220.926 95.8343H218.344ZM233.662 95.8343V77.7619H240.761V79.6983H236.243V85.5072H239.471V87.4436H236.243V93.898H240.761V95.8343H233.662ZM244.007 95.8343V77.7619H248.011C249.9 77.7619 251.231 78.1485 252.005 78.9217C252.784 79.6949 253.174 81.0295 253.174 82.9255V90.0253C253.174 92.0087 252.778 93.4744 251.984 94.4224C251.198 95.3637 249.867 95.8343 247.991 95.8343H244.007ZM246.589 93.898H248.011C248.434 93.898 248.798 93.861 249.1 93.787C249.403 93.7063 249.648 93.5652 249.836 93.3635C250.025 93.155 250.172 92.9601 250.28 92.7785C250.388 92.5903 250.462 92.3012 250.502 91.9112C250.549 91.5213 250.576 91.2019 250.583 90.9531C250.589 90.6977 250.593 90.3043 250.593 89.7732C250.593 89.5984 250.593 89.4673 250.593 89.3799V83.5709C250.593 83.2415 250.589 82.9792 250.583 82.7843C250.583 82.5893 250.573 82.3607 250.552 82.0985C250.539 81.8296 250.515 81.6178 250.482 81.4631C250.448 81.3085 250.401 81.137 250.341 80.9488C250.28 80.7538 250.203 80.6025 250.109 80.495C250.021 80.3874 249.91 80.2765 249.776 80.1622C249.648 80.0411 249.497 79.9537 249.322 79.9C249.154 79.8394 248.956 79.7924 248.727 79.7588C248.498 79.7184 248.243 79.6983 247.96 79.6983H246.589V93.898Z" fill="#930043"/>
<path d="M49.1334 148V127.898H52.7567V148H49.1334ZM55.8685 148V127.898H61.775C62.9827 127.898 63.9589 128.122 64.7034 128.568C65.4644 129.015 66.0187 129.669 66.3661 130.529C66.7301 131.373 66.9121 132.398 66.9121 133.606C66.9121 134.913 66.6887 135.972 66.242 136.783C65.7953 137.577 65.1666 138.156 64.3559 138.52C63.5618 138.884 62.6187 139.066 61.5268 139.066H59.5414V148H55.8685ZM59.5414 136.485H60.9312C61.593 136.485 62.1059 136.394 62.4698 136.212C62.8504 136.013 63.1068 135.707 63.2392 135.294C63.3881 134.864 63.4625 134.293 63.4625 133.581C63.4625 132.853 63.4046 132.266 63.2888 131.819C63.1895 131.356 62.9579 131.017 62.5939 130.802C62.2465 130.587 61.6922 130.479 60.9312 130.479H59.5414V136.485ZM69.0052 148V127.898H72.6533V136.311H76.7481V127.898H80.421V148H76.7481V138.917H72.6533V148H69.0052ZM88.9565 148.273C87.5337 148.273 86.4004 148.008 85.5566 147.479C84.7128 146.949 84.1089 146.188 83.7449 145.196C83.381 144.203 83.199 143.028 83.199 141.672V134.152C83.199 132.795 83.381 131.637 83.7449 130.678C84.1089 129.702 84.7128 128.957 85.5566 128.444C86.4004 127.931 87.5337 127.675 88.9565 127.675C90.4124 127.675 91.554 127.931 92.3812 128.444C93.225 128.957 93.8289 129.702 94.1929 130.678C94.5734 131.637 94.7637 132.795 94.7637 134.152V141.696C94.7637 143.037 94.5734 144.203 94.1929 145.196C93.8289 146.172 93.225 146.933 92.3812 147.479C91.554 148.008 90.4124 148.273 88.9565 148.273ZM88.9565 145.568C89.5687 145.568 90.0154 145.436 90.2966 145.171C90.5944 144.906 90.793 144.542 90.8922 144.079C90.9915 143.616 91.0411 143.111 91.0411 142.565V133.308C91.0411 132.746 90.9915 132.241 90.8922 131.795C90.793 131.348 90.5944 131 90.2966 130.752C90.0154 130.488 89.5687 130.355 88.9565 130.355C88.3774 130.355 87.939 130.488 87.6412 130.752C87.3434 131 87.1449 131.348 87.0456 131.795C86.9463 132.241 86.8967 132.746 86.8967 133.308V142.565C86.8967 143.111 86.9381 143.616 87.0208 144.079C87.1201 144.542 87.3186 144.906 87.6164 145.171C87.9142 145.436 88.3609 145.568 88.9565 145.568ZM97.4806 148V127.898H100.037L104.926 139.364V127.898H107.953V148H105.521L100.607 135.989V148H97.4806ZM111.004 148V127.898H119.442V130.479H114.677V136.262H118.424V138.818H114.677V145.469H119.491V148H111.004ZM126.636 148L130.656 127.898H134.577L138.598 148H135.198L134.404 143.359H130.905L130.086 148H126.636ZM131.277 141.026H134.007L132.642 132.589L131.277 141.026ZM140.619 148V127.898H146.526C147.734 127.898 148.71 128.122 149.454 128.568C150.215 129.015 150.77 129.669 151.117 130.529C151.481 131.373 151.663 132.398 151.663 133.606C151.663 134.913 151.44 135.972 150.993 136.783C150.546 137.577 149.917 138.156 149.107 138.52C148.313 138.884 147.37 139.066 146.278 139.066H144.292V148H140.619ZM144.292 136.485H145.682C146.344 136.485 146.857 136.394 147.221 136.212C147.601 136.013 147.858 135.707 147.99 135.294C148.139 134.864 148.213 134.293 148.213 133.581C148.213 132.853 148.155 132.266 148.04 131.819C147.94 131.356 147.709 131.017 147.345 130.802C146.997 130.587 146.443 130.479 145.682 130.479H144.292V136.485ZM153.706 148V127.898H159.613C160.821 127.898 161.797 128.122 162.541 128.568C163.302 129.015 163.857 129.669 164.204 130.529C164.568 131.373 164.75 132.398 164.75 133.606C164.75 134.913 164.527 135.972 164.08 136.783C163.633 137.577 163.005 138.156 162.194 138.52C161.4 138.884 160.457 139.066 159.365 139.066H157.379V148H153.706ZM157.379 136.485H158.769C159.431 136.485 159.944 136.394 160.308 136.212C160.688 136.013 160.945 135.707 161.077 135.294C161.226 134.864 161.3 134.293 161.3 133.581C161.3 132.853 161.243 132.266 161.127 131.819C161.027 131.356 160.796 131.017 160.432 130.802C160.084 130.587 159.53 130.479 158.769 130.479H157.379V136.485ZM172.828 148V127.898H177.568C179.206 127.898 180.48 128.122 181.39 128.568C182.316 129.015 182.97 129.702 183.351 130.628C183.748 131.555 183.946 132.729 183.946 134.152V141.498C183.946 142.954 183.748 144.17 183.351 145.146C182.97 146.106 182.325 146.825 181.415 147.305C180.521 147.768 179.289 148 177.717 148H172.828ZM176.501 145.444H177.618C178.462 145.444 179.065 145.295 179.429 144.997C179.793 144.699 180.017 144.269 180.099 143.707C180.182 143.128 180.224 142.424 180.224 141.597V133.904C180.224 133.093 180.166 132.44 180.05 131.943C179.934 131.447 179.694 131.083 179.33 130.851C178.966 130.62 178.379 130.504 177.568 130.504H176.501V145.444ZM186.642 148V127.898H195.08V130.479H190.315V136.262H194.063V138.818H190.315V145.469H195.13V148H186.642ZM200.335 148L196.289 127.898H199.54L202.196 142.118L204.678 127.898H208.003L203.958 148H200.335ZM210.054 148V127.898H218.491V130.479H213.726V136.262H217.474V138.818H213.726V145.469H218.541V148H210.054ZM220.669 148V127.898H224.342V145.469H229.206V148H220.669ZM236.331 148.273C234.909 148.273 233.775 148.008 232.931 147.479C232.088 146.949 231.484 146.188 231.12 145.196C230.756 144.203 230.574 143.028 230.574 141.672V134.152C230.574 132.795 230.756 131.637 231.12 130.678C231.484 129.702 232.088 128.957 232.931 128.444C233.775 127.931 234.909 127.675 236.331 127.675C237.787 127.675 238.929 127.931 239.756 128.444C240.6 128.957 241.204 129.702 241.568 130.678C241.948 131.637 242.139 132.795 242.139 134.152V141.696C242.139 143.037 241.948 144.203 241.568 145.196C241.204 146.172 240.6 146.933 239.756 147.479C238.929 148.008 237.787 148.273 236.331 148.273ZM236.331 145.568C236.944 145.568 237.39 145.436 237.672 145.171C237.969 144.906 238.168 144.542 238.267 144.079C238.366 143.616 238.416 143.111 238.416 142.565V133.308C238.416 132.746 238.366 132.241 238.267 131.795C238.168 131.348 237.969 131 237.672 130.752C237.39 130.488 236.944 130.355 236.331 130.355C235.752 130.355 235.314 130.488 235.016 130.752C234.718 131 234.52 131.348 234.421 131.795C234.321 132.241 234.272 132.746 234.272 133.308V142.565C234.272 143.111 234.313 143.616 234.396 144.079C234.495 144.542 234.693 144.906 234.991 145.171C235.289 145.436 235.736 145.568 236.331 145.568ZM244.855 148V127.898H250.762C251.97 127.898 252.946 128.122 253.69 128.568C254.451 129.015 255.006 129.669 255.353 130.529C255.717 131.373 255.899 132.398 255.899 133.606C255.899 134.913 255.676 135.972 255.229 136.783C254.782 137.577 254.154 138.156 253.343 138.52C252.549 138.884 251.606 139.066 250.514 139.066H248.528V148H244.855ZM248.528 136.485H249.918C250.58 136.485 251.093 136.394 251.457 136.212C251.837 136.013 252.094 135.707 252.226 135.294C252.375 134.864 252.449 134.293 252.449 133.581C252.449 132.853 252.392 132.266 252.276 131.819C252.176 131.356 251.945 131.017 251.581 130.802C251.233 130.587 250.679 130.479 249.918 130.479H248.528V136.485ZM257.893 148L258.24 127.898H262.037L264.891 141.821L267.869 127.898H271.542L271.914 148H269.185L268.887 134.028L266.033 148H263.824L260.921 133.978L260.648 148H257.893ZM274.883 148V127.898H283.321V130.479H278.556V136.262H282.303V138.818H278.556V145.469H283.37V148H274.883ZM285.498 148V127.898H288.054L292.943 139.364V127.898H295.971V148H293.539L288.625 135.989V148H285.498ZM301.032 148V130.603H297.83V127.898H307.856V130.603H304.704V148H301.032ZM128.495 185.273C127.023 185.273 125.865 184.983 125.021 184.404C124.194 183.825 123.615 183.039 123.284 182.047C122.953 181.038 122.787 179.879 122.787 178.572V171.4C122.787 170.027 122.953 168.836 123.284 167.827C123.615 166.817 124.194 166.04 125.021 165.494C125.865 164.948 127.023 164.675 128.495 164.675C129.885 164.675 130.969 164.915 131.746 165.395C132.54 165.858 133.103 166.528 133.434 167.405C133.765 168.282 133.93 169.299 133.93 170.457V172.145H130.406V170.408C130.406 169.845 130.373 169.332 130.307 168.869C130.257 168.406 130.1 168.042 129.835 167.777C129.587 167.496 129.149 167.355 128.52 167.355C127.891 167.355 127.428 167.504 127.13 167.802C126.849 168.083 126.667 168.472 126.584 168.968C126.502 169.448 126.46 169.994 126.46 170.606V179.342C126.46 180.07 126.518 180.674 126.634 181.153C126.75 181.617 126.957 181.972 127.254 182.221C127.569 182.452 127.991 182.568 128.52 182.568C129.132 182.568 129.562 182.427 129.811 182.146C130.075 181.848 130.241 181.459 130.307 180.98C130.373 180.5 130.406 179.962 130.406 179.367V177.555H133.93V179.168C133.93 180.359 133.773 181.418 133.459 182.345C133.144 183.255 132.59 183.974 131.796 184.504C131.018 185.017 129.918 185.273 128.495 185.273ZM141.947 185.273C140.524 185.273 139.391 185.008 138.547 184.479C137.703 183.949 137.099 183.188 136.735 182.196C136.371 181.203 136.189 180.028 136.189 178.672V171.152C136.189 169.795 136.371 168.637 136.735 167.678C137.099 166.702 137.703 165.957 138.547 165.444C139.391 164.931 140.524 164.675 141.947 164.675C143.403 164.675 144.545 164.931 145.372 165.444C146.216 165.957 146.819 166.702 147.183 167.678C147.564 168.637 147.754 169.795 147.754 171.152V178.696C147.754 180.037 147.564 181.203 147.183 182.196C146.819 183.172 146.216 183.933 145.372 184.479C144.545 185.008 143.403 185.273 141.947 185.273ZM141.947 182.568C142.559 182.568 143.006 182.436 143.287 182.171C143.585 181.906 143.783 181.542 143.883 181.079C143.982 180.616 144.032 180.111 144.032 179.565V170.308C144.032 169.746 143.982 169.241 143.883 168.795C143.783 168.348 143.585 168 143.287 167.752C143.006 167.488 142.559 167.355 141.947 167.355C141.368 167.355 140.93 167.488 140.632 167.752C140.334 168 140.135 168.348 140.036 168.795C139.937 169.241 139.887 169.746 139.887 170.308V179.565C139.887 180.111 139.929 180.616 140.011 181.079C140.111 181.542 140.309 181.906 140.607 182.171C140.905 182.436 141.351 182.568 141.947 182.568ZM150.421 185L150.769 164.898H154.566L157.42 178.821L160.398 164.898H164.071L164.443 185H161.713L161.415 171.028L158.561 185H156.353L153.449 170.978L153.176 185H150.421ZM167.412 185V164.898H173.318C174.526 164.898 175.502 165.122 176.246 165.568C177.007 166.015 177.562 166.669 177.909 167.529C178.273 168.373 178.455 169.398 178.455 170.606C178.455 171.913 178.232 172.972 177.785 173.783C177.338 174.577 176.71 175.156 175.899 175.52C175.105 175.884 174.162 176.066 173.07 176.066H171.084V185H167.412ZM171.084 173.485H172.474C173.136 173.485 173.649 173.394 174.013 173.212C174.393 173.013 174.65 172.707 174.782 172.294C174.931 171.864 175.006 171.293 175.006 170.581C175.006 169.853 174.948 169.266 174.832 168.819C174.733 168.356 174.501 168.017 174.137 167.802C173.789 167.587 173.235 167.479 172.474 167.479H171.084V173.485ZM178.415 185L182.435 164.898H186.356L190.377 185H186.977L186.182 180.359H182.683L181.864 185H178.415ZM183.056 178.026H185.785L184.42 169.589L183.056 178.026ZM192.398 185V164.898H194.954L199.843 176.364V164.898H202.871V185H200.439L195.525 172.989V185H192.398ZM206.021 185V164.898H209.644V185H206.021ZM212.756 185V164.898H221.194V167.479H216.429V173.262H220.176V175.818H216.429V182.469H221.243V185H212.756ZM228.434 185.273C227.226 185.273 226.217 185.041 225.406 184.578C224.595 184.098 223.983 183.403 223.569 182.493C223.156 181.584 222.924 180.467 222.875 179.143L226.026 178.523C226.059 179.3 226.15 179.987 226.299 180.583C226.465 181.178 226.705 181.641 227.019 181.972C227.35 182.287 227.78 182.444 228.309 182.444C228.905 182.444 229.327 182.27 229.575 181.923C229.823 181.559 229.947 181.104 229.947 180.558C229.947 179.681 229.749 178.961 229.352 178.399C228.955 177.836 228.425 177.274 227.763 176.711L225.232 174.478C224.521 173.865 223.95 173.187 223.52 172.443C223.106 171.682 222.899 170.747 222.899 169.638C222.899 168.05 223.363 166.826 224.289 165.965C225.216 165.105 226.481 164.675 228.086 164.675C229.029 164.675 229.815 164.824 230.444 165.122C231.072 165.403 231.569 165.8 231.933 166.313C232.313 166.826 232.594 167.413 232.776 168.075C232.958 168.72 233.074 169.407 233.124 170.135L229.997 170.681C229.964 170.052 229.889 169.489 229.774 168.993C229.674 168.497 229.484 168.108 229.203 167.827C228.938 167.545 228.541 167.405 228.012 167.405C227.466 167.405 227.044 167.587 226.746 167.951C226.465 168.298 226.324 168.737 226.324 169.266C226.324 169.944 226.465 170.507 226.746 170.954C227.027 171.384 227.433 171.83 227.962 172.294L230.469 174.502C231.296 175.197 231.999 176.016 232.578 176.959C233.174 177.886 233.471 179.011 233.471 180.334C233.471 181.294 233.256 182.146 232.826 182.891C232.413 183.635 231.825 184.222 231.064 184.653C230.32 185.066 229.443 185.273 228.434 185.273Z" fill="black"/>
<rect x="2" y="216.008" width="351.935" height="44.37" fill="#930043"/>
<circle cx="178.469" cy="235.165" r="37.3111" fill="white"/>
<path d="M70.671 223.671L75.0644 232.571L84.8889 234.007L77.78 240.931L79.4577 250.713L70.671 246.092L61.8844 250.713L63.5621 240.931L56.4531 234.007L66.2777 232.571L70.671 223.671Z" fill="white"/>
<path d="M111.775 223.671L116.168 232.571L125.992 234.007L118.883 240.931L120.561 250.713L111.775 246.092L102.988 250.713L104.666 240.931L97.5566 234.007L107.381 232.571L111.775 223.671Z" fill="white"/>
<path d="M179.678 213.984L187.218 229.259L204.078 231.724L191.878 243.607L194.757 260.394L179.678 252.464L164.598 260.394L167.478 243.607L155.277 231.724L172.138 229.259L179.678 213.984Z" fill="#930043"/>
<path d="M241.45 223.671L245.844 232.571L255.668 234.007L248.559 240.931L250.237 250.713L241.45 246.092L232.664 250.713L234.341 240.931L227.232 234.007L237.057 232.571L241.45 223.671Z" fill="white"/>
<path d="M282.554 223.671L286.947 232.571L296.772 234.007L289.663 240.931L291.341 250.713L282.554 246.092L273.767 250.713L275.445 240.931L268.336 234.007L278.161 232.571L282.554 223.671Z" fill="white"/>
<g clip-path="url(#clip0_929_2403)">
<path d="M186.411 290.143V294.897H181.921V284.069H180.337V294.897H175.583V284.069H173.998V300.971H169.508V290.143H167.924V307.31H169.508V302.556H180.337V313.384H181.921V296.482H186.411V307.31H187.996V290.143H186.411ZM180.337 300.971H175.583V296.482H180.337V300.971Z" fill="#930043"/>
<path d="M175.583 303.35H173.998V313.386H175.583V303.35Z" fill="#930043"/>
</g>
<path d="M135.08 321.465V330.958H132.96V327.398H126.598V330.958H124.479V321.465H126.598V325.026H132.96V321.465H135.08Z" fill="black"/>
<path d="M136.891 330.959V321.451H139.532V330.959H136.891Z" fill="black"/>
<path d="M151.676 323.837H147.436V330.957H145.316V323.837H141.074V321.464H151.676V323.837Z" fill="black"/>
<path d="M163.719 321.464V323.837H155.237V323.839H153.117V321.464H163.719ZM163.719 325.225V327.16H155.237V327.166H153.117V325.225H163.719ZM163.719 328.585V330.957H153.117V328.585H163.719Z" fill="black"/>
<path d="M176.141 324.539V325.617H174.021V324.75C174.021 324.246 173.655 323.837 173.205 323.837H165.539V321.464H173.394C173.61 321.464 173.819 321.492 174.021 321.546C175.034 321.81 175.832 322.703 176.071 323.839C176.116 324.063 176.141 324.297 176.141 324.539ZM168.475 328.585H176.141V330.957H168.286C168.189 330.957 168.093 330.952 168 330.939C167.884 330.927 167.771 330.904 167.659 330.876C166.646 330.611 165.848 329.719 165.61 328.582C165.592 328.498 165.578 328.414 165.567 328.33C165.548 328.183 165.537 328.033 165.537 327.88V325.124H167.657V327.669C167.659 328.175 168.025 328.585 168.475 328.585Z" fill="black"/>
<path d="M188.447 321.464V330.957H186.327V327.397H179.966V330.957H177.846V321.464H179.966V325.024H186.327V321.464H188.447Z" fill="black"/>
<path d="M206.467 321.464V330.957H204.347V327.397H197.985V330.957H195.865V321.464H197.985V325.024H204.347V321.464H206.467Z" fill="#930043"/>
<path d="M218.899 321.464V330.957H216.836V329.94L216.011 330.957H210.728C209.479 330.812 208.477 329.729 208.295 328.348V321.464H210.415V327.672C210.415 328.175 210.781 328.585 211.23 328.585H216.772L216.777 321.464H218.899Z" fill="#930043"/>
<path d="M231.4 327.437C231.428 327.608 231.441 327.783 231.441 327.961C231.441 328.17 231.423 328.373 231.387 328.569C231.153 329.843 230.194 330.822 229.012 330.942C228.933 330.949 228.851 330.954 228.767 330.954C228.683 330.954 228.604 330.949 228.522 330.942H222.932V330.954H220.812V328.572H220.815V327.44H220.812V325.088H220.815V323.801H220.812V321.451H228.767C230.053 321.451 231.13 322.468 231.385 323.824C231.423 324.025 231.441 324.231 231.441 324.444C231.441 324.658 231.421 324.864 231.385 325.065C231.307 325.484 231.148 325.871 230.932 326.204C231.164 326.563 231.328 326.982 231.4 327.437ZM229.321 324.444C229.321 324.104 229.074 323.824 228.767 323.824H227.197V323.801H222.935V325.088H227.197V325.065H228.767C228.867 325.065 228.958 325.037 229.04 324.986C229.208 324.879 229.321 324.676 229.321 324.444ZM229.321 327.964C229.321 327.743 229.217 327.549 229.062 327.44H222.937V328.572H228.881C229.131 328.513 229.321 328.261 229.321 327.964Z" fill="#930043"/>
<defs>
<clipPath id="clip0_929_2403">
<rect width="20.072" height="29.3157" fill="white" transform="translate(167.924 284.068)"/>
</clipPath>
</defs>
</svg>
