<svg width="355" height="400" viewBox="0 0 355 400" fill="none" xmlns="http://www.w3.org/2000/svg">
<path d="M16.3151 81.782L162.311 5.02596C171.582 0.139784 183.011 0.139784 192.283 5.02596L338.278 81.782C347.549 86.6681 353.264 95.6729 353.264 105.427V294.434C353.264 304.187 347.549 313.192 338.278 318.078L192.283 394.834C183.011 399.72 171.582 399.72 162.311 394.834L16.3151 318.078C7.04393 313.192 1.3291 304.187 1.3291 294.434V105.427C1.3291 95.6542 7.04393 86.6494 16.3151 81.782Z" fill="white" stroke="#930043" stroke-width="2.23497" stroke-miterlimit="10"/>
<path d="M329.816 285.91C329.816 293.431 325.372 300.447 318.19 304.208L187.32 372.908C180.138 376.669 171.228 376.669 164.088 372.908L33.1761 304.208C25.9947 300.447 21.55 293.431 21.55 285.91V269.252H14.2451V285.91C14.2451 295.789 20.089 304.994 29.5134 309.933L160.425 378.652C165.117 381.121 170.405 382.356 175.693 382.356C180.961 382.356 186.229 381.121 190.941 378.652L321.853 309.933C331.277 304.994 337.121 295.789 337.121 285.91V269.252H329.837V285.91H329.816ZM321.853 89.918L190.941 21.2177C181.537 16.2597 169.829 16.2784 160.425 21.2177L29.5339 89.918C20.1096 94.8759 14.2657 104.081 14.2657 113.959V207.598H21.5706V113.959C21.5706 106.438 26.0152 99.4222 33.1967 95.6617L164.047 26.9614C171.228 23.2008 180.138 23.2008 187.278 26.9614L318.19 95.6617C325.372 99.4222 329.816 106.438 329.816 113.959V207.598H337.101V113.959C337.121 104.081 331.277 94.8759 321.853 89.918Z" fill="#930043"/>
<path d="M103.436 95.6771V77.6048H107.006L109.568 91.4414L112.129 77.6048H115.699V95.6771H113.118V81.4169L110.536 95.6771H108.6L106.018 81.4169V95.6771H103.436ZM124.593 95.8587C123.685 95.8587 122.905 95.7208 122.253 95.4452C121.608 95.1695 121.093 94.7661 120.71 94.235C120.327 93.7038 120.048 93.0819 119.873 92.3692C119.698 91.6498 119.611 90.8161 119.611 89.8682V83.3129C119.611 82.3649 119.698 81.5379 119.873 80.832C120.048 80.126 120.327 79.5142 120.71 78.9965C121.093 78.4721 121.608 78.0788 122.253 77.8165C122.905 77.5543 123.685 77.4232 124.593 77.4232C126.354 77.4232 127.625 77.9275 128.405 78.936C129.185 79.9445 129.575 81.4035 129.575 83.3129V89.8682C129.575 90.8027 129.484 91.6297 129.303 92.3491C129.128 93.0617 128.849 93.687 128.465 94.2249C128.082 94.756 127.565 95.1628 126.912 95.4452C126.267 95.7208 125.494 95.8587 124.593 95.8587ZM122.707 92.9239C123.057 93.4685 123.685 93.7408 124.593 93.7408C125.5 93.7408 126.126 93.4685 126.469 92.9239C126.818 92.3793 126.993 91.5759 126.993 90.5136V82.6674C126.993 81.6186 126.822 80.8353 126.479 80.3176C126.136 79.7999 125.507 79.5411 124.593 79.5411C123.678 79.5411 123.05 79.7999 122.707 80.3176C122.364 80.8353 122.193 81.6186 122.193 82.6674V90.5136C122.193 91.5759 122.364 92.3793 122.707 92.9239ZM138.196 95.8587C136.569 95.8587 135.325 95.3813 134.464 94.4266C133.611 93.4719 133.133 92.1675 133.032 90.5136L135.614 89.8682C135.742 92.4499 136.602 93.7408 138.196 93.7408C139.487 93.7408 140.132 93.0954 140.132 91.8045C140.132 91.4212 140.078 91.0683 139.971 90.7455C139.87 90.4161 139.712 90.1169 139.497 89.848C139.282 89.5723 139.087 89.3538 138.912 89.1925C138.737 89.0244 138.498 88.8193 138.196 88.5773L134.969 85.9955C134.377 85.5316 133.903 84.9433 133.547 84.2306C133.197 83.5112 133.022 82.6943 133.022 81.78C133.022 80.4487 133.436 79.3898 134.263 78.6032C135.09 77.8165 136.186 77.4232 137.55 77.4232C139.016 77.4232 140.179 77.7829 141.04 78.5023C141.907 79.215 142.442 80.2269 142.643 81.5379C142.664 81.6791 142.687 81.8741 142.714 82.1229L140.132 82.7683C140.125 82.654 140.109 82.4826 140.082 82.254C139.967 81.4337 139.709 80.7782 139.305 80.2874C138.909 79.7899 138.324 79.5411 137.55 79.5411C136.932 79.5411 136.455 79.7159 136.118 80.0655C135.782 80.4084 135.614 80.8891 135.614 81.5077C135.614 82.5229 136.044 83.3734 136.905 84.0592L140.132 86.6409C141.853 88.0327 142.714 89.6967 142.714 91.633C142.714 92.9575 142.304 93.9929 141.484 94.7392C140.67 95.4855 139.574 95.8587 138.196 95.8587ZM148.178 95.6771V79.9041H144.951V77.6048H153.987V79.9041H150.76V95.6771H148.178ZM165.35 85.3501H165.995C167.071 85.3501 167.878 85.1248 168.416 84.6744C168.954 84.2172 169.223 83.4742 169.223 82.4456C169.223 81.4169 168.954 80.6773 168.416 80.2269C167.878 79.7697 167.071 79.5411 165.995 79.5411H165.35V85.3501ZM162.768 95.6771V77.6048H165.995C167.918 77.6048 169.367 77.9779 170.342 78.7242C171.317 79.4705 171.804 80.7109 171.804 82.4456C171.804 83.5213 171.613 84.4222 171.23 85.1484C170.846 85.8745 170.285 86.372 169.545 86.6409L172.45 95.6771H169.888L167.286 87.2864H165.35V95.6771H162.768ZM175.595 95.6771V77.6048H182.695V79.5411H178.177V85.3501H181.404V87.2864H178.177V93.7408H182.695V95.6771H175.595ZM188.643 95.6771L184.771 77.6048H187.352L189.258 87.2864L189.924 91.8045L190.61 87.2864L192.516 77.6048H195.098L191.225 95.6771H188.643ZM198.283 95.6771V77.6048H200.865V95.6771H198.283ZM205.28 95.6771V77.6048H212.38V79.5411H207.862V85.3501H211.089V87.2864H207.862V93.7408H212.38V95.6771H205.28ZM217.673 95.6771L214.446 77.6048H217.028L218.319 85.9955L218.974 91.159L219.609 85.9955L220.9 77.6048H223.482L224.773 85.9955L225.408 91.159L226.064 85.9955L227.355 77.6048H229.937L226.709 95.6771H224.128L222.837 87.2864L222.191 82.1229L221.546 87.2864L220.255 95.6771H217.673ZM232.991 95.6771V77.6048H240.091V79.5411H235.572V85.3501H238.8V87.2864H235.572V93.7408H240.091V95.6771H232.991ZM243.336 95.6771V77.6048H247.34C249.229 77.6048 250.561 77.9914 251.334 78.7645C252.114 79.5377 252.504 80.8723 252.504 82.7683V89.8682C252.504 91.8515 252.107 93.3172 251.314 94.2652C250.527 95.2065 249.196 95.6771 247.32 95.6771H243.336ZM245.918 93.7408H247.34C247.764 93.7408 248.127 93.7038 248.429 93.6299C248.732 93.5492 248.977 93.408 249.165 93.2063C249.354 92.9979 249.502 92.8029 249.609 92.6214C249.717 92.4331 249.791 92.144 249.831 91.7541C249.878 91.3641 249.905 91.0447 249.912 90.796C249.918 90.5405 249.922 90.1472 249.922 89.616C249.922 89.4412 249.922 89.3101 249.922 89.2227V83.4137C249.922 83.0843 249.918 82.8221 249.912 82.6271C249.912 82.4321 249.902 82.2035 249.881 81.9413C249.868 81.6724 249.844 81.4606 249.811 81.306C249.777 81.1513 249.73 80.9799 249.67 80.7916C249.609 80.5967 249.532 80.4454 249.438 80.3378C249.35 80.2302 249.239 80.1193 249.105 80.005C248.977 79.884 248.826 79.7966 248.651 79.7428C248.483 79.6823 248.285 79.6352 248.056 79.6016C247.827 79.5613 247.572 79.5411 247.29 79.5411H245.918V93.7408Z" fill="#930043"/>
<path d="M68.0019 143V122.898H71.6748V140.469H76.5389V143H68.0019ZM77.4298 143L81.4501 122.898H85.3712L89.3916 143H85.9917L85.1975 138.359H81.6983L80.8794 143H77.4298ZM82.0706 136.026H84.8004L83.4355 127.589L82.0706 136.026ZM91.4132 143V122.898H96.2277C97.5843 122.898 98.7259 123.064 99.6524 123.395C100.595 123.709 101.307 124.255 101.787 125.033C102.283 125.81 102.531 126.869 102.531 128.209C102.531 129.02 102.457 129.748 102.308 130.393C102.159 131.038 101.902 131.592 101.539 132.056C101.191 132.502 100.703 132.85 100.074 133.098L102.879 143H99.2057L96.7736 133.793H95.0861V143H91.4132ZM95.0861 131.485H96.2277C96.9391 131.485 97.5016 131.386 97.9152 131.187C98.3454 130.972 98.6515 130.641 98.8335 130.194C99.0154 129.731 99.1064 129.144 99.1064 128.432C99.1064 127.423 98.9162 126.67 98.5357 126.174C98.1717 125.661 97.4685 125.405 96.4262 125.405H95.0861V131.485ZM104.307 143L108.327 122.898H112.248L116.269 143H112.869L112.074 138.359H108.575L107.756 143H104.307ZM108.948 136.026H111.677L110.312 127.589L108.948 136.026ZM120.616 143L116.571 122.898H119.822L122.477 137.118L124.959 122.898H128.285L124.239 143H120.616ZM130.335 143V122.898H138.773V125.479H134.008V131.262H137.755V133.818H134.008V140.469H138.822V143H130.335ZM140.95 143V122.898H144.623V140.469H149.487V143H140.95ZM157.43 143V122.898H162.17C163.808 122.898 165.082 123.122 165.992 123.568C166.919 124.015 167.572 124.702 167.953 125.628C168.35 126.555 168.548 127.729 168.548 129.152V136.498C168.548 137.954 168.35 139.17 167.953 140.146C167.572 141.106 166.927 141.825 166.017 142.305C165.123 142.768 163.891 143 162.319 143H157.43ZM161.103 140.444H162.22C163.064 140.444 163.667 140.295 164.031 139.997C164.395 139.699 164.619 139.269 164.702 138.707C164.784 138.128 164.826 137.424 164.826 136.597V128.904C164.826 128.093 164.768 127.44 164.652 126.943C164.536 126.447 164.296 126.083 163.932 125.851C163.568 125.62 162.981 125.504 162.17 125.504H161.103V140.444ZM171.244 143V122.898H179.682V125.479H174.917V131.262H178.665V133.818H174.917V140.469H179.732V143H171.244ZM184.937 143L180.891 122.898H184.143L186.798 137.118L189.28 122.898H192.605L188.56 143H184.937ZM194.656 143V122.898H203.093V125.479H198.328V131.262H202.076V133.818H198.328V140.469H203.143V143H194.656ZM205.271 143V122.898H208.944V140.469H213.808V143H205.271ZM220.933 143.273C219.511 143.273 218.377 143.008 217.534 142.479C216.69 141.949 216.086 141.188 215.722 140.196C215.358 139.203 215.176 138.028 215.176 136.672V129.152C215.176 127.795 215.358 126.637 215.722 125.678C216.086 124.702 216.69 123.957 217.534 123.444C218.377 122.931 219.511 122.675 220.933 122.675C222.389 122.675 223.531 122.931 224.358 123.444C225.202 123.957 225.806 124.702 226.17 125.678C226.55 126.637 226.741 127.795 226.741 129.152V136.696C226.741 138.037 226.55 139.203 226.17 140.196C225.806 141.172 225.202 141.933 224.358 142.479C223.531 143.008 222.389 143.273 220.933 143.273ZM220.933 140.568C221.546 140.568 221.992 140.436 222.274 140.171C222.571 139.906 222.77 139.542 222.869 139.079C222.968 138.616 223.018 138.111 223.018 137.565V128.308C223.018 127.746 222.968 127.241 222.869 126.795C222.77 126.348 222.571 126 222.274 125.752C221.992 125.488 221.546 125.355 220.933 125.355C220.354 125.355 219.916 125.488 219.618 125.752C219.32 126 219.122 126.348 219.023 126.795C218.923 127.241 218.874 127.746 218.874 128.308V137.565C218.874 138.111 218.915 138.616 218.998 139.079C219.097 139.542 219.296 139.906 219.593 140.171C219.891 140.436 220.338 140.568 220.933 140.568ZM229.457 143V122.898H235.364C236.572 122.898 237.548 123.122 238.292 123.568C239.053 124.015 239.608 124.669 239.955 125.529C240.319 126.373 240.501 127.398 240.501 128.606C240.501 129.913 240.278 130.972 239.831 131.783C239.384 132.577 238.756 133.156 237.945 133.52C237.151 133.884 236.208 134.066 235.116 134.066H233.13V143H229.457ZM233.13 131.485H234.52C235.182 131.485 235.695 131.394 236.059 131.212C236.439 131.013 236.696 130.707 236.828 130.294C236.977 129.864 237.051 129.293 237.051 128.581C237.051 127.853 236.994 127.266 236.878 126.819C236.779 126.356 236.547 126.017 236.183 125.802C235.835 125.587 235.281 125.479 234.52 125.479H233.13V131.485ZM242.495 143L242.842 122.898H246.639L249.493 136.821L252.471 122.898H256.144L256.517 143H253.787L253.489 129.028L250.635 143H248.426L245.523 128.978L245.25 143H242.495ZM259.485 143V122.898H267.923V125.479H263.158V131.262H266.905V133.818H263.158V140.469H267.972V143H259.485ZM270.1 143V122.898H272.656L277.545 134.364V122.898H280.573V143H278.141L273.227 130.989V143H270.1ZM285.634 143V125.603H282.432V122.898H292.458V125.603H289.306V143H285.634ZM127.263 180.273C125.79 180.273 124.632 179.983 123.788 179.404C122.961 178.825 122.382 178.039 122.051 177.047C121.72 176.038 121.555 174.879 121.555 173.572V166.4C121.555 165.027 121.72 163.836 122.051 162.827C122.382 161.817 122.961 161.04 123.788 160.494C124.632 159.948 125.79 159.675 127.263 159.675C128.653 159.675 129.736 159.915 130.514 160.395C131.308 160.858 131.871 161.528 132.201 162.405C132.532 163.282 132.698 164.299 132.698 165.457V167.145H129.174V165.408C129.174 164.845 129.141 164.332 129.074 163.869C129.025 163.406 128.868 163.042 128.603 162.777C128.355 162.496 127.916 162.355 127.288 162.355C126.659 162.355 126.196 162.504 125.898 162.802C125.617 163.083 125.435 163.472 125.352 163.968C125.269 164.448 125.228 164.994 125.228 165.606V174.342C125.228 175.07 125.286 175.674 125.402 176.153C125.517 176.617 125.724 176.972 126.022 177.221C126.336 177.452 126.758 177.568 127.288 177.568C127.9 177.568 128.33 177.427 128.578 177.146C128.843 176.848 129.008 176.459 129.074 175.98C129.141 175.5 129.174 174.962 129.174 174.367V172.555H132.698V174.168C132.698 175.359 132.541 176.418 132.226 177.345C131.912 178.255 131.358 178.974 130.563 179.504C129.786 180.017 128.686 180.273 127.263 180.273ZM140.715 180.273C139.292 180.273 138.158 180.008 137.315 179.479C136.471 178.949 135.867 178.188 135.503 177.196C135.139 176.203 134.957 175.028 134.957 173.672V166.152C134.957 164.795 135.139 163.637 135.503 162.678C135.867 161.702 136.471 160.957 137.315 160.444C138.158 159.931 139.292 159.675 140.715 159.675C142.171 159.675 143.312 159.931 144.139 160.444C144.983 160.957 145.587 161.702 145.951 162.678C146.331 163.637 146.522 164.795 146.522 166.152V173.696C146.522 175.037 146.331 176.203 145.951 177.196C145.587 178.172 144.983 178.933 144.139 179.479C143.312 180.008 142.171 180.273 140.715 180.273ZM140.715 177.568C141.327 177.568 141.773 177.436 142.055 177.171C142.353 176.906 142.551 176.542 142.65 176.079C142.75 175.616 142.799 175.111 142.799 174.565V165.308C142.799 164.746 142.75 164.241 142.65 163.795C142.551 163.348 142.353 163 142.055 162.752C141.773 162.488 141.327 162.355 140.715 162.355C140.136 162.355 139.697 162.488 139.399 162.752C139.101 163 138.903 163.348 138.804 163.795C138.704 164.241 138.655 164.746 138.655 165.308V174.565C138.655 175.111 138.696 175.616 138.779 176.079C138.878 176.542 139.077 176.906 139.374 177.171C139.672 177.436 140.119 177.568 140.715 177.568ZM149.189 180L149.536 159.898H153.333L156.187 173.821L159.165 159.898H162.838L163.211 180H160.481L160.183 166.028L157.329 180H155.12L152.217 165.978L151.944 180H149.189ZM166.179 180V159.898H172.086C173.293 159.898 174.269 160.122 175.014 160.568C175.775 161.015 176.329 161.669 176.677 162.529C177.041 163.373 177.223 164.398 177.223 165.606C177.223 166.913 176.999 167.972 176.553 168.783C176.106 169.577 175.477 170.156 174.667 170.52C173.872 170.884 172.929 171.066 171.837 171.066H169.852V180H166.179ZM169.852 168.485H171.242C171.904 168.485 172.416 168.394 172.78 168.212C173.161 168.013 173.417 167.707 173.55 167.294C173.699 166.864 173.773 166.293 173.773 165.581C173.773 164.853 173.715 164.266 173.599 163.819C173.5 163.356 173.268 163.017 172.904 162.802C172.557 162.587 172.003 162.479 171.242 162.479H169.852V168.485ZM177.182 180L181.203 159.898H185.124L189.144 180H185.744L184.95 175.359H181.451L180.632 180H177.182ZM181.823 173.026H184.553L183.188 164.589L181.823 173.026ZM191.166 180V159.898H193.722L198.611 171.364V159.898H201.638V180H199.206L194.293 167.989V180H191.166ZM204.788 180V159.898H208.412V180H204.788ZM211.523 180V159.898H219.961V162.479H215.196V168.262H218.944V170.818H215.196V177.469H220.011V180H211.523ZM227.201 180.273C225.993 180.273 224.984 180.041 224.173 179.578C223.363 179.098 222.751 178.403 222.337 177.493C221.923 176.584 221.692 175.467 221.642 174.143L224.794 173.523C224.827 174.3 224.918 174.987 225.067 175.583C225.232 176.178 225.472 176.641 225.787 176.972C226.117 177.287 226.548 177.444 227.077 177.444C227.673 177.444 228.095 177.27 228.343 176.923C228.591 176.559 228.715 176.104 228.715 175.558C228.715 174.681 228.516 173.961 228.119 173.399C227.722 172.836 227.193 172.274 226.531 171.711L224 169.478C223.288 168.865 222.717 168.187 222.287 167.443C221.874 166.682 221.667 165.747 221.667 164.638C221.667 163.05 222.13 161.826 223.057 160.965C223.983 160.105 225.249 159.675 226.854 159.675C227.797 159.675 228.583 159.824 229.211 160.122C229.84 160.403 230.336 160.8 230.7 161.313C231.081 161.826 231.362 162.413 231.544 163.075C231.726 163.72 231.842 164.407 231.892 165.135L228.765 165.681C228.731 165.052 228.657 164.489 228.541 163.993C228.442 163.497 228.252 163.108 227.97 162.827C227.706 162.545 227.309 162.405 226.779 162.405C226.233 162.405 225.811 162.587 225.514 162.951C225.232 163.298 225.092 163.737 225.092 164.266C225.092 164.944 225.232 165.507 225.514 165.954C225.795 166.384 226.2 166.83 226.73 167.294L229.236 169.502C230.063 170.197 230.766 171.016 231.346 171.959C231.941 172.886 232.239 174.011 232.239 175.334C232.239 176.294 232.024 177.146 231.594 177.891C231.18 178.635 230.593 179.222 229.832 179.653C229.087 180.066 228.21 180.273 227.201 180.273Z" fill="black"/>
<rect x="1.3291" y="215.85" width="351.935" height="44.37" fill="#930043"/>
<circle cx="177.8" cy="235.008" r="37.3111" fill="white"/>
<path d="M70.0011 223.514L74.3944 232.414L84.219 233.85L77.1101 240.774L78.7878 250.556L70.0011 245.935L61.2144 250.556L62.8922 240.774L55.7832 233.85L65.6078 232.414L70.0011 223.514Z" fill="white"/>
<path d="M111.106 223.514L115.499 232.414L125.324 233.85L118.215 240.774L119.892 250.556L111.106 245.935L102.319 250.556L103.997 240.774L96.8877 233.85L106.712 232.414L111.106 223.514Z" fill="white"/>
<path d="M179.007 213.827L186.547 229.101L203.407 231.566L191.207 243.449L194.086 260.236L179.007 252.306L163.927 260.236L166.807 243.449L154.606 231.566L171.467 229.101L179.007 213.827Z" fill="#930043"/>
<path d="M240.78 223.514L245.174 232.414L254.998 233.85L247.889 240.774L249.567 250.556L240.78 245.935L231.994 250.556L233.671 240.774L226.562 233.85L236.387 232.414L240.78 223.514Z" fill="white"/>
<path d="M281.885 223.514L286.278 232.414L296.103 233.85L288.994 240.774L290.672 250.556L281.885 245.935L273.098 250.556L274.776 240.774L267.667 233.85L277.492 232.414L281.885 223.514Z" fill="white"/>
<g clip-path="url(#clip0_1054_1941)">
<path d="M185.743 289.985V294.739H181.253V283.911H179.669V294.739H174.915V283.911H173.33V300.813H168.84V289.985H167.256V307.152H168.84V302.398H179.669V313.226H181.253V296.324H185.743V307.152H187.328V289.985H185.743ZM179.669 300.813H174.915V296.324H179.669V300.813Z" fill="#930043"/>
<path d="M174.914 303.192H173.329V313.228H174.914V303.192Z" fill="#930043"/>
</g>
<path d="M134.411 321.308V330.801H132.291V327.241H125.929V330.801H123.81V321.308H125.929V324.868H132.291V321.308H134.411Z" fill="black"/>
<path d="M136.221 330.802V321.294H138.862V330.802H136.221Z" fill="black"/>
<path d="M151.007 323.68H146.767V330.8H144.647V323.68H140.405V321.307H151.007V323.68Z" fill="black"/>
<path d="M163.05 321.307V323.68H154.568V323.682H152.448V321.307H163.05ZM163.05 325.068V327.003H154.568V327.008H152.448V325.068H163.05ZM163.05 328.427V330.8H152.448V328.427H163.05Z" fill="black"/>
<path d="M175.471 324.382V325.46H173.351V324.593C173.351 324.089 172.985 323.68 172.536 323.68H164.869V321.307H172.724C172.94 321.307 173.149 321.335 173.351 321.389C174.365 321.653 175.162 322.546 175.401 323.682C175.446 323.906 175.471 324.14 175.471 324.382ZM167.805 328.427H175.471V330.8H167.616C167.519 330.8 167.423 330.795 167.33 330.782C167.214 330.769 167.101 330.747 166.989 330.719C165.976 330.454 165.178 329.562 164.94 328.425C164.922 328.341 164.908 328.257 164.897 328.173C164.879 328.026 164.867 327.876 164.867 327.723V324.966H166.987V327.512C166.989 328.018 167.355 328.427 167.805 328.427Z" fill="black"/>
<path d="M187.777 321.307V330.8H185.658V327.24H179.296V330.8H177.176V321.307H179.296V324.867H185.658V321.307H187.777Z" fill="black"/>
<path d="M205.798 321.307V330.8H203.678V327.24H197.316V330.8H195.196V321.307H197.316V324.867H203.678V321.307H205.798Z" fill="#930043"/>
<path d="M218.231 321.307V330.8H216.168V329.783L215.343 330.8H210.06C208.811 330.655 207.809 329.572 207.627 328.191V321.307H209.747V327.514C209.747 328.018 210.113 328.427 210.562 328.427H216.104L216.109 321.307H218.231Z" fill="#930043"/>
<path d="M230.731 327.28C230.758 327.45 230.771 327.626 230.771 327.804C230.771 328.012 230.753 328.216 230.717 328.411C230.483 329.685 229.524 330.664 228.343 330.784C228.263 330.792 228.181 330.797 228.097 330.797C228.013 330.797 227.934 330.792 227.852 330.784H222.262V330.797H220.143V328.414H220.145V327.282H220.143V324.93H220.145V323.643H220.143V321.294H228.097C229.383 321.294 230.46 322.311 230.715 323.666C230.753 323.867 230.771 324.073 230.771 324.287C230.771 324.5 230.751 324.706 230.715 324.907C230.637 325.327 230.478 325.713 230.262 326.046C230.494 326.405 230.658 326.825 230.731 327.28ZM228.652 324.287C228.652 323.946 228.404 323.666 228.097 323.666H226.527V323.643H222.265V324.93H226.527V324.907H228.097C228.197 324.907 228.288 324.879 228.37 324.828C228.538 324.722 228.652 324.518 228.652 324.287ZM228.652 327.806C228.652 327.585 228.547 327.392 228.393 327.282H222.267V328.414H228.211C228.461 328.355 228.652 328.104 228.652 327.806Z" fill="#930043"/>
<defs>
<clipPath id="clip0_1054_1941">
<rect width="20.072" height="29.3157" fill="white" transform="translate(167.255 283.911)"/>
</clipPath>
</defs>
</svg>
