<svg width="216" height="20" viewBox="0 0 216 20" fill="none" xmlns="http://www.w3.org/2000/svg">
    <path d="M22.1921 0.0244141V19.2142H17.9386V12.0174H5.17345V19.2142H0.919922V0.0244141H5.17345V7.22122H17.9386V0.0244141H22.1921Z" fill="black"/>
    <path d="M25.8242 19.22V0H31.1235V19.22H25.8242Z" fill="black"/>
    <path d="M55.489 4.82057H46.9819V19.2142H42.7284V4.82057H34.2168V0.0244141H55.489V4.82057Z" fill="black"/>
    <path d="M79.657 0.0244141V4.82057H62.6383V4.82571H58.3848V0.0244141H79.657ZM79.657 7.62732V11.5393H62.6383V11.5496H58.3848V7.62732H79.657ZM79.657 14.418V19.2142H58.3848V14.418H79.657Z" fill="black"/>
    <path d="M104.574 6.23937V8.41897H100.32V6.66604C100.32 5.6482 99.5861 4.82057 98.6834 4.82057H83.3014V0.0244141H99.0618C99.4949 0.0244141 99.9144 0.0809604 100.32 0.188912C102.353 0.723532 103.954 2.52787 104.432 4.82571C104.523 5.27808 104.574 5.75101 104.574 6.23937ZM89.1916 14.418H104.574V19.2142H88.8132C88.6172 19.2142 88.4257 19.2039 88.2388 19.1782C88.0063 19.1525 87.7784 19.1062 87.555 19.0497C85.5217 18.5151 83.9215 16.7107 83.4428 14.4129C83.4063 14.2432 83.3789 14.0736 83.3561 13.904C83.3197 13.6058 83.2969 13.3025 83.2969 12.9941V7.4217H87.5504V12.5674C87.555 13.5904 88.289 14.418 89.1916 14.418Z" fill="black"/>
    <path d="M129.276 0.0244141V19.2142H125.023V12.0174H112.257V19.2142H108.004V0.0244141H112.257V7.22122H125.023V0.0244141H129.276Z" fill="black"/>
    <path d="M165.428 0.0244141V19.2142H161.175V12.0174H148.41V19.2142H144.156V0.0244141H148.41V7.22122H161.175V0.0244141H165.428Z" fill="#930043"/>
    <path d="M190.376 0.0244141V19.2142H186.237V17.1579L184.582 19.2142H173.982C171.475 18.9212 169.464 16.7313 169.1 13.9399V0.0244141H173.353V12.5726C173.353 13.5904 174.087 14.418 174.99 14.418H186.109L186.118 0.0244141H190.376Z" fill="#930043"/>
    <path d="M215.458 12.1009C215.512 12.4453 215.54 12.8 215.54 13.1599C215.54 13.5814 215.503 13.9926 215.43 14.3885C214.961 16.9639 213.037 18.943 210.666 19.1846C210.507 19.2001 210.343 19.2103 210.174 19.2103C210.005 19.2103 209.846 19.2001 209.682 19.1846H198.466V19.2103H194.213V14.3936H194.217V12.1061H194.213V7.35102H194.217V4.74989H194.213V0H210.174C212.754 0 214.915 2.05623 215.426 4.79616C215.503 5.20226 215.54 5.61865 215.54 6.05046C215.54 6.48227 215.499 6.89865 215.426 7.30476C215.271 8.15295 214.952 8.93432 214.519 9.60774C214.984 10.3326 215.312 11.1808 215.458 12.1009ZM211.286 6.05046C211.286 5.36162 210.789 4.79616 210.174 4.79616H207.024V4.74989H198.471V7.35102H207.024V7.30476H210.174C210.374 7.30476 210.557 7.24821 210.721 7.1454C211.058 6.9295 211.286 6.51825 211.286 6.05046ZM211.286 13.165C211.286 12.7178 211.077 12.3271 210.767 12.1061H198.476V14.3936H210.402C210.903 14.2754 211.286 13.7665 211.286 13.165Z" fill="#930043"/>
    </svg>
    