<?xml version="1.0" encoding="UTF-8"?>
<svg xmlns="http://www.w3.org/2000/svg" width="25" height="25" viewBox="0 0 25 25" fill="none">
  <path d="M18.3161 14.2355C18.5278 14.2101 18.7228 14.108 18.8644 13.9486C19.006 13.7892 19.0843 13.5835 19.0845 13.3703V12.5702C19.0843 12.3571 19.0061 12.1514 18.8646 11.992C18.7232 11.8326 18.5282 11.7305 18.3167 11.705L17.3311 11.5855C17.2043 11.0886 17.0068 10.6125 16.7447 10.1718L17.3548 9.39314C17.4876 9.22551 17.5543 9.015 17.5422 8.80149C17.5302 8.58797 17.4403 8.38629 17.2895 8.23465L16.7224 7.66758C16.5712 7.51762 16.3703 7.42818 16.1577 7.41612C15.945 7.40406 15.7353 7.47021 15.5681 7.6021L14.787 8.21409C14.3462 7.95197 13.8702 7.7545 13.3733 7.62771L13.2538 6.64266C13.2284 6.43099 13.1263 6.23596 12.9669 6.09439C12.8075 5.95282 12.6018 5.87452 12.3886 5.87427H11.5885C11.3754 5.8745 11.1697 5.95273 11.0103 6.09419C10.8509 6.23565 10.7488 6.43056 10.7233 6.64214L10.6038 7.62771C10.1069 7.7545 9.63085 7.95198 9.19013 8.21411L8.41146 7.60403C8.24375 7.47142 8.03328 7.40484 7.81981 7.41687C7.60635 7.4289 7.4047 7.51872 7.25296 7.66934L6.68589 8.23638C6.53593 8.38762 6.44649 8.5885 6.43443 8.80114C6.42236 9.01378 6.48852 9.22348 6.62041 9.39071L7.23241 10.1718C6.97028 10.6125 6.77281 11.0886 6.64602 11.5855L5.66097 11.705C5.4493 11.7304 5.25427 11.8325 5.1127 11.9919C4.97113 12.1513 4.89283 12.357 4.89258 12.5702V13.3703C4.89281 13.5834 4.97104 13.7891 5.1125 13.9485C5.25396 14.1079 5.44887 14.21 5.66045 14.2355L6.64602 14.355C6.77281 14.8519 6.97029 15.3279 7.23242 15.7687L6.62234 16.5473C6.48955 16.715 6.42286 16.9255 6.43489 17.139C6.44693 17.3525 6.53686 17.5542 6.68765 17.7058L7.25469 18.2729C7.40589 18.4229 7.60678 18.5124 7.81944 18.5245C8.0321 18.5365 8.24182 18.4703 8.40902 18.3384L9.19013 17.7264C9.63085 17.9885 10.1069 18.186 10.6038 18.3128L10.7233 19.2978C10.7487 19.5095 10.8508 19.7045 11.0102 19.8461C11.1696 19.9877 11.3753 20.066 11.5885 20.0662H12.3886C12.6017 20.066 12.8074 19.9878 12.9668 19.8463C13.1262 19.7048 13.2283 19.5099 13.2538 19.2984L13.3733 18.3128C13.8702 18.186 14.3463 17.9885 14.787 17.7264L15.5656 18.3365C15.7333 18.4693 15.9438 18.536 16.1573 18.524C16.3708 18.512 16.5725 18.422 16.7241 18.2712L17.2912 17.7041C17.4412 17.5529 17.5306 17.352 17.5427 17.1393C17.5547 16.9267 17.4886 16.717 17.3567 16.5498L16.7447 15.7686C17.0068 15.3279 17.2043 14.8518 17.3311 14.355L18.3161 14.2355ZM16.6905 13.959C16.571 14.5426 16.3407 15.0978 16.012 15.5947C15.9707 15.6571 15.9501 15.731 15.9531 15.8058C15.9561 15.8806 15.9826 15.9525 16.0287 16.0114L16.7971 16.9921C16.8208 17.0226 16.8327 17.0606 16.8305 17.0991C16.8283 17.1376 16.8121 17.174 16.7851 17.2015L16.2215 17.7651C16.1936 17.7929 16.1564 17.8095 16.117 17.8117C16.0776 17.8139 16.0388 17.8015 16.008 17.7769L15.0297 17.0104C14.9709 16.9641 14.8989 16.9376 14.8241 16.9346C14.7492 16.9316 14.6754 16.9523 14.613 16.9937C14.1161 17.3224 13.5609 17.5527 12.9773 17.6722C12.9041 17.6873 12.8375 17.725 12.7869 17.78C12.7363 17.8349 12.7043 17.9044 12.6953 17.9786L12.5457 19.2129C12.5411 19.2514 12.5226 19.2869 12.4937 19.3127C12.4647 19.3384 12.4274 19.3528 12.3886 19.3529H11.5885C11.5497 19.3527 11.5122 19.3384 11.4833 19.3125C11.4543 19.2866 11.4359 19.2509 11.4314 19.2124L11.2818 17.9786C11.2728 17.9044 11.2408 17.835 11.1902 17.78C11.1396 17.725 11.073 17.6873 10.9998 17.6723C10.4162 17.5527 9.86097 17.3224 9.36413 16.9937C9.3017 16.9524 9.22785 16.9318 9.15304 16.9348C9.07824 16.9378 9.00628 16.9643 8.94736 17.0104L7.96666 17.7788C7.93626 17.8026 7.89825 17.8145 7.85973 17.8123C7.82121 17.8101 7.78481 17.7939 7.75733 17.7668L7.19374 17.2032C7.16586 17.1753 7.14924 17.1381 7.14706 17.0987C7.14487 17.0593 7.15728 17.0205 7.1819 16.9897L7.94838 16.0115C7.99455 15.9525 8.02101 15.8806 8.02401 15.8058C8.02701 15.731 8.0064 15.6571 7.9651 15.5947C7.63642 15.0978 7.40609 14.5426 7.28657 13.959C7.27147 13.8858 7.23378 13.8192 7.17881 13.7686C7.12385 13.718 7.05438 13.686 6.98022 13.677L5.74595 13.5274C5.70745 13.5228 5.67195 13.5043 5.64616 13.4754C5.62036 13.4464 5.60605 13.409 5.60592 13.3703V12.5702C5.60607 12.5314 5.62046 12.4939 5.64635 12.465C5.67225 12.436 5.70787 12.4176 5.74645 12.4131L6.98021 12.2635C7.05437 12.2545 7.12384 12.2225 7.1788 12.1719C7.23377 12.1213 7.27146 12.0547 7.28656 11.9815C7.40608 11.3979 7.63642 10.8427 7.96509 10.3458C8.00639 10.2834 8.027 10.2095 8.024 10.1347C8.021 10.0599 7.99454 9.98798 7.94837 9.92905L7.17997 8.94835C7.15625 8.91793 7.1444 8.87993 7.14661 8.84142C7.14882 8.80291 7.16495 8.76652 7.19199 8.73901L7.75557 8.17543C7.78339 8.14739 7.82062 8.13067 7.86006 8.12848C7.89949 8.12629 7.93834 8.1388 7.96909 8.16359L8.94735 8.93007C9.00631 8.97616 9.07826 9.00257 9.15304 9.00557C9.22782 9.00857 9.30165 8.98801 9.36412 8.94679C9.86096 8.61812 10.4162 8.38778 10.9998 8.26826C11.073 8.25316 11.1396 8.21547 11.1902 8.1605C11.2408 8.10554 11.2728 8.03607 11.2818 7.96191L11.4314 6.72764C11.436 6.68914 11.4545 6.65364 11.4834 6.62785C11.5123 6.60205 11.5497 6.58774 11.5885 6.58761H12.3886C12.4274 6.58776 12.4649 6.60215 12.4938 6.62804C12.5228 6.65394 12.5412 6.68956 12.5457 6.72814L12.6953 7.9619C12.7043 8.03606 12.7363 8.10553 12.7869 8.16049C12.8375 8.21546 12.9041 8.25315 12.9772 8.26825C13.5609 8.38777 14.1161 8.6181 14.613 8.94678C14.6754 8.98812 14.7492 9.00876 14.824 9.00575C14.8989 9.00275 14.9708 8.97627 15.0297 8.93006L16.0104 8.16166C16.0409 8.13798 16.0789 8.12615 16.1174 8.12836C16.1559 8.13057 16.1922 8.14667 16.2198 8.17368L16.7833 8.73726C16.8112 8.76517 16.8278 8.80237 16.83 8.84176C16.8322 8.88115 16.8198 8.91996 16.7952 8.95078L16.0287 9.92904C15.9825 9.98797 15.9561 10.0599 15.9531 10.1347C15.9501 10.2095 15.9707 10.2834 16.012 10.3458C16.3407 10.8426 16.571 11.3979 16.6905 11.9815C16.7056 12.0547 16.7433 12.1213 16.7983 12.1719C16.8533 12.2224 16.9227 12.2545 16.9969 12.2635L18.2312 12.4131C18.2697 12.4177 18.3052 12.4362 18.331 12.4651C18.3568 12.494 18.3711 12.5314 18.3712 12.5702V13.3703C18.371 13.4091 18.3567 13.4466 18.3308 13.4755C18.3049 13.5045 18.2693 13.5229 18.2307 13.5274L16.9969 13.677C16.9227 13.686 16.8533 13.718 16.7983 13.7686C16.7433 13.8192 16.7056 13.8858 16.6905 13.959Z" fill="black"></path>
  <path d="M11.9885 8.93091C10.9176 8.9321 9.89088 9.35805 9.13362 10.1153C8.37636 10.8726 7.95041 11.8993 7.94922 12.9702C8.17101 18.3289 15.8068 18.3274 16.0278 12.9702C16.0266 11.8993 15.6007 10.8725 14.8434 10.1153C14.0862 9.35804 13.0594 8.9321 11.9885 8.93091ZM11.9885 16.2962C11.1067 16.2951 10.2614 15.9444 9.63784 15.3209C9.01432 14.6974 8.66358 13.852 8.66258 12.9702C8.84531 8.5579 15.1324 8.55919 15.3145 12.9702C15.3135 13.852 14.9627 14.6974 14.3392 15.3209C13.7157 15.9444 12.8703 16.2952 11.9885 16.2962Z" fill="black"></path>
  <path d="M5.43077 6.41279C8.67259 3.03816 14.4224 2.79362 17.9384 5.85871L16.0915 5.97774C15.998 5.98508 15.9112 6.02892 15.8498 6.09978C15.7883 6.17065 15.7573 6.26283 15.7634 6.35641C15.7694 6.44998 15.812 6.53741 15.8821 6.59978C15.9521 6.66216 16.0438 6.69446 16.1375 6.68971L18.8209 6.51659C18.8431 6.51326 18.8649 6.50774 18.886 6.50014C18.9586 6.48279 19.0237 6.44272 19.0718 6.38579C19.12 6.32885 19.1488 6.25801 19.1539 6.1836L19.3272 3.49996C19.3319 3.40635 19.2996 3.31464 19.2372 3.24467C19.1748 3.1747 19.0874 3.1321 18.9939 3.12606C18.9003 3.12002 18.8082 3.15104 18.7373 3.2124C18.6665 3.27377 18.6226 3.36056 18.6152 3.454L18.4901 5.39269C14.7104 2.01215 8.44866 2.2404 4.92641 5.90853C3.45595 7.37888 2.48094 9.27144 2.13734 11.3223C1.79373 13.3732 2.09866 15.4802 3.00959 17.3495C3.05107 17.4346 3.12463 17.4997 3.21409 17.5305C3.30356 17.5612 3.40159 17.5552 3.48662 17.5138C3.57166 17.4723 3.63673 17.3987 3.66753 17.3093C3.69833 17.2198 3.69233 17.1218 3.65084 17.0367C2.80498 15.3009 2.52184 13.3444 2.84091 11.44C3.15997 9.53555 4.06533 7.77815 5.43077 6.41279Z" fill="black"></path>
  <path d="M20.8071 8.27852C20.7618 8.19677 20.6861 8.13611 20.5964 8.10961C20.5067 8.0831 20.4102 8.09286 20.3277 8.13678C20.2451 8.18071 20.1831 8.25529 20.155 8.34447C20.1269 8.43365 20.135 8.5303 20.1774 8.61363C21.1185 10.3656 21.468 12.3748 21.1739 14.3417C20.8798 16.3086 19.9577 18.1277 18.5453 19.5277C15.3035 22.9024 9.55372 23.1469 6.03765 20.0818L7.88462 19.9628C7.97815 19.9555 8.06506 19.9117 8.12652 19.8408C8.18798 19.7699 8.21905 19.6777 8.213 19.5841C8.20695 19.4905 8.16428 19.403 8.09421 19.3406C8.02414 19.2782 7.93232 19.246 7.83863 19.2508L5.15518 19.4239C5.06946 19.4316 4.98918 19.4692 4.92832 19.53C4.86747 19.5909 4.82991 19.6712 4.8222 19.7569L4.6489 22.4405C4.64413 22.5342 4.67643 22.626 4.73881 22.696C4.80119 22.766 4.88863 22.8087 4.98221 22.8147C5.0758 22.8207 5.168 22.7897 5.23886 22.7283C5.30972 22.6669 5.35356 22.58 5.36087 22.4865L5.48604 20.5478C7.29247 22.1077 9.60115 22.9632 11.9878 22.9573C19.4093 23.0533 24.4028 14.7921 20.8071 8.27852Z" fill="black"></path>
</svg>
