<?xml version="1.0" encoding="UTF-8"?>
<svg xmlns="http://www.w3.org/2000/svg" width="25" height="25" viewBox="0 0 25 25" fill="none">
  <path d="M21.9934 11.6406C21.9774 11.5904 21.9514 11.5451 21.9169 11.5066C20.3204 8.70788 17.5931 8.01463 16.6281 7.85463V6.10913C16.6281 5.90188 16.4601 5.73413 16.2531 5.73413H2.25586C2.04886 5.73413 1.88086 5.90188 1.88086 6.10913V16.5839C1.88086 16.7911 2.04886 16.9589 2.25586 16.9589H4.14511V16.9614C4.14511 18.1746 5.13211 19.1616 6.34536 19.1616C7.55861 19.1616 8.54561 18.1746 8.54561 16.9614C8.54561 16.9606 8.54561 16.9599 8.54561 16.9589H16.2531H16.8121C16.8104 16.9944 16.8069 17.0294 16.8069 17.0654C16.8069 18.2786 17.7939 19.2656 19.0071 19.2656C20.2204 19.2656 21.2074 18.2786 21.2074 17.0654C21.2074 17.0294 21.2036 16.9944 21.2021 16.9589H22.7456C22.8454 16.9589 22.9411 16.9191 23.0114 16.8484C23.0816 16.7776 23.1209 16.6816 23.1206 16.5819C23.1089 14.4656 22.6576 12.8609 21.9934 11.6406ZM20.9746 11.3801H16.6281V8.60763C17.4976 8.75513 19.5721 9.31638 20.9746 11.3801ZM6.34536 18.4116C5.54586 18.4116 4.89511 17.7609 4.89511 16.9614C4.89511 16.1619 5.54586 15.5111 6.34536 15.5111C7.14486 15.5111 7.79561 16.1616 7.79561 16.9614C7.79561 17.7611 7.14486 18.4116 6.34536 18.4116ZM6.34536 14.7611C5.39686 14.7611 4.58886 15.3656 4.28036 16.2089H2.63086V6.48413H15.8781V8.18263V16.2086H8.41036C8.10186 15.3656 7.29386 14.7611 6.34536 14.7611ZM19.0069 18.5156C18.2074 18.5156 17.5566 17.8649 17.5566 17.0654C17.5566 16.2659 18.2074 15.6151 19.0069 15.6151C19.8064 15.6151 20.4571 16.2656 20.4571 17.0654C20.4571 17.8651 19.8066 18.5156 19.0069 18.5156ZM21.0336 16.2089C20.6989 15.4199 19.9164 14.8651 19.0071 14.8651C18.0979 14.8651 17.3151 15.4199 16.9806 16.2089H16.6281V12.1301H21.4179C21.9439 13.1634 22.3084 14.4939 22.3631 16.2089H21.0336Z" fill="black"></path>
  <path d="M19.0072 16.1731C18.5152 16.1731 18.1152 16.5733 18.1152 17.0651C18.1152 17.5568 18.5155 17.9573 19.0072 17.9573C19.499 17.9573 19.8992 17.5571 19.8992 17.0651C19.8992 16.5731 19.4992 16.1731 19.0072 16.1731ZM19.0072 17.2076C18.929 17.2076 18.8652 17.1438 18.8652 17.0653C18.8652 16.9868 18.929 16.9233 19.0072 16.9233C19.0855 16.9233 19.1492 16.9871 19.1492 17.0653C19.1492 17.1436 19.0857 17.2076 19.0072 17.2076Z" fill="black"></path>
  <path d="M6.34512 16.1003C5.87062 16.1003 5.48438 16.4866 5.48438 16.9611C5.48438 17.4358 5.87062 17.8221 6.34512 17.8221C6.81962 17.8221 7.20587 17.4358 7.20587 16.9611C7.20587 16.4866 6.81962 16.1003 6.34512 16.1003ZM6.34512 17.0723C6.28412 17.0723 6.23438 17.0226 6.23438 16.9613C6.23438 16.9001 6.28412 16.8506 6.34512 16.8506C6.40612 16.8506 6.45587 16.9003 6.45587 16.9613C6.45587 17.0223 6.40612 17.0723 6.34512 17.0723Z" fill="black"></path>
  <path d="M17.2344 12.3799C17.0274 12.3799 16.8594 12.5476 16.8594 12.7549V13.7336C16.8594 13.9409 17.0274 14.1086 17.2344 14.1086C17.4414 14.1086 17.6094 13.9409 17.6094 13.7336V12.7549C17.6094 12.5476 17.4414 12.3799 17.2344 12.3799Z" fill="black"></path>
  <path d="M11.3848 7.80347H7.12453C6.65303 7.80347 6.26953 8.18697 6.26953 8.65847V12.9187C6.26953 13.3902 6.65303 13.7737 7.12453 13.7737H11.3848C11.8563 13.7737 12.2398 13.3902 12.2398 12.9187V8.65847C12.2398 8.18722 11.8563 7.80347 11.3848 7.80347ZM11.4898 12.9187C11.4898 12.9765 11.4428 13.0237 11.3848 13.0237H7.12453C7.06678 13.0237 7.01953 12.9767 7.01953 12.9187V8.65847C7.01953 8.60072 7.06653 8.55347 7.12453 8.55347H11.3848C11.4425 8.55347 11.4898 8.60047 11.4898 8.65847V12.9187Z" fill="black"></path>
  <path d="M10.9016 9.91159H10.1639V9.17334C10.1639 8.96609 9.99588 8.79834 9.78888 8.79834H8.78463C8.57763 8.79834 8.40963 8.96609 8.40963 9.17334V9.91159H7.67188C7.46487 9.91159 7.29688 10.0793 7.29688 10.2866V11.2906C7.29688 11.4978 7.46487 11.6656 7.67188 11.6656H8.40963V12.4036C8.40963 12.6108 8.57763 12.7786 8.78463 12.7786H9.78888C9.99588 12.7786 10.1639 12.6108 10.1639 12.4036V11.6656H10.9016C11.1086 11.6656 11.2766 11.4978 11.2766 11.2906V10.2866C11.2766 10.0796 11.1086 9.91159 10.9016 9.91159ZM10.5266 10.9156H9.78888C9.58188 10.9156 9.41388 11.0833 9.41388 11.2906V12.0286H9.15963V11.2906C9.15963 11.0833 8.99163 10.9156 8.78463 10.9156H8.04688V10.6616H8.78463C8.99163 10.6616 9.15963 10.4938 9.15963 10.2866V9.54834H9.41388V10.2866C9.41388 10.4938 9.58188 10.6616 9.78888 10.6616H10.5266V10.9156Z" fill="black"></path>
</svg>
