<svg width="355" height="400" viewBox="0 0 355 400" fill="none" xmlns="http://www.w3.org/2000/svg">
<path d="M16.2604 81.9397L162.256 5.18367C171.527 0.297499 182.957 0.297499 192.228 5.18367L338.223 81.9397C347.495 86.8259 353.209 95.8306 353.209 105.584V294.591C353.209 304.345 347.495 313.35 338.223 318.236L192.228 394.992C182.957 399.878 171.527 399.878 162.256 394.992L16.2604 318.236C6.98925 313.35 1.27441 304.345 1.27441 294.591V105.584C1.27441 95.8119 6.98925 86.8071 16.2604 81.9397Z" fill="white" stroke="#930043" stroke-width="2.23497" stroke-miterlimit="10"/>
<path d="M329.761 286.067C329.761 293.588 325.316 300.604 318.135 304.365L187.264 373.065C180.082 376.826 171.173 376.826 164.032 373.065L33.1204 304.365C25.939 300.604 21.4943 293.588 21.4943 286.067V269.41H14.1895V286.067C14.1895 295.946 20.0334 305.151 29.4577 310.09L160.37 378.809C165.061 381.279 170.349 382.513 175.638 382.513C180.906 382.513 186.173 381.279 190.885 378.809L321.797 310.09C331.222 305.151 337.066 295.946 337.066 286.067V269.41H329.781V286.067H329.761ZM321.797 90.0752L190.885 21.375C181.482 16.417 169.773 16.4357 160.37 21.375L29.4783 90.0752C20.0539 95.0332 14.21 104.238 14.21 114.117V207.756H21.5149V114.117C21.5149 106.595 25.9596 99.5795 33.141 95.819L163.991 27.1187C171.173 23.3581 180.082 23.3581 187.223 27.1187L318.135 95.819C325.316 99.5795 329.761 106.595 329.761 114.117V207.756H337.045V114.117C337.066 104.238 331.222 95.0332 321.797 90.0752Z" fill="#930043"/>
<path d="M103.38 95.8344V77.762H106.95L109.512 91.5986L112.074 77.762H115.644V95.8344H113.062V81.5741L110.48 95.8344H108.544L105.962 81.5741V95.8344H103.38ZM124.537 96.0159C123.629 96.0159 122.85 95.8781 122.197 95.6024C121.552 95.3267 121.038 94.9233 120.654 94.3922C120.271 93.861 119.992 93.2391 119.817 92.5265C119.643 91.8071 119.555 90.9734 119.555 90.0254V83.4701C119.555 82.5221 119.643 81.6951 119.817 80.9892C119.992 80.2832 120.271 79.6714 120.654 79.1537C121.038 78.6293 121.552 78.236 122.197 77.9738C122.85 77.7116 123.629 77.5805 124.537 77.5805C126.299 77.5805 127.569 78.0847 128.349 79.0932C129.129 80.1017 129.519 81.5607 129.519 83.4701V90.0254C129.519 90.9599 129.428 91.7869 129.247 92.5063C129.072 93.219 128.793 93.8442 128.41 94.3821C128.027 94.9133 127.509 95.32 126.857 95.6024C126.211 95.8781 125.438 96.0159 124.537 96.0159ZM122.651 93.0811C123.001 93.6257 123.629 93.898 124.537 93.898C125.445 93.898 126.07 93.6257 126.413 93.0811C126.763 92.5365 126.937 91.7331 126.937 90.6708V82.8247C126.937 81.7758 126.766 80.9926 126.423 80.4749C126.08 79.9572 125.452 79.6983 124.537 79.6983C123.623 79.6983 122.994 79.9572 122.651 80.4749C122.308 80.9926 122.137 81.7758 122.137 82.8247V90.6708C122.137 91.7331 122.308 92.5365 122.651 93.0811ZM138.14 96.0159C136.513 96.0159 135.269 95.5385 134.409 94.5838C133.555 93.6291 133.078 92.3248 132.977 90.6708L135.558 90.0254C135.686 92.6071 136.547 93.898 138.14 93.898C139.431 93.898 140.077 93.2526 140.077 91.9617C140.077 91.5785 140.023 91.2255 139.915 90.9028C139.814 90.5733 139.656 90.2741 139.441 90.0052C139.226 89.7295 139.031 89.511 138.856 89.3497C138.681 89.1816 138.443 88.9765 138.14 88.7345L134.913 86.1527C134.321 85.6888 133.847 85.1005 133.491 84.3878C133.141 83.6685 132.967 82.8516 132.967 81.9372C132.967 80.606 133.38 79.547 134.207 78.7604C135.034 77.9738 136.13 77.5805 137.495 77.5805C138.96 77.5805 140.124 77.9402 140.984 78.6596C141.852 79.3722 142.386 80.3841 142.588 81.6951C142.608 81.8363 142.631 82.0313 142.658 82.2801L140.077 82.9255C140.07 82.8112 140.053 82.6398 140.026 82.4112C139.912 81.5909 139.653 80.9354 139.25 80.4446C138.853 79.9471 138.268 79.6983 137.495 79.6983C136.876 79.6983 136.399 79.8731 136.063 80.2227C135.727 80.5656 135.558 81.0463 135.558 81.6649C135.558 82.6801 135.989 83.5306 136.849 84.2164L140.077 86.7982C141.798 88.1899 142.658 89.8539 142.658 91.7903C142.658 93.1148 142.248 94.1502 141.428 94.8964C140.614 95.6427 139.519 96.0159 138.14 96.0159ZM148.123 95.8344V80.0614H144.896V77.762H153.932V80.0614H150.705V95.8344H148.123ZM165.294 85.5073H165.94C167.016 85.5073 167.822 85.2821 168.36 84.8316C168.898 84.3744 169.167 83.6315 169.167 82.6028C169.167 81.5741 168.898 80.8346 168.36 80.3841C167.822 79.9269 167.016 79.6983 165.94 79.6983H165.294V85.5073ZM162.713 95.8344V77.762H165.94C167.863 77.762 169.312 78.1351 170.286 78.8814C171.261 79.6277 171.749 80.8682 171.749 82.6028C171.749 83.6785 171.557 84.5795 171.174 85.3056C170.791 86.0317 170.229 86.5292 169.49 86.7982L172.394 95.8344H169.833L167.231 87.4436H165.294V95.8344H162.713ZM175.539 95.8344V77.762H182.639V79.6983H178.121V85.5073H181.348V87.4436H178.121V93.898H182.639V95.8344H175.539ZM188.588 95.8344L184.715 77.762H187.297L189.203 87.4436L189.868 91.9617L190.554 87.4436L192.46 77.762H195.042L191.169 95.8344H188.588ZM198.227 95.8344V77.762H200.809V95.8344H198.227ZM205.225 95.8344V77.762H212.324V79.6983H207.806V85.5073H211.034V87.4436H207.806V93.898H212.324V95.8344H205.225ZM217.617 95.8344L214.39 77.762H216.972L218.263 86.1527L218.918 91.3163L219.554 86.1527L220.845 77.762H223.426L224.717 86.1527L225.353 91.3163L226.008 86.1527L227.299 77.762H229.881L226.654 95.8344H224.072L222.781 87.4436L222.136 82.2801L221.49 87.4436L220.199 95.8344H217.617ZM232.935 95.8344V77.762H240.035V79.6983H235.517V85.5073H238.744V87.4436H235.517V93.898H240.035V95.8344H232.935ZM243.281 95.8344V77.762H247.284C249.174 77.762 250.505 78.1486 251.278 78.9218C252.058 79.695 252.448 81.0295 252.448 82.9255V90.0254C252.448 92.0088 252.051 93.4745 251.258 94.4224C250.471 95.3637 249.14 95.8344 247.264 95.8344H243.281ZM245.862 93.898H247.284C247.708 93.898 248.071 93.861 248.374 93.7871C248.676 93.7064 248.921 93.5652 249.11 93.3635C249.298 93.1551 249.446 92.9601 249.553 92.7786C249.661 92.5903 249.735 92.3012 249.775 91.9113C249.822 91.5213 249.849 91.202 249.856 90.9532C249.863 90.6977 249.866 90.3044 249.866 89.7733C249.866 89.5984 249.866 89.4673 249.866 89.3799V83.571C249.866 83.2415 249.863 82.9793 249.856 82.7843C249.856 82.5894 249.846 82.3608 249.826 82.0985C249.812 81.8296 249.789 81.6178 249.755 81.4632C249.722 81.3086 249.675 81.1371 249.614 80.9489C249.553 80.7539 249.476 80.6026 249.382 80.495C249.295 80.3875 249.184 80.2765 249.049 80.1622C248.921 80.0412 248.77 79.9538 248.595 79.9C248.427 79.8395 248.229 79.7924 248 79.7588C247.772 79.7185 247.516 79.6983 247.234 79.6983H245.862V93.898Z" fill="#930043"/>
<path d="M48.6253 148L48.9728 127.898H52.7698L55.6237 141.821L58.6018 127.898H62.2747L62.6469 148H59.9171L59.6193 134.028L56.7653 148H54.5566L51.653 133.978L51.38 148H48.6253ZM71.0752 148.273C69.6524 148.273 68.519 148.008 67.6753 147.479C66.8315 146.949 66.2276 146.188 65.8636 145.196C65.4996 144.203 65.3177 143.028 65.3177 141.672V134.152C65.3177 132.795 65.4996 131.637 65.8636 130.678C66.2276 129.702 66.8315 128.957 67.6753 128.444C68.519 127.931 69.6524 127.675 71.0752 127.675C72.5311 127.675 73.6727 127.931 74.4999 128.444C75.3437 128.957 75.9476 129.702 76.3116 130.678C76.6921 131.637 76.8824 132.795 76.8824 134.152V141.696C76.8824 143.037 76.6921 144.203 76.3116 145.196C75.9476 146.172 75.3437 146.933 74.4999 147.479C73.6727 148.008 72.5311 148.273 71.0752 148.273ZM71.0752 145.568C71.6873 145.568 72.134 145.436 72.4153 145.171C72.7131 144.906 72.9116 144.542 73.0109 144.079C73.1102 143.616 73.1598 143.111 73.1598 142.565V133.308C73.1598 132.746 73.1102 132.241 73.0109 131.795C72.9116 131.348 72.7131 131 72.4153 130.752C72.134 130.488 71.6873 130.355 71.0752 130.355C70.4961 130.355 70.0577 130.488 69.7599 130.752C69.4621 131 69.2636 131.348 69.1643 131.795C69.065 132.241 69.0154 132.746 69.0154 133.308V142.565C69.0154 143.111 69.0567 143.616 69.1395 144.079C69.2387 144.542 69.4373 144.906 69.7351 145.171C70.0329 145.436 70.4796 145.568 71.0752 145.568ZM79.5992 148V127.898H84.5378C85.4312 127.898 86.2336 127.981 86.9451 128.146C87.673 128.312 88.2934 128.593 88.8063 128.99C89.3358 129.371 89.7411 129.892 90.0224 130.554C90.3036 131.215 90.4442 132.051 90.4442 133.06C90.4442 133.871 90.3284 134.566 90.0968 135.145C89.8817 135.724 89.5591 136.187 89.1289 136.535C88.6988 136.865 88.1611 137.089 87.5158 137.205C88.31 137.337 88.9635 137.618 89.4764 138.048C90.0058 138.462 90.3946 139.008 90.6428 139.686C90.9075 140.365 91.0398 141.184 91.0398 142.143C91.0398 143.103 90.9158 143.955 90.6676 144.699C90.436 145.427 90.0803 146.039 89.6005 146.536C89.1372 147.016 88.5499 147.38 87.8385 147.628C87.1436 147.876 86.3246 148 85.3816 148H79.5992ZM83.2721 145.419H84.6619C85.7704 145.419 86.5232 145.154 86.9202 144.625C87.3173 144.079 87.5158 143.243 87.5158 142.118C87.5158 141.308 87.4166 140.654 87.218 140.158C87.036 139.645 86.7217 139.264 86.275 139.016C85.8448 138.768 85.2658 138.644 84.5378 138.644H83.2721V145.419ZM83.2721 136.113H84.513C85.241 136.113 85.8035 136.005 86.2005 135.79C86.5976 135.575 86.8706 135.244 87.0195 134.797C87.1849 134.351 87.2677 133.788 87.2677 133.11C87.2677 132.398 87.1436 131.852 86.8954 131.472C86.6638 131.075 86.3081 130.81 85.8283 130.678C85.3485 130.529 84.7363 130.454 83.9918 130.454H83.2721V136.113ZM93.5126 148V127.898H97.1359V148H93.5126ZM100.248 148V127.898H103.921V145.469H108.785V148H100.248ZM110.693 148V127.898H119.131V130.479H114.366V136.262H118.113V138.818H114.366V145.469H119.181V148H110.693ZM126.325 148L130.346 127.898H134.267L138.287 148H134.887L134.093 143.359H130.594L129.775 148H126.325ZM130.966 141.026H133.696L132.331 132.589L130.966 141.026ZM140.309 148V127.898H146.215C147.423 127.898 148.399 128.122 149.144 128.568C149.905 129.015 150.459 129.669 150.806 130.529C151.17 131.373 151.352 132.398 151.352 133.606C151.352 134.913 151.129 135.972 150.682 136.783C150.235 137.577 149.607 138.156 148.796 138.52C148.002 138.884 147.059 139.066 145.967 139.066H143.982V148H140.309ZM143.982 136.485H145.371C146.033 136.485 146.546 136.394 146.91 136.212C147.291 136.013 147.547 135.707 147.679 135.294C147.828 134.864 147.903 134.293 147.903 133.581C147.903 132.853 147.845 132.266 147.729 131.819C147.63 131.356 147.398 131.017 147.034 130.802C146.687 130.587 146.132 130.479 145.371 130.479H143.982V136.485ZM153.396 148V127.898H159.302C160.51 127.898 161.486 128.122 162.231 128.568C162.992 129.015 163.546 129.669 163.893 130.529C164.257 131.373 164.439 132.398 164.439 133.606C164.439 134.913 164.216 135.972 163.769 136.783C163.323 137.577 162.694 138.156 161.883 138.52C161.089 138.884 160.146 139.066 159.054 139.066H157.069V148H153.396ZM157.069 136.485H158.458C159.12 136.485 159.633 136.394 159.997 136.212C160.378 136.013 160.634 135.707 160.766 135.294C160.915 134.864 160.99 134.293 160.99 133.581C160.99 132.853 160.932 132.266 160.816 131.819C160.717 131.356 160.485 131.017 160.121 130.802C159.774 130.587 159.219 130.479 158.458 130.479H157.069V136.485ZM172.517 148V127.898H177.257C178.895 127.898 180.169 128.122 181.079 128.568C182.006 129.015 182.659 129.702 183.04 130.628C183.437 131.555 183.635 132.729 183.635 134.152V141.498C183.635 142.954 183.437 144.17 183.04 145.146C182.659 146.106 182.014 146.825 181.104 147.305C180.211 147.768 178.978 148 177.406 148H172.517ZM176.19 145.444H177.307C178.151 145.444 178.755 145.295 179.119 144.997C179.483 144.699 179.706 144.269 179.789 143.707C179.871 143.128 179.913 142.424 179.913 141.597V133.904C179.913 133.093 179.855 132.44 179.739 131.943C179.623 131.447 179.383 131.083 179.019 130.851C178.655 130.62 178.068 130.504 177.257 130.504H176.19V145.444ZM186.332 148V127.898H194.769V130.479H190.004V136.262H193.752V138.818H190.004V145.469H194.819V148H186.332ZM200.024 148L195.979 127.898H199.23L201.885 142.118L204.367 127.898H207.692L203.647 148H200.024ZM209.743 148V127.898H218.181V130.479H213.416V136.262H217.163V138.818H213.416V145.469H218.23V148H209.743ZM220.358 148V127.898H224.031V145.469H228.895V148H220.358ZM236.021 148.273C234.598 148.273 233.465 148.008 232.621 147.479C231.777 146.949 231.173 146.188 230.809 145.196C230.445 144.203 230.263 143.028 230.263 141.672V134.152C230.263 132.795 230.445 131.637 230.809 130.678C231.173 129.702 231.777 128.957 232.621 128.444C233.465 127.931 234.598 127.675 236.021 127.675C237.477 127.675 238.618 127.931 239.445 128.444C240.289 128.957 240.893 129.702 241.257 130.678C241.638 131.637 241.828 132.795 241.828 134.152V141.696C241.828 143.037 241.638 144.203 241.257 145.196C240.893 146.172 240.289 146.933 239.445 147.479C238.618 148.008 237.477 148.273 236.021 148.273ZM236.021 145.568C236.633 145.568 237.08 145.436 237.361 145.171C237.659 144.906 237.857 144.542 237.956 144.079C238.056 143.616 238.105 143.111 238.105 142.565V133.308C238.105 132.746 238.056 132.241 237.956 131.795C237.857 131.348 237.659 131 237.361 130.752C237.08 130.488 236.633 130.355 236.021 130.355C235.442 130.355 235.003 130.488 234.705 130.752C234.408 131 234.209 131.348 234.11 131.795C234.011 132.241 233.961 132.746 233.961 133.308V142.565C233.961 143.111 234.002 143.616 234.085 144.079C234.184 144.542 234.383 144.906 234.681 145.171C234.978 145.436 235.425 145.568 236.021 145.568ZM244.545 148V127.898H250.451C251.659 127.898 252.635 128.122 253.38 128.568C254.141 129.015 254.695 129.669 255.042 130.529C255.406 131.373 255.588 132.398 255.588 133.606C255.588 134.913 255.365 135.972 254.918 136.783C254.472 137.577 253.843 138.156 253.032 138.52C252.238 138.884 251.295 139.066 250.203 139.066H248.218V148H244.545ZM248.218 136.485H249.607C250.269 136.485 250.782 136.394 251.146 136.212C251.527 136.013 251.783 135.707 251.915 135.294C252.064 134.864 252.139 134.293 252.139 133.581C252.139 132.853 252.081 132.266 251.965 131.819C251.866 131.356 251.634 131.017 251.27 130.802C250.923 130.587 250.368 130.479 249.607 130.479H248.218V136.485ZM257.582 148L257.93 127.898H261.727L264.581 141.821L267.559 127.898H271.231L271.604 148H268.874L268.576 134.028L265.722 148H263.513L260.61 133.978L260.337 148H257.582ZM274.572 148V127.898H283.01V130.479H278.245V136.262H281.993V138.818H278.245V145.469H283.06V148H274.572ZM285.187 148V127.898H287.743L292.632 139.364V127.898H295.66V148H293.228L288.314 135.989V148H285.187ZM300.721 148V130.603H297.519V127.898H307.545V130.603H304.394V148H300.721ZM136.97 185.273C135.497 185.273 134.339 184.983 133.495 184.404C132.668 183.825 132.089 183.039 131.758 182.047C131.427 181.038 131.262 179.879 131.262 178.572V171.4C131.262 170.027 131.427 168.836 131.758 167.827C132.089 166.817 132.668 166.04 133.495 165.494C134.339 164.948 135.497 164.675 136.97 164.675C138.36 164.675 139.443 164.915 140.221 165.395C141.015 165.858 141.578 166.528 141.908 167.405C142.239 168.282 142.405 169.299 142.405 170.457V172.145H138.881V170.408C138.881 169.845 138.848 169.332 138.781 168.869C138.732 168.406 138.575 168.042 138.31 167.777C138.062 167.496 137.623 167.355 136.995 167.355C136.366 167.355 135.903 167.504 135.605 167.802C135.324 168.083 135.142 168.472 135.059 168.968C134.976 169.448 134.935 169.994 134.935 170.606V179.342C134.935 180.07 134.993 180.674 135.109 181.153C135.224 181.617 135.431 181.972 135.729 182.221C136.043 182.452 136.465 182.568 136.995 182.568C137.607 182.568 138.037 182.427 138.285 182.146C138.55 181.848 138.715 181.459 138.781 180.98C138.848 180.5 138.881 179.962 138.881 179.367V177.555H142.405V179.168C142.405 180.359 142.248 181.418 141.933 182.345C141.619 183.255 141.065 183.974 140.27 184.504C139.493 185.017 138.393 185.273 136.97 185.273ZM150.422 185.273C148.999 185.273 147.865 185.008 147.022 184.479C146.178 183.949 145.574 183.188 145.21 182.196C144.846 181.203 144.664 180.028 144.664 178.672V171.152C144.664 169.795 144.846 168.637 145.21 167.678C145.574 166.702 146.178 165.957 147.022 165.444C147.865 164.931 148.999 164.675 150.422 164.675C151.878 164.675 153.019 164.931 153.846 165.444C154.69 165.957 155.294 166.702 155.658 167.678C156.038 168.637 156.229 169.795 156.229 171.152V178.696C156.229 180.037 156.038 181.203 155.658 182.196C155.294 183.172 154.69 183.933 153.846 184.479C153.019 185.008 151.878 185.273 150.422 185.273ZM150.422 182.568C151.034 182.568 151.48 182.436 151.762 182.171C152.06 181.906 152.258 181.542 152.357 181.079C152.457 180.616 152.506 180.111 152.506 179.565V170.308C152.506 169.746 152.457 169.241 152.357 168.795C152.258 168.348 152.06 168 151.762 167.752C151.48 167.488 151.034 167.355 150.422 167.355C149.843 167.355 149.404 167.488 149.106 167.752C148.808 168 148.61 168.348 148.511 168.795C148.411 169.241 148.362 169.746 148.362 170.308V179.565C148.362 180.111 148.403 180.616 148.486 181.079C148.585 181.542 148.784 181.906 149.081 182.171C149.379 182.436 149.826 182.568 150.422 182.568ZM158.896 185L159.243 164.898H163.04L165.894 178.821L168.872 164.898H172.545L172.918 185H170.188L169.89 171.028L167.036 185H164.827L161.924 170.978L161.651 185H158.896ZM175.886 185V164.898H181.793C183 164.898 183.976 165.122 184.721 165.568C185.482 166.015 186.036 166.669 186.384 167.529C186.748 168.373 186.93 169.398 186.93 170.606C186.93 171.913 186.706 172.972 186.26 173.783C185.813 174.577 185.184 175.156 184.374 175.52C183.579 175.884 182.636 176.066 181.544 176.066H179.559V185H175.886ZM179.559 173.485H180.949C181.611 173.485 182.123 173.394 182.487 173.212C182.868 173.013 183.124 172.707 183.257 172.294C183.406 171.864 183.48 171.293 183.48 170.581C183.48 169.853 183.422 169.266 183.306 168.819C183.207 168.356 182.975 168.017 182.611 167.802C182.264 167.587 181.71 167.479 180.949 167.479H179.559V173.485ZM186.889 185L190.91 164.898H194.831L198.851 185H195.451L194.657 180.359H191.158L190.339 185H186.889ZM191.53 178.026H194.26L192.895 169.589L191.53 178.026ZM200.873 185V164.898H203.429L208.318 176.364V164.898H211.345V185H208.913L204 172.989V185H200.873ZM217.2 185V177.332L213.13 164.898H216.555L219.037 172.865L221.37 164.898H224.72L220.7 177.332V185H217.2Z" fill="black"/>
<rect x="1.27441" y="216.007" width="351.935" height="44.37" fill="#930043"/>
<circle cx="177.745" cy="235.165" r="37.3111" fill="white"/>
<path d="M69.9464 223.671L74.3398 232.571L84.1643 234.007L77.0554 240.931L78.7331 250.713L69.9464 246.092L61.1598 250.713L62.8375 240.931L55.7285 234.007L65.5531 232.571L69.9464 223.671Z" fill="white"/>
<path d="M111.051 223.671L115.444 232.571L125.269 234.007L118.16 240.931L119.838 250.713L111.051 246.092L102.264 250.713L103.942 240.931L96.833 234.007L106.658 232.571L111.051 223.671Z" fill="white"/>
<path d="M178.951 213.985L186.491 229.259L203.352 231.724L191.151 243.607L194.031 260.394L178.951 252.464L163.872 260.394L166.751 243.607L154.551 231.724L171.411 229.259L178.951 213.985Z" fill="#930043"/>
<path d="M240.725 223.671L245.118 232.571L254.943 234.007L247.834 240.931L249.511 250.713L240.725 246.092L231.938 250.713L233.616 240.931L226.507 234.007L236.331 232.571L240.725 223.671Z" fill="white"/>
<path d="M281.829 223.671L286.223 232.571L296.047 234.007L288.938 240.931L290.616 250.713L281.829 246.092L273.043 250.713L274.72 240.931L267.611 234.007L277.436 232.571L281.829 223.671Z" fill="white"/>
<g clip-path="url(#clip0_1015_2068)">
<path d="M185.685 290.143V294.897H181.195V284.068H179.61V294.897H174.856V284.068H173.272V300.971H168.782V290.143H167.197V307.31H168.782V302.556H179.61V313.384H181.195V296.481H185.685V307.31H187.269V290.143H185.685ZM179.61 300.971H174.856V296.481H179.61V300.971Z" fill="#930043"/>
<path d="M174.855 303.35H173.271V313.386H174.855V303.35Z" fill="#930043"/>
</g>
<path d="M134.355 321.465V330.958H132.236V327.398H125.874V330.958H123.754V321.465H125.874V325.026H132.236V321.465H134.355Z" fill="black"/>
<path d="M136.165 330.959V321.451H138.806V330.959H136.165Z" fill="black"/>
<path d="M150.951 323.837H146.711V330.957H144.592V323.837H140.35V321.464H150.951V323.837Z" fill="black"/>
<path d="M162.994 321.464V323.837H154.512V323.839H152.393V321.464H162.994ZM162.994 325.225V327.16H154.512V327.166H152.393V325.225H162.994ZM162.994 328.585V330.957H152.393V328.585H162.994Z" fill="black"/>
<path d="M175.414 324.539V325.617H173.295V324.75C173.295 324.246 172.929 323.837 172.479 323.837H164.813V321.464H172.667C172.883 321.464 173.092 321.492 173.295 321.546C174.308 321.81 175.105 322.703 175.344 323.839C175.389 324.063 175.414 324.297 175.414 324.539ZM167.748 328.585H175.414V330.957H167.56C167.462 330.957 167.367 330.952 167.273 330.939C167.158 330.927 167.044 330.904 166.933 330.876C165.919 330.611 165.122 329.719 164.883 328.582C164.865 328.498 164.851 328.414 164.84 328.33C164.822 328.183 164.811 328.033 164.811 327.88V325.124H166.93V327.669C166.933 328.175 167.298 328.585 167.748 328.585Z" fill="black"/>
<path d="M187.722 321.464V330.957H185.602V327.397H179.24V330.957H177.12V321.464H179.24V325.024H185.602V321.464H187.722Z" fill="black"/>
<path d="M205.742 321.464V330.957H203.622V327.397H197.26V330.957H195.141V321.464H197.26V325.024H203.622V321.464H205.742Z" fill="#930043"/>
<path d="M218.175 321.464V330.957H216.112V329.94L215.287 330.957H210.005C208.755 330.812 207.753 329.729 207.571 328.348V321.464H209.691V327.672C209.691 328.175 210.057 328.585 210.507 328.585H216.048L216.053 321.464H218.175Z" fill="#930043"/>
<path d="M230.674 327.437C230.701 327.608 230.715 327.783 230.715 327.961C230.715 328.17 230.697 328.373 230.66 328.569C230.426 329.843 229.467 330.822 228.286 330.942C228.206 330.949 228.125 330.954 228.041 330.954C227.956 330.954 227.877 330.949 227.795 330.942H222.206V330.954H220.086V328.572H220.088V327.44H220.086V325.088H220.088V323.801H220.086V321.451H228.041C229.327 321.451 230.404 322.468 230.658 323.824C230.697 324.025 230.715 324.231 230.715 324.444C230.715 324.658 230.694 324.864 230.658 325.065C230.581 325.484 230.422 325.871 230.206 326.204C230.438 326.563 230.601 326.982 230.674 327.437ZM228.595 324.444C228.595 324.104 228.347 323.824 228.041 323.824H226.471V323.801H222.208V325.088H226.471V325.065H228.041C228.141 325.065 228.231 325.037 228.313 324.986C228.481 324.879 228.595 324.676 228.595 324.444ZM228.595 327.964C228.595 327.743 228.49 327.549 228.336 327.44H222.21V328.572H228.154C228.404 328.513 228.595 328.261 228.595 327.964Z" fill="#930043"/>
<defs>
<clipPath id="clip0_1015_2068">
<rect width="20.072" height="29.3157" fill="white" transform="translate(167.198 284.068)"/>
</clipPath>
</defs>
</svg>
