<svg width="356" height="401" viewBox="0 0 356 401" fill="none" xmlns="http://www.w3.org/2000/svg">
<path d="M16.986 82.4206L162.981 5.66463C172.253 0.778456 183.682 0.778456 192.953 5.66463L338.949 82.4206C348.22 87.3068 353.935 96.3116 353.935 106.065V295.072C353.935 304.826 348.22 313.831 338.949 318.717L192.953 395.473C183.682 400.359 172.253 400.359 162.981 395.473L16.986 318.717C7.71483 313.831 2 304.826 2 295.072V106.065C2 96.2929 7.71483 87.2881 16.986 82.4206Z" fill="white" stroke="#930043" stroke-width="2.23497" stroke-miterlimit="10"/>
<path d="M330.487 286.548C330.487 294.069 326.043 301.085 318.861 304.846L187.99 373.546C180.809 377.307 171.899 377.307 164.759 373.546L33.847 304.846C26.6656 301.085 22.2209 294.069 22.2209 286.548V269.89H14.916V286.548C14.916 296.427 20.7599 305.632 30.1843 310.571L161.096 379.29C165.788 381.759 171.076 382.994 176.364 382.994C181.632 382.994 186.9 381.759 191.612 379.29L322.524 310.571C331.948 305.632 337.792 296.427 337.792 286.548V269.89H330.508V286.548H330.487ZM322.524 90.5561L191.612 21.8558C182.208 16.8979 170.5 16.9166 161.096 21.8558L30.2048 90.5561C20.7805 95.514 14.9366 104.719 14.9366 114.597V208.237H22.2415V114.597C22.2415 107.076 26.6861 100.06 33.8676 96.2998L164.718 27.5995C171.899 23.839 180.809 23.839 187.949 27.5995L318.861 96.2998C326.043 100.06 330.487 107.076 330.487 114.597V208.237H337.772V114.597C337.792 104.719 331.948 95.514 322.524 90.5561Z" fill="#930043"/>
<path d="M104.107 96.3152V78.2429H107.677L110.239 92.0795L112.8 78.2429H116.37V96.3152H113.789V82.055L111.207 96.3152H109.27L106.689 82.055V96.3152H104.107ZM125.264 96.4968C124.356 96.4968 123.576 96.3589 122.924 96.0833C122.279 95.8076 121.764 95.4042 121.381 94.8731C120.998 94.3419 120.719 93.72 120.544 93.0074C120.369 92.288 120.282 91.4543 120.282 90.5063V83.951C120.282 83.003 120.369 82.176 120.544 81.4701C120.719 80.7641 120.998 80.1523 121.381 79.6346C121.764 79.1102 122.279 78.7169 122.924 78.4547C123.576 78.1925 124.356 78.0614 125.264 78.0614C127.025 78.0614 128.296 78.5656 129.076 79.5741C129.856 80.5826 130.246 82.0416 130.246 83.951V90.5063C130.246 91.4408 130.155 92.2678 129.973 92.9872C129.799 93.6999 129.52 94.3251 129.136 94.863C128.753 95.3941 128.235 95.8009 127.583 96.0833C126.938 96.3589 126.165 96.4968 125.264 96.4968ZM123.378 93.562C123.727 94.1066 124.356 94.3789 125.264 94.3789C126.171 94.3789 126.797 94.1066 127.14 93.562C127.489 93.0174 127.664 92.214 127.664 91.1517V83.3056C127.664 82.2567 127.492 81.4735 127.15 80.9558C126.807 80.4381 126.178 80.1792 125.264 80.1792C124.349 80.1792 123.721 80.4381 123.378 80.9558C123.035 81.4735 122.863 82.2567 122.863 83.3056V91.1517C122.863 92.214 123.035 93.0174 123.378 93.562ZM138.867 96.4968C137.24 96.4968 135.996 96.0194 135.135 95.0647C134.281 94.11 133.804 92.8057 133.703 91.1517L136.285 90.5063C136.413 93.088 137.273 94.3789 138.867 94.3789C140.158 94.3789 140.803 93.7335 140.803 92.4426C140.803 92.0594 140.749 91.7064 140.642 91.3837C140.541 91.0542 140.383 90.755 140.168 90.4861C139.953 90.2104 139.758 89.9919 139.583 89.8306C139.408 89.6625 139.169 89.4574 138.867 89.2154L135.64 86.6336C135.048 86.1697 134.574 85.5814 134.218 84.8687C133.868 84.1493 133.693 83.3325 133.693 82.4181C133.693 81.0869 134.107 80.0279 134.934 79.2413C135.761 78.4547 136.856 78.0614 138.221 78.0614C139.687 78.0614 140.85 78.4211 141.711 79.1405C142.578 79.8531 143.113 80.865 143.314 82.176C143.334 82.3172 143.358 82.5122 143.385 82.761L140.803 83.4064C140.796 83.2921 140.78 83.1207 140.753 82.8921C140.638 82.0718 140.38 81.4163 139.976 80.9255C139.579 80.428 138.995 80.1792 138.221 80.1792C137.603 80.1792 137.125 80.354 136.789 80.7036C136.453 81.0465 136.285 81.5272 136.285 82.1458C136.285 83.161 136.715 84.0115 137.576 84.6973L140.803 87.2791C142.524 88.6708 143.385 90.3348 143.385 92.2712C143.385 93.5957 142.975 94.631 142.154 95.3773C141.341 96.1236 140.245 96.4968 138.867 96.4968ZM148.849 96.3152V80.5423H145.622V78.2429H154.658V80.5423H151.431V96.3152H148.849ZM166.021 85.9882H166.666C167.742 85.9882 168.549 85.763 169.087 85.3125C169.625 84.8553 169.894 84.1124 169.894 83.0837C169.894 82.055 169.625 81.3155 169.087 80.865C168.549 80.4078 167.742 80.1792 166.666 80.1792H166.021V85.9882ZM163.439 96.3152V78.2429H166.666C168.589 78.2429 170.038 78.616 171.013 79.3623C171.988 80.1086 172.475 81.3491 172.475 83.0837C172.475 84.1594 172.284 85.0604 171.9 85.7865C171.517 86.5126 170.956 87.0101 170.216 87.2791L173.121 96.3152H170.559L167.957 87.9245H166.021V96.3152H163.439ZM176.266 96.3152V78.2429H183.366V80.1792H178.847V85.9882H182.075V87.9245H178.847V94.3789H183.366V96.3152H176.266ZM189.314 96.3152L185.441 78.2429H188.023L189.929 87.9245L190.595 92.4426L191.281 87.9245L193.187 78.2429H195.768L191.896 96.3152H189.314ZM198.954 96.3152V78.2429H201.536V96.3152H198.954ZM205.951 96.3152V78.2429H213.051V80.1792H208.533V85.9882H211.76V87.9245H208.533V94.3789H213.051V96.3152H205.951ZM218.344 96.3152L215.117 78.2429H217.699L218.989 86.6336L219.645 91.7972L220.28 86.6336L221.571 78.2429H224.153L225.444 86.6336L226.079 91.7972L226.735 86.6336L228.026 78.2429H230.607L227.38 96.3152H224.798L223.508 87.9245L222.862 82.761L222.217 87.9245L220.926 96.3152H218.344ZM233.662 96.3152V78.2429H240.761V80.1792H236.243V85.9882H239.471V87.9245H236.243V94.3789H240.761V96.3152H233.662ZM244.007 96.3152V78.2429H248.011C249.9 78.2429 251.231 78.6295 252.005 79.4027C252.784 80.1758 253.174 81.5104 253.174 83.4064V90.5063C253.174 92.4897 252.778 93.9554 251.984 94.9033C251.198 95.8446 249.867 96.3152 247.991 96.3152H244.007ZM246.589 94.3789H248.011C248.434 94.3789 248.798 94.3419 249.1 94.268C249.403 94.1873 249.648 94.0461 249.836 93.8444C250.025 93.636 250.172 93.441 250.28 93.2595C250.388 93.0712 250.462 92.7821 250.502 92.3922C250.549 92.0022 250.576 91.6829 250.583 91.4341C250.589 91.1786 250.593 90.7853 250.593 90.2541C250.593 90.0793 250.593 89.9482 250.593 89.8608V84.0519C250.593 83.7224 250.589 83.4602 250.583 83.2652C250.583 83.0702 250.573 82.8417 250.552 82.5794C250.539 82.3105 250.515 82.0987 250.482 81.9441C250.448 81.7895 250.401 81.618 250.341 81.4298C250.28 81.2348 250.203 81.0835 250.109 80.9759C250.021 80.8684 249.91 80.7574 249.776 80.6431C249.648 80.5221 249.497 80.4347 249.322 80.3809C249.154 80.3204 248.956 80.2733 248.727 80.2397C248.498 80.1994 248.243 80.1792 247.96 80.1792H246.589V94.3789Z" fill="#930043"/>
<path d="M48.9603 148.341L49.3077 128.24H53.1047L55.9587 142.162L58.9367 128.24H62.6096L62.9819 148.341H60.252L59.9542 134.369L57.1003 148.341H54.8916L51.988 134.32L51.715 148.341H48.9603ZM71.4102 148.614C69.9873 148.614 68.854 148.35 68.0102 147.82C67.1665 147.291 66.5626 146.53 66.1986 145.537C65.8346 144.544 65.6526 143.37 65.6526 142.013V134.493C65.6526 133.137 65.8346 131.979 66.1986 131.019C66.5626 130.043 67.1665 129.298 68.0102 128.786C68.854 128.273 69.9873 128.016 71.4102 128.016C72.8661 128.016 74.0077 128.273 74.8349 128.786C75.6787 129.298 76.2825 130.043 76.6465 131.019C77.0271 131.979 77.2173 133.137 77.2173 134.493V142.038C77.2173 143.378 77.0271 144.544 76.6465 145.537C76.2825 146.513 75.6787 147.274 74.8349 147.82C74.0077 148.35 72.8661 148.614 71.4102 148.614ZM71.4102 145.909C72.0223 145.909 72.469 145.777 72.7503 145.512C73.0481 145.247 73.2466 144.883 73.3459 144.42C73.4451 143.957 73.4948 143.452 73.4948 142.906V133.65C73.4948 133.087 73.4451 132.583 73.3459 132.136C73.2466 131.689 73.0481 131.342 72.7503 131.094C72.469 130.829 72.0223 130.696 71.4102 130.696C70.8311 130.696 70.3927 130.829 70.0949 131.094C69.7971 131.342 69.5985 131.689 69.4992 132.136C69.4 132.583 69.3503 133.087 69.3503 133.65V142.906C69.3503 143.452 69.3917 143.957 69.4744 144.42C69.5737 144.883 69.7722 145.247 70.07 145.512C70.3678 145.777 70.8145 145.909 71.4102 145.909ZM79.9342 148.341V128.24H84.8728C85.7662 128.24 86.5686 128.322 87.28 128.488C88.008 128.653 88.6284 128.934 89.1413 129.332C89.6707 129.712 90.0761 130.233 90.3573 130.895C90.6386 131.557 90.7792 132.392 90.7792 133.402C90.7792 134.212 90.6634 134.907 90.4318 135.486C90.2167 136.065 89.8941 136.528 89.4639 136.876C89.0337 137.207 88.496 137.43 87.8508 137.546C88.6449 137.678 89.2985 137.96 89.8113 138.39C90.3408 138.803 90.7296 139.349 90.9777 140.028C91.2425 140.706 91.3748 141.525 91.3748 142.485C91.3748 143.444 91.2507 144.296 91.0026 145.041C90.7709 145.769 90.4152 146.381 89.9354 146.877C89.4722 147.357 88.8848 147.721 88.1734 147.969C87.4785 148.217 86.6596 148.341 85.7165 148.341H79.9342ZM83.6071 145.76H84.9969C86.1053 145.76 86.8581 145.496 87.2552 144.966C87.6523 144.42 87.8508 143.585 87.8508 142.46C87.8508 141.649 87.7515 140.995 87.553 140.499C87.371 139.986 87.0567 139.606 86.61 139.358C86.1798 139.109 85.6007 138.985 84.8728 138.985H83.6071V145.76ZM83.6071 136.454H84.848C85.5759 136.454 86.1384 136.346 86.5355 136.131C86.9326 135.916 87.2056 135.585 87.3545 135.139C87.5199 134.692 87.6026 134.129 87.6026 133.451C87.6026 132.74 87.4785 132.194 87.2304 131.813C86.9988 131.416 86.643 131.151 86.1633 131.019C85.6835 130.87 85.0713 130.796 84.3268 130.796H83.6071V136.454ZM93.8476 148.341V128.24H97.4709V148.341H93.8476ZM100.583 148.341V128.24H104.256V145.81H109.12V148.341H100.583ZM111.028 148.341V128.24H119.466V130.821H114.701V136.603H118.448V139.159H114.701V145.81H119.515V148.341H111.028ZM126.66 148.341L130.681 128.24H134.602L138.622 148.341H135.222L134.428 143.701H130.929L130.11 148.341H126.66ZM131.301 141.368H134.031L132.666 132.93L131.301 141.368ZM140.644 148.341V128.24H146.55C147.758 128.24 148.734 128.463 149.478 128.91C150.24 129.356 150.794 130.01 151.141 130.87C151.505 131.714 151.687 132.74 151.687 133.947C151.687 135.255 151.464 136.313 151.017 137.124C150.57 137.918 149.942 138.497 149.131 138.861C148.337 139.225 147.394 139.407 146.302 139.407H144.317V148.341H140.644ZM144.317 136.826H145.706C146.368 136.826 146.881 136.735 147.245 136.553C147.625 136.355 147.882 136.049 148.014 135.635C148.163 135.205 148.238 134.634 148.238 133.923C148.238 133.195 148.18 132.607 148.064 132.161C147.965 131.697 147.733 131.358 147.369 131.143C147.022 130.928 146.467 130.821 145.706 130.821H144.317V136.826ZM153.731 148.341V128.24H159.637C160.845 128.24 161.821 128.463 162.566 128.91C163.327 129.356 163.881 130.01 164.228 130.87C164.592 131.714 164.774 132.74 164.774 133.947C164.774 135.255 164.551 136.313 164.104 137.124C163.657 137.918 163.029 138.497 162.218 138.861C161.424 139.225 160.481 139.407 159.389 139.407H157.404V148.341H153.731ZM157.404 136.826H158.793C159.455 136.826 159.968 136.735 160.332 136.553C160.713 136.355 160.969 136.049 161.101 135.635C161.25 135.205 161.325 134.634 161.325 133.923C161.325 133.195 161.267 132.607 161.151 132.161C161.052 131.697 160.82 131.358 160.456 131.143C160.109 130.928 159.554 130.821 158.793 130.821H157.404V136.826ZM172.852 148.341V128.24H177.592C179.23 128.24 180.504 128.463 181.414 128.91C182.341 129.356 182.994 130.043 183.375 130.969C183.772 131.896 183.97 133.071 183.97 134.493V141.839C183.97 143.295 183.772 144.511 183.375 145.487C182.994 146.447 182.349 147.167 181.439 147.646C180.546 148.11 179.313 148.341 177.741 148.341H172.852ZM176.525 145.785H177.642C178.486 145.785 179.09 145.636 179.454 145.338C179.818 145.041 180.041 144.61 180.124 144.048C180.206 143.469 180.248 142.766 180.248 141.939V134.245C180.248 133.435 180.19 132.781 180.074 132.285C179.958 131.788 179.718 131.424 179.354 131.193C178.99 130.961 178.403 130.845 177.592 130.845H176.525V145.785ZM186.666 148.341V128.24H195.104V130.821H190.339V136.603H194.087V139.159H190.339V145.81H195.154V148.341H186.666ZM200.359 148.341L196.314 128.24H199.565L202.22 142.46L204.702 128.24H208.027L203.982 148.341H200.359ZM210.078 148.341V128.24H218.516V130.821H213.751V136.603H217.498V139.159H213.751V145.81H218.565V148.341H210.078ZM220.693 148.341V128.24H224.366V145.81H229.23V148.341H220.693ZM236.356 148.614C234.933 148.614 233.799 148.35 232.956 147.82C232.112 147.291 231.508 146.53 231.144 145.537C230.78 144.544 230.598 143.37 230.598 142.013V134.493C230.598 133.137 230.78 131.979 231.144 131.019C231.508 130.043 232.112 129.298 232.956 128.786C233.799 128.273 234.933 128.016 236.356 128.016C237.812 128.016 238.953 128.273 239.78 128.786C240.624 129.298 241.228 130.043 241.592 131.019C241.973 131.979 242.163 133.137 242.163 134.493V142.038C242.163 143.378 241.973 144.544 241.592 145.537C241.228 146.513 240.624 147.274 239.78 147.82C238.953 148.35 237.812 148.614 236.356 148.614ZM236.356 145.909C236.968 145.909 237.415 145.777 237.696 145.512C237.994 145.247 238.192 144.883 238.291 144.42C238.391 143.957 238.44 143.452 238.44 142.906V133.65C238.44 133.087 238.391 132.583 238.291 132.136C238.192 131.689 237.994 131.342 237.696 131.094C237.415 130.829 236.968 130.696 236.356 130.696C235.777 130.696 235.338 130.829 235.04 131.094C234.743 131.342 234.544 131.689 234.445 132.136C234.345 132.583 234.296 133.087 234.296 133.65V142.906C234.296 143.452 234.337 143.957 234.42 144.42C234.519 144.883 234.718 145.247 235.016 145.512C235.313 145.777 235.76 145.909 236.356 145.909ZM244.88 148.341V128.24H250.786C251.994 128.24 252.97 128.463 253.715 128.91C254.476 129.356 255.03 130.01 255.377 130.87C255.741 131.714 255.923 132.74 255.923 133.947C255.923 135.255 255.7 136.313 255.253 137.124C254.806 137.918 254.178 138.497 253.367 138.861C252.573 139.225 251.63 139.407 250.538 139.407H248.553V148.341H244.88ZM248.553 136.826H249.942C250.604 136.826 251.117 136.735 251.481 136.553C251.862 136.355 252.118 136.049 252.25 135.635C252.399 135.205 252.474 134.634 252.474 133.923C252.474 133.195 252.416 132.607 252.3 132.161C252.201 131.697 251.969 131.358 251.605 131.143C251.258 130.928 250.703 130.821 249.942 130.821H248.553V136.826ZM257.917 148.341L258.265 128.24H262.062L264.916 142.162L267.894 128.24H271.566L271.939 148.341H269.209L268.911 134.369L266.057 148.341H263.848L260.945 134.32L260.672 148.341H257.917ZM274.907 148.341V128.24H283.345V130.821H278.58V136.603H282.328V139.159H278.58V145.81H283.395V148.341H274.907ZM285.522 148.341V128.24H288.078L292.967 139.705V128.24H295.995V148.341H293.563L288.649 136.33V148.341H285.522ZM301.056 148.341V130.945H297.854V128.24H307.88V130.945H304.729V148.341H301.056ZM58.7945 185.614C57.322 185.614 56.1639 185.325 55.3201 184.746C54.4929 184.167 53.9138 183.381 53.583 182.388C53.2521 181.379 53.0866 180.221 53.0866 178.914V171.742C53.0866 170.368 53.2521 169.177 53.583 168.168C53.9138 167.159 54.4929 166.381 55.3201 165.835C56.1639 165.289 57.322 165.016 58.7945 165.016C60.1843 165.016 61.2679 165.256 62.0455 165.736C62.8397 166.199 63.4022 166.869 63.7331 167.746C64.064 168.623 64.2294 169.64 64.2294 170.799V172.486H60.7054V170.749C60.7054 170.186 60.6723 169.674 60.6062 169.21C60.5565 168.747 60.3993 168.383 60.1346 168.118C59.8865 167.837 59.448 167.696 58.8193 167.696C58.1906 167.696 57.7274 167.845 57.4296 168.143C57.1483 168.424 56.9663 168.813 56.8836 169.31C56.8009 169.789 56.7595 170.335 56.7595 170.947V179.683C56.7595 180.411 56.8174 181.015 56.9332 181.495C57.0491 181.958 57.2559 182.314 57.5537 182.562C57.868 182.793 58.2899 182.909 58.8193 182.909C59.4315 182.909 59.8616 182.769 60.1098 182.487C60.3745 182.19 60.54 181.801 60.6062 181.321C60.6723 180.841 60.7054 180.303 60.7054 179.708V177.896H64.2294V179.509C64.2294 180.701 64.0723 181.759 63.7579 182.686C63.4436 183.596 62.8893 184.316 62.0952 184.845C61.3176 185.358 60.2174 185.614 58.7945 185.614ZM72.2463 185.614C70.8234 185.614 69.6901 185.35 68.8463 184.82C68.0026 184.291 67.3987 183.53 67.0347 182.537C66.6707 181.544 66.4887 180.37 66.4887 179.013V171.493C66.4887 170.137 66.6707 168.979 67.0347 168.019C67.3987 167.043 68.0026 166.298 68.8463 165.786C69.6901 165.273 70.8234 165.016 72.2463 165.016C73.7022 165.016 74.8438 165.273 75.671 165.786C76.5148 166.298 77.1187 167.043 77.4826 168.019C77.8632 168.979 78.0534 170.137 78.0534 171.493V179.038C78.0534 180.378 77.8632 181.544 77.4826 182.537C77.1187 183.513 76.5148 184.274 75.671 184.82C74.8438 185.35 73.7022 185.614 72.2463 185.614ZM72.2463 182.909C72.8584 182.909 73.3051 182.777 73.5864 182.512C73.8842 182.247 74.0827 181.883 74.182 181.42C74.2813 180.957 74.3309 180.452 74.3309 179.906V170.65C74.3309 170.087 74.2813 169.583 74.182 169.136C74.0827 168.689 73.8842 168.342 73.5864 168.094C73.3051 167.829 72.8584 167.696 72.2463 167.696C71.6672 167.696 71.2288 167.829 70.931 168.094C70.6332 168.342 70.4346 168.689 70.3354 169.136C70.2361 169.583 70.1865 170.087 70.1865 170.65V179.906C70.1865 180.452 70.2278 180.957 70.3105 181.42C70.4098 181.883 70.6084 182.247 70.9062 182.512C71.204 182.777 71.6507 182.909 72.2463 182.909ZM80.7207 185.341L81.0681 165.24H84.8651L87.7191 179.162L90.6971 165.24H94.37L94.7423 185.341H92.0124L91.7146 171.369L88.8606 185.341H86.6519L83.7483 171.32L83.4754 185.341H80.7207ZM97.7108 185.341V165.24H103.617C104.825 165.24 105.801 165.463 106.546 165.91C107.307 166.356 107.861 167.01 108.208 167.87C108.572 168.714 108.754 169.74 108.754 170.947C108.754 172.255 108.531 173.313 108.084 174.124C107.638 174.918 107.009 175.497 106.198 175.861C105.404 176.225 104.461 176.407 103.369 176.407H101.384V185.341H97.7108ZM101.384 173.826H102.773C103.435 173.826 103.948 173.735 104.312 173.553C104.693 173.355 104.949 173.049 105.081 172.635C105.23 172.205 105.305 171.634 105.305 170.923C105.305 170.195 105.247 169.607 105.131 169.161C105.032 168.697 104.8 168.358 104.436 168.143C104.089 167.928 103.535 167.821 102.773 167.821H101.384V173.826ZM108.714 185.341L112.734 165.24H116.655L120.676 185.341H117.276L116.482 180.701H112.983L112.164 185.341H108.714ZM113.355 178.368H116.085L114.72 169.93L113.355 178.368ZM122.697 185.341V165.24H125.254L130.142 176.705V165.24H133.17V185.341H130.738L125.824 173.33V185.341H122.697ZM136.32 185.341V165.24H139.943V185.341H136.32ZM143.055 185.341V165.24H151.493V167.821H146.728V173.603H150.475V176.159H146.728V182.81H151.542V185.341H143.055ZM158.733 185.614C157.525 185.614 156.516 185.383 155.705 184.919C154.894 184.44 154.282 183.745 153.869 182.835C153.455 181.925 153.223 180.808 153.174 179.485L156.326 178.864C156.359 179.642 156.45 180.328 156.599 180.924C156.764 181.519 157.004 181.983 157.318 182.314C157.649 182.628 158.079 182.785 158.609 182.785C159.204 182.785 159.626 182.611 159.874 182.264C160.123 181.9 160.247 181.445 160.247 180.899C160.247 180.022 160.048 179.303 159.651 178.74C159.254 178.177 158.725 177.615 158.063 177.052L155.531 174.819C154.82 174.207 154.249 173.528 153.819 172.784C153.405 172.023 153.199 171.088 153.199 169.98C153.199 168.391 153.662 167.167 154.588 166.307C155.515 165.446 156.781 165.016 158.385 165.016C159.328 165.016 160.114 165.165 160.743 165.463C161.372 165.744 161.868 166.141 162.232 166.654C162.612 167.167 162.894 167.754 163.076 168.416C163.258 169.061 163.374 169.748 163.423 170.476L160.296 171.022C160.263 170.393 160.189 169.831 160.073 169.334C159.974 168.838 159.783 168.449 159.502 168.168C159.237 167.887 158.84 167.746 158.311 167.746C157.765 167.746 157.343 167.928 157.045 168.292C156.764 168.639 156.623 169.078 156.623 169.607C156.623 170.286 156.764 170.848 157.045 171.295C157.326 171.725 157.732 172.172 158.261 172.635L160.768 174.844C161.595 175.539 162.298 176.358 162.877 177.301C163.473 178.227 163.771 179.352 163.771 180.676C163.771 181.635 163.556 182.487 163.125 183.232C162.712 183.976 162.124 184.564 161.363 184.994C160.619 185.407 159.742 185.614 158.733 185.614ZM172.067 185.341V165.24H175.69V185.341H172.067ZM178.802 185.341V165.24H181.358L186.247 176.705V165.24H189.275V185.341H186.843L181.929 173.33V185.341H178.802ZM197.343 185.341L201.363 165.24H205.284L209.304 185.341H205.904L205.11 180.701H201.611L200.792 185.341H197.343ZM201.983 178.368H204.713L203.348 169.93L201.983 178.368ZM216.738 185.614C215.249 185.614 214.091 185.341 213.264 184.795C212.437 184.249 211.866 183.472 211.552 182.463C211.237 181.453 211.08 180.246 211.08 178.839V165.24H214.654V179.261C214.654 179.89 214.695 180.485 214.778 181.048C214.861 181.594 215.051 182.041 215.349 182.388C215.663 182.719 216.126 182.884 216.738 182.884C217.384 182.884 217.847 182.719 218.128 182.388C218.426 182.041 218.616 181.594 218.699 181.048C218.798 180.485 218.848 179.89 218.848 179.261V165.24H222.397V178.839C222.397 180.246 222.239 181.453 221.925 182.463C221.611 183.472 221.04 184.249 220.213 184.795C219.402 185.341 218.244 185.614 216.738 185.614ZM230.348 185.614C229.14 185.614 228.131 185.383 227.32 184.919C226.51 184.44 225.898 183.745 225.484 182.835C225.07 181.925 224.839 180.808 224.789 179.485L227.941 178.864C227.974 179.642 228.065 180.328 228.214 180.924C228.379 181.519 228.619 181.983 228.934 182.314C229.264 182.628 229.695 182.785 230.224 182.785C230.82 182.785 231.242 182.611 231.49 182.264C231.738 181.9 231.862 181.445 231.862 180.899C231.862 180.022 231.663 179.303 231.266 178.74C230.869 178.177 230.34 177.615 229.678 177.052L227.147 174.819C226.435 174.207 225.865 173.528 225.434 172.784C225.021 172.023 224.814 171.088 224.814 169.98C224.814 168.391 225.277 167.167 226.204 166.307C227.13 165.446 228.396 165.016 230.001 165.016C230.944 165.016 231.73 165.165 232.358 165.463C232.987 165.744 233.483 166.141 233.847 166.654C234.228 167.167 234.509 167.754 234.691 168.416C234.873 169.061 234.989 169.748 235.039 170.476L231.912 171.022C231.878 170.393 231.804 169.831 231.688 169.334C231.589 168.838 231.399 168.449 231.117 168.168C230.853 167.887 230.456 167.746 229.926 167.746C229.38 167.746 228.958 167.928 228.661 168.292C228.379 168.639 228.239 169.078 228.239 169.607C228.239 170.286 228.379 170.848 228.661 171.295C228.942 171.725 229.347 172.172 229.877 172.635L232.383 174.844C233.21 175.539 233.913 176.358 234.493 177.301C235.088 178.227 235.386 179.352 235.386 180.676C235.386 181.635 235.171 182.487 234.741 183.232C234.327 183.976 233.74 184.564 232.979 184.994C232.234 185.407 231.357 185.614 230.348 185.614ZM239.559 185.341V167.945H236.357V165.24H246.383V167.945H243.232V185.341H239.559ZM248.212 185.341V165.24H253.027C254.383 165.24 255.525 165.405 256.451 165.736C257.394 166.05 258.106 166.596 258.586 167.374C259.082 168.151 259.33 169.21 259.33 170.55C259.33 171.361 259.256 172.089 259.107 172.734C258.958 173.38 258.701 173.934 258.337 174.397C257.99 174.844 257.502 175.191 256.873 175.439L259.677 185.341H256.005L253.573 176.134H251.885V185.341H248.212ZM251.885 173.826H253.027C253.738 173.826 254.3 173.727 254.714 173.528C255.144 173.313 255.45 172.982 255.632 172.536C255.814 172.073 255.905 171.485 255.905 170.774C255.905 169.765 255.715 169.012 255.335 168.515C254.971 168.003 254.267 167.746 253.225 167.746H251.885V173.826ZM261.106 185.341L265.126 165.24H269.047L273.067 185.341H269.667L268.873 180.701H265.374L264.555 185.341H261.106ZM265.746 178.368H268.476L267.111 169.93L265.746 178.368ZM275.089 185.341V165.24H278.762V182.81H283.626V185.341H275.089ZM285.634 185.341V165.24H289.257V185.341H285.634ZM291.351 185.341L295.372 165.24H299.293L303.313 185.341H299.913L299.119 180.701H295.62L294.801 185.341H291.351ZM295.992 178.368H298.722L297.357 169.93L295.992 178.368Z" fill="black"/>
<rect x="2" y="216.488" width="351.935" height="44.37" fill="#930043"/>
<circle cx="178.469" cy="235.646" r="37.3111" fill="white"/>
<path d="M70.671 224.152L75.0644 233.052L84.8889 234.488L77.78 241.412L79.4577 251.194L70.671 246.573L61.8844 251.194L63.5621 241.412L56.4531 234.488L66.2777 233.052L70.671 224.152Z" fill="white"/>
<path d="M111.775 224.152L116.168 233.052L125.992 234.488L118.883 241.412L120.561 251.194L111.775 246.573L102.988 251.194L104.666 241.412L97.5566 234.488L107.381 233.052L111.775 224.152Z" fill="white"/>
<path d="M179.678 214.465L187.218 229.74L204.078 232.204L191.878 244.087L194.757 260.875L179.678 252.944L164.598 260.875L167.478 244.087L155.277 232.204L172.138 229.74L179.678 214.465Z" fill="#930043"/>
<path d="M241.45 224.152L245.844 233.052L255.668 234.488L248.559 241.412L250.237 251.194L241.45 246.573L232.664 251.194L234.341 241.412L227.232 234.488L237.057 233.052L241.45 224.152Z" fill="white"/>
<path d="M282.554 224.152L286.947 233.052L296.772 234.488L289.663 241.412L291.341 251.194L282.554 246.573L273.767 251.194L275.445 241.412L268.336 234.488L278.161 233.052L282.554 224.152Z" fill="white"/>
<g clip-path="url(#clip0_929_1873)">
<path d="M186.411 290.623V295.377H181.921V284.549H180.337V295.377H175.583V284.549H173.998V301.451H169.508V290.623H167.924V307.79H169.508V303.036H180.337V313.864H181.921V296.962H186.411V307.79H187.996V290.623H186.411ZM180.337 301.451H175.583V296.962H180.337V301.451Z" fill="#930043"/>
<path d="M175.583 303.831H173.998V313.867H175.583V303.831Z" fill="#930043"/>
</g>
<path d="M135.08 321.946V331.439H132.96V327.879H126.598V331.439H124.479V321.946H126.598V325.506H132.96V321.946H135.08Z" fill="black"/>
<path d="M136.891 331.44V321.932H139.532V331.44H136.891Z" fill="black"/>
<path d="M151.676 324.317H147.436V331.438H145.316V324.317H141.074V321.945H151.676V324.317Z" fill="black"/>
<path d="M163.719 321.945V324.317H155.237V324.32H153.117V321.945H163.719ZM163.719 325.706V327.641H155.237V327.646H153.117V325.706H163.719ZM163.719 329.065V331.438H153.117V329.065H163.719Z" fill="black"/>
<path d="M176.141 325.019V326.097H174.021V325.23C174.021 324.727 173.655 324.317 173.205 324.317H165.539V321.945H173.394C173.61 321.945 173.819 321.973 174.021 322.026C175.034 322.291 175.832 323.183 176.071 324.32C176.116 324.544 176.141 324.778 176.141 325.019ZM168.475 329.065H176.141V331.438H168.286C168.189 331.438 168.093 331.432 168 331.42C167.884 331.407 167.771 331.384 167.659 331.356C166.646 331.092 165.848 330.199 165.61 329.062C165.592 328.978 165.578 328.895 165.567 328.811C165.548 328.663 165.537 328.513 165.537 328.361V325.604H167.657V328.149C167.659 328.656 168.025 329.065 168.475 329.065Z" fill="black"/>
<path d="M188.447 321.945V331.438H186.327V327.877H179.966V331.438H177.846V321.945H179.966V325.505H186.327V321.945H188.447Z" fill="black"/>
<path d="M206.467 321.945V331.438H204.347V327.877H197.985V331.438H195.865V321.945H197.985V325.505H204.347V321.945H206.467Z" fill="#930043"/>
<path d="M218.899 321.945V331.438H216.836V330.42L216.011 331.438H210.728C209.479 331.293 208.477 330.209 208.295 328.828V321.945H210.415V328.152C210.415 328.656 210.781 329.065 211.23 329.065H216.772L216.777 321.945H218.899Z" fill="#930043"/>
<path d="M231.4 327.918C231.428 328.088 231.441 328.264 231.441 328.442C231.441 328.65 231.423 328.854 231.387 329.049C231.153 330.323 230.194 331.302 229.012 331.422C228.933 331.43 228.851 331.435 228.767 331.435C228.683 331.435 228.604 331.43 228.522 331.422H222.932V331.435H220.812V329.052H220.815V327.92H220.812V325.568H220.815V324.281H220.812V321.932H228.767C230.053 321.932 231.13 322.949 231.385 324.304C231.423 324.505 231.441 324.711 231.441 324.925C231.441 325.138 231.421 325.344 231.385 325.545C231.307 325.965 231.148 326.351 230.932 326.684C231.164 327.043 231.328 327.463 231.4 327.918ZM229.321 324.925C229.321 324.584 229.074 324.304 228.767 324.304H227.197V324.281H222.935V325.568H227.197V325.545H228.767C228.867 325.545 228.958 325.517 229.04 325.466C229.208 325.36 229.321 325.156 229.321 324.925ZM229.321 328.444C229.321 328.223 229.217 328.03 229.062 327.92H222.937V329.052H228.881C229.131 328.993 229.321 328.742 229.321 328.444Z" fill="#930043"/>
<defs>
<clipPath id="clip0_929_1873">
<rect width="20.072" height="29.3157" fill="white" transform="translate(167.924 284.549)"/>
</clipPath>
</defs>
</svg>
