<svg width="355" height="401" viewBox="0 0 355 401" fill="none" xmlns="http://www.w3.org/2000/svg">
<path d="M16.2048 82.4206L162.2 5.66463C171.471 0.778456 182.901 0.778456 192.172 5.66463L338.168 82.4206C347.439 87.3068 353.154 96.3116 353.154 106.065V295.072C353.154 304.826 347.439 313.831 338.168 318.717L192.172 395.473C182.901 400.359 171.471 400.359 162.2 395.473L16.2048 318.717C6.93358 313.831 1.21875 304.826 1.21875 295.072V106.065C1.21875 96.2929 6.93358 87.2881 16.2048 82.4206Z" fill="white" stroke="#930043" stroke-width="2.23497" stroke-miterlimit="10"/>
<path d="M329.706 286.548C329.706 294.069 325.261 301.085 318.08 304.846L187.209 373.546C180.028 377.307 171.118 377.307 163.978 373.546L33.0657 304.846C25.8843 301.085 21.4397 294.069 21.4397 286.548V269.89H14.1348V286.548C14.1348 296.427 19.9787 305.632 29.403 310.571L160.315 379.29C165.006 381.759 170.295 382.994 175.583 382.994C180.851 382.994 186.119 381.759 190.831 379.29L321.743 310.571C331.167 305.632 337.011 296.427 337.011 286.548V269.89H329.727V286.548H329.706ZM321.743 90.5561L190.831 21.8558C181.427 16.8979 169.719 16.9166 160.315 21.8558L29.4236 90.5561C19.9993 95.514 14.1553 104.719 14.1553 114.597V208.237H21.4602V114.597C21.4602 107.076 25.9049 100.06 33.0863 96.2998L163.936 27.5995C171.118 23.839 180.028 23.839 187.168 27.5995L318.08 96.2998C325.261 100.06 329.706 107.076 329.706 114.597V208.237H336.99V114.597C337.011 104.719 331.167 95.514 321.743 90.5561Z" fill="#930043"/>
<path d="M103.324 96.3152V78.2429H106.894L109.455 92.0795L112.017 78.2429H115.587V96.3152H113.005V82.055L110.424 96.3152H108.487L105.905 82.055V96.3152H103.324ZM124.48 96.4968C123.573 96.4968 122.793 96.3589 122.141 96.0833C121.495 95.8076 120.981 95.4042 120.598 94.8731C120.215 94.3419 119.936 93.72 119.761 93.0074C119.586 92.288 119.498 91.4543 119.498 90.5063V83.951C119.498 83.003 119.586 82.176 119.761 81.4701C119.936 80.7641 120.215 80.1523 120.598 79.6346C120.981 79.1102 121.495 78.7169 122.141 78.4547C122.793 78.1925 123.573 78.0614 124.48 78.0614C126.242 78.0614 127.513 78.5656 128.293 79.5741C129.073 80.5826 129.462 82.0416 129.462 83.951V90.5063C129.462 91.4408 129.372 92.2678 129.19 92.9872C129.015 93.6999 128.736 94.3251 128.353 94.863C127.97 95.3941 127.452 95.8009 126.8 96.0833C126.155 96.3589 125.381 96.4968 124.48 96.4968ZM122.595 93.562C122.944 94.1066 123.573 94.3789 124.48 94.3789C125.388 94.3789 126.013 94.1066 126.356 93.562C126.706 93.0174 126.881 92.214 126.881 91.1517V83.3056C126.881 82.2567 126.709 81.4735 126.366 80.9558C126.024 80.4381 125.395 80.1792 124.48 80.1792C123.566 80.1792 122.937 80.4381 122.595 80.9558C122.252 81.4735 122.08 82.2567 122.08 83.3056V91.1517C122.08 92.214 122.252 93.0174 122.595 93.562ZM138.084 96.4968C136.457 96.4968 135.213 96.0194 134.352 95.0647C133.498 94.11 133.021 92.8057 132.92 91.1517L135.502 90.5063C135.63 93.088 136.49 94.3789 138.084 94.3789C139.374 94.3789 140.02 93.7335 140.02 92.4426C140.02 92.0594 139.966 91.7064 139.859 91.3837C139.758 91.0542 139.6 90.755 139.385 90.4861C139.169 90.2104 138.974 89.9919 138.8 89.8306C138.625 89.6625 138.386 89.4574 138.084 89.2154L134.856 86.6336C134.265 86.1697 133.791 85.5814 133.434 84.8687C133.085 84.1493 132.91 83.3325 132.91 82.4181C132.91 81.0869 133.323 80.0279 134.15 79.2413C134.977 78.4547 136.073 78.0614 137.438 78.0614C138.904 78.0614 140.067 78.4211 140.928 79.1405C141.795 79.8531 142.329 80.865 142.531 82.176C142.551 82.3172 142.575 82.5122 142.602 82.761L140.02 83.4064C140.013 83.2921 139.996 83.1207 139.969 82.8921C139.855 82.0718 139.596 81.4163 139.193 80.9255C138.796 80.428 138.211 80.1792 137.438 80.1792C136.82 80.1792 136.342 80.354 136.006 80.7036C135.67 81.0465 135.502 81.5272 135.502 82.1458C135.502 83.161 135.932 84.0115 136.793 84.6973L140.02 87.2791C141.741 88.6708 142.602 90.3348 142.602 92.2712C142.602 93.5957 142.192 94.631 141.371 95.3773C140.558 96.1236 139.462 96.4968 138.084 96.4968ZM148.066 96.3152V80.5423H144.839V78.2429H153.875V80.5423H150.648V96.3152H148.066ZM165.238 85.9882H165.883C166.959 85.9882 167.766 85.763 168.304 85.3125C168.841 84.8553 169.11 84.1124 169.11 83.0837C169.11 82.055 168.841 81.3155 168.304 80.865C167.766 80.4078 166.959 80.1792 165.883 80.1792H165.238V85.9882ZM162.656 96.3152V78.2429H165.883C167.806 78.2429 169.255 78.616 170.23 79.3623C171.205 80.1086 171.692 81.3491 171.692 83.0837C171.692 84.1594 171.5 85.0604 171.117 85.7865C170.734 86.5126 170.173 87.0101 169.433 87.2791L172.338 96.3152H169.776L167.174 87.9245H165.238V96.3152H162.656ZM175.482 96.3152V78.2429H182.582V80.1792H178.064V85.9882H181.291V87.9245H178.064V94.3789H182.582V96.3152H175.482ZM188.531 96.3152L184.658 78.2429H187.24L189.146 87.9245L189.812 92.4426L190.497 87.9245L192.404 78.2429H194.985L191.113 96.3152H188.531ZM198.171 96.3152V78.2429H200.752V96.3152H198.171ZM205.168 96.3152V78.2429H212.268V80.1792H207.75V85.9882H210.977V87.9245H207.75V94.3789H212.268V96.3152H205.168ZM217.561 96.3152L214.334 78.2429H216.915L218.206 86.6336L218.862 91.7972L219.497 86.6336L220.788 78.2429H223.37L224.661 86.6336L225.296 91.7972L225.952 86.6336L227.242 78.2429H229.824L226.597 96.3152H224.015L222.724 87.9245L222.079 82.761L221.433 87.9245L220.143 96.3152H217.561ZM232.878 96.3152V78.2429H239.978V80.1792H235.46V85.9882H238.687V87.9245H235.46V94.3789H239.978V96.3152H232.878ZM243.224 96.3152V78.2429H247.228C249.117 78.2429 250.448 78.6295 251.221 79.4027C252.001 80.1758 252.391 81.5104 252.391 83.4064V90.5063C252.391 92.4897 251.995 93.9554 251.201 94.9033C250.415 95.8446 249.083 96.3152 247.208 96.3152H243.224ZM245.806 94.3789H247.228C247.651 94.3789 248.014 94.3419 248.317 94.268C248.619 94.1873 248.865 94.0461 249.053 93.8444C249.241 93.636 249.389 93.441 249.497 93.2595C249.604 93.0712 249.678 92.7821 249.719 92.3922C249.766 92.0022 249.793 91.6829 249.799 91.4341C249.806 91.1786 249.809 90.7853 249.809 90.2541C249.809 90.0793 249.809 89.9482 249.809 89.8608V84.0519C249.809 83.7224 249.806 83.4602 249.799 83.2652C249.799 83.0702 249.789 82.8417 249.769 82.5794C249.756 82.3105 249.732 82.0987 249.699 81.9441C249.665 81.7895 249.618 81.618 249.557 81.4298C249.497 81.2348 249.42 81.0835 249.325 80.9759C249.238 80.8684 249.127 80.7574 248.993 80.6431C248.865 80.5221 248.714 80.4347 248.539 80.3809C248.371 80.3204 248.172 80.2733 247.944 80.2397C247.715 80.1994 247.46 80.1792 247.177 80.1792H245.806V94.3789Z" fill="#930043"/>
<path d="M48.1537 148.341L48.5011 128.24H52.2981L55.1521 142.162L58.1301 128.24H61.803L62.1752 148.341H59.4454L59.1476 134.369L56.2936 148.341H54.0849L51.1813 134.32L50.9084 148.341H48.1537ZM70.6035 148.614C69.1807 148.614 68.0474 148.35 67.2036 147.82C66.3598 147.291 65.7559 146.53 65.392 145.537C65.028 144.544 64.846 143.37 64.846 142.013V134.493C64.846 133.137 65.028 131.979 65.392 131.019C65.7559 130.043 66.3598 129.298 67.2036 128.786C68.0474 128.273 69.1807 128.016 70.6035 128.016C72.0594 128.016 73.201 128.273 74.0283 128.786C74.872 129.298 75.4759 130.043 75.8399 131.019C76.2204 131.979 76.4107 133.137 76.4107 134.493V142.038C76.4107 143.378 76.2204 144.544 75.8399 145.537C75.4759 146.513 74.872 147.274 74.0283 147.82C73.201 148.35 72.0594 148.614 70.6035 148.614ZM70.6035 145.909C71.2157 145.909 71.6624 145.777 71.9436 145.512C72.2414 145.247 72.44 144.883 72.5392 144.42C72.6385 143.957 72.6881 143.452 72.6881 142.906V133.65C72.6881 133.087 72.6385 132.583 72.5392 132.136C72.44 131.689 72.2414 131.342 71.9436 131.094C71.6624 130.829 71.2157 130.696 70.6035 130.696C70.0244 130.696 69.586 130.829 69.2882 131.094C68.9904 131.342 68.7919 131.689 68.6926 132.136C68.5933 132.583 68.5437 133.087 68.5437 133.65V142.906C68.5437 143.452 68.5851 143.957 68.6678 144.42C68.7671 144.883 68.9656 145.247 69.2634 145.512C69.5612 145.777 70.0079 145.909 70.6035 145.909ZM79.1276 148.341V128.24H84.0661C84.9595 128.24 85.762 128.322 86.4734 128.488C87.2013 128.653 87.8218 128.934 88.3346 129.332C88.8641 129.712 89.2694 130.233 89.5507 130.895C89.8319 131.557 89.9726 132.392 89.9726 133.402C89.9726 134.212 89.8568 134.907 89.6251 135.486C89.41 136.065 89.0874 136.528 88.6573 136.876C88.2271 137.207 87.6894 137.43 87.0442 137.546C87.8383 137.678 88.4918 137.96 89.0047 138.39C89.5341 138.803 89.9229 139.349 90.1711 140.028C90.4358 140.706 90.5682 141.525 90.5682 142.485C90.5682 143.444 90.4441 144.296 90.1959 145.041C89.9643 145.769 89.6086 146.381 89.1288 146.877C88.6655 147.357 88.0782 147.721 87.3668 147.969C86.6719 148.217 85.8529 148.341 84.9099 148.341H79.1276ZM82.8005 145.76H84.1902C85.2987 145.76 86.0515 145.496 86.4486 144.966C86.8456 144.42 87.0442 143.585 87.0442 142.46C87.0442 141.649 86.9449 140.995 86.7464 140.499C86.5644 139.986 86.25 139.606 85.8033 139.358C85.3732 139.109 84.7941 138.985 84.0661 138.985H82.8005V145.76ZM82.8005 136.454H84.0413C84.7693 136.454 85.3318 136.346 85.7289 136.131C86.1259 135.916 86.3989 135.585 86.5478 135.139C86.7133 134.692 86.796 134.129 86.796 133.451C86.796 132.74 86.6719 132.194 86.4237 131.813C86.1921 131.416 85.8364 131.151 85.3566 131.019C84.8768 130.87 84.2647 130.796 83.5202 130.796H82.8005V136.454ZM93.0409 148.341V128.24H96.6642V148.341H93.0409ZM99.776 148.341V128.24H103.449V145.81H108.313V148.341H99.776ZM110.221 148.341V128.24H118.659V130.821H113.894V136.603H117.642V139.159H113.894V145.81H118.709V148.341H110.221ZM125.854 148.341L129.874 128.24H133.795L137.815 148.341H134.415L133.621 143.701H130.122L129.303 148.341H125.854ZM130.494 141.368H133.224L131.859 132.93L130.494 141.368ZM139.837 148.341V128.24H145.743C146.951 128.24 147.927 128.463 148.672 128.91C149.433 129.356 149.987 130.01 150.335 130.87C150.699 131.714 150.881 132.74 150.881 133.947C150.881 135.255 150.657 136.313 150.21 137.124C149.764 137.918 149.135 138.497 148.324 138.861C147.53 139.225 146.587 139.407 145.495 139.407H143.51V148.341H139.837ZM143.51 136.826H144.9C145.561 136.826 146.074 136.735 146.438 136.553C146.819 136.355 147.075 136.049 147.208 135.635C147.357 135.205 147.431 134.634 147.431 133.923C147.431 133.195 147.373 132.607 147.257 132.161C147.158 131.697 146.926 131.358 146.562 131.143C146.215 130.928 145.661 130.821 144.9 130.821H143.51V136.826ZM152.924 148.341V128.24H158.83C160.038 128.24 161.014 128.463 161.759 128.91C162.52 129.356 163.074 130.01 163.422 130.87C163.786 131.714 163.968 132.74 163.968 133.947C163.968 135.255 163.744 136.313 163.298 137.124C162.851 137.918 162.222 138.497 161.411 138.861C160.617 139.225 159.674 139.407 158.582 139.407H156.597V148.341H152.924ZM156.597 136.826H157.987C158.649 136.826 159.161 136.735 159.525 136.553C159.906 136.355 160.162 136.049 160.295 135.635C160.444 135.205 160.518 134.634 160.518 133.923C160.518 133.195 160.46 132.607 160.344 132.161C160.245 131.697 160.013 131.358 159.649 131.143C159.302 130.928 158.748 130.821 157.987 130.821H156.597V136.826ZM172.046 148.341V128.24H176.786C178.424 128.24 179.698 128.463 180.608 128.91C181.534 129.356 182.188 130.043 182.568 130.969C182.965 131.896 183.164 133.071 183.164 134.493V141.839C183.164 143.295 182.965 144.511 182.568 145.487C182.188 146.447 181.542 147.167 180.632 147.646C179.739 148.11 178.506 148.341 176.935 148.341H172.046ZM175.719 145.785H176.835C177.679 145.785 178.283 145.636 178.647 145.338C179.011 145.041 179.234 144.61 179.317 144.048C179.4 143.469 179.441 142.766 179.441 141.939V134.245C179.441 133.435 179.383 132.781 179.267 132.285C179.152 131.788 178.912 131.424 178.548 131.193C178.184 130.961 177.596 130.845 176.786 130.845H175.719V145.785ZM185.86 148.341V128.24H194.298V130.821H189.533V136.603H193.28V139.159H189.533V145.81H194.347V148.341H185.86ZM199.552 148.341L195.507 128.24H198.758L201.413 142.46L203.895 128.24H207.221L203.175 148.341H199.552ZM209.271 148.341V128.24H217.709V130.821H212.944V136.603H216.691V139.159H212.944V145.81H217.759V148.341H209.271ZM219.886 148.341V128.24H223.559V145.81H228.423V148.341H219.886ZM235.549 148.614C234.126 148.614 232.993 148.35 232.149 147.82C231.305 147.291 230.701 146.53 230.337 145.537C229.973 144.544 229.791 143.37 229.791 142.013V134.493C229.791 133.137 229.973 131.979 230.337 131.019C230.701 130.043 231.305 129.298 232.149 128.786C232.993 128.273 234.126 128.016 235.549 128.016C237.005 128.016 238.147 128.273 238.974 128.786C239.818 129.298 240.421 130.043 240.785 131.019C241.166 131.979 241.356 133.137 241.356 134.493V142.038C241.356 143.378 241.166 144.544 240.785 145.537C240.421 146.513 239.818 147.274 238.974 147.82C238.147 148.35 237.005 148.614 235.549 148.614ZM235.549 145.909C236.161 145.909 236.608 145.777 236.889 145.512C237.187 145.247 237.385 144.883 237.485 144.42C237.584 143.957 237.634 143.452 237.634 142.906V133.65C237.634 133.087 237.584 132.583 237.485 132.136C237.385 131.689 237.187 131.342 236.889 131.094C236.608 130.829 236.161 130.696 235.549 130.696C234.97 130.696 234.532 130.829 234.234 131.094C233.936 131.342 233.737 131.689 233.638 132.136C233.539 132.583 233.489 133.087 233.489 133.65V142.906C233.489 143.452 233.531 143.957 233.613 144.42C233.713 144.883 233.911 145.247 234.209 145.512C234.507 145.777 234.953 145.909 235.549 145.909ZM244.073 148.341V128.24H249.979C251.187 128.24 252.163 128.463 252.908 128.91C253.669 129.356 254.223 130.01 254.571 130.87C254.935 131.714 255.117 132.74 255.117 133.947C255.117 135.255 254.893 136.313 254.447 137.124C254 137.918 253.371 138.497 252.56 138.861C251.766 139.225 250.823 139.407 249.731 139.407H247.746V148.341H244.073ZM247.746 136.826H249.136C249.797 136.826 250.31 136.735 250.674 136.553C251.055 136.355 251.311 136.049 251.444 135.635C251.593 135.205 251.667 134.634 251.667 133.923C251.667 133.195 251.609 132.607 251.493 132.161C251.394 131.697 251.162 131.358 250.798 131.143C250.451 130.928 249.897 130.821 249.136 130.821H247.746V136.826ZM257.11 148.341L257.458 128.24H261.255L264.109 142.162L267.087 128.24H270.76L271.132 148.341H268.402L268.104 134.369L265.25 148.341H263.042L260.138 134.32L259.865 148.341H257.11ZM274.101 148.341V128.24H282.538V130.821H277.774V136.603H281.521V139.159H277.774V145.81H282.588V148.341H274.101ZM284.716 148.341V128.24H287.272L292.161 139.705V128.24H295.188V148.341H292.756L287.843 136.33V148.341H284.716ZM300.249 148.341V130.945H297.048V128.24H307.074V130.945H303.922V148.341H300.249ZM44.8523 185.614C43.3799 185.614 42.2217 185.325 41.378 184.746C40.5507 184.167 39.9717 183.381 39.6408 182.388C39.3099 181.379 39.1444 180.221 39.1444 178.914V171.742C39.1444 170.368 39.3099 169.177 39.6408 168.168C39.9717 167.159 40.5507 166.381 41.378 165.835C42.2217 165.289 43.3799 165.016 44.8523 165.016C46.2421 165.016 47.3258 165.256 48.1034 165.736C48.8975 166.199 49.46 166.869 49.7909 167.746C50.1218 168.623 50.2872 169.64 50.2872 170.799V172.486H46.7632V170.749C46.7632 170.186 46.7302 169.674 46.664 169.21C46.6143 168.747 46.4572 168.383 46.1925 168.118C45.9443 167.837 45.5058 167.696 44.8772 167.696C44.2485 167.696 43.7852 167.845 43.4874 168.143C43.2061 168.424 43.0242 168.813 42.9414 169.31C42.8587 169.789 42.8173 170.335 42.8173 170.947V179.683C42.8173 180.411 42.8753 181.015 42.9911 181.495C43.1069 181.958 43.3137 182.314 43.6115 182.562C43.9258 182.793 44.3477 182.909 44.8772 182.909C45.4893 182.909 45.9195 182.769 46.1676 182.487C46.4323 182.19 46.5978 181.801 46.664 181.321C46.7302 180.841 46.7632 180.303 46.7632 179.708V177.896H50.2872V179.509C50.2872 180.701 50.1301 181.759 49.8157 182.686C49.5014 183.596 48.9471 184.316 48.153 184.845C47.3754 185.358 46.2752 185.614 44.8523 185.614ZM58.3041 185.614C56.8813 185.614 55.7479 185.35 54.9042 184.82C54.0604 184.291 53.4565 183.53 53.0925 182.537C52.7286 181.544 52.5466 180.37 52.5466 179.013V171.493C52.5466 170.137 52.7286 168.979 53.0925 168.019C53.4565 167.043 54.0604 166.298 54.9042 165.786C55.7479 165.273 56.8813 165.016 58.3041 165.016C59.76 165.016 60.9016 165.273 61.7288 165.786C62.5726 166.298 63.1765 167.043 63.5405 168.019C63.921 168.979 64.1113 170.137 64.1113 171.493V179.038C64.1113 180.378 63.921 181.544 63.5405 182.537C63.1765 183.513 62.5726 184.274 61.7288 184.82C60.9016 185.35 59.76 185.614 58.3041 185.614ZM58.3041 182.909C58.9162 182.909 59.363 182.777 59.6442 182.512C59.942 182.247 60.1405 181.883 60.2398 181.42C60.3391 180.957 60.3887 180.452 60.3887 179.906V170.65C60.3887 170.087 60.3391 169.583 60.2398 169.136C60.1405 168.689 59.942 168.342 59.6442 168.094C59.363 167.829 58.9162 167.696 58.3041 167.696C57.725 167.696 57.2866 167.829 56.9888 168.094C56.691 168.342 56.4925 168.689 56.3932 169.136C56.2939 169.583 56.2443 170.087 56.2443 170.65V179.906C56.2443 180.452 56.2856 180.957 56.3684 181.42C56.4676 181.883 56.6662 182.247 56.964 182.512C57.2618 182.777 57.7085 182.909 58.3041 182.909ZM66.7785 185.341L67.1259 165.24H70.9229L73.7769 179.162L76.7549 165.24H80.4278L80.8001 185.341H78.0702L77.7724 171.369L74.9185 185.341H72.7098L69.8062 171.32L69.5332 185.341H66.7785ZM83.7686 185.341V165.24H89.675C90.8828 165.24 91.8589 165.463 92.6035 165.91C93.3645 166.356 93.9187 167.01 94.2662 167.87C94.6302 168.714 94.8122 169.74 94.8122 170.947C94.8122 172.255 94.5888 173.313 94.1421 174.124C93.6954 174.918 93.0667 175.497 92.256 175.861C91.4619 176.225 90.5188 176.407 89.4269 176.407H87.4415V185.341H83.7686ZM87.4415 173.826H88.8313C89.4931 173.826 90.0059 173.735 90.3699 173.553C90.7505 173.355 91.0069 173.049 91.1392 172.635C91.2882 172.205 91.3626 171.634 91.3626 170.923C91.3626 170.195 91.3047 169.607 91.1889 169.161C91.0896 168.697 90.858 168.358 90.494 168.143C90.1466 167.928 89.5923 167.821 88.8313 167.821H87.4415V173.826ZM94.7718 185.341L98.7922 165.24H102.713L106.734 185.341H103.334L102.54 180.701H99.0403L98.2214 185.341H94.7718ZM99.4126 178.368H102.142L100.778 169.93L99.4126 178.368ZM108.755 185.341V165.24H111.311L116.2 176.705V165.24H119.228V185.341H116.796L111.882 173.33V185.341H108.755ZM122.378 185.341V165.24H126.001V185.341H122.378ZM129.113 185.341V165.24H137.551V167.821H132.786V173.603H136.533V176.159H132.786V182.81H137.6V185.341H129.113ZM144.791 185.614C143.583 185.614 142.574 185.383 141.763 184.919C140.952 184.44 140.34 183.745 139.926 182.835C139.513 181.925 139.281 180.808 139.232 179.485L142.383 178.864C142.416 179.642 142.507 180.328 142.656 180.924C142.822 181.519 143.062 181.983 143.376 182.314C143.707 182.628 144.137 182.785 144.667 182.785C145.262 182.785 145.684 182.611 145.932 182.264C146.18 181.9 146.304 181.445 146.304 180.899C146.304 180.022 146.106 179.303 145.709 178.74C145.312 178.177 144.782 177.615 144.121 177.052L141.589 174.819C140.878 174.207 140.307 173.528 139.877 172.784C139.463 172.023 139.256 171.088 139.256 169.98C139.256 168.391 139.72 167.167 140.646 166.307C141.573 165.446 142.838 165.016 144.443 165.016C145.386 165.016 146.172 165.165 146.801 165.463C147.429 165.744 147.926 166.141 148.29 166.654C148.67 167.167 148.952 167.754 149.134 168.416C149.316 169.061 149.431 169.748 149.481 170.476L146.354 171.022C146.321 170.393 146.247 169.831 146.131 169.334C146.031 168.838 145.841 168.449 145.56 168.168C145.295 167.887 144.898 167.746 144.369 167.746C143.823 167.746 143.401 167.928 143.103 168.292C142.822 168.639 142.681 169.078 142.681 169.607C142.681 170.286 142.822 170.848 143.103 171.295C143.384 171.725 143.79 172.172 144.319 172.635L146.826 174.844C147.653 175.539 148.356 176.358 148.935 177.301C149.531 178.227 149.828 179.352 149.828 180.676C149.828 181.635 149.613 182.487 149.183 183.232C148.77 183.976 148.182 184.564 147.421 184.994C146.677 185.407 145.8 185.614 144.791 185.614ZM158.125 185.341V165.24H161.748V185.341H158.125ZM164.86 185.341V165.24H167.416L172.305 176.705V165.24H175.333V185.341H172.901L167.987 173.33V185.341H164.86ZM189.481 185.614C188.273 185.614 187.264 185.383 186.453 184.919C185.642 184.44 185.03 183.745 184.616 182.835C184.203 181.925 183.971 180.808 183.922 179.485L187.073 178.864C187.106 179.642 187.197 180.328 187.346 180.924C187.512 181.519 187.752 181.983 188.066 182.314C188.397 182.628 188.827 182.785 189.356 182.785C189.952 182.785 190.374 182.611 190.622 182.264C190.87 181.9 190.994 181.445 190.994 180.899C190.994 180.022 190.796 179.303 190.399 178.74C190.002 178.177 189.472 177.615 188.81 177.052L186.279 174.819C185.568 174.207 184.997 173.528 184.567 172.784C184.153 172.023 183.946 171.088 183.946 169.98C183.946 168.391 184.41 167.167 185.336 166.307C186.263 165.446 187.528 165.016 189.133 165.016C190.076 165.016 190.862 165.165 191.491 165.463C192.119 165.744 192.616 166.141 192.98 166.654C193.36 167.167 193.641 167.754 193.823 168.416C194.005 169.061 194.121 169.748 194.171 170.476L191.044 171.022C191.011 170.393 190.936 169.831 190.821 169.334C190.721 168.838 190.531 168.449 190.25 168.168C189.985 167.887 189.588 167.746 189.059 167.746C188.513 167.746 188.091 167.928 187.793 168.292C187.512 168.639 187.371 169.078 187.371 169.607C187.371 170.286 187.512 170.848 187.793 171.295C188.074 171.725 188.48 172.172 189.009 172.635L191.515 174.844C192.343 175.539 193.046 176.358 193.625 177.301C194.221 178.227 194.518 179.352 194.518 180.676C194.518 181.635 194.303 182.487 193.873 183.232C193.459 183.976 192.872 184.564 192.111 184.994C191.367 185.407 190.49 185.614 189.481 185.614ZM198.79 185.341L195.936 165.24H199.014L200.676 178.268L202.761 165.289H205.268L207.402 178.268L209.04 165.24H212.067L209.263 185.341H206.285L204.052 171.866L201.843 185.341H198.79ZM214.448 185.341V165.24H218.071V185.341H214.448ZM223.193 185.341V167.945H219.992V165.24H230.018V167.945H226.866V185.341H223.193ZM231.151 185.341V182.984L236.562 167.771H231.449V165.24H240.259V167.126L234.651 182.81H240.284V185.341H231.151ZM242.389 185.341V165.24H250.826V167.821H246.062V173.603H249.809V176.159H246.062V182.81H250.876V185.341H242.389ZM253.004 185.341V165.24H257.818C259.175 165.24 260.316 165.405 261.243 165.736C262.186 166.05 262.897 166.596 263.377 167.374C263.874 168.151 264.122 169.21 264.122 170.55C264.122 171.361 264.047 172.089 263.898 172.734C263.75 173.38 263.493 173.934 263.129 174.397C262.782 174.844 262.294 175.191 261.665 175.439L264.469 185.341H260.796L258.364 176.134H256.677V185.341H253.004ZM256.677 173.826H257.818C258.53 173.826 259.092 173.727 259.506 173.528C259.936 173.313 260.242 172.982 260.424 172.536C260.606 172.073 260.697 171.485 260.697 170.774C260.697 169.765 260.507 169.012 260.126 168.515C259.762 168.003 259.059 167.746 258.017 167.746H256.677V173.826ZM266.915 185.341V165.24H270.588V182.81H275.452V185.341H266.915ZM276.343 185.341L280.363 165.24H284.284L288.305 185.341H284.905L284.11 180.701H280.611L279.792 185.341H276.343ZM280.984 178.368H283.713L282.348 169.93L280.984 178.368ZM290.326 185.341V165.24H292.882L297.771 176.705V165.24H300.799V185.341H298.367L293.453 173.33V185.341H290.326ZM303.849 185.341V165.24H308.589C310.227 165.24 311.501 165.463 312.411 165.91C313.338 166.356 313.991 167.043 314.372 167.969C314.769 168.896 314.967 170.071 314.967 171.493V178.839C314.967 180.295 314.769 181.511 314.372 182.487C313.991 183.447 313.346 184.167 312.436 184.646C311.543 185.11 310.31 185.341 308.738 185.341H303.849ZM307.522 182.785H308.639C309.483 182.785 310.087 182.636 310.451 182.338C310.815 182.041 311.038 181.61 311.121 181.048C311.204 180.469 311.245 179.766 311.245 178.939V171.245C311.245 170.435 311.187 169.781 311.071 169.285C310.955 168.788 310.715 168.424 310.351 168.193C309.987 167.961 309.4 167.845 308.589 167.845H307.522V182.785Z" fill="black"/>
<rect x="1.21875" y="216.488" width="351.935" height="44.37" fill="#930043"/>
<circle cx="177.688" cy="235.646" r="37.3111" fill="white"/>
<path d="M69.8898 224.152L74.2831 233.052L84.1077 234.488L76.9987 241.412L78.6764 251.194L69.8898 246.573L61.1031 251.194L62.7808 241.412L55.6719 234.488L65.4964 233.052L69.8898 224.152Z" fill="white"/>
<path d="M110.993 224.152L115.387 233.052L125.211 234.488L118.102 241.412L119.78 251.194L110.993 246.573L102.207 251.194L103.884 241.412L96.7754 234.488L106.6 233.052L110.993 224.152Z" fill="white"/>
<path d="M178.897 214.465L186.436 229.74L203.297 232.204L191.097 244.087L193.976 260.875L178.897 252.944L163.817 260.875L166.696 244.087L154.496 232.204L171.357 229.74L178.897 214.465Z" fill="#930043"/>
<path d="M240.669 224.152L245.062 233.052L254.887 234.488L247.778 241.412L249.456 251.194L240.669 246.573L231.882 251.194L233.56 241.412L226.451 234.488L236.276 233.052L240.669 224.152Z" fill="white"/>
<path d="M281.773 224.152L286.166 233.052L295.99 234.488L288.882 241.412L290.559 251.194L281.773 246.573L272.986 251.194L274.664 241.412L267.555 234.488L277.379 233.052L281.773 224.152Z" fill="white"/>
<g clip-path="url(#clip0_929_2005)">
<path d="M185.63 290.623V295.377H181.14V284.549H179.556V295.377H174.802V284.549H173.217V301.451H168.727V290.623H167.143V307.79H168.727V303.036H179.556V313.864H181.14V296.962H185.63V307.79H187.215V290.623H185.63ZM179.556 301.451H174.802V296.962H179.556V301.451Z" fill="#930043"/>
<path d="M174.799 303.831H173.215V313.867H174.799V303.831Z" fill="#930043"/>
</g>
<path d="M134.299 321.946V331.439H132.179V327.878H125.817V331.439H123.697V321.946H125.817V325.506H132.179V321.946H134.299Z" fill="black"/>
<path d="M136.109 331.439V321.932H138.75V331.439H136.109Z" fill="black"/>
<path d="M150.895 324.317H146.655V331.437H144.535V324.317H140.293V321.945H150.895V324.317Z" fill="black"/>
<path d="M162.938 321.945V324.317H154.456V324.32H152.336V321.945H162.938ZM162.938 325.706V327.641H154.456V327.646H152.336V325.706H162.938ZM162.938 329.065V331.437H152.336V329.065H162.938Z" fill="black"/>
<path d="M175.358 325.019V326.097H173.238V325.23C173.238 324.727 172.872 324.317 172.422 324.317H164.756V321.945H172.611C172.827 321.945 173.036 321.973 173.238 322.026C174.251 322.29 175.049 323.183 175.287 324.32C175.333 324.543 175.358 324.777 175.358 325.019ZM167.692 329.065H175.358V331.437H167.503C167.405 331.437 167.31 331.432 167.217 331.42C167.101 331.407 166.987 331.384 166.876 331.356C165.863 331.092 165.065 330.199 164.827 329.062C164.808 328.978 164.795 328.894 164.783 328.811C164.765 328.663 164.754 328.513 164.754 328.36V325.604H166.874V328.149C166.876 328.655 167.242 329.065 167.692 329.065Z" fill="black"/>
<path d="M187.666 321.945V331.437H185.546V327.877H179.184V331.437H177.064V321.945H179.184V325.505H185.546V321.945H187.666Z" fill="black"/>
<path d="M205.686 321.945V331.437H203.566V327.877H197.204V331.437H195.084V321.945H197.204V325.505H203.566V321.945H205.686Z" fill="#930043"/>
<path d="M218.118 321.945V331.437H216.054V330.42L215.23 331.437H209.947C208.697 331.292 207.695 330.209 207.514 328.828V321.945H209.634V328.152C209.634 328.655 209.999 329.065 210.449 329.065H215.991L215.995 321.945H218.118Z" fill="#930043"/>
<path d="M230.619 327.918C230.646 328.088 230.66 328.264 230.66 328.442C230.66 328.65 230.642 328.854 230.606 329.049C230.372 330.323 229.413 331.302 228.231 331.422C228.152 331.43 228.07 331.435 227.986 331.435C227.902 331.435 227.822 331.43 227.74 331.422H222.151V331.435H220.031V329.052H220.034V327.92H220.031V325.568H220.034V324.281H220.031V321.932H227.986C229.272 321.932 230.349 322.949 230.603 324.304C230.642 324.505 230.66 324.711 230.66 324.925C230.66 325.138 230.64 325.344 230.603 325.545C230.526 325.965 230.367 326.351 230.151 326.684C230.383 327.043 230.547 327.463 230.619 327.918ZM228.54 324.925C228.54 324.584 228.293 324.304 227.986 324.304H226.416V324.281H222.153V325.568H226.416V325.545H227.986C228.086 325.545 228.177 325.517 228.259 325.466C228.427 325.36 228.54 325.156 228.54 324.925ZM228.54 328.444C228.54 328.223 228.436 328.03 228.281 327.92H222.156V329.052H228.099C228.349 328.993 228.54 328.742 228.54 328.444Z" fill="#930043"/>
<defs>
<clipPath id="clip0_929_2005">
<rect width="20.072" height="29.3157" fill="white" transform="translate(167.143 284.549)"/>
</clipPath>
</defs>
</svg>
