<svg width="355" height="401" viewBox="0 0 355 401" fill="none" xmlns="http://www.w3.org/2000/svg">
<path d="M16.3161 82.4206L162.312 5.66463C171.583 0.778456 183.012 0.778456 192.284 5.66463L338.279 82.4206C347.55 87.3068 353.265 96.3116 353.265 106.065V295.072C353.265 304.826 347.55 313.831 338.279 318.717L192.284 395.473C183.012 400.359 171.583 400.359 162.312 395.473L16.3161 318.717C7.04491 313.831 1.33008 304.826 1.33008 295.072V106.065C1.33008 96.2929 7.04491 87.2881 16.3161 82.4206Z" fill="white" stroke="#930043" stroke-width="2.23497" stroke-miterlimit="10"/>
<path d="M329.816 286.548C329.816 294.069 325.372 301.085 318.19 304.846L187.32 373.546C180.138 377.307 171.228 377.307 164.088 373.546L33.1761 304.846C25.9947 301.085 21.55 294.069 21.55 286.548V269.891H14.2451V286.548C14.2451 296.427 20.089 305.632 29.5134 310.571L160.425 379.29C165.117 381.76 170.405 382.994 175.693 382.994C180.961 382.994 186.229 381.76 190.941 379.29L321.853 310.571C331.277 305.632 337.121 296.427 337.121 286.548V269.891H329.837V286.548H329.816ZM321.853 90.5562L190.941 21.8559C181.537 16.898 169.829 16.9167 160.425 21.8559L29.5339 90.5562C20.1096 95.5142 14.2657 104.719 14.2657 114.598V208.237H21.5706V114.598C21.5706 107.076 26.0152 100.061 33.1967 96.3L164.047 27.5997C171.228 23.8391 180.138 23.8391 187.278 27.5997L318.19 96.3C325.372 100.061 329.816 107.076 329.816 114.598V208.237H337.101V114.598C337.121 104.719 331.277 95.5142 321.853 90.5562Z" fill="#930043"/>
<path d="M103.435 96.3154V78.243H107.005L109.567 92.0797L112.128 78.243H115.698V96.3154H113.117V82.0551L110.535 96.3154H108.599L106.017 82.0551V96.3154H103.435ZM124.592 96.4969C123.684 96.4969 122.904 96.3591 122.252 96.0834C121.607 95.8078 121.092 95.4044 120.709 94.8732C120.326 94.3421 120.047 93.7202 119.872 93.0075C119.697 92.2881 119.61 91.4544 119.61 90.5064V83.9511C119.61 83.0031 119.697 82.1762 119.872 81.4702C120.047 80.7643 120.326 80.1524 120.709 79.6347C121.092 79.1103 121.607 78.717 122.252 78.4548C122.904 78.1926 123.684 78.0615 124.592 78.0615C126.353 78.0615 127.624 78.5657 128.404 79.5742C129.184 80.5827 129.574 82.0417 129.574 83.9511V90.5064C129.574 91.4409 129.483 92.2679 129.302 92.9873C129.127 93.7 128.848 94.3253 128.464 94.8631C128.081 95.3943 127.564 95.801 126.911 96.0834C126.266 96.3591 125.493 96.4969 124.592 96.4969ZM122.706 93.5622C123.056 94.1067 123.684 94.379 124.592 94.379C125.499 94.379 126.125 94.1067 126.468 93.5622C126.817 93.0176 126.992 92.2141 126.992 91.1518V83.3057C126.992 82.2568 126.821 81.4736 126.478 80.9559C126.135 80.4382 125.506 80.1793 124.592 80.1793C123.677 80.1793 123.049 80.4382 122.706 80.9559C122.363 81.4736 122.192 82.2568 122.192 83.3057V91.1518C122.192 92.2141 122.363 93.0176 122.706 93.5622ZM138.195 96.4969C136.568 96.4969 135.324 96.0195 134.463 95.0648C133.61 94.1101 133.132 92.8058 133.031 91.1518L135.613 90.5064C135.741 93.0882 136.601 94.379 138.195 94.379C139.486 94.379 140.131 93.7336 140.131 92.4427C140.131 92.0595 140.077 91.7065 139.97 91.3838C139.869 91.0543 139.711 90.7552 139.496 90.4862C139.281 90.2106 139.086 89.9921 138.911 89.8307C138.736 89.6626 138.497 89.4576 138.195 89.2155L134.968 86.6337C134.376 86.1698 133.902 85.5815 133.546 84.8689C133.196 84.1495 133.021 83.3326 133.021 82.4182C133.021 81.087 133.435 80.0281 134.262 79.2414C135.089 78.4548 136.185 78.0615 137.549 78.0615C139.015 78.0615 140.178 78.4212 141.039 79.1406C141.906 79.8532 142.441 80.8651 142.642 82.1762C142.663 82.3174 142.686 82.5123 142.713 82.7611L140.131 83.4065C140.125 83.2922 140.108 83.1208 140.081 82.8922C139.967 82.072 139.708 81.4164 139.304 80.9256C138.908 80.4281 138.323 80.1793 137.549 80.1793C136.931 80.1793 136.454 80.3541 136.117 80.7038C135.781 81.0466 135.613 81.5274 135.613 82.1459C135.613 83.1611 136.043 84.0116 136.904 84.6974L140.131 87.2792C141.852 88.6709 142.713 90.335 142.713 92.2713C142.713 93.5958 142.303 94.6312 141.483 95.3775C140.669 96.1238 139.573 96.4969 138.195 96.4969ZM148.177 96.3154V80.5424H144.95V78.243H153.986V80.5424H150.759V96.3154H148.177ZM165.349 85.9883H165.994C167.07 85.9883 167.877 85.7631 168.415 85.3126C168.953 84.8554 169.222 84.1125 169.222 83.0838C169.222 82.0551 168.953 81.3156 168.415 80.8651C167.877 80.4079 167.07 80.1793 165.994 80.1793H165.349V85.9883ZM162.767 96.3154V78.243H165.994C167.917 78.243 169.366 78.6162 170.341 79.3624C171.316 80.1087 171.803 81.3492 171.803 83.0838C171.803 84.1596 171.612 85.0605 171.229 85.7866C170.845 86.5127 170.284 87.0103 169.544 87.2792L172.449 96.3154H169.887L167.285 87.9246H165.349V96.3154H162.767ZM175.594 96.3154V78.243H182.694V80.1793H178.176V85.9883H181.403V87.9246H178.176V94.379H182.694V96.3154H175.594ZM188.642 96.3154L184.77 78.243H187.351L189.257 87.9246L189.923 92.4427L190.609 87.9246L192.515 78.243H195.097L191.224 96.3154H188.642ZM198.282 96.3154V78.243H200.864V96.3154H198.282ZM205.279 96.3154V78.243H212.379V80.1793H207.861V85.9883H211.088V87.9246H207.861V94.379H212.379V96.3154H205.279ZM217.672 96.3154L214.445 78.243H217.027L218.318 86.6337L218.973 91.7973L219.608 86.6337L220.899 78.243H223.481L224.772 86.6337L225.407 91.7973L226.063 86.6337L227.354 78.243H229.936L226.708 96.3154H224.127L222.836 87.9246L222.19 82.7611L221.545 87.9246L220.254 96.3154H217.672ZM232.99 96.3154V78.243H240.09V80.1793H235.571V85.9883H238.799V87.9246H235.571V94.379H240.09V96.3154H232.99ZM243.335 96.3154V78.243H247.339C249.228 78.243 250.56 78.6296 251.333 79.4028C252.113 80.176 252.503 81.5106 252.503 83.4065V90.5064C252.503 92.4898 252.106 93.9555 251.313 94.9035C250.526 95.8447 249.195 96.3154 247.319 96.3154H243.335ZM245.917 94.379H247.339C247.763 94.379 248.126 94.3421 248.428 94.2681C248.731 94.1874 248.976 94.0462 249.164 93.8445C249.353 93.6361 249.501 93.4411 249.608 93.2596C249.716 93.0714 249.79 92.7822 249.83 92.3923C249.877 92.0023 249.904 91.683 249.911 91.4342C249.917 91.1787 249.921 90.7854 249.921 90.2543C249.921 90.0795 249.921 89.9484 249.921 89.861V84.052C249.921 83.7225 249.917 83.4603 249.911 83.2653C249.911 83.0704 249.901 82.8418 249.88 82.5796C249.867 82.3106 249.843 82.0988 249.81 81.9442C249.776 81.7896 249.729 81.6181 249.669 81.4299C249.608 81.2349 249.531 81.0836 249.437 80.976C249.349 80.8685 249.238 80.7575 249.104 80.6432C248.976 80.5222 248.825 80.4348 248.65 80.381C248.482 80.3205 248.284 80.2735 248.055 80.2398C247.826 80.1995 247.571 80.1793 247.289 80.1793H245.917V94.379Z" fill="#930043"/>
<path d="M48.2894 148.341L48.6368 128.24H52.4338L55.2878 142.162L58.2658 128.24H61.9387L62.311 148.341H59.5811L59.2833 134.369L56.4294 148.341H54.2207L51.3171 134.32L51.0441 148.341H48.2894ZM70.7393 148.614C69.3164 148.614 68.1831 148.35 67.3393 147.82C66.4956 147.291 65.8917 146.53 65.5277 145.537C65.1637 144.544 64.9817 143.37 64.9817 142.013V134.493C64.9817 133.137 65.1637 131.979 65.5277 131.019C65.8917 130.043 66.4956 129.298 67.3393 128.786C68.1831 128.273 69.3164 128.016 70.7393 128.016C72.1952 128.016 73.3368 128.273 74.164 128.786C75.0078 129.298 75.6116 130.043 75.9756 131.019C76.3562 131.979 76.5464 133.137 76.5464 134.493V142.038C76.5464 143.378 76.3562 144.544 75.9756 145.537C75.6116 146.513 75.0078 147.274 74.164 147.82C73.3368 148.35 72.1952 148.614 70.7393 148.614ZM70.7393 145.909C71.3514 145.909 71.7981 145.777 72.0794 145.512C72.3772 145.247 72.5757 144.883 72.675 144.42C72.7742 143.957 72.8239 143.452 72.8239 142.906V133.65C72.8239 133.087 72.7742 132.583 72.675 132.136C72.5757 131.689 72.3772 131.342 72.0794 131.094C71.7981 130.829 71.3514 130.696 70.7393 130.696C70.1602 130.696 69.7218 130.829 69.424 131.094C69.1262 131.342 68.9276 131.689 68.8283 132.136C68.7291 132.583 68.6794 133.087 68.6794 133.65V142.906C68.6794 143.452 68.7208 143.957 68.8035 144.42C68.9028 144.883 69.1013 145.247 69.3991 145.512C69.6969 145.777 70.1436 145.909 70.7393 145.909ZM79.2633 148.341V128.24H84.2019C85.0953 128.24 85.8977 128.322 86.6091 128.488C87.3371 128.653 87.9575 128.934 88.4704 129.332C88.9998 129.712 89.4052 130.233 89.6864 130.895C89.9677 131.557 90.1083 132.392 90.1083 133.402C90.1083 134.212 89.9925 134.907 89.7609 135.486C89.5458 136.065 89.2232 136.528 88.793 136.876C88.3628 137.207 87.8251 137.43 87.1799 137.546C87.974 137.678 88.6276 137.96 89.1404 138.39C89.6699 138.803 90.0587 139.349 90.3068 140.028C90.5716 140.706 90.7039 141.525 90.7039 142.485C90.7039 143.444 90.5798 144.296 90.3317 145.041C90.1 145.769 89.7443 146.381 89.2645 146.877C88.8013 147.357 88.2139 147.721 87.5025 147.969C86.8077 148.217 85.9887 148.341 85.0456 148.341H79.2633ZM82.9362 145.76H84.326C85.4344 145.76 86.1872 145.496 86.5843 144.966C86.9814 144.42 87.1799 143.585 87.1799 142.46C87.1799 141.649 87.0806 140.995 86.8821 140.499C86.7001 139.986 86.3858 139.606 85.9391 139.358C85.5089 139.109 84.9298 138.985 84.2019 138.985H82.9362V145.76ZM82.9362 136.454H84.1771C84.905 136.454 85.4675 136.346 85.8646 136.131C86.2617 135.916 86.5347 135.585 86.6836 135.139C86.849 134.692 86.9317 134.129 86.9317 133.451C86.9317 132.74 86.8077 132.194 86.5595 131.813C86.3279 131.416 85.9721 131.151 85.4924 131.019C85.0126 130.87 84.4004 130.796 83.6559 130.796H82.9362V136.454ZM93.1767 148.341V128.24H96.8V148.341H93.1767ZM99.9118 148.341V128.24H103.585V145.81H108.449V148.341H99.9118ZM110.357 148.341V128.24H118.795V130.821H114.03V136.603H117.777V139.159H114.03V145.81H118.845V148.341H110.357ZM125.989 148.341L130.01 128.24H133.931L137.951 148.341H134.551L133.757 143.701H130.258L129.439 148.341H125.989ZM130.63 141.368H133.36L131.995 132.93L130.63 141.368ZM139.973 148.341V128.24H145.879C147.087 128.24 148.063 128.463 148.808 128.91C149.569 129.356 150.123 130.01 150.47 130.87C150.834 131.714 151.016 132.74 151.016 133.947C151.016 135.255 150.793 136.313 150.346 137.124C149.9 137.918 149.271 138.497 148.46 138.861C147.666 139.225 146.723 139.407 145.631 139.407H143.646V148.341H139.973ZM143.646 136.826H145.035C145.697 136.826 146.21 136.735 146.574 136.553C146.955 136.355 147.211 136.049 147.343 135.635C147.492 135.205 147.567 134.634 147.567 133.923C147.567 133.195 147.509 132.607 147.393 132.161C147.294 131.697 147.062 131.358 146.698 131.143C146.351 130.928 145.796 130.821 145.035 130.821H143.646V136.826ZM153.06 148.341V128.24H158.966C160.174 128.24 161.15 128.463 161.895 128.91C162.656 129.356 163.21 130.01 163.557 130.87C163.921 131.714 164.103 132.74 164.103 133.947C164.103 135.255 163.88 136.313 163.433 137.124C162.987 137.918 162.358 138.497 161.547 138.861C160.753 139.225 159.81 139.407 158.718 139.407H156.733V148.341H153.06ZM156.733 136.826H158.122C158.784 136.826 159.297 136.735 159.661 136.553C160.042 136.355 160.298 136.049 160.43 135.635C160.579 135.205 160.654 134.634 160.654 133.923C160.654 133.195 160.596 132.607 160.48 132.161C160.381 131.697 160.149 131.358 159.785 131.143C159.438 130.928 158.884 130.821 158.122 130.821H156.733V136.826ZM172.181 148.341V128.24H176.921C178.559 128.24 179.833 128.463 180.743 128.91C181.67 129.356 182.323 130.043 182.704 130.969C183.101 131.896 183.299 133.071 183.299 134.493V141.839C183.299 143.295 183.101 144.511 182.704 145.487C182.323 146.447 181.678 147.167 180.768 147.646C179.875 148.11 178.642 148.341 177.07 148.341H172.181ZM175.854 145.785H176.971C177.815 145.785 178.419 145.636 178.783 145.338C179.147 145.041 179.37 144.61 179.453 144.048C179.536 143.469 179.577 142.766 179.577 141.939V134.245C179.577 133.435 179.519 132.781 179.403 132.285C179.287 131.788 179.047 131.424 178.684 131.193C178.32 130.961 177.732 130.845 176.921 130.845H175.854V145.785ZM185.996 148.341V128.24H194.433V130.821H189.668V136.603H193.416V139.159H189.668V145.81H194.483V148.341H185.996ZM199.688 148.341L195.643 128.24H198.894L201.549 142.46L204.031 128.24H207.356L203.311 148.341H199.688ZM209.407 148.341V128.24H217.845V130.821H213.08V136.603H216.827V139.159H213.08V145.81H217.894V148.341H209.407ZM220.022 148.341V128.24H223.695V145.81H228.559V148.341H220.022ZM235.685 148.614C234.262 148.614 233.129 148.35 232.285 147.82C231.441 147.291 230.837 146.53 230.473 145.537C230.109 144.544 229.927 143.37 229.927 142.013V134.493C229.927 133.137 230.109 131.979 230.473 131.019C230.837 130.043 231.441 129.298 232.285 128.786C233.129 128.273 234.262 128.016 235.685 128.016C237.141 128.016 238.282 128.273 239.109 128.786C239.953 129.298 240.557 130.043 240.921 131.019C241.302 131.979 241.492 133.137 241.492 134.493V142.038C241.492 143.378 241.302 144.544 240.921 145.537C240.557 146.513 239.953 147.274 239.109 147.82C238.282 148.35 237.141 148.614 235.685 148.614ZM235.685 145.909C236.297 145.909 236.744 145.777 237.025 145.512C237.323 145.247 237.521 144.883 237.62 144.42C237.72 143.957 237.769 143.452 237.769 142.906V133.65C237.769 133.087 237.72 132.583 237.62 132.136C237.521 131.689 237.323 131.342 237.025 131.094C236.744 130.829 236.297 130.696 235.685 130.696C235.106 130.696 234.667 130.829 234.369 131.094C234.072 131.342 233.873 131.689 233.774 132.136C233.675 132.583 233.625 133.087 233.625 133.65V142.906C233.625 143.452 233.666 143.957 233.749 144.42C233.848 144.883 234.047 145.247 234.345 145.512C234.642 145.777 235.089 145.909 235.685 145.909ZM244.209 148.341V128.24H250.115C251.323 128.24 252.299 128.463 253.044 128.91C253.805 129.356 254.359 130.01 254.706 130.87C255.07 131.714 255.252 132.74 255.252 133.947C255.252 135.255 255.029 136.313 254.582 137.124C254.136 137.918 253.507 138.497 252.696 138.861C251.902 139.225 250.959 139.407 249.867 139.407H247.882V148.341H244.209ZM247.882 136.826H249.271C249.933 136.826 250.446 136.735 250.81 136.553C251.191 136.355 251.447 136.049 251.579 135.635C251.728 135.205 251.803 134.634 251.803 133.923C251.803 133.195 251.745 132.607 251.629 132.161C251.53 131.697 251.298 131.358 250.934 131.143C250.587 130.928 250.033 130.821 249.271 130.821H247.882V136.826ZM257.246 148.341L257.594 128.24H261.391L264.245 142.162L267.223 128.24H270.896L271.268 148.341H268.538L268.24 134.369L265.386 148.341H263.177L260.274 134.32L260.001 148.341H257.246ZM274.236 148.341V128.24H282.674V130.821H277.909V136.603H281.657V139.159H277.909V145.81H282.724V148.341H274.236ZM284.851 148.341V128.24H287.408L292.296 139.705V128.24H295.324V148.341H292.892L287.978 136.33V148.341H284.851ZM300.385 148.341V130.945H297.183V128.24H307.21V130.945H304.058V148.341H300.385ZM97.9786 185.614C96.5061 185.614 95.348 185.325 94.5042 184.746C93.677 184.167 93.0979 183.381 92.767 182.388C92.4361 181.379 92.2707 180.221 92.2707 178.914V171.742C92.2707 170.368 92.4361 169.177 92.767 168.168C93.0979 167.159 93.677 166.381 94.5042 165.835C95.348 165.289 96.5061 165.016 97.9786 165.016C99.3683 165.016 100.452 165.256 101.23 165.736C102.024 166.199 102.586 166.869 102.917 167.746C103.248 168.623 103.413 169.64 103.413 170.799V172.486H99.8895V170.749C99.8895 170.186 99.8564 169.674 99.7902 169.21C99.7406 168.747 99.5834 168.383 99.3187 168.118C99.0705 167.837 98.6321 167.696 98.0034 167.696C97.3747 167.696 96.9114 167.845 96.6136 168.143C96.3324 168.424 96.1504 168.813 96.0677 169.31C95.9849 169.789 95.9436 170.335 95.9436 170.947V179.683C95.9436 180.411 96.0015 181.015 96.1173 181.495C96.2331 181.958 96.4399 182.314 96.7377 182.562C97.0521 182.793 97.474 182.909 98.0034 182.909C98.6155 182.909 99.0457 182.769 99.2939 182.487C99.5586 182.19 99.724 181.801 99.7902 181.321C99.8564 180.841 99.8895 180.303 99.8895 179.708V177.896H103.413V179.509C103.413 180.701 103.256 181.759 102.942 182.686C102.628 183.596 102.073 184.316 101.279 184.845C100.502 185.358 99.4014 185.614 97.9786 185.614ZM111.43 185.614C110.007 185.614 108.874 185.35 108.03 184.82C107.187 184.291 106.583 183.53 106.219 182.537C105.855 181.544 105.673 180.37 105.673 179.013V171.493C105.673 170.137 105.855 168.979 106.219 168.019C106.583 167.043 107.187 166.298 108.03 165.786C108.874 165.273 110.007 165.016 111.43 165.016C112.886 165.016 114.028 165.273 114.855 165.786C115.699 166.298 116.303 167.043 116.667 168.019C117.047 168.979 117.237 170.137 117.237 171.493V179.038C117.237 180.378 117.047 181.544 116.667 182.537C116.303 183.513 115.699 184.274 114.855 184.82C114.028 185.35 112.886 185.614 111.43 185.614ZM111.43 182.909C112.042 182.909 112.489 182.777 112.77 182.512C113.068 182.247 113.267 181.883 113.366 181.42C113.465 180.957 113.515 180.452 113.515 179.906V170.65C113.515 170.087 113.465 169.583 113.366 169.136C113.267 168.689 113.068 168.342 112.77 168.094C112.489 167.829 112.042 167.696 111.43 167.696C110.851 167.696 110.413 167.829 110.115 168.094C109.817 168.342 109.619 168.689 109.519 169.136C109.42 169.583 109.371 170.087 109.371 170.65V179.906C109.371 180.452 109.412 180.957 109.495 181.42C109.594 181.883 109.792 182.247 110.09 182.512C110.388 182.777 110.835 182.909 111.43 182.909ZM119.905 185.341L120.252 165.24H124.049L126.903 179.162L129.881 165.24H133.554L133.926 185.341H131.196L130.899 171.369L128.045 185.341H125.836L122.932 171.32L122.659 185.341H119.905ZM136.895 185.341V165.24H142.801C144.009 165.24 144.985 165.463 145.73 165.91C146.491 166.356 147.045 167.01 147.392 167.87C147.756 168.714 147.938 169.74 147.938 170.947C147.938 172.255 147.715 173.313 147.268 174.124C146.822 174.918 146.193 175.497 145.382 175.861C144.588 176.225 143.645 176.407 142.553 176.407H140.568V185.341H136.895ZM140.568 173.826H141.958C142.619 173.826 143.132 173.735 143.496 173.553C143.877 173.355 144.133 173.049 144.265 172.635C144.414 172.205 144.489 171.634 144.489 170.923C144.489 170.195 144.431 169.607 144.315 169.161C144.216 168.697 143.984 168.358 143.62 168.143C143.273 167.928 142.719 167.821 141.958 167.821H140.568V173.826ZM147.898 185.341L151.918 165.24H155.839L159.86 185.341H156.46L155.666 180.701H152.167L151.348 185.341H147.898ZM152.539 178.368H155.269L153.904 169.93L152.539 178.368ZM161.881 185.341V165.24H164.438L169.327 176.705V165.24H172.354V185.341H169.922L165.008 173.33V185.341H161.881ZM175.504 185.341V165.24H179.127V185.341H175.504ZM182.239 185.341V165.24H190.677V167.821H185.912V173.603H189.659V176.159H185.912V182.81H190.727V185.341H182.239ZM197.917 185.614C196.709 185.614 195.7 185.383 194.889 184.919C194.078 184.44 193.466 183.745 193.053 182.835C192.639 181.925 192.407 180.808 192.358 179.485L195.51 178.864C195.543 179.642 195.634 180.328 195.783 180.924C195.948 181.519 196.188 181.983 196.502 182.314C196.833 182.628 197.263 182.785 197.793 182.785C198.388 182.785 198.81 182.611 199.058 182.264C199.307 181.9 199.431 181.445 199.431 180.899C199.431 180.022 199.232 179.303 198.835 178.74C198.438 178.177 197.909 177.615 197.247 177.052L194.715 174.819C194.004 174.207 193.433 173.528 193.003 172.784C192.589 172.023 192.383 171.088 192.383 169.98C192.383 168.391 192.846 167.167 193.772 166.307C194.699 165.446 195.965 165.016 197.569 165.016C198.512 165.016 199.298 165.165 199.927 165.463C200.556 165.744 201.052 166.141 201.416 166.654C201.797 167.167 202.078 167.754 202.26 168.416C202.442 169.061 202.558 169.748 202.607 170.476L199.48 171.022C199.447 170.393 199.373 169.831 199.257 169.334C199.158 168.838 198.967 168.449 198.686 168.168C198.421 167.887 198.024 167.746 197.495 167.746C196.949 167.746 196.527 167.928 196.229 168.292C195.948 168.639 195.807 169.078 195.807 169.607C195.807 170.286 195.948 170.848 196.229 171.295C196.511 171.725 196.916 172.172 197.445 172.635L199.952 174.844C200.779 175.539 201.482 176.358 202.061 177.301C202.657 178.227 202.955 179.352 202.955 180.676C202.955 181.635 202.74 182.487 202.309 183.232C201.896 183.976 201.308 184.564 200.547 184.994C199.803 185.407 198.926 185.614 197.917 185.614ZM211.251 185.341V165.24H214.874V185.341H211.251ZM217.986 185.341V165.24H220.542L225.431 176.705V165.24H228.459V185.341H226.027L221.113 173.33V185.341H217.986ZM243.053 185.614C241.564 185.614 240.406 185.341 239.579 184.795C238.752 184.249 238.181 183.472 237.867 182.463C237.552 181.453 237.395 180.246 237.395 178.839V165.24H240.969V179.261C240.969 179.89 241.01 180.485 241.093 181.048C241.176 181.594 241.366 182.041 241.664 182.388C241.978 182.719 242.441 182.884 243.053 182.884C243.699 182.884 244.162 182.719 244.443 182.388C244.741 182.041 244.931 181.594 245.014 181.048C245.113 180.485 245.163 179.89 245.163 179.261V165.24H248.712V178.839C248.712 180.246 248.555 181.453 248.24 182.463C247.926 183.472 247.355 184.249 246.528 184.795C245.717 185.341 244.559 185.614 243.053 185.614ZM251.601 185.341V165.24H255.273V174.074L259.244 165.24H262.743L258.897 174.223L263.14 185.341H259.492L256.117 176.184L255.273 177.723V185.341H251.601Z" fill="black"/>
<rect x="1.33008" y="216.488" width="351.935" height="44.37" fill="#930043"/>
<circle cx="177.8" cy="235.646" r="37.3111" fill="white"/>
<path d="M70.0021 224.152L74.3954 233.052L84.22 234.488L77.111 241.412L78.7887 251.194L70.0021 246.573L61.2154 251.194L62.8931 241.412L55.7842 234.488L65.6088 233.052L70.0021 224.152Z" fill="white"/>
<path d="M111.107 224.152L115.5 233.052L125.324 234.488L118.216 241.412L119.893 251.194L111.107 246.573L102.32 251.194L103.998 241.412L96.8887 234.488L106.713 233.052L111.107 224.152Z" fill="white"/>
<path d="M179.007 214.465L186.547 229.74L203.407 232.204L191.207 244.087L194.086 260.875L179.007 252.945L163.927 260.875L166.807 244.087L154.606 232.204L171.467 229.74L179.007 214.465Z" fill="#930043"/>
<path d="M240.78 224.152L245.174 233.052L254.998 234.488L247.889 241.412L249.567 251.194L240.78 246.573L231.994 251.194L233.671 241.412L226.562 234.488L236.387 233.052L240.78 224.152Z" fill="white"/>
<path d="M281.885 224.152L286.278 233.052L296.103 234.488L288.994 241.412L290.672 251.194L281.885 246.573L273.098 251.194L274.776 241.412L267.667 234.488L277.492 233.052L281.885 224.152Z" fill="white"/>
<g clip-path="url(#clip0_929_2071)">
<path d="M185.742 290.623V295.377H181.252V284.549H179.668V295.377H174.914V284.549H173.329V301.452H168.84V290.623H167.255V307.79H168.84V303.036H179.668V313.865H181.252V296.962H185.742V307.79H187.327V290.623H185.742ZM179.668 301.452H174.914V296.962H179.668V301.452Z" fill="#930043"/>
<path d="M174.913 303.831H173.328V313.867H174.913V303.831Z" fill="#930043"/>
</g>
<path d="M134.41 321.946V331.439H132.29V327.879H125.928V331.439H123.809V321.946H125.928V325.506H132.29V321.946H134.41Z" fill="black"/>
<path d="M136.22 331.44V321.932H138.861V331.44H136.22Z" fill="black"/>
<path d="M151.006 324.317H146.766V331.438H144.646V324.317H140.404V321.945H151.006V324.317Z" fill="black"/>
<path d="M163.049 321.945V324.317H154.567V324.32H152.447V321.945H163.049ZM163.049 325.706V327.641H154.567V327.646H152.447V325.706H163.049ZM163.049 329.065V331.438H152.447V329.065H163.049Z" fill="black"/>
<path d="M175.47 325.019V326.098H173.35V325.23C173.35 324.727 172.984 324.317 172.535 324.317H164.868V321.945H172.723C172.939 321.945 173.148 321.973 173.35 322.026C174.364 322.291 175.161 323.183 175.4 324.32C175.445 324.544 175.47 324.778 175.47 325.019ZM167.804 329.065H175.47V331.438H167.615C167.518 331.438 167.422 331.433 167.329 331.42C167.213 331.407 167.1 331.384 166.988 331.356C165.975 331.092 165.177 330.199 164.939 329.063C164.921 328.979 164.907 328.895 164.896 328.811C164.878 328.663 164.866 328.513 164.866 328.361V325.604H166.986V328.15C166.988 328.656 167.354 329.065 167.804 329.065Z" fill="black"/>
<path d="M187.776 321.945V331.438H185.657V327.878H179.295V331.438H177.175V321.945H179.295V325.505H185.657V321.945H187.776Z" fill="black"/>
<path d="M205.797 321.945V331.438H203.677V327.878H197.315V331.438H195.195V321.945H197.315V325.505H203.677V321.945H205.797Z" fill="#930043"/>
<path d="M218.23 321.945V331.438H216.167V330.421L215.342 331.438H210.059C208.81 331.293 207.808 330.209 207.626 328.829V321.945H209.746V328.152C209.746 328.656 210.112 329.065 210.562 329.065H216.103L216.108 321.945H218.23Z" fill="#930043"/>
<path d="M230.73 327.918C230.757 328.088 230.77 328.264 230.77 328.442C230.77 328.65 230.752 328.854 230.716 329.05C230.482 330.324 229.523 331.303 228.342 331.422C228.262 331.43 228.18 331.435 228.096 331.435C228.012 331.435 227.933 331.43 227.851 331.422H222.261V331.435H220.142V329.052H220.144V327.921H220.142V325.568H220.144V324.282H220.142V321.932H228.096C229.382 321.932 230.459 322.949 230.714 324.305C230.752 324.505 230.77 324.711 230.77 324.925C230.77 325.139 230.75 325.345 230.714 325.545C230.636 325.965 230.477 326.352 230.262 326.685C230.493 327.043 230.657 327.463 230.73 327.918ZM228.651 324.925C228.651 324.584 228.403 324.305 228.096 324.305H226.526V324.282H222.264V325.568H226.526V325.545H228.096C228.196 325.545 228.287 325.518 228.369 325.467C228.537 325.36 228.651 325.156 228.651 324.925ZM228.651 328.444C228.651 328.223 228.546 328.03 228.392 327.921H222.266V329.052H228.21C228.46 328.994 228.651 328.742 228.651 328.444Z" fill="#930043"/>
<defs>
<clipPath id="clip0_929_2071">
<rect width="20.072" height="29.3157" fill="white" transform="translate(167.254 284.549)"/>
</clipPath>
</defs>
</svg>
