<svg width="355" height="401" viewBox="0 0 355 401" fill="none" xmlns="http://www.w3.org/2000/svg">
<path d="M16.2604 82.4206L162.256 5.66463C171.527 0.778456 182.957 0.778456 192.228 5.66463L338.223 82.4206C347.495 87.3068 353.209 96.3116 353.209 106.065V295.072C353.209 304.826 347.495 313.831 338.223 318.717L192.228 395.473C182.957 400.359 171.527 400.359 162.256 395.473L16.2604 318.717C6.98925 313.831 1.27441 304.826 1.27441 295.072V106.065C1.27441 96.2929 6.98925 87.2881 16.2604 82.4206Z" fill="white" stroke="#930043" stroke-width="2.23497" stroke-miterlimit="10"/>
<path d="M329.761 286.548C329.761 294.069 325.316 301.085 318.135 304.846L187.264 373.546C180.082 377.307 171.173 377.307 164.032 373.546L33.1204 304.846C25.939 301.085 21.4943 294.069 21.4943 286.548V269.891H14.1895V286.548C14.1895 296.427 20.0334 305.632 29.4577 310.571L160.37 379.29C165.061 381.76 170.349 382.994 175.638 382.994C180.906 382.994 186.173 381.76 190.885 379.29L321.797 310.571C331.222 305.632 337.066 296.427 337.066 286.548V269.891H329.781V286.548H329.761ZM321.797 90.5562L190.885 21.8559C181.482 16.898 169.773 16.9167 160.37 21.8559L29.4783 90.5562C20.0539 95.5142 14.21 104.719 14.21 114.598V208.237H21.5149V114.598C21.5149 107.076 25.9596 100.061 33.141 96.3L163.991 27.5997C171.173 23.8391 180.082 23.8391 187.223 27.5997L318.135 96.3C325.316 100.061 329.761 107.076 329.761 114.598V208.237H337.045V114.598C337.066 104.719 331.222 95.5142 321.797 90.5562Z" fill="#930043"/>
<path d="M103.38 96.3154V78.243H106.95L109.512 92.0797L112.074 78.243H115.644V96.3154H113.062V82.0551L110.48 96.3154H108.544L105.962 82.0551V96.3154H103.38ZM124.537 96.4969C123.629 96.4969 122.85 96.3591 122.197 96.0834C121.552 95.8078 121.038 95.4044 120.654 94.8732C120.271 94.3421 119.992 93.7202 119.817 93.0075C119.643 92.2881 119.555 91.4544 119.555 90.5064V83.9511C119.555 83.0031 119.643 82.1762 119.817 81.4702C119.992 80.7643 120.271 80.1524 120.654 79.6347C121.038 79.1103 121.552 78.717 122.197 78.4548C122.85 78.1926 123.629 78.0615 124.537 78.0615C126.299 78.0615 127.569 78.5657 128.349 79.5742C129.129 80.5827 129.519 82.0417 129.519 83.9511V90.5064C129.519 91.4409 129.428 92.2679 129.247 92.9873C129.072 93.7 128.793 94.3253 128.41 94.8631C128.027 95.3943 127.509 95.801 126.857 96.0834C126.211 96.3591 125.438 96.4969 124.537 96.4969ZM122.651 93.5622C123.001 94.1067 123.629 94.379 124.537 94.379C125.445 94.379 126.07 94.1067 126.413 93.5622C126.763 93.0176 126.937 92.2141 126.937 91.1518V83.3057C126.937 82.2568 126.766 81.4736 126.423 80.9559C126.08 80.4382 125.452 80.1793 124.537 80.1793C123.623 80.1793 122.994 80.4382 122.651 80.9559C122.308 81.4736 122.137 82.2568 122.137 83.3057V91.1518C122.137 92.2141 122.308 93.0176 122.651 93.5622ZM138.14 96.4969C136.513 96.4969 135.269 96.0195 134.409 95.0648C133.555 94.1101 133.078 92.8058 132.977 91.1518L135.558 90.5064C135.686 93.0882 136.547 94.379 138.14 94.379C139.431 94.379 140.077 93.7336 140.077 92.4427C140.077 92.0595 140.023 91.7065 139.915 91.3838C139.814 91.0543 139.656 90.7552 139.441 90.4862C139.226 90.2106 139.031 89.9921 138.856 89.8307C138.681 89.6626 138.443 89.4576 138.14 89.2155L134.913 86.6337C134.321 86.1698 133.847 85.5815 133.491 84.8689C133.141 84.1495 132.967 83.3326 132.967 82.4182C132.967 81.087 133.38 80.0281 134.207 79.2414C135.034 78.4548 136.13 78.0615 137.495 78.0615C138.96 78.0615 140.124 78.4212 140.984 79.1406C141.852 79.8532 142.386 80.8651 142.588 82.1762C142.608 82.3174 142.631 82.5123 142.658 82.7611L140.077 83.4065C140.07 83.2922 140.053 83.1208 140.026 82.8922C139.912 82.072 139.653 81.4164 139.25 80.9256C138.853 80.4281 138.268 80.1793 137.495 80.1793C136.876 80.1793 136.399 80.3541 136.063 80.7038C135.727 81.0466 135.558 81.5274 135.558 82.1459C135.558 83.1611 135.989 84.0116 136.849 84.6974L140.077 87.2792C141.798 88.6709 142.658 90.335 142.658 92.2713C142.658 93.5958 142.248 94.6312 141.428 95.3775C140.614 96.1238 139.519 96.4969 138.14 96.4969ZM148.123 96.3154V80.5424H144.896V78.243H153.932V80.5424H150.705V96.3154H148.123ZM165.294 85.9883H165.94C167.016 85.9883 167.822 85.7631 168.36 85.3126C168.898 84.8554 169.167 84.1125 169.167 83.0838C169.167 82.0551 168.898 81.3156 168.36 80.8651C167.822 80.4079 167.016 80.1793 165.94 80.1793H165.294V85.9883ZM162.713 96.3154V78.243H165.94C167.863 78.243 169.312 78.6162 170.286 79.3624C171.261 80.1087 171.749 81.3492 171.749 83.0838C171.749 84.1596 171.557 85.0605 171.174 85.7866C170.791 86.5127 170.229 87.0103 169.49 87.2792L172.394 96.3154H169.833L167.231 87.9246H165.294V96.3154H162.713ZM175.539 96.3154V78.243H182.639V80.1793H178.121V85.9883H181.348V87.9246H178.121V94.379H182.639V96.3154H175.539ZM188.588 96.3154L184.715 78.243H187.297L189.203 87.9246L189.868 92.4427L190.554 87.9246L192.46 78.243H195.042L191.169 96.3154H188.588ZM198.227 96.3154V78.243H200.809V96.3154H198.227ZM205.225 96.3154V78.243H212.324V80.1793H207.806V85.9883H211.034V87.9246H207.806V94.379H212.324V96.3154H205.225ZM217.617 96.3154L214.39 78.243H216.972L218.263 86.6337L218.918 91.7973L219.554 86.6337L220.845 78.243H223.426L224.717 86.6337L225.353 91.7973L226.008 86.6337L227.299 78.243H229.881L226.654 96.3154H224.072L222.781 87.9246L222.136 82.7611L221.49 87.9246L220.199 96.3154H217.617ZM232.935 96.3154V78.243H240.035V80.1793H235.517V85.9883H238.744V87.9246H235.517V94.379H240.035V96.3154H232.935ZM243.281 96.3154V78.243H247.284C249.174 78.243 250.505 78.6296 251.278 79.4028C252.058 80.176 252.448 81.5106 252.448 83.4065V90.5064C252.448 92.4898 252.051 93.9555 251.258 94.9035C250.471 95.8447 249.14 96.3154 247.264 96.3154H243.281ZM245.862 94.379H247.284C247.708 94.379 248.071 94.3421 248.374 94.2681C248.676 94.1874 248.921 94.0462 249.11 93.8445C249.298 93.6361 249.446 93.4411 249.553 93.2596C249.661 93.0714 249.735 92.7822 249.775 92.3923C249.822 92.0023 249.849 91.683 249.856 91.4342C249.863 91.1787 249.866 90.7854 249.866 90.2543C249.866 90.0795 249.866 89.9484 249.866 89.861V84.052C249.866 83.7225 249.863 83.4603 249.856 83.2653C249.856 83.0704 249.846 82.8418 249.826 82.5796C249.812 82.3106 249.789 82.0988 249.755 81.9442C249.722 81.7896 249.675 81.6181 249.614 81.4299C249.553 81.2349 249.476 81.0836 249.382 80.976C249.295 80.8685 249.184 80.7575 249.049 80.6432C248.921 80.5222 248.77 80.4348 248.595 80.381C248.427 80.3205 248.229 80.2735 248 80.2398C247.772 80.1995 247.516 80.1793 247.234 80.1793H245.862V94.379Z" fill="#930043"/>
<path d="M48.2347 148.341L48.5822 128.24H52.3792L55.2331 142.162L58.2111 128.24H61.884L62.2563 148.341H59.5264L59.2286 134.369L56.3747 148.341H54.166L51.2624 134.32L50.9894 148.341H48.2347ZM70.6846 148.614C69.2617 148.614 68.1284 148.35 67.2846 147.82C66.4409 147.291 65.837 146.53 65.473 145.537C65.109 144.544 64.927 143.37 64.927 142.013V134.493C64.927 133.137 65.109 131.979 65.473 131.019C65.837 130.043 66.4409 129.298 67.2846 128.786C68.1284 128.273 69.2617 128.016 70.6846 128.016C72.1405 128.016 73.2821 128.273 74.1093 128.786C74.9531 129.298 75.557 130.043 75.9209 131.019C76.3015 131.979 76.4917 133.137 76.4917 134.493V142.038C76.4917 143.378 76.3015 144.544 75.9209 145.537C75.557 146.513 74.9531 147.274 74.1093 147.82C73.2821 148.35 72.1405 148.614 70.6846 148.614ZM70.6846 145.909C71.2967 145.909 71.7434 145.777 72.0247 145.512C72.3225 145.247 72.521 144.883 72.6203 144.42C72.7196 143.957 72.7692 143.452 72.7692 142.906V133.65C72.7692 133.087 72.7196 132.583 72.6203 132.136C72.521 131.689 72.3225 131.342 72.0247 131.094C71.7434 130.829 71.2967 130.696 70.6846 130.696C70.1055 130.696 69.6671 130.829 69.3693 131.094C69.0715 131.342 68.8729 131.689 68.7737 132.136C68.6744 132.583 68.6248 133.087 68.6248 133.65V142.906C68.6248 143.452 68.6661 143.957 68.7488 144.42C68.8481 144.883 69.0466 145.247 69.3445 145.512C69.6423 145.777 70.089 145.909 70.6846 145.909ZM79.2086 148.341V128.24H84.1472C85.0406 128.24 85.843 128.322 86.5544 128.488C87.2824 128.653 87.9028 128.934 88.4157 129.332C88.9451 129.712 89.3505 130.233 89.6317 130.895C89.913 131.557 90.0536 132.392 90.0536 133.402C90.0536 134.212 89.9378 134.907 89.7062 135.486C89.4911 136.065 89.1685 136.528 88.7383 136.876C88.3082 137.207 87.7705 137.43 87.1252 137.546C87.9194 137.678 88.5729 137.96 89.0858 138.39C89.6152 138.803 90.004 139.349 90.2522 140.028C90.5169 140.706 90.6492 141.525 90.6492 142.485C90.6492 143.444 90.5251 144.296 90.277 145.041C90.0453 145.769 89.6896 146.381 89.2098 146.877C88.7466 147.357 88.1593 147.721 87.4478 147.969C86.753 148.217 85.934 148.341 84.991 148.341H79.2086ZM82.8815 145.76H84.2713C85.3798 145.76 86.1325 145.496 86.5296 144.966C86.9267 144.42 87.1252 143.585 87.1252 142.46C87.1252 141.649 87.0259 140.995 86.8274 140.499C86.6454 139.986 86.3311 139.606 85.8844 139.358C85.4542 139.109 84.8751 138.985 84.1472 138.985H82.8815V145.76ZM82.8815 136.454H84.1224C84.8503 136.454 85.4128 136.346 85.8099 136.131C86.207 135.916 86.48 135.585 86.6289 135.139C86.7943 134.692 86.877 134.129 86.877 133.451C86.877 132.74 86.753 132.194 86.5048 131.813C86.2732 131.416 85.9175 131.151 85.4377 131.019C84.9579 130.87 84.3457 130.796 83.6012 130.796H82.8815V136.454ZM93.122 148.341V128.24H96.7453V148.341H93.122ZM99.8571 148.341V128.24H103.53V145.81H108.394V148.341H99.8571ZM110.303 148.341V128.24H118.74V130.821H113.975V136.603H117.723V139.159H113.975V145.81H118.79V148.341H110.303ZM125.935 148.341L129.955 128.24H133.876L137.896 148.341H134.497L133.702 143.701H130.203L129.384 148.341H125.935ZM130.575 141.368H133.305L131.94 132.93L130.575 141.368ZM139.918 148.341V128.24H145.824C147.032 128.24 148.008 128.463 148.753 128.91C149.514 129.356 150.068 130.01 150.416 130.87C150.78 131.714 150.962 132.74 150.962 133.947C150.962 135.255 150.738 136.313 150.292 137.124C149.845 137.918 149.216 138.497 148.405 138.861C147.611 139.225 146.668 139.407 145.576 139.407H143.591V148.341H139.918ZM143.591 136.826H144.981C145.642 136.826 146.155 136.735 146.519 136.553C146.9 136.355 147.156 136.049 147.289 135.635C147.438 135.205 147.512 134.634 147.512 133.923C147.512 133.195 147.454 132.607 147.338 132.161C147.239 131.697 147.007 131.358 146.643 131.143C146.296 130.928 145.742 130.821 144.981 130.821H143.591V136.826ZM153.005 148.341V128.24H158.912C160.119 128.24 161.095 128.463 161.84 128.91C162.601 129.356 163.155 130.01 163.503 130.87C163.867 131.714 164.049 132.74 164.049 133.947C164.049 135.255 163.825 136.313 163.379 137.124C162.932 137.918 162.303 138.497 161.493 138.861C160.698 139.225 159.755 139.407 158.663 139.407H156.678V148.341H153.005ZM156.678 136.826H158.068C158.73 136.826 159.242 136.735 159.606 136.553C159.987 136.355 160.243 136.049 160.376 135.635C160.525 135.205 160.599 134.634 160.599 133.923C160.599 133.195 160.541 132.607 160.425 132.161C160.326 131.697 160.094 131.358 159.731 131.143C159.383 130.928 158.829 130.821 158.068 130.821H156.678V136.826ZM172.127 148.341V128.24H176.867C178.505 128.24 179.779 128.463 180.689 128.91C181.615 129.356 182.269 130.043 182.649 130.969C183.046 131.896 183.245 133.071 183.245 134.493V141.839C183.245 143.295 183.046 144.511 182.649 145.487C182.269 146.447 181.623 147.167 180.713 147.646C179.82 148.11 178.587 148.341 177.016 148.341H172.127ZM175.8 145.785H176.916C177.76 145.785 178.364 145.636 178.728 145.338C179.092 145.041 179.315 144.61 179.398 144.048C179.481 143.469 179.522 142.766 179.522 141.939V134.245C179.522 133.435 179.464 132.781 179.349 132.285C179.233 131.788 178.993 131.424 178.629 131.193C178.265 130.961 177.677 130.845 176.867 130.845H175.8V145.785ZM185.941 148.341V128.24H194.379V130.821H189.614V136.603H193.361V139.159H189.614V145.81H194.428V148.341H185.941ZM199.633 148.341L195.588 128.24H198.839L201.495 142.46L203.976 128.24H207.302L203.257 148.341H199.633ZM209.352 148.341V128.24H217.79V130.821H213.025V136.603H216.772V139.159H213.025V145.81H217.84V148.341H209.352ZM219.967 148.341V128.24H223.64V145.81H228.504V148.341H219.967ZM235.63 148.614C234.207 148.614 233.074 148.35 232.23 147.82C231.386 147.291 230.782 146.53 230.418 145.537C230.055 144.544 229.873 143.37 229.873 142.013V134.493C229.873 133.137 230.055 131.979 230.418 131.019C230.782 130.043 231.386 129.298 232.23 128.786C233.074 128.273 234.207 128.016 235.63 128.016C237.086 128.016 238.228 128.273 239.055 128.786C239.899 129.298 240.502 130.043 240.866 131.019C241.247 131.979 241.437 133.137 241.437 134.493V142.038C241.437 143.378 241.247 144.544 240.866 145.537C240.502 146.513 239.899 147.274 239.055 147.82C238.228 148.35 237.086 148.614 235.63 148.614ZM235.63 145.909C236.242 145.909 236.689 145.777 236.97 145.512C237.268 145.247 237.467 144.883 237.566 144.42C237.665 143.957 237.715 143.452 237.715 142.906V133.65C237.715 133.087 237.665 132.583 237.566 132.136C237.467 131.689 237.268 131.342 236.97 131.094C236.689 130.829 236.242 130.696 235.63 130.696C235.051 130.696 234.613 130.829 234.315 131.094C234.017 131.342 233.818 131.689 233.719 132.136C233.62 132.583 233.57 133.087 233.57 133.65V142.906C233.57 143.452 233.612 143.957 233.694 144.42C233.794 144.883 233.992 145.247 234.29 145.512C234.588 145.777 235.034 145.909 235.63 145.909ZM244.154 148.341V128.24H250.061C251.268 128.24 252.244 128.463 252.989 128.91C253.75 129.356 254.304 130.01 254.652 130.87C255.016 131.714 255.198 132.74 255.198 133.947C255.198 135.255 254.974 136.313 254.528 137.124C254.081 137.918 253.452 138.497 252.642 138.861C251.847 139.225 250.904 139.407 249.812 139.407H247.827V148.341H244.154ZM247.827 136.826H249.217C249.879 136.826 250.391 136.735 250.755 136.553C251.136 136.355 251.392 136.049 251.525 135.635C251.674 135.205 251.748 134.634 251.748 133.923C251.748 133.195 251.69 132.607 251.574 132.161C251.475 131.697 251.243 131.358 250.88 131.143C250.532 130.928 249.978 130.821 249.217 130.821H247.827V136.826ZM257.192 148.341L257.539 128.24H261.336L264.19 142.162L267.168 128.24H270.841L271.213 148.341H268.483L268.185 134.369L265.332 148.341H263.123L260.219 134.32L259.946 148.341H257.192ZM274.182 148.341V128.24H282.619V130.821H277.855V136.603H281.602V139.159H277.855V145.81H282.669V148.341H274.182ZM284.797 148.341V128.24H287.353L292.242 139.705V128.24H295.269V148.341H292.837L287.924 136.33V148.341H284.797ZM300.33 148.341V130.945H297.129V128.24H307.155V130.945H304.003V148.341H300.33ZM92.786 185.614C91.3135 185.614 90.1554 185.325 89.3116 184.746C88.4844 184.167 87.9053 183.381 87.5744 182.388C87.2435 181.379 87.0781 180.221 87.0781 178.914V171.742C87.0781 170.368 87.2435 169.177 87.5744 168.168C87.9053 167.159 88.4844 166.381 89.3116 165.835C90.1554 165.289 91.3135 165.016 92.786 165.016C94.1757 165.016 95.2594 165.256 96.037 165.736C96.8312 166.199 97.3937 166.869 97.7246 167.746C98.0555 168.623 98.2209 169.64 98.2209 170.799V172.486H94.6969V170.749C94.6969 170.186 94.6638 169.674 94.5976 169.21C94.548 168.747 94.3908 168.383 94.1261 168.118C93.8779 167.837 93.4395 167.696 92.8108 167.696C92.1821 167.696 91.7189 167.845 91.4211 168.143C91.1398 168.424 90.9578 168.813 90.8751 169.31C90.7924 169.789 90.751 170.335 90.751 170.947V179.683C90.751 180.411 90.8089 181.015 90.9247 181.495C91.0405 181.958 91.2473 182.314 91.5452 182.562C91.8595 182.793 92.2814 182.909 92.8108 182.909C93.423 182.909 93.8531 182.769 94.1013 182.487C94.366 182.19 94.5315 181.801 94.5976 181.321C94.6638 180.841 94.6969 180.303 94.6969 179.708V177.896H98.2209V179.509C98.2209 180.701 98.0637 181.759 97.7494 182.686C97.435 183.596 96.8808 184.316 96.0867 184.845C95.3091 185.358 94.2088 185.614 92.786 185.614ZM106.238 185.614C104.815 185.614 103.682 185.35 102.838 184.82C101.994 184.291 101.39 183.53 101.026 182.537C100.662 181.544 100.48 180.37 100.48 179.013V171.493C100.48 170.137 100.662 168.979 101.026 168.019C101.39 167.043 101.994 166.298 102.838 165.786C103.682 165.273 104.815 165.016 106.238 165.016C107.694 165.016 108.835 165.273 109.662 165.786C110.506 166.298 111.11 167.043 111.474 168.019C111.855 168.979 112.045 170.137 112.045 171.493V179.038C112.045 180.378 111.855 181.544 111.474 182.537C111.11 183.513 110.506 184.274 109.662 184.82C108.835 185.35 107.694 185.614 106.238 185.614ZM106.238 182.909C106.85 182.909 107.297 182.777 107.578 182.512C107.876 182.247 108.074 181.883 108.173 181.42C108.273 180.957 108.322 180.452 108.322 179.906V170.65C108.322 170.087 108.273 169.583 108.173 169.136C108.074 168.689 107.876 168.342 107.578 168.094C107.297 167.829 106.85 167.696 106.238 167.696C105.659 167.696 105.22 167.829 104.922 168.094C104.625 168.342 104.426 168.689 104.327 169.136C104.228 169.583 104.178 170.087 104.178 170.65V179.906C104.178 180.452 104.219 180.957 104.302 181.42C104.401 181.883 104.6 182.247 104.898 182.512C105.195 182.777 105.642 182.909 106.238 182.909ZM114.712 185.341L115.06 165.24H118.857L121.711 179.162L124.689 165.24H128.361L128.734 185.341H126.004L125.706 171.369L122.852 185.341H120.643L117.74 171.32L117.467 185.341H114.712ZM131.702 185.341V165.24H137.609C138.816 165.24 139.793 165.463 140.537 165.91C141.298 166.356 141.852 167.01 142.2 167.87C142.564 168.714 142.746 169.74 142.746 170.947C142.746 172.255 142.522 173.313 142.076 174.124C141.629 174.918 141 175.497 140.19 175.861C139.396 176.225 138.452 176.407 137.361 176.407H135.375V185.341H131.702ZM135.375 173.826H136.765C137.427 173.826 137.94 173.735 138.304 173.553C138.684 173.355 138.941 173.049 139.073 172.635C139.222 172.205 139.296 171.634 139.296 170.923C139.296 170.195 139.238 169.607 139.123 169.161C139.023 168.697 138.792 168.358 138.428 168.143C138.08 167.928 137.526 167.821 136.765 167.821H135.375V173.826ZM142.705 185.341L146.726 165.24H150.647L154.667 185.341H151.267L150.473 180.701H146.974L146.155 185.341H142.705ZM147.346 178.368H150.076L148.711 169.93L147.346 178.368ZM156.689 185.341V165.24H159.245L164.134 176.705V165.24H167.162V185.341H164.73L159.816 173.33V185.341H156.689ZM170.311 185.341V165.24H173.935V185.341H170.311ZM177.047 185.341V165.24H185.484V167.821H180.719V173.603H184.467V176.159H180.719V182.81H185.534V185.341H177.047ZM192.724 185.614C191.517 185.614 190.507 185.383 189.697 184.919C188.886 184.44 188.274 183.745 187.86 182.835C187.447 181.925 187.215 180.808 187.165 179.485L190.317 178.864C190.35 179.642 190.441 180.328 190.59 180.924C190.755 181.519 190.995 181.983 191.31 182.314C191.641 182.628 192.071 182.785 192.6 182.785C193.196 182.785 193.618 182.611 193.866 182.264C194.114 181.9 194.238 181.445 194.238 180.899C194.238 180.022 194.04 179.303 193.642 178.74C193.245 178.177 192.716 177.615 192.054 177.052L189.523 174.819C188.811 174.207 188.241 173.528 187.811 172.784C187.397 172.023 187.19 171.088 187.19 169.98C187.19 168.391 187.653 167.167 188.58 166.307C189.506 165.446 190.772 165.016 192.377 165.016C193.32 165.016 194.106 165.165 194.734 165.463C195.363 165.744 195.859 166.141 196.223 166.654C196.604 167.167 196.885 167.754 197.067 168.416C197.249 169.061 197.365 169.748 197.415 170.476L194.288 171.022C194.255 170.393 194.18 169.831 194.064 169.334C193.965 168.838 193.775 168.449 193.494 168.168C193.229 167.887 192.832 167.746 192.302 167.746C191.756 167.746 191.335 167.928 191.037 168.292C190.755 168.639 190.615 169.078 190.615 169.607C190.615 170.286 190.755 170.848 191.037 171.295C191.318 171.725 191.723 172.172 192.253 172.635L194.759 174.844C195.586 175.539 196.29 176.358 196.869 177.301C197.464 178.227 197.762 179.352 197.762 180.676C197.762 181.635 197.547 182.487 197.117 183.232C196.703 183.976 196.116 184.564 195.355 184.994C194.61 185.407 193.733 185.614 192.724 185.614ZM206.059 185.341V165.24H209.682V185.341H206.059ZM212.794 185.341V165.24H215.35L220.239 176.705V165.24H223.266V185.341H220.834L215.921 173.33V185.341H212.794ZM237.861 185.614C236.372 185.614 235.214 185.341 234.387 184.795C233.559 184.249 232.988 183.472 232.674 182.463C232.36 181.453 232.203 180.246 232.203 178.839V165.24H235.776V179.261C235.776 179.89 235.818 180.485 235.9 181.048C235.983 181.594 236.173 182.041 236.471 182.388C236.785 182.719 237.249 182.884 237.861 182.884C238.506 182.884 238.969 182.719 239.251 182.388C239.548 182.041 239.739 181.594 239.821 181.048C239.921 180.485 239.97 179.89 239.97 179.261V165.24H243.519V178.839C243.519 180.246 243.362 181.453 243.048 182.463C242.733 183.472 242.162 184.249 241.335 184.795C240.525 185.341 239.366 185.614 237.861 185.614ZM245.294 185.341L249.314 165.24H253.235L257.255 185.341H253.855L253.061 180.701H249.562L248.743 185.341H245.294ZM249.934 178.368H252.664L251.299 169.93L249.934 178.368ZM259.277 185.341V165.24H267.715V167.821H262.95V173.603H266.697V176.159H262.95V182.81H267.764V185.341H259.277Z" fill="black"/>
<rect x="1.27441" y="216.488" width="351.935" height="44.37" fill="#930043"/>
<circle cx="177.745" cy="235.646" r="37.3111" fill="white"/>
<path d="M69.9464 224.152L74.3398 233.052L84.1643 234.488L77.0554 241.412L78.7331 251.194L69.9464 246.573L61.1598 251.194L62.8375 241.412L55.7285 234.488L65.5531 233.052L69.9464 224.152Z" fill="white"/>
<path d="M111.051 224.152L115.444 233.052L125.269 234.488L118.16 241.412L119.838 251.194L111.051 246.573L102.264 251.194L103.942 241.412L96.833 234.488L106.658 233.052L111.051 224.152Z" fill="white"/>
<path d="M178.951 214.466L186.491 229.74L203.352 232.205L191.151 244.088L194.031 260.875L178.951 252.945L163.872 260.875L166.751 244.088L154.551 232.205L171.411 229.74L178.951 214.466Z" fill="#930043"/>
<path d="M240.725 224.152L245.118 233.052L254.943 234.488L247.834 241.412L249.511 251.194L240.725 246.573L231.938 251.194L233.616 241.412L226.507 234.488L236.331 233.052L240.725 224.152Z" fill="white"/>
<path d="M281.829 224.152L286.223 233.052L296.047 234.488L288.938 241.412L290.616 251.194L281.829 246.573L273.043 251.194L274.72 241.412L267.611 234.488L277.436 233.052L281.829 224.152Z" fill="white"/>
<g clip-path="url(#clip0_929_2038)">
<path d="M185.684 290.624V295.378H181.194V284.55H179.609V295.378H174.855V284.55H173.271V301.452H168.781V290.624H167.196V307.791H168.781V303.037H179.609V313.865H181.194V296.963H185.684V307.791H187.268V290.624H185.684ZM179.609 301.452H174.855V296.963H179.609V301.452Z" fill="#930043"/>
<path d="M174.854 303.831H173.27V313.867H174.854V303.831Z" fill="#930043"/>
</g>
<path d="M134.355 321.947V331.439H132.235V327.879H125.873V331.439H123.753V321.947H125.873V325.507H132.235V321.947H134.355Z" fill="black"/>
<path d="M136.164 331.44V321.932H138.805V331.44H136.164Z" fill="black"/>
<path d="M150.95 324.318H146.71V331.438H144.591V324.318H140.349V321.945H150.95V324.318Z" fill="black"/>
<path d="M162.993 321.945V324.318H154.511V324.32H152.392V321.945H162.993ZM162.993 325.706V327.642H154.511V327.647H152.392V325.706H162.993ZM162.993 329.066V331.438H152.392V329.066H162.993Z" fill="black"/>
<path d="M175.414 325.02V326.098H173.295V325.231C173.295 324.727 172.929 324.318 172.479 324.318H164.813V321.945H172.667C172.883 321.945 173.092 321.973 173.295 322.027C174.308 322.291 175.105 323.184 175.344 324.32C175.389 324.544 175.414 324.778 175.414 325.02ZM167.748 329.066H175.414V331.438H167.56C167.462 331.438 167.367 331.433 167.273 331.42C167.158 331.408 167.044 331.385 166.933 331.357C165.919 331.092 165.122 330.2 164.883 329.063C164.865 328.979 164.851 328.895 164.84 328.811C164.822 328.664 164.811 328.514 164.811 328.361V325.605H166.93V328.15C166.933 328.656 167.298 329.066 167.748 329.066Z" fill="black"/>
<path d="M187.721 321.945V331.438H185.601V327.878H179.239V331.438H177.119V321.945H179.239V325.506H185.601V321.945H187.721Z" fill="black"/>
<path d="M205.741 321.945V331.438H203.621V327.878H197.26V331.438H195.14V321.945H197.26V325.506H203.621V321.945H205.741Z" fill="#930043"/>
<path d="M218.174 321.945V331.438H216.111V330.421L215.286 331.438H210.004C208.754 331.293 207.752 330.21 207.57 328.829V321.945H209.69V328.153C209.69 328.656 210.056 329.066 210.506 329.066H216.047L216.052 321.945H218.174Z" fill="#930043"/>
<path d="M230.674 327.919C230.701 328.089 230.715 328.264 230.715 328.442C230.715 328.651 230.697 328.854 230.66 329.05C230.426 330.324 229.467 331.303 228.286 331.423C228.206 331.43 228.125 331.435 228.041 331.435C227.956 331.435 227.877 331.43 227.795 331.423H222.206V331.435H220.086V329.053H220.088V327.921H220.086V325.569H220.088V324.282H220.086V321.932H228.041C229.327 321.932 230.404 322.95 230.658 324.305C230.697 324.506 230.715 324.712 230.715 324.925C230.715 325.139 230.694 325.345 230.658 325.546C230.581 325.966 230.422 326.352 230.206 326.685C230.438 327.044 230.601 327.463 230.674 327.919ZM228.595 324.925C228.595 324.585 228.347 324.305 228.041 324.305H226.471V324.282H222.208V325.569H226.471V325.546H228.041C228.141 325.546 228.231 325.518 228.313 325.467C228.481 325.36 228.595 325.157 228.595 324.925ZM228.595 328.445C228.595 328.224 228.49 328.03 228.336 327.921H222.21V329.053H228.154C228.404 328.994 228.595 328.742 228.595 328.445Z" fill="#930043"/>
<defs>
<clipPath id="clip0_929_2038">
<rect width="20.072" height="29.3157" fill="white" transform="translate(167.198 284.549)"/>
</clipPath>
</defs>
</svg>
