<svg width="355" height="401" viewBox="0 0 355 401" fill="none" xmlns="http://www.w3.org/2000/svg">
<path d="M16.1501 82.4206L162.145 5.66463C171.417 0.778456 182.846 0.778456 192.118 5.66463L338.113 82.4206C347.384 87.3068 353.099 96.3116 353.099 106.065V295.072C353.099 304.826 347.384 313.831 338.113 318.717L192.118 395.473C182.846 400.359 171.417 400.359 162.145 395.473L16.1501 318.717C6.87889 313.831 1.16406 304.826 1.16406 295.072V106.065C1.16406 96.2929 6.87889 87.2881 16.1501 82.4206Z" fill="white" stroke="#930043" stroke-width="2.23497" stroke-miterlimit="10"/>
<path d="M329.649 286.548C329.649 294.069 325.205 301.085 318.023 304.846L187.153 373.546C179.971 377.307 171.061 377.307 163.921 373.546L33.0091 304.846C25.8277 301.085 21.383 294.069 21.383 286.548V269.891H14.0781V286.548C14.0781 296.427 19.922 305.632 29.3464 310.571L160.258 379.29C164.95 381.76 170.238 382.994 175.526 382.994C180.794 382.994 186.062 381.76 190.774 379.29L321.686 310.571C331.11 305.632 336.954 296.427 336.954 286.548V269.891H329.67V286.548H329.649ZM321.686 90.5562L190.774 21.8559C181.37 16.898 169.662 16.9167 160.258 21.8559L29.3669 90.5562C19.9426 95.5142 14.0987 104.719 14.0987 114.598V208.237H21.4036V114.598C21.4036 107.076 25.8483 100.061 33.0297 96.3L163.88 27.5997C171.061 23.8391 179.971 23.8391 187.111 27.5997L318.023 96.3C325.205 100.061 329.649 107.076 329.649 114.598V208.237H336.934V114.598C336.954 104.719 331.11 95.5142 321.686 90.5562Z" fill="#930043"/>
<path d="M103.271 96.3154V78.243H106.841L109.403 92.0797L111.964 78.243H115.534V96.3154H112.953V82.0551L110.371 96.3154H108.435L105.853 82.0551V96.3154H103.271ZM124.428 96.4969C123.52 96.4969 122.74 96.3591 122.088 96.0834C121.443 95.8078 120.928 95.4044 120.545 94.8732C120.162 94.3421 119.883 93.7202 119.708 93.0075C119.533 92.2881 119.446 91.4544 119.446 90.5064V83.9511C119.446 83.0031 119.533 82.1762 119.708 81.4702C119.883 80.7643 120.162 80.1524 120.545 79.6347C120.928 79.1103 121.443 78.717 122.088 78.4548C122.74 78.1926 123.52 78.0615 124.428 78.0615C126.189 78.0615 127.46 78.5657 128.24 79.5742C129.02 80.5827 129.41 82.0417 129.41 83.9511V90.5064C129.41 91.4409 129.319 92.2679 129.137 92.9873C128.963 93.7 128.684 94.3253 128.3 94.8631C127.917 95.3943 127.399 95.801 126.747 96.0834C126.102 96.3591 125.329 96.4969 124.428 96.4969ZM122.542 93.5622C122.891 94.1067 123.52 94.379 124.428 94.379C125.335 94.379 125.961 94.1067 126.304 93.5622C126.653 93.0176 126.828 92.2141 126.828 91.1518V83.3057C126.828 82.2568 126.657 81.4736 126.314 80.9559C125.971 80.4382 125.342 80.1793 124.428 80.1793C123.513 80.1793 122.885 80.4382 122.542 80.9559C122.199 81.4736 122.028 82.2568 122.028 83.3057V91.1518C122.028 92.2141 122.199 93.0176 122.542 93.5622ZM138.031 96.4969C136.404 96.4969 135.16 96.0195 134.299 95.0648C133.446 94.1101 132.968 92.8058 132.867 91.1518L135.449 90.5064C135.577 93.0882 136.437 94.379 138.031 94.379C139.322 94.379 139.967 93.7336 139.967 92.4427C139.967 92.0595 139.913 91.7065 139.806 91.3838C139.705 91.0543 139.547 90.7552 139.332 90.4862C139.117 90.2106 138.922 89.9921 138.747 89.8307C138.572 89.6626 138.333 89.4576 138.031 89.2155L134.804 86.6337C134.212 86.1698 133.738 85.5815 133.382 84.8689C133.032 84.1495 132.857 83.3326 132.857 82.4182C132.857 81.087 133.271 80.0281 134.098 79.2414C134.925 78.4548 136.021 78.0615 137.385 78.0615C138.851 78.0615 140.014 78.4212 140.875 79.1406C141.742 79.8532 142.277 80.8651 142.478 82.1762C142.499 82.3174 142.522 82.5123 142.549 82.7611L139.967 83.4065C139.96 83.2922 139.944 83.1208 139.917 82.8922C139.802 82.072 139.544 81.4164 139.14 80.9256C138.744 80.4281 138.159 80.1793 137.385 80.1793C136.767 80.1793 136.289 80.3541 135.953 80.7038C135.617 81.0466 135.449 81.5274 135.449 82.1459C135.449 83.1611 135.879 84.0116 136.74 84.6974L139.967 87.2792C141.688 88.6709 142.549 90.335 142.549 92.2713C142.549 93.5958 142.139 94.6312 141.319 95.3775C140.505 96.1238 139.409 96.4969 138.031 96.4969ZM148.013 96.3154V80.5424H144.786V78.243H153.822V80.5424H150.595V96.3154H148.013ZM165.185 85.9883H165.83C166.906 85.9883 167.713 85.7631 168.251 85.3126C168.789 84.8554 169.058 84.1125 169.058 83.0838C169.058 82.0551 168.789 81.3156 168.251 80.8651C167.713 80.4079 166.906 80.1793 165.83 80.1793H165.185V85.9883ZM162.603 96.3154V78.243H165.83C167.753 78.243 169.202 78.6162 170.177 79.3624C171.152 80.1087 171.639 81.3492 171.639 83.0838C171.639 84.1596 171.448 85.0605 171.065 85.7866C170.681 86.5127 170.12 87.0103 169.38 87.2792L172.285 96.3154H169.723L167.121 87.9246H165.185V96.3154H162.603ZM175.43 96.3154V78.243H182.53V80.1793H178.012V85.9883H181.239V87.9246H178.012V94.379H182.53V96.3154H175.43ZM188.478 96.3154L184.605 78.243H187.187L189.093 87.9246L189.759 92.4427L190.445 87.9246L192.351 78.243H194.933L191.06 96.3154H188.478ZM198.118 96.3154V78.243H200.7V96.3154H198.118ZM205.115 96.3154V78.243H212.215V80.1793H207.697V85.9883H210.924V87.9246H207.697V94.379H212.215V96.3154H205.115ZM217.508 96.3154L214.281 78.243H216.863L218.154 86.6337L218.809 91.7973L219.444 86.6337L220.735 78.243H223.317L224.608 86.6337L225.243 91.7973L225.899 86.6337L227.19 78.243H229.771L226.544 96.3154H223.962L222.672 87.9246L222.026 82.7611L221.381 87.9246L220.09 96.3154H217.508ZM232.826 96.3154V78.243H239.925V80.1793H235.407V85.9883H238.635V87.9246H235.407V94.379H239.925V96.3154H232.826ZM243.171 96.3154V78.243H247.175C249.064 78.243 250.395 78.6296 251.169 79.4028C251.949 80.176 252.339 81.5106 252.339 83.4065V90.5064C252.339 92.4898 251.942 93.9555 251.148 94.9035C250.362 95.8447 249.031 96.3154 247.155 96.3154H243.171ZM245.753 94.379H247.175C247.599 94.379 247.962 94.3421 248.264 94.2681C248.567 94.1874 248.812 94.0462 249 93.8445C249.189 93.6361 249.337 93.4411 249.444 93.2596C249.552 93.0714 249.626 92.7822 249.666 92.3923C249.713 92.0023 249.74 91.683 249.747 91.4342C249.753 91.1787 249.757 90.7854 249.757 90.2543C249.757 90.0795 249.757 89.9484 249.757 89.861V84.052C249.757 83.7225 249.753 83.4603 249.747 83.2653C249.747 83.0704 249.737 82.8418 249.716 82.5796C249.703 82.3106 249.679 82.0988 249.646 81.9442C249.612 81.7896 249.565 81.6181 249.505 81.4299C249.444 81.2349 249.367 81.0836 249.273 80.976C249.185 80.8685 249.074 80.7575 248.94 80.6432C248.812 80.5222 248.661 80.4348 248.486 80.381C248.318 80.3205 248.12 80.2735 247.891 80.2398C247.662 80.1995 247.407 80.1793 247.125 80.1793H245.753V94.379Z" fill="#930043"/>
<path d="M48.1244 148.341L48.4718 128.24H52.2688L55.1228 142.162L58.1008 128.24H61.7737L62.146 148.341H59.4161L59.1183 134.369L56.2643 148.341H54.0556L51.152 134.32L50.8791 148.341H48.1244ZM70.5742 148.614C69.1514 148.614 68.0181 148.35 67.1743 147.82C66.3305 147.291 65.7266 146.53 65.3627 145.537C64.9987 144.544 64.8167 143.37 64.8167 142.013V134.493C64.8167 133.137 64.9987 131.979 65.3627 131.019C65.7266 130.043 66.3305 129.298 67.1743 128.786C68.0181 128.273 69.1514 128.016 70.5742 128.016C72.0301 128.016 73.1717 128.273 73.999 128.786C74.8427 129.298 75.4466 130.043 75.8106 131.019C76.1911 131.979 76.3814 133.137 76.3814 134.493V142.038C76.3814 143.378 76.1911 144.544 75.8106 145.537C75.4466 146.513 74.8427 147.274 73.999 147.82C73.1717 148.35 72.0301 148.614 70.5742 148.614ZM70.5742 145.909C71.1864 145.909 71.6331 145.777 71.9143 145.512C72.2121 145.247 72.4107 144.883 72.5099 144.42C72.6092 143.957 72.6588 143.452 72.6588 142.906V133.65C72.6588 133.087 72.6092 132.583 72.5099 132.136C72.4107 131.689 72.2121 131.342 71.9143 131.094C71.6331 130.829 71.1864 130.696 70.5742 130.696C69.9952 130.696 69.5567 130.829 69.2589 131.094C68.9611 131.342 68.7626 131.689 68.6633 132.136C68.564 132.583 68.5144 133.087 68.5144 133.65V142.906C68.5144 143.452 68.5558 143.957 68.6385 144.42C68.7378 144.883 68.9363 145.247 69.2341 145.512C69.5319 145.777 69.9786 145.909 70.5742 145.909ZM79.0983 148.341V128.24H84.0368C84.9302 128.24 85.7327 128.322 86.4441 128.488C87.172 128.653 87.7925 128.934 88.3053 129.332C88.8348 129.712 89.2401 130.233 89.5214 130.895C89.8026 131.557 89.9433 132.392 89.9433 133.402C89.9433 134.212 89.8275 134.907 89.5958 135.486C89.3807 136.065 89.0581 136.528 88.628 136.876C88.1978 137.207 87.6601 137.43 87.0149 137.546C87.809 137.678 88.4625 137.96 88.9754 138.39C89.5048 138.803 89.8936 139.349 90.1418 140.028C90.4065 140.706 90.5389 141.525 90.5389 142.485C90.5389 143.444 90.4148 144.296 90.1666 145.041C89.935 145.769 89.5793 146.381 89.0995 146.877C88.6362 147.357 88.0489 147.721 87.3375 147.969C86.6426 148.217 85.8237 148.341 84.8806 148.341H79.0983ZM82.7712 145.76H84.1609C85.2694 145.76 86.0222 145.496 86.4193 144.966C86.8163 144.42 87.0149 143.585 87.0149 142.46C87.0149 141.649 86.9156 140.995 86.7171 140.499C86.5351 139.986 86.2207 139.606 85.774 139.358C85.3439 139.109 84.7648 138.985 84.0368 138.985H82.7712V145.76ZM82.7712 136.454H84.012C84.74 136.454 85.3025 136.346 85.6996 136.131C86.0966 135.916 86.3696 135.585 86.5185 135.139C86.684 134.692 86.7667 134.129 86.7667 133.451C86.7667 132.74 86.6426 132.194 86.3944 131.813C86.1628 131.416 85.8071 131.151 85.3273 131.019C84.8475 130.87 84.2354 130.796 83.4909 130.796H82.7712V136.454ZM93.0117 148.341V128.24H96.6349V148.341H93.0117ZM99.7467 148.341V128.24H103.42V145.81H108.284V148.341H99.7467ZM110.192 148.341V128.24H118.63V130.821H113.865V136.603H117.612V139.159H113.865V145.81H118.68V148.341H110.192ZM125.824 148.341L129.845 128.24H133.766L137.786 148.341H134.386L133.592 143.701H130.093L129.274 148.341H125.824ZM130.465 141.368H133.195L131.83 132.93L130.465 141.368ZM139.808 148.341V128.24H145.714C146.922 128.24 147.898 128.463 148.643 128.91C149.404 129.356 149.958 130.01 150.305 130.87C150.669 131.714 150.851 132.74 150.851 133.947C150.851 135.255 150.628 136.313 150.181 137.124C149.734 137.918 149.106 138.497 148.295 138.861C147.501 139.225 146.558 139.407 145.466 139.407H143.481V148.341H139.808ZM143.481 136.826H144.87C145.532 136.826 146.045 136.735 146.409 136.553C146.79 136.355 147.046 136.049 147.178 135.635C147.327 135.205 147.402 134.634 147.402 133.923C147.402 133.195 147.344 132.607 147.228 132.161C147.129 131.697 146.897 131.358 146.533 131.143C146.186 130.928 145.631 130.821 144.87 130.821H143.481V136.826ZM152.895 148.341V128.24H158.801C160.009 128.24 160.985 128.463 161.73 128.91C162.491 129.356 163.045 130.01 163.392 130.87C163.756 131.714 163.938 132.74 163.938 133.947C163.938 135.255 163.715 136.313 163.268 137.124C162.822 137.918 162.193 138.497 161.382 138.861C160.588 139.225 159.645 139.407 158.553 139.407H156.568V148.341H152.895ZM156.568 136.826H157.957C158.619 136.826 159.132 136.735 159.496 136.553C159.877 136.355 160.133 136.049 160.265 135.635C160.414 135.205 160.489 134.634 160.489 133.923C160.489 133.195 160.431 132.607 160.315 132.161C160.216 131.697 159.984 131.358 159.62 131.143C159.273 130.928 158.718 130.821 157.957 130.821H156.568V136.826ZM172.016 148.341V128.24H176.756C178.394 128.24 179.668 128.463 180.578 128.91C181.505 129.356 182.158 130.043 182.539 130.969C182.936 131.896 183.134 133.071 183.134 134.493V141.839C183.134 143.295 182.936 144.511 182.539 145.487C182.158 146.447 181.513 147.167 180.603 147.646C179.71 148.11 178.477 148.341 176.905 148.341H172.016ZM175.689 145.785H176.806C177.65 145.785 178.254 145.636 178.618 145.338C178.982 145.041 179.205 144.61 179.288 144.048C179.371 143.469 179.412 142.766 179.412 141.939V134.245C179.412 133.435 179.354 132.781 179.238 132.285C179.122 131.788 178.882 131.424 178.518 131.193C178.154 130.961 177.567 130.845 176.756 130.845H175.689V145.785ZM185.831 148.341V128.24H194.268V130.821H189.503V136.603H193.251V139.159H189.503V145.81H194.318V148.341H185.831ZM199.523 148.341L195.478 128.24H198.729L201.384 142.46L203.866 128.24H207.191L203.146 148.341H199.523ZM209.242 148.341V128.24H217.68V130.821H212.915V136.603H216.662V139.159H212.915V145.81H217.729V148.341H209.242ZM219.857 148.341V128.24H223.53V145.81H228.394V148.341H219.857ZM235.52 148.614C234.097 148.614 232.964 148.35 232.12 147.82C231.276 147.291 230.672 146.53 230.308 145.537C229.944 144.544 229.762 143.37 229.762 142.013V134.493C229.762 133.137 229.944 131.979 230.308 131.019C230.672 130.043 231.276 129.298 232.12 128.786C232.964 128.273 234.097 128.016 235.52 128.016C236.976 128.016 238.117 128.273 238.944 128.786C239.788 129.298 240.392 130.043 240.756 131.019C241.137 131.979 241.327 133.137 241.327 134.493V142.038C241.327 143.378 241.137 144.544 240.756 145.537C240.392 146.513 239.788 147.274 238.944 147.82C238.117 148.35 236.976 148.614 235.52 148.614ZM235.52 145.909C236.132 145.909 236.579 145.777 236.86 145.512C237.158 145.247 237.356 144.883 237.455 144.42C237.555 143.957 237.604 143.452 237.604 142.906V133.65C237.604 133.087 237.555 132.583 237.455 132.136C237.356 131.689 237.158 131.342 236.86 131.094C236.579 130.829 236.132 130.696 235.52 130.696C234.941 130.696 234.502 130.829 234.204 131.094C233.907 131.342 233.708 131.689 233.609 132.136C233.51 132.583 233.46 133.087 233.46 133.65V142.906C233.46 143.452 233.501 143.957 233.584 144.42C233.683 144.883 233.882 145.247 234.18 145.512C234.477 145.777 234.924 145.909 235.52 145.909ZM244.044 148.341V128.24H249.95C251.158 128.24 252.134 128.463 252.879 128.91C253.64 129.356 254.194 130.01 254.541 130.87C254.905 131.714 255.087 132.74 255.087 133.947C255.087 135.255 254.864 136.313 254.417 137.124C253.971 137.918 253.342 138.497 252.531 138.861C251.737 139.225 250.794 139.407 249.702 139.407H247.717V148.341H244.044ZM247.717 136.826H249.106C249.768 136.826 250.281 136.735 250.645 136.553C251.026 136.355 251.282 136.049 251.414 135.635C251.563 135.205 251.638 134.634 251.638 133.923C251.638 133.195 251.58 132.607 251.464 132.161C251.365 131.697 251.133 131.358 250.769 131.143C250.422 130.928 249.867 130.821 249.106 130.821H247.717V136.826ZM257.081 148.341L257.429 128.24H261.226L264.08 142.162L267.058 128.24H270.731L271.103 148.341H268.373L268.075 134.369L265.221 148.341H263.012L260.109 134.32L259.836 148.341H257.081ZM274.071 148.341V128.24H282.509V130.821H277.744V136.603H281.492V139.159H277.744V145.81H282.559V148.341H274.071ZM284.686 148.341V128.24H287.243L292.131 139.705V128.24H295.159V148.341H292.727L287.813 136.33V148.341H284.686ZM300.22 148.341V130.945H297.018V128.24H307.045V130.945H303.893V148.341H300.22ZM63.157 185.614C61.6846 185.614 60.5264 185.325 59.6827 184.746C58.8554 184.167 58.2764 183.381 57.9455 182.388C57.6146 181.379 57.4491 180.221 57.4491 178.914V171.742C57.4491 170.368 57.6146 169.177 57.9455 168.168C58.2764 167.159 58.8554 166.381 59.6827 165.835C60.5264 165.289 61.6846 165.016 63.157 165.016C64.5468 165.016 65.6305 165.256 66.4081 165.736C67.2022 166.199 67.7647 166.869 68.0956 167.746C68.4265 168.623 68.592 169.64 68.592 170.799V172.486H65.068V170.749C65.068 170.186 65.0349 169.674 64.9687 169.21C64.9191 168.747 64.7619 168.383 64.4972 168.118C64.249 167.837 63.8106 167.696 63.1819 167.696C62.5532 167.696 62.0899 167.845 61.7921 168.143C61.5109 168.424 61.3289 168.813 61.2461 169.31C61.1634 169.789 61.1221 170.335 61.1221 170.947V179.683C61.1221 180.411 61.18 181.015 61.2958 181.495C61.4116 181.958 61.6184 182.314 61.9162 182.562C62.2305 182.793 62.6524 182.909 63.1819 182.909C63.794 182.909 64.2242 182.769 64.4723 182.487C64.7371 182.19 64.9025 181.801 64.9687 181.321C65.0349 180.841 65.068 180.303 65.068 179.708V177.896H68.592V179.509C68.592 180.701 68.4348 181.759 68.1204 182.686C67.8061 183.596 67.2518 184.316 66.4577 184.845C65.6801 185.358 64.5799 185.614 63.157 185.614ZM76.6088 185.614C75.186 185.614 74.0527 185.35 73.2089 184.82C72.3651 184.291 71.7612 183.53 71.3972 182.537C71.0333 181.544 70.8513 180.37 70.8513 179.013V171.493C70.8513 170.137 71.0333 168.979 71.3972 168.019C71.7612 167.043 72.3651 166.298 73.2089 165.786C74.0527 165.273 75.186 165.016 76.6088 165.016C78.0647 165.016 79.2063 165.273 80.0335 165.786C80.8773 166.298 81.4812 167.043 81.8452 168.019C82.2257 168.979 82.416 170.137 82.416 171.493V179.038C82.416 180.378 82.2257 181.544 81.8452 182.537C81.4812 183.513 80.8773 184.274 80.0335 184.82C79.2063 185.35 78.0647 185.614 76.6088 185.614ZM76.6088 182.909C77.221 182.909 77.6677 182.777 77.9489 182.512C78.2467 182.247 78.4453 181.883 78.5445 181.42C78.6438 180.957 78.6934 180.452 78.6934 179.906V170.65C78.6934 170.087 78.6438 169.583 78.5445 169.136C78.4453 168.689 78.2467 168.342 77.9489 168.094C77.6677 167.829 77.221 167.696 76.6088 167.696C76.0297 167.696 75.5913 167.829 75.2935 168.094C74.9957 168.342 74.7972 168.689 74.6979 169.136C74.5986 169.583 74.549 170.087 74.549 170.65V179.906C74.549 180.452 74.5904 180.957 74.6731 181.42C74.7724 181.883 74.9709 182.247 75.2687 182.512C75.5665 182.777 76.0132 182.909 76.6088 182.909ZM85.0832 185.341L85.4306 165.24H89.2276L92.0816 179.162L95.0596 165.24H98.7325L99.1048 185.341H96.3749L96.0771 171.369L93.2232 185.341H91.0145L88.1109 171.32L87.8379 185.341H85.0832ZM102.073 185.341V165.24H107.98C109.188 165.24 110.164 165.463 110.908 165.91C111.669 166.356 112.223 167.01 112.571 167.87C112.935 168.714 113.117 169.74 113.117 170.947C113.117 172.255 112.894 173.313 112.447 174.124C112 174.918 111.371 175.497 110.561 175.861C109.767 176.225 108.824 176.407 107.732 176.407H105.746V185.341H102.073ZM105.746 173.826H107.136C107.798 173.826 108.311 173.735 108.675 173.553C109.055 173.355 109.312 173.049 109.444 172.635C109.593 172.205 109.667 171.634 109.667 170.923C109.667 170.195 109.609 169.607 109.494 169.161C109.394 168.697 109.163 168.358 108.799 168.143C108.451 167.928 107.897 167.821 107.136 167.821H105.746V173.826ZM113.077 185.341L117.097 165.24H121.018L125.038 185.341H121.638L120.844 180.701H117.345L116.526 185.341H113.077ZM117.717 178.368H120.447L119.082 169.93L117.717 178.368ZM127.06 185.341V165.24H129.616L134.505 176.705V165.24H137.533V185.341H135.101L130.187 173.33V185.341H127.06ZM140.682 185.341V165.24H144.306V185.341H140.682ZM147.418 185.341V165.24H155.855V167.821H151.09V173.603H154.838V176.159H151.09V182.81H155.905V185.341H147.418ZM163.095 185.614C161.888 185.614 160.878 185.383 160.068 184.919C159.257 184.44 158.645 183.745 158.231 182.835C157.818 181.925 157.586 180.808 157.536 179.485L160.688 178.864C160.721 179.642 160.812 180.328 160.961 180.924C161.126 181.519 161.366 181.983 161.681 182.314C162.012 182.628 162.442 182.785 162.971 182.785C163.567 182.785 163.989 182.611 164.237 182.264C164.485 181.9 164.609 181.445 164.609 180.899C164.609 180.022 164.411 179.303 164.014 178.74C163.616 178.177 163.087 177.615 162.425 177.052L159.894 174.819C159.183 174.207 158.612 173.528 158.182 172.784C157.768 172.023 157.561 171.088 157.561 169.98C157.561 168.391 158.024 167.167 158.951 166.307C159.877 165.446 161.143 165.016 162.748 165.016C163.691 165.016 164.477 165.165 165.105 165.463C165.734 165.744 166.231 166.141 166.594 166.654C166.975 167.167 167.256 167.754 167.438 168.416C167.62 169.061 167.736 169.748 167.786 170.476L164.659 171.022C164.626 170.393 164.551 169.831 164.435 169.334C164.336 168.838 164.146 168.449 163.865 168.168C163.6 167.887 163.203 167.746 162.673 167.746C162.127 167.746 161.706 167.928 161.408 168.292C161.126 168.639 160.986 169.078 160.986 169.607C160.986 170.286 161.126 170.848 161.408 171.295C161.689 171.725 162.094 172.172 162.624 172.635L165.13 174.844C165.958 175.539 166.661 176.358 167.24 177.301C167.835 178.227 168.133 179.352 168.133 180.676C168.133 181.635 167.918 182.487 167.488 183.232C167.074 183.976 166.487 184.564 165.726 184.994C164.981 185.407 164.105 185.614 163.095 185.614ZM176.43 185.341V165.24H180.053V185.341H176.43ZM183.165 185.341V165.24H185.721L190.61 176.705V165.24H193.637V185.341H191.205L186.292 173.33V185.341H183.165ZM202.673 185.341L203.02 165.24H206.817L209.671 179.162L212.649 165.24H216.322L216.694 185.341H213.965L213.667 171.369L210.813 185.341H208.604L205.701 171.32L205.428 185.341H202.673ZM218.646 185.341L222.666 165.24H226.587L230.607 185.341H227.207L226.413 180.701H222.914L222.095 185.341H218.646ZM223.286 178.368H226.016L224.651 169.93L223.286 178.368ZM232.629 185.341V165.24H236.302V182.81H241.166V185.341H232.629ZM242.057 185.341L246.077 165.24H249.998L254.019 185.341H250.619L249.825 180.701H246.325L245.506 185.341H242.057ZM246.698 178.368H249.427L248.063 169.93L246.698 178.368ZM258.045 185.341V177.673L253.975 165.24H257.4L259.881 173.206L262.214 165.24H265.564L261.544 177.673V185.341H258.045ZM272.3 185.614C271.092 185.614 270.083 185.383 269.272 184.919C268.461 184.44 267.849 183.745 267.435 182.835C267.022 181.925 266.79 180.808 266.741 179.485L269.892 178.864C269.925 179.642 270.016 180.328 270.165 180.924C270.331 181.519 270.571 181.983 270.885 182.314C271.216 182.628 271.646 182.785 272.176 182.785C272.771 182.785 273.193 182.611 273.441 182.264C273.689 181.9 273.813 181.445 273.813 180.899C273.813 180.022 273.615 179.303 273.218 178.74C272.821 178.177 272.291 177.615 271.63 177.052L269.098 174.819C268.387 174.207 267.816 173.528 267.386 172.784C266.972 172.023 266.765 171.088 266.765 169.98C266.765 168.391 267.229 167.167 268.155 166.307C269.082 165.446 270.347 165.016 271.952 165.016C272.895 165.016 273.681 165.165 274.31 165.463C274.938 165.744 275.435 166.141 275.799 166.654C276.179 167.167 276.461 167.754 276.643 168.416C276.825 169.061 276.94 169.748 276.99 170.476L273.863 171.022C273.83 170.393 273.756 169.831 273.64 169.334C273.54 168.838 273.35 168.449 273.069 168.168C272.804 167.887 272.407 167.746 271.878 167.746C271.332 167.746 270.91 167.928 270.612 168.292C270.331 168.639 270.19 169.078 270.19 169.607C270.19 170.286 270.331 170.848 270.612 171.295C270.893 171.725 271.299 172.172 271.828 172.635L274.335 174.844C275.162 175.539 275.865 176.358 276.444 177.301C277.04 178.227 277.337 179.352 277.337 180.676C277.337 181.635 277.122 182.487 276.692 183.232C276.279 183.976 275.691 184.564 274.93 184.994C274.186 185.407 273.309 185.614 272.3 185.614ZM279.599 185.341V165.24H283.223V185.341H279.599ZM285.317 185.341L289.337 165.24H293.258L297.279 185.341H293.879L293.085 180.701H289.585L288.766 185.341H285.317ZM289.958 178.368H292.688L291.323 169.93L289.958 178.368Z" fill="black"/>
<rect x="1.16406" y="216.488" width="351.935" height="44.37" fill="#930043"/>
<circle cx="177.633" cy="235.646" r="37.3111" fill="white"/>
<path d="M69.8351 224.152L74.2284 233.052L84.053 234.488L76.944 241.412L78.6218 251.194L69.8351 246.573L61.0484 251.194L62.7261 241.412L55.6172 234.488L65.4418 233.052L69.8351 224.152Z" fill="white"/>
<path d="M110.939 224.152L115.332 233.052L125.157 234.488L118.048 241.412L119.725 251.194L110.939 246.573L102.152 251.194L103.83 241.412L96.7207 234.488L106.545 233.052L110.939 224.152Z" fill="white"/>
<path d="M178.842 214.466L186.382 229.74L203.242 232.205L191.042 244.088L193.921 260.875L178.842 252.945L163.762 260.875L166.642 244.088L154.441 232.205L171.302 229.74L178.842 214.466Z" fill="#930043"/>
<path d="M240.614 224.152L245.008 233.052L254.832 234.488L247.723 241.412L249.401 251.194L240.614 246.573L231.828 251.194L233.505 241.412L226.396 234.488L236.221 233.052L240.614 224.152Z" fill="white"/>
<path d="M281.718 224.152L286.111 233.052L295.936 234.488L288.827 241.412L290.505 251.194L281.718 246.573L272.931 251.194L274.609 241.412L267.5 234.488L277.325 233.052L281.718 224.152Z" fill="white"/>
<g clip-path="url(#clip0_929_1972)">
<path d="M185.573 290.624V295.378H181.084V284.55H179.499V295.378H174.745V284.55H173.16V301.452H168.671V290.624H167.086V307.791H168.671V303.037H179.499V313.865H181.084V296.963H185.573V307.791H187.158V290.624H185.573ZM179.499 301.452H174.745V296.963H179.499V301.452Z" fill="#930043"/>
<path d="M174.743 303.831H173.158V313.867H174.743V303.831Z" fill="#930043"/>
</g>
<path d="M134.244 321.946V331.439H132.124V327.879H125.762V331.439H123.643V321.946H125.762V325.507H132.124V321.946H134.244Z" fill="black"/>
<path d="M136.055 331.44V321.932H138.696V331.44H136.055Z" fill="black"/>
<path d="M150.84 324.318H146.6V331.438H144.48V324.318H140.238V321.945H150.84V324.318Z" fill="black"/>
<path d="M162.883 321.945V324.318H154.401V324.32H152.281V321.945H162.883ZM162.883 325.706V327.642H154.401V327.647H152.281V325.706H162.883ZM162.883 329.066V331.438H152.281V329.066H162.883Z" fill="black"/>
<path d="M175.303 325.02V326.098H173.183V325.231C173.183 324.727 172.817 324.318 172.368 324.318H164.701V321.945H172.556C172.772 321.945 172.981 321.973 173.183 322.027C174.197 322.291 174.994 323.184 175.233 324.32C175.278 324.544 175.303 324.778 175.303 325.02ZM167.637 329.066H175.303V331.438H167.448C167.351 331.438 167.255 331.433 167.162 331.42C167.046 331.408 166.933 331.385 166.821 331.357C165.808 331.092 165.01 330.2 164.772 329.063C164.754 328.979 164.74 328.895 164.729 328.811C164.711 328.664 164.699 328.514 164.699 328.361V325.605H166.819V328.15C166.821 328.656 167.187 329.066 167.637 329.066Z" fill="black"/>
<path d="M187.611 321.945V331.438H185.491V327.878H179.13V331.438H177.01V321.945H179.13V325.505H185.491V321.945H187.611Z" fill="black"/>
<path d="M205.631 321.945V331.438H203.511V327.878H197.149V331.438H195.029V321.945H197.149V325.505H203.511V321.945H205.631Z" fill="#930043"/>
<path d="M218.063 321.945V331.438H216V330.421L215.175 331.438H209.892C208.643 331.293 207.641 330.21 207.459 328.829V321.945H209.579V328.153C209.579 328.656 209.945 329.066 210.395 329.066H215.936L215.941 321.945H218.063Z" fill="#930043"/>
<path d="M230.563 327.918C230.59 328.089 230.603 328.264 230.603 328.442C230.603 328.651 230.585 328.854 230.549 329.05C230.315 330.324 229.356 331.303 228.175 331.423C228.095 331.43 228.013 331.435 227.929 331.435C227.845 331.435 227.766 331.43 227.684 331.423H222.094V331.435H219.975V329.053H219.977V327.921H219.975V325.569H219.977V324.282H219.975V321.932H227.929C229.215 321.932 230.292 322.95 230.547 324.305C230.585 324.506 230.603 324.712 230.603 324.925C230.603 325.139 230.583 325.345 230.547 325.546C230.469 325.965 230.31 326.352 230.095 326.685C230.326 327.044 230.49 327.463 230.563 327.918ZM228.484 324.925C228.484 324.585 228.236 324.305 227.929 324.305H226.359V324.282H222.097V325.569H226.359V325.546H227.929C228.029 325.546 228.12 325.518 228.202 325.467C228.37 325.36 228.484 325.157 228.484 324.925ZM228.484 328.445C228.484 328.224 228.379 328.03 228.225 327.921H222.099V329.053H228.043C228.293 328.994 228.484 328.742 228.484 328.445Z" fill="#930043"/>
<defs>
<clipPath id="clip0_929_1972">
<rect width="20.072" height="29.3157" fill="white" transform="translate(167.088 284.549)"/>
</clipPath>
</defs>
</svg>
