<svg width="355" height="401" viewBox="0 0 355 401" fill="none" xmlns="http://www.w3.org/2000/svg">
<path d="M16.0954 82.4206L162.091 5.66463C171.362 0.778456 182.792 0.778456 192.063 5.66463L338.058 82.4206C347.329 87.3068 353.044 96.3116 353.044 106.065V295.072C353.044 304.826 347.329 313.831 338.058 318.717L192.063 395.473C182.792 400.359 171.362 400.359 162.091 395.473L16.0954 318.717C6.82421 313.831 1.10938 304.826 1.10938 295.072V106.065C1.10937 96.2929 6.82421 87.2881 16.0954 82.4206Z" fill="white" stroke="#930043" stroke-width="2.23497" stroke-miterlimit="10"/>
<path d="M329.597 286.548C329.597 294.069 325.152 301.085 317.97 304.846L187.1 373.546C179.918 377.307 171.008 377.307 163.868 373.546L32.9564 304.846C25.7749 301.085 21.3303 294.069 21.3303 286.548V269.89H14.0254V286.548C14.0254 296.427 19.8693 305.632 29.2936 310.571L160.205 379.29C164.897 381.759 170.185 382.994 175.474 382.994C180.741 382.994 186.009 381.759 190.721 379.29L321.633 310.571C331.058 305.632 336.901 296.427 336.901 286.548V269.89H329.617V286.548H329.597ZM321.633 90.5561L190.721 21.8558C181.318 16.8979 169.609 16.9166 160.205 21.8558L29.3142 90.5561C19.8899 95.514 14.046 104.719 14.046 114.597V208.237H21.3509V114.597C21.3509 107.076 25.7955 100.06 32.9769 96.2998L163.827 27.5995C171.008 23.839 179.918 23.839 187.059 27.5995L317.97 96.2998C325.152 100.06 329.597 107.076 329.597 114.597V208.237H336.881V114.597C336.901 104.719 331.058 95.514 321.633 90.5561Z" fill="#930043"/>
<path d="M103.216 96.3152V78.2429H106.786L109.348 92.0795L111.91 78.2429H115.48V96.3152H112.898V82.055L110.316 96.3152H108.38L105.798 82.055V96.3152H103.216ZM124.373 96.4968C123.465 96.4968 122.686 96.3589 122.033 96.0833C121.388 95.8076 120.874 95.4042 120.49 94.8731C120.107 94.3419 119.828 93.72 119.653 93.0074C119.478 92.288 119.391 91.4543 119.391 90.5063V83.951C119.391 83.003 119.478 82.176 119.653 81.4701C119.828 80.7641 120.107 80.1523 120.49 79.6346C120.874 79.1102 121.388 78.7169 122.033 78.4547C122.686 78.1925 123.465 78.0614 124.373 78.0614C126.135 78.0614 127.405 78.5656 128.185 79.5741C128.965 80.5826 129.355 82.0416 129.355 83.951V90.5063C129.355 91.4408 129.264 92.2678 129.083 92.9872C128.908 93.6999 128.629 94.3251 128.246 94.863C127.862 95.3941 127.345 95.8009 126.693 96.0833C126.047 96.3589 125.274 96.4968 124.373 96.4968ZM122.487 93.562C122.837 94.1066 123.465 94.3789 124.373 94.3789C125.281 94.3789 125.906 94.1066 126.249 93.562C126.598 93.0174 126.773 92.214 126.773 91.1517V83.3056C126.773 82.2567 126.602 81.4735 126.259 80.9558C125.916 80.4381 125.287 80.1792 124.373 80.1792C123.459 80.1792 122.83 80.4381 122.487 80.9558C122.144 81.4735 121.973 82.2567 121.973 83.3056V91.1517C121.973 92.214 122.144 93.0174 122.487 93.562ZM137.976 96.4968C136.349 96.4968 135.105 96.0194 134.245 95.0647C133.391 94.11 132.913 92.8057 132.813 91.1517L135.394 90.5063C135.522 93.088 136.383 94.3789 137.976 94.3789C139.267 94.3789 139.912 93.7335 139.912 92.4426C139.912 92.0594 139.859 91.7064 139.751 91.3837C139.65 91.0542 139.492 90.755 139.277 90.4861C139.062 90.2104 138.867 89.9919 138.692 89.8306C138.517 89.6625 138.279 89.4574 137.976 89.2154L134.749 86.6336C134.157 86.1697 133.683 85.5814 133.327 84.8687C132.977 84.1493 132.803 83.3325 132.803 82.4181C132.803 81.0869 133.216 80.0279 134.043 79.2413C134.87 78.4547 135.966 78.0614 137.331 78.0614C138.796 78.0614 139.96 78.4211 140.82 79.1405C141.687 79.8531 142.222 80.865 142.424 82.176C142.444 82.3172 142.467 82.5122 142.494 82.761L139.912 83.4064C139.906 83.2921 139.889 83.1207 139.862 82.8921C139.748 82.0718 139.489 81.4163 139.086 80.9255C138.689 80.428 138.104 80.1792 137.331 80.1792C136.712 80.1792 136.235 80.354 135.899 80.7036C135.562 81.0465 135.394 81.5272 135.394 82.1458C135.394 83.161 135.825 84.0115 136.685 84.6973L139.912 87.2791C141.634 88.6708 142.494 90.3348 142.494 92.2712C142.494 93.5957 142.084 94.631 141.264 95.3773C140.45 96.1236 139.354 96.4968 137.976 96.4968ZM147.959 96.3152V80.5423H144.732V78.2429H153.768V80.5423H150.54V96.3152H147.959ZM165.13 85.9882H165.776C166.851 85.9882 167.658 85.763 168.196 85.3125C168.734 84.8553 169.003 84.1124 169.003 83.0837C169.003 82.055 168.734 81.3155 168.196 80.865C167.658 80.4078 166.851 80.1792 165.776 80.1792H165.13V85.9882ZM162.549 96.3152V78.2429H165.776C167.699 78.2429 169.147 78.616 170.122 79.3623C171.097 80.1086 171.585 81.3491 171.585 83.0837C171.585 84.1594 171.393 85.0604 171.01 85.7865C170.627 86.5126 170.065 87.0101 169.326 87.2791L172.23 96.3152H169.669L167.067 87.9245H165.13V96.3152H162.549ZM175.375 96.3152V78.2429H182.475V80.1792H177.957V85.9882H181.184V87.9245H177.957V94.3789H182.475V96.3152H175.375ZM188.423 96.3152L184.551 78.2429H187.133L189.039 87.9245L189.704 92.4426L190.39 87.9245L192.296 78.2429H194.878L191.005 96.3152H188.423ZM198.063 96.3152V78.2429H200.645V96.3152H198.063ZM205.061 96.3152V78.2429H212.16V80.1792H207.642V85.9882H210.869V87.9245H207.642V94.3789H212.16V96.3152H205.061ZM217.453 96.3152L214.226 78.2429H216.808L218.099 86.6336L218.754 91.7972L219.39 86.6336L220.681 78.2429H223.262L224.553 86.6336L225.189 91.7972L225.844 86.6336L227.135 78.2429H229.717L226.49 96.3152H223.908L222.617 87.9245L221.971 82.761L221.326 87.9245L220.035 96.3152H217.453ZM232.771 96.3152V78.2429H239.871V80.1792H235.353V85.9882H238.58V87.9245H235.353V94.3789H239.871V96.3152H232.771ZM243.117 96.3152V78.2429H247.12C249.01 78.2429 250.341 78.6295 251.114 79.4027C251.894 80.1758 252.284 81.5104 252.284 83.4064V90.5063C252.284 92.4897 251.887 93.9554 251.094 94.9033C250.307 95.8446 248.976 96.3152 247.1 96.3152H243.117ZM245.698 94.3789H247.12C247.544 94.3789 247.907 94.3419 248.209 94.268C248.512 94.1873 248.757 94.0461 248.946 93.8444C249.134 93.636 249.282 93.441 249.389 93.2595C249.497 93.0712 249.571 92.7821 249.611 92.3922C249.658 92.0022 249.685 91.6829 249.692 91.4341C249.699 91.1786 249.702 90.7853 249.702 90.2541C249.702 90.0793 249.702 89.9482 249.702 89.8608V84.0519C249.702 83.7224 249.699 83.4602 249.692 83.2652C249.692 83.0702 249.682 82.8417 249.662 82.5794C249.648 82.3105 249.625 82.0987 249.591 81.9441C249.558 81.7895 249.51 81.618 249.45 81.4298C249.389 81.2348 249.312 81.0835 249.218 80.9759C249.131 80.8684 249.02 80.7574 248.885 80.6431C248.757 80.5221 248.606 80.4347 248.431 80.3809C248.263 80.3204 248.065 80.2733 247.836 80.2397C247.608 80.1994 247.352 80.1792 247.07 80.1792H245.698V94.3789Z" fill="#930043"/>
<path d="M48.0697 148.341L48.4171 128.24H52.2141L55.0681 142.162L58.0461 128.24H61.719L62.0913 148.341H59.3614L59.0636 134.369L56.2096 148.341H54.0009L51.0974 134.32L50.8244 148.341H48.0697ZM70.5195 148.614C69.0967 148.614 67.9634 148.35 67.1196 147.82C66.2758 147.291 65.6719 146.53 65.308 145.537C64.944 144.544 64.762 143.37 64.762 142.013V134.493C64.762 133.137 64.944 131.979 65.308 131.019C65.6719 130.043 66.2758 129.298 67.1196 128.786C67.9634 128.273 69.0967 128.016 70.5195 128.016C71.9755 128.016 73.117 128.273 73.9443 128.786C74.788 129.298 75.3919 130.043 75.7559 131.019C76.1364 131.979 76.3267 133.137 76.3267 134.493V142.038C76.3267 143.378 76.1364 144.544 75.7559 145.537C75.3919 146.513 74.788 147.274 73.9443 147.82C73.117 148.35 71.9755 148.614 70.5195 148.614ZM70.5195 145.909C71.1317 145.909 71.5784 145.777 71.8596 145.512C72.1574 145.247 72.356 144.883 72.4553 144.42C72.5545 143.957 72.6042 143.452 72.6042 142.906V133.65C72.6042 133.087 72.5545 132.583 72.4553 132.136C72.356 131.689 72.1574 131.342 71.8596 131.094C71.5784 130.829 71.1317 130.696 70.5195 130.696C69.9405 130.696 69.502 130.829 69.2042 131.094C68.9064 131.342 68.7079 131.689 68.6086 132.136C68.5094 132.583 68.4597 133.087 68.4597 133.65V142.906C68.4597 143.452 68.5011 143.957 68.5838 144.42C68.6831 144.883 68.8816 145.247 69.1794 145.512C69.4772 145.777 69.9239 145.909 70.5195 145.909ZM79.0436 148.341V128.24H83.9821C84.8756 128.24 85.678 128.322 86.3894 128.488C87.1174 128.653 87.7378 128.934 88.2507 129.332C88.7801 129.712 89.1854 130.233 89.4667 130.895C89.7479 131.557 89.8886 132.392 89.8886 133.402C89.8886 134.212 89.7728 134.907 89.5411 135.486C89.3261 136.065 89.0034 136.528 88.5733 136.876C88.1431 137.207 87.6054 137.43 86.9602 137.546C87.7543 137.678 88.4078 137.96 88.9207 138.39C89.4501 138.803 89.8389 139.349 90.0871 140.028C90.3518 140.706 90.4842 141.525 90.4842 142.485C90.4842 143.444 90.3601 144.296 90.1119 145.041C89.8803 145.769 89.5246 146.381 89.0448 146.877C88.5816 147.357 87.9942 147.721 87.2828 147.969C86.5879 148.217 85.769 148.341 84.8259 148.341H79.0436ZM82.7165 145.76H84.1062C85.2147 145.76 85.9675 145.496 86.3646 144.966C86.7616 144.42 86.9602 143.585 86.9602 142.46C86.9602 141.649 86.8609 140.995 86.6624 140.499C86.4804 139.986 86.166 139.606 85.7193 139.358C85.2892 139.109 84.7101 138.985 83.9821 138.985H82.7165V145.76ZM82.7165 136.454H83.9573C84.6853 136.454 85.2478 136.346 85.6449 136.131C86.042 135.916 86.3149 135.585 86.4638 135.139C86.6293 134.692 86.712 134.129 86.712 133.451C86.712 132.74 86.5879 132.194 86.3398 131.813C86.1081 131.416 85.7524 131.151 85.2726 131.019C84.7928 130.87 84.1807 130.796 83.4362 130.796H82.7165V136.454ZM92.957 148.341V128.24H96.5802V148.341H92.957ZM99.692 148.341V128.24H103.365V145.81H108.229V148.341H99.692ZM110.137 148.341V128.24H118.575V130.821H113.81V136.603H117.558V139.159H113.81V145.81H118.625V148.341H110.137ZM125.77 148.341L129.79 128.24H133.711L137.731 148.341H134.331L133.537 143.701H130.038L129.219 148.341H125.77ZM130.41 141.368H133.14L131.775 132.93L130.41 141.368ZM139.753 148.341V128.24H145.659C146.867 128.24 147.843 128.463 148.588 128.91C149.349 129.356 149.903 130.01 150.251 130.87C150.615 131.714 150.797 132.74 150.797 133.947C150.797 135.255 150.573 136.313 150.127 137.124C149.68 137.918 149.051 138.497 148.24 138.861C147.446 139.225 146.503 139.407 145.411 139.407H143.426V148.341H139.753ZM143.426 136.826H144.816C145.477 136.826 145.99 136.735 146.354 136.553C146.735 136.355 146.991 136.049 147.124 135.635C147.273 135.205 147.347 134.634 147.347 133.923C147.347 133.195 147.289 132.607 147.173 132.161C147.074 131.697 146.842 131.358 146.478 131.143C146.131 130.928 145.577 130.821 144.816 130.821H143.426V136.826ZM152.84 148.341V128.24H158.747C159.954 128.24 160.93 128.463 161.675 128.91C162.436 129.356 162.99 130.01 163.338 130.87C163.702 131.714 163.884 132.74 163.884 133.947C163.884 135.255 163.66 136.313 163.214 137.124C162.767 137.918 162.138 138.497 161.327 138.861C160.533 139.225 159.59 139.407 158.498 139.407H156.513V148.341H152.84ZM156.513 136.826H157.903C158.565 136.826 159.077 136.735 159.441 136.553C159.822 136.355 160.078 136.049 160.211 135.635C160.36 135.205 160.434 134.634 160.434 133.923C160.434 133.195 160.376 132.607 160.26 132.161C160.161 131.697 159.929 131.358 159.565 131.143C159.218 130.928 158.664 130.821 157.903 130.821H156.513V136.826ZM171.962 148.341V128.24H176.702C178.34 128.24 179.614 128.463 180.524 128.91C181.45 129.356 182.104 130.043 182.484 130.969C182.881 131.896 183.08 133.071 183.08 134.493V141.839C183.08 143.295 182.881 144.511 182.484 145.487C182.104 146.447 181.458 147.167 180.548 147.646C179.655 148.11 178.422 148.341 176.851 148.341H171.962ZM175.635 145.785H176.751C177.595 145.785 178.199 145.636 178.563 145.338C178.927 145.041 179.15 144.61 179.233 144.048C179.316 143.469 179.357 142.766 179.357 141.939V134.245C179.357 133.435 179.299 132.781 179.183 132.285C179.068 131.788 178.828 131.424 178.464 131.193C178.1 130.961 177.512 130.845 176.702 130.845H175.635V145.785ZM185.776 148.341V128.24H194.214V130.821H189.449V136.603H193.196V139.159H189.449V145.81H194.263V148.341H185.776ZM199.468 148.341L195.423 128.24H198.674L201.329 142.46L203.811 128.24H207.137L203.092 148.341H199.468ZM209.187 148.341V128.24H217.625V130.821H212.86V136.603H216.607V139.159H212.86V145.81H217.675V148.341H209.187ZM219.802 148.341V128.24H223.475V145.81H228.339V148.341H219.802ZM235.465 148.614C234.042 148.614 232.909 148.35 232.065 147.82C231.221 147.291 230.617 146.53 230.253 145.537C229.889 144.544 229.707 143.37 229.707 142.013V134.493C229.707 133.137 229.889 131.979 230.253 131.019C230.617 130.043 231.221 129.298 232.065 128.786C232.909 128.273 234.042 128.016 235.465 128.016C236.921 128.016 238.063 128.273 238.89 128.786C239.734 129.298 240.337 130.043 240.701 131.019C241.082 131.979 241.272 133.137 241.272 134.493V142.038C241.272 143.378 241.082 144.544 240.701 145.537C240.337 146.513 239.734 147.274 238.89 147.82C238.063 148.35 236.921 148.614 235.465 148.614ZM235.465 145.909C236.077 145.909 236.524 145.777 236.805 145.512C237.103 145.247 237.301 144.883 237.401 144.42C237.5 143.957 237.55 143.452 237.55 142.906V133.65C237.55 133.087 237.5 132.583 237.401 132.136C237.301 131.689 237.103 131.342 236.805 131.094C236.524 130.829 236.077 130.696 235.465 130.696C234.886 130.696 234.448 130.829 234.15 131.094C233.852 131.342 233.653 131.689 233.554 132.136C233.455 132.583 233.405 133.087 233.405 133.65V142.906C233.405 143.452 233.447 143.957 233.529 144.42C233.629 144.883 233.827 145.247 234.125 145.512C234.423 145.777 234.869 145.909 235.465 145.909ZM243.989 148.341V128.24H249.896C251.103 128.24 252.079 128.463 252.824 128.91C253.585 129.356 254.139 130.01 254.487 130.87C254.851 131.714 255.033 132.74 255.033 133.947C255.033 135.255 254.809 136.313 254.363 137.124C253.916 137.918 253.287 138.497 252.476 138.861C251.682 139.225 250.739 139.407 249.647 139.407H247.662V148.341H243.989ZM247.662 136.826H249.052C249.714 136.826 250.226 136.735 250.59 136.553C250.971 136.355 251.227 136.049 251.36 135.635C251.509 135.205 251.583 134.634 251.583 133.923C251.583 133.195 251.525 132.607 251.409 132.161C251.31 131.697 251.078 131.358 250.714 131.143C250.367 130.928 249.813 130.821 249.052 130.821H247.662V136.826ZM257.027 148.341L257.374 128.24H261.171L264.025 142.162L267.003 128.24H270.676L271.048 148.341H268.318L268.02 134.369L265.166 148.341H262.958L260.054 134.32L259.781 148.341H257.027ZM274.017 148.341V128.24H282.454V130.821H277.69V136.603H281.437V139.159H277.69V145.81H282.504V148.341H274.017ZM284.632 148.341V128.24H287.188L292.077 139.705V128.24H295.104V148.341H292.672L287.759 136.33V148.341H284.632ZM300.165 148.341V130.945H296.964V128.24H306.99V130.945H303.838V148.341H300.165ZM84.4052 185.614C82.9327 185.614 81.7746 185.325 80.9308 184.746C80.1036 184.167 79.5245 183.381 79.1936 182.388C78.8627 181.379 78.6973 180.221 78.6973 178.914V171.742C78.6973 170.368 78.8627 169.177 79.1936 168.168C79.5245 167.159 80.1036 166.381 80.9308 165.835C81.7746 165.289 82.9327 165.016 84.4052 165.016C85.7949 165.016 86.8786 165.256 87.6562 165.736C88.4504 166.199 89.0129 166.869 89.3438 167.746C89.6747 168.623 89.8401 169.64 89.8401 170.799V172.486H86.3161V170.749C86.3161 170.186 86.283 169.674 86.2168 169.21C86.1672 168.747 86.01 168.383 85.7453 168.118C85.4971 167.837 85.0587 167.696 84.43 167.696C83.8013 167.696 83.3381 167.845 83.0403 168.143C82.759 168.424 82.577 168.813 82.4943 169.31C82.4116 169.789 82.3702 170.335 82.3702 170.947V179.683C82.3702 180.411 82.4281 181.015 82.5439 181.495C82.6597 181.958 82.8665 182.314 83.1643 182.562C83.4787 182.793 83.9006 182.909 84.43 182.909C85.0422 182.909 85.4723 182.769 85.7205 182.487C85.9852 182.19 86.1507 181.801 86.2168 181.321C86.283 180.841 86.3161 180.303 86.3161 179.708V177.896H89.8401V179.509C89.8401 180.701 89.6829 181.759 89.3686 182.686C89.0542 183.596 88.5 184.316 87.7058 184.845C86.9282 185.358 85.828 185.614 84.4052 185.614ZM97.8569 185.614C96.4341 185.614 95.3008 185.35 94.457 184.82C93.6132 184.291 93.0094 183.53 92.6454 182.537C92.2814 181.544 92.0994 180.37 92.0994 179.013V171.493C92.0994 170.137 92.2814 168.979 92.6454 168.019C93.0094 167.043 93.6132 166.298 94.457 165.786C95.3008 165.273 96.4341 165.016 97.8569 165.016C99.3129 165.016 100.454 165.273 101.282 165.786C102.125 166.298 102.729 167.043 103.093 168.019C103.474 168.979 103.664 170.137 103.664 171.493V179.038C103.664 180.378 103.474 181.544 103.093 182.537C102.729 183.513 102.125 184.274 101.282 184.82C100.454 185.35 99.3129 185.614 97.8569 185.614ZM97.8569 182.909C98.4691 182.909 98.9158 182.777 99.1971 182.512C99.4949 182.247 99.6934 181.883 99.7927 181.42C99.8919 180.957 99.9416 180.452 99.9416 179.906V170.65C99.9416 170.087 99.8919 169.583 99.7927 169.136C99.6934 168.689 99.4949 168.342 99.1971 168.094C98.9158 167.829 98.4691 167.696 97.8569 167.696C97.2779 167.696 96.8395 167.829 96.5417 168.094C96.2438 168.342 96.0453 168.689 95.946 169.136C95.8468 169.583 95.7971 170.087 95.7971 170.65V179.906C95.7971 180.452 95.8385 180.957 95.9212 181.42C96.0205 181.883 96.219 182.247 96.5168 182.512C96.8146 182.777 97.2613 182.909 97.8569 182.909ZM106.331 185.341L106.679 165.24H110.476L113.33 179.162L116.308 165.24H119.981L120.353 185.341H117.623L117.325 171.369L114.471 185.341H112.263L109.359 171.32L109.086 185.341H106.331ZM123.321 185.341V165.24H129.228C130.436 165.24 131.412 165.463 132.156 165.91C132.917 166.356 133.472 167.01 133.819 167.87C134.183 168.714 134.365 169.74 134.365 170.947C134.365 172.255 134.142 173.313 133.695 174.124C133.248 174.918 132.62 175.497 131.809 175.861C131.015 176.225 130.072 176.407 128.98 176.407H126.994V185.341H123.321ZM126.994 173.826H128.384C129.046 173.826 129.559 173.735 129.923 173.553C130.303 173.355 130.56 173.049 130.692 172.635C130.841 172.205 130.915 171.634 130.915 170.923C130.915 170.195 130.858 169.607 130.742 169.161C130.642 168.697 130.411 168.358 130.047 168.143C129.699 167.928 129.145 167.821 128.384 167.821H126.994V173.826ZM134.325 185.341L138.345 165.24H142.266L146.286 185.341H142.887L142.092 180.701H138.593L137.774 185.341H134.325ZM138.965 178.368H141.695L140.33 169.93L138.965 178.368ZM148.308 185.341V165.24H150.864L155.753 176.705V165.24H158.781V185.341H156.349L151.435 173.33V185.341H148.308ZM161.931 185.341V165.24H165.554V185.341H161.931ZM168.666 185.341V165.24H177.103V167.821H172.339V173.603H176.086V176.159H172.339V182.81H177.153V185.341H168.666ZM184.343 185.614C183.136 185.614 182.126 185.383 181.316 184.919C180.505 184.44 179.893 183.745 179.479 182.835C179.066 181.925 178.834 180.808 178.784 179.485L181.936 178.864C181.969 179.642 182.06 180.328 182.209 180.924C182.375 181.519 182.615 181.983 182.929 182.314C183.26 182.628 183.69 182.785 184.219 182.785C184.815 182.785 185.237 182.611 185.485 182.264C185.733 181.9 185.857 181.445 185.857 180.899C185.857 180.022 185.659 179.303 185.262 178.74C184.865 178.177 184.335 177.615 183.673 177.052L181.142 174.819C180.431 174.207 179.86 173.528 179.43 172.784C179.016 172.023 178.809 171.088 178.809 169.98C178.809 168.391 179.273 167.167 180.199 166.307C181.126 165.446 182.391 165.016 183.996 165.016C184.939 165.016 185.725 165.165 186.354 165.463C186.982 165.744 187.479 166.141 187.843 166.654C188.223 167.167 188.504 167.754 188.686 168.416C188.868 169.061 188.984 169.748 189.034 170.476L185.907 171.022C185.874 170.393 185.799 169.831 185.684 169.334C185.584 168.838 185.394 168.449 185.113 168.168C184.848 167.887 184.451 167.746 183.922 167.746C183.376 167.746 182.954 167.928 182.656 168.292C182.375 168.639 182.234 169.078 182.234 169.607C182.234 170.286 182.375 170.848 182.656 171.295C182.937 171.725 183.343 172.172 183.872 172.635L186.378 174.844C187.206 175.539 187.909 176.358 188.488 177.301C189.083 178.227 189.381 179.352 189.381 180.676C189.381 181.635 189.166 182.487 188.736 183.232C188.322 183.976 187.735 184.564 186.974 184.994C186.23 185.407 185.353 185.614 184.343 185.614ZM197.678 185.341V165.24H201.301V185.341H197.678ZM204.413 185.341V165.24H206.969L211.858 176.705V165.24H214.886V185.341H212.453L207.54 173.33V185.341H204.413ZM224.07 185.341V165.24H227.693V185.341H224.07ZM230.805 185.341V165.24H233.361L238.25 176.705V165.24H241.278V185.341H238.846L233.932 173.33V185.341H230.805ZM244.328 185.341V165.24H249.068C250.706 165.24 251.98 165.463 252.89 165.91C253.817 166.356 254.47 167.043 254.851 167.969C255.248 168.896 255.446 170.071 255.446 171.493V178.839C255.446 180.295 255.248 181.511 254.851 182.487C254.47 183.447 253.825 184.167 252.915 184.646C252.022 185.11 250.789 185.341 249.217 185.341H244.328ZM248.001 182.785H249.118C249.962 182.785 250.566 182.636 250.93 182.338C251.294 182.041 251.517 181.61 251.6 181.048C251.682 180.469 251.724 179.766 251.724 178.939V171.245C251.724 170.435 251.666 169.781 251.55 169.285C251.434 168.788 251.194 168.424 250.83 168.193C250.466 167.961 249.879 167.845 249.068 167.845H248.001V182.785ZM258.242 185.341V165.24H261.865V185.341H258.242ZM263.959 185.341L267.98 165.24H271.901L275.921 185.341H272.521L271.727 180.701H268.228L267.409 185.341H263.959ZM268.6 178.368H271.33L269.965 169.93L268.6 178.368Z" fill="black"/>
<rect x="1.10938" y="216.488" width="351.935" height="44.37" fill="#930043"/>
<circle cx="177.579" cy="235.646" r="37.3111" fill="white"/>
<path d="M69.7804 224.152L74.1737 233.052L83.9983 234.488L76.8894 241.412L78.5671 251.194L69.7804 246.573L60.9937 251.194L62.6715 241.412L55.5625 234.488L65.3871 233.052L69.7804 224.152Z" fill="white"/>
<path d="M110.884 224.152L115.277 233.052L125.102 234.488L117.993 241.412L119.671 251.194L110.884 246.573L102.097 251.194L103.775 241.412L96.666 234.488L106.491 233.052L110.884 224.152Z" fill="white"/>
<path d="M178.787 214.465L186.327 229.74L203.188 232.204L190.987 244.087L193.867 260.875L178.787 252.944L163.708 260.875L166.587 244.087L154.387 232.204L171.247 229.74L178.787 214.465Z" fill="#930043"/>
<path d="M240.56 224.152L244.953 233.052L254.778 234.488L247.669 241.412L249.346 251.194L240.56 246.573L231.773 251.194L233.451 241.412L226.342 234.488L236.166 233.052L240.56 224.152Z" fill="white"/>
<path d="M281.663 224.152L286.057 233.052L295.881 234.488L288.772 241.412L290.45 251.194L281.663 246.573L272.877 251.194L274.554 241.412L267.445 234.488L277.27 233.052L281.663 224.152Z" fill="white"/>
<g clip-path="url(#clip0_929_1939)">
<path d="M185.521 290.623V295.377H181.031V284.549H179.446V295.377H174.692V284.549H173.108V301.451H168.618V290.623H167.033V307.79H168.618V303.036H179.446V313.864H181.031V296.962H185.521V307.79H187.105V290.623H185.521ZM179.446 301.451H174.692V296.962H179.446V301.451Z" fill="#930043"/>
<path d="M174.692 303.831H173.107V313.867H174.692V303.831Z" fill="#930043"/>
</g>
<path d="M134.189 321.946V331.439H132.07V327.879H125.708V331.439H123.588V321.946H125.708V325.506H132.07V321.946H134.189Z" fill="black"/>
<path d="M136 331.44V321.932H138.641V331.44H136Z" fill="black"/>
<path d="M150.785 324.317H146.545V331.438H144.426V324.317H140.184V321.945H150.785V324.317Z" fill="black"/>
<path d="M162.828 321.945V324.317H154.346V324.32H152.227V321.945H162.828ZM162.828 325.706V327.641H154.346V327.646H152.227V325.706H162.828ZM162.828 329.065V331.438H152.227V329.065H162.828Z" fill="black"/>
<path d="M175.25 325.019V326.097H173.13V325.23C173.13 324.727 172.765 324.317 172.315 324.317H164.649V321.945H172.503C172.719 321.945 172.928 321.973 173.13 322.026C174.144 322.291 174.941 323.183 175.18 324.32C175.225 324.544 175.25 324.778 175.25 325.019ZM167.584 329.065H175.25V331.438H167.396C167.298 331.438 167.203 331.432 167.109 331.42C166.994 331.407 166.88 331.384 166.769 331.356C165.755 331.092 164.958 330.199 164.719 329.062C164.701 328.978 164.687 328.895 164.676 328.811C164.658 328.663 164.646 328.513 164.646 328.361V325.604H166.766V328.149C166.769 328.656 167.134 329.065 167.584 329.065Z" fill="black"/>
<path d="M187.557 321.945V331.438H185.437V327.877H179.075V331.438H176.955V321.945H179.075V325.505H185.437V321.945H187.557Z" fill="black"/>
<path d="M205.576 321.945V331.438H203.456V327.877H197.094V331.438H194.975V321.945H197.094V325.505H203.456V321.945H205.576Z" fill="#930043"/>
<path d="M218.008 321.945V331.438H215.945V330.42L215.12 331.438H209.838C208.588 331.293 207.586 330.209 207.404 328.828V321.945H209.524V328.152C209.524 328.656 209.89 329.065 210.34 329.065H215.881L215.886 321.945H218.008Z" fill="#930043"/>
<path d="M230.51 327.918C230.537 328.088 230.551 328.264 230.551 328.442C230.551 328.65 230.533 328.854 230.496 329.049C230.262 330.323 229.303 331.302 228.122 331.422C228.042 331.43 227.961 331.435 227.876 331.435C227.792 331.435 227.713 331.43 227.631 331.422H222.042V331.435H219.922V329.052H219.924V327.92H219.922V325.568H219.924V324.281H219.922V321.932H227.876C229.162 321.932 230.239 322.949 230.494 324.304C230.533 324.505 230.551 324.711 230.551 324.925C230.551 325.138 230.53 325.344 230.494 325.545C230.417 325.965 230.258 326.351 230.042 326.684C230.274 327.043 230.437 327.463 230.51 327.918ZM228.431 324.925C228.431 324.584 228.183 324.304 227.876 324.304H226.306V324.281H222.044V325.568H226.306V325.545H227.876C227.976 325.545 228.067 325.517 228.149 325.466C228.317 325.36 228.431 325.156 228.431 324.925ZM228.431 328.444C228.431 328.223 228.326 328.03 228.172 327.92H222.046V329.052H227.99C228.24 328.993 228.431 328.742 228.431 328.444Z" fill="#930043"/>
<defs>
<clipPath id="clip0_929_1939">
<rect width="20.072" height="29.3157" fill="white" transform="translate(167.033 284.549)"/>
</clipPath>
</defs>
</svg>
