<?xml version="1.0" encoding="UTF-8"?>
<svg xmlns="http://www.w3.org/2000/svg" width="50" height="50" viewBox="0 0 50 50" fill="none">
  <path d="M20.2763 5.69715H24.0135C24.4195 5.69715 24.7488 5.36792 24.7488 4.96186C24.7488 4.55579 24.4195 4.22656 24.0135 4.22656H20.2763C19.8702 4.22656 19.541 4.55579 19.541 4.96186C19.541 5.36792 19.8703 5.69715 20.2763 5.69715Z" fill="white"></path>
  <path d="M16.9443 45.2821H23.6104C24.0165 45.2821 24.3457 44.9529 24.3457 44.5468C24.3457 44.1408 24.0165 43.8115 23.6104 43.8115H16.9443C16.5382 43.8115 16.209 44.1408 16.209 44.5468C16.209 44.9529 16.5382 45.2821 16.9443 45.2821Z" fill="white"></path>
  <path d="M7.46576 37.9665C7.87183 37.9665 8.20106 37.6373 8.20106 37.2312V8.456H32.3527V12.2384C32.3527 12.6444 32.6819 12.9737 33.088 12.9737C33.494 12.9737 33.8233 12.6444 33.8233 12.2384C33.8236 11.3537 33.8221 14.9521 33.8266 4.39716C33.8266 2.78737 32.5101 1.4707 30.8946 1.4707H30.8928H9.65908H9.65746C8.12046 1.4707 6.73047 2.73493 6.73047 4.39931V37.2312C6.73047 37.6373 7.0597 37.9665 7.46576 37.9665ZM30.8928 2.94129C31.6696 2.94129 32.3527 3.57729 32.3527 4.39931V6.98541H8.20155V4.39716C8.20155 3.59523 8.85837 2.94129 9.65908 2.94129H30.8928Z" fill="white"></path>
  <path d="M24.8136 19.9974C25.0997 20.2812 25.5657 20.2829 25.8534 19.9923L28.9263 16.8907C29.2103 16.6042 29.2103 16.1425 28.9263 15.856L25.8534 12.7543C25.5676 12.4656 25.1023 12.4642 24.8136 12.7493C24.525 13.035 24.5228 13.5007 24.8086 13.789L27.3689 16.3733L24.8086 18.9576C24.5228 19.2459 24.525 19.7116 24.8136 19.9974Z" fill="white"></path>
  <path d="M15.7394 12.7491C15.4511 12.4626 14.9851 12.4647 14.6996 12.7541L11.6271 15.8558C11.3431 16.1423 11.3431 16.604 11.6271 16.8905L14.6996 19.9922C14.9852 20.2806 15.4505 20.2832 15.7394 19.9972C16.028 19.7114 16.0302 19.2458 15.7444 18.9575L13.1845 16.3732L15.7444 13.7889C16.0302 13.5005 16.028 13.0349 15.7394 12.7491Z" fill="white"></path>
  <path d="M21.4619 10.6718L17.146 21.5325C16.9959 21.9098 17.1804 22.3374 17.5578 22.4871C17.933 22.6369 18.3618 22.4545 18.5124 22.0753L22.8283 11.2146C22.9784 10.8373 22.7939 10.4097 22.4165 10.26C22.0377 10.1081 21.6116 10.2944 21.4619 10.6718Z" fill="white"></path>
  <path d="M33.0919 24.2944C30.9375 24.2944 29.1875 26.0444 29.1875 28.1988C29.1875 30.3735 30.9606 32.1033 33.0919 32.1033C35.2139 32.1033 36.989 30.3771 36.989 28.1988C36.989 26.0444 35.239 24.2944 33.0919 24.2944ZM33.8272 30.515V27.7136C33.8272 27.3092 33.4963 26.9783 33.0919 26.9783C32.6801 26.9783 32.3566 27.3092 32.3566 27.7136V30.5224C31.3713 30.2136 30.6581 29.2871 30.6581 28.1988C30.6581 26.8606 31.7463 25.765 33.0919 25.765C34.4302 25.765 35.5184 26.8606 35.5184 28.1988C35.5184 29.2871 34.8052 30.2062 33.8272 30.515Z" fill="white"></path>
  <path d="M42.6129 25.8749L40.804 25.669C40.6643 25.2426 40.4879 24.8234 40.2746 24.419L41.3334 22.919C41.5467 22.6323 41.5099 22.2278 41.2599 21.9779L39.1496 19.8749C38.8849 19.6102 38.4658 19.5808 38.1716 19.8161L36.7525 20.9558C36.3481 20.7499 35.929 20.5808 35.4952 20.4484L35.1937 18.6323C35.1349 18.2793 34.8261 18.022 34.4658 18.022H31.4879C31.1129 18.022 30.7967 18.3014 30.7526 18.6764L30.554 20.4926C30.1202 20.6323 29.7084 20.8087 29.3114 21.0146L27.804 19.9484C27.5099 19.7425 27.1129 19.772 26.8628 20.0293L24.7599 22.1322C24.4952 22.397 24.4731 22.8161 24.7084 23.1102L25.8408 24.5367C25.6349 24.9411 25.4658 25.3602 25.3334 25.794L23.5246 26.0955C23.1717 26.1617 22.9069 26.4631 22.9069 26.8234V29.8014C22.9069 30.1764 23.1937 30.4852 23.5614 30.5293L25.3702 30.7352C25.5099 31.169 25.6937 31.5882 25.8996 31.9852L24.8408 33.4779C24.6349 33.772 24.6643 34.169 24.9217 34.4264L27.0246 36.5293C27.2893 36.794 27.7084 36.8161 28.0026 36.5808L29.429 35.4485C29.8334 35.647 30.2452 35.8161 30.679 35.9485L30.9805 37.7646C31.0393 38.1249 31.3481 38.3823 31.7084 38.3823H32.3555V40.0072H7.46576C7.06136 40.0072 6.73047 40.3381 6.73047 40.7425C6.73047 40.8564 6.73047 45.7877 6.73047 45.6028C6.73047 47.2131 8.04668 48.5293 9.65697 48.5293H30.8923C32.5099 48.5293 33.8261 47.2131 33.8261 45.6028C33.8261 45.2433 33.8261 38.0265 33.8261 38.3823H34.6864C35.0614 38.3823 35.3775 38.1029 35.4217 37.7279L35.6276 35.9117C36.054 35.772 36.4731 35.5955 36.8702 35.3896L38.3702 36.4558C38.6643 36.6617 39.0614 36.6249 39.3187 36.3749L41.4143 34.2646C41.679 33.9999 41.701 33.5808 41.4658 33.294L40.3334 31.8676C40.5393 31.4558 40.7084 31.0367 40.8408 30.6102L42.6496 30.3014C43.0025 30.2426 43.2672 29.9338 43.2672 29.5808V26.6028C43.2672 26.2278 42.9878 25.9117 42.6129 25.8749ZM32.3555 45.6028C32.3555 46.4043 31.7011 47.0587 30.8923 47.0587H9.65698C8.85548 47.0587 8.20106 46.4043 8.20106 45.6028C8.20106 45.4449 8.20106 41.4023 8.20106 41.4778H32.3555V45.6028ZM41.7967 28.9558L40.1349 29.2352C39.8408 29.2867 39.6129 29.4999 39.5393 29.794C39.3923 30.4117 39.1496 31.0072 38.8261 31.5734C38.6717 31.8308 38.6937 32.1617 38.8849 32.397L39.907 33.6911L38.7158 34.897L37.3335 33.9117C37.0982 33.7426 36.7746 33.7352 36.5246 33.8896C35.9879 34.2205 35.3996 34.4705 34.7746 34.6249C34.4732 34.6984 34.2526 34.9558 34.2158 35.2573L34.0319 36.9117C33.4125 36.9117 32.9459 36.9117 32.3261 36.9117L32.0467 35.2426C32.0026 34.9558 31.7819 34.7205 31.4952 34.6543C30.8775 34.4999 30.282 34.2573 29.7305 33.9338C29.4658 33.7793 29.1349 33.8014 28.8996 33.9925L27.5981 35.022L26.3996 33.8234L27.3702 32.4632C27.5265 32.2416 27.5544 31.9148 27.3996 31.6396C27.0687 31.1028 26.8114 30.5072 26.6496 29.8749C26.5761 29.5808 26.3261 29.3602 26.0246 29.3308L24.3775 29.1396V27.4484L26.0393 27.169C26.3334 27.1176 26.5687 26.897 26.6349 26.6102C26.782 25.9852 27.0246 25.3896 27.3555 24.8455C27.5099 24.5808 27.4952 24.2499 27.304 24.0073L26.2672 22.7058L27.4658 21.5073L28.8408 22.4852C29.0761 22.6543 29.3996 22.669 29.6496 22.5146C30.1864 22.1837 30.782 21.9337 31.4143 21.772C31.7084 21.6984 31.9217 21.4484 31.9584 21.147L32.1422 19.4926H33.8481L34.1275 21.1543C34.179 21.4484 34.3923 21.6837 34.679 21.7499C35.304 21.897 35.8996 22.1396 36.4511 22.4705C36.7158 22.6249 37.0467 22.6028 37.282 22.4117L38.5761 21.3749L39.7746 22.5808L38.804 23.9484C38.6497 24.1669 38.6181 24.4863 38.7746 24.7646C39.1128 25.3161 39.3628 25.9117 39.5172 26.522C39.5908 26.8161 39.8408 27.0367 40.1496 27.0734L41.7966 27.2573L41.7967 28.9558Z" fill="white"></path>
</svg>
