<svg width="356" height="401" viewBox="0 0 356 401" fill="none" xmlns="http://www.w3.org/2000/svg">
<path d="M17.0407 82.4206L163.036 5.66463C172.307 0.778456 183.737 0.778456 193.008 5.66463L339.004 82.4206C348.275 87.3068 353.99 96.3116 353.99 106.065V295.072C353.99 304.826 348.275 313.831 339.004 318.717L193.008 395.473C183.737 400.359 172.307 400.359 163.036 395.473L17.0407 318.717C7.76952 313.831 2.05469 304.826 2.05469 295.072V106.065C2.05469 96.2929 7.76952 87.2881 17.0407 82.4206Z" fill="white" stroke="#930043" stroke-width="2.23497" stroke-miterlimit="10"/>
<path d="M330.54 286.548C330.54 294.069 326.095 301.085 318.914 304.846L188.043 373.546C180.862 377.307 171.952 377.307 164.812 373.546L33.8997 304.846C26.7183 301.085 22.2736 294.069 22.2736 286.548V269.891H14.9688V286.548C14.9688 296.427 20.8127 305.632 30.237 310.571L161.149 379.29C165.84 381.76 171.129 382.994 176.417 382.994C181.685 382.994 186.953 381.76 191.665 379.29L322.577 310.571C332.001 305.632 337.845 296.427 337.845 286.548V269.891H330.561V286.548H330.54ZM322.577 90.5562L191.665 21.8559C182.261 16.898 170.553 16.9167 161.149 21.8559L30.2576 90.5562C20.8332 95.5142 14.9893 104.719 14.9893 114.598V208.237H22.2942V114.598C22.2942 107.076 26.7389 100.061 33.9203 96.3L164.77 27.5997C171.952 23.8391 180.862 23.8391 188.002 27.5997L318.914 96.3C326.095 100.061 330.54 107.076 330.54 114.598V208.237H337.824V114.598C337.845 104.719 332.001 95.5142 322.577 90.5562Z" fill="#930043"/>
<path d="M104.162 96.3154V78.243H107.732L110.293 92.0797L112.855 78.243H116.425V96.3154H113.843V82.0551L111.261 96.3154H109.325L106.743 82.0551V96.3154H104.162ZM125.318 96.4969C124.411 96.4969 123.631 96.3591 122.979 96.0834C122.333 95.8078 121.819 95.4044 121.436 94.8732C121.052 94.3421 120.773 93.7202 120.599 93.0075C120.424 92.2881 120.336 91.4544 120.336 90.5064V83.9511C120.336 83.0031 120.424 82.1762 120.599 81.4702C120.773 80.7643 121.052 80.1524 121.436 79.6347C121.819 79.1103 122.333 78.717 122.979 78.4548C123.631 78.1926 124.411 78.0615 125.318 78.0615C127.08 78.0615 128.351 78.5657 129.131 79.5742C129.91 80.5827 130.3 82.0417 130.3 83.9511V90.5064C130.3 91.4409 130.21 92.2679 130.028 92.9873C129.853 93.7 129.574 94.3253 129.191 94.8631C128.808 95.3943 128.29 95.801 127.638 96.0834C126.992 96.3591 126.219 96.4969 125.318 96.4969ZM123.432 93.5622C123.782 94.1067 124.411 94.379 125.318 94.379C126.226 94.379 126.851 94.1067 127.194 93.5622C127.544 93.0176 127.719 92.2141 127.719 91.1518V83.3057C127.719 82.2568 127.547 81.4736 127.204 80.9559C126.861 80.4382 126.233 80.1793 125.318 80.1793C124.404 80.1793 123.775 80.4382 123.432 80.9559C123.09 81.4736 122.918 82.2568 122.918 83.3057V91.1518C122.918 92.2141 123.09 93.0176 123.432 93.5622ZM138.921 96.4969C137.294 96.4969 136.051 96.0195 135.19 95.0648C134.336 94.1101 133.859 92.8058 133.758 91.1518L136.34 90.5064C136.467 93.0882 137.328 94.379 138.921 94.379C140.212 94.379 140.858 93.7336 140.858 92.4427C140.858 92.0595 140.804 91.7065 140.696 91.3838C140.596 91.0543 140.438 90.7552 140.222 90.4862C140.007 90.2106 139.812 89.9921 139.638 89.8307C139.463 89.6626 139.224 89.4576 138.921 89.2155L135.694 86.6337C135.103 86.1698 134.629 85.5815 134.272 84.8689C133.923 84.1495 133.748 83.3326 133.748 82.4182C133.748 81.087 134.161 80.0281 134.988 79.2414C135.815 78.4548 136.911 78.0615 138.276 78.0615C139.742 78.0615 140.905 78.4212 141.765 79.1406C142.633 79.8532 143.167 80.8651 143.369 82.1762C143.389 82.3174 143.413 82.5123 143.44 82.7611L140.858 83.4065C140.851 83.2922 140.834 83.1208 140.807 82.8922C140.693 82.072 140.434 81.4164 140.031 80.9256C139.634 80.4281 139.049 80.1793 138.276 80.1793C137.657 80.1793 137.18 80.3541 136.844 80.7038C136.508 81.0466 136.34 81.5274 136.34 82.1459C136.34 83.1611 136.77 84.0116 137.631 84.6974L140.858 87.2792C142.579 88.6709 143.44 90.335 143.44 92.2713C143.44 93.5958 143.029 94.6312 142.209 95.3775C141.396 96.1238 140.3 96.4969 138.921 96.4969ZM148.904 96.3154V80.5424H145.677V78.243H154.713V80.5424H151.486V96.3154H148.904ZM166.076 85.9883H166.721C167.797 85.9883 168.604 85.7631 169.141 85.3126C169.679 84.8554 169.948 84.1125 169.948 83.0838C169.948 82.0551 169.679 81.3156 169.141 80.8651C168.604 80.4079 167.797 80.1793 166.721 80.1793H166.076V85.9883ZM163.494 96.3154V78.243H166.721C168.644 78.243 170.093 78.6162 171.068 79.3624C172.043 80.1087 172.53 81.3492 172.53 83.0838C172.53 84.1596 172.338 85.0605 171.955 85.7866C171.572 86.5127 171.011 87.0103 170.271 87.2792L173.175 96.3154H170.614L168.012 87.9246H166.076V96.3154H163.494ZM176.32 96.3154V78.243H183.42V80.1793H178.902V85.9883H182.129V87.9246H178.902V94.379H183.42V96.3154H176.32ZM189.369 96.3154L185.496 78.243H188.078L189.984 87.9246L190.65 92.4427L191.335 87.9246L193.241 78.243H195.823L191.951 96.3154H189.369ZM199.008 96.3154V78.243H201.59V96.3154H199.008ZM206.006 96.3154V78.243H213.106V80.1793H208.588V85.9883H211.815V87.9246H208.588V94.379H213.106V96.3154H206.006ZM218.399 96.3154L215.171 78.243H217.753L219.044 86.6337L219.7 91.7973L220.335 86.6337L221.626 78.243H224.208L225.499 86.6337L226.134 91.7973L226.789 86.6337L228.08 78.243H230.662L227.435 96.3154H224.853L223.562 87.9246L222.917 82.7611L222.271 87.9246L220.98 96.3154H218.399ZM233.716 96.3154V78.243H240.816V80.1793H236.298V85.9883H239.525V87.9246H236.298V94.379H240.816V96.3154H233.716ZM244.062 96.3154V78.243H248.066C249.955 78.243 251.286 78.6296 252.059 79.4028C252.839 80.176 253.229 81.5106 253.229 83.4065V90.5064C253.229 92.4898 252.832 93.9555 252.039 94.9035C251.252 95.8447 249.921 96.3154 248.045 96.3154H244.062ZM246.644 94.379H248.066C248.489 94.379 248.852 94.3421 249.155 94.2681C249.457 94.1874 249.703 94.0462 249.891 93.8445C250.079 93.6361 250.227 93.4411 250.335 93.2596C250.442 93.0714 250.516 92.7822 250.557 92.3923C250.604 92.0023 250.631 91.683 250.637 91.4342C250.644 91.1787 250.647 90.7854 250.647 90.2543C250.647 90.0795 250.647 89.9484 250.647 89.861V84.052C250.647 83.7225 250.644 83.4603 250.637 83.2653C250.637 83.0704 250.627 82.8418 250.607 82.5796C250.594 82.3106 250.57 82.0988 250.536 81.9442C250.503 81.7896 250.456 81.6181 250.395 81.4299C250.335 81.2349 250.257 81.0836 250.163 80.976C250.076 80.8685 249.965 80.7575 249.83 80.6432C249.703 80.5222 249.551 80.4348 249.377 80.381C249.209 80.3205 249.01 80.2735 248.782 80.2398C248.553 80.1995 248.298 80.1793 248.015 80.1793H246.644V94.379Z" fill="#930043"/>
<path d="M49.015 148.341L49.3624 128.24H53.1594L56.0134 142.162L58.9914 128.24H62.6643L63.0366 148.341H60.3067L60.0089 134.369L57.155 148.341H54.9462L52.0427 134.32L51.7697 148.341H49.015ZM71.4648 148.614C70.042 148.614 68.9087 148.35 68.0649 147.82C67.2211 147.291 66.6173 146.53 66.2533 145.537C65.8893 144.544 65.7073 143.37 65.7073 142.013V134.493C65.7073 133.137 65.8893 131.979 66.2533 131.019C66.6173 130.043 67.2211 129.298 68.0649 128.786C68.9087 128.273 70.042 128.016 71.4648 128.016C72.9208 128.016 74.0623 128.273 74.8896 128.786C75.7334 129.298 76.3372 130.043 76.7012 131.019C77.0817 131.979 77.272 133.137 77.272 134.493V142.038C77.272 143.378 77.0817 144.544 76.7012 145.537C76.3372 146.513 75.7334 147.274 74.8896 147.82C74.0623 148.35 72.9208 148.614 71.4648 148.614ZM71.4648 145.909C72.077 145.909 72.5237 145.777 72.805 145.512C73.1028 145.247 73.3013 144.883 73.4006 144.42C73.4998 143.957 73.5495 143.452 73.5495 142.906V133.65C73.5495 133.087 73.4998 132.583 73.4006 132.136C73.3013 131.689 73.1028 131.342 72.805 131.094C72.5237 130.829 72.077 130.696 71.4648 130.696C70.8858 130.696 70.4473 130.829 70.1495 131.094C69.8517 131.342 69.6532 131.689 69.5539 132.136C69.4547 132.583 69.405 133.087 69.405 133.65V142.906C69.405 143.452 69.4464 143.957 69.5291 144.42C69.6284 144.883 69.8269 145.247 70.1247 145.512C70.4225 145.777 70.8692 145.909 71.4648 145.909ZM79.9889 148.341V128.24H84.9275C85.8209 128.24 86.6233 128.322 87.3347 128.488C88.0627 128.653 88.6831 128.934 89.196 129.332C89.7254 129.712 90.1307 130.233 90.412 130.895C90.6933 131.557 90.8339 132.392 90.8339 133.402C90.8339 134.212 90.7181 134.907 90.4865 135.486C90.2714 136.065 89.9488 136.528 89.5186 136.876C89.0884 137.207 88.5507 137.43 87.9055 137.546C88.6996 137.678 89.3531 137.96 89.866 138.39C90.3955 138.803 90.7843 139.349 91.0324 140.028C91.2971 140.706 91.4295 141.525 91.4295 142.485C91.4295 143.444 91.3054 144.296 91.0572 145.041C90.8256 145.769 90.4699 146.381 89.9901 146.877C89.5269 147.357 88.9395 147.721 88.2281 147.969C87.5332 148.217 86.7143 148.341 85.7712 148.341H79.9889ZM83.6618 145.76H85.0515C86.16 145.76 86.9128 145.496 87.3099 144.966C87.707 144.42 87.9055 143.585 87.9055 142.46C87.9055 141.649 87.8062 140.995 87.6077 140.499C87.4257 139.986 87.1113 139.606 86.6646 139.358C86.2345 139.109 85.6554 138.985 84.9275 138.985H83.6618V145.76ZM83.6618 136.454H84.9026C85.6306 136.454 86.1931 136.346 86.5902 136.131C86.9873 135.916 87.2602 135.585 87.4092 135.139C87.5746 134.692 87.6573 134.129 87.6573 133.451C87.6573 132.74 87.5332 132.194 87.2851 131.813C87.0534 131.416 86.6977 131.151 86.2179 131.019C85.7381 130.87 85.126 130.796 84.3815 130.796H83.6618V136.454ZM93.9023 148.341V128.24H97.5256V148.341H93.9023ZM100.637 148.341V128.24H104.31V145.81H109.174V148.341H100.637ZM111.083 148.341V128.24H119.521V130.821H114.756V136.603H118.503V139.159H114.756V145.81H119.57V148.341H111.083ZM126.715 148.341L130.735 128.24H134.656L138.677 148.341H135.277L134.483 143.701H130.983L130.165 148.341H126.715ZM131.356 141.368H134.086L132.721 132.93L131.356 141.368ZM140.698 148.341V128.24H146.605C147.813 128.24 148.789 128.463 149.533 128.91C150.294 129.356 150.848 130.01 151.196 130.87C151.56 131.714 151.742 132.74 151.742 133.947C151.742 135.255 151.519 136.313 151.072 137.124C150.625 137.918 149.996 138.497 149.186 138.861C148.392 139.225 147.449 139.407 146.357 139.407H144.371V148.341H140.698ZM144.371 136.826H145.761C146.423 136.826 146.936 136.735 147.3 136.553C147.68 136.355 147.937 136.049 148.069 135.635C148.218 135.205 148.292 134.634 148.292 133.923C148.292 133.195 148.234 132.607 148.119 132.161C148.019 131.697 147.788 131.358 147.424 131.143C147.076 130.928 146.522 130.821 145.761 130.821H144.371V136.826ZM153.785 148.341V128.24H159.692C160.9 128.24 161.876 128.463 162.62 128.91C163.381 129.356 163.936 130.01 164.283 130.87C164.647 131.714 164.829 132.74 164.829 133.947C164.829 135.255 164.606 136.313 164.159 137.124C163.712 137.918 163.083 138.497 162.273 138.861C161.479 139.225 160.536 139.407 159.444 139.407H157.458V148.341H153.785ZM157.458 136.826H158.848C159.51 136.826 160.023 136.735 160.387 136.553C160.767 136.355 161.024 136.049 161.156 135.635C161.305 135.205 161.379 134.634 161.379 133.923C161.379 133.195 161.321 132.607 161.206 132.161C161.106 131.697 160.875 131.358 160.511 131.143C160.163 130.928 159.609 130.821 158.848 130.821H157.458V136.826ZM172.907 148.341V128.24H177.647C179.285 128.24 180.559 128.463 181.469 128.91C182.395 129.356 183.049 130.043 183.429 130.969C183.827 131.896 184.025 133.071 184.025 134.493V141.839C184.025 143.295 183.827 144.511 183.429 145.487C183.049 146.447 182.404 147.167 181.494 147.646C180.6 148.11 179.368 148.341 177.796 148.341H172.907ZM176.58 145.785H177.697C178.54 145.785 179.144 145.636 179.508 145.338C179.872 145.041 180.096 144.61 180.178 144.048C180.261 143.469 180.302 142.766 180.302 141.939V134.245C180.302 133.435 180.245 132.781 180.129 132.285C180.013 131.788 179.773 131.424 179.409 131.193C179.045 130.961 178.458 130.845 177.647 130.845H176.58V145.785ZM186.721 148.341V128.24H195.159V130.821H190.394V136.603H194.141V139.159H190.394V145.81H195.209V148.341H186.721ZM200.414 148.341L196.368 128.24H199.619L202.275 142.46L204.757 128.24H208.082L204.037 148.341H200.414ZM210.132 148.341V128.24H218.57V130.821H213.805V136.603H217.553V139.159H213.805V145.81H218.62V148.341H210.132ZM220.748 148.341V128.24H224.42V145.81H229.285V148.341H220.748ZM236.41 148.614C234.987 148.614 233.854 148.35 233.01 147.82C232.167 147.291 231.563 146.53 231.199 145.537C230.835 144.544 230.653 143.37 230.653 142.013V134.493C230.653 133.137 230.835 131.979 231.199 131.019C231.563 130.043 232.167 129.298 233.01 128.786C233.854 128.273 234.987 128.016 236.41 128.016C237.866 128.016 239.008 128.273 239.835 128.786C240.679 129.298 241.283 130.043 241.647 131.019C242.027 131.979 242.217 133.137 242.217 134.493V142.038C242.217 143.378 242.027 144.544 241.647 145.537C241.283 146.513 240.679 147.274 239.835 147.82C239.008 148.35 237.866 148.614 236.41 148.614ZM236.41 145.909C237.022 145.909 237.469 145.777 237.75 145.512C238.048 145.247 238.247 144.883 238.346 144.42C238.445 143.957 238.495 143.452 238.495 142.906V133.65C238.495 133.087 238.445 132.583 238.346 132.136C238.247 131.689 238.048 131.342 237.75 131.094C237.469 130.829 237.022 130.696 236.41 130.696C235.831 130.696 235.393 130.829 235.095 131.094C234.797 131.342 234.599 131.689 234.499 132.136C234.4 132.583 234.351 133.087 234.351 133.65V142.906C234.351 143.452 234.392 143.957 234.475 144.42C234.574 144.883 234.772 145.247 235.07 145.512C235.368 145.777 235.815 145.909 236.41 145.909ZM244.934 148.341V128.24H250.841C252.049 128.24 253.025 128.463 253.769 128.91C254.53 129.356 255.085 130.01 255.432 130.87C255.796 131.714 255.978 132.74 255.978 133.947C255.978 135.255 255.755 136.313 255.308 137.124C254.861 137.918 254.232 138.497 253.422 138.861C252.628 139.225 251.685 139.407 250.593 139.407H248.607V148.341H244.934ZM248.607 136.826H249.997C250.659 136.826 251.172 136.735 251.536 136.553C251.916 136.355 252.173 136.049 252.305 135.635C252.454 135.205 252.528 134.634 252.528 133.923C252.528 133.195 252.47 132.607 252.355 132.161C252.255 131.697 252.024 131.358 251.66 131.143C251.312 130.928 250.758 130.821 249.997 130.821H248.607V136.826ZM257.972 148.341L258.319 128.24H262.116L264.97 142.162L267.948 128.24H271.621L271.993 148.341H269.264L268.966 134.369L266.112 148.341H263.903L260.999 134.32L260.726 148.341H257.972ZM274.962 148.341V128.24H283.4V130.821H278.635V136.603H282.382V139.159H278.635V145.81H283.449V148.341H274.962ZM285.577 148.341V128.24H288.133L293.022 139.705V128.24H296.05V148.341H293.618L288.704 136.33V148.341H285.577ZM301.11 148.341V130.945H297.909V128.24H307.935V130.945H304.783V148.341H301.11ZM72.5906 185.614C71.1181 185.614 69.96 185.325 69.1162 184.746C68.289 184.167 67.7099 183.381 67.3791 182.388C67.0482 181.379 66.8827 180.221 66.8827 178.914V171.742C66.8827 170.368 67.0482 169.177 67.3791 168.168C67.7099 167.159 68.289 166.381 69.1162 165.835C69.96 165.289 71.1181 165.016 72.5906 165.016C73.9804 165.016 75.064 165.256 75.8416 165.736C76.6358 166.199 77.1983 166.869 77.5292 167.746C77.8601 168.623 78.0255 169.64 78.0255 170.799V172.486H74.5015V170.749C74.5015 170.186 74.4684 169.674 74.4023 169.21C74.3526 168.747 74.1954 168.383 73.9307 168.118C73.6826 167.837 73.2441 167.696 72.6154 167.696C71.9867 167.696 71.5235 167.845 71.2257 168.143C70.9444 168.424 70.7624 168.813 70.6797 169.31C70.597 169.789 70.5556 170.335 70.5556 170.947V179.683C70.5556 180.411 70.6135 181.015 70.7293 181.495C70.8452 181.958 71.052 182.314 71.3498 182.562C71.6641 182.793 72.086 182.909 72.6154 182.909C73.2276 182.909 73.6577 182.769 73.9059 182.487C74.1706 182.19 74.3361 181.801 74.4023 181.321C74.4684 180.841 74.5015 180.303 74.5015 179.708V177.896H78.0255V179.509C78.0255 180.701 77.8684 181.759 77.554 182.686C77.2397 183.596 76.6854 184.316 75.8913 184.845C75.1137 185.358 74.0135 185.614 72.5906 185.614ZM86.0424 185.614C84.6195 185.614 83.4862 185.35 82.6425 184.82C81.7987 184.291 81.1948 183.53 80.8308 182.537C80.4668 181.544 80.2848 180.37 80.2848 179.013V171.493C80.2848 170.137 80.4668 168.979 80.8308 168.019C81.1948 167.043 81.7987 166.298 82.6425 165.786C83.4862 165.273 84.6195 165.016 86.0424 165.016C87.4983 165.016 88.6399 165.273 89.4671 165.786C90.3109 166.298 90.9148 167.043 91.2788 168.019C91.6593 168.979 91.8495 170.137 91.8495 171.493V179.038C91.8495 180.378 91.6593 181.544 91.2788 182.537C90.9148 183.513 90.3109 184.274 89.4671 184.82C88.6399 185.35 87.4983 185.614 86.0424 185.614ZM86.0424 182.909C86.6545 182.909 87.1012 182.777 87.3825 182.512C87.6803 182.247 87.8788 181.883 87.9781 181.42C88.0774 180.957 88.127 180.452 88.127 179.906V170.65C88.127 170.087 88.0774 169.583 87.9781 169.136C87.8788 168.689 87.6803 168.342 87.3825 168.094C87.1012 167.829 86.6545 167.696 86.0424 167.696C85.4633 167.696 85.0249 167.829 84.7271 168.094C84.4293 168.342 84.2307 168.689 84.1315 169.136C84.0322 169.583 83.9826 170.087 83.9826 170.65V179.906C83.9826 180.452 84.0239 180.957 84.1067 181.42C84.2059 181.883 84.4045 182.247 84.7023 182.512C85.0001 182.777 85.4468 182.909 86.0424 182.909ZM94.5168 185.341L94.8642 165.24H98.6612L101.515 179.162L104.493 165.24H108.166L108.538 185.341H105.808L105.511 171.369L102.657 185.341H100.448L97.5445 171.32L97.2715 185.341H94.5168ZM111.507 185.341V165.24H117.413C118.621 165.24 119.597 165.463 120.342 165.91C121.103 166.356 121.657 167.01 122.004 167.87C122.368 168.714 122.55 169.74 122.55 170.947C122.55 172.255 122.327 173.313 121.88 174.124C121.434 174.918 120.805 175.497 119.994 175.861C119.2 176.225 118.257 176.407 117.165 176.407H115.18V185.341H111.507ZM115.18 173.826H116.57C117.231 173.826 117.744 173.735 118.108 173.553C118.489 173.355 118.745 173.049 118.878 172.635C119.026 172.205 119.101 171.634 119.101 170.923C119.101 170.195 119.043 169.607 118.927 169.161C118.828 168.697 118.596 168.358 118.232 168.143C117.885 167.928 117.331 167.821 116.57 167.821H115.18V173.826ZM122.51 185.341L126.53 165.24H130.452L134.472 185.341H131.072L130.278 180.701H126.779L125.96 185.341H122.51ZM127.151 178.368H129.881L128.516 169.93L127.151 178.368ZM136.493 185.341V165.24H139.05L143.939 176.705V165.24H146.966V185.341H144.534L139.62 173.33V185.341H136.493ZM150.116 185.341V165.24H153.739V185.341H150.116ZM156.851 185.341V165.24H165.289V167.821H160.524V173.603H164.271V176.159H160.524V182.81H165.339V185.341H156.851ZM172.529 185.614C171.321 185.614 170.312 185.383 169.501 184.919C168.691 184.44 168.078 183.745 167.665 182.835C167.251 181.925 167.02 180.808 166.97 179.485L170.122 178.864C170.155 179.642 170.246 180.328 170.395 180.924C170.56 181.519 170.8 181.983 171.114 182.314C171.445 182.628 171.875 182.785 172.405 182.785C173 182.785 173.422 182.611 173.67 182.264C173.919 181.9 174.043 181.445 174.043 180.899C174.043 180.022 173.844 179.303 173.447 178.74C173.05 178.177 172.521 177.615 171.859 177.052L169.327 174.819C168.616 174.207 168.045 173.528 167.615 172.784C167.202 172.023 166.995 171.088 166.995 169.98C166.995 168.391 167.458 167.167 168.384 166.307C169.311 165.446 170.577 165.016 172.181 165.016C173.124 165.016 173.91 165.165 174.539 165.463C175.168 165.744 175.664 166.141 176.028 166.654C176.409 167.167 176.69 167.754 176.872 168.416C177.054 169.061 177.17 169.748 177.219 170.476L174.092 171.022C174.059 170.393 173.985 169.831 173.869 169.334C173.77 168.838 173.579 168.449 173.298 168.168C173.033 167.887 172.636 167.746 172.107 167.746C171.561 167.746 171.139 167.928 170.841 168.292C170.56 168.639 170.419 169.078 170.419 169.607C170.419 170.286 170.56 170.848 170.841 171.295C171.123 171.725 171.528 172.172 172.057 172.635L174.564 174.844C175.391 175.539 176.094 176.358 176.673 177.301C177.269 178.227 177.567 179.352 177.567 180.676C177.567 181.635 177.352 182.487 176.921 183.232C176.508 183.976 175.921 184.564 175.159 184.994C174.415 185.407 173.538 185.614 172.529 185.614ZM185.863 185.341V165.24H189.486V185.341H185.863ZM192.598 185.341V165.24H195.154L200.043 176.705V165.24H203.071V185.341H200.639L195.725 173.33V185.341H192.598ZM217.566 185.614C216.094 185.614 214.936 185.325 214.092 184.746C213.265 184.167 212.686 183.381 212.355 182.388C212.024 181.379 211.858 180.221 211.858 178.914V171.742C211.858 170.368 212.024 169.177 212.355 168.168C212.686 167.159 213.265 166.381 214.092 165.835C214.936 165.289 216.094 165.016 217.566 165.016C218.956 165.016 220.04 165.256 220.817 165.736C221.611 166.199 222.174 166.869 222.505 167.746C222.836 168.623 223.001 169.64 223.001 170.799V172.486H219.477V170.749C219.477 170.186 219.444 169.674 219.378 169.21C219.328 168.747 219.171 168.383 218.906 168.118C218.658 167.837 218.22 167.696 217.591 167.696C216.962 167.696 216.499 167.845 216.201 168.143C215.92 168.424 215.738 168.813 215.655 169.31C215.573 169.789 215.531 170.335 215.531 170.947V179.683C215.531 180.411 215.589 181.015 215.705 181.495C215.821 181.958 216.028 182.314 216.325 182.562C216.64 182.793 217.062 182.909 217.591 182.909C218.203 182.909 218.633 182.769 218.882 182.487C219.146 182.19 219.312 181.801 219.378 181.321C219.444 180.841 219.477 180.303 219.477 179.708V177.896H223.001V179.509C223.001 180.701 222.844 181.759 222.53 182.686C222.215 183.596 221.661 184.316 220.867 184.845C220.089 185.358 218.989 185.614 217.566 185.614ZM224.541 185.341L228.561 165.24H232.482L236.503 185.341H233.103L232.308 180.701H228.809L227.99 185.341H224.541ZM229.182 178.368H231.911L230.546 169.93L229.182 178.368ZM238.524 185.341V165.24H241.08L245.969 176.705V165.24H248.997V185.341H246.565L241.651 173.33V185.341H238.524ZM251.03 185.341L255.05 165.24H258.971L262.992 185.341H259.592L258.798 180.701H255.298L254.479 185.341H251.03ZM255.671 178.368H258.401L257.036 169.93L255.671 178.368ZM265.013 185.341V165.24H269.753C271.391 165.24 272.665 165.463 273.575 165.91C274.502 166.356 275.155 167.043 275.536 167.969C275.933 168.896 276.131 170.071 276.131 171.493V178.839C276.131 180.295 275.933 181.511 275.536 182.487C275.155 183.447 274.51 184.167 273.6 184.646C272.707 185.11 271.474 185.341 269.902 185.341H265.013ZM268.686 182.785H269.803C270.647 182.785 271.251 182.636 271.615 182.338C271.979 182.041 272.202 181.61 272.285 181.048C272.367 180.469 272.409 179.766 272.409 178.939V171.245C272.409 170.435 272.351 169.781 272.235 169.285C272.119 168.788 271.879 168.424 271.515 168.193C271.151 167.961 270.564 167.845 269.753 167.845H268.686V182.785ZM277.665 185.341L281.685 165.24H285.606L289.626 185.341H286.226L285.432 180.701H281.933L281.114 185.341H277.665ZM282.305 178.368H285.035L283.67 169.93L282.305 178.368Z" fill="black"/>
<rect x="2.05469" y="216.488" width="351.935" height="44.37" fill="#930043"/>
<circle cx="178.524" cy="235.646" r="37.3111" fill="white"/>
<path d="M70.7257 224.152L75.119 233.052L84.9436 234.488L77.8347 241.412L79.5124 251.194L70.7257 246.573L61.9391 251.194L63.6168 241.412L56.5078 234.488L66.3324 233.052L70.7257 224.152Z" fill="white"/>
<path d="M111.829 224.152L116.223 233.052L126.047 234.488L118.938 241.412L120.616 251.194L111.829 246.573L103.043 251.194L104.72 241.412L97.6113 234.488L107.436 233.052L111.829 224.152Z" fill="white"/>
<path d="M179.731 214.466L187.27 229.74L204.131 232.205L191.931 244.088L194.81 260.875L179.731 252.945L164.651 260.875L167.53 244.088L155.33 232.205L172.191 229.74L179.731 214.466Z" fill="#930043"/>
<path d="M241.505 224.152L245.898 233.052L255.723 234.488L248.614 241.412L250.292 251.194L241.505 246.573L232.718 251.194L234.396 241.412L227.287 234.488L237.112 233.052L241.505 224.152Z" fill="white"/>
<path d="M282.609 224.152L287.002 233.052L296.826 234.488L289.717 241.412L291.395 251.194L282.609 246.573L273.822 251.194L275.5 241.412L268.391 234.488L278.215 233.052L282.609 224.152Z" fill="white"/>
<g clip-path="url(#clip0_929_1906)">
<path d="M186.466 290.624V295.378H181.976V284.55H180.391V295.378H175.638V284.55H174.053V301.452H169.563V290.624H167.979V307.791H169.563V303.037H180.391V313.865H181.976V296.963H186.466V307.791H188.051V290.624H186.466ZM180.391 301.452H175.638V296.963H180.391V301.452Z" fill="#930043"/>
<path d="M175.635 303.831H174.051V313.867H175.635V303.831Z" fill="#930043"/>
</g>
<path d="M135.135 321.946V331.439H133.015V327.879H126.653V331.439H124.533V321.946H126.653V325.507H133.015V321.946H135.135Z" fill="black"/>
<path d="M136.945 331.44V321.932H139.586V331.44H136.945Z" fill="black"/>
<path d="M151.73 324.318H147.491V331.438H145.371V324.318H141.129V321.945H151.73V324.318Z" fill="black"/>
<path d="M163.773 321.945V324.318H155.292V324.32H153.172V321.945H163.773ZM163.773 325.706V327.642H155.292V327.647H153.172V325.706H163.773ZM163.773 329.066V331.438H153.172V329.066H163.773Z" fill="black"/>
<path d="M176.196 325.02V326.098H174.076V325.231C174.076 324.727 173.71 324.318 173.26 324.318H165.594V321.945H173.449C173.665 321.945 173.874 321.973 174.076 322.027C175.089 322.291 175.887 323.184 176.125 324.32C176.171 324.544 176.196 324.778 176.196 325.02ZM168.53 329.066H176.196V331.438H168.341C168.243 331.438 168.148 331.433 168.055 331.42C167.939 331.408 167.825 331.385 167.714 331.357C166.701 331.092 165.903 330.2 165.665 329.063C165.646 328.979 165.633 328.895 165.621 328.811C165.603 328.664 165.592 328.514 165.592 328.361V325.605H167.712V328.15C167.714 328.656 168.08 329.066 168.53 329.066Z" fill="black"/>
<path d="M188.502 321.945V331.438H186.382V327.878H180.02V331.438H177.9V321.945H180.02V325.505H186.382V321.945H188.502Z" fill="black"/>
<path d="M206.522 321.945V331.438H204.402V327.878H198.04V331.438H195.92V321.945H198.04V325.505H204.402V321.945H206.522Z" fill="#930043"/>
<path d="M218.953 321.945V331.438H216.89V330.421L216.066 331.438H210.783C209.533 331.293 208.531 330.21 208.35 328.829V321.945H210.469V328.153C210.469 328.656 210.835 329.066 211.285 329.066H216.827L216.831 321.945H218.953Z" fill="#930043"/>
<path d="M231.453 327.918C231.48 328.089 231.494 328.264 231.494 328.442C231.494 328.651 231.476 328.854 231.44 329.05C231.206 330.324 230.247 331.303 229.065 331.423C228.986 331.43 228.904 331.435 228.82 331.435C228.736 331.435 228.656 331.43 228.574 331.423H222.985V331.435H220.865V329.053H220.868V327.921H220.865V325.569H220.868V324.282H220.865V321.932H228.82C230.106 321.932 231.183 322.95 231.437 324.305C231.476 324.506 231.494 324.712 231.494 324.925C231.494 325.139 231.474 325.345 231.437 325.546C231.36 325.965 231.201 326.352 230.985 326.685C231.217 327.044 231.38 327.463 231.453 327.918ZM229.374 324.925C229.374 324.585 229.127 324.305 228.82 324.305H227.25V324.282H222.987V325.569H227.25V325.546H228.82C228.92 325.546 229.011 325.518 229.092 325.467C229.261 325.36 229.374 325.157 229.374 324.925ZM229.374 328.445C229.374 328.224 229.27 328.03 229.115 327.921H222.99V329.053H228.933C229.183 328.994 229.374 328.742 229.374 328.445Z" fill="#930043"/>
<defs>
<clipPath id="clip0_929_1906">
<rect width="20.072" height="29.3157" fill="white" transform="translate(167.979 284.549)"/>
</clipPath>
</defs>
</svg>
