<svg width="355" height="401" viewBox="0 0 355 401" fill="none" xmlns="http://www.w3.org/2000/svg">
<path d="M16.3708 82.4206L162.366 5.66463C171.637 0.778456 183.067 0.778456 192.338 5.66463L338.334 82.4206C347.605 87.3068 353.32 96.3116 353.32 106.065V295.072C353.32 304.826 347.605 313.831 338.334 318.717L192.338 395.473C183.067 400.359 171.637 400.359 162.366 395.473L16.3708 318.717C7.0996 313.831 1.38477 304.826 1.38477 295.072V106.065C1.38477 96.2929 7.0996 87.2881 16.3708 82.4206Z" fill="white" stroke="#930043" stroke-width="2.23497" stroke-miterlimit="10"/>
<path d="M329.872 286.548C329.872 294.069 325.427 301.085 318.246 304.846L187.375 373.546C180.194 377.307 171.284 377.307 164.144 373.546L33.2318 304.846C26.0503 301.085 21.6057 294.069 21.6057 286.548V269.89H14.3008V286.548C14.3008 296.427 20.1447 305.632 29.569 310.571L160.481 379.29C165.172 381.759 170.461 382.994 175.749 382.994C181.017 382.994 186.285 381.759 190.997 379.29L321.909 310.571C331.333 305.632 337.177 296.427 337.177 286.548V269.89H329.893V286.548H329.872ZM321.909 90.5561L190.997 21.8558C181.593 16.8979 169.885 16.9166 160.481 21.8558L29.5896 90.5561C20.1653 95.514 14.3214 104.719 14.3214 114.597V208.237H21.6262V114.597C21.6262 107.076 26.0709 100.06 33.2523 96.2998L164.102 27.5995C171.284 23.839 180.194 23.839 187.334 27.5995L318.246 96.2998C325.427 100.06 329.872 107.076 329.872 114.597V208.237H337.156V114.597C337.177 104.719 331.333 95.514 321.909 90.5561Z" fill="#930043"/>
<path d="M103.491 96.3152V78.2429H107.061L109.622 92.0795L112.184 78.2429H115.754V96.3152H113.172V82.055L110.591 96.3152H108.654L106.072 82.055V96.3152H103.491ZM124.647 96.4968C123.74 96.4968 122.96 96.3589 122.308 96.0833C121.662 95.8076 121.148 95.4042 120.765 94.8731C120.382 94.3419 120.103 93.72 119.928 93.0074C119.753 92.288 119.665 91.4543 119.665 90.5063V83.951C119.665 83.003 119.753 82.176 119.928 81.4701C120.103 80.7641 120.382 80.1523 120.765 79.6346C121.148 79.1102 121.662 78.7169 122.308 78.4547C122.96 78.1925 123.74 78.0614 124.647 78.0614C126.409 78.0614 127.68 78.5656 128.46 79.5741C129.24 80.5826 129.629 82.0416 129.629 83.951V90.5063C129.629 91.4408 129.539 92.2678 129.357 92.9872C129.182 93.6999 128.903 94.3251 128.52 94.863C128.137 95.3941 127.619 95.8009 126.967 96.0833C126.322 96.3589 125.548 96.4968 124.647 96.4968ZM122.762 93.562C123.111 94.1066 123.74 94.3789 124.647 94.3789C125.555 94.3789 126.18 94.1066 126.523 93.562C126.873 93.0174 127.048 92.214 127.048 91.1517V83.3056C127.048 82.2567 126.876 81.4735 126.533 80.9558C126.19 80.4381 125.562 80.1792 124.647 80.1792C123.733 80.1792 123.104 80.4381 122.762 80.9558C122.419 81.4735 122.247 82.2567 122.247 83.3056V91.1517C122.247 92.214 122.419 93.0174 122.762 93.562ZM138.251 96.4968C136.624 96.4968 135.38 96.0194 134.519 95.0647C133.665 94.11 133.188 92.8057 133.087 91.1517L135.669 90.5063C135.797 93.088 136.657 94.3789 138.251 94.3789C139.541 94.3789 140.187 93.7335 140.187 92.4426C140.187 92.0594 140.133 91.7064 140.026 91.3837C139.925 91.0542 139.767 90.755 139.552 90.4861C139.336 90.2104 139.141 89.9919 138.967 89.8306C138.792 89.6625 138.553 89.4574 138.251 89.2154L135.023 86.6336C134.432 86.1697 133.958 85.5814 133.601 84.8687C133.252 84.1493 133.077 83.3325 133.077 82.4181C133.077 81.0869 133.49 80.0279 134.317 79.2413C135.144 78.4547 136.24 78.0614 137.605 78.0614C139.071 78.0614 140.234 78.4211 141.095 79.1405C141.962 79.8531 142.496 80.865 142.698 82.176C142.718 82.3172 142.742 82.5122 142.769 82.761L140.187 83.4064C140.18 83.2921 140.163 83.1207 140.136 82.8921C140.022 82.0718 139.763 81.4163 139.36 80.9255C138.963 80.428 138.378 80.1792 137.605 80.1792C136.987 80.1792 136.509 80.354 136.173 80.7036C135.837 81.0465 135.669 81.5272 135.669 82.1458C135.669 83.161 136.099 84.0115 136.96 84.6973L140.187 87.2791C141.908 88.6708 142.769 90.3348 142.769 92.2712C142.769 93.5957 142.359 94.631 141.538 95.3773C140.725 96.1236 139.629 96.4968 138.251 96.4968ZM148.233 96.3152V80.5423H145.006V78.2429H154.042V80.5423H150.815V96.3152H148.233ZM165.405 85.9882H166.05C167.126 85.9882 167.933 85.763 168.471 85.3125C169.008 84.8553 169.277 84.1124 169.277 83.0837C169.277 82.055 169.008 81.3155 168.471 80.865C167.933 80.4078 167.126 80.1792 166.05 80.1792H165.405V85.9882ZM162.823 96.3152V78.2429H166.05C167.973 78.2429 169.422 78.616 170.397 79.3623C171.372 80.1086 171.859 81.3491 171.859 83.0837C171.859 84.1594 171.667 85.0604 171.284 85.7865C170.901 86.5126 170.34 87.0101 169.6 87.2791L172.505 96.3152H169.943L167.341 87.9245H165.405V96.3152H162.823ZM175.649 96.3152V78.2429H182.749V80.1792H178.231V85.9882H181.458V87.9245H178.231V94.3789H182.749V96.3152H175.649ZM188.698 96.3152L184.825 78.2429H187.407L189.313 87.9245L189.979 92.4426L190.664 87.9245L192.571 78.2429H195.152L191.28 96.3152H188.698ZM198.338 96.3152V78.2429H200.919V96.3152H198.338ZM205.335 96.3152V78.2429H212.435V80.1792H207.917V85.9882H211.144V87.9245H207.917V94.3789H212.435V96.3152H205.335ZM217.728 96.3152L214.501 78.2429H217.082L218.373 86.6336L219.029 91.7972L219.664 86.6336L220.955 78.2429H223.537L224.828 86.6336L225.463 91.7972L226.119 86.6336L227.409 78.2429H229.991L226.764 96.3152H224.182L222.891 87.9245L222.246 82.761L221.6 87.9245L220.31 96.3152H217.728ZM233.045 96.3152V78.2429H240.145V80.1792H235.627V85.9882H238.854V87.9245H235.627V94.3789H240.145V96.3152H233.045ZM243.391 96.3152V78.2429H247.395C249.284 78.2429 250.615 78.6295 251.388 79.4027C252.168 80.1758 252.558 81.5104 252.558 83.4064V90.5063C252.558 92.4897 252.162 93.9554 251.368 94.9033C250.582 95.8446 249.25 96.3152 247.375 96.3152H243.391ZM245.973 94.3789H247.395C247.818 94.3789 248.181 94.3419 248.484 94.268C248.786 94.1873 249.032 94.0461 249.22 93.8444C249.408 93.636 249.556 93.441 249.664 93.2595C249.771 93.0712 249.845 92.7821 249.886 92.3922C249.933 92.0022 249.96 91.6829 249.966 91.4341C249.973 91.1786 249.976 90.7853 249.976 90.2541C249.976 90.0793 249.976 89.9482 249.976 89.8608V84.0519C249.976 83.7224 249.973 83.4602 249.966 83.2652C249.966 83.0702 249.956 82.8417 249.936 82.5794C249.923 82.3105 249.899 82.0987 249.866 81.9441C249.832 81.7895 249.785 81.618 249.724 81.4298C249.664 81.2348 249.587 81.0835 249.492 80.9759C249.405 80.8684 249.294 80.7574 249.16 80.6431C249.032 80.5221 248.881 80.4347 248.706 80.3809C248.538 80.3204 248.339 80.2733 248.111 80.2397C247.882 80.1994 247.627 80.1792 247.344 80.1792H245.973V94.3789Z" fill="#930043"/>
<path d="M48.3451 148.341L48.6925 128.24H52.4895L55.3435 142.162L58.3215 128.24H61.9944L62.3667 148.341H59.6368L59.339 134.369L56.485 148.341H54.2763L51.3727 134.32L51.0998 148.341H48.3451ZM70.7949 148.614C69.3721 148.614 68.2388 148.35 67.395 147.82C66.5512 147.291 65.9473 146.53 65.5834 145.537C65.2194 144.544 65.0374 143.37 65.0374 142.013V134.493C65.0374 133.137 65.2194 131.979 65.5834 131.019C65.9473 130.043 66.5512 129.298 67.395 128.786C68.2388 128.273 69.3721 128.016 70.7949 128.016C72.2508 128.016 73.3924 128.273 74.2197 128.786C75.0634 129.298 75.6673 130.043 76.0313 131.019C76.4118 131.979 76.6021 133.137 76.6021 134.493V142.038C76.6021 143.378 76.4118 144.544 76.0313 145.537C75.6673 146.513 75.0634 147.274 74.2197 147.82C73.3924 148.35 72.2508 148.614 70.7949 148.614ZM70.7949 145.909C71.4071 145.909 71.8538 145.777 72.135 145.512C72.4328 145.247 72.6314 144.883 72.7306 144.42C72.8299 143.957 72.8795 143.452 72.8795 142.906V133.65C72.8795 133.087 72.8299 132.583 72.7306 132.136C72.6314 131.689 72.4328 131.342 72.135 131.094C71.8538 130.829 71.4071 130.696 70.7949 130.696C70.2159 130.696 69.7774 130.829 69.4796 131.094C69.1818 131.342 68.9833 131.689 68.884 132.136C68.7847 132.583 68.7351 133.087 68.7351 133.65V142.906C68.7351 143.452 68.7765 143.957 68.8592 144.42C68.9585 144.883 69.157 145.247 69.4548 145.512C69.7526 145.777 70.1993 145.909 70.7949 145.909ZM79.319 148.341V128.24H84.2575C85.1509 128.24 85.9534 128.322 86.6648 128.488C87.3927 128.653 88.0132 128.934 88.5261 129.332C89.0555 129.712 89.4608 130.233 89.7421 130.895C90.0233 131.557 90.164 132.392 90.164 133.402C90.164 134.212 90.0482 134.907 89.8165 135.486C89.6015 136.065 89.2788 136.528 88.8487 136.876C88.4185 137.207 87.8808 137.43 87.2356 137.546C88.0297 137.678 88.6832 137.96 89.1961 138.39C89.7255 138.803 90.1143 139.349 90.3625 140.028C90.6272 140.706 90.7596 141.525 90.7596 142.485C90.7596 143.444 90.6355 144.296 90.3873 145.041C90.1557 145.769 89.8 146.381 89.3202 146.877C88.8569 147.357 88.2696 147.721 87.5582 147.969C86.8633 148.217 86.0444 148.341 85.1013 148.341H79.319ZM82.9919 145.76H84.3816C85.4901 145.76 86.2429 145.496 86.64 144.966C87.037 144.42 87.2356 143.585 87.2356 142.46C87.2356 141.649 87.1363 140.995 86.9378 140.499C86.7558 139.986 86.4414 139.606 85.9947 139.358C85.5646 139.109 84.9855 138.985 84.2575 138.985H82.9919V145.76ZM82.9919 136.454H84.2327C84.9607 136.454 85.5232 136.346 85.9203 136.131C86.3173 135.916 86.5903 135.585 86.7392 135.139C86.9047 134.692 86.9874 134.129 86.9874 133.451C86.9874 132.74 86.8633 132.194 86.6151 131.813C86.3835 131.416 86.0278 131.151 85.548 131.019C85.0682 130.87 84.4561 130.796 83.7116 130.796H82.9919V136.454ZM93.2324 148.341V128.24H96.8556V148.341H93.2324ZM99.9674 148.341V128.24H103.64V145.81H108.504V148.341H99.9674ZM110.413 148.341V128.24H118.851V130.821H114.086V136.603H117.833V139.159H114.086V145.81H118.9V148.341H110.413ZM126.045 148.341L130.065 128.24H133.986L138.007 148.341H134.607L133.813 143.701H130.314L129.495 148.341H126.045ZM130.686 141.368H133.416L132.051 132.93L130.686 141.368ZM140.028 148.341V128.24H145.935C147.143 128.24 148.119 128.463 148.863 128.91C149.624 129.356 150.179 130.01 150.526 130.87C150.89 131.714 151.072 132.74 151.072 133.947C151.072 135.255 150.849 136.313 150.402 137.124C149.955 137.918 149.326 138.497 148.516 138.861C147.722 139.225 146.779 139.407 145.687 139.407H143.701V148.341H140.028ZM143.701 136.826H145.091C145.753 136.826 146.266 136.735 146.63 136.553C147.01 136.355 147.267 136.049 147.399 135.635C147.548 135.205 147.622 134.634 147.622 133.923C147.622 133.195 147.564 132.607 147.449 132.161C147.349 131.697 147.118 131.358 146.754 131.143C146.406 130.928 145.852 130.821 145.091 130.821H143.701V136.826ZM153.115 148.341V128.24H159.022C160.23 128.24 161.206 128.463 161.95 128.91C162.711 129.356 163.266 130.01 163.613 130.87C163.977 131.714 164.159 132.74 164.159 133.947C164.159 135.255 163.936 136.313 163.489 137.124C163.042 137.918 162.414 138.497 161.603 138.861C160.809 139.225 159.866 139.407 158.774 139.407H156.788V148.341H153.115ZM156.788 136.826H158.178C158.84 136.826 159.353 136.735 159.717 136.553C160.097 136.355 160.354 136.049 160.486 135.635C160.635 135.205 160.709 134.634 160.709 133.923C160.709 133.195 160.652 132.607 160.536 132.161C160.436 131.697 160.205 131.358 159.841 131.143C159.493 130.928 158.939 130.821 158.178 130.821H156.788V136.826ZM172.237 148.341V128.24H176.977C178.615 128.24 179.889 128.463 180.799 128.91C181.725 129.356 182.379 130.043 182.76 130.969C183.157 131.896 183.355 133.071 183.355 134.493V141.839C183.355 143.295 183.157 144.511 182.76 145.487C182.379 146.447 181.734 147.167 180.824 147.646C179.93 148.11 178.698 148.341 177.126 148.341H172.237ZM175.91 145.785H177.027C177.871 145.785 178.474 145.636 178.838 145.338C179.202 145.041 179.426 144.61 179.508 144.048C179.591 143.469 179.633 142.766 179.633 141.939V134.245C179.633 133.435 179.575 132.781 179.459 132.285C179.343 131.788 179.103 131.424 178.739 131.193C178.375 130.961 177.788 130.845 176.977 130.845H175.91V145.785ZM186.051 148.341V128.24H194.489V130.821H189.724V136.603H193.472V139.159H189.724V145.81H194.539V148.341H186.051ZM199.744 148.341L195.698 128.24H198.949L201.605 142.46L204.087 128.24H207.412L203.367 148.341H199.744ZM209.463 148.341V128.24H217.9V130.821H213.135V136.603H216.883V139.159H213.135V145.81H217.95V148.341H209.463ZM220.078 148.341V128.24H223.751V145.81H228.615V148.341H220.078ZM235.74 148.614C234.318 148.614 233.184 148.35 232.34 147.82C231.497 147.291 230.893 146.53 230.529 145.537C230.165 144.544 229.983 143.37 229.983 142.013V134.493C229.983 133.137 230.165 131.979 230.529 131.019C230.893 130.043 231.497 129.298 232.34 128.786C233.184 128.273 234.318 128.016 235.74 128.016C237.196 128.016 238.338 128.273 239.165 128.786C240.009 129.298 240.613 130.043 240.977 131.019C241.357 131.979 241.548 133.137 241.548 134.493V142.038C241.548 143.378 241.357 144.544 240.977 145.537C240.613 146.513 240.009 147.274 239.165 147.82C238.338 148.35 237.196 148.614 235.74 148.614ZM235.74 145.909C236.353 145.909 236.799 145.777 237.081 145.512C237.378 145.247 237.577 144.883 237.676 144.42C237.775 143.957 237.825 143.452 237.825 142.906V133.65C237.825 133.087 237.775 132.583 237.676 132.136C237.577 131.689 237.378 131.342 237.081 131.094C236.799 130.829 236.353 130.696 235.74 130.696C235.161 130.696 234.723 130.829 234.425 131.094C234.127 131.342 233.929 131.689 233.83 132.136C233.73 132.583 233.681 133.087 233.681 133.65V142.906C233.681 143.452 233.722 143.957 233.805 144.42C233.904 144.883 234.102 145.247 234.4 145.512C234.698 145.777 235.145 145.909 235.74 145.909ZM244.264 148.341V128.24H250.171C251.379 128.24 252.355 128.463 253.099 128.91C253.86 129.356 254.415 130.01 254.762 130.87C255.126 131.714 255.308 132.74 255.308 133.947C255.308 135.255 255.085 136.313 254.638 137.124C254.191 137.918 253.563 138.497 252.752 138.861C251.958 139.225 251.015 139.407 249.923 139.407H247.937V148.341H244.264ZM247.937 136.826H249.327C249.989 136.826 250.502 136.735 250.866 136.553C251.246 136.355 251.503 136.049 251.635 135.635C251.784 135.205 251.858 134.634 251.858 133.923C251.858 133.195 251.801 132.607 251.685 132.161C251.585 131.697 251.354 131.358 250.99 131.143C250.642 130.928 250.088 130.821 249.327 130.821H247.937V136.826ZM257.302 148.341L257.649 128.24H261.446L264.3 142.162L267.278 128.24H270.951L271.323 148.341H268.594L268.296 134.369L265.442 148.341H263.233L260.33 134.32L260.057 148.341H257.302ZM274.292 148.341V128.24H282.73V130.821H277.965V136.603H281.712V139.159H277.965V145.81H282.779V148.341H274.292ZM284.907 148.341V128.24H287.463L292.352 139.705V128.24H295.38V148.341H292.948L288.034 136.33V148.341H284.907ZM300.441 148.341V130.945H297.239V128.24H307.265V130.945H304.113V148.341H300.441ZM92.0724 185.614C90.5999 185.614 89.4418 185.325 88.598 184.746C87.7707 184.167 87.1917 183.381 86.8608 182.388C86.5299 181.379 86.3645 180.221 86.3645 178.914V171.742C86.3645 170.368 86.5299 169.177 86.8608 168.168C87.1917 167.159 87.7707 166.381 88.598 165.835C89.4418 165.289 90.5999 165.016 92.0724 165.016C93.4621 165.016 94.5458 165.256 95.3234 165.736C96.1175 166.199 96.68 166.869 97.0109 167.746C97.3418 168.623 97.5073 169.64 97.5073 170.799V172.486H93.9833V170.749C93.9833 170.186 93.9502 169.674 93.884 169.21C93.8344 168.747 93.6772 168.383 93.4125 168.118C93.1643 167.837 92.7259 167.696 92.0972 167.696C91.4685 167.696 91.0052 167.845 90.7074 168.143C90.4262 168.424 90.2442 168.813 90.1614 169.31C90.0787 169.789 90.0374 170.335 90.0374 170.947V179.683C90.0374 180.411 90.0953 181.015 90.2111 181.495C90.3269 181.958 90.5337 182.314 90.8315 182.562C91.1459 182.793 91.5677 182.909 92.0972 182.909C92.7093 182.909 93.1395 182.769 93.3877 182.487C93.6524 182.19 93.8178 181.801 93.884 181.321C93.9502 180.841 93.9833 180.303 93.9833 179.708V177.896H97.5073V179.509C97.5073 180.701 97.3501 181.759 97.0357 182.686C96.7214 183.596 96.1672 184.316 95.373 184.845C94.5954 185.358 93.4952 185.614 92.0724 185.614ZM105.524 185.614C104.101 185.614 102.968 185.35 102.124 184.82C101.28 184.291 100.677 183.53 100.313 182.537C99.9486 181.544 99.7666 180.37 99.7666 179.013V171.493C99.7666 170.137 99.9486 168.979 100.313 168.019C100.677 167.043 101.28 166.298 102.124 165.786C102.968 165.273 104.101 165.016 105.524 165.016C106.98 165.016 108.122 165.273 108.949 165.786C109.793 166.298 110.397 167.043 110.76 168.019C111.141 168.979 111.331 170.137 111.331 171.493V179.038C111.331 180.378 111.141 181.544 110.76 182.537C110.397 183.513 109.793 184.274 108.949 184.82C108.122 185.35 106.98 185.614 105.524 185.614ZM105.524 182.909C106.136 182.909 106.583 182.777 106.864 182.512C107.162 182.247 107.361 181.883 107.46 181.42C107.559 180.957 107.609 180.452 107.609 179.906V170.65C107.609 170.087 107.559 169.583 107.46 169.136C107.361 168.689 107.162 168.342 106.864 168.094C106.583 167.829 106.136 167.696 105.524 167.696C104.945 167.696 104.507 167.829 104.209 168.094C103.911 168.342 103.712 168.689 103.613 169.136C103.514 169.583 103.464 170.087 103.464 170.65V179.906C103.464 180.452 103.506 180.957 103.588 181.42C103.688 181.883 103.886 182.247 104.184 182.512C104.482 182.777 104.929 182.909 105.524 182.909ZM113.999 185.341L114.346 165.24H118.143L120.997 179.162L123.975 165.24H127.648L128.02 185.341H125.29L124.992 171.369L122.138 185.341H119.93L117.026 171.32L116.753 185.341H113.999ZM130.989 185.341V165.24H136.895C138.103 165.24 139.079 165.463 139.823 165.91C140.585 166.356 141.139 167.01 141.486 167.87C141.85 168.714 142.032 169.74 142.032 170.947C142.032 172.255 141.809 173.313 141.362 174.124C140.915 174.918 140.287 175.497 139.476 175.861C138.682 176.225 137.739 176.407 136.647 176.407H134.662V185.341H130.989ZM134.662 173.826H136.051C136.713 173.826 137.226 173.735 137.59 173.553C137.97 173.355 138.227 173.049 138.359 172.635C138.508 172.205 138.583 171.634 138.583 170.923C138.583 170.195 138.525 169.607 138.409 169.161C138.31 168.697 138.078 168.358 137.714 168.143C137.367 167.928 136.812 167.821 136.051 167.821H134.662V173.826ZM141.992 185.341L146.012 165.24H149.933L153.954 185.341H150.554L149.76 180.701H146.26L145.441 185.341H141.992ZM146.633 178.368H149.362L147.998 169.93L146.633 178.368ZM155.975 185.341V165.24H158.531L163.42 176.705V165.24H166.448V185.341H164.016L159.102 173.33V185.341H155.975ZM169.598 185.341V165.24H173.221V185.341H169.598ZM176.333 185.341V165.24H184.771V167.821H180.006V173.603H183.753V176.159H180.006V182.81H184.82V185.341H176.333ZM192.011 185.614C190.803 185.614 189.794 185.383 188.983 184.919C188.172 184.44 187.56 183.745 187.146 182.835C186.733 181.925 186.501 180.808 186.452 179.485L189.603 178.864C189.636 179.642 189.727 180.328 189.876 180.924C190.042 181.519 190.282 181.983 190.596 182.314C190.927 182.628 191.357 182.785 191.887 182.785C192.482 182.785 192.904 182.611 193.152 182.264C193.4 181.9 193.524 181.445 193.524 180.899C193.524 180.022 193.326 179.303 192.929 178.74C192.532 178.177 192.002 177.615 191.341 177.052L188.809 174.819C188.098 174.207 187.527 173.528 187.097 172.784C186.683 172.023 186.476 171.088 186.476 169.98C186.476 168.391 186.94 167.167 187.866 166.307C188.793 165.446 190.058 165.016 191.663 165.016C192.606 165.016 193.392 165.165 194.021 165.463C194.649 165.744 195.146 166.141 195.51 166.654C195.89 167.167 196.172 167.754 196.354 168.416C196.536 169.061 196.651 169.748 196.701 170.476L193.574 171.022C193.541 170.393 193.467 169.831 193.351 169.334C193.251 168.838 193.061 168.449 192.78 168.168C192.515 167.887 192.118 167.746 191.589 167.746C191.043 167.746 190.621 167.928 190.323 168.292C190.042 168.639 189.901 169.078 189.901 169.607C189.901 170.286 190.042 170.848 190.323 171.295C190.604 171.725 191.01 172.172 191.539 172.635L194.046 174.844C194.873 175.539 195.576 176.358 196.155 177.301C196.751 178.227 197.048 179.352 197.048 180.676C197.048 181.635 196.833 182.487 196.403 183.232C195.99 183.976 195.402 184.564 194.641 184.994C193.897 185.407 193.02 185.614 192.011 185.614ZM205.345 185.341V165.24H208.968V185.341H205.345ZM212.08 185.341V165.24H214.636L219.525 176.705V165.24H222.553V185.341H220.121L215.207 173.33V185.341H212.08ZM237.147 185.614C235.658 185.614 234.5 185.341 233.673 184.795C232.846 184.249 232.275 183.472 231.96 182.463C231.646 181.453 231.489 180.246 231.489 178.839V165.24H235.063V179.261C235.063 179.89 235.104 180.485 235.187 181.048C235.269 181.594 235.46 182.041 235.757 182.388C236.072 182.719 236.535 182.884 237.147 182.884C237.792 182.884 238.256 182.719 238.537 182.388C238.835 182.041 239.025 181.594 239.108 181.048C239.207 180.485 239.257 179.89 239.257 179.261V165.24H242.805V178.839C242.805 180.246 242.648 181.453 242.334 182.463C242.02 183.472 241.449 184.249 240.622 184.795C239.811 185.341 238.653 185.614 237.147 185.614ZM250.757 185.614C249.549 185.614 248.54 185.383 247.729 184.919C246.919 184.44 246.306 183.745 245.893 182.835C245.479 181.925 245.248 180.808 245.198 179.485L248.35 178.864C248.383 179.642 248.474 180.328 248.623 180.924C248.788 181.519 249.028 181.983 249.342 182.314C249.673 182.628 250.103 182.785 250.633 182.785C251.229 182.785 251.65 182.611 251.899 182.264C252.147 181.9 252.271 181.445 252.271 180.899C252.271 180.022 252.072 179.303 251.675 178.74C251.278 178.177 250.749 177.615 250.087 177.052L247.556 174.819C246.844 174.207 246.273 173.528 245.843 172.784C245.43 172.023 245.223 171.088 245.223 169.98C245.223 168.391 245.686 167.167 246.613 166.307C247.539 165.446 248.805 165.016 250.41 165.016C251.353 165.016 252.138 165.165 252.767 165.463C253.396 165.744 253.892 166.141 254.256 166.654C254.637 167.167 254.918 167.754 255.1 168.416C255.282 169.061 255.398 169.748 255.447 170.476L252.32 171.022C252.287 170.393 252.213 169.831 252.097 169.334C251.998 168.838 251.808 168.449 251.526 168.168C251.262 167.887 250.865 167.746 250.335 167.746C249.789 167.746 249.367 167.928 249.069 168.292C248.788 168.639 248.648 169.078 248.648 169.607C248.648 170.286 248.788 170.848 249.069 171.295C249.351 171.725 249.756 172.172 250.285 172.635L252.792 174.844C253.619 175.539 254.322 176.358 254.901 177.301C255.497 178.227 255.795 179.352 255.795 180.676C255.795 181.635 255.58 182.487 255.15 183.232C254.736 183.976 254.149 184.564 253.388 184.994C252.643 185.407 251.766 185.614 250.757 185.614ZM256.843 185.341L260.863 165.24H264.784L268.805 185.341H265.405L264.611 180.701H261.111L260.293 185.341H256.843ZM261.484 178.368H264.214L262.849 169.93L261.484 178.368Z" fill="black"/>
<rect x="1.38477" y="216.488" width="351.935" height="44.37" fill="#930043"/>
<circle cx="177.856" cy="235.646" r="37.3111" fill="white"/>
<path d="M70.0568 224.152L74.4501 233.052L84.2747 234.488L77.1657 241.412L78.8434 251.194L70.0568 246.573L61.2701 251.194L62.9478 241.412L55.8389 234.488L65.6634 233.052L70.0568 224.152Z" fill="white"/>
<path d="M111.161 224.152L115.555 233.052L125.379 234.488L118.27 241.412L119.948 251.194L111.161 246.573L102.375 251.194L104.052 241.412L96.9434 234.488L106.768 233.052L111.161 224.152Z" fill="white"/>
<path d="M179.063 214.465L186.602 229.74L203.463 232.204L191.263 244.087L194.142 260.875L179.063 252.944L163.983 260.875L166.862 244.087L154.662 232.204L171.523 229.74L179.063 214.465Z" fill="#930043"/>
<path d="M240.836 224.152L245.229 233.052L255.054 234.488L247.945 241.412L249.623 251.194L240.836 246.573L232.049 251.194L233.727 241.412L226.618 234.488L236.443 233.052L240.836 224.152Z" fill="white"/>
<path d="M281.94 224.152L286.333 233.052L296.157 234.488L289.049 241.412L290.726 251.194L281.94 246.573L273.153 251.194L274.831 241.412L267.722 234.488L277.546 233.052L281.94 224.152Z" fill="white"/>
<g clip-path="url(#clip0_929_2104)">
<path d="M185.798 290.623V295.377H181.308V284.549H179.723V295.377H174.97V284.549H173.385V301.451H168.895V290.623H167.311V307.79H168.895V303.036H179.723V313.864H181.308V296.962H185.798V307.79H187.383V290.623H185.798ZM179.723 301.451H174.97V296.962H179.723V301.451Z" fill="#930043"/>
<path d="M174.968 303.831H173.384V313.867H174.968V303.831Z" fill="#930043"/>
</g>
<path d="M134.466 321.946V331.439H132.346V327.879H125.984V331.439H123.864V321.946H125.984V325.506H132.346V321.946H134.466Z" fill="black"/>
<path d="M136.275 331.44V321.932H138.916V331.44H136.275Z" fill="black"/>
<path d="M151.062 324.317H146.822V331.438H144.702V324.317H140.46V321.945H151.062V324.317Z" fill="black"/>
<path d="M163.105 321.945V324.317H154.623V324.32H152.503V321.945H163.105ZM163.105 325.706V327.641H154.623V327.646H152.503V325.706H163.105ZM163.105 329.065V331.438H152.503V329.065H163.105Z" fill="black"/>
<path d="M175.526 325.019V326.097H173.406V325.23C173.406 324.727 173.04 324.317 172.59 324.317H164.924V321.945H172.779C172.995 321.945 173.204 321.973 173.406 322.026C174.419 322.291 175.217 323.183 175.455 324.32C175.501 324.544 175.526 324.778 175.526 325.019ZM167.86 329.065H175.526V331.438H167.671C167.573 331.438 167.478 331.432 167.385 331.42C167.269 331.407 167.155 331.384 167.044 331.356C166.031 331.092 165.233 330.199 164.995 329.062C164.976 328.978 164.963 328.895 164.951 328.811C164.933 328.663 164.922 328.513 164.922 328.361V325.604H167.042V328.149C167.044 328.656 167.41 329.065 167.86 329.065Z" fill="black"/>
<path d="M187.832 321.945V331.438H185.712V327.877H179.35V331.438H177.23V321.945H179.35V325.505H185.712V321.945H187.832Z" fill="black"/>
<path d="M205.853 321.945V331.438H203.733V327.877H197.371V331.438H195.251V321.945H197.371V325.505H203.733V321.945H205.853Z" fill="#930043"/>
<path d="M218.286 321.945V331.438H216.222V330.42L215.398 331.438H210.115C208.865 331.293 207.863 330.209 207.682 328.828V321.945H209.802V328.152C209.802 328.656 210.167 329.065 210.617 329.065H216.159L216.163 321.945H218.286Z" fill="#930043"/>
<path d="M230.785 327.918C230.812 328.088 230.826 328.264 230.826 328.442C230.826 328.65 230.808 328.854 230.772 329.049C230.538 330.323 229.579 331.302 228.397 331.422C228.318 331.43 228.236 331.435 228.152 331.435C228.068 331.435 227.988 331.43 227.906 331.422H222.317V331.435H220.197V329.052H220.2V327.92H220.197V325.568H220.2V324.281H220.197V321.932H228.152C229.438 321.932 230.515 322.949 230.769 324.304C230.808 324.505 230.826 324.711 230.826 324.925C230.826 325.138 230.806 325.344 230.769 325.545C230.692 325.965 230.533 326.351 230.317 326.684C230.549 327.043 230.713 327.463 230.785 327.918ZM228.706 324.925C228.706 324.584 228.459 324.304 228.152 324.304H226.582V324.281H222.319V325.568H226.582V325.545H228.152C228.252 325.545 228.343 325.517 228.425 325.466C228.593 325.36 228.706 325.156 228.706 324.925ZM228.706 328.444C228.706 328.223 228.602 328.03 228.447 327.92H222.322V329.052H228.265C228.515 328.993 228.706 328.742 228.706 328.444Z" fill="#930043"/>
<defs>
<clipPath id="clip0_929_2104">
<rect width="20.072" height="29.3157" fill="white" transform="translate(167.31 284.549)"/>
</clipPath>
</defs>
</svg>
