<svg width="356" height="400" viewBox="0 0 356 400" fill="none" xmlns="http://www.w3.org/2000/svg">
<path d="M16.986 81.782L162.981 5.02596C172.253 0.139784 183.682 0.139784 192.953 5.02596L338.949 81.782C348.22 86.6681 353.935 95.6729 353.935 105.427V294.434C353.935 304.187 348.22 313.192 338.949 318.078L192.953 394.834C183.682 399.72 172.253 399.72 162.981 394.834L16.986 318.078C7.71483 313.192 2 304.187 2 294.434V105.427C2 95.6542 7.71483 86.6494 16.986 81.782Z" fill="white" stroke="#930043" stroke-width="2.23497" stroke-miterlimit="10"/>
<path d="M330.485 285.909C330.485 293.431 326.041 300.447 318.859 304.207L187.988 372.907C180.807 376.668 171.897 376.668 164.757 372.907L33.845 304.207C26.6636 300.447 22.219 293.431 22.219 285.909V269.252H14.9141V285.909C14.9141 295.788 20.758 304.993 30.1823 309.932L161.094 378.651C165.786 381.121 171.074 382.356 176.362 382.356C181.63 382.356 186.898 381.121 191.61 378.651L322.522 309.932C331.946 304.993 337.79 295.788 337.79 285.909V269.252H330.506V285.909H330.485ZM322.522 89.9173L191.61 21.2171C182.206 16.2591 170.498 16.2778 161.094 21.2171L30.2029 89.9173C20.7785 94.8753 14.9346 104.08 14.9346 113.959V207.598H22.2395V113.959C22.2395 106.438 26.6842 99.4216 33.8656 95.6611L164.716 26.9608C171.897 23.2002 180.807 23.2002 187.947 26.9608L318.859 95.6611C326.041 99.4216 330.485 106.438 330.485 113.959V207.598H337.77V113.959C337.79 104.08 331.946 94.8753 322.522 89.9173Z" fill="#930043"/>
<path d="M104.107 95.6765V77.6042H107.677L110.239 91.4408L112.8 77.6042H116.37V95.6765H113.789V81.4163L111.207 95.6765H109.27L106.689 81.4163V95.6765H104.107ZM125.264 95.858C124.356 95.858 123.576 95.7202 122.924 95.4446C122.279 95.1689 121.764 94.7655 121.381 94.2344C120.998 93.7032 120.719 93.0813 120.544 92.3686C120.369 91.6492 120.282 90.8155 120.282 89.8675V83.3123C120.282 82.3643 120.369 81.5373 120.544 80.8314C120.719 80.1254 120.998 79.5136 121.381 78.9959C121.764 78.4715 122.279 78.0781 122.924 77.8159C123.576 77.5537 124.356 77.4226 125.264 77.4226C127.025 77.4226 128.296 77.9269 129.076 78.9354C129.856 79.9439 130.246 81.4028 130.246 83.3123V89.8675C130.246 90.8021 130.155 91.6291 129.973 92.3485C129.799 93.0611 129.52 93.6864 129.136 94.2243C128.753 94.7554 128.235 95.1622 127.583 95.4446C126.938 95.7202 126.165 95.858 125.264 95.858ZM123.378 92.9233C123.727 93.4679 124.356 93.7402 125.264 93.7402C126.171 93.7402 126.797 93.4679 127.14 92.9233C127.489 92.3787 127.664 91.5753 127.664 90.513V82.6668C127.664 81.618 127.492 80.8347 127.15 80.317C126.807 79.7993 126.178 79.5405 125.264 79.5405C124.349 79.5405 123.721 79.7993 123.378 80.317C123.035 80.8347 122.863 81.618 122.863 82.6668V90.513C122.863 91.5753 123.035 92.3787 123.378 92.9233ZM138.867 95.858C137.24 95.858 135.996 95.3807 135.135 94.426C134.281 93.4713 133.804 92.1669 133.703 90.513L136.285 89.8675C136.413 92.4493 137.273 93.7402 138.867 93.7402C140.158 93.7402 140.803 93.0947 140.803 91.8039C140.803 91.4206 140.749 91.0677 140.642 90.7449C140.541 90.4155 140.383 90.1163 140.168 89.8474C139.953 89.5717 139.758 89.3532 139.583 89.1918C139.408 89.0238 139.169 88.8187 138.867 88.5767L135.64 85.9949C135.048 85.531 134.574 84.9427 134.218 84.23C133.868 83.5106 133.693 82.6937 133.693 81.7794C133.693 80.4481 134.107 79.3892 134.934 78.6026C135.761 77.8159 136.856 77.4226 138.221 77.4226C139.687 77.4226 140.85 77.7823 141.711 78.5017C142.578 79.2144 143.113 80.2263 143.314 81.5373C143.334 81.6785 143.358 81.8735 143.385 82.1222L140.803 82.7677C140.796 82.6534 140.78 82.4819 140.753 82.2533C140.638 81.4331 140.38 80.7776 139.976 80.2868C139.579 79.7892 138.995 79.5405 138.221 79.5405C137.603 79.5405 137.125 79.7153 136.789 80.0649C136.453 80.4078 136.285 80.8885 136.285 81.5071C136.285 82.5223 136.715 83.3728 137.576 84.0586L140.803 86.6403C142.524 88.0321 143.385 89.6961 143.385 91.6324C143.385 92.9569 142.975 93.9923 142.154 94.7386C141.341 95.4849 140.245 95.858 138.867 95.858ZM148.849 95.6765V79.9035H145.622V77.6042H154.658V79.9035H151.431V95.6765H148.849ZM166.021 85.3495H166.666C167.742 85.3495 168.549 85.1242 169.087 84.6738C169.625 84.2166 169.894 83.4736 169.894 82.445C169.894 81.4163 169.625 80.6767 169.087 80.2263C168.549 79.7691 167.742 79.5405 166.666 79.5405H166.021V85.3495ZM163.439 95.6765V77.6042H166.666C168.589 77.6042 170.038 77.9773 171.013 78.7236C171.988 79.4699 172.475 80.7103 172.475 82.445C172.475 83.5207 172.284 84.4216 171.9 85.1477C171.517 85.8739 170.956 86.3714 170.216 86.6403L173.121 95.6765H170.559L167.957 87.2858H166.021V95.6765H163.439ZM176.266 95.6765V77.6042H183.366V79.5405H178.847V85.3495H182.075V87.2858H178.847V93.7402H183.366V95.6765H176.266ZM189.314 95.6765L185.441 77.6042H188.023L189.929 87.2858L190.595 91.8039L191.281 87.2858L193.187 77.6042H195.768L191.896 95.6765H189.314ZM198.954 95.6765V77.6042H201.536V95.6765H198.954ZM205.951 95.6765V77.6042H213.051V79.5405H208.533V85.3495H211.76V87.2858H208.533V93.7402H213.051V95.6765H205.951ZM218.344 95.6765L215.117 77.6042H217.699L218.989 85.9949L219.645 91.1584L220.28 85.9949L221.571 77.6042H224.153L225.444 85.9949L226.079 91.1584L226.735 85.9949L228.026 77.6042H230.607L227.38 95.6765H224.798L223.508 87.2858L222.862 82.1222L222.217 87.2858L220.926 95.6765H218.344ZM233.662 95.6765V77.6042H240.761V79.5405H236.243V85.3495H239.471V87.2858H236.243V93.7402H240.761V95.6765H233.662ZM244.007 95.6765V77.6042H248.011C249.9 77.6042 251.231 77.9907 252.005 78.7639C252.784 79.5371 253.174 80.8717 253.174 82.7677V89.8675C253.174 91.8509 252.778 93.3166 251.984 94.2646C251.198 95.2059 249.867 95.6765 247.991 95.6765H244.007ZM246.589 93.7402H248.011C248.434 93.7402 248.798 93.7032 249.1 93.6293C249.403 93.5486 249.648 93.4074 249.836 93.2057C250.025 92.9973 250.172 92.8023 250.28 92.6208C250.388 92.4325 250.462 92.1434 250.502 91.7534C250.549 91.3635 250.576 91.0441 250.583 90.7954C250.589 90.5399 250.593 90.1466 250.593 89.6154C250.593 89.4406 250.593 89.3095 250.593 89.2221V83.4131C250.593 83.0837 250.589 82.8215 250.583 82.6265C250.583 82.4315 250.573 82.2029 250.552 81.9407C250.539 81.6718 250.515 81.46 250.482 81.3054C250.448 81.1507 250.401 80.9793 250.341 80.791C250.28 80.596 250.203 80.4448 250.109 80.3372C250.021 80.2296 249.91 80.1187 249.776 80.0044C249.648 79.8834 249.497 79.796 249.322 79.7422C249.154 79.6817 248.956 79.6346 248.727 79.601C248.498 79.5606 248.243 79.5405 247.96 79.5405H246.589V93.7402Z" fill="#930043"/>
<path d="M69.1031 143V122.898H71.6593L76.5482 134.364V122.898H79.5759V143H77.1438L72.23 130.989V143H69.1031ZM88.0861 143.273C86.6633 143.273 85.53 143.008 84.6862 142.479C83.8424 141.949 83.2386 141.188 82.8746 140.196C82.5106 139.203 82.3286 138.028 82.3286 136.672V129.152C82.3286 127.795 82.5106 126.637 82.8746 125.678C83.2386 124.702 83.8424 123.957 84.6862 123.444C85.53 122.931 86.6633 122.675 88.0861 122.675C89.5421 122.675 90.6837 122.931 91.5109 123.444C92.3547 123.957 92.9585 124.702 93.3225 125.678C93.703 126.637 93.8933 127.795 93.8933 129.152V136.696C93.8933 138.037 93.703 139.203 93.3225 140.196C92.9585 141.172 92.3547 141.933 91.5109 142.479C90.6837 143.008 89.5421 143.273 88.0861 143.273ZM88.0861 140.568C88.6983 140.568 89.145 140.436 89.4263 140.171C89.7241 139.906 89.9226 139.542 90.0219 139.079C90.1211 138.616 90.1708 138.111 90.1708 137.565V128.308C90.1708 127.746 90.1211 127.241 90.0219 126.795C89.9226 126.348 89.7241 126 89.4263 125.752C89.145 125.488 88.6983 125.355 88.0861 125.355C87.5071 125.355 87.0686 125.488 86.7708 125.752C86.473 126 86.2745 126.348 86.1752 126.795C86.076 127.241 86.0263 127.746 86.0263 128.308V137.565C86.0263 138.111 86.0677 138.616 86.1504 139.079C86.2497 139.542 86.4482 139.906 86.746 140.171C87.0438 140.436 87.4905 140.568 88.0861 140.568ZM96.6102 143V122.898H101.35C102.988 122.898 104.262 123.122 105.172 123.568C106.099 124.015 106.752 124.702 107.133 125.628C107.53 126.555 107.728 127.729 107.728 129.152V136.498C107.728 137.954 107.53 139.17 107.133 140.146C106.752 141.106 106.107 141.825 105.197 142.305C104.303 142.768 103.071 143 101.499 143H96.6102ZM100.283 140.444H101.4C102.244 140.444 102.848 140.295 103.211 139.997C103.575 139.699 103.799 139.269 103.882 138.707C103.964 138.128 104.006 137.424 104.006 136.597V128.904C104.006 128.093 103.948 127.44 103.832 126.943C103.716 126.447 103.476 126.083 103.112 125.851C102.748 125.62 102.161 125.504 101.35 125.504H100.283V140.444ZM110.424 143V122.898H118.862V125.479H114.097V131.262H117.845V133.818H114.097V140.469H118.912V143H110.424ZM125.808 143.496V140.915C126.338 140.915 126.776 140.882 127.124 140.816C127.471 140.75 127.736 140.634 127.918 140.469C128.116 140.287 128.257 140.03 128.34 139.699C128.422 139.352 128.464 138.913 128.464 138.384V122.898H132.112V138.533C132.112 139.658 131.979 140.593 131.715 141.337C131.45 142.065 130.987 142.611 130.325 142.975C129.68 143.323 128.762 143.496 127.57 143.496H125.808ZM140.231 143.273C139.023 143.273 138.014 143.041 137.204 142.578C136.393 142.098 135.781 141.403 135.367 140.493C134.953 139.584 134.722 138.467 134.672 137.143L137.824 136.523C137.857 137.3 137.948 137.987 138.097 138.583C138.262 139.178 138.502 139.641 138.817 139.972C139.148 140.287 139.578 140.444 140.107 140.444C140.703 140.444 141.125 140.27 141.373 139.923C141.621 139.559 141.745 139.104 141.745 138.558C141.745 137.681 141.547 136.961 141.149 136.399C140.752 135.836 140.223 135.274 139.561 134.711L137.03 132.478C136.318 131.865 135.748 131.187 135.317 130.443C134.904 129.682 134.697 128.747 134.697 127.638C134.697 126.05 135.16 124.826 136.087 123.965C137.013 123.105 138.279 122.675 139.884 122.675C140.827 122.675 141.613 122.824 142.241 123.122C142.87 123.403 143.366 123.8 143.73 124.313C144.111 124.826 144.392 125.413 144.574 126.075C144.756 126.72 144.872 127.407 144.922 128.135L141.795 128.681C141.762 128.052 141.687 127.489 141.571 126.993C141.472 126.497 141.282 126.108 141.001 125.827C140.736 125.545 140.339 125.405 139.809 125.405C139.263 125.405 138.841 125.587 138.544 125.951C138.262 126.298 138.122 126.737 138.122 127.266C138.122 127.944 138.262 128.507 138.544 128.954C138.825 129.384 139.23 129.83 139.76 130.294L142.266 132.502C143.093 133.197 143.797 134.016 144.376 134.959C144.971 135.886 145.269 137.011 145.269 138.334C145.269 139.294 145.054 140.146 144.624 140.891C144.21 141.635 143.623 142.222 142.862 142.653C142.117 143.066 141.24 143.273 140.231 143.273ZM153.466 143V122.898H158.206C159.844 122.898 161.118 123.122 162.028 123.568C162.955 124.015 163.608 124.702 163.989 125.628C164.386 126.555 164.584 127.729 164.584 129.152V136.498C164.584 137.954 164.386 139.17 163.989 140.146C163.608 141.106 162.963 141.825 162.053 142.305C161.159 142.768 159.927 143 158.355 143H153.466ZM157.139 140.444H158.256C159.1 140.444 159.704 140.295 160.068 139.997C160.432 139.699 160.655 139.269 160.738 138.707C160.82 138.128 160.862 137.424 160.862 136.597V128.904C160.862 128.093 160.804 127.44 160.688 126.943C160.572 126.447 160.332 126.083 159.968 125.851C159.604 125.62 159.017 125.504 158.206 125.504H157.139V140.444ZM167.28 143V122.898H175.718V125.479H170.953V131.262H174.701V133.818H170.953V140.469H175.768V143H167.28ZM180.973 143L176.928 122.898H180.179L182.834 137.118L185.316 122.898H188.641L184.596 143H180.973ZM190.692 143V122.898H199.129V125.479H194.365V131.262H198.112V133.818H194.365V140.469H199.179V143H190.692ZM201.307 143V122.898H204.98V140.469H209.844V143H201.307ZM216.97 143.273C215.547 143.273 214.413 143.008 213.57 142.479C212.726 141.949 212.122 141.188 211.758 140.196C211.394 139.203 211.212 138.028 211.212 136.672V129.152C211.212 127.795 211.394 126.637 211.758 125.678C212.122 124.702 212.726 123.957 213.57 123.444C214.413 122.931 215.547 122.675 216.97 122.675C218.425 122.675 219.567 122.931 220.394 123.444C221.238 123.957 221.842 124.702 222.206 125.678C222.586 126.637 222.777 127.795 222.777 129.152V136.696C222.777 138.037 222.586 139.203 222.206 140.196C221.842 141.172 221.238 141.933 220.394 142.479C219.567 143.008 218.425 143.273 216.97 143.273ZM216.97 140.568C217.582 140.568 218.028 140.436 218.31 140.171C218.607 139.906 218.806 139.542 218.905 139.079C219.004 138.616 219.054 138.111 219.054 137.565V128.308C219.054 127.746 219.004 127.241 218.905 126.795C218.806 126.348 218.607 126 218.31 125.752C218.028 125.488 217.582 125.355 216.97 125.355C216.39 125.355 215.952 125.488 215.654 125.752C215.356 126 215.158 126.348 215.059 126.795C214.959 127.241 214.91 127.746 214.91 128.308V137.565C214.91 138.111 214.951 138.616 215.034 139.079C215.133 139.542 215.332 139.906 215.629 140.171C215.927 140.436 216.374 140.568 216.97 140.568ZM225.494 143V122.898H231.4C232.608 122.898 233.584 123.122 234.328 123.568C235.089 124.015 235.644 124.669 235.991 125.529C236.355 126.373 236.537 127.398 236.537 128.606C236.537 129.913 236.314 130.972 235.867 131.783C235.42 132.577 234.792 133.156 233.981 133.52C233.187 133.884 232.244 134.066 231.152 134.066H229.166V143H225.494ZM229.166 131.485H230.556C231.218 131.485 231.731 131.394 232.095 131.212C232.475 131.013 232.732 130.707 232.864 130.294C233.013 129.864 233.088 129.293 233.088 128.581C233.088 127.853 233.03 127.266 232.914 126.819C232.815 126.356 232.583 126.017 232.219 125.802C231.871 125.587 231.317 125.479 230.556 125.479H229.166V131.485ZM238.531 143L238.878 122.898H242.675L245.529 136.821L248.507 122.898H252.18L252.553 143H249.823L249.525 129.028L246.671 143H244.462L241.559 128.978L241.286 143H238.531ZM255.521 143V122.898H263.959V125.479H259.194V131.262H262.941V133.818H259.194V140.469H264.008V143H255.521ZM266.136 143V122.898H268.692L273.581 134.364V122.898H276.609V143H274.177L269.263 130.989V143H266.136ZM281.67 143V125.603H278.468V122.898H288.494V125.603H285.343V143H281.67ZM128.849 180.273C127.376 180.273 126.218 179.983 125.374 179.404C124.547 178.825 123.968 178.039 123.637 177.047C123.306 176.038 123.141 174.879 123.141 173.572V166.4C123.141 165.027 123.306 163.836 123.637 162.827C123.968 161.817 124.547 161.04 125.374 160.494C126.218 159.948 127.376 159.675 128.849 159.675C130.239 159.675 131.322 159.915 132.1 160.395C132.894 160.858 133.456 161.528 133.787 162.405C134.118 163.282 134.284 164.299 134.284 165.457V167.145H130.76V165.408C130.76 164.845 130.727 164.332 130.66 163.869C130.611 163.406 130.454 163.042 130.189 162.777C129.941 162.496 129.502 162.355 128.874 162.355C128.245 162.355 127.782 162.504 127.484 162.802C127.203 163.083 127.021 163.472 126.938 163.968C126.855 164.448 126.814 164.994 126.814 165.606V174.342C126.814 175.07 126.872 175.674 126.987 176.153C127.103 176.617 127.31 176.972 127.608 177.221C127.922 177.452 128.344 177.568 128.874 177.568C129.486 177.568 129.916 177.427 130.164 177.146C130.429 176.848 130.594 176.459 130.66 175.98C130.727 175.5 130.76 174.962 130.76 174.367V172.555H134.284V174.168C134.284 175.359 134.127 176.418 133.812 177.345C133.498 178.255 132.944 178.974 132.149 179.504C131.372 180.017 130.272 180.273 128.849 180.273ZM142.301 180.273C140.878 180.273 139.744 180.008 138.901 179.479C138.057 178.949 137.453 178.188 137.089 177.196C136.725 176.203 136.543 175.028 136.543 173.672V166.152C136.543 164.795 136.725 163.637 137.089 162.678C137.453 161.702 138.057 160.957 138.901 160.444C139.744 159.931 140.878 159.675 142.301 159.675C143.756 159.675 144.898 159.931 145.725 160.444C146.569 160.957 147.173 161.702 147.537 162.678C147.917 163.637 148.108 164.795 148.108 166.152V173.696C148.108 175.037 147.917 176.203 147.537 177.196C147.173 178.172 146.569 178.933 145.725 179.479C144.898 180.008 143.756 180.273 142.301 180.273ZM142.301 177.568C142.913 177.568 143.359 177.436 143.641 177.171C143.938 176.906 144.137 176.542 144.236 176.079C144.336 175.616 144.385 175.111 144.385 174.565V165.308C144.385 164.746 144.336 164.241 144.236 163.795C144.137 163.348 143.938 163 143.641 162.752C143.359 162.488 142.913 162.355 142.301 162.355C141.721 162.355 141.283 162.488 140.985 162.752C140.687 163 140.489 163.348 140.39 163.795C140.29 164.241 140.241 164.746 140.241 165.308V174.565C140.241 175.111 140.282 175.616 140.365 176.079C140.464 176.542 140.663 176.906 140.96 177.171C141.258 177.436 141.705 177.568 142.301 177.568ZM150.775 180L151.122 159.898H154.919L157.773 173.821L160.751 159.898H164.424L164.797 180H162.067L161.769 166.028L158.915 180H156.706L153.803 165.978L153.53 180H150.775ZM167.765 180V159.898H173.671C174.879 159.898 175.855 160.122 176.6 160.568C177.361 161.015 177.915 161.669 178.263 162.529C178.627 163.373 178.809 164.398 178.809 165.606C178.809 166.913 178.585 167.972 178.139 168.783C177.692 169.577 177.063 170.156 176.252 170.52C175.458 170.884 174.515 171.066 173.423 171.066H171.438V180H167.765ZM171.438 168.485H172.828C173.489 168.485 174.002 168.394 174.366 168.212C174.747 168.013 175.003 167.707 175.136 167.294C175.285 166.864 175.359 166.293 175.359 165.581C175.359 164.853 175.301 164.266 175.185 163.819C175.086 163.356 174.854 163.017 174.49 162.802C174.143 162.587 173.589 162.479 172.828 162.479H171.438V168.485ZM178.768 180L182.789 159.898H186.71L190.73 180H187.33L186.536 175.359H183.037L182.218 180H178.768ZM183.409 173.026H186.139L184.774 164.589L183.409 173.026ZM192.752 180V159.898H195.308L200.197 171.364V159.898H203.224V180H200.792L195.879 167.989V180H192.752ZM206.374 180V159.898H209.997V180H206.374ZM213.109 180V159.898H221.547V162.479H216.782V168.262H220.53V170.818H216.782V177.469H221.597V180H213.109ZM228.787 180.273C227.579 180.273 226.57 180.041 225.759 179.578C224.949 179.098 224.337 178.403 223.923 177.493C223.509 176.584 223.278 175.467 223.228 174.143L226.38 173.523C226.413 174.3 226.504 174.987 226.653 175.583C226.818 176.178 227.058 176.641 227.372 176.972C227.703 177.287 228.134 177.444 228.663 177.444C229.259 177.444 229.68 177.27 229.929 176.923C230.177 176.559 230.301 176.104 230.301 175.558C230.301 174.681 230.102 173.961 229.705 173.399C229.308 172.836 228.779 172.274 228.117 171.711L225.586 169.478C224.874 168.865 224.303 168.187 223.873 167.443C223.46 166.682 223.253 165.747 223.253 164.638C223.253 163.05 223.716 161.826 224.643 160.965C225.569 160.105 226.835 159.675 228.44 159.675C229.383 159.675 230.169 159.824 230.797 160.122C231.426 160.403 231.922 160.8 232.286 161.313C232.667 161.826 232.948 162.413 233.13 163.075C233.312 163.72 233.428 164.407 233.477 165.135L230.351 165.681C230.317 165.052 230.243 164.489 230.127 163.993C230.028 163.497 229.838 163.108 229.556 162.827C229.292 162.545 228.895 162.405 228.365 162.405C227.819 162.405 227.397 162.587 227.099 162.951C226.818 163.298 226.678 163.737 226.678 164.266C226.678 164.944 226.818 165.507 227.099 165.954C227.381 166.384 227.786 166.83 228.316 167.294L230.822 169.502C231.649 170.197 232.352 171.016 232.931 171.959C233.527 172.886 233.825 174.011 233.825 175.334C233.825 176.294 233.61 177.146 233.18 177.891C232.766 178.635 232.179 179.222 231.418 179.653C230.673 180.066 229.796 180.273 228.787 180.273Z" fill="black"/>
<rect x="2" y="215.85" width="351.935" height="44.37" fill="#930043"/>
<circle cx="178.469" cy="235.007" r="37.3111" fill="white"/>
<path d="M70.671 223.513L75.0644 232.413L84.8889 233.849L77.78 240.773L79.4577 250.555L70.671 245.935L61.8844 250.555L63.5621 240.773L56.4531 233.849L66.2777 232.413L70.671 223.513Z" fill="white"/>
<path d="M111.775 223.513L116.168 232.413L125.992 233.849L118.883 240.773L120.561 250.555L111.775 245.935L102.988 250.555L104.666 240.773L97.5566 233.849L107.381 232.413L111.775 223.513Z" fill="white"/>
<path d="M179.678 213.827L187.218 229.101L204.078 231.566L191.878 243.449L194.757 260.236L179.678 252.306L164.598 260.236L167.478 243.449L155.277 231.566L172.138 229.101L179.678 213.827Z" fill="#930043"/>
<path d="M241.45 223.513L245.844 232.413L255.668 233.849L248.559 240.773L250.237 250.555L241.45 245.935L232.664 250.555L234.341 240.773L227.232 233.849L237.057 232.413L241.45 223.513Z" fill="white"/>
<path d="M282.554 223.513L286.947 232.413L296.772 233.849L289.663 240.773L291.341 250.555L282.554 245.935L273.767 250.555L275.445 240.773L268.336 233.849L278.161 232.413L282.554 223.513Z" fill="white"/>
<g clip-path="url(#clip0_929_2602)">
<path d="M186.409 289.985V294.739H181.919V283.91H180.335V294.739H175.581V283.91H173.996V300.813H169.507V289.985H167.922V307.152H169.507V302.398H180.335V313.226H181.919V296.323H186.409V307.152H187.994V289.985H186.409ZM180.335 300.813H175.581V296.323H180.335V300.813Z" fill="#930043"/>
<path d="M175.579 303.192H173.994V313.228H175.579V303.192Z" fill="#930043"/>
</g>
<path d="M135.08 321.308V330.801H132.96V327.241H126.598V330.801H124.479V321.308H126.598V324.868H132.96V321.308H135.08Z" fill="black"/>
<path d="M136.891 330.802V321.294H139.532V330.802H136.891Z" fill="black"/>
<path d="M151.676 323.68H147.436V330.8H145.316V323.68H141.074V321.307H151.676V323.68Z" fill="black"/>
<path d="M163.719 321.307V323.68H155.237V323.682H153.117V321.307H163.719ZM163.719 325.068V327.003H155.237V327.008H153.117V325.068H163.719ZM163.719 328.427V330.8H153.117V328.427H163.719Z" fill="black"/>
<path d="M176.141 324.382V325.46H174.021V324.593C174.021 324.089 173.655 323.68 173.205 323.68H165.539V321.307H173.394C173.61 321.307 173.819 321.335 174.021 321.389C175.034 321.653 175.832 322.546 176.071 323.682C176.116 323.906 176.141 324.14 176.141 324.382ZM168.475 328.427H176.141V330.8H168.286C168.189 330.8 168.093 330.795 168 330.782C167.884 330.769 167.771 330.747 167.659 330.719C166.646 330.454 165.848 329.562 165.61 328.425C165.592 328.341 165.578 328.257 165.567 328.173C165.548 328.026 165.537 327.876 165.537 327.723V324.966H167.657V327.512C167.659 328.018 168.025 328.427 168.475 328.427Z" fill="black"/>
<path d="M188.447 321.307V330.8H186.327V327.24H179.966V330.8H177.846V321.307H179.966V324.867H186.327V321.307H188.447Z" fill="black"/>
<path d="M206.467 321.307V330.8H204.347V327.24H197.985V330.8H195.865V321.307H197.985V324.867H204.347V321.307H206.467Z" fill="#930043"/>
<path d="M218.899 321.307V330.8H216.836V329.783L216.011 330.8H210.728C209.479 330.655 208.477 329.572 208.295 328.191V321.307H210.415V327.514C210.415 328.018 210.781 328.427 211.23 328.427H216.772L216.777 321.307H218.899Z" fill="#930043"/>
<path d="M231.4 327.28C231.428 327.45 231.441 327.626 231.441 327.804C231.441 328.012 231.423 328.216 231.387 328.411C231.153 329.685 230.194 330.664 229.012 330.784C228.933 330.792 228.851 330.797 228.767 330.797C228.683 330.797 228.604 330.792 228.522 330.784H222.932V330.797H220.812V328.414H220.815V327.282H220.812V324.93H220.815V323.643H220.812V321.294H228.767C230.053 321.294 231.13 322.311 231.385 323.666C231.423 323.867 231.441 324.073 231.441 324.287C231.441 324.5 231.421 324.706 231.385 324.907C231.307 325.327 231.148 325.713 230.932 326.046C231.164 326.405 231.328 326.825 231.4 327.28ZM229.321 324.287C229.321 323.946 229.074 323.666 228.767 323.666H227.197V323.643H222.935V324.93H227.197V324.907H228.767C228.867 324.907 228.958 324.879 229.04 324.828C229.208 324.722 229.321 324.518 229.321 324.287ZM229.321 327.806C229.321 327.585 229.217 327.392 229.062 327.282H222.937V328.414H228.881C229.131 328.355 229.321 328.104 229.321 327.806Z" fill="#930043"/>
<defs>
<clipPath id="clip0_929_2602">
<rect width="20.072" height="29.3157" fill="white" transform="translate(167.924 283.911)"/>
</clipPath>
</defs>
</svg>
