<svg width="355" height="400" viewBox="0 0 355 400" fill="none" xmlns="http://www.w3.org/2000/svg">
<path d="M16.0954 81.782L162.091 5.02596C171.362 0.139784 182.792 0.139784 192.063 5.02596L338.058 81.782C347.329 86.6681 353.044 95.6729 353.044 105.427V294.434C353.044 304.187 347.329 313.192 338.058 318.078L192.063 394.834C182.792 399.72 171.362 399.72 162.091 394.834L16.0954 318.078C6.82421 313.192 1.10938 304.187 1.10938 294.434V105.427C1.10937 95.6542 6.82421 86.6494 16.0954 81.782Z" fill="white" stroke="#930043" stroke-width="2.23497" stroke-miterlimit="10"/>
<path d="M329.597 285.91C329.597 293.431 325.152 300.447 317.97 304.208L187.1 372.908C179.918 376.669 171.008 376.669 163.868 372.908L32.9564 304.208C25.7749 300.447 21.3303 293.431 21.3303 285.91V269.252H14.0254V285.91C14.0254 295.789 19.8693 304.994 29.2936 309.933L160.205 378.652C164.897 381.121 170.185 382.356 175.474 382.356C180.741 382.356 186.009 381.121 190.721 378.652L321.633 309.933C331.058 304.994 336.901 295.789 336.901 285.91V269.252H329.617V285.91H329.597ZM321.633 89.918L190.721 21.2177C181.318 16.2597 169.609 16.2784 160.205 21.2177L29.3142 89.918C19.8899 94.8759 14.046 104.081 14.046 113.959V207.598H21.3509V113.959C21.3509 106.438 25.7955 99.4222 32.9769 95.6617L163.827 26.9614C171.008 23.2008 179.918 23.2008 187.059 26.9614L317.97 95.6617C325.152 99.4222 329.597 106.438 329.597 113.959V207.598H336.881V113.959C336.901 104.081 331.058 94.8759 321.633 89.918Z" fill="#930043"/>
<path d="M103.216 95.6771V77.6048H106.786L109.348 91.4414L111.91 77.6048H115.48V95.6771H112.898V81.4169L110.316 95.6771H108.38L105.798 81.4169V95.6771H103.216ZM124.373 95.8587C123.465 95.8587 122.686 95.7208 122.033 95.4452C121.388 95.1695 120.874 94.7661 120.49 94.235C120.107 93.7038 119.828 93.0819 119.653 92.3692C119.478 91.6498 119.391 90.8161 119.391 89.8682V83.3129C119.391 82.3649 119.478 81.5379 119.653 80.832C119.828 80.126 120.107 79.5142 120.49 78.9965C120.874 78.4721 121.388 78.0788 122.033 77.8165C122.686 77.5543 123.465 77.4232 124.373 77.4232C126.135 77.4232 127.405 77.9275 128.185 78.936C128.965 79.9445 129.355 81.4035 129.355 83.3129V89.8682C129.355 90.8027 129.264 91.6297 129.083 92.3491C128.908 93.0617 128.629 93.687 128.246 94.2249C127.862 94.756 127.345 95.1628 126.693 95.4452C126.047 95.7208 125.274 95.8587 124.373 95.8587ZM122.487 92.9239C122.837 93.4685 123.465 93.7408 124.373 93.7408C125.281 93.7408 125.906 93.4685 126.249 92.9239C126.598 92.3793 126.773 91.5759 126.773 90.5136V82.6674C126.773 81.6186 126.602 80.8353 126.259 80.3176C125.916 79.7999 125.287 79.5411 124.373 79.5411C123.459 79.5411 122.83 79.7999 122.487 80.3176C122.144 80.8353 121.973 81.6186 121.973 82.6674V90.5136C121.973 91.5759 122.144 92.3793 122.487 92.9239ZM137.976 95.8587C136.349 95.8587 135.105 95.3813 134.245 94.4266C133.391 93.4719 132.913 92.1675 132.813 90.5136L135.394 89.8682C135.522 92.4499 136.383 93.7408 137.976 93.7408C139.267 93.7408 139.912 93.0954 139.912 91.8045C139.912 91.4212 139.859 91.0683 139.751 90.7455C139.65 90.4161 139.492 90.1169 139.277 89.848C139.062 89.5723 138.867 89.3538 138.692 89.1925C138.517 89.0244 138.279 88.8193 137.976 88.5773L134.749 85.9955C134.157 85.5316 133.683 84.9433 133.327 84.2306C132.977 83.5112 132.803 82.6943 132.803 81.78C132.803 80.4487 133.216 79.3898 134.043 78.6032C134.87 77.8165 135.966 77.4232 137.331 77.4232C138.796 77.4232 139.96 77.7829 140.82 78.5023C141.687 79.215 142.222 80.2269 142.424 81.5379C142.444 81.6791 142.467 81.8741 142.494 82.1229L139.912 82.7683C139.906 82.654 139.889 82.4826 139.862 82.254C139.748 81.4337 139.489 80.7782 139.086 80.2874C138.689 79.7899 138.104 79.5411 137.331 79.5411C136.712 79.5411 136.235 79.7159 135.899 80.0655C135.562 80.4084 135.394 80.8891 135.394 81.5077C135.394 82.5229 135.825 83.3734 136.685 84.0592L139.912 86.6409C141.634 88.0327 142.494 89.6967 142.494 91.633C142.494 92.9575 142.084 93.9929 141.264 94.7392C140.45 95.4855 139.354 95.8587 137.976 95.8587ZM147.959 95.6771V79.9041H144.732V77.6048H153.768V79.9041H150.54V95.6771H147.959ZM165.13 85.3501H165.776C166.851 85.3501 167.658 85.1248 168.196 84.6744C168.734 84.2172 169.003 83.4742 169.003 82.4456C169.003 81.4169 168.734 80.6773 168.196 80.2269C167.658 79.7697 166.851 79.5411 165.776 79.5411H165.13V85.3501ZM162.549 95.6771V77.6048H165.776C167.699 77.6048 169.147 77.9779 170.122 78.7242C171.097 79.4705 171.585 80.7109 171.585 82.4456C171.585 83.5213 171.393 84.4222 171.01 85.1484C170.627 85.8745 170.065 86.372 169.326 86.6409L172.23 95.6771H169.669L167.067 87.2864H165.13V95.6771H162.549ZM175.375 95.6771V77.6048H182.475V79.5411H177.957V85.3501H181.184V87.2864H177.957V93.7408H182.475V95.6771H175.375ZM188.423 95.6771L184.551 77.6048H187.133L189.039 87.2864L189.704 91.8045L190.39 87.2864L192.296 77.6048H194.878L191.005 95.6771H188.423ZM198.063 95.6771V77.6048H200.645V95.6771H198.063ZM205.061 95.6771V77.6048H212.16V79.5411H207.642V85.3501H210.869V87.2864H207.642V93.7408H212.16V95.6771H205.061ZM217.453 95.6771L214.226 77.6048H216.808L218.099 85.9955L218.754 91.159L219.39 85.9955L220.681 77.6048H223.262L224.553 85.9955L225.189 91.159L225.844 85.9955L227.135 77.6048H229.717L226.49 95.6771H223.908L222.617 87.2864L221.971 82.1229L221.326 87.2864L220.035 95.6771H217.453ZM232.771 95.6771V77.6048H239.871V79.5411H235.353V85.3501H238.58V87.2864H235.353V93.7408H239.871V95.6771H232.771ZM243.117 95.6771V77.6048H247.12C249.01 77.6048 250.341 77.9914 251.114 78.7645C251.894 79.5377 252.284 80.8723 252.284 82.7683V89.8682C252.284 91.8515 251.887 93.3172 251.094 94.2652C250.307 95.2065 248.976 95.6771 247.1 95.6771H243.117ZM245.698 93.7408H247.12C247.544 93.7408 247.907 93.7038 248.209 93.6299C248.512 93.5492 248.757 93.408 248.946 93.2063C249.134 92.9979 249.282 92.8029 249.389 92.6214C249.497 92.4331 249.571 92.144 249.611 91.7541C249.658 91.3641 249.685 91.0447 249.692 90.796C249.699 90.5405 249.702 90.1472 249.702 89.616C249.702 89.4412 249.702 89.3101 249.702 89.2227V83.4137C249.702 83.0843 249.699 82.8221 249.692 82.6271C249.692 82.4321 249.682 82.2035 249.662 81.9413C249.648 81.6724 249.625 81.4606 249.591 81.306C249.558 81.1513 249.51 80.9799 249.45 80.7916C249.389 80.5967 249.312 80.4454 249.218 80.3378C249.131 80.2302 249.02 80.1193 248.885 80.005C248.757 79.884 248.606 79.7966 248.431 79.7428C248.263 79.6823 248.065 79.6352 247.836 79.6016C247.608 79.5613 247.352 79.5411 247.07 79.5411H245.698V93.7408Z" fill="#930043"/>
<path d="M62.5968 143V122.898H67.4113C68.7679 122.898 69.9095 123.064 70.836 123.395C71.779 123.709 72.4905 124.255 72.9703 125.033C73.4666 125.81 73.7148 126.869 73.7148 128.209C73.7148 129.02 73.6403 129.748 73.4914 130.393C73.3425 131.038 73.0861 131.592 72.7221 132.056C72.3747 132.502 71.8866 132.85 71.2579 133.098L74.0622 143H70.3893L67.9572 133.793H66.2697V143H62.5968ZM66.2697 131.485H67.4113C68.1227 131.485 68.6852 131.386 69.0988 131.187C69.529 130.972 69.8351 130.641 70.017 130.194C70.199 129.731 70.29 129.144 70.29 128.432C70.29 127.423 70.0998 126.67 69.7192 126.174C69.3553 125.661 68.6521 125.405 67.6098 125.405H66.2697V131.485ZM76.5078 143V122.898H84.9456V125.479H80.1807V131.262H83.9281V133.818H80.1807V140.469H84.9952V143H76.5078ZM86.1054 143L90.1258 122.898H94.0468L98.0672 143H94.6673L93.8731 138.359H90.3739L89.555 143H86.1054ZM90.7462 136.026H93.476L92.1111 127.589L90.7462 136.026ZM105.281 143.273C103.808 143.273 102.65 142.983 101.806 142.404C100.979 141.825 100.4 141.039 100.069 140.047C99.7383 139.038 99.5729 137.879 99.5729 136.572V129.4C99.5729 128.027 99.7383 126.836 100.069 125.827C100.4 124.817 100.979 124.04 101.806 123.494C102.65 122.948 103.808 122.675 105.281 122.675C106.671 122.675 107.754 122.915 108.532 123.395C109.326 123.858 109.888 124.528 110.219 125.405C110.55 126.282 110.716 127.299 110.716 128.457V130.145H107.192V128.408C107.192 127.845 107.159 127.332 107.092 126.869C107.043 126.406 106.886 126.042 106.621 125.777C106.373 125.496 105.934 125.355 105.306 125.355C104.677 125.355 104.214 125.504 103.916 125.802C103.635 126.083 103.453 126.472 103.37 126.968C103.287 127.448 103.246 127.994 103.246 128.606V137.342C103.246 138.07 103.304 138.674 103.42 139.153C103.535 139.617 103.742 139.972 104.04 140.221C104.354 140.452 104.776 140.568 105.306 140.568C105.918 140.568 106.348 140.427 106.596 140.146C106.861 139.848 107.026 139.459 107.092 138.98C107.159 138.5 107.192 137.962 107.192 137.367V135.555H110.716V137.168C110.716 138.359 110.559 139.418 110.244 140.345C109.93 141.255 109.376 141.974 108.581 142.504C107.804 143.017 106.704 143.273 105.281 143.273ZM115.283 143V125.603H112.082V122.898H122.108V125.603H118.956V143H115.283ZM128.705 143.496V140.915C129.235 140.915 129.673 140.882 130.021 140.816C130.368 140.75 130.633 140.634 130.815 140.469C131.013 140.287 131.154 140.03 131.237 139.699C131.319 139.352 131.361 138.913 131.361 138.384V122.898H135.009V138.533C135.009 139.658 134.876 140.593 134.612 141.337C134.347 142.065 133.884 142.611 133.222 142.975C132.577 143.323 131.658 143.496 130.467 143.496H128.705ZM143.128 143.273C141.92 143.273 140.911 143.041 140.101 142.578C139.29 142.098 138.678 141.403 138.264 140.493C137.85 139.584 137.619 138.467 137.569 137.143L140.721 136.523C140.754 137.3 140.845 137.987 140.994 138.583C141.159 139.178 141.399 139.641 141.714 139.972C142.045 140.287 142.475 140.444 143.004 140.444C143.6 140.444 144.022 140.27 144.27 139.923C144.518 139.559 144.642 139.104 144.642 138.558C144.642 137.681 144.443 136.961 144.046 136.399C143.649 135.836 143.12 135.274 142.458 134.711L139.927 132.478C139.215 131.865 138.645 131.187 138.214 130.443C137.801 129.682 137.594 128.747 137.594 127.638C137.594 126.05 138.057 124.826 138.984 123.965C139.91 123.105 141.176 122.675 142.781 122.675C143.724 122.675 144.51 122.824 145.138 123.122C145.767 123.403 146.263 123.8 146.627 124.313C147.008 124.826 147.289 125.413 147.471 126.075C147.653 126.72 147.769 127.407 147.819 128.135L144.692 128.681C144.659 128.052 144.584 127.489 144.468 126.993C144.369 126.497 144.179 126.108 143.897 125.827C143.633 125.545 143.236 125.405 142.706 125.405C142.16 125.405 141.738 125.587 141.441 125.951C141.159 126.298 141.019 126.737 141.019 127.266C141.019 127.944 141.159 128.507 141.441 128.954C141.722 129.384 142.127 129.83 142.657 130.294L145.163 132.502C145.99 133.197 146.694 134.016 147.273 134.959C147.868 135.886 148.166 137.011 148.166 138.334C148.166 139.294 147.951 140.146 147.521 140.891C147.107 141.635 146.52 142.222 145.759 142.653C145.014 143.066 144.137 143.273 143.128 143.273ZM156.363 143V122.898H161.103C162.741 122.898 164.015 123.122 164.925 123.568C165.852 124.015 166.505 124.702 166.886 125.628C167.283 126.555 167.481 127.729 167.481 129.152V136.498C167.481 137.954 167.283 139.17 166.886 140.146C166.505 141.106 165.86 141.825 164.95 142.305C164.056 142.768 162.824 143 161.252 143H156.363ZM160.036 140.444H161.153C161.997 140.444 162.601 140.295 162.964 139.997C163.328 139.699 163.552 139.269 163.635 138.707C163.717 138.128 163.759 137.424 163.759 136.597V128.904C163.759 128.093 163.701 127.44 163.585 126.943C163.469 126.447 163.229 126.083 162.865 125.851C162.501 125.62 161.914 125.504 161.103 125.504H160.036V140.444ZM170.177 143V122.898H178.615V125.479H173.85V131.262H177.598V133.818H173.85V140.469H178.665V143H170.177ZM183.87 143L179.824 122.898H183.076L185.731 137.118L188.213 122.898H191.538L187.493 143H183.87ZM193.589 143V122.898H202.026V125.479H197.262V131.262H201.009V133.818H197.262V140.469H202.076V143H193.589ZM204.204 143V122.898H207.877V140.469H212.741V143H204.204ZM219.866 143.273C218.444 143.273 217.31 143.008 216.467 142.479C215.623 141.949 215.019 141.188 214.655 140.196C214.291 139.203 214.109 138.028 214.109 136.672V129.152C214.109 127.795 214.291 126.637 214.655 125.678C215.019 124.702 215.623 123.957 216.467 123.444C217.31 122.931 218.444 122.675 219.866 122.675C221.322 122.675 222.464 122.931 223.291 123.444C224.135 123.957 224.739 124.702 225.103 125.678C225.483 126.637 225.674 127.795 225.674 129.152V136.696C225.674 138.037 225.483 139.203 225.103 140.196C224.739 141.172 224.135 141.933 223.291 142.479C222.464 143.008 221.322 143.273 219.866 143.273ZM219.866 140.568C220.479 140.568 220.925 140.436 221.207 140.171C221.504 139.906 221.703 139.542 221.802 139.079C221.901 138.616 221.951 138.111 221.951 137.565V128.308C221.951 127.746 221.901 127.241 221.802 126.795C221.703 126.348 221.504 126 221.207 125.752C220.925 125.488 220.479 125.355 219.866 125.355C219.287 125.355 218.849 125.488 218.551 125.752C218.253 126 218.055 126.348 217.956 126.795C217.856 127.241 217.807 127.746 217.807 128.308V137.565C217.807 138.111 217.848 138.616 217.931 139.079C218.03 139.542 218.229 139.906 218.526 140.171C218.824 140.436 219.271 140.568 219.866 140.568ZM228.391 143V122.898H234.297C235.505 122.898 236.481 123.122 237.225 123.568C237.986 124.015 238.541 124.669 238.888 125.529C239.252 126.373 239.434 127.398 239.434 128.606C239.434 129.913 239.211 130.972 238.764 131.783C238.317 132.577 237.689 133.156 236.878 133.52C236.084 133.884 235.141 134.066 234.049 134.066H232.063V143H228.391ZM232.063 131.485H233.453C234.115 131.485 234.628 131.394 234.992 131.212C235.372 131.013 235.629 130.707 235.761 130.294C235.91 129.864 235.985 129.293 235.985 128.581C235.985 127.853 235.927 127.266 235.811 126.819C235.712 126.356 235.48 126.017 235.116 125.802C234.768 125.587 234.214 125.479 233.453 125.479H232.063V131.485ZM241.428 143L241.775 122.898H245.572L248.426 136.821L251.404 122.898H255.077L255.45 143H252.72L252.422 129.028L249.568 143H247.359L244.456 128.978L244.183 143H241.428ZM258.418 143V122.898H266.856V125.479H262.091V131.262H265.838V133.818H262.091V140.469H266.905V143H258.418ZM269.033 143V122.898H271.589L276.478 134.364V122.898H279.506V143H277.074L272.16 130.989V143H269.033ZM284.567 143V125.603H281.365V122.898H291.391V125.603H288.239V143H284.567ZM127.044 180.273C125.572 180.273 124.413 179.983 123.57 179.404C122.742 178.825 122.163 178.039 121.833 177.047C121.502 176.038 121.336 174.879 121.336 173.572V166.4C121.336 165.027 121.502 163.836 121.833 162.827C122.163 161.817 122.742 161.04 123.57 160.494C124.413 159.948 125.572 159.675 127.044 159.675C128.434 159.675 129.518 159.915 130.295 160.395C131.089 160.858 131.652 161.528 131.983 162.405C132.314 163.282 132.479 164.299 132.479 165.457V167.145H128.955V165.408C128.955 164.845 128.922 164.332 128.856 163.869C128.806 163.406 128.649 163.042 128.384 162.777C128.136 162.496 127.698 162.355 127.069 162.355C126.44 162.355 125.977 162.504 125.679 162.802C125.398 163.083 125.216 163.472 125.133 163.968C125.05 164.448 125.009 164.994 125.009 165.606V174.342C125.009 175.07 125.067 175.674 125.183 176.153C125.299 176.617 125.505 176.972 125.803 177.221C126.118 177.452 126.539 177.568 127.069 177.568C127.681 177.568 128.111 177.427 128.359 177.146C128.624 176.848 128.79 176.459 128.856 175.98C128.922 175.5 128.955 174.962 128.955 174.367V172.555H132.479V174.168C132.479 175.359 132.322 176.418 132.007 177.345C131.693 178.255 131.139 178.974 130.345 179.504C129.567 180.017 128.467 180.273 127.044 180.273ZM140.496 180.273C139.073 180.273 137.94 180.008 137.096 179.479C136.252 178.949 135.648 178.188 135.284 177.196C134.92 176.203 134.738 175.028 134.738 173.672V166.152C134.738 164.795 134.92 163.637 135.284 162.678C135.648 161.702 136.252 160.957 137.096 160.444C137.94 159.931 139.073 159.675 140.496 159.675C141.952 159.675 143.093 159.931 143.921 160.444C144.764 160.957 145.368 161.702 145.732 162.678C146.113 163.637 146.303 164.795 146.303 166.152V173.696C146.303 175.037 146.113 176.203 145.732 177.196C145.368 178.172 144.764 178.933 143.921 179.479C143.093 180.008 141.952 180.273 140.496 180.273ZM140.496 177.568C141.108 177.568 141.555 177.436 141.836 177.171C142.134 176.906 142.332 176.542 142.432 176.079C142.531 175.616 142.58 175.111 142.58 174.565V165.308C142.58 164.746 142.531 164.241 142.432 163.795C142.332 163.348 142.134 163 141.836 162.752C141.555 162.488 141.108 162.355 140.496 162.355C139.917 162.355 139.478 162.488 139.181 162.752C138.883 163 138.684 163.348 138.585 163.795C138.486 164.241 138.436 164.746 138.436 165.308V174.565C138.436 175.111 138.477 175.616 138.56 176.079C138.659 176.542 138.858 176.906 139.156 177.171C139.454 177.436 139.9 177.568 140.496 177.568ZM148.97 180L149.318 159.898H153.115L155.969 173.821L158.947 159.898H162.62L162.992 180H160.262L159.964 166.028L157.11 180H154.901L151.998 165.978L151.725 180H148.97ZM165.96 180V159.898H171.867C173.075 159.898 174.051 160.122 174.795 160.568C175.556 161.015 176.11 161.669 176.458 162.529C176.822 163.373 177.004 164.398 177.004 165.606C177.004 166.913 176.781 167.972 176.334 168.783C175.887 169.577 175.258 170.156 174.448 170.52C173.654 170.884 172.711 171.066 171.619 171.066H169.633V180H165.96ZM169.633 168.485H171.023C171.685 168.485 172.198 168.394 172.562 168.212C172.942 168.013 173.199 167.707 173.331 167.294C173.48 166.864 173.554 166.293 173.554 165.581C173.554 164.853 173.496 164.266 173.381 163.819C173.281 163.356 173.05 163.017 172.686 162.802C172.338 162.587 171.784 162.479 171.023 162.479H169.633V168.485ZM176.964 180L180.984 159.898H184.905L188.925 180H185.525L184.731 175.359H181.232L180.413 180H176.964ZM181.604 173.026H184.334L182.969 164.589L181.604 173.026ZM190.947 180V159.898H193.503L198.392 171.364V159.898H201.42V180H198.988L194.074 167.989V180H190.947ZM204.57 180V159.898H208.193V180H204.57ZM211.305 180V159.898H219.742V162.479H214.978V168.262H218.725V170.818H214.978V177.469H219.792V180H211.305ZM226.982 180.273C225.775 180.273 224.765 180.041 223.955 179.578C223.144 179.098 222.532 178.403 222.118 177.493C221.705 176.584 221.473 175.467 221.423 174.143L224.575 173.523C224.608 174.3 224.699 174.987 224.848 175.583C225.014 176.178 225.253 176.641 225.568 176.972C225.899 177.287 226.329 177.444 226.858 177.444C227.454 177.444 227.876 177.27 228.124 176.923C228.372 176.559 228.496 176.104 228.496 175.558C228.496 174.681 228.298 173.961 227.901 173.399C227.504 172.836 226.974 172.274 226.312 171.711L223.781 169.478C223.07 168.865 222.499 168.187 222.069 167.443C221.655 166.682 221.448 165.747 221.448 164.638C221.448 163.05 221.911 161.826 222.838 160.965C223.764 160.105 225.03 159.675 226.635 159.675C227.578 159.675 228.364 159.824 228.993 160.122C229.621 160.403 230.118 160.8 230.482 161.313C230.862 161.826 231.143 162.413 231.325 163.075C231.507 163.72 231.623 164.407 231.673 165.135L228.546 165.681C228.513 165.052 228.438 164.489 228.322 163.993C228.223 163.497 228.033 163.108 227.752 162.827C227.487 162.545 227.09 162.405 226.56 162.405C226.014 162.405 225.593 162.587 225.295 162.951C225.014 163.298 224.873 163.737 224.873 164.266C224.873 164.944 225.014 165.507 225.295 165.954C225.576 166.384 225.981 166.83 226.511 167.294L229.017 169.502C229.845 170.197 230.548 171.016 231.127 171.959C231.722 172.886 232.02 174.011 232.02 175.334C232.02 176.294 231.805 177.146 231.375 177.891C230.961 178.635 230.374 179.222 229.613 179.653C228.868 180.066 227.992 180.273 226.982 180.273Z" fill="black"/>
<rect x="1.10938" y="215.85" width="351.935" height="44.37" fill="#930043"/>
<circle cx="177.581" cy="235.008" r="37.3111" fill="white"/>
<path d="M69.7804 223.514L74.1737 232.414L83.9983 233.85L76.8894 240.774L78.5671 250.556L69.7804 245.935L60.9937 250.556L62.6715 240.774L55.5625 233.85L65.3871 232.414L69.7804 223.514Z" fill="white"/>
<path d="M110.884 223.514L115.277 232.414L125.102 233.85L117.993 240.774L119.671 250.556L110.884 245.935L102.097 250.556L103.775 240.774L96.666 233.85L106.491 232.414L110.884 223.514Z" fill="white"/>
<path d="M178.787 213.827L186.327 229.101L203.188 231.566L190.987 243.449L193.867 260.236L178.787 252.306L163.708 260.236L166.587 243.449L154.387 231.566L171.247 229.101L178.787 213.827Z" fill="#930043"/>
<path d="M240.562 223.514L244.955 232.414L254.78 233.85L247.671 240.774L249.348 250.556L240.562 245.935L231.775 250.556L233.453 240.774L226.344 233.85L236.168 232.414L240.562 223.514Z" fill="white"/>
<path d="M281.665 223.514L286.059 232.414L295.883 233.85L288.774 240.774L290.452 250.556L281.665 245.935L272.879 250.556L274.556 240.774L267.447 233.85L277.272 232.414L281.665 223.514Z" fill="white"/>
<g clip-path="url(#clip0_929_2668)">
<path d="M185.523 289.985V294.739H181.033V283.911H179.448V294.739H174.694V283.911H173.11V300.813H168.62V289.985H167.035V307.152H168.62V302.398H179.448V313.226H181.033V296.324H185.523V307.152H187.107V289.985H185.523ZM179.448 300.813H174.694V296.324H179.448V300.813Z" fill="#930043"/>
<path d="M174.692 303.192H173.107V313.228H174.692V303.192Z" fill="#930043"/>
</g>
<path d="M134.191 321.308V330.801H132.072V327.241H125.71V330.801H123.59V321.308H125.71V324.868H132.072V321.308H134.191Z" fill="black"/>
<path d="M136.002 330.802V321.294H138.643V330.802H136.002Z" fill="black"/>
<path d="M150.787 323.68H146.547V330.8H144.428V323.68H140.186V321.307H150.787V323.68Z" fill="black"/>
<path d="M162.83 321.307V323.68H154.348V323.682H152.229V321.307H162.83ZM162.83 325.068V327.003H154.348V327.008H152.229V325.068H162.83ZM162.83 328.427V330.8H152.229V328.427H162.83Z" fill="black"/>
<path d="M175.252 324.382V325.46H173.132V324.593C173.132 324.089 172.767 323.68 172.317 323.68H164.651V321.307H172.505C172.721 321.307 172.93 321.335 173.132 321.389C174.146 321.653 174.943 322.546 175.182 323.682C175.227 323.906 175.252 324.14 175.252 324.382ZM167.586 328.427H175.252V330.8H167.398C167.3 330.8 167.205 330.795 167.111 330.782C166.996 330.769 166.882 330.747 166.771 330.719C165.757 330.454 164.96 329.562 164.721 328.425C164.703 328.341 164.689 328.257 164.678 328.173C164.66 328.026 164.648 327.876 164.648 327.723V324.966H166.768V327.512C166.771 328.018 167.136 328.427 167.586 328.427Z" fill="black"/>
<path d="M187.559 321.307V330.8H185.439V327.24H179.077V330.8H176.957V321.307H179.077V324.867H185.439V321.307H187.559Z" fill="black"/>
<path d="M205.578 321.307V330.8H203.458V327.24H197.096V330.8H194.977V321.307H197.096V324.867H203.458V321.307H205.578Z" fill="#930043"/>
<path d="M218.01 321.307V330.8H215.947V329.783L215.122 330.8H209.84C208.59 330.655 207.588 329.572 207.406 328.191V321.307H209.526V327.514C209.526 328.018 209.892 328.427 210.342 328.427H215.883L215.888 321.307H218.01Z" fill="#930043"/>
<path d="M230.512 327.28C230.539 327.45 230.553 327.626 230.553 327.804C230.553 328.012 230.535 328.216 230.498 328.411C230.264 329.685 229.305 330.664 228.124 330.784C228.044 330.792 227.962 330.797 227.878 330.797C227.794 330.797 227.715 330.792 227.633 330.784H222.044V330.797H219.924V328.414H219.926V327.282H219.924V324.93H219.926V323.643H219.924V321.294H227.878C229.164 321.294 230.241 322.311 230.496 323.666C230.535 323.867 230.553 324.073 230.553 324.287C230.553 324.5 230.532 324.706 230.496 324.907C230.419 325.327 230.26 325.713 230.044 326.046C230.275 326.405 230.439 326.825 230.512 327.28ZM228.433 324.287C228.433 323.946 228.185 323.666 227.878 323.666H226.308V323.643H222.046V324.93H226.308V324.907H227.878C227.978 324.907 228.069 324.879 228.151 324.828C228.319 324.722 228.433 324.518 228.433 324.287ZM228.433 327.806C228.433 327.585 228.328 327.392 228.174 327.282H222.048V328.414H227.992C228.242 328.355 228.433 328.104 228.433 327.806Z" fill="#930043"/>
<defs>
<clipPath id="clip0_929_2668">
<rect width="20.072" height="29.3157" fill="white" transform="translate(167.035 283.911)"/>
</clipPath>
</defs>
</svg>
