<svg width="355" height="400" viewBox="0 0 355 400" fill="none" xmlns="http://www.w3.org/2000/svg">
<path d="M16.0954 81.9397L162.091 5.18367C171.362 0.297499 182.792 0.297499 192.063 5.18367L338.058 81.9397C347.329 86.8259 353.044 95.8306 353.044 105.584V294.591C353.044 304.345 347.329 313.35 338.058 318.236L192.063 394.992C182.792 399.878 171.362 399.878 162.091 394.992L16.0954 318.236C6.82421 313.35 1.10938 304.345 1.10938 294.591V105.584C1.10937 95.8119 6.82421 86.8071 16.0954 81.9397Z" fill="white" stroke="#930043" stroke-width="2.23497" stroke-miterlimit="10"/>
<path d="M329.597 286.067C329.597 293.588 325.152 300.604 317.97 304.365L187.1 373.065C179.918 376.826 171.008 376.826 163.868 373.065L32.9564 304.365C25.7749 300.604 21.3303 293.588 21.3303 286.067V269.409H14.0254V286.067C14.0254 295.946 19.8693 305.151 29.2936 310.09L160.205 378.809C164.897 381.279 170.185 382.513 175.474 382.513C180.741 382.513 186.009 381.279 190.721 378.809L321.633 310.09C331.058 305.151 336.901 295.946 336.901 286.067V269.409H329.617V286.067H329.597ZM321.633 90.0751L190.721 21.3748C181.318 16.4169 169.609 16.4356 160.205 21.3748L29.3142 90.0751C19.8899 95.0331 14.046 104.238 14.046 114.116V207.756H21.3509V114.116C21.3509 106.595 25.7955 99.5794 32.9769 95.8188L163.827 27.1186C171.008 23.358 179.918 23.358 187.059 27.1186L317.97 95.8188C325.152 99.5794 329.597 106.595 329.597 114.116V207.756H336.881V114.116C336.901 104.238 331.058 95.0331 321.633 90.0751Z" fill="#930043"/>
<path d="M103.216 95.8343V77.7619H106.786L109.348 91.5986L111.91 77.7619H115.48V95.8343H112.898V81.5741L110.316 95.8343H108.38L105.798 81.5741V95.8343H103.216ZM124.373 96.0158C123.465 96.0158 122.686 95.878 122.033 95.6023C121.388 95.3267 120.874 94.9233 120.49 94.3921C120.107 93.861 119.828 93.2391 119.653 92.5264C119.478 91.807 119.391 90.9733 119.391 90.0253V83.4701C119.391 82.5221 119.478 81.6951 119.653 80.9891C119.828 80.2832 120.107 79.6714 120.49 79.1537C120.874 78.6292 121.388 78.2359 122.033 77.9737C122.686 77.7115 123.465 77.5804 124.373 77.5804C126.135 77.5804 127.405 78.0846 128.185 79.0932C128.965 80.1017 129.355 81.5606 129.355 83.4701V90.0253C129.355 90.9599 129.264 91.7868 129.083 92.5062C128.908 93.2189 128.629 93.8442 128.246 94.382C127.862 94.9132 127.345 95.32 126.693 95.6023C126.047 95.878 125.274 96.0158 124.373 96.0158ZM122.487 93.0811C122.837 93.6257 123.465 93.898 124.373 93.898C125.281 93.898 125.906 93.6257 126.249 93.0811C126.598 92.5365 126.773 91.733 126.773 90.6708V82.8246C126.773 81.7758 126.602 80.9925 126.259 80.4748C125.916 79.9571 125.287 79.6983 124.373 79.6983C123.459 79.6983 122.83 79.9571 122.487 80.4748C122.144 80.9925 121.973 81.7758 121.973 82.8246V90.6708C121.973 91.733 122.144 92.5365 122.487 93.0811ZM137.976 96.0158C136.349 96.0158 135.105 95.5385 134.245 94.5837C133.391 93.629 132.913 92.3247 132.813 90.6708L135.394 90.0253C135.522 92.6071 136.383 93.898 137.976 93.898C139.267 93.898 139.912 93.2525 139.912 91.9616C139.912 91.5784 139.859 91.2254 139.751 90.9027C139.65 90.5733 139.492 90.2741 139.277 90.0051C139.062 89.7295 138.867 89.511 138.692 89.3496C138.517 89.1815 138.279 88.9765 137.976 88.7344L134.749 86.1527C134.157 85.6888 133.683 85.1005 133.327 84.3878C132.977 83.6684 132.803 82.8515 132.803 81.9371C132.803 80.6059 133.216 79.547 134.043 78.7603C134.87 77.9737 135.966 77.5804 137.331 77.5804C138.796 77.5804 139.96 77.9401 140.82 78.6595C141.687 79.3722 142.222 80.384 142.424 81.6951C142.444 81.8363 142.467 82.0313 142.494 82.28L139.912 82.9255C139.906 82.8112 139.889 82.6397 139.862 82.4111C139.748 81.5909 139.489 80.9353 139.086 80.4445C138.689 79.947 138.104 79.6983 137.331 79.6983C136.712 79.6983 136.235 79.8731 135.899 80.2227C135.562 80.5656 135.394 81.0463 135.394 81.6648C135.394 82.6801 135.825 83.5306 136.685 84.2163L139.912 86.7981C141.634 88.1898 142.494 89.8539 142.494 91.7902C142.494 93.1147 142.084 94.1501 141.264 94.8964C140.45 95.6427 139.354 96.0158 137.976 96.0158ZM147.959 95.8343V80.0613H144.732V77.7619H153.768V80.0613H150.54V95.8343H147.959ZM165.13 85.5072H165.776C166.851 85.5072 167.658 85.282 168.196 84.8315C168.734 84.3743 169.003 83.6314 169.003 82.6027C169.003 81.5741 168.734 80.8345 168.196 80.384C167.658 79.9268 166.851 79.6983 165.776 79.6983H165.13V85.5072ZM162.549 95.8343V77.7619H165.776C167.699 77.7619 169.147 78.1351 170.122 78.8814C171.097 79.6277 171.585 80.8681 171.585 82.6027C171.585 83.6785 171.393 84.5794 171.01 85.3055C170.627 86.0316 170.065 86.5292 169.326 86.7981L172.23 95.8343H169.669L167.067 87.4436H165.13V95.8343H162.549ZM175.375 95.8343V77.7619H182.475V79.6983H177.957V85.5072H181.184V87.4436H177.957V93.898H182.475V95.8343H175.375ZM188.423 95.8343L184.551 77.7619H187.133L189.039 87.4436L189.704 91.9616L190.39 87.4436L192.296 77.7619H194.878L191.005 95.8343H188.423ZM198.063 95.8343V77.7619H200.645V95.8343H198.063ZM205.061 95.8343V77.7619H212.16V79.6983H207.642V85.5072H210.869V87.4436H207.642V93.898H212.16V95.8343H205.061ZM217.453 95.8343L214.226 77.7619H216.808L218.099 86.1527L218.754 91.3162L219.39 86.1527L220.681 77.7619H223.262L224.553 86.1527L225.189 91.3162L225.844 86.1527L227.135 77.7619H229.717L226.49 95.8343H223.908L222.617 87.4436L221.971 82.28L221.326 87.4436L220.035 95.8343H217.453ZM232.771 95.8343V77.7619H239.871V79.6983H235.353V85.5072H238.58V87.4436H235.353V93.898H239.871V95.8343H232.771ZM243.117 95.8343V77.7619H247.12C249.01 77.7619 250.341 78.1485 251.114 78.9217C251.894 79.6949 252.284 81.0295 252.284 82.9255V90.0253C252.284 92.0087 251.887 93.4744 251.094 94.4224C250.307 95.3637 248.976 95.8343 247.1 95.8343H243.117ZM245.698 93.898H247.12C247.544 93.898 247.907 93.861 248.209 93.787C248.512 93.7063 248.757 93.5652 248.946 93.3635C249.134 93.155 249.282 92.9601 249.389 92.7785C249.497 92.5903 249.571 92.3012 249.611 91.9112C249.658 91.5213 249.685 91.2019 249.692 90.9531C249.699 90.6977 249.702 90.3043 249.702 89.7732C249.702 89.5984 249.702 89.4673 249.702 89.3799V83.5709C249.702 83.2415 249.699 82.9792 249.692 82.7843C249.692 82.5893 249.682 82.3607 249.662 82.0985C249.648 81.8296 249.625 81.6178 249.591 81.4631C249.558 81.3085 249.51 81.137 249.45 80.9488C249.389 80.7538 249.312 80.6025 249.218 80.495C249.131 80.3874 249.02 80.2765 248.885 80.1622C248.757 80.0411 248.606 79.9537 248.431 79.9C248.263 79.8394 248.065 79.7924 247.836 79.7588C247.608 79.7184 247.352 79.6983 247.07 79.6983H245.698V93.898Z" fill="#930043"/>
<path d="M85.2553 148V127.898H90.0698C91.4265 127.898 92.568 128.064 93.4945 128.395C94.4376 128.709 95.149 129.255 95.6288 130.033C96.1251 130.81 96.3733 131.869 96.3733 133.209C96.3733 134.02 96.2989 134.748 96.15 135.393C96.0011 136.038 95.7446 136.592 95.3806 137.056C95.0332 137.502 94.5451 137.85 93.9164 138.098L96.7208 148H93.0478L90.6158 138.793H88.9282V148H85.2553ZM88.9282 136.485H90.0698C90.7812 136.485 91.3437 136.386 91.7574 136.187C92.1875 135.972 92.4936 135.641 92.6756 135.194C92.8576 134.731 92.9486 134.144 92.9486 133.432C92.9486 132.423 92.7583 131.67 92.3778 131.174C92.0138 130.661 91.3107 130.405 90.2683 130.405H88.9282V136.485ZM99.1664 148V127.898H107.604V130.479H102.839V136.262H106.587V138.818H102.839V145.469H107.654V148H99.1664ZM108.764 148L112.784 127.898H116.705L120.726 148H117.326L116.532 143.359H113.032L112.214 148H108.764ZM113.405 141.026H116.135L114.77 132.589L113.405 141.026ZM127.939 148.273C126.467 148.273 125.309 147.983 124.465 147.404C123.638 146.825 123.059 146.039 122.728 145.047C122.397 144.038 122.231 142.879 122.231 141.572V134.4C122.231 133.027 122.397 131.836 122.728 130.827C123.059 129.817 123.638 129.04 124.465 128.494C125.309 127.948 126.467 127.675 127.939 127.675C129.329 127.675 130.413 127.915 131.19 128.395C131.984 128.858 132.547 129.528 132.878 130.405C133.209 131.282 133.374 132.299 133.374 133.457V135.145H129.85V133.408C129.85 132.845 129.817 132.332 129.751 131.869C129.701 131.406 129.544 131.042 129.279 130.777C129.031 130.496 128.593 130.355 127.964 130.355C127.335 130.355 126.872 130.504 126.574 130.802C126.293 131.083 126.111 131.472 126.028 131.968C125.946 132.448 125.904 132.994 125.904 133.606V142.342C125.904 143.07 125.962 143.674 126.078 144.153C126.194 144.617 126.401 144.972 126.698 145.221C127.013 145.452 127.435 145.568 127.964 145.568C128.576 145.568 129.006 145.427 129.255 145.146C129.519 144.848 129.685 144.459 129.751 143.98C129.817 143.5 129.85 142.962 129.85 142.367V140.555H133.374V142.168C133.374 143.359 133.217 144.418 132.903 145.345C132.588 146.255 132.034 146.974 131.24 147.504C130.462 148.017 129.362 148.273 127.939 148.273ZM137.942 148V130.603H134.74V127.898H144.766V130.603H141.614V148H137.942ZM152.629 148V127.898H155.186L160.075 139.364V127.898H163.102V148H160.67L155.756 135.989V148H152.629ZM165.135 148L169.156 127.898H173.077L177.097 148H173.697L172.903 143.359H169.404L168.585 148H165.135ZM169.776 141.026H172.506L171.141 132.589L169.776 141.026ZM180.184 148V130.603H176.982V127.898H187.008V130.603H183.857V148H180.184ZM188.936 148V127.898H192.56V148H188.936ZM198.749 148L194.704 127.898H197.955L200.61 142.118L203.092 127.898H206.417L202.372 148H198.749ZM208.468 148V127.898H216.905V130.479H212.141V136.262H215.888V138.818H212.141V145.469H216.955V148H208.468ZM224.1 148L228.12 127.898H232.041L236.062 148H232.662L231.867 143.359H228.368L227.549 148H224.1ZM228.741 141.026H231.47L230.105 132.589L228.741 141.026ZM238.083 148V127.898H243.99C245.197 127.898 246.173 128.122 246.918 128.568C247.679 129.015 248.233 129.669 248.581 130.529C248.945 131.373 249.127 132.398 249.127 133.606C249.127 134.913 248.903 135.972 248.457 136.783C248.01 137.577 247.381 138.156 246.571 138.52C245.776 138.884 244.833 139.066 243.741 139.066H241.756V148H238.083ZM241.756 136.485H243.146C243.808 136.485 244.32 136.394 244.684 136.212C245.065 136.013 245.321 135.707 245.454 135.294C245.603 134.864 245.677 134.293 245.677 133.581C245.677 132.853 245.619 132.266 245.503 131.819C245.404 131.356 245.173 131.017 244.809 130.802C244.461 130.587 243.907 130.479 243.146 130.479H241.756V136.485ZM251.17 148V127.898H257.077C258.284 127.898 259.261 128.122 260.005 128.568C260.766 129.015 261.32 129.669 261.668 130.529C262.032 131.373 262.214 132.398 262.214 133.606C262.214 134.913 261.99 135.972 261.544 136.783C261.097 137.577 260.468 138.156 259.658 138.52C258.863 138.884 257.92 139.066 256.829 139.066H254.843V148H251.17ZM254.843 136.485H256.233C256.895 136.485 257.408 136.394 257.772 136.212C258.152 136.013 258.409 135.707 258.541 135.294C258.69 134.864 258.764 134.293 258.764 133.581C258.764 132.853 258.706 132.266 258.591 131.819C258.491 131.356 258.26 131.017 257.896 130.802C257.548 130.587 256.994 130.479 256.233 130.479H254.843V136.485ZM50.0535 185V164.898H54.7936C56.4315 164.898 57.7054 165.122 58.6154 165.568C59.5419 166.015 60.1954 166.702 60.5759 167.628C60.973 168.555 61.1715 169.729 61.1715 171.152V178.498C61.1715 179.954 60.973 181.17 60.5759 182.146C60.1954 183.106 59.5502 183.825 58.6402 184.305C57.7468 184.768 56.5142 185 54.9425 185H50.0535ZM53.7264 182.444H54.8432C55.687 182.444 56.2909 182.295 56.6548 181.997C57.0188 181.699 57.2422 181.269 57.3249 180.707C57.4076 180.128 57.449 179.424 57.449 178.597V170.904C57.449 170.093 57.3911 169.44 57.2753 168.943C57.1595 168.447 56.9196 168.083 56.5556 167.851C56.1916 167.62 55.6043 167.504 54.7936 167.504H53.7264V182.444ZM63.8677 185V164.898H72.3054V167.479H67.5406V173.262H71.2879V175.818H67.5406V182.469H72.3551V185H63.8677ZM77.56 185L73.5149 164.898H76.7659L79.4213 179.118L81.903 164.898H85.2285L81.1833 185H77.56ZM87.279 185V164.898H95.7167V167.479H90.9519V173.262H94.6992V175.818H90.9519V182.469H95.7664V185H87.279ZM97.894 185V164.898H101.567V182.469H106.431V185H97.894ZM113.557 185.273C112.134 185.273 111.001 185.008 110.157 184.479C109.313 183.949 108.709 183.188 108.345 182.196C107.981 181.203 107.799 180.028 107.799 178.672V171.152C107.799 169.795 107.981 168.637 108.345 167.678C108.709 166.702 109.313 165.957 110.157 165.444C111.001 164.931 112.134 164.675 113.557 164.675C115.013 164.675 116.154 164.931 116.982 165.444C117.825 165.957 118.429 166.702 118.793 167.678C119.174 168.637 119.364 169.795 119.364 171.152V178.696C119.364 180.037 119.174 181.203 118.793 182.196C118.429 183.172 117.825 183.933 116.982 184.479C116.154 185.008 115.013 185.273 113.557 185.273ZM113.557 182.568C114.169 182.568 114.616 182.436 114.897 182.171C115.195 181.906 115.393 181.542 115.493 181.079C115.592 180.616 115.641 180.111 115.641 179.565V170.308C115.641 169.746 115.592 169.241 115.493 168.795C115.393 168.348 115.195 168 114.897 167.752C114.616 167.488 114.169 167.355 113.557 167.355C112.978 167.355 112.539 167.488 112.242 167.752C111.944 168 111.745 168.348 111.646 168.795C111.547 169.241 111.497 169.746 111.497 170.308V179.565C111.497 180.111 111.538 180.616 111.621 181.079C111.72 181.542 111.919 181.906 112.217 182.171C112.515 182.436 112.961 182.568 113.557 182.568ZM122.081 185V164.898H127.987C129.195 164.898 130.171 165.122 130.916 165.568C131.677 166.015 132.231 166.669 132.578 167.529C132.942 168.373 133.124 169.398 133.124 170.606C133.124 171.913 132.901 172.972 132.454 173.783C132.008 174.577 131.379 175.156 130.568 175.52C129.774 175.884 128.831 176.066 127.739 176.066H125.754V185H122.081ZM125.754 173.485H127.144C127.805 173.485 128.318 173.394 128.682 173.212C129.063 173.013 129.319 172.707 129.452 172.294C129.6 171.864 129.675 171.293 129.675 170.581C129.675 169.853 129.617 169.266 129.501 168.819C129.402 168.356 129.17 168.017 128.806 167.802C128.459 167.587 127.905 167.479 127.144 167.479H125.754V173.485ZM135.118 185L135.466 164.898H139.263L142.117 178.821L145.095 164.898H148.768L149.14 185H146.41L146.112 171.028L143.258 185H141.05L138.146 170.978L137.873 185H135.118ZM152.108 185V164.898H160.546V167.479H155.781V173.262H159.529V175.818H155.781V182.469H160.596V185H152.108ZM162.723 185V164.898H165.28L170.169 176.364V164.898H173.196V185H170.764L165.85 172.989V185H162.723ZM178.257 185V167.603H175.056V164.898H185.082V167.603H181.93V185H178.257ZM198.355 185.273C196.883 185.273 195.724 184.983 194.881 184.404C194.053 183.825 193.474 183.039 193.143 182.047C192.813 181.038 192.647 179.879 192.647 178.572V171.4C192.647 170.027 192.813 168.836 193.143 167.827C193.474 166.817 194.053 166.04 194.881 165.494C195.724 164.948 196.883 164.675 198.355 164.675C199.745 164.675 200.828 164.915 201.606 165.395C202.4 165.858 202.963 166.528 203.294 167.405C203.624 168.282 203.79 169.299 203.79 170.457V172.145H200.266V170.408C200.266 169.845 200.233 169.332 200.167 168.869C200.117 168.406 199.96 168.042 199.695 167.777C199.447 167.496 199.009 167.355 198.38 167.355C197.751 167.355 197.288 167.504 196.99 167.802C196.709 168.083 196.527 168.472 196.444 168.968C196.361 169.448 196.32 169.994 196.32 170.606V179.342C196.32 180.07 196.378 180.674 196.494 181.153C196.61 181.617 196.816 181.972 197.114 182.221C197.429 182.452 197.85 182.568 198.38 182.568C198.992 182.568 199.422 182.427 199.67 182.146C199.935 181.848 200.1 181.459 200.167 180.98C200.233 180.5 200.266 179.962 200.266 179.367V177.555H203.79V179.168C203.79 180.359 203.633 181.418 203.318 182.345C203.004 183.255 202.45 183.974 201.656 184.504C200.878 185.017 199.778 185.273 198.355 185.273ZM211.807 185.273C210.384 185.273 209.251 185.008 208.407 184.479C207.563 183.949 206.959 183.188 206.595 182.196C206.231 181.203 206.049 180.028 206.049 178.672V171.152C206.049 169.795 206.231 168.637 206.595 167.678C206.959 166.702 207.563 165.957 208.407 165.444C209.251 164.931 210.384 164.675 211.807 164.675C213.263 164.675 214.404 164.931 215.231 165.444C216.075 165.957 216.679 166.702 217.043 167.678C217.424 168.637 217.614 169.795 217.614 171.152V178.696C217.614 180.037 217.424 181.203 217.043 182.196C216.679 183.172 216.075 183.933 215.231 184.479C214.404 185.008 213.263 185.273 211.807 185.273ZM211.807 182.568C212.419 182.568 212.866 182.436 213.147 182.171C213.445 181.906 213.643 181.542 213.742 181.079C213.842 180.616 213.891 180.111 213.891 179.565V170.308C213.891 169.746 213.842 169.241 213.742 168.795C213.643 168.348 213.445 168 213.147 167.752C212.866 167.488 212.419 167.355 211.807 167.355C211.228 167.355 210.789 167.488 210.491 167.752C210.194 168 209.995 168.348 209.896 168.795C209.797 169.241 209.747 169.746 209.747 170.308V179.565C209.747 180.111 209.788 180.616 209.871 181.079C209.97 181.542 210.169 181.906 210.467 182.171C210.764 182.436 211.211 182.568 211.807 182.568ZM220.281 185L220.629 164.898H224.426L227.28 178.821L230.258 164.898H233.93L234.303 185H231.573L231.275 171.028L228.421 185H226.212L223.309 170.978L223.036 185H220.281ZM237.271 185V164.898H243.178C244.385 164.898 245.362 165.122 246.106 165.568C246.867 166.015 247.421 166.669 247.769 167.529C248.133 168.373 248.315 169.398 248.315 170.606C248.315 171.913 248.091 172.972 247.645 173.783C247.198 174.577 246.569 175.156 245.759 175.52C244.965 175.884 244.021 176.066 242.93 176.066H240.944V185H237.271ZM240.944 173.485H242.334C242.996 173.485 243.509 173.394 243.873 173.212C244.253 173.013 244.51 172.707 244.642 172.294C244.791 171.864 244.865 171.293 244.865 170.581C244.865 169.853 244.807 169.266 244.692 168.819C244.592 168.356 244.361 168.017 243.997 167.802C243.649 167.587 243.095 167.479 242.334 167.479H240.944V173.485ZM248.274 185L252.295 164.898H256.216L260.236 185H256.836L256.042 180.359H252.543L251.724 185H248.274ZM252.915 178.026H255.645L254.28 169.589L252.915 178.026ZM262.258 185V164.898H264.814L269.703 176.364V164.898H272.731V185H270.299L265.385 172.989V185H262.258ZM275.88 185V164.898H279.504V185H275.88ZM282.616 185V164.898H291.053V167.479H286.288V173.262H290.036V175.818H286.288V182.469H291.103V185H282.616ZM298.293 185.273C297.086 185.273 296.076 185.041 295.266 184.578C294.455 184.098 293.843 183.403 293.429 182.493C293.016 181.584 292.784 180.467 292.734 179.143L295.886 178.523C295.919 179.3 296.01 179.987 296.159 180.583C296.324 181.178 296.564 181.641 296.879 181.972C297.21 182.287 297.64 182.444 298.169 182.444C298.765 182.444 299.187 182.27 299.435 181.923C299.683 181.559 299.807 181.104 299.807 180.558C299.807 179.681 299.609 178.961 299.211 178.399C298.814 177.836 298.285 177.274 297.623 176.711L295.092 174.478C294.38 173.865 293.81 173.187 293.38 172.443C292.966 171.682 292.759 170.747 292.759 169.638C292.759 168.05 293.222 166.826 294.149 165.965C295.075 165.105 296.341 164.675 297.946 164.675C298.889 164.675 299.675 164.824 300.303 165.122C300.932 165.403 301.428 165.8 301.792 166.313C302.173 166.826 302.454 167.413 302.636 168.075C302.818 168.72 302.934 169.407 302.984 170.135L299.857 170.681C299.824 170.052 299.749 169.489 299.633 168.993C299.534 168.497 299.344 168.108 299.063 167.827C298.798 167.545 298.401 167.405 297.871 167.405C297.325 167.405 296.904 167.587 296.606 167.951C296.324 168.298 296.184 168.737 296.184 169.266C296.184 169.944 296.324 170.507 296.606 170.954C296.887 171.384 297.292 171.83 297.822 172.294L300.328 174.502C301.155 175.197 301.859 176.016 302.438 176.959C303.033 177.886 303.331 179.011 303.331 180.334C303.331 181.294 303.116 182.146 302.686 182.891C302.272 183.635 301.685 184.222 300.924 184.653C300.179 185.066 299.302 185.273 298.293 185.273Z" fill="black"/>
<rect x="1.10938" y="216.008" width="351.935" height="44.37" fill="#930043"/>
<circle cx="177.579" cy="235.165" r="37.3111" fill="white"/>
<path d="M69.7804 223.671L74.1737 232.571L83.9983 234.007L76.8894 240.931L78.5671 250.713L69.7804 246.092L60.9937 250.713L62.6715 240.931L55.5625 234.007L65.3871 232.571L69.7804 223.671Z" fill="white"/>
<path d="M110.884 223.671L115.277 232.571L125.102 234.007L117.993 240.931L119.671 250.713L110.884 246.092L102.097 250.713L103.775 240.931L96.666 234.007L106.491 232.571L110.884 223.671Z" fill="white"/>
<path d="M178.787 213.984L186.327 229.259L203.188 231.724L190.987 243.607L193.867 260.394L178.787 252.464L163.708 260.394L166.587 243.607L154.387 231.724L171.247 229.259L178.787 213.984Z" fill="#930043"/>
<path d="M240.56 223.671L244.953 232.571L254.778 234.007L247.669 240.931L249.346 250.713L240.56 246.092L231.773 250.713L233.451 240.931L226.342 234.007L236.166 232.571L240.56 223.671Z" fill="white"/>
<path d="M281.663 223.671L286.057 232.571L295.881 234.007L288.772 240.931L290.45 250.713L281.663 246.092L272.877 250.713L274.554 240.931L267.445 234.007L277.27 232.571L281.663 223.671Z" fill="white"/>
<g clip-path="url(#clip0_929_2469)">
<path d="M185.521 290.143V294.897H181.031V284.068H179.446V294.897H174.692V284.068H173.108V300.971H168.618V290.143H167.033V307.31H168.618V302.556H179.446V313.384H181.031V296.481H185.521V307.31H187.105V290.143H185.521ZM179.446 300.971H174.692V296.481H179.446V300.971Z" fill="#930043"/>
<path d="M174.692 303.35H173.107V313.386H174.692V303.35Z" fill="#930043"/>
</g>
<path d="M134.189 321.465V330.958H132.07V327.398H125.708V330.958H123.588V321.465H125.708V325.026H132.07V321.465H134.189Z" fill="black"/>
<path d="M136 330.959V321.451H138.641V330.959H136Z" fill="black"/>
<path d="M150.785 323.837H146.545V330.957H144.426V323.837H140.184V321.464H150.785V323.837Z" fill="black"/>
<path d="M162.828 321.464V323.837H154.346V323.839H152.227V321.464H162.828ZM162.828 325.225V327.16H154.346V327.166H152.227V325.225H162.828ZM162.828 328.585V330.957H152.227V328.585H162.828Z" fill="black"/>
<path d="M175.25 324.539V325.617H173.13V324.75C173.13 324.246 172.765 323.837 172.315 323.837H164.649V321.464H172.503C172.719 321.464 172.928 321.492 173.13 321.546C174.144 321.81 174.941 322.703 175.18 323.839C175.225 324.063 175.25 324.297 175.25 324.539ZM167.584 328.585H175.25V330.957H167.396C167.298 330.957 167.203 330.952 167.109 330.939C166.994 330.927 166.88 330.904 166.769 330.876C165.755 330.611 164.958 329.719 164.719 328.582C164.701 328.498 164.687 328.414 164.676 328.33C164.658 328.183 164.646 328.033 164.646 327.88V325.124H166.766V327.669C166.769 328.175 167.134 328.585 167.584 328.585Z" fill="black"/>
<path d="M187.557 321.464V330.957H185.437V327.397H179.075V330.957H176.955V321.464H179.075V325.024H185.437V321.464H187.557Z" fill="black"/>
<path d="M205.576 321.464V330.957H203.456V327.397H197.094V330.957H194.975V321.464H197.094V325.024H203.456V321.464H205.576Z" fill="#930043"/>
<path d="M218.008 321.464V330.957H215.945V329.94L215.12 330.957H209.838C208.588 330.812 207.586 329.729 207.404 328.348V321.464H209.524V327.672C209.524 328.175 209.89 328.585 210.34 328.585H215.881L215.886 321.464H218.008Z" fill="#930043"/>
<path d="M230.51 327.437C230.537 327.608 230.551 327.783 230.551 327.961C230.551 328.17 230.533 328.373 230.496 328.569C230.262 329.843 229.303 330.822 228.122 330.942C228.042 330.949 227.961 330.954 227.876 330.954C227.792 330.954 227.713 330.949 227.631 330.942H222.042V330.954H219.922V328.572H219.924V327.44H219.922V325.088H219.924V323.801H219.922V321.451H227.876C229.162 321.451 230.239 322.468 230.494 323.824C230.533 324.025 230.551 324.231 230.551 324.444C230.551 324.658 230.53 324.864 230.494 325.065C230.417 325.484 230.258 325.871 230.042 326.204C230.274 326.563 230.437 326.982 230.51 327.437ZM228.431 324.444C228.431 324.104 228.183 323.824 227.876 323.824H226.306V323.801H222.044V325.088H226.306V325.065H227.876C227.976 325.065 228.067 325.037 228.149 324.986C228.317 324.879 228.431 324.676 228.431 324.444ZM228.431 327.964C228.431 327.743 228.326 327.549 228.172 327.44H222.046V328.572H227.99C228.24 328.513 228.431 328.261 228.431 327.964Z" fill="#930043"/>
<defs>
<clipPath id="clip0_929_2469">
<rect width="20.072" height="29.3157" fill="white" transform="translate(167.033 284.068)"/>
</clipPath>
</defs>
</svg>
