<?xml version="1.0" encoding="UTF-8"?>
<svg xmlns="http://www.w3.org/2000/svg" width="24" height="25" viewBox="0 0 24 25" fill="none">
  <mask id="mask0_1081_1130" style="mask-type:luminance" maskUnits="userSpaceOnUse" x="2" y="3" width="20" height="20">
    <path d="M22 3H2V23H22V3Z" fill="white"></path>
  </mask>
  <g mask="url(#mask0_1081_1130)">
    <path d="M21.7873 11.1276L12.307 4.18631C12.1242 4.05248 11.8758 4.05248 11.6931 4.18631L2.21272 11.1276C1.98116 11.2972 1.93084 11.6223 2.10041 11.8539C2.26998 12.0854 2.59518 12.1357 2.8267 11.9662L12 5.24963L21.1733 11.9662C21.2658 12.0339 21.3733 12.0666 21.4799 12.0666C21.6399 12.0666 21.7978 11.9929 21.8996 11.8538C22.0692 11.6223 22.0189 11.2972 21.7873 11.1276Z" fill="black"></path>
    <path d="M19.2752 12.084C18.9882 12.084 18.7555 12.3167 18.7555 12.6036V20.8751H14.5984V16.36C14.5984 14.9272 13.4327 13.7616 12 13.7616C10.5672 13.7616 9.40152 14.9272 9.40152 16.36V20.8751H5.24437V12.6037C5.24437 12.3167 5.01168 12.084 4.72472 12.084C4.43777 12.084 4.20508 12.3167 4.20508 12.6037V21.3947C4.20508 21.6817 4.43777 21.9144 4.72472 21.9144H9.92117C10.1945 21.9144 10.4181 21.7033 10.4388 21.4352C10.4401 21.4231 10.4408 21.4098 10.4408 21.3947V16.36C10.4408 15.5003 11.1402 14.8009 12 14.8009C12.8597 14.8009 13.5591 15.5003 13.5591 16.36V21.3947C13.5591 21.4097 13.5599 21.4228 13.5612 21.4348C13.5816 21.703 13.8053 21.9144 14.0787 21.9144H19.2752C19.5622 21.9144 19.7948 21.6817 19.7948 21.3947V12.6037C19.7948 12.3167 19.5622 12.084 19.2752 12.084Z" fill="black"></path>
  </g>
</svg>
