<?xml version="1.0" encoding="UTF-8"?>
<svg xmlns="http://www.w3.org/2000/svg" width="25" height="25" viewBox="0 0 25 25" fill="none">
  <path d="M6.79133 19.6442C6.60639 19.6442 6.45508 19.4928 6.45508 19.3079V16.3187C6.45508 16.1337 6.60639 15.9824 6.79133 15.9824H8.06234C8.57007 15.9824 8.98366 16.3523 8.98366 16.8062V17.324C8.98366 17.778 8.57007 18.1479 8.06234 18.1479H7.12757V19.3079C7.12757 19.4928 6.97626 19.6442 6.79133 19.6442ZM7.12757 17.4787H8.06234C8.20356 17.4787 8.31116 17.398 8.31116 17.3274V16.8096C8.31116 16.739 8.20693 16.6583 8.06234 16.6583H7.12757V17.4787Z" fill="black"></path>
  <path d="M8.64931 19.6442C8.53835 19.6442 8.42739 19.587 8.3635 19.4861L7.43546 17.9898C7.33795 17.8318 7.38502 17.6233 7.54306 17.5258C7.7011 17.4283 7.90957 17.4754 8.00708 17.6334L8.93512 19.1297C9.03264 19.2877 8.98556 19.4962 8.82753 19.5937C8.77036 19.6273 8.70984 19.6442 8.64931 19.6442Z" fill="black"></path>
  <path d="M11.3622 19.7083H9.85578C9.67084 19.7083 9.51953 19.557 9.51953 19.372V16.3189C9.51953 16.134 9.67084 15.9827 9.85578 15.9827H11.4597C11.6446 15.9827 11.7959 16.134 11.7959 16.3189C11.7959 16.5038 11.6446 16.6552 11.4597 16.6552H10.192V19.0358H11.3622C11.5471 19.0358 11.6984 19.1871 11.6984 19.372C11.6984 19.557 11.5471 19.7083 11.3622 19.7083Z" fill="black"></path>
  <path d="M11.4597 18.1815H9.85578C9.67084 18.1815 9.51953 18.0302 9.51953 17.8453C9.51953 17.6603 9.67084 17.509 9.85578 17.509H11.4597C11.6446 17.509 11.7959 17.6603 11.7959 17.8453C11.7959 18.0302 11.6446 18.1815 11.4597 18.1815Z" fill="black"></path>
  <path d="M14.6618 19.7083C14.5508 19.7083 14.4432 19.6511 14.3794 19.5536L13.0377 17.4655V19.372C13.0377 19.557 12.8864 19.7083 12.7015 19.7083C12.5165 19.7083 12.3652 19.557 12.3652 19.372V16.3189C12.3652 16.171 12.4627 16.0398 12.6073 15.9961C12.7519 15.9558 12.9032 16.0129 12.9839 16.1373L14.3256 18.2254V16.3189C14.3256 16.134 14.4769 15.9827 14.6618 15.9827C14.8467 15.9827 14.9981 16.134 14.9981 16.3189V19.372C14.9981 19.52 14.9005 19.6511 14.756 19.6948C14.7257 19.7016 14.6921 19.7083 14.6618 19.7083Z" fill="black"></path>
  <path d="M17.8686 16.6552H15.6898C15.5048 16.6552 15.3535 16.5038 15.3535 16.3189C15.3535 16.134 15.5048 15.9827 15.6898 15.9827H17.8686C18.0536 15.9827 18.2049 16.134 18.2049 16.3189C18.2049 16.5038 18.0569 16.6552 17.8686 16.6552Z" fill="black"></path>
  <path d="M16.7777 19.6444C16.5927 19.6444 16.4414 19.4931 16.4414 19.3082V16.3189C16.4414 16.134 16.5927 15.9827 16.7777 15.9827C16.9626 15.9827 17.1139 16.134 17.1139 16.3189V19.3082C17.1139 19.4931 16.9626 19.6444 16.7777 19.6444Z" fill="black"></path>
  <path d="M20.1708 23.0001H3.85609C2.83389 23.0001 2 22.1662 2 21.144V14.1972C2 13.175 2.83389 12.3411 3.85609 12.3411H20.1675C21.1896 12.3411 22.0235 13.175 22.0235 14.1972V21.144C22.0269 22.1696 21.193 23.0001 20.1708 23.0001ZM3.85609 13.0136C3.20377 13.0136 2.67249 13.5448 2.67249 14.1972V21.144C2.67249 21.7963 3.20377 22.3276 3.85609 22.3276H20.1675C20.8198 22.3276 21.351 21.7963 21.351 21.144V14.1972C21.351 13.5448 20.8198 13.0136 20.1675 13.0136H3.85609Z" fill="black"></path>
  <path d="M12.0147 6.49025C11.053 6.49025 10.2695 5.70679 10.2695 4.74512C10.2695 3.78346 11.053 3 12.0147 3C12.9763 3 13.7598 3.78346 13.7598 4.74512C13.7598 5.70679 12.9763 6.49025 12.0147 6.49025ZM12.0147 3.6725C11.4229 3.6725 10.942 4.15333 10.942 4.74512C10.942 5.33692 11.4229 5.81775 12.0147 5.81775C12.6065 5.81775 13.0873 5.33692 13.0873 4.74512C13.0873 4.15333 12.6065 3.6725 12.0147 3.6725Z" fill="black"></path>
  <path d="M4.6426 15.7537C4.0239 15.7537 3.51953 15.2493 3.51953 14.6306C3.51953 14.0119 4.0239 13.5076 4.6426 13.5076C5.26129 13.5076 5.76566 14.0119 5.76566 14.6306C5.76566 15.2493 5.26129 15.7537 4.6426 15.7537ZM4.6426 14.1834C4.39377 14.1834 4.19203 14.3852 4.19203 14.634C4.19203 14.8828 4.39377 15.0846 4.6426 15.0846C4.89142 15.0846 5.09317 14.8828 5.09317 14.634C5.09317 14.3852 4.88806 14.1834 4.6426 14.1834Z" fill="black"></path>
  <path d="M19.4746 15.7539C18.8559 15.7539 18.3516 15.2496 18.3516 14.6309C18.3516 14.0122 18.8559 13.5078 19.4746 13.5078C20.0933 13.5078 20.5977 14.0122 20.5977 14.6309C20.5977 15.2496 20.0933 15.7539 19.4746 15.7539ZM19.4746 14.1837C19.2258 14.1837 19.0241 14.3854 19.0241 14.6342C19.0241 14.8831 19.2258 15.0848 19.4746 15.0848C19.7235 15.0848 19.9252 14.8831 19.9252 14.6342C19.9252 14.3854 19.7201 14.1837 19.4746 14.1837Z" fill="black"></path>
  <path d="M3.85687 13.0137C3.77954 13.0137 3.69884 12.9868 3.63495 12.9296C3.49373 12.8086 3.48028 12.5934 3.60469 12.4555L10.37 4.71845C10.491 4.57722 10.7029 4.56377 10.8441 4.68818C10.9853 4.80923 10.9988 5.02443 10.8744 5.16229L4.10906 12.8993C4.04517 12.9767 3.95102 13.0137 3.85687 13.0137Z" fill="black"></path>
  <path d="M5.83449 13.0134C5.75715 13.0134 5.67981 12.9865 5.61593 12.9327C5.4747 12.8117 5.45789 12.5998 5.57894 12.4586L11.2649 5.84127C11.3859 5.70004 11.5978 5.68323 11.739 5.80428C11.8802 5.92533 11.897 6.13717 11.776 6.27839L6.09003 12.8991C6.02279 12.9764 5.92864 13.0134 5.83449 13.0134Z" fill="black"></path>
  <path d="M20.1724 13.0134C20.0783 13.0134 19.9841 12.973 19.9202 12.899L13.1549 5.16198C13.0339 5.02076 13.0473 4.80893 13.1852 4.68788C13.3264 4.56683 13.5382 4.58028 13.6593 4.71814L20.4246 12.4552C20.5456 12.5964 20.5322 12.8083 20.3943 12.9293C20.3304 12.9865 20.2531 13.0134 20.1724 13.0134Z" fill="black"></path>
  <path d="M18.1943 13.0134C18.1001 13.0134 18.006 12.9731 17.9387 12.8957L12.2528 6.27839C12.1317 6.13717 12.1485 5.92533 12.2898 5.80428C12.431 5.68323 12.6428 5.70004 12.7639 5.84127L18.4498 12.4586C18.5709 12.5998 18.554 12.8117 18.4128 12.9327C18.3523 12.9865 18.2716 13.0134 18.1943 13.0134Z" fill="black"></path>
  <path d="M6.79133 19.6442C6.60639 19.6442 6.45508 19.4928 6.45508 19.3079V16.3187C6.45508 16.1337 6.60639 15.9824 6.79133 15.9824H8.06234C8.57007 15.9824 8.98366 16.3523 8.98366 16.8062V17.324C8.98366 17.778 8.57007 18.1479 8.06234 18.1479H7.12757V19.3079C7.12757 19.4928 6.97626 19.6442 6.79133 19.6442ZM7.12757 17.4787H8.06234C8.20356 17.4787 8.31116 17.398 8.31116 17.3274V16.8096C8.31116 16.739 8.20693 16.6583 8.06234 16.6583H7.12757V17.4787Z" fill="black"></path>
  <path d="M8.64931 19.6442C8.53835 19.6442 8.42739 19.587 8.3635 19.4861L7.43546 17.9898C7.33795 17.8318 7.38502 17.6233 7.54306 17.5258C7.7011 17.4283 7.90957 17.4754 8.00708 17.6334L8.93512 19.1297C9.03264 19.2877 8.98556 19.4962 8.82753 19.5937C8.77036 19.6273 8.70984 19.6442 8.64931 19.6442Z" fill="black"></path>
  <path d="M11.3622 19.7083H9.85578C9.67084 19.7083 9.51953 19.557 9.51953 19.372V16.3189C9.51953 16.134 9.67084 15.9827 9.85578 15.9827H11.4597C11.6446 15.9827 11.7959 16.134 11.7959 16.3189C11.7959 16.5038 11.6446 16.6552 11.4597 16.6552H10.192V19.0358H11.3622C11.5471 19.0358 11.6984 19.1871 11.6984 19.372C11.6984 19.557 11.5471 19.7083 11.3622 19.7083Z" fill="black"></path>
  <path d="M11.4597 18.1815H9.85578C9.67084 18.1815 9.51953 18.0302 9.51953 17.8453C9.51953 17.6603 9.67084 17.509 9.85578 17.509H11.4597C11.6446 17.509 11.7959 17.6603 11.7959 17.8453C11.7959 18.0302 11.6446 18.1815 11.4597 18.1815Z" fill="black"></path>
  <path d="M14.6618 19.7083C14.5508 19.7083 14.4432 19.6511 14.3794 19.5536L13.0377 17.4655V19.372C13.0377 19.557 12.8864 19.7083 12.7015 19.7083C12.5165 19.7083 12.3652 19.557 12.3652 19.372V16.3189C12.3652 16.171 12.4627 16.0398 12.6073 15.9961C12.7519 15.9558 12.9032 16.0129 12.9839 16.1373L14.3256 18.2254V16.3189C14.3256 16.134 14.4769 15.9827 14.6618 15.9827C14.8467 15.9827 14.9981 16.134 14.9981 16.3189V19.372C14.9981 19.52 14.9005 19.6511 14.756 19.6948C14.7257 19.7016 14.6921 19.7083 14.6618 19.7083Z" fill="black"></path>
  <path d="M17.8686 16.6552H15.6898C15.5048 16.6552 15.3535 16.5038 15.3535 16.3189C15.3535 16.134 15.5048 15.9827 15.6898 15.9827H17.8686C18.0536 15.9827 18.2049 16.134 18.2049 16.3189C18.2049 16.5038 18.0569 16.6552 17.8686 16.6552Z" fill="black"></path>
  <path d="M16.7777 19.6444C16.5927 19.6444 16.4414 19.4931 16.4414 19.3082V16.3189C16.4414 16.134 16.5927 15.9827 16.7777 15.9827C16.9626 15.9827 17.1139 16.134 17.1139 16.3189V19.3082C17.1139 19.4931 16.9626 19.6444 16.7777 19.6444Z" fill="black"></path>
</svg>
