<?xml version="1.0" encoding="UTF-8"?>
<svg xmlns="http://www.w3.org/2000/svg" width="25" height="25" viewBox="0 0 25 25" fill="none">
  <path d="M21.8353 6.65993C21.6738 6.44059 21.4251 6.31476 21.1532 6.31476H6.72679C6.51422 6.31476 6.34219 6.48679 6.34219 6.69936C6.34219 6.91195 6.51422 7.08398 6.72679 7.08398H21.1532L21.2261 7.1835L19.1776 13.7349C19.1693 13.7627 19.1445 13.7837 19.116 13.7882L8.35685 15.4318L4.86612 4.26968C4.81439 4.1047 4.66195 4.00456 4.4971 4.00568C4.4979 4.00315 4.49838 4.00258 4.49918 4H2.3846C2.17203 4 2 4.17203 2 4.3846C2 4.59719 2.17203 4.76922 2.3846 4.76922H4.21655L7.58769 15.5498L6.98295 15.6422C6.43985 15.7255 6.04585 16.1853 6.04585 16.7344C6.04585 17.3436 6.54126 17.8386 7.15009 17.8386H8.06855C7.89161 18.1071 7.78783 18.428 7.78783 18.7731C7.78783 19.7128 8.55216 20.4775 9.49189 20.4775C10.4316 20.4775 11.1959 19.7128 11.1959 18.7731C11.1959 18.428 11.0922 18.1071 10.9152 17.8386H17.0983C17.6136 17.8386 18.0336 18.2578 18.0336 18.7731C18.0336 19.2884 17.6136 19.7083 17.0983 19.7083C16.583 19.7083 16.1639 19.2884 16.1654 18.7212C16.1781 18.5094 16.0166 18.3269 15.8048 18.3141C15.5682 18.2953 15.4097 18.4628 15.3977 18.6747C15.3969 18.6822 15.3947 18.7656 15.3947 18.7731C15.3947 19.7128 16.1586 20.4775 17.0983 20.4775C18.0381 20.4775 18.8027 19.7128 18.8027 18.7731C18.8027 18.428 18.6989 18.1071 18.5219 17.8386H19.4405C19.6531 17.8386 19.8251 17.6666 19.8251 17.454C19.8251 17.2414 19.6531 17.0694 19.4405 17.0694H7.15009C6.96531 17.0694 6.81507 16.9192 6.81507 16.7344C6.81507 16.5676 6.93487 16.4279 7.09976 16.4023L19.2332 14.5484C19.5547 14.4981 19.8153 14.275 19.9123 13.9648L21.9607 7.41335C22.0418 7.15382 21.996 6.87928 21.8353 6.65993ZM10.4267 18.7731C10.4267 19.2884 10.0072 19.7083 9.49189 19.7083C8.97659 19.7083 8.55704 19.2884 8.55704 18.7731C8.55704 18.2578 8.97659 17.8386 9.49189 17.8386C10.0072 17.8386 10.4267 18.2578 10.4267 18.7731ZM17.2779 13.1595C17.0683 13.1227 16.9293 12.9229 16.9661 12.7141L17.7511 8.27797C17.7887 8.06839 17.993 7.92792 18.1966 7.96624C18.4061 8.00303 18.5451 8.20284 18.5083 8.41168L17.7233 12.8478C17.6903 13.0341 17.528 13.1655 17.3455 13.1655C17.3229 13.1655 17.3004 13.164 17.2779 13.1595ZM14.7697 13.5622C14.5579 13.5524 14.3941 13.3728 14.4039 13.1603L14.627 8.32717C14.636 8.11497 14.8268 7.94558 15.0288 7.96059C15.2407 7.97036 15.4044 8.15028 15.3947 8.36247L15.1716 13.1963C15.1625 13.4021 14.992 13.5629 14.7877 13.5629C14.7817 13.5629 14.7757 13.5629 14.7697 13.5622ZM11.9246 13.5862L11.5178 8.37487C11.5013 8.16304 11.6594 7.97787 11.8713 7.96136C12.0823 7.9452 12.2683 8.10294 12.2848 8.31479L12.6915 13.5261C12.7081 13.7379 12.5499 13.9227 12.3381 13.9392C12.328 13.9407 12.3178 13.9407 12.3077 13.9407C12.1086 13.9407 11.9404 13.7875 11.9246 13.5862ZM9.53809 13.9888L8.44362 8.41882C8.40268 8.21074 8.53864 8.0083 8.74709 7.96737C8.95366 7.92493 9.15723 8.06201 9.19854 8.27084L10.293 13.8401C10.334 14.0489 10.198 14.251 9.98954 14.2915C9.96477 14.2968 9.93959 14.2991 9.91517 14.2991C9.73489 14.2991 9.57414 14.1721 9.53809 13.9888Z" fill="black"></path>
</svg>
