<?xml version="1.0" encoding="UTF-8"?>
<svg xmlns="http://www.w3.org/2000/svg" width="25" height="25" viewBox="0 0 25 25" fill="none">
  <path d="M18.7503 16.1447C18.3567 16.1456 17.9688 16.2371 17.6164 16.4124C17.2641 16.5877 16.957 16.8418 16.719 17.1552L8.77215 13.1656C8.8315 12.9485 8.85919 12.7239 8.85442 12.4989C8.85919 12.2774 8.8315 12.0562 8.77215 11.8427L16.719 7.86351C16.9598 8.17238 17.2679 8.42213 17.62 8.59365C17.972 8.76516 18.3586 8.85391 18.7503 8.8531C19.2653 8.8531 19.7688 8.70037 20.197 8.41423C20.6253 8.12808 20.9591 7.72131 21.1562 7.24547C21.3533 6.76961 21.4049 6.24604 21.3043 5.74089C21.2039 5.23573 20.9559 4.77172 20.5916 4.40752C20.2275 4.04332 19.7635 3.79529 19.2583 3.69481C18.7532 3.59433 18.2295 3.64591 17.7537 3.84301C17.2778 4.04011 16.8711 4.37383 16.585 4.80209C16.2988 5.23034 16.1461 5.73389 16.1461 6.24894C16.1478 6.47508 16.1828 6.6997 16.2503 6.91556L8.30237 10.9052C8.03156 10.5552 7.67603 10.28 7.26936 10.1056C6.86268 9.93118 6.41823 9.86326 5.97802 9.90825C5.53781 9.95325 5.11635 10.1097 4.75337 10.3628C4.39039 10.6159 4.09787 10.9572 3.90345 11.3547C3.70905 11.7522 3.61914 12.1928 3.64221 12.6346C3.66529 13.0766 3.80057 13.5054 4.03532 13.8805C4.27007 14.2556 4.59655 14.5646 4.9839 14.7785C5.37127 14.9925 5.80674 15.1042 6.24925 15.1031C6.64346 15.1009 7.03223 15.0109 7.38736 14.8397C7.74249 14.6686 8.05508 14.4206 8.30237 14.1135L16.2503 18.0927C16.1836 18.3052 16.1485 18.5263 16.1461 18.7489C16.1461 19.264 16.2988 19.7675 16.585 20.1957C16.8711 20.624 17.2778 20.9578 17.7537 21.1549C18.2295 21.3519 18.7532 21.4036 19.2583 21.3031C19.7635 21.2026 20.2275 20.9545 20.5916 20.5904C20.9559 20.2262 21.2039 19.7621 21.3043 19.257C21.4049 18.7518 21.3533 18.2282 21.1562 17.7524C20.9591 17.2765 20.6253 16.8699 20.197 16.5837C19.7688 16.2975 19.2653 16.1447 18.7503 16.1447ZM18.7503 4.68644C19.0593 4.68644 19.3614 4.77803 19.6184 4.94972C19.8753 5.12141 20.0756 5.36548 20.1938 5.65099C20.312 5.9365 20.3431 6.25065 20.2828 6.55374C20.2225 6.85683 20.0736 7.13522 19.8552 7.35374C19.6366 7.57226 19.3582 7.72108 19.0551 7.78136C18.752 7.84166 18.4378 7.81075 18.1523 7.69249C17.8668 7.57423 17.6228 7.37393 17.4511 7.11698C17.2794 6.86002 17.1878 6.55798 17.1878 6.24894C17.1878 5.83454 17.3524 5.4371 17.6454 5.14408C17.9384 4.85105 18.3359 4.68644 18.7503 4.68644ZM7.64714 13.2072C7.52129 13.4547 7.33175 13.6641 7.09808 13.814C6.86441 13.9639 6.59504 14.0489 6.31765 14.0601C6.04027 14.0713 5.7649 14.0085 5.51987 13.878C5.27485 13.7475 5.06903 13.554 4.92357 13.3176C4.77811 13.0811 4.69827 12.8102 4.69228 12.5327C4.68629 12.2551 4.75437 11.9809 4.8895 11.7384C5.02461 11.4959 5.22189 11.2937 5.46106 11.1528C5.70024 11.0118 5.97264 10.9371 6.25026 10.9364C6.54346 10.9408 6.82985 11.0257 7.07805 11.1818C7.32626 11.338 7.52674 11.5594 7.65757 11.8218C7.75507 12.0345 7.80788 12.265 7.81276 12.4989C7.80822 12.7441 7.75177 12.9855 7.64714 13.2072ZM18.7503 20.3114C18.3359 20.3114 17.9384 20.1467 17.6454 19.8537C17.3524 19.5607 17.1878 19.1633 17.1878 18.7489C17.1882 18.5084 17.2495 18.2718 17.3659 18.0614C17.4907 17.7999 17.6868 17.5789 17.9317 17.4241C18.1767 17.2692 18.4605 17.1869 18.7503 17.1864C19.1647 17.1864 19.562 17.3511 19.8552 17.6441C20.1482 17.9371 20.3128 18.3345 20.3128 18.7489C20.3128 19.1633 20.1482 19.5607 19.8552 19.8537C19.562 20.1467 19.1647 20.3114 18.7503 20.3114Z" fill="black"></path>
</svg>
