<?xml version="1.0" encoding="UTF-8"?>
<svg xmlns="http://www.w3.org/2000/svg" width="25" height="25" viewBox="0 0 25 25" fill="none">
  <path d="M5.05315 16.2182C3.92101 16.2182 3 17.1392 3 18.2714C3 19.4035 3.92105 20.3245 5.05319 20.3246C5.60161 20.3246 6.11718 20.111 6.50496 19.7232C6.89278 19.3354 7.10633 18.8198 7.10633 18.2714C7.10633 17.1392 6.18528 16.2182 5.05315 16.2182ZM6.04879 19.267C5.78286 19.5329 5.42927 19.6794 5.05319 19.6794C4.27681 19.6794 3.64516 19.0477 3.64516 18.2714C3.64516 17.495 4.27681 16.8633 5.05315 16.8633C5.82952 16.8633 6.46117 17.495 6.46117 18.2714C6.46117 18.6475 6.31472 19.001 6.04879 19.267ZM12.6847 7.10633C13.8168 7.10633 14.7379 6.18528 14.7379 5.05319C14.7379 3.92109 13.8168 3 12.6847 3C11.5525 3 10.6315 3.92105 10.6315 5.05319C10.6315 6.18532 11.5526 7.10633 12.6847 7.10633ZM12.6847 3.64516C13.461 3.64516 14.0927 4.27681 14.0927 5.05319C14.0927 5.82956 13.461 6.46117 12.6847 6.46117C11.9083 6.46117 11.2767 5.82952 11.2767 5.05319C11.2767 4.27681 11.9083 3.64516 12.6847 3.64516ZM20.3162 16.2182C20.3162 16.2182 20.3161 16.2182 20.3162 16.2182C19.1842 16.2182 18.2631 17.1393 18.263 18.2713C18.263 19.4035 19.1841 20.3245 20.3162 20.3245C21.4483 20.3245 22.3694 19.4035 22.3694 18.2713C22.3694 17.1392 21.4483 16.2182 20.3162 16.2182ZM20.3162 19.6794C19.5398 19.6794 18.9082 19.0477 18.9082 18.2713C18.9082 17.495 19.5398 16.8633 20.3162 16.8633C21.0926 16.8633 21.7242 17.495 21.7242 18.2713C21.7242 19.0477 21.0926 19.6794 20.3162 19.6794ZM15.5137 5.51153C15.577 5.34496 15.7635 5.26125 15.9299 5.32464C17.6432 5.97601 19.1079 7.11633 20.1654 8.62226C21.2475 10.163 21.8194 11.976 21.8194 13.8653C21.8194 14.3521 21.7802 14.8431 21.7028 15.3247C21.6773 15.4833 21.5403 15.5962 21.3847 15.5962C21.3677 15.5962 21.3504 15.5948 21.3331 15.5921C21.1572 15.5638 21.0375 15.3983 21.0658 15.2224C21.1377 14.7745 21.1742 14.3179 21.1742 13.8653C21.1742 10.3623 18.9745 7.17238 15.7006 5.92766C15.5341 5.8644 15.4504 5.67806 15.5137 5.51153ZM3.66657 15.3247C3.58923 14.843 3.55 14.352 3.55 13.8653C3.55 11.976 4.12194 10.163 5.20395 8.62226C6.26153 7.11633 7.72613 5.97601 9.43952 5.32464C9.60601 5.26129 9.79234 5.345 9.85564 5.51153C9.91895 5.67802 9.83528 5.86435 9.66875 5.92766C6.3948 7.17242 4.19516 10.3623 4.19516 13.8653C4.19516 14.3179 4.23165 14.7744 4.30359 15.2224C4.33181 15.3983 4.21214 15.5638 4.03625 15.5921C4.01891 15.5948 4.00169 15.5962 3.98472 15.5962C3.82907 15.5962 3.69206 15.4833 3.66657 15.3247ZM18.5033 20.4906C18.6159 20.6286 18.5954 20.8319 18.4574 20.9445C16.8338 22.27 14.7837 23 12.6847 23C10.5854 23 8.53532 22.27 6.91194 20.9445C6.77395 20.8319 6.75339 20.6286 6.86609 20.4906C6.97875 20.3527 7.18198 20.3321 7.31996 20.4448C8.82851 21.6765 10.7337 22.3548 12.6847 22.3548C14.6354 22.3548 16.5406 21.6765 18.0494 20.4448C18.1874 20.3321 18.3906 20.3527 18.5033 20.4906ZM14.4227 17.5066H14.8175L15.996 18.7306C16.0577 18.7947 16.1421 18.8294 16.2284 18.8294C16.2604 18.8294 16.2927 18.8247 16.3242 18.8149C16.4408 18.7786 16.5268 18.6796 16.5467 18.5592L17.1456 14.9157C17.1669 14.7864 17.1078 14.6571 16.9961 14.5885L15.7761 13.8391C15.7785 13.3465 15.7446 12.8743 15.6738 12.4199C15.3794 10.5321 14.4391 8.97794 12.879 7.80065C12.7639 7.71387 12.6054 7.71387 12.4903 7.80065C10.9302 8.9779 9.98992 10.5321 9.69548 12.4199C9.62464 12.8743 9.59077 13.3466 9.59315 13.8392L8.37323 14.5885C8.26157 14.6571 8.2025 14.7864 8.22375 14.9156L8.82266 18.5592C8.84246 18.6796 8.92855 18.7785 9.04512 18.8148C9.07665 18.8246 9.10895 18.8294 9.14093 18.8294C9.2273 18.8294 9.31157 18.7947 9.37335 18.7305L10.5518 17.5065H10.9466V18.2843C10.9466 18.3251 10.9545 18.364 10.9683 18.3999C10.9594 18.4882 10.9544 18.5772 10.9544 18.6662C10.9544 19.5122 11.5142 20.2508 12.0081 20.9023C12.1576 21.0996 12.2988 21.2859 12.4151 21.4627C12.4747 21.5534 12.576 21.608 12.6846 21.608C12.7932 21.608 12.8944 21.5534 12.9541 21.4627C13.0704 21.2859 13.2116 21.0996 13.3611 20.9024C13.855 20.2508 14.4148 19.5123 14.4148 18.6662C14.4148 18.5772 14.4098 18.4882 14.4009 18.3999C14.4147 18.364 14.4226 18.3251 14.4226 18.2843V17.5066H14.4227ZM16.4738 15.0248L16.0144 17.8196L15.312 17.09C15.5428 16.1943 15.6871 15.3602 15.7457 14.5776L16.4738 15.0248ZM12.6846 8.46706C14.7903 10.1625 15.5282 12.5917 14.925 15.861H10.4443C9.84109 12.5917 10.579 10.1625 12.6846 8.46706ZM9.35496 17.8196L8.89556 15.0248L9.62359 14.5776C9.68214 15.3602 9.82649 16.1943 10.0573 17.0901L9.35496 17.8196ZM10.5781 16.5061H14.7912C14.7642 16.6235 14.7356 16.7419 14.7054 16.8614H10.6639C10.6337 16.742 10.6051 16.6235 10.5781 16.5061ZM13.7775 17.5066V17.9618H11.5919V17.5066H13.7775ZM12.847 20.5127C12.7917 20.5857 12.7374 20.6573 12.6847 20.728C12.632 20.6573 12.5777 20.5857 12.5223 20.5127C12.0687 19.9142 11.5997 19.2954 11.5997 18.6662C11.5997 18.6465 11.6003 18.6267 11.6009 18.6069H13.7685C13.7691 18.6267 13.7697 18.6465 13.7697 18.6662C13.7697 19.2954 13.3006 19.9142 12.847 20.5127ZM12.6846 13.7059C13.5295 13.7059 14.2169 13.0185 14.2169 12.1736C14.2169 11.3287 13.5295 10.6414 12.6846 10.6414C11.8398 10.6414 11.1524 11.3287 11.1524 12.1736C11.1524 13.0185 11.8398 13.7059 12.6846 13.7059ZM12.6846 11.2865C13.1738 11.2865 13.5717 11.6845 13.5717 12.1736C13.5717 12.6628 13.1738 13.0607 12.6846 13.0607C12.1955 13.0607 11.7975 12.6628 11.7975 12.1736C11.7975 11.6845 12.1955 11.2865 12.6846 11.2865Z" fill="black"></path>
</svg>
