<?xml version="1.0" encoding="UTF-8"?>
<svg xmlns="http://www.w3.org/2000/svg" width="25" height="25" viewBox="0 0 25 25" fill="none">
  <path d="M2.45507 12C2.47574 12 2.49639 11.9986 2.51688 11.9959C5.85594 11.5428 9.11256 10.6123 12.1869 9.23273C15.2915 7.83588 18.1761 5.99411 20.7496 3.76545L20.196 5.98091C20.1668 6.09778 20.1852 6.22145 20.2472 6.32474C20.3092 6.42804 20.4096 6.50252 20.5264 6.53182C20.5626 6.54076 20.5997 6.54534 20.6369 6.54545C20.7382 6.54533 20.8366 6.51135 20.9164 6.44893C20.9962 6.38651 21.0528 6.29921 21.0773 6.20091L21.9864 2.56455C22.0031 2.49759 22.0044 2.42771 21.99 2.36021C21.9757 2.29271 21.9462 2.22935 21.9038 2.17494C21.8613 2.12054 21.807 2.07651 21.7451 2.0462C21.6831 2.01589 21.615 2.00009 21.546 2H17.9096C17.7891 2 17.6734 2.04789 17.5882 2.13313C17.503 2.21838 17.4551 2.33399 17.4551 2.45455C17.4551 2.5751 17.503 2.69071 17.5882 2.77596C17.6734 2.8612 17.7891 2.90909 17.9096 2.90909H20.3501C17.7941 5.15526 14.9171 7.00719 11.8142 8.40364C8.81918 9.74749 5.64659 10.6539 2.3937 11.095C2.27942 11.1104 2.17528 11.1687 2.10237 11.2581C2.02946 11.3474 1.99324 11.4611 2.00104 11.5762C2.00884 11.6913 2.06008 11.799 2.14439 11.8777C2.22869 11.9564 2.33975 12.0001 2.45507 12Z" fill="black"></path>
  <path d="M21.5455 21.091H21.0909V8.81831C21.0909 8.69776 21.043 8.58215 20.9578 8.4969C20.8725 8.41166 20.7569 8.36377 20.6364 8.36377H16.0909C15.9704 8.36377 15.8547 8.41166 15.7695 8.4969C15.6843 8.58215 15.6364 8.69776 15.6364 8.81831V21.091H14.7273V11.5456C14.7273 11.425 14.6794 11.3094 14.5941 11.2242C14.5089 11.1389 14.3933 11.091 14.2727 11.091H9.72727C9.60672 11.091 9.4911 11.1389 9.40586 11.2242C9.32062 11.3094 9.27273 11.425 9.27273 11.5456V21.091H8.36364V14.2729C8.36364 14.1523 8.31575 14.0367 8.2305 13.9514C8.14526 13.8662 8.02964 13.8183 7.90909 13.8183H3.36364C3.24308 13.8183 3.12747 13.8662 3.04222 13.9514C2.95698 14.0367 2.90909 14.1523 2.90909 14.2729V21.091H2.45455C2.33399 21.091 2.21838 21.1389 2.13313 21.2242C2.04789 21.3094 2 21.425 2 21.5456C2 21.6661 2.04789 21.7818 2.13313 21.867C2.21838 21.9522 2.33399 22.0001 2.45455 22.0001H21.5455C21.666 22.0001 21.7816 21.9522 21.8669 21.867C21.9521 21.7818 22 21.6661 22 21.5456C22 21.425 21.9521 21.3094 21.8669 21.2242C21.7816 21.1389 21.666 21.091 21.5455 21.091ZM16.5455 9.27286H20.1818V21.091H16.5455V9.27286ZM10.1818 12.0001H13.8182V21.091H10.1818V12.0001ZM3.81818 14.7274H7.45455V21.091H3.81818V14.7274Z" fill="black"></path>
</svg>
