<?xml version="1.0" encoding="UTF-8"?>
<svg xmlns="http://www.w3.org/2000/svg" width="25" height="25" viewBox="0 0 25 25" fill="none">
  <path d="M12.1094 2.53906H3.51562C3.20482 2.53906 2.90675 2.66253 2.68698 2.8823C2.46722 3.10207 2.34375 3.40014 2.34375 3.71094V21.2891C2.34375 21.5999 2.46722 21.8979 2.68698 22.1177C2.90675 22.3375 3.20482 22.4609 3.51562 22.4609H12.1094C12.4202 22.4609 12.7182 22.3375 12.938 22.1177C13.1578 21.8979 13.2812 21.5999 13.2812 21.2891V3.71094C13.2812 3.40014 13.1578 3.10207 12.938 2.8823C12.7182 2.66253 12.4202 2.53906 12.1094 2.53906ZM6.25 3.32031H9.375V3.71094C9.375 3.81454 9.33385 3.91389 9.26059 3.98715C9.18733 4.06041 9.08798 4.10156 8.98438 4.10156H6.64062C6.53702 4.10156 6.43767 4.06041 6.36441 3.98715C6.29115 3.91389 6.25 3.81454 6.25 3.71094V3.32031ZM12.5 21.2891C12.5 21.3927 12.4588 21.492 12.3856 21.5653C12.3123 21.6385 12.213 21.6797 12.1094 21.6797H3.51562C3.41202 21.6797 3.31267 21.6385 3.23941 21.5653C3.16616 21.492 3.125 21.3927 3.125 21.2891V3.71094C3.125 3.60734 3.16616 3.50798 3.23941 3.43472C3.31267 3.36147 3.41202 3.32031 3.51562 3.32031H5.46875V3.71094C5.46875 4.02174 5.59221 4.31981 5.81198 4.53958C6.03175 4.75935 6.32982 4.88281 6.64062 4.88281H8.98438C9.29518 4.88281 9.59325 4.75935 9.81302 4.53958C10.0328 4.31981 10.1562 4.02174 10.1562 3.71094V3.32031H12.1094C12.213 3.32031 12.3123 3.36147 12.3856 3.43472C12.4588 3.50798 12.5 3.60734 12.5 3.71094V21.2891Z" fill="black"></path>
  <path d="M18.8496 13.1465C18.9707 13.0059 21.8164 9.69336 21.8164 7.36328C21.8164 5.4707 20.3848 3.98828 18.5547 3.98828C16.7246 3.98828 15.293 5.46875 15.293 7.36328C15.293 9.69336 18.1387 13.0059 18.2598 13.1465C18.2964 13.1887 18.3417 13.2226 18.3926 13.2458C18.4435 13.269 18.4988 13.281 18.5547 13.281C18.6106 13.281 18.6659 13.269 18.7168 13.2458C18.7676 13.2226 18.8129 13.1887 18.8496 13.1465ZM18.5547 4.76953C19.9687 4.76953 21.0352 5.88477 21.0352 7.36328C21.0352 8.99805 19.2773 11.3789 18.5547 12.2754C17.8398 11.3789 16.0742 8.99805 16.0742 7.36328C16.0742 5.88477 17.1406 4.76953 18.5547 4.76953Z" fill="black"></path>
  <path d="M20.166 7.31836C20.1664 6.99959 20.0722 6.68786 19.8954 6.42262C19.7186 6.15738 19.4671 5.95055 19.1727 5.8283C18.8783 5.70604 18.5542 5.67385 18.2415 5.7358C17.9288 5.79775 17.6415 5.95107 17.416 6.17634C17.1905 6.40161 17.0368 6.68871 16.9745 7.00133C16.9121 7.31395 16.9439 7.63804 17.0658 7.93258C17.1877 8.22713 17.3943 8.4789 17.6593 8.65604C17.9243 8.83318 18.2359 8.92773 18.5547 8.92774C18.9815 8.92722 19.3908 8.75756 19.6928 8.45591C19.9948 8.15426 20.165 7.74521 20.166 7.31836ZM17.7246 7.31836C17.7242 7.1541 17.7726 6.99343 17.8636 6.85666C17.9545 6.7199 18.084 6.6132 18.2357 6.55008C18.3873 6.48695 18.5543 6.47023 18.7154 6.50204C18.8766 6.53385 19.0247 6.61275 19.1409 6.72876C19.2572 6.84477 19.3365 6.99267 19.3687 7.15375C19.4009 7.31482 19.3845 7.48182 19.3218 7.63361C19.259 7.7854 19.1526 7.91516 19.0161 8.00645C18.8795 8.09775 18.7189 8.14648 18.5547 8.14648C18.335 8.14597 18.1245 8.05862 17.969 7.90348C17.8135 7.74835 17.7256 7.53801 17.7246 7.31836Z" fill="black"></path>
  <path d="M23.3693 17.2871C23.3693 17.0918 23.3322 16.6426 23.1057 16.4062C22.5549 15.8398 19.5724 15.0586 18.3947 14.7188C16.3732 13.5742 15.215 12.8906 14.4533 12.8906C14.3497 12.8906 14.2503 12.9318 14.1771 13.005C14.1038 13.0783 14.0627 13.1776 14.0627 13.2812C14.0627 13.3849 14.1038 13.4842 14.1771 13.5575C14.2503 13.6307 14.3497 13.6719 14.4533 13.6719C15.0392 13.6719 16.4182 14.5059 17.5607 15.1465C17.1896 15.291 15.1818 15.2129 14.5099 15.1133C14.4063 15.0983 14.301 15.125 14.2171 15.1876C14.1333 15.2503 14.0777 15.3437 14.0627 15.4473C14.0477 15.5509 14.0744 15.6562 14.137 15.7401C14.1997 15.8239 14.2931 15.8795 14.3967 15.8945C15.4527 16.019 16.5184 16.0386 17.5783 15.9531C17.883 15.8942 18.1636 15.7468 18.3849 15.5293C19.2521 15.7793 21.9338 16.5059 22.5392 16.9434C22.5803 17.041 22.7209 18.4219 22.631 18.6582C22.5806 18.7618 22.5218 18.8611 22.4553 18.9551C22.2272 19.0035 21.9962 19.0374 21.7639 19.0566C21.8012 18.7948 21.7817 18.528 21.7065 18.2745C21.6313 18.0209 21.5023 17.7865 21.3283 17.5874C21.1542 17.3883 20.9393 17.229 20.698 17.1206C20.4568 17.0122 20.1951 16.957 19.9306 16.959C19.6661 16.961 19.4052 17.0201 19.1656 17.1321C18.9261 17.2442 18.7135 17.4066 18.5425 17.6084C18.3715 17.8101 18.246 18.0464 18.1747 18.301C18.1033 18.5557 18.0878 18.8228 18.1291 19.084L14.4533 19.1406C14.3497 19.1406 14.2503 19.1818 14.1771 19.255C14.1038 19.3283 14.0627 19.4276 14.0627 19.5312C14.0627 19.6349 14.1038 19.7342 14.1771 19.8075C14.2503 19.8807 14.3497 19.9219 14.4533 19.9219L18.4377 19.8594C18.607 20.0992 18.8315 20.2948 19.0922 20.4299C19.3529 20.5649 19.6421 20.6354 19.9357 20.6354C20.2293 20.6354 20.5186 20.5649 20.7793 20.4299C21.04 20.2948 21.2644 20.0992 21.4338 19.8594C21.8835 19.85 22.3309 19.7911 22.7678 19.6836C22.9943 19.6211 23.2209 19.2129 23.3244 19C23.5119 18.625 23.4201 17.6953 23.3693 17.2871ZM19.9396 19.8535C19.7303 19.8535 19.5256 19.7914 19.3515 19.6751C19.1774 19.5588 19.0417 19.3935 18.9616 19.2C18.8815 19.0066 18.8605 18.7937 18.9014 18.5884C18.9422 18.3831 19.043 18.1944 19.1911 18.0464C19.3391 17.8983 19.5278 17.7975 19.7331 17.7567C19.9385 17.7158 20.1513 17.7368 20.3447 17.8169C20.5382 17.897 20.7035 18.0327 20.8198 18.2068C20.9361 18.3809 20.9982 18.5856 20.9982 18.7949C20.9982 19.0757 20.8867 19.3449 20.6882 19.5435C20.4896 19.742 20.2204 19.8535 19.9396 19.8535Z" fill="black"></path>
  <path d="M14.4531 17.5781C14.5567 17.5781 14.6561 17.537 14.7293 17.4637C14.8026 17.3905 14.8438 17.2911 14.8438 17.1875C14.8438 17.0839 14.8026 16.9845 14.7293 16.9113C14.6561 16.838 14.5567 16.7969 14.4531 16.7969C14.3495 16.7969 14.2502 16.838 14.1769 16.9113C14.1037 16.9845 14.0625 17.0839 14.0625 17.1875C14.0625 17.2911 14.1037 17.3905 14.1769 17.4637C14.2502 17.537 14.3495 17.5781 14.4531 17.5781Z" fill="black"></path>
  <path d="M16.7969 17.1875C16.7969 17.0839 16.7557 16.9845 16.6825 16.9113C16.6092 16.838 16.5099 16.7969 16.4062 16.7969C16.329 16.7969 16.2535 16.8198 16.1892 16.8627C16.125 16.9056 16.0749 16.9666 16.0454 17.038C16.0158 17.1094 16.0081 17.1879 16.0231 17.2637C16.0382 17.3395 16.0754 17.4091 16.13 17.4637C16.1847 17.5183 16.2543 17.5555 16.33 17.5706C16.4058 17.5857 16.4844 17.578 16.5557 17.5484C16.6271 17.5188 16.6881 17.4688 16.731 17.4045C16.774 17.3403 16.7969 17.2648 16.7969 17.1875Z" fill="black"></path>
  <path d="M15.8203 17.9688C15.8203 17.8651 15.7792 17.7658 15.7059 17.6925C15.6326 17.6193 15.5333 17.5781 15.4297 17.5781C15.3524 17.5781 15.2769 17.601 15.2127 17.644C15.1484 17.6869 15.0984 17.7479 15.0688 17.8193C15.0392 17.8906 15.0315 17.9692 15.0466 18.045C15.0616 18.1207 15.0988 18.1903 15.1535 18.245C15.2081 18.2996 15.2777 18.3368 15.3535 18.3519C15.4293 18.3669 15.5078 18.3592 15.5792 18.3296C15.6506 18.3001 15.7116 18.25 15.7545 18.1858C15.7974 18.1215 15.8203 18.046 15.8203 17.9688Z" fill="black"></path>
  <path d="M7.8125 8.83398C7.03992 8.83398 6.28469 9.06308 5.64231 9.49231C4.99993 9.92153 4.49925 10.5316 4.2036 11.2454C3.90794 11.9592 3.83059 12.7446 3.98131 13.5023C4.13203 14.26 4.50407 14.9561 5.05037 15.5024C5.59666 16.0487 6.29269 16.4207 7.05043 16.5714C7.80817 16.7222 8.59358 16.6448 9.30736 16.3491C10.0211 16.0535 10.6312 15.5528 11.0604 14.9104C11.4897 14.2681 11.7188 13.5128 11.7188 12.7402C11.7188 11.7042 11.3072 10.7107 10.5746 9.9781C9.84207 9.24553 8.8485 8.83398 7.8125 8.83398ZM7.8125 15.8652C7.19444 15.8652 6.59025 15.682 6.07634 15.3386C5.56244 14.9952 5.1619 14.5071 4.92538 13.9361C4.68885 13.3651 4.62697 12.7368 4.74755 12.1306C4.86813 11.5244 5.16575 10.9676 5.60279 10.5305C6.03983 10.0935 6.59665 9.79586 7.20284 9.67528C7.80904 9.5547 8.43737 9.61659 9.00839 9.85311C9.57941 10.0896 10.0675 10.4902 10.4108 11.0041C10.7542 11.518 10.9375 12.1222 10.9375 12.7402C10.9375 13.569 10.6083 14.3639 10.0222 14.9499C9.43616 15.536 8.6413 15.8652 7.8125 15.8652Z" fill="black"></path>
  <path d="M9.07346 11.4961L7.42112 13.1543L6.55393 12.2871C6.48063 12.2138 6.38122 12.1726 6.27756 12.1726C6.1739 12.1726 6.07449 12.2138 6.00119 12.2871C5.9279 12.3604 5.88672 12.4598 5.88672 12.5634C5.88672 12.6671 5.9279 12.7665 6.00119 12.8398L7.14377 13.9824C7.18005 14.0187 7.22313 14.0475 7.27055 14.0672C7.31797 14.0868 7.3688 14.097 7.42014 14.097C7.47147 14.097 7.5223 14.0868 7.56972 14.0672C7.61715 14.0475 7.66023 14.0187 7.69651 13.9824L9.6301 12.0488C9.66639 12.0125 9.69518 11.9694 9.71482 11.922C9.73447 11.8746 9.74457 11.8238 9.74457 11.7724C9.74457 11.7211 9.73447 11.6703 9.71482 11.6229C9.69518 11.5754 9.66639 11.5324 9.6301 11.4961C9.59381 11.4598 9.55072 11.431 9.5033 11.4113C9.45588 11.3917 9.40506 11.3816 9.35373 11.3816C9.30241 11.3816 9.25158 11.3917 9.20416 11.4113C9.15674 11.431 9.11366 11.4598 9.07737 11.4961H9.07346Z" fill="black"></path>
</svg>
