<?xml version="1.0" encoding="UTF-8"?>
<svg xmlns="http://www.w3.org/2000/svg" width="25" height="25" viewBox="0 0 25 25" fill="none">
  <path d="M8.02659 23H17.0084C18.1258 23 19.035 22.091 19.035 20.9736V4.02659C19.035 2.90919 18.1258 2 17.0084 2C13.923 2 11.1739 2 8.0265 2C6.9091 2.00009 6 2.90919 6 4.02659V20.9736C6 22.0911 6.9091 23 8.02659 23ZM14.5554 2.68037V3.1979C14.5554 3.49233 14.3159 3.73189 14.0215 3.73189H11.0134C10.719 3.73189 10.4795 3.49242 10.4795 3.1979V2.68037H14.5554ZM6.68029 4.02659C6.68029 3.28421 7.28421 2.68029 8.02659 2.68029H9.79935V3.19781C9.79935 3.86726 10.3441 4.41209 11.0135 4.41209H14.0216C14.691 4.41209 15.2357 3.86735 15.2357 3.19781V2.68029H17.0085C17.7509 2.68029 18.3548 3.28421 18.3548 4.02659V20.9736C18.3548 21.7158 17.7509 22.3197 17.0085 22.3197H8.02659C7.28421 22.3197 6.68029 21.7158 6.68029 20.9736V4.02659Z" fill="black"></path>
  <path d="M12.52 16.2757C14.6226 16.2757 16.333 14.5652 16.333 12.4627C16.333 10.3601 14.6226 8.64966 12.52 8.64966C10.4174 8.64966 8.70703 10.3601 8.70703 12.4627C8.70703 14.5652 10.4174 16.2757 12.52 16.2757ZM12.52 9.32994C14.2473 9.32994 15.6527 10.7352 15.6527 12.4627C15.6527 14.1901 14.2473 15.5954 12.52 15.5954C10.7927 15.5954 9.38732 14.1901 9.38732 12.4627C9.38732 10.7352 10.7927 9.32994 12.52 9.32994Z" fill="black"></path>
  <path d="M11.4417 12.8027H12.1794V13.5404C12.1794 13.7282 12.3315 13.8805 12.5196 13.8805C12.7076 13.8805 12.8597 13.7282 12.8597 13.5404V12.8027H13.5971C13.7852 12.8027 13.9373 12.6504 13.9373 12.4626C13.9373 12.2747 13.7852 12.1224 13.5971 12.1224H12.8597V11.3848C12.8597 11.197 12.7076 11.0447 12.5196 11.0447C12.3315 11.0447 12.1794 11.197 12.1794 11.3848V12.1224H11.4417C11.2537 12.1224 11.1016 12.2747 11.1016 12.4626C11.1016 12.6504 11.2537 12.8027 11.4417 12.8027Z" fill="black"></path>
  <path d="M13.5971 20.5132H11.4417C11.2537 20.5132 11.1016 20.6655 11.1016 20.8533C11.1016 21.0412 11.2537 21.1935 11.4417 21.1935H13.5971C13.7852 21.1935 13.9373 21.0412 13.9373 20.8533C13.9373 20.6655 13.7851 20.5132 13.5971 20.5132Z" fill="black"></path>
</svg>
