<?xml version="1.0" encoding="UTF-8"?>
<svg xmlns="http://www.w3.org/2000/svg" width="25" height="25" viewBox="0 0 25 25" fill="none">
  <g clip-path="url(#clip0_1081_1229)">
    <path d="M23.1394 10.7567C23.0875 10.707 23.026 10.6685 22.9585 10.6439L21.1653 7.91184C20.6852 7.18505 19.8718 6.74813 19.0006 6.74915H16.5704C16.5008 5.36759 15.361 4.28259 13.9774 4.28076H0.519276C0.232457 4.28076 0 4.51322 0 4.80004V17.5598C0 17.8466 0.232457 18.0791 0.519276 18.0791H2.25479C2.50165 19.5848 3.80268 20.6899 5.32846 20.6899C6.85403 20.6899 8.15506 19.5848 8.40212 18.0791H15.942C16.1888 19.5848 17.4898 20.6901 19.0156 20.6901C20.5412 20.6901 21.8424 19.5848 22.0893 18.0791H24.4808C24.7674 18.0791 25.0001 17.8466 25.0001 17.5598V13.6543C24.9985 12.9496 24.712 12.2756 24.2059 11.7853L23.1394 10.7567ZM20.2982 8.48365L21.6952 10.6113H16.5738V7.7879H19.0006C19.5225 7.78689 20.0102 8.04835 20.2982 8.48365ZM5.32846 19.6513C4.18159 19.6513 3.25196 18.7217 3.25196 17.5748C3.25196 16.428 4.18159 15.4983 5.32846 15.4983C6.47533 15.4983 7.40495 16.428 7.40495 17.5748C7.40373 18.7211 6.47472 19.6501 5.32846 19.6513ZM19.0154 19.6513C17.8686 19.6513 16.9389 18.7217 16.9389 17.5748C16.9389 16.428 17.8686 15.4983 19.0154 15.4983C20.1623 15.4983 21.0919 16.428 21.0919 17.5748C21.0907 18.7211 20.1617 19.6501 19.0154 19.6513ZM23.9615 17.0405H22.0838C21.8244 15.5488 20.5296 14.4596 19.0154 14.4596C17.5012 14.4596 16.2065 15.5488 15.9472 17.0405H8.39685C8.13741 15.5488 6.84267 14.4598 5.32866 14.4598C3.81444 14.4598 2.5197 15.5488 2.26027 17.0405H1.03855V5.31931H13.9774C14.8375 5.32033 15.5342 6.01729 15.5353 6.87714V11.1305C15.5353 11.4174 15.7677 11.6498 16.0545 11.6498H22.5694L23.485 12.533C23.7887 12.8271 23.9605 13.2314 23.9615 13.6543V17.0405Z" fill="black"></path>
  </g>
  <defs>
    <clipPath id="clip0_1081_1229">
      <rect width="25" height="25" fill="white"></rect>
    </clipPath>
  </defs>
</svg>
