<?xml version="1.0" encoding="UTF-8"?>
<svg xmlns="http://www.w3.org/2000/svg" width="25" height="25" viewBox="0 0 25 25" fill="none">
  <path d="M14.332 15.667C14.332 17.5079 15.8243 19.0002 17.6652 19.0002C19.5059 19.0002 20.9982 17.5079 20.9982 15.667C20.9982 13.8263 19.5059 12.334 17.6652 12.334C15.8252 12.336 14.334 13.8271 14.332 15.667ZM17.6652 13.0005C19.1379 13.0005 20.3317 14.1943 20.3317 15.667C20.3317 17.1397 19.1379 18.3335 17.6652 18.3335C16.1925 18.3335 14.9987 17.1397 14.9987 15.667C15.0003 14.1951 16.1932 13.0021 17.6652 13.0005Z" fill="black"></path>
  <path d="M15.7617 22.3335H19.5712V23H15.7617V22.3335Z" fill="black"></path>
  <path d="M14.332 21.0002H20.9984V21.6669H14.332V21.0002Z" fill="black"></path>
  <path d="M7 21.0002H7.66669V21.6669H7V21.0002Z" fill="black"></path>
  <path d="M5 21.6667H5.66655V22.3334H5V21.6667Z" fill="black"></path>
  <path d="M7.0334 19.1246C8.7738 16.0935 9.86581 12.7338 10.2402 9.25865L13.34 12.3401C13.402 12.4018 13.4858 12.4366 13.5733 12.437C13.5913 12.4372 13.6095 12.4357 13.6272 12.4327C13.7329 12.4155 13.8238 12.3486 13.8716 12.2528C14.4999 10.9986 14.2539 9.48294 13.261 8.49205L12.9884 8.21935H15.3328C15.5169 8.21949 15.6663 8.07036 15.6663 7.88628C15.6664 7.85024 15.6605 7.81447 15.6492 7.78045C15.2066 6.44923 13.9609 5.55153 12.558 5.55288H12.1247L13.7893 3.87863C13.9192 3.7482 13.9186 3.53722 13.7882 3.40732C13.7629 3.38218 13.7339 3.3612 13.702 3.34534C12.4473 2.7163 10.9308 2.96224 9.93923 3.95568L9.62094 4.27396C9.51714 4.37844 9.42072 4.48978 9.33197 4.60731C9.2443 4.48978 9.14856 4.37844 9.04556 4.27396L8.72728 3.95568C7.73653 2.96291 6.22082 2.71697 4.96691 3.34534C4.80219 3.42763 4.73536 3.62785 4.81765 3.79244C4.83352 3.82431 4.8545 3.85335 4.87964 3.87863L6.54609 5.55288H6.10854C4.70564 5.55153 3.45981 6.44923 3.01728 7.78045C2.95892 7.95499 3.05318 8.14378 3.22785 8.20214C3.26187 8.21357 3.29764 8.21935 3.33368 8.21935H5.67582L5.40326 8.49205C4.41035 9.48294 4.16428 10.9986 4.79251 12.2528C4.84038 12.3486 4.93128 12.4155 5.03684 12.4327C5.05472 12.4357 5.07274 12.4372 5.09089 12.437C5.17897 12.437 5.26341 12.4022 5.3258 12.3401L8.2124 9.47057C7.85499 12.6646 6.65205 15.7054 4.72756 18.2794C4.27952 18.1617 3.82529 18.069 3.36703 18.0021L3.15874 17.9811L3.09204 18.6447L3.28635 18.6637C3.61969 18.7114 3.95088 18.7788 4.28033 18.855C4.21363 18.9386 4.14693 19.0236 4.07795 19.1061L4.5892 19.5337C7.15065 16.4883 8.67766 12.7075 8.94969 8.73732L9.33332 8.35611L9.62054 8.64171C9.27012 12.8875 7.81277 16.9674 5.39385 20.4743L5.93978 20.8563C6.20186 20.4822 6.45183 20.094 6.69414 19.6984C8.25328 20.4441 9.62995 21.5227 10.7272 22.8581L11.2427 22.4357C10.5939 21.6469 9.85061 20.9409 9.02929 20.3336H22.999V19.6669H8.04177C7.71501 19.4697 7.37777 19.2909 7.0334 19.1246ZM13.451 11.5098L9.92928 8.00838C10.8301 7.73944 11.8058 7.9835 12.4738 8.64494L12.7921 8.96336C13.4589 9.62897 13.7112 10.6043 13.451 11.5098ZM14.8243 7.5528H12.0645C11.4217 7.24689 10.6965 7.16029 9.99987 7.30646C10.4849 6.62444 11.2699 6.21943 12.1068 6.21956H12.5568C13.499 6.21808 14.3675 6.72879 14.8243 7.5528ZM10.0912 4.74527L10.4096 4.42699C11.0757 3.76003 12.0514 3.50764 12.9573 3.76796L10.9815 5.75552C10.3402 5.99151 9.7897 6.42368 9.40795 6.99046C9.25291 6.17505 9.50866 5.33544 10.0922 4.74527H10.0912ZM8.25503 4.42699L8.57331 4.74527C8.72176 4.89681 8.85058 5.06651 8.95668 5.25019C8.80567 5.60128 8.71948 5.97658 8.702 6.3582C8.40281 6.0968 8.05817 5.89267 7.68543 5.75552L5.70917 3.76796C6.6148 3.50777 7.59023 3.76017 8.25597 4.42699H8.25503ZM6.10746 6.21956H6.55752C7.39498 6.21876 8.18107 6.62364 8.66663 7.30606C7.97036 7.16043 7.24545 7.24702 6.60311 7.5528H3.84223C4.29888 6.72919 5.16673 6.21862 6.10854 6.21956H6.10746ZM5.21554 11.5098C4.95535 10.6043 5.20774 9.62897 5.87456 8.96336L6.19285 8.64494C6.67236 8.16664 7.32264 7.89892 8.00008 7.90107C8.25005 7.90121 8.49868 7.93684 8.73871 8.00703L5.21554 11.5098Z" fill="black"></path>
</svg>
