<?xml version="1.0" encoding="UTF-8"?>
<svg xmlns="http://www.w3.org/2000/svg" width="25" height="25" viewBox="0 0 25 25" fill="none">
  <path d="M20.6207 4H3.37931C3.01362 4.00041 2.66303 4.14586 2.40444 4.40444C2.14586 4.66303 2.00041 5.01362 2 5.37931V17.1034C2.00041 17.4691 2.14586 17.8197 2.40444 18.0783C2.66303 18.3369 3.01362 18.4823 3.37931 18.4828H9.85517L9.30345 21.2414H8.55172V21.931H15.4483V21.2414H14.6966L14.1448 18.4828H20.6207C20.9864 18.4823 21.337 18.3369 21.5956 18.0783C21.8541 17.8197 21.9996 17.4691 22 17.1034V5.37931C21.9996 5.01362 21.8541 4.66303 21.5956 4.40444C21.337 4.14586 20.9864 4.00041 20.6207 4ZM3.37931 4.68966H20.6207C20.8035 4.68984 20.9789 4.76256 21.1081 4.89185C21.2374 5.02115 21.3102 5.19646 21.3103 5.37931V15.0345H2.68966V5.37931C2.68984 5.19646 2.76256 5.02115 2.89185 4.89185C3.02115 4.76256 3.19646 4.68984 3.37931 4.68966ZM13.9931 21.2414H10.0069L10.5586 18.4828H13.4414L13.9931 21.2414ZM20.6207 17.7931H3.37931C3.19646 17.7929 3.02115 17.7202 2.89185 17.5909C2.76256 17.4616 2.68984 17.2863 2.68966 17.1034V15.7241H21.3103V17.1034C21.3102 17.2863 21.2374 17.4616 21.1081 17.5909C20.9789 17.7202 20.8035 17.7929 20.6207 17.7931Z" fill="black"></path>
  <path d="M10.2773 5.85571V11.7993L16.2207 8.82751L10.2773 5.85571ZM10.967 6.97171L14.6788 8.82751L10.967 10.6833V6.97171Z" fill="black"></path>
  <path d="M15.4475 14.0001C15.6607 13.9995 15.8685 13.9328 16.0424 13.8094C16.2162 13.6859 16.3476 13.5116 16.4184 13.3105H19.2406V12.6208H16.4184C16.3481 12.4193 16.2169 12.2447 16.0429 12.1211C15.869 11.9975 15.6609 11.9312 15.4475 11.9312C15.2341 11.9312 15.026 11.9975 14.852 12.1211C14.678 12.2447 14.5468 12.4193 14.4765 12.6208H4.75781V13.3105H14.4765C14.5474 13.5116 14.6787 13.6859 14.8526 13.8094C15.0264 13.9328 15.2342 13.9995 15.4475 14.0001ZM15.4475 12.6208C15.5157 12.6208 15.5823 12.6411 15.639 12.679C15.6957 12.7168 15.7399 12.7707 15.766 12.8337C15.7921 12.8967 15.799 12.966 15.7857 13.0329C15.7724 13.0998 15.7395 13.1613 15.6913 13.2095C15.6431 13.2577 15.5816 13.2906 15.5147 13.3039C15.4479 13.3172 15.3785 13.3103 15.3155 13.2842C15.2525 13.2581 15.1986 13.2139 15.1608 13.1572C15.1229 13.1005 15.1026 13.0339 15.1026 12.9657C15.1028 12.8742 15.1391 12.7866 15.2038 12.722C15.2684 12.6573 15.3561 12.621 15.4475 12.6208Z" fill="black"></path>
  <path d="M12.6879 16.4138H11.3086V17.1035H12.6879V16.4138Z" fill="black"></path>
</svg>
