<svg width="355" height="400" viewBox="0 0 355 400" fill="none" xmlns="http://www.w3.org/2000/svg">
<path d="M16.1501 81.782L162.145 5.02596C171.417 0.139784 182.846 0.139784 192.118 5.02596L338.113 81.782C347.384 86.6681 353.099 95.6729 353.099 105.427V294.434C353.099 304.187 347.384 313.192 338.113 318.078L192.118 394.834C182.846 399.72 171.417 399.72 162.145 394.834L16.1501 318.078C6.87889 313.192 1.16406 304.187 1.16406 294.434V105.427C1.16406 95.6542 6.87889 86.6494 16.1501 81.782Z" fill="white" stroke="#930043" stroke-width="2.23497" stroke-miterlimit="10"/>
<path d="M329.651 285.91C329.651 293.431 325.207 300.447 318.025 304.207L187.154 372.908C179.973 376.668 171.063 376.668 163.923 372.908L33.0111 304.207C25.8296 300.447 21.385 293.431 21.385 285.91V269.252H14.0801V285.91C14.0801 295.788 19.924 304.993 29.3483 309.932L160.26 378.651C164.952 381.121 170.24 382.356 175.528 382.356C180.796 382.356 186.064 381.121 190.776 378.651L321.688 309.932C331.112 304.993 336.956 295.788 336.956 285.91V269.252H329.672V285.91H329.651ZM321.688 89.9175L190.776 21.2172C181.372 16.2592 169.664 16.2779 160.26 21.2172L29.3689 89.9175C19.9446 94.8754 14.1007 104.08 14.1007 113.959V207.598H21.4055V113.959C21.4055 106.438 25.8502 99.4218 33.0316 95.6612L163.882 26.9609C171.063 23.2004 179.973 23.2004 187.113 26.9609L318.025 95.6612C325.207 99.4218 329.651 106.438 329.651 113.959V207.598H336.936V113.959C336.956 104.08 331.112 94.8754 321.688 89.9175Z" fill="#930043"/>
<path d="M103.271 95.6765V77.6042H106.841L109.403 91.4408L111.964 77.6042H115.534V95.6765H112.953V81.4163L110.371 95.6765H108.435L105.853 81.4163V95.6765H103.271ZM124.428 95.858C123.52 95.858 122.74 95.7202 122.088 95.4446C121.443 95.1689 120.928 94.7655 120.545 94.2344C120.162 93.7032 119.883 93.0813 119.708 92.3686C119.533 91.6492 119.446 90.8155 119.446 89.8675V83.3123C119.446 82.3643 119.533 81.5373 119.708 80.8314C119.883 80.1254 120.162 79.5136 120.545 78.9959C120.928 78.4715 121.443 78.0781 122.088 77.8159C122.74 77.5537 123.52 77.4226 124.428 77.4226C126.189 77.4226 127.46 77.9269 128.24 78.9354C129.02 79.9439 129.41 81.4028 129.41 83.3123V89.8675C129.41 90.8021 129.319 91.6291 129.137 92.3485C128.963 93.0611 128.684 93.6864 128.3 94.2243C127.917 94.7554 127.399 95.1622 126.747 95.4446C126.102 95.7202 125.329 95.858 124.428 95.858ZM122.542 92.9233C122.891 93.4679 123.52 93.7402 124.428 93.7402C125.335 93.7402 125.961 93.4679 126.304 92.9233C126.653 92.3787 126.828 91.5753 126.828 90.513V82.6668C126.828 81.618 126.657 80.8347 126.314 80.317C125.971 79.7993 125.342 79.5405 124.428 79.5405C123.513 79.5405 122.885 79.7993 122.542 80.317C122.199 80.8347 122.028 81.618 122.028 82.6668V90.513C122.028 91.5753 122.199 92.3787 122.542 92.9233ZM138.031 95.858C136.404 95.858 135.16 95.3807 134.299 94.426C133.446 93.4713 132.968 92.1669 132.867 90.513L135.449 89.8675C135.577 92.4493 136.437 93.7402 138.031 93.7402C139.322 93.7402 139.967 93.0947 139.967 91.8039C139.967 91.4206 139.913 91.0677 139.806 90.7449C139.705 90.4155 139.547 90.1163 139.332 89.8474C139.117 89.5717 138.922 89.3532 138.747 89.1918C138.572 89.0238 138.333 88.8187 138.031 88.5767L134.804 85.9949C134.212 85.531 133.738 84.9427 133.382 84.23C133.032 83.5106 132.857 82.6937 132.857 81.7794C132.857 80.4481 133.271 79.3892 134.098 78.6026C134.925 77.8159 136.021 77.4226 137.385 77.4226C138.851 77.4226 140.014 77.7823 140.875 78.5017C141.742 79.2144 142.277 80.2263 142.478 81.5373C142.499 81.6785 142.522 81.8735 142.549 82.1222L139.967 82.7677C139.96 82.6534 139.944 82.4819 139.917 82.2533C139.802 81.4331 139.544 80.7776 139.14 80.2868C138.744 79.7892 138.159 79.5405 137.385 79.5405C136.767 79.5405 136.289 79.7153 135.953 80.0649C135.617 80.4078 135.449 80.8885 135.449 81.5071C135.449 82.5223 135.879 83.3728 136.74 84.0586L139.967 86.6403C141.688 88.0321 142.549 89.6961 142.549 91.6324C142.549 92.9569 142.139 93.9923 141.319 94.7386C140.505 95.4849 139.409 95.858 138.031 95.858ZM148.013 95.6765V79.9035H144.786V77.6042H153.822V79.9035H150.595V95.6765H148.013ZM165.185 85.3495H165.83C166.906 85.3495 167.713 85.1242 168.251 84.6738C168.789 84.2166 169.058 83.4736 169.058 82.445C169.058 81.4163 168.789 80.6767 168.251 80.2263C167.713 79.7691 166.906 79.5405 165.83 79.5405H165.185V85.3495ZM162.603 95.6765V77.6042H165.83C167.753 77.6042 169.202 77.9773 170.177 78.7236C171.152 79.4699 171.639 80.7103 171.639 82.445C171.639 83.5207 171.448 84.4216 171.065 85.1477C170.681 85.8739 170.12 86.3714 169.38 86.6403L172.285 95.6765H169.723L167.121 87.2858H165.185V95.6765H162.603ZM175.43 95.6765V77.6042H182.53V79.5405H178.012V85.3495H181.239V87.2858H178.012V93.7402H182.53V95.6765H175.43ZM188.478 95.6765L184.605 77.6042H187.187L189.093 87.2858L189.759 91.8039L190.445 87.2858L192.351 77.6042H194.933L191.06 95.6765H188.478ZM198.118 95.6765V77.6042H200.7V95.6765H198.118ZM205.115 95.6765V77.6042H212.215V79.5405H207.697V85.3495H210.924V87.2858H207.697V93.7402H212.215V95.6765H205.115ZM217.508 95.6765L214.281 77.6042H216.863L218.154 85.9949L218.809 91.1584L219.444 85.9949L220.735 77.6042H223.317L224.608 85.9949L225.243 91.1584L225.899 85.9949L227.19 77.6042H229.771L226.544 95.6765H223.962L222.672 87.2858L222.026 82.1222L221.381 87.2858L220.09 95.6765H217.508ZM232.826 95.6765V77.6042H239.925V79.5405H235.407V85.3495H238.635V87.2858H235.407V93.7402H239.925V95.6765H232.826ZM243.171 95.6765V77.6042H247.175C249.064 77.6042 250.395 77.9907 251.169 78.7639C251.949 79.5371 252.339 80.8717 252.339 82.7677V89.8675C252.339 91.8509 251.942 93.3166 251.148 94.2646C250.362 95.2059 249.031 95.6765 247.155 95.6765H243.171ZM245.753 93.7402H247.175C247.599 93.7402 247.962 93.7032 248.264 93.6293C248.567 93.5486 248.812 93.4074 249 93.2057C249.189 92.9973 249.337 92.8023 249.444 92.6208C249.552 92.4325 249.626 92.1434 249.666 91.7534C249.713 91.3635 249.74 91.0441 249.747 90.7954C249.753 90.5399 249.757 90.1466 249.757 89.6154C249.757 89.4406 249.757 89.3095 249.757 89.2221V83.4131C249.757 83.0837 249.753 82.8215 249.747 82.6265C249.747 82.4315 249.737 82.2029 249.716 81.9407C249.703 81.6718 249.679 81.46 249.646 81.3054C249.612 81.1507 249.565 80.9793 249.505 80.791C249.444 80.596 249.367 80.4448 249.273 80.3372C249.185 80.2296 249.074 80.1187 248.94 80.0044C248.812 79.8834 248.661 79.796 248.486 79.7422C248.318 79.6817 248.12 79.6346 247.891 79.601C247.662 79.5606 247.407 79.5405 247.125 79.5405H245.753V93.7402Z" fill="#930043"/>
<path d="M78.2975 143L74.2523 122.898H77.5033L80.1587 137.118L82.6404 122.898H85.9659L81.9207 143H78.2975ZM93.5258 143.273C92.0368 143.273 90.8786 143 90.0514 142.454C89.2242 141.908 88.6534 141.13 88.339 140.121C88.0247 139.112 87.8675 137.904 87.8675 136.498V122.898H91.4411V136.92C91.4411 137.549 91.4825 138.144 91.5652 138.707C91.648 139.253 91.8382 139.699 92.136 140.047C92.4504 140.378 92.9136 140.543 93.5258 140.543C94.171 140.543 94.6343 140.378 94.9155 140.047C95.2133 139.699 95.4036 139.253 95.4863 138.707C95.5856 138.144 95.6352 137.549 95.6352 136.92V122.898H99.184V136.498C99.184 137.904 99.0269 139.112 98.7125 140.121C98.3982 141.13 97.8274 141.908 97.0001 142.454C96.1895 143 95.0313 143.273 93.5258 143.273ZM102.073 143V122.898H110.511V125.479H105.746V131.262H109.493V133.818H105.746V140.469H110.56V143H102.073ZM117.457 143.496V140.915C117.986 140.915 118.425 140.882 118.772 140.816C119.12 140.75 119.384 140.634 119.566 140.469C119.765 140.287 119.905 140.03 119.988 139.699C120.071 139.352 120.112 138.913 120.112 138.384V122.898H123.76V138.533C123.76 139.658 123.628 140.593 123.363 141.337C123.099 142.065 122.635 142.611 121.974 142.975C121.328 143.323 120.41 143.496 119.219 143.496H117.457ZM131.88 143.273C130.672 143.273 129.663 143.041 128.852 142.578C128.041 142.098 127.429 141.403 127.016 140.493C126.602 139.584 126.37 138.467 126.321 137.143L129.473 136.523C129.506 137.3 129.597 137.987 129.746 138.583C129.911 139.178 130.151 139.641 130.465 139.972C130.796 140.287 131.226 140.444 131.756 140.444C132.351 140.444 132.773 140.27 133.021 139.923C133.27 139.559 133.394 139.104 133.394 138.558C133.394 137.681 133.195 136.961 132.798 136.399C132.401 135.836 131.872 135.274 131.21 134.711L128.678 132.478C127.967 131.865 127.396 131.187 126.966 130.443C126.552 129.682 126.346 128.747 126.346 127.638C126.346 126.05 126.809 124.826 127.735 123.965C128.662 123.105 129.928 122.675 131.532 122.675C132.475 122.675 133.261 122.824 133.89 123.122C134.519 123.403 135.015 123.8 135.379 124.313C135.76 124.826 136.041 125.413 136.223 126.075C136.405 126.72 136.521 127.407 136.57 128.135L133.443 128.681C133.41 128.052 133.336 127.489 133.22 126.993C133.121 126.497 132.93 126.108 132.649 125.827C132.384 125.545 131.987 125.405 131.458 125.405C130.912 125.405 130.49 125.587 130.192 125.951C129.911 126.298 129.77 126.737 129.77 127.266C129.77 127.944 129.911 128.507 130.192 128.954C130.473 129.384 130.879 129.83 131.408 130.294L133.915 132.502C134.742 133.197 135.445 134.016 136.024 134.959C136.62 135.886 136.918 137.011 136.918 138.334C136.918 139.294 136.703 140.146 136.272 140.891C135.859 141.635 135.271 142.222 134.51 142.653C133.766 143.066 132.889 143.273 131.88 143.273ZM145.115 143V122.898H149.855C151.493 122.898 152.767 123.122 153.677 123.568C154.603 124.015 155.257 124.702 155.637 125.628C156.034 126.555 156.233 127.729 156.233 129.152V136.498C156.233 137.954 156.034 139.17 155.637 140.146C155.257 141.106 154.611 141.825 153.701 142.305C152.808 142.768 151.575 143 150.004 143H145.115ZM148.788 140.444H149.904C150.748 140.444 151.352 140.295 151.716 139.997C152.08 139.699 152.303 139.269 152.386 138.707C152.469 138.128 152.51 137.424 152.51 136.597V128.904C152.51 128.093 152.452 127.44 152.337 126.943C152.221 126.447 151.981 126.083 151.617 125.851C151.253 125.62 150.666 125.504 149.855 125.504H148.788V140.444ZM158.929 143V122.898H167.367V125.479H162.602V131.262H166.349V133.818H162.602V140.469H167.416V143H158.929ZM172.621 143L168.576 122.898H171.827L174.483 137.118L176.964 122.898H180.29L176.245 143H172.621ZM182.34 143V122.898H190.778V125.479H186.013V131.262H189.76V133.818H186.013V140.469H190.828V143H182.34ZM192.955 143V122.898H196.628V140.469H201.492V143H192.955ZM208.618 143.273C207.195 143.273 206.062 143.008 205.218 142.479C204.374 141.949 203.771 141.188 203.407 140.196C203.043 139.203 202.861 138.028 202.861 136.672V129.152C202.861 127.795 203.043 126.637 203.407 125.678C203.771 124.702 204.374 123.957 205.218 123.444C206.062 122.931 207.195 122.675 208.618 122.675C210.074 122.675 211.216 122.931 212.043 123.444C212.887 123.957 213.49 124.702 213.854 125.678C214.235 126.637 214.425 127.795 214.425 129.152V136.696C214.425 138.037 214.235 139.203 213.854 140.196C213.49 141.172 212.887 141.933 212.043 142.479C211.216 143.008 210.074 143.273 208.618 143.273ZM208.618 140.568C209.23 140.568 209.677 140.436 209.958 140.171C210.256 139.906 210.455 139.542 210.554 139.079C210.653 138.616 210.703 138.111 210.703 137.565V128.308C210.703 127.746 210.653 127.241 210.554 126.795C210.455 126.348 210.256 126 209.958 125.752C209.677 125.488 209.23 125.355 208.618 125.355C208.039 125.355 207.601 125.488 207.303 125.752C207.005 126 206.806 126.348 206.707 126.795C206.608 127.241 206.558 127.746 206.558 128.308V137.565C206.558 138.111 206.6 138.616 206.682 139.079C206.782 139.542 206.98 139.906 207.278 140.171C207.576 140.436 208.022 140.568 208.618 140.568ZM217.142 143V122.898H223.049C224.256 122.898 225.232 123.122 225.977 123.568C226.738 124.015 227.292 124.669 227.64 125.529C228.004 126.373 228.186 127.398 228.186 128.606C228.186 129.913 227.962 130.972 227.516 131.783C227.069 132.577 226.44 133.156 225.63 133.52C224.835 133.884 223.892 134.066 222.8 134.066H220.815V143H217.142ZM220.815 131.485H222.205C222.867 131.485 223.379 131.394 223.743 131.212C224.124 131.013 224.38 130.707 224.513 130.294C224.662 129.864 224.736 129.293 224.736 128.581C224.736 127.853 224.678 127.266 224.562 126.819C224.463 126.356 224.231 126.017 223.868 125.802C223.52 125.587 222.966 125.479 222.205 125.479H220.815V131.485ZM230.18 143L230.527 122.898H234.324L237.178 136.821L240.156 122.898H243.829L244.201 143H241.471L241.173 129.028L238.32 143H236.111L233.207 128.978L232.934 143H230.18ZM247.17 143V122.898H255.607V125.479H250.843V131.262H254.59V133.818H250.843V140.469H255.657V143H247.17ZM257.785 143V122.898H260.341L265.23 134.364V122.898H268.257V143H265.825L260.912 130.989V143H257.785ZM273.318 143V125.603H270.117V122.898H280.143V125.603H276.991V143H273.318ZM127.732 180.273C126.259 180.273 125.101 179.983 124.257 179.404C123.43 178.825 122.851 178.039 122.52 177.047C122.189 176.038 122.024 174.879 122.024 173.572V166.4C122.024 165.027 122.189 163.836 122.52 162.827C122.851 161.817 123.43 161.04 124.257 160.494C125.101 159.948 126.259 159.675 127.732 159.675C129.121 159.675 130.205 159.915 130.983 160.395C131.777 160.858 132.339 161.528 132.67 162.405C133.001 163.282 133.166 164.299 133.166 165.457V167.145H129.642V165.408C129.642 164.845 129.609 164.332 129.543 163.869C129.494 163.406 129.336 163.042 129.072 162.777C128.824 162.496 128.385 162.355 127.756 162.355C127.128 162.355 126.664 162.504 126.367 162.802C126.085 163.083 125.903 163.472 125.821 163.968C125.738 164.448 125.697 164.994 125.697 165.606V174.342C125.697 175.07 125.754 175.674 125.87 176.153C125.986 176.617 126.193 176.972 126.491 177.221C126.805 177.452 127.227 177.568 127.756 177.568C128.369 177.568 128.799 177.427 129.047 177.146C129.312 176.848 129.477 176.459 129.543 175.98C129.609 175.5 129.642 174.962 129.642 174.367V172.555H133.166V174.168C133.166 175.359 133.009 176.418 132.695 177.345C132.381 178.255 131.826 178.974 131.032 179.504C130.255 180.017 129.154 180.273 127.732 180.273ZM141.183 180.273C139.76 180.273 138.627 180.008 137.783 179.479C136.94 178.949 136.336 178.188 135.972 177.196C135.608 176.203 135.426 175.028 135.426 173.672V166.152C135.426 164.795 135.608 163.637 135.972 162.678C136.336 161.702 136.94 160.957 137.783 160.444C138.627 159.931 139.76 159.675 141.183 159.675C142.639 159.675 143.781 159.931 144.608 160.444C145.452 160.957 146.056 161.702 146.42 162.678C146.8 163.637 146.991 164.795 146.991 166.152V173.696C146.991 175.037 146.8 176.203 146.42 177.196C146.056 178.172 145.452 178.933 144.608 179.479C143.781 180.008 142.639 180.273 141.183 180.273ZM141.183 177.568C141.795 177.568 142.242 177.436 142.523 177.171C142.821 176.906 143.02 176.542 143.119 176.079C143.218 175.616 143.268 175.111 143.268 174.565V165.308C143.268 164.746 143.218 164.241 143.119 163.795C143.02 163.348 142.821 163 142.523 162.752C142.242 162.488 141.795 162.355 141.183 162.355C140.604 162.355 140.166 162.488 139.868 162.752C139.57 163 139.372 163.348 139.272 163.795C139.173 164.241 139.124 164.746 139.124 165.308V174.565C139.124 175.111 139.165 175.616 139.248 176.079C139.347 176.542 139.545 176.906 139.843 177.171C140.141 177.436 140.588 177.568 141.183 177.568ZM149.658 180L150.005 159.898H153.802L156.656 173.821L159.634 159.898H163.307L163.679 180H160.949L160.652 166.028L157.798 180H155.589L152.685 165.978L152.412 180H149.658ZM166.648 180V159.898H172.554C173.762 159.898 174.738 160.122 175.483 160.568C176.244 161.015 176.798 161.669 177.145 162.529C177.509 163.373 177.691 164.398 177.691 165.606C177.691 166.913 177.468 167.972 177.021 168.783C176.575 169.577 175.946 170.156 175.135 170.52C174.341 170.884 173.398 171.066 172.306 171.066H170.321V180H166.648ZM170.321 168.485H171.711C172.372 168.485 172.885 168.394 173.249 168.212C173.63 168.013 173.886 167.707 174.018 167.294C174.167 166.864 174.242 166.293 174.242 165.581C174.242 164.853 174.184 164.266 174.068 163.819C173.969 163.356 173.737 163.017 173.373 162.802C173.026 162.587 172.472 162.479 171.711 162.479H170.321V168.485ZM177.651 180L181.671 159.898H185.593L189.613 180H186.213L185.419 175.359H181.92L181.101 180H177.651ZM182.292 173.026H185.022L183.657 164.589L182.292 173.026ZM191.634 180V159.898H194.191L199.08 171.364V159.898H202.107V180H199.675L194.761 167.989V180H191.634ZM205.257 180V159.898H208.88V180H205.257ZM211.992 180V159.898H220.43V162.479H215.665V168.262H219.412V170.818H215.665V177.469H220.48V180H211.992ZM227.67 180.273C226.462 180.273 225.453 180.041 224.642 179.578C223.831 179.098 223.219 178.403 222.806 177.493C222.392 176.584 222.16 175.467 222.111 174.143L225.263 173.523C225.296 174.3 225.387 174.987 225.536 175.583C225.701 176.178 225.941 176.641 226.255 176.972C226.586 177.287 227.016 177.444 227.546 177.444C228.141 177.444 228.563 177.27 228.811 176.923C229.06 176.559 229.184 176.104 229.184 175.558C229.184 174.681 228.985 173.961 228.588 173.399C228.191 172.836 227.662 172.274 227 171.711L224.468 169.478C223.757 168.865 223.186 168.187 222.756 167.443C222.342 166.682 222.136 165.747 222.136 164.638C222.136 163.05 222.599 161.826 223.525 160.965C224.452 160.105 225.718 159.675 227.322 159.675C228.265 159.675 229.051 159.824 229.68 160.122C230.309 160.403 230.805 160.8 231.169 161.313C231.55 161.826 231.831 162.413 232.013 163.075C232.195 163.72 232.311 164.407 232.36 165.135L229.233 165.681C229.2 165.052 229.126 164.489 229.01 163.993C228.911 163.497 228.72 163.108 228.439 162.827C228.174 162.545 227.777 162.405 227.248 162.405C226.702 162.405 226.28 162.587 225.982 162.951C225.701 163.298 225.56 163.737 225.56 164.266C225.56 164.944 225.701 165.507 225.982 165.954C226.264 166.384 226.669 166.83 227.198 167.294L229.705 169.502C230.532 170.197 231.235 171.016 231.814 171.959C232.41 172.886 232.708 174.011 232.708 175.334C232.708 176.294 232.493 177.146 232.062 177.891C231.649 178.635 231.061 179.222 230.3 179.653C229.556 180.066 228.679 180.273 227.67 180.273Z" fill="black"/>
<rect x="1.16406" y="215.85" width="351.935" height="44.37" fill="#930043"/>
<circle cx="177.633" cy="235.007" r="37.3111" fill="white"/>
<path d="M69.8351 223.513L74.2284 232.413L84.053 233.849L76.944 240.773L78.6218 250.555L69.8351 245.935L61.0484 250.555L62.7261 240.773L55.6172 233.849L65.4418 232.413L69.8351 223.513Z" fill="white"/>
<path d="M110.939 223.513L115.332 232.413L125.157 233.849L118.048 240.773L119.725 250.555L110.939 245.935L102.152 250.555L103.83 240.773L96.7207 233.849L106.545 232.413L110.939 223.513Z" fill="white"/>
<path d="M178.842 213.827L186.382 229.101L203.242 231.566L191.042 243.449L193.921 260.236L178.842 252.306L163.762 260.236L166.642 243.449L154.441 231.566L171.302 229.101L178.842 213.827Z" fill="#930043"/>
<path d="M240.614 223.513L245.008 232.413L254.832 233.849L247.723 240.773L249.401 250.555L240.614 245.935L231.828 250.555L233.505 240.773L226.396 233.849L236.221 232.413L240.614 223.513Z" fill="white"/>
<path d="M281.718 223.513L286.111 232.413L295.936 233.849L288.827 240.773L290.505 250.555L281.718 245.935L272.931 250.555L274.609 240.773L267.5 233.849L277.325 232.413L281.718 223.513Z" fill="white"/>
<g clip-path="url(#clip0_929_2701)">
<path d="M185.575 289.985V294.739H181.085V283.91H179.501V294.739H174.747V283.91H173.162V300.813H168.673V289.985H167.088V307.152H168.673V302.398H179.501V313.226H181.085V296.323H185.575V307.152H187.16V289.985H185.575ZM179.501 300.813H174.747V296.323H179.501V300.813Z" fill="#930043"/>
<path d="M174.745 303.192H173.16V313.228H174.745V303.192Z" fill="#930043"/>
</g>
<path d="M134.244 321.307V330.8H132.124V327.24H125.762V330.8H123.643V321.307H125.762V324.867H132.124V321.307H134.244Z" fill="black"/>
<path d="M136.055 330.802V321.294H138.696V330.802H136.055Z" fill="black"/>
<path d="M150.84 323.68H146.6V330.8H144.48V323.68H140.238V321.307H150.84V323.68Z" fill="black"/>
<path d="M162.883 321.307V323.68H154.401V323.682H152.281V321.307H162.883ZM162.883 325.068V327.003H154.401V327.008H152.281V325.068H162.883ZM162.883 328.427V330.8H152.281V328.427H162.883Z" fill="black"/>
<path d="M175.305 324.382V325.46H173.185V324.593C173.185 324.089 172.819 323.68 172.369 323.68H164.703V321.307H172.558C172.774 321.307 172.983 321.335 173.185 321.389C174.199 321.653 174.996 322.546 175.235 323.682C175.28 323.906 175.305 324.14 175.305 324.382ZM167.639 328.427H175.305V330.8H167.45C167.353 330.8 167.257 330.795 167.164 330.782C167.048 330.769 166.935 330.747 166.823 330.719C165.81 330.454 165.012 329.562 164.774 328.425C164.756 328.341 164.742 328.257 164.731 328.173C164.713 328.026 164.701 327.876 164.701 327.723V324.966H166.821V327.512C166.823 328.018 167.189 328.427 167.639 328.427Z" fill="black"/>
<path d="M187.611 321.307V330.8H185.491V327.24H179.13V330.8H177.01V321.307H179.13V324.867H185.491V321.307H187.611Z" fill="black"/>
<path d="M205.631 321.307V330.8H203.511V327.24H197.149V330.8H195.029V321.307H197.149V324.867H203.511V321.307H205.631Z" fill="#930043"/>
<path d="M218.063 321.307V330.8H216V329.783L215.175 330.8H209.892C208.643 330.655 207.641 329.572 207.459 328.191V321.307H209.579V327.514C209.579 328.018 209.945 328.427 210.395 328.427H215.936L215.941 321.307H218.063Z" fill="#930043"/>
<path d="M230.565 327.28C230.592 327.45 230.605 327.626 230.605 327.804C230.605 328.012 230.587 328.216 230.551 328.411C230.317 329.685 229.358 330.664 228.177 330.784C228.097 330.792 228.015 330.797 227.931 330.797C227.847 330.797 227.768 330.792 227.686 330.784H222.096V330.797H219.977V328.414H219.979V327.282H219.977V324.93H219.979V323.643H219.977V321.294H227.931C229.217 321.294 230.294 322.311 230.549 323.666C230.587 323.867 230.605 324.073 230.605 324.287C230.605 324.5 230.585 324.706 230.549 324.907C230.471 325.327 230.312 325.713 230.096 326.046C230.328 326.405 230.492 326.825 230.565 327.28ZM228.486 324.287C228.486 323.946 228.238 323.666 227.931 323.666H226.361V323.643H222.099V324.93H226.361V324.907H227.931C228.031 324.907 228.122 324.879 228.204 324.828C228.372 324.722 228.486 324.518 228.486 324.287ZM228.486 327.806C228.486 327.585 228.381 327.392 228.227 327.282H222.101V328.414H228.045C228.295 328.355 228.486 328.104 228.486 327.806Z" fill="#930043"/>
<defs>
<clipPath id="clip0_929_2701">
<rect width="20.072" height="29.3157" fill="white" transform="translate(167.088 283.911)"/>
</clipPath>
</defs>
</svg>
