<svg width="355" height="401" viewBox="0 0 355 401" fill="none" xmlns="http://www.w3.org/2000/svg">
<path d="M16.0954 82.2629L162.091 5.50692C171.362 0.620741 182.792 0.620741 192.063 5.50692L338.058 82.2629C347.329 87.1491 353.044 96.1539 353.044 105.908V294.915C353.044 304.668 347.329 313.673 338.058 318.559L192.063 395.315C182.792 400.201 171.362 400.201 162.091 395.315L16.0954 318.559C6.82421 313.673 1.10938 304.668 1.10938 294.915V105.908C1.10937 96.1352 6.82421 87.1304 16.0954 82.2629Z" fill="white" stroke="#930043" stroke-width="2.23497" stroke-miterlimit="10"/>
<path d="M329.597 286.391C329.597 293.912 325.152 300.928 317.97 304.688L187.1 373.388C179.918 377.149 171.008 377.149 163.868 373.388L32.9564 304.688C25.7749 300.928 21.3303 293.912 21.3303 286.391V269.733H14.0254V286.391C14.0254 296.269 19.8693 305.474 29.2936 310.413L160.205 379.132C164.897 381.602 170.185 382.837 175.474 382.837C180.741 382.837 186.009 381.602 190.721 379.132L321.633 310.413C331.058 305.474 336.901 296.269 336.901 286.391V269.733H329.617V286.391H329.597ZM321.633 90.3984L190.721 21.6981C181.318 16.7402 169.609 16.7589 160.205 21.6981L29.3142 90.3984C19.8899 95.3564 14.046 104.561 14.046 114.44V208.079H21.3509V114.44C21.3509 106.919 25.7955 99.9027 32.9769 96.1422L163.827 27.4419C171.008 23.6813 179.918 23.6813 187.059 27.4419L317.97 96.1422C325.152 99.9027 329.597 106.919 329.597 114.44V208.079H336.881V114.44C336.901 104.561 331.058 95.3564 321.633 90.3984Z" fill="#930043"/>
<path d="M103.214 96.1575V78.0851H106.784L109.346 91.9218L111.908 78.0851H115.478V96.1575H112.896V81.8972L110.314 96.1575H108.378L105.796 81.8972V96.1575H103.214ZM124.371 96.339C123.463 96.339 122.684 96.2012 122.031 95.9255C121.386 95.6499 120.872 95.2465 120.488 94.7153C120.105 94.1842 119.826 93.5623 119.651 92.8496C119.477 92.1302 119.389 91.2965 119.389 90.3485V83.7932C119.389 82.8452 119.477 82.0183 119.651 81.3123C119.826 80.6064 120.105 79.9945 120.488 79.4768C120.872 78.9524 121.386 78.5591 122.031 78.2969C122.684 78.0347 123.463 77.9036 124.371 77.9036C126.133 77.9036 127.403 78.4078 128.183 79.4163C128.963 80.4248 129.353 81.8838 129.353 83.7932V90.3485C129.353 91.283 129.262 92.11 129.081 92.8294C128.906 93.5421 128.627 94.1674 128.244 94.7052C127.861 95.2364 127.343 95.6431 126.691 95.9255C126.045 96.2012 125.272 96.339 124.371 96.339ZM122.485 93.4043C122.835 93.9489 123.463 94.2211 124.371 94.2211C125.279 94.2211 125.904 93.9489 126.247 93.4043C126.597 92.8597 126.771 92.0562 126.771 90.9939V83.1478C126.771 82.0989 126.6 81.3157 126.257 80.798C125.914 80.2803 125.285 80.0214 124.371 80.0214C123.457 80.0214 122.828 80.2803 122.485 80.798C122.142 81.3157 121.971 82.0989 121.971 83.1478V90.9939C121.971 92.0562 122.142 92.8597 122.485 93.4043ZM137.974 96.339C136.347 96.339 135.103 95.8616 134.243 94.9069C133.389 93.9522 132.912 92.6479 132.811 90.9939L135.392 90.3485C135.52 92.9303 136.381 94.2211 137.974 94.2211C139.265 94.2211 139.911 93.5757 139.911 92.2848C139.911 91.9016 139.857 91.5486 139.749 91.2259C139.648 90.8965 139.49 90.5973 139.275 90.3283C139.06 90.0527 138.865 89.8342 138.69 89.6728C138.515 89.5047 138.277 89.2997 137.974 89.0576L134.747 86.4758C134.155 86.0119 133.681 85.4236 133.325 84.711C132.975 83.9916 132.801 83.1747 132.801 82.2603C132.801 80.9291 133.214 79.8702 134.041 79.0835C134.868 78.2969 135.964 77.9036 137.329 77.9036C138.794 77.9036 139.958 78.2633 140.818 78.9827C141.685 79.6954 142.22 80.7072 142.422 82.0183C142.442 82.1595 142.465 82.3544 142.492 82.6032L139.911 83.2486C139.904 83.1343 139.887 82.9629 139.86 82.7343C139.746 81.9141 139.487 81.2585 139.084 80.7677C138.687 80.2702 138.102 80.0214 137.329 80.0214C136.71 80.0214 136.233 80.1962 135.897 80.5459C135.561 80.8887 135.392 81.3695 135.392 81.988C135.392 83.0032 135.823 83.8537 136.683 84.5395L139.911 87.1213C141.632 88.513 142.492 90.1771 142.492 92.1134C142.492 93.4379 142.082 94.4733 141.262 95.2196C140.448 95.9659 139.352 96.339 137.974 96.339ZM147.957 96.1575V80.3845H144.73V78.0851H153.766V80.3845H150.539V96.1575H147.957ZM165.128 85.8304H165.774C166.85 85.8304 167.656 85.6052 168.194 85.1547C168.732 84.6975 169.001 83.9546 169.001 82.9259C169.001 81.8972 168.732 81.1577 168.194 80.7072C167.656 80.25 166.85 80.0214 165.774 80.0214H165.128V85.8304ZM162.547 96.1575V78.0851H165.774C167.697 78.0851 169.146 78.4583 170.12 79.2045C171.095 79.9508 171.583 81.1913 171.583 82.9259C171.583 84.0017 171.391 84.9026 171.008 85.6287C170.625 86.3548 170.063 86.8524 169.324 87.1213L172.228 96.1575H169.667L167.065 87.7667H165.128V96.1575H162.547ZM175.373 96.1575V78.0851H182.473V80.0214H177.955V85.8304H181.182V87.7667H177.955V94.2211H182.473V96.1575H175.373ZM188.422 96.1575L184.549 78.0851H187.131L189.037 87.7667L189.702 92.2848L190.388 87.7667L192.294 78.0851H194.876L191.003 96.1575H188.422ZM198.061 96.1575V78.0851H200.643V96.1575H198.061ZM205.059 96.1575V78.0851H212.158V80.0214H207.64V85.8304H210.868V87.7667H207.64V94.2211H212.158V96.1575H205.059ZM217.451 96.1575L214.224 78.0851H216.806L218.097 86.4758L218.752 91.6394L219.388 86.4758L220.679 78.0851H223.26L224.551 86.4758L225.187 91.6394L225.842 86.4758L227.133 78.0851H229.715L226.488 96.1575H223.906L222.615 87.7667L221.97 82.6032L221.324 87.7667L220.033 96.1575H217.451ZM232.769 96.1575V78.0851H239.869V80.0214H235.351V85.8304H238.578V87.7667H235.351V94.2211H239.869V96.1575H232.769ZM243.115 96.1575V78.0851H247.118C249.008 78.0851 250.339 78.4717 251.112 79.2449C251.892 80.0181 252.282 81.3527 252.282 83.2486V90.3485C252.282 92.3319 251.885 93.7976 251.092 94.7456C250.305 95.6868 248.974 96.1575 247.098 96.1575H243.115ZM245.696 94.2211H247.118C247.542 94.2211 247.905 94.1842 248.208 94.1102C248.51 94.0295 248.755 93.8883 248.944 93.6866C249.132 93.4782 249.28 93.2832 249.387 93.1017C249.495 92.9135 249.569 92.6244 249.609 92.2344C249.656 91.8444 249.683 91.5251 249.69 91.2763C249.697 91.0208 249.7 90.6275 249.7 90.0964C249.7 89.9216 249.7 89.7905 249.7 89.7031V83.8941C249.7 83.5646 249.697 83.3024 249.69 83.1075C249.69 82.9125 249.68 82.6839 249.66 82.4217C249.646 82.1527 249.623 81.9409 249.589 81.7863C249.556 81.6317 249.508 81.4602 249.448 81.272C249.387 81.077 249.31 80.9257 249.216 80.8182C249.129 80.7106 249.018 80.5996 248.883 80.4853C248.755 80.3643 248.604 80.2769 248.429 80.2231C248.261 80.1626 248.063 80.1156 247.834 80.0819C247.606 80.0416 247.35 80.0214 247.068 80.0214H245.696V94.2211Z" fill="#930043"/>
<path d="M87.7659 144L84.912 123.898H87.9893L89.652 136.927L91.7367 123.948H94.2432L96.3774 136.927L98.0153 123.898H101.043L98.2387 144H95.2607L93.0271 130.524L90.8184 144H87.7659ZM103.324 144V123.898H111.762V126.479H106.997V132.262H110.744V134.818H106.997V141.469H111.811V144H103.324ZM113.939 144V123.898H118.878C119.771 123.898 120.574 123.981 121.285 124.146C122.013 124.312 122.633 124.593 123.146 124.99C123.676 125.371 124.081 125.892 124.362 126.554C124.643 127.215 124.784 128.051 124.784 129.06C124.784 129.871 124.668 130.566 124.437 131.145C124.222 131.724 123.899 132.187 123.469 132.535C123.039 132.865 122.501 133.089 121.856 133.205C122.65 133.337 123.303 133.618 123.816 134.048C124.346 134.462 124.734 135.008 124.983 135.686C125.247 136.365 125.38 137.184 125.38 138.143C125.38 139.103 125.256 139.955 125.007 140.699C124.776 141.427 124.42 142.039 123.94 142.536C123.477 143.016 122.89 143.38 122.178 143.628C121.483 143.876 120.664 144 119.721 144H113.939ZM117.612 141.419H119.002C120.11 141.419 120.863 141.154 121.26 140.625C121.657 140.079 121.856 139.243 121.856 138.118C121.856 137.308 121.756 136.654 121.558 136.158C121.376 135.645 121.062 135.264 120.615 135.016C120.185 134.768 119.606 134.644 118.878 134.644H117.612V141.419ZM117.612 132.113H118.853C119.581 132.113 120.143 132.005 120.54 131.79C120.937 131.575 121.21 131.244 121.359 130.797C121.525 130.351 121.608 129.788 121.608 129.11C121.608 128.398 121.483 127.852 121.235 127.472C121.004 127.075 120.648 126.81 120.168 126.678C119.688 126.529 119.076 126.454 118.332 126.454H117.612V132.113ZM133.788 144V123.898H138.528C140.166 123.898 141.44 124.122 142.35 124.568C143.276 125.015 143.93 125.702 144.31 126.628C144.707 127.555 144.906 128.729 144.906 130.152V137.498C144.906 138.954 144.707 140.17 144.31 141.146C143.93 142.106 143.284 142.825 142.374 143.305C141.481 143.768 140.249 144 138.677 144H133.788ZM137.461 141.444H138.577C139.421 141.444 140.025 141.295 140.389 140.997C140.753 140.699 140.976 140.269 141.059 139.707C141.142 139.128 141.183 138.424 141.183 137.597V129.904C141.183 129.093 141.125 128.44 141.01 127.943C140.894 127.447 140.654 127.083 140.29 126.851C139.926 126.62 139.339 126.504 138.528 126.504H137.461V141.444ZM147.602 144V123.898H156.04V126.479H151.275V132.262H155.022V134.818H151.275V141.469H156.089V144H147.602ZM161.294 144L157.249 123.898H160.5L163.156 138.118L165.637 123.898H168.963L164.918 144H161.294ZM171.013 144V123.898H179.451V126.479H174.686V132.262H178.434V134.818H174.686V141.469H179.501V144H171.013ZM181.628 144V123.898H185.301V141.469H190.165V144H181.628ZM197.291 144.273C195.868 144.273 194.735 144.008 193.891 143.479C193.047 142.949 192.444 142.188 192.08 141.196C191.716 140.203 191.534 139.028 191.534 137.672V130.152C191.534 128.795 191.716 127.637 192.08 126.678C192.444 125.702 193.047 124.957 193.891 124.444C194.735 123.931 195.868 123.675 197.291 123.675C198.747 123.675 199.889 123.931 200.716 124.444C201.56 124.957 202.164 125.702 202.527 126.678C202.908 127.637 203.098 128.795 203.098 130.152V137.696C203.098 139.037 202.908 140.203 202.527 141.196C202.164 142.172 201.56 142.933 200.716 143.479C199.889 144.008 198.747 144.273 197.291 144.273ZM197.291 141.568C197.903 141.568 198.35 141.436 198.631 141.171C198.929 140.906 199.128 140.542 199.227 140.079C199.326 139.616 199.376 139.111 199.376 138.565V129.308C199.376 128.746 199.326 128.241 199.227 127.795C199.128 127.348 198.929 127 198.631 126.752C198.35 126.488 197.903 126.355 197.291 126.355C196.712 126.355 196.274 126.488 195.976 126.752C195.678 127 195.479 127.348 195.38 127.795C195.281 128.241 195.231 128.746 195.231 129.308V138.565C195.231 139.111 195.273 139.616 195.355 140.079C195.455 140.542 195.653 140.906 195.951 141.171C196.249 141.436 196.696 141.568 197.291 141.568ZM205.815 144V123.898H211.722C212.929 123.898 213.905 124.122 214.65 124.568C215.411 125.015 215.965 125.669 216.313 126.529C216.677 127.373 216.859 128.398 216.859 129.606C216.859 130.913 216.635 131.972 216.189 132.783C215.742 133.577 215.113 134.156 214.303 134.52C213.508 134.884 212.565 135.066 211.473 135.066H209.488V144H205.815ZM209.488 132.485H210.878C211.54 132.485 212.052 132.394 212.416 132.212C212.797 132.013 213.053 131.707 213.186 131.294C213.335 130.864 213.409 130.293 213.409 129.581C213.409 128.853 213.351 128.266 213.235 127.819C213.136 127.356 212.905 127.017 212.541 126.802C212.193 126.587 211.639 126.479 210.878 126.479H209.488V132.485ZM218.853 144L219.2 123.898H222.997L225.851 137.821L228.829 123.898H232.502L232.874 144H230.144L229.846 130.028L226.993 144H224.784L221.88 129.978L221.607 144H218.853ZM235.843 144V123.898H244.28V126.479H239.516V132.262H243.263V134.818H239.516V141.469H244.33V144H235.843ZM246.458 144V123.898H249.014L253.903 135.364V123.898H256.931V144H254.498L249.585 131.989V144H246.458ZM261.991 144V126.603H258.79V123.898H268.816V126.603H265.664V144H261.991ZM84.0868 181.273C82.6144 181.273 81.4562 180.983 80.6125 180.404C79.7852 179.825 79.2062 179.039 78.8753 178.047C78.5444 177.038 78.3789 175.879 78.3789 174.572V167.4C78.3789 166.027 78.5444 164.836 78.8753 163.827C79.2062 162.817 79.7852 162.04 80.6125 161.494C81.4562 160.948 82.6144 160.675 84.0868 160.675C85.4766 160.675 86.5603 160.915 87.3379 161.395C88.132 161.858 88.6945 162.528 89.0254 163.405C89.3563 164.282 89.5217 165.299 89.5217 166.457V168.145H85.9977V166.408C85.9977 165.845 85.9646 165.332 85.8985 164.869C85.8488 164.406 85.6917 164.042 85.4269 163.777C85.1788 163.496 84.7403 163.355 84.1116 163.355C83.483 163.355 83.0197 163.504 82.7219 163.802C82.4406 164.083 82.2587 164.472 82.1759 164.968C82.0932 165.448 82.0518 165.994 82.0518 166.606V175.342C82.0518 176.07 82.1097 176.674 82.2256 177.153C82.3414 177.617 82.5482 177.972 82.846 178.221C83.1603 178.452 83.5822 178.568 84.1116 178.568C84.7238 178.568 85.154 178.427 85.4021 178.146C85.6668 177.848 85.8323 177.459 85.8985 176.98C85.9646 176.5 85.9977 175.962 85.9977 175.367V173.555H89.5217V175.168C89.5217 176.359 89.3646 177.418 89.0502 178.345C88.7359 179.255 88.1816 179.974 87.3875 180.504C86.6099 181.017 85.5097 181.273 84.0868 181.273ZM97.5386 181.273C96.1158 181.273 94.9824 181.008 94.1387 180.479C93.2949 179.949 92.691 179.188 92.327 178.196C91.963 177.203 91.7811 176.028 91.7811 174.672V167.152C91.7811 165.795 91.963 164.637 92.327 163.678C92.691 162.702 93.2949 161.957 94.1387 161.444C94.9824 160.931 96.1158 160.675 97.5386 160.675C98.9945 160.675 100.136 160.931 100.963 161.444C101.807 161.957 102.411 162.702 102.775 163.678C103.155 164.637 103.346 165.795 103.346 167.152V174.696C103.346 176.037 103.155 177.203 102.775 178.196C102.411 179.172 101.807 179.933 100.963 180.479C100.136 181.008 98.9945 181.273 97.5386 181.273ZM97.5386 178.568C98.1507 178.568 98.5974 178.436 98.8787 178.171C99.1765 177.906 99.375 177.542 99.4743 177.079C99.5736 176.616 99.6232 176.111 99.6232 175.565V166.308C99.6232 165.746 99.5736 165.241 99.4743 164.795C99.375 164.348 99.1765 164 98.8787 163.752C98.5974 163.488 98.1507 163.355 97.5386 163.355C96.9595 163.355 96.5211 163.488 96.2233 163.752C95.9255 164 95.727 164.348 95.6277 164.795C95.5284 165.241 95.4788 165.746 95.4788 166.308V175.565C95.4788 176.111 95.5201 176.616 95.6029 177.079C95.7021 177.542 95.9007 177.906 96.1985 178.171C96.4963 178.436 96.943 178.568 97.5386 178.568ZM106.013 181L106.36 160.898H110.157L113.011 174.821L115.989 160.898H119.662L120.035 181H117.305L117.007 167.028L114.153 181H111.944L109.041 166.978L108.768 181H106.013ZM123.003 181V160.898H128.91C130.117 160.898 131.093 161.122 131.838 161.568C132.599 162.015 133.153 162.669 133.501 163.529C133.865 164.373 134.047 165.398 134.047 166.606C134.047 167.913 133.823 168.972 133.377 169.783C132.93 170.577 132.301 171.156 131.491 171.52C130.696 171.884 129.753 172.066 128.661 172.066H126.676V181H123.003ZM126.676 169.485H128.066C128.728 169.485 129.24 169.394 129.604 169.212C129.985 169.013 130.241 168.707 130.374 168.294C130.523 167.864 130.597 167.293 130.597 166.581C130.597 165.853 130.539 165.266 130.423 164.819C130.324 164.356 130.092 164.017 129.729 163.802C129.381 163.587 128.827 163.479 128.066 163.479H126.676V169.485ZM134.006 181L138.027 160.898H141.948L145.968 181H142.568L141.774 176.359H138.275L137.456 181H134.006ZM138.647 174.026H141.377L140.012 165.589L138.647 174.026ZM147.99 181V160.898H150.546L155.435 172.364V160.898H158.462V181H156.03L151.117 168.989V181H147.99ZM161.612 181V160.898H165.236V181H161.612ZM168.347 181V160.898H176.785V163.479H172.02V169.262H175.768V171.818H172.02V178.469H176.835V181H168.347ZM184.025 181.273C182.817 181.273 181.808 181.041 180.997 180.578C180.187 180.098 179.575 179.403 179.161 178.493C178.747 177.584 178.516 176.467 178.466 175.143L181.618 174.523C181.651 175.3 181.742 175.987 181.891 176.583C182.056 177.178 182.296 177.641 182.611 177.972C182.941 178.287 183.372 178.444 183.901 178.444C184.497 178.444 184.919 178.27 185.167 177.923C185.415 177.559 185.539 177.104 185.539 176.558C185.539 175.681 185.34 174.961 184.943 174.399C184.546 173.836 184.017 173.274 183.355 172.711L180.824 170.478C180.112 169.865 179.541 169.187 179.111 168.443C178.698 167.682 178.491 166.747 178.491 165.638C178.491 164.05 178.954 162.826 179.881 161.965C180.807 161.105 182.073 160.675 183.678 160.675C184.621 160.675 185.407 160.824 186.035 161.122C186.664 161.403 187.16 161.8 187.524 162.313C187.905 162.826 188.186 163.413 188.368 164.075C188.55 164.72 188.666 165.407 188.715 166.135L185.589 166.681C185.555 166.052 185.481 165.489 185.365 164.993C185.266 164.497 185.076 164.108 184.794 163.827C184.53 163.545 184.133 163.405 183.603 163.405C183.057 163.405 182.635 163.587 182.338 163.951C182.056 164.298 181.916 164.737 181.916 165.266C181.916 165.944 182.056 166.507 182.338 166.954C182.619 167.384 183.024 167.83 183.554 168.294L186.06 170.502C186.887 171.197 187.59 172.016 188.17 172.959C188.765 173.886 189.063 175.011 189.063 176.334C189.063 177.294 188.848 178.146 188.418 178.891C188.004 179.635 187.417 180.222 186.656 180.653C185.911 181.066 185.034 181.273 184.025 181.273ZM197.359 181V160.898H200.983V181H197.359ZM204.094 181V160.898H206.651L211.54 172.364V160.898H214.567V181H212.135L207.221 168.989V181H204.094ZM223.752 181V160.898H227.375V181H223.752ZM230.487 181V160.898H233.043L237.932 172.364V160.898H240.959V181H238.527L233.614 168.989V181H230.487ZM244.01 181V160.898H248.75C250.388 160.898 251.662 161.122 252.572 161.568C253.498 162.015 254.152 162.702 254.532 163.628C254.929 164.555 255.128 165.729 255.128 167.152V174.498C255.128 175.954 254.929 177.17 254.532 178.146C254.152 179.106 253.507 179.825 252.597 180.305C251.703 180.768 250.471 181 248.899 181H244.01ZM247.683 178.444H248.8C249.643 178.444 250.247 178.295 250.611 177.997C250.975 177.699 251.199 177.269 251.281 176.707C251.364 176.128 251.405 175.424 251.405 174.597V166.904C251.405 166.093 251.348 165.44 251.232 164.943C251.116 164.447 250.876 164.083 250.512 163.851C250.148 163.62 249.561 163.504 248.75 163.504H247.683V178.444ZM257.923 181V160.898H261.547V181H257.923ZM263.641 181L267.661 160.898H271.582L275.603 181H272.203L271.409 176.359H267.909L267.091 181H263.641ZM268.282 174.026H271.012L269.647 165.589L268.282 174.026Z" fill="black"/>
<rect x="1.10938" y="216.331" width="351.935" height="44.37" fill="#930043"/>
<circle cx="177.579" cy="235.488" r="37.3111" fill="white"/>
<path d="M69.7804 223.994L74.1737 232.894L83.9983 234.33L76.8894 241.255L78.5671 251.036L69.7804 246.416L60.9937 251.036L62.6715 241.255L55.5625 234.33L65.3871 232.894L69.7804 223.994Z" fill="white"/>
<path d="M110.884 223.994L115.277 232.894L125.102 234.33L117.993 241.255L119.671 251.036L110.884 246.416L102.097 251.036L103.775 241.255L96.666 234.33L106.491 232.894L110.884 223.994Z" fill="white"/>
<path d="M178.787 214.307L186.327 229.582L203.188 232.046L190.987 243.929L193.867 260.717L178.787 252.787L163.708 260.717L166.587 243.929L154.387 232.046L171.247 229.582L178.787 214.307Z" fill="#930043"/>
<path d="M240.56 223.994L244.953 232.894L254.778 234.33L247.669 241.255L249.346 251.036L240.56 246.416L231.773 251.036L233.451 241.255L226.342 234.33L236.166 232.894L240.56 223.994Z" fill="white"/>
<path d="M281.663 223.994L286.057 232.894L295.881 234.33L288.772 241.255L290.45 251.036L281.663 246.416L272.877 251.036L274.554 241.255L267.445 234.33L277.27 232.894L281.663 223.994Z" fill="white"/>
<g clip-path="url(#clip0_929_2204)">
<path d="M185.521 290.465V295.219H181.031V284.391H179.446V295.219H174.692V284.391H173.108V301.294H168.618V290.465H167.033V307.632H168.618V302.878H179.446V313.707H181.031V296.804H185.521V307.632H187.105V290.465H185.521ZM179.446 301.294H174.692V296.804H179.446V301.294Z" fill="#930043"/>
<path d="M174.692 303.673H173.107V313.709H174.692V303.673Z" fill="#930043"/>
</g>
<path d="M134.189 321.788V331.281H132.07V327.721H125.708V331.281H123.588V321.788H125.708V325.348H132.07V321.788H134.189Z" fill="black"/>
<path d="M135.998 331.282V321.774H138.639V331.282H135.998Z" fill="black"/>
<path d="M150.785 324.16H146.545V331.281H144.426V324.16H140.184V321.788H150.785V324.16Z" fill="black"/>
<path d="M162.828 321.788V324.16H154.346V324.163H152.227V321.788H162.828ZM162.828 325.549V327.484H154.346V327.489H152.227V325.549H162.828ZM162.828 328.908V331.281H152.227V328.908H162.828Z" fill="black"/>
<path d="M175.25 324.862V325.94H173.13V325.073C173.13 324.57 172.765 324.16 172.315 324.16H164.649V321.788H172.503C172.719 321.788 172.928 321.816 173.13 321.869C174.144 322.133 174.941 323.026 175.18 324.163C175.225 324.386 175.25 324.62 175.25 324.862ZM167.584 328.908H175.25V331.28H167.396C167.298 331.28 167.203 331.275 167.109 331.263C166.994 331.25 166.88 331.227 166.769 331.199C165.755 330.935 164.958 330.042 164.719 328.905C164.701 328.821 164.687 328.737 164.676 328.654C164.658 328.506 164.646 328.356 164.646 328.203V325.447H166.766V327.992C166.769 328.498 167.134 328.908 167.584 328.908Z" fill="black"/>
<path d="M187.557 321.788V331.28H185.437V327.72H179.075V331.28H176.955V321.788H179.075V325.348H185.437V321.788H187.557Z" fill="black"/>
<path d="M205.576 321.788V331.28H203.456V327.72H197.094V331.28H194.975V321.788H197.094V325.348H203.456V321.788H205.576Z" fill="#930043"/>
<path d="M218.008 321.788V331.28H215.945V330.263L215.12 331.28H209.838C208.588 331.135 207.586 330.052 207.404 328.671V321.788H209.524V327.995C209.524 328.498 209.89 328.908 210.34 328.908H215.881L215.886 321.788H218.008Z" fill="#930043"/>
<path d="M230.51 327.76C230.537 327.931 230.551 328.106 230.551 328.284C230.551 328.493 230.533 328.696 230.496 328.892C230.262 330.166 229.303 331.145 228.122 331.264C228.042 331.272 227.961 331.277 227.876 331.277C227.792 331.277 227.713 331.272 227.631 331.264H222.042V331.277H219.922V328.894H219.924V327.763H219.922V325.41H219.924V324.124H219.922V321.774H227.876C229.162 321.774 230.239 322.791 230.494 324.147C230.533 324.348 230.551 324.553 230.551 324.767C230.551 324.981 230.53 325.187 230.494 325.388C230.417 325.807 230.258 326.194 230.042 326.527C230.274 326.885 230.437 327.305 230.51 327.76ZM228.431 324.767C228.431 324.426 228.183 324.147 227.876 324.147H226.306V324.124H222.044V325.41H226.306V325.388H227.876C227.976 325.388 228.067 325.36 228.149 325.309C228.317 325.202 228.431 324.999 228.431 324.767ZM228.431 328.287C228.431 328.065 228.326 327.872 228.172 327.763H222.046V328.894H227.99C228.24 328.836 228.431 328.584 228.431 328.287Z" fill="#930043"/>
<defs>
<clipPath id="clip0_929_2204">
<rect width="20.072" height="29.3157" fill="white" transform="translate(167.033 284.391)"/>
</clipPath>
</defs>
</svg>
