<svg width="356" height="401" viewBox="0 0 356 401" fill="none" xmlns="http://www.w3.org/2000/svg">
<path d="M16.986 82.2629L162.981 5.50692C172.253 0.620741 183.682 0.620741 192.953 5.50692L338.949 82.2629C348.22 87.1491 353.935 96.1539 353.935 105.908V294.915C353.935 304.668 348.22 313.673 338.949 318.559L192.953 395.315C183.682 400.201 172.253 400.201 162.981 395.315L16.986 318.559C7.71483 313.673 2 304.668 2 294.915V105.908C2 96.1352 7.71483 87.1304 16.986 82.2629Z" fill="white" stroke="#930043" stroke-width="2.23497" stroke-miterlimit="10"/>
<path d="M330.487 286.391C330.487 293.912 326.043 300.928 318.861 304.688L187.99 373.388C180.809 377.149 171.899 377.149 164.759 373.388L33.847 304.688C26.6656 300.928 22.2209 293.912 22.2209 286.391V269.733H14.916V286.391C14.916 296.269 20.7599 305.474 30.1843 310.413L161.096 379.132C165.788 381.602 171.076 382.837 176.364 382.837C181.632 382.837 186.9 381.602 191.612 379.132L322.524 310.413C331.948 305.474 337.792 296.269 337.792 286.391V269.733H330.508V286.391H330.487ZM322.524 90.3984L191.612 21.6981C182.208 16.7402 170.5 16.7589 161.096 21.6981L30.2048 90.3984C20.7805 95.3564 14.9366 104.561 14.9366 114.44V208.079H22.2415V114.44C22.2415 106.919 26.6861 99.9027 33.8676 96.1422L164.718 27.4419C171.899 23.6813 180.809 23.6813 187.949 27.4419L318.861 96.1422C326.043 99.9027 330.487 106.919 330.487 114.44V208.079H337.772V114.44C337.792 104.561 331.948 95.3564 322.524 90.3984Z" fill="#930043"/>
<path d="M104.105 96.1575V78.0851H107.675L110.237 91.9218L112.798 78.0851H116.368V96.1575H113.787V81.8972L111.205 96.1575H109.269L106.687 81.8972V96.1575H104.105ZM125.262 96.339C124.354 96.339 123.574 96.2012 122.922 95.9255C122.277 95.6499 121.762 95.2465 121.379 94.7153C120.996 94.1842 120.717 93.5623 120.542 92.8496C120.367 92.1302 120.28 91.2965 120.28 90.3485V83.7932C120.28 82.8452 120.367 82.0183 120.542 81.3123C120.717 80.6064 120.996 79.9945 121.379 79.4768C121.762 78.9524 122.277 78.5591 122.922 78.2969C123.574 78.0347 124.354 77.9036 125.262 77.9036C127.023 77.9036 128.294 78.4078 129.074 79.4163C129.854 80.4248 130.244 81.8838 130.244 83.7932V90.3485C130.244 91.283 130.153 92.11 129.971 92.8294C129.797 93.5421 129.518 94.1674 129.134 94.7052C128.751 95.2364 128.233 95.6431 127.581 95.9255C126.936 96.2012 126.163 96.339 125.262 96.339ZM123.376 93.4043C123.725 93.9489 124.354 94.2211 125.262 94.2211C126.169 94.2211 126.795 93.9489 127.138 93.4043C127.487 92.8597 127.662 92.0562 127.662 90.9939V83.1478C127.662 82.0989 127.491 81.3157 127.148 80.798C126.805 80.2803 126.176 80.0214 125.262 80.0214C124.347 80.0214 123.719 80.2803 123.376 80.798C123.033 81.3157 122.862 82.0989 122.862 83.1478V90.9939C122.862 92.0562 123.033 92.8597 123.376 93.4043ZM138.865 96.339C137.238 96.339 135.994 95.8616 135.133 94.9069C134.279 93.9522 133.802 92.6479 133.701 90.9939L136.283 90.3485C136.411 92.9303 137.271 94.2211 138.865 94.2211C140.156 94.2211 140.801 93.5757 140.801 92.2848C140.801 91.9016 140.747 91.5486 140.64 91.2259C140.539 90.8965 140.381 90.5973 140.166 90.3283C139.951 90.0527 139.756 89.8342 139.581 89.6728C139.406 89.5047 139.167 89.2997 138.865 89.0576L135.638 86.4758C135.046 86.0119 134.572 85.4236 134.216 84.711C133.866 83.9916 133.691 83.1747 133.691 82.2603C133.691 80.9291 134.105 79.8702 134.932 79.0835C135.759 78.2969 136.855 77.9036 138.219 77.9036C139.685 77.9036 140.848 78.2633 141.709 78.9827C142.576 79.6954 143.111 80.7072 143.312 82.0183C143.332 82.1595 143.356 82.3544 143.383 82.6032L140.801 83.2486C140.794 83.1343 140.778 82.9629 140.751 82.7343C140.636 81.9141 140.378 81.2585 139.974 80.7677C139.577 80.2702 138.993 80.0214 138.219 80.0214C137.601 80.0214 137.123 80.1962 136.787 80.5459C136.451 80.8887 136.283 81.3695 136.283 81.988C136.283 83.0032 136.713 83.8537 137.574 84.5395L140.801 87.1213C142.522 88.513 143.383 90.1771 143.383 92.1134C143.383 93.4379 142.973 94.4733 142.153 95.2196C141.339 95.9659 140.243 96.339 138.865 96.339ZM148.847 96.1575V80.3845H145.62V78.0851H154.656V80.3845H151.429V96.1575H148.847ZM166.019 85.8304H166.664C167.74 85.8304 168.547 85.6052 169.085 85.1547C169.623 84.6975 169.892 83.9546 169.892 82.9259C169.892 81.8972 169.623 81.1577 169.085 80.7072C168.547 80.25 167.74 80.0214 166.664 80.0214H166.019V85.8304ZM163.437 96.1575V78.0851H166.664C168.587 78.0851 170.036 78.4583 171.011 79.2045C171.986 79.9508 172.473 81.1913 172.473 82.9259C172.473 84.0017 172.282 84.9026 171.899 85.6287C171.515 86.3548 170.954 86.8524 170.214 87.1213L173.119 96.1575H170.557L167.955 87.7667H166.019V96.1575H163.437ZM176.264 96.1575V78.0851H183.364V80.0214H178.845V85.8304H182.073V87.7667H178.845V94.2211H183.364V96.1575H176.264ZM189.312 96.1575L185.439 78.0851H188.021L189.927 87.7667L190.593 92.2848L191.279 87.7667L193.185 78.0851H195.767L191.894 96.1575H189.312ZM198.952 96.1575V78.0851H201.534V96.1575H198.952ZM205.949 96.1575V78.0851H213.049V80.0214H208.531V85.8304H211.758V87.7667H208.531V94.2211H213.049V96.1575H205.949ZM218.342 96.1575L215.115 78.0851H217.697L218.988 86.4758L219.643 91.6394L220.278 86.4758L221.569 78.0851H224.151L225.442 86.4758L226.077 91.6394L226.733 86.4758L228.024 78.0851H230.605L227.378 96.1575H224.796L223.506 87.7667L222.86 82.6032L222.215 87.7667L220.924 96.1575H218.342ZM233.66 96.1575V78.0851H240.759V80.0214H236.241V85.8304H239.469V87.7667H236.241V94.2211H240.759V96.1575H233.66ZM244.005 96.1575V78.0851H248.009C249.898 78.0851 251.229 78.4717 252.003 79.2449C252.783 80.0181 253.172 81.3527 253.172 83.2486V90.3485C253.172 92.3319 252.776 93.7976 251.982 94.7456C251.196 95.6868 249.865 96.1575 247.989 96.1575H244.005ZM246.587 94.2211H248.009C248.433 94.2211 248.796 94.1842 249.098 94.1102C249.401 94.0295 249.646 93.8883 249.834 93.6866C250.023 93.4782 250.171 93.2832 250.278 93.1017C250.386 92.9135 250.46 92.6244 250.5 92.2344C250.547 91.8444 250.574 91.5251 250.581 91.2763C250.587 91.0208 250.591 90.6275 250.591 90.0964C250.591 89.9216 250.591 89.7905 250.591 89.7031V83.8941C250.591 83.5646 250.587 83.3024 250.581 83.1075C250.581 82.9125 250.571 82.6839 250.55 82.4217C250.537 82.1527 250.513 81.9409 250.48 81.7863C250.446 81.6317 250.399 81.4602 250.339 81.272C250.278 81.077 250.201 80.9257 250.107 80.8182C250.019 80.7106 249.908 80.5996 249.774 80.4853C249.646 80.3643 249.495 80.2769 249.32 80.2231C249.152 80.1626 248.954 80.1156 248.725 80.0819C248.496 80.0416 248.241 80.0214 247.959 80.0214H246.587V94.2211Z" fill="#930043"/>
<path d="M88.0824 144L85.2284 123.898H88.3057L89.9684 136.927L92.0531 123.948H94.5596L96.6938 136.927L98.3318 123.898H101.359L98.5551 144H95.5771L93.3435 130.524L91.1348 144H88.0824ZM103.64 144V123.898H112.078V126.479H107.313V132.262H111.061V134.818H107.313V141.469H112.128V144H103.64ZM114.256 144V123.898H119.194C120.087 123.898 120.89 123.981 121.601 124.146C122.329 124.312 122.95 124.593 123.463 124.99C123.992 125.371 124.397 125.892 124.679 126.554C124.96 127.215 125.101 128.051 125.101 129.06C125.101 129.871 124.985 130.566 124.753 131.145C124.538 131.724 124.215 132.187 123.785 132.535C123.355 132.865 122.817 133.089 122.172 133.205C122.966 133.337 123.62 133.618 124.133 134.048C124.662 134.462 125.051 135.008 125.299 135.686C125.564 136.365 125.696 137.184 125.696 138.143C125.696 139.103 125.572 139.955 125.324 140.699C125.092 141.427 124.737 142.039 124.257 142.536C123.793 143.016 123.206 143.38 122.495 143.628C121.8 143.876 120.981 144 120.038 144H114.256ZM117.928 141.419H119.318C120.427 141.419 121.179 141.154 121.577 140.625C121.974 140.079 122.172 139.243 122.172 138.118C122.172 137.308 122.073 136.654 121.874 136.158C121.692 135.645 121.378 135.264 120.931 135.016C120.501 134.768 119.922 134.644 119.194 134.644H117.928V141.419ZM117.928 132.113H119.169C119.897 132.113 120.46 132.005 120.857 131.79C121.254 131.575 121.527 131.244 121.676 130.797C121.841 130.351 121.924 129.788 121.924 129.11C121.924 128.398 121.8 127.852 121.552 127.472C121.32 127.075 120.964 126.81 120.485 126.678C120.005 126.529 119.393 126.454 118.648 126.454H117.928V132.113ZM134.104 144V123.898H138.844C140.482 123.898 141.756 124.122 142.666 124.568C143.593 125.015 144.246 125.702 144.627 126.628C145.024 127.555 145.222 128.729 145.222 130.152V137.498C145.222 138.954 145.024 140.17 144.627 141.146C144.246 142.106 143.601 142.825 142.691 143.305C141.797 143.768 140.565 144 138.993 144H134.104ZM137.777 141.444H138.894C139.738 141.444 140.342 141.295 140.706 140.997C141.07 140.699 141.293 140.269 141.376 139.707C141.458 139.128 141.5 138.424 141.5 137.597V129.904C141.5 129.093 141.442 128.44 141.326 127.943C141.21 127.447 140.97 127.083 140.606 126.851C140.242 126.62 139.655 126.504 138.844 126.504H137.777V141.444ZM147.918 144V123.898H156.356V126.479H151.591V132.262H155.339V134.818H151.591V141.469H156.406V144H147.918ZM161.611 144L157.566 123.898H160.817L163.472 138.118L165.954 123.898H169.279L165.234 144H161.611ZM171.33 144V123.898H179.767V126.479H175.003V132.262H178.75V134.818H175.003V141.469H179.817V144H171.33ZM181.945 144V123.898H185.618V141.469H190.482V144H181.945ZM197.608 144.273C196.185 144.273 195.051 144.008 194.208 143.479C193.364 142.949 192.76 142.188 192.396 141.196C192.032 140.203 191.85 139.028 191.85 137.672V130.152C191.85 128.795 192.032 127.637 192.396 126.678C192.76 125.702 193.364 124.957 194.208 124.444C195.051 123.931 196.185 123.675 197.608 123.675C199.063 123.675 200.205 123.931 201.032 124.444C201.876 124.957 202.48 125.702 202.844 126.678C203.224 127.637 203.415 128.795 203.415 130.152V137.696C203.415 139.037 203.224 140.203 202.844 141.196C202.48 142.172 201.876 142.933 201.032 143.479C200.205 144.008 199.063 144.273 197.608 144.273ZM197.608 141.568C198.22 141.568 198.666 141.436 198.948 141.171C199.245 140.906 199.444 140.542 199.543 140.079C199.643 139.616 199.692 139.111 199.692 138.565V129.308C199.692 128.746 199.643 128.241 199.543 127.795C199.444 127.348 199.245 127 198.948 126.752C198.666 126.488 198.22 126.355 197.608 126.355C197.028 126.355 196.59 126.488 196.292 126.752C195.994 127 195.796 127.348 195.697 127.795C195.597 128.241 195.548 128.746 195.548 129.308V138.565C195.548 139.111 195.589 139.616 195.672 140.079C195.771 140.542 195.97 140.906 196.267 141.171C196.565 141.436 197.012 141.568 197.608 141.568ZM206.132 144V123.898H212.038C213.246 123.898 214.222 124.122 214.966 124.568C215.727 125.015 216.282 125.669 216.629 126.529C216.993 127.373 217.175 128.398 217.175 129.606C217.175 130.913 216.952 131.972 216.505 132.783C216.058 133.577 215.43 134.156 214.619 134.52C213.825 134.884 212.882 135.066 211.79 135.066H209.804V144H206.132ZM209.804 132.485H211.194C211.856 132.485 212.369 132.394 212.733 132.212C213.113 132.013 213.37 131.707 213.502 131.294C213.651 130.864 213.726 130.293 213.726 129.581C213.726 128.853 213.668 128.266 213.552 127.819C213.453 127.356 213.221 127.017 212.857 126.802C212.51 126.587 211.955 126.479 211.194 126.479H209.804V132.485ZM219.169 144L219.516 123.898H223.313L226.167 137.821L229.145 123.898H232.818L233.191 144H230.461L230.163 130.028L227.309 144H225.1L222.197 129.978L221.924 144H219.169ZM236.159 144V123.898H244.597V126.479H239.832V132.262H243.579V134.818H239.832V141.469H244.646V144H236.159ZM246.774 144V123.898H249.33L254.219 135.364V123.898H257.247V144H254.815L249.901 131.989V144H246.774ZM262.308 144V126.603H259.106V123.898H269.132V126.603H265.981V144H262.308ZM57.9019 181.273C56.4295 181.273 55.2713 180.983 54.4276 180.404C53.6003 179.825 53.0213 179.039 52.6904 178.047C52.3595 177.038 52.194 175.879 52.194 174.572V167.4C52.194 166.027 52.3595 164.836 52.6904 163.827C53.0213 162.817 53.6003 162.04 54.4276 161.494C55.2713 160.948 56.4295 160.675 57.9019 160.675C59.2917 160.675 60.3754 160.915 61.153 161.395C61.9471 161.858 62.5096 162.528 62.8405 163.405C63.1714 164.282 63.3368 165.299 63.3368 166.457V168.145H59.8128V166.408C59.8128 165.845 59.7798 165.332 59.7136 164.869C59.6639 164.406 59.5068 164.042 59.2421 163.777C58.9939 163.496 58.5554 163.355 57.9268 163.355C57.2981 163.355 56.8348 163.504 56.537 163.802C56.2557 164.083 56.0738 164.472 55.991 164.968C55.9083 165.448 55.8669 165.994 55.8669 166.606V175.342C55.8669 176.07 55.9249 176.674 56.0407 177.153C56.1565 177.617 56.3633 177.972 56.6611 178.221C56.9754 178.452 57.3973 178.568 57.9268 178.568C58.5389 178.568 58.9691 178.427 59.2172 178.146C59.4819 177.848 59.6474 177.459 59.7136 176.98C59.7798 176.5 59.8128 175.962 59.8128 175.367V173.555H63.3368V175.168C63.3368 176.359 63.1797 177.418 62.8653 178.345C62.551 179.255 61.9967 179.974 61.2026 180.504C60.425 181.017 59.3248 181.273 57.9019 181.273ZM71.3537 181.273C69.9309 181.273 68.7975 181.008 67.9538 180.479C67.11 179.949 66.5061 179.188 66.1421 178.196C65.7782 177.203 65.5962 176.028 65.5962 174.672V167.152C65.5962 165.795 65.7782 164.637 66.1421 163.678C66.5061 162.702 67.11 161.957 67.9538 161.444C68.7975 160.931 69.9309 160.675 71.3537 160.675C72.8096 160.675 73.9512 160.931 74.7784 161.444C75.6222 161.957 76.2261 162.702 76.5901 163.678C76.9706 164.637 77.1609 165.795 77.1609 167.152V174.696C77.1609 176.037 76.9706 177.203 76.5901 178.196C76.2261 179.172 75.6222 179.933 74.7784 180.479C73.9512 181.008 72.8096 181.273 71.3537 181.273ZM71.3537 178.568C71.9658 178.568 72.4125 178.436 72.6938 178.171C72.9916 177.906 73.1901 177.542 73.2894 177.079C73.3887 176.616 73.4383 176.111 73.4383 175.565V166.308C73.4383 165.746 73.3887 165.241 73.2894 164.795C73.1901 164.348 72.9916 164 72.6938 163.752C72.4125 163.488 71.9658 163.355 71.3537 163.355C70.7746 163.355 70.3362 163.488 70.0384 163.752C69.7406 164 69.5421 164.348 69.4428 164.795C69.3435 165.241 69.2939 165.746 69.2939 166.308V175.565C69.2939 176.111 69.3352 176.616 69.418 177.079C69.5172 177.542 69.7158 177.906 70.0136 178.171C70.3114 178.436 70.7581 178.568 71.3537 178.568ZM79.8281 181L80.1755 160.898H83.9725L86.8265 174.821L89.8045 160.898H93.4774L93.8497 181H91.1198L90.822 167.028L87.9681 181H85.7594L82.8558 166.978L82.5828 181H79.8281ZM96.8182 181V160.898H102.725C103.932 160.898 104.909 161.122 105.653 161.568C106.414 162.015 106.968 162.669 107.316 163.529C107.68 164.373 107.862 165.398 107.862 166.606C107.862 167.913 107.638 168.972 107.192 169.783C106.745 170.577 106.116 171.156 105.306 171.52C104.511 171.884 103.568 172.066 102.476 172.066H100.491V181H96.8182ZM100.491 169.485H101.881C102.543 169.485 103.056 169.394 103.42 169.212C103.8 169.013 104.056 168.707 104.189 168.294C104.338 167.864 104.412 167.293 104.412 166.581C104.412 165.853 104.354 165.266 104.238 164.819C104.139 164.356 103.908 164.017 103.544 163.802C103.196 163.587 102.642 163.479 101.881 163.479H100.491V169.485ZM107.821 181L111.842 160.898H115.763L119.783 181H116.383L115.589 176.359H112.09L111.271 181H107.821ZM112.462 174.026H115.192L113.827 165.589L112.462 174.026ZM121.805 181V160.898H124.361L129.25 172.364V160.898H132.278V181H129.846L124.932 168.989V181H121.805ZM135.427 181V160.898H139.051V181H135.427ZM142.162 181V160.898H150.6V163.479H145.835V169.262H149.583V171.818H145.835V178.469H150.65V181H142.162ZM157.84 181.273C156.632 181.273 155.623 181.041 154.813 180.578C154.002 180.098 153.39 179.403 152.976 178.493C152.562 177.584 152.331 176.467 152.281 175.143L155.433 174.523C155.466 175.3 155.557 175.987 155.706 176.583C155.871 177.178 156.111 177.641 156.426 177.972C156.757 178.287 157.187 178.444 157.716 178.444C158.312 178.444 158.734 178.27 158.982 177.923C159.23 177.559 159.354 177.104 159.354 176.558C159.354 175.681 159.155 174.961 158.758 174.399C158.361 173.836 157.832 173.274 157.17 172.711L154.639 170.478C153.927 169.865 153.357 169.187 152.926 168.443C152.513 167.682 152.306 166.747 152.306 165.638C152.306 164.05 152.769 162.826 153.696 161.965C154.622 161.105 155.888 160.675 157.493 160.675C158.436 160.675 159.222 160.824 159.85 161.122C160.479 161.403 160.975 161.8 161.339 162.313C161.72 162.826 162.001 163.413 162.183 164.075C162.365 164.72 162.481 165.407 162.531 166.135L159.404 166.681C159.371 166.052 159.296 165.489 159.18 164.993C159.081 164.497 158.891 164.108 158.61 163.827C158.345 163.545 157.948 163.405 157.418 163.405C156.872 163.405 156.45 163.587 156.153 163.951C155.871 164.298 155.731 164.737 155.731 165.266C155.731 165.944 155.871 166.507 156.153 166.954C156.434 167.384 156.839 167.83 157.369 168.294L159.875 170.502C160.702 171.197 161.406 172.016 161.985 172.959C162.58 173.886 162.878 175.011 162.878 176.334C162.878 177.294 162.663 178.146 162.233 178.891C161.819 179.635 161.232 180.222 160.471 180.653C159.726 181.066 158.849 181.273 157.84 181.273ZM171.174 181V160.898H174.798V181H171.174ZM177.91 181V160.898H180.466L185.355 172.364V160.898H188.382V181H185.95L181.036 168.989V181H177.91ZM196.45 181L200.47 160.898H204.391L208.412 181H205.012L204.218 176.359H200.718L199.9 181H196.45ZM201.091 174.026H203.821L202.456 165.589L201.091 174.026ZM215.846 181.273C214.357 181.273 213.199 181 212.371 180.454C211.544 179.908 210.973 179.13 210.659 178.121C210.345 177.112 210.187 175.904 210.187 174.498V160.898H213.761V174.92C213.761 175.549 213.802 176.144 213.885 176.707C213.968 177.253 214.158 177.699 214.456 178.047C214.77 178.378 215.234 178.543 215.846 178.543C216.491 178.543 216.954 178.378 217.235 178.047C217.533 177.699 217.724 177.253 217.806 176.707C217.906 176.144 217.955 175.549 217.955 174.92V160.898H221.504V174.498C221.504 175.904 221.347 177.112 221.032 178.121C220.718 179.13 220.147 179.908 219.32 180.454C218.509 181 217.351 181.273 215.846 181.273ZM229.456 181.273C228.248 181.273 227.239 181.041 226.428 180.578C225.617 180.098 225.005 179.403 224.591 178.493C224.178 177.584 223.946 176.467 223.897 175.143L227.048 174.523C227.081 175.3 227.172 175.987 227.321 176.583C227.487 177.178 227.727 177.641 228.041 177.972C228.372 178.287 228.802 178.444 229.331 178.444C229.927 178.444 230.349 178.27 230.597 177.923C230.845 177.559 230.969 177.104 230.969 176.558C230.969 175.681 230.771 174.961 230.374 174.399C229.977 173.836 229.447 173.274 228.785 172.711L226.254 170.478C225.543 169.865 224.972 169.187 224.542 168.443C224.128 167.682 223.921 166.747 223.921 165.638C223.921 164.05 224.385 162.826 225.311 161.965C226.238 161.105 227.503 160.675 229.108 160.675C230.051 160.675 230.837 160.824 231.466 161.122C232.094 161.403 232.591 161.8 232.955 162.313C233.335 162.826 233.616 163.413 233.798 164.075C233.98 164.72 234.096 165.407 234.146 166.135L231.019 166.681C230.986 166.052 230.911 165.489 230.796 164.993C230.696 164.497 230.506 164.108 230.225 163.827C229.96 163.545 229.563 163.405 229.034 163.405C228.488 163.405 228.066 163.587 227.768 163.951C227.487 164.298 227.346 164.737 227.346 165.266C227.346 165.944 227.487 166.507 227.768 166.954C228.049 167.384 228.455 167.83 228.984 168.294L231.491 170.502C232.318 171.197 233.021 172.016 233.6 172.959C234.196 173.886 234.493 175.011 234.493 176.334C234.493 177.294 234.278 178.146 233.848 178.891C233.435 179.635 232.847 180.222 232.086 180.653C231.342 181.066 230.465 181.273 229.456 181.273ZM238.666 181V163.603H235.465V160.898H245.491V163.603H242.339V181H238.666ZM247.319 181V160.898H252.134C253.491 160.898 254.632 161.064 255.559 161.395C256.502 161.709 257.213 162.255 257.693 163.033C258.189 163.81 258.437 164.869 258.437 166.209C258.437 167.02 258.363 167.748 258.214 168.393C258.065 169.038 257.809 169.592 257.445 170.056C257.097 170.502 256.609 170.85 255.981 171.098L258.785 181H255.112L252.68 171.793H250.992V181H247.319ZM250.992 169.485H252.134C252.845 169.485 253.408 169.386 253.822 169.187C254.252 168.972 254.558 168.641 254.74 168.194C254.922 167.731 255.013 167.144 255.013 166.432C255.013 165.423 254.822 164.67 254.442 164.174C254.078 163.661 253.375 163.405 252.332 163.405H250.992V169.485ZM260.213 181L264.233 160.898H268.154L272.175 181H268.775L267.981 176.359H264.482L263.663 181H260.213ZM264.854 174.026H267.584L266.219 165.589L264.854 174.026ZM274.196 181V160.898H277.869V178.469H282.733V181H274.196ZM284.741 181V160.898H288.364V181H284.741ZM290.459 181L294.479 160.898H298.4L302.42 181H299.021L298.226 176.359H294.727L293.908 181H290.459ZM295.099 174.026H297.829L296.464 165.589L295.099 174.026Z" fill="black"/>
<rect x="2" y="216.331" width="351.935" height="44.37" fill="#930043"/>
<circle cx="178.469" cy="235.488" r="37.3111" fill="white"/>
<path d="M70.671 223.994L75.0644 232.894L84.8889 234.33L77.78 241.255L79.4577 251.036L70.671 246.416L61.8844 251.036L63.5621 241.255L56.4531 234.33L66.2777 232.894L70.671 223.994Z" fill="white"/>
<path d="M111.775 223.994L116.168 232.894L125.992 234.33L118.883 241.255L120.561 251.036L111.775 246.416L102.988 251.036L104.666 241.255L97.5566 234.33L107.381 232.894L111.775 223.994Z" fill="white"/>
<path d="M179.678 214.307L187.218 229.582L204.078 232.046L191.878 243.929L194.757 260.717L179.678 252.787L164.598 260.717L167.478 243.929L155.277 232.046L172.138 229.582L179.678 214.307Z" fill="#930043"/>
<path d="M241.45 223.994L245.844 232.894L255.668 234.33L248.559 241.255L250.237 251.036L241.45 246.416L232.664 251.036L234.341 241.255L227.232 234.33L237.057 232.894L241.45 223.994Z" fill="white"/>
<path d="M282.554 223.994L286.947 232.894L296.772 234.33L289.663 241.255L291.341 251.036L282.554 246.416L273.767 251.036L275.445 241.255L268.336 234.33L278.161 232.894L282.554 223.994Z" fill="white"/>
<g clip-path="url(#clip0_929_2138)">
<path d="M186.411 290.465V295.219H181.921V284.391H180.337V295.219H175.583V284.391H173.998V301.294H169.508V290.465H167.924V307.632H169.508V302.878H180.337V313.706H181.921V296.804H186.411V307.632H187.996V290.465H186.411ZM180.337 301.294H175.583V296.804H180.337V301.294Z" fill="#930043"/>
<path d="M175.581 303.672H173.996V313.708H175.581V303.672Z" fill="#930043"/>
</g>
<path d="M135.08 321.788V331.281H132.96V327.721H126.598V331.281H124.479V321.788H126.598V325.348H132.96V321.788H135.08Z" fill="black"/>
<path d="M136.891 331.282V321.774H139.532V331.282H136.891Z" fill="black"/>
<path d="M151.676 324.16H147.436V331.28H145.316V324.16H141.074V321.787H151.676V324.16Z" fill="black"/>
<path d="M163.719 321.787V324.16H155.237V324.162H153.117V321.787H163.719ZM163.719 325.548V327.483H155.237V327.488H153.117V325.548H163.719ZM163.719 328.907V331.28H153.117V328.907H163.719Z" fill="black"/>
<path d="M176.141 324.861V325.94H174.021V325.072C174.021 324.569 173.655 324.16 173.205 324.16H165.539V321.787H173.394C173.61 321.787 173.819 321.815 174.021 321.868C175.034 322.133 175.832 323.025 176.071 324.162C176.116 324.386 176.141 324.62 176.141 324.861ZM168.475 328.907H176.141V331.28H168.286C168.189 331.28 168.093 331.275 168 331.262C167.884 331.249 167.771 331.226 167.659 331.198C166.646 330.934 165.848 330.041 165.61 328.905C165.592 328.821 165.578 328.737 165.567 328.653C165.548 328.505 165.537 328.355 165.537 328.203V325.446H167.657V327.992C167.659 328.498 168.025 328.907 168.475 328.907Z" fill="black"/>
<path d="M188.447 321.787V331.28H186.327V327.72H179.966V331.28H177.846V321.787H179.966V325.347H186.327V321.787H188.447Z" fill="black"/>
<path d="M206.467 321.787V331.28H204.347V327.72H197.985V331.28H195.865V321.787H197.985V325.347H204.347V321.787H206.467Z" fill="#930043"/>
<path d="M218.899 321.787V331.28H216.836V330.263L216.011 331.28H210.728C209.479 331.135 208.477 330.052 208.295 328.671V321.787H210.415V327.994C210.415 328.498 210.781 328.907 211.23 328.907H216.772L216.777 321.787H218.899Z" fill="#930043"/>
<path d="M231.4 327.76C231.428 327.931 231.441 328.106 231.441 328.284C231.441 328.493 231.423 328.696 231.387 328.892C231.153 330.166 230.194 331.145 229.012 331.264C228.933 331.272 228.851 331.277 228.767 331.277C228.683 331.277 228.604 331.272 228.522 331.264H222.932V331.277H220.812V328.894H220.815V327.763H220.812V325.41H220.815V324.124H220.812V321.774H228.767C230.053 321.774 231.13 322.791 231.385 324.147C231.423 324.348 231.441 324.553 231.441 324.767C231.441 324.981 231.421 325.187 231.385 325.388C231.307 325.807 231.148 326.194 230.932 326.527C231.164 326.885 231.328 327.305 231.4 327.76ZM229.321 324.767C229.321 324.426 229.074 324.147 228.767 324.147H227.197V324.124H222.935V325.41H227.197V325.388H228.767C228.867 325.388 228.958 325.36 229.04 325.309C229.208 325.202 229.321 324.999 229.321 324.767ZM229.321 328.287C229.321 328.065 229.217 327.872 229.062 327.763H222.937V328.894H228.881C229.131 328.836 229.321 328.584 229.321 328.287Z" fill="#930043"/>
<defs>
<clipPath id="clip0_929_2138">
<rect width="20.072" height="29.3157" fill="white" transform="translate(167.924 284.391)"/>
</clipPath>
</defs>
</svg>
