<svg width="356" height="401" viewBox="0 0 356 401" fill="none" xmlns="http://www.w3.org/2000/svg">
<path d="M17.0407 82.2629L163.036 5.50692C172.307 0.620741 183.737 0.620741 193.008 5.50692L339.004 82.2629C348.275 87.1491 353.99 96.1539 353.99 105.908V294.915C353.99 304.668 348.275 313.673 339.004 318.559L193.008 395.315C183.737 400.201 172.307 400.201 163.036 395.315L17.0407 318.559C7.76952 313.673 2.05469 304.668 2.05469 294.915V105.908C2.05469 96.1352 7.76952 87.1304 17.0407 82.2629Z" fill="white" stroke="#930043" stroke-width="2.23497" stroke-miterlimit="10"/>
<path d="M330.54 286.39C330.54 293.912 326.095 300.928 318.914 304.688L188.043 373.388C180.862 377.149 171.952 377.149 164.812 373.388L33.8997 304.688C26.7183 300.928 22.2736 293.912 22.2736 286.39V269.733H14.9688V286.39C14.9688 296.269 20.8127 305.474 30.237 310.413L161.149 379.132C165.84 381.602 171.129 382.836 176.417 382.836C181.685 382.836 186.953 381.602 191.665 379.132L322.577 310.413C332.001 305.474 337.845 296.269 337.845 286.39V269.733H330.561V286.39H330.54ZM322.577 90.3983L191.665 21.698C182.261 16.7401 170.553 16.7588 161.149 21.698L30.2576 90.3983C20.8332 95.3562 14.9893 104.561 14.9893 114.44V208.079H22.2942V114.44C22.2942 106.919 26.7389 99.9026 33.9203 96.142L164.77 27.4417C171.952 23.6812 180.862 23.6812 188.002 27.4417L318.914 96.142C326.095 99.9026 330.54 106.919 330.54 114.44V208.079H337.824V114.44C337.845 104.561 332.001 95.3562 322.577 90.3983Z" fill="#930043"/>
<path d="M104.162 96.1575V78.0851H107.732L110.293 91.9218L112.855 78.0851H116.425V96.1575H113.843V81.8972L111.261 96.1575H109.325L106.743 81.8972V96.1575H104.162ZM125.318 96.339C124.411 96.339 123.631 96.2012 122.979 95.9255C122.333 95.6499 121.819 95.2465 121.436 94.7153C121.052 94.1842 120.773 93.5623 120.599 92.8496C120.424 92.1302 120.336 91.2965 120.336 90.3485V83.7932C120.336 82.8452 120.424 82.0183 120.599 81.3123C120.773 80.6064 121.052 79.9945 121.436 79.4768C121.819 78.9524 122.333 78.5591 122.979 78.2969C123.631 78.0347 124.411 77.9036 125.318 77.9036C127.08 77.9036 128.351 78.4078 129.131 79.4163C129.91 80.4248 130.3 81.8838 130.3 83.7932V90.3485C130.3 91.283 130.21 92.11 130.028 92.8294C129.853 93.5421 129.574 94.1674 129.191 94.7052C128.808 95.2364 128.29 95.6431 127.638 95.9255C126.992 96.2012 126.219 96.339 125.318 96.339ZM123.432 93.4043C123.782 93.9489 124.411 94.2211 125.318 94.2211C126.226 94.2211 126.851 93.9489 127.194 93.4043C127.544 92.8597 127.719 92.0562 127.719 90.9939V83.1478C127.719 82.0989 127.547 81.3157 127.204 80.798C126.861 80.2803 126.233 80.0214 125.318 80.0214C124.404 80.0214 123.775 80.2803 123.432 80.798C123.09 81.3157 122.918 82.0989 122.918 83.1478V90.9939C122.918 92.0562 123.09 92.8597 123.432 93.4043ZM138.921 96.339C137.294 96.339 136.051 95.8616 135.19 94.9069C134.336 93.9522 133.859 92.6479 133.758 90.9939L136.34 90.3485C136.467 92.9303 137.328 94.2211 138.921 94.2211C140.212 94.2211 140.858 93.5757 140.858 92.2848C140.858 91.9016 140.804 91.5486 140.696 91.2259C140.596 90.8965 140.438 90.5973 140.222 90.3283C140.007 90.0527 139.812 89.8342 139.638 89.6728C139.463 89.5047 139.224 89.2997 138.921 89.0576L135.694 86.4758C135.103 86.0119 134.629 85.4236 134.272 84.711C133.923 83.9916 133.748 83.1747 133.748 82.2603C133.748 80.9291 134.161 79.8702 134.988 79.0835C135.815 78.2969 136.911 77.9036 138.276 77.9036C139.742 77.9036 140.905 78.2633 141.765 78.9827C142.633 79.6954 143.167 80.7072 143.369 82.0183C143.389 82.1595 143.413 82.3544 143.44 82.6032L140.858 83.2486C140.851 83.1343 140.834 82.9629 140.807 82.7343C140.693 81.9141 140.434 81.2585 140.031 80.7677C139.634 80.2702 139.049 80.0214 138.276 80.0214C137.657 80.0214 137.18 80.1962 136.844 80.5459C136.508 80.8887 136.34 81.3695 136.34 81.988C136.34 83.0032 136.77 83.8537 137.631 84.5395L140.858 87.1213C142.579 88.513 143.44 90.1771 143.44 92.1134C143.44 93.4379 143.029 94.4733 142.209 95.2196C141.396 95.9659 140.3 96.339 138.921 96.339ZM148.904 96.1575V80.3845H145.677V78.0851H154.713V80.3845H151.486V96.1575H148.904ZM166.076 85.8304H166.721C167.797 85.8304 168.604 85.6052 169.141 85.1547C169.679 84.6975 169.948 83.9546 169.948 82.9259C169.948 81.8972 169.679 81.1577 169.141 80.7072C168.604 80.25 167.797 80.0214 166.721 80.0214H166.076V85.8304ZM163.494 96.1575V78.0851H166.721C168.644 78.0851 170.093 78.4583 171.068 79.2045C172.043 79.9508 172.53 81.1913 172.53 82.9259C172.53 84.0017 172.338 84.9026 171.955 85.6287C171.572 86.3548 171.011 86.8524 170.271 87.1213L173.175 96.1575H170.614L168.012 87.7667H166.076V96.1575H163.494ZM176.32 96.1575V78.0851H183.42V80.0214H178.902V85.8304H182.129V87.7667H178.902V94.2211H183.42V96.1575H176.32ZM189.369 96.1575L185.496 78.0851H188.078L189.984 87.7667L190.65 92.2848L191.335 87.7667L193.241 78.0851H195.823L191.951 96.1575H189.369ZM199.008 96.1575V78.0851H201.59V96.1575H199.008ZM206.006 96.1575V78.0851H213.106V80.0214H208.588V85.8304H211.815V87.7667H208.588V94.2211H213.106V96.1575H206.006ZM218.399 96.1575L215.171 78.0851H217.753L219.044 86.4758L219.7 91.6394L220.335 86.4758L221.626 78.0851H224.208L225.499 86.4758L226.134 91.6394L226.789 86.4758L228.08 78.0851H230.662L227.435 96.1575H224.853L223.562 87.7667L222.917 82.6032L222.271 87.7667L220.98 96.1575H218.399ZM233.716 96.1575V78.0851H240.816V80.0214H236.298V85.8304H239.525V87.7667H236.298V94.2211H240.816V96.1575H233.716ZM244.062 96.1575V78.0851H248.066C249.955 78.0851 251.286 78.4717 252.059 79.2449C252.839 80.0181 253.229 81.3527 253.229 83.2486V90.3485C253.229 92.3319 252.832 93.7976 252.039 94.7456C251.252 95.6868 249.921 96.1575 248.045 96.1575H244.062ZM246.644 94.2211H248.066C248.489 94.2211 248.852 94.1842 249.155 94.1102C249.457 94.0295 249.703 93.8883 249.891 93.6866C250.079 93.4782 250.227 93.2832 250.335 93.1017C250.442 92.9135 250.516 92.6244 250.557 92.2344C250.604 91.8444 250.631 91.5251 250.637 91.2763C250.644 91.0208 250.647 90.6275 250.647 90.0964C250.647 89.9216 250.647 89.7905 250.647 89.7031V83.8941C250.647 83.5646 250.644 83.3024 250.637 83.1075C250.637 82.9125 250.627 82.6839 250.607 82.4217C250.594 82.1527 250.57 81.9409 250.536 81.7863C250.503 81.6317 250.456 81.4602 250.395 81.272C250.335 81.077 250.257 80.9257 250.163 80.8182C250.076 80.7106 249.965 80.5996 249.83 80.4853C249.703 80.3643 249.551 80.2769 249.377 80.2231C249.209 80.1626 249.01 80.1156 248.782 80.0819C248.553 80.0416 248.298 80.0214 248.015 80.0214H246.644V94.2211Z" fill="#930043"/>
<path d="M89.0765 144L86.2225 123.898H89.2998L90.9626 136.927L93.0472 123.948H95.5537L97.688 136.927L99.3259 123.898H102.354L99.5492 144H96.5712L94.3377 130.524L92.129 144H89.0765ZM104.635 144V123.898H113.072V126.479H108.307V132.262H112.055V134.818H108.307V141.469H113.122V144H104.635ZM115.25 144V123.898H120.188C121.082 123.898 121.884 123.981 122.595 124.146C123.323 124.312 123.944 124.593 124.457 124.99C124.986 125.371 125.392 125.892 125.673 126.554C125.954 127.215 126.095 128.051 126.095 129.06C126.095 129.871 125.979 130.566 125.747 131.145C125.532 131.724 125.21 132.187 124.779 132.535C124.349 132.865 123.812 133.089 123.166 133.205C123.96 133.337 124.614 133.618 125.127 134.048C125.656 134.462 126.045 135.008 126.293 135.686C126.558 136.365 126.69 137.184 126.69 138.143C126.69 139.103 126.566 139.955 126.318 140.699C126.086 141.427 125.731 142.039 125.251 142.536C124.788 143.016 124.2 143.38 123.489 143.628C122.794 143.876 121.975 144 121.032 144H115.25ZM118.923 141.419H120.312C121.421 141.419 122.174 141.154 122.571 140.625C122.968 140.079 123.166 139.243 123.166 138.118C123.166 137.308 123.067 136.654 122.868 136.158C122.686 135.645 122.372 135.264 121.925 135.016C121.495 134.768 120.916 134.644 120.188 134.644H118.923V141.419ZM118.923 132.113H120.163C120.891 132.113 121.454 132.005 121.851 131.79C122.248 131.575 122.521 131.244 122.67 130.797C122.835 130.351 122.918 129.788 122.918 129.11C122.918 128.398 122.794 127.852 122.546 127.472C122.314 127.075 121.959 126.81 121.479 126.678C120.999 126.529 120.387 126.454 119.642 126.454H118.923V132.113ZM135.098 144V123.898H139.838C141.476 123.898 142.75 124.122 143.66 124.568C144.587 125.015 145.24 125.702 145.621 126.628C146.018 127.555 146.216 128.729 146.216 130.152V137.498C146.216 138.954 146.018 140.17 145.621 141.146C145.24 142.106 144.595 142.825 143.685 143.305C142.792 143.768 141.559 144 139.987 144H135.098ZM138.771 141.444H139.888C140.732 141.444 141.336 141.295 141.7 140.997C142.064 140.699 142.287 140.269 142.37 139.707C142.452 139.128 142.494 138.424 142.494 137.597V129.904C142.494 129.093 142.436 128.44 142.32 127.943C142.204 127.447 141.964 127.083 141.6 126.851C141.236 126.62 140.649 126.504 139.838 126.504H138.771V141.444ZM148.912 144V123.898H157.35V126.479H152.585V132.262H156.333V134.818H152.585V141.469H157.4V144H148.912ZM162.605 144L158.56 123.898H161.811L164.466 138.118L166.948 123.898H170.273L166.228 144H162.605ZM172.324 144V123.898H180.762V126.479H175.997V132.262H179.744V134.818H175.997V141.469H180.811V144H172.324ZM182.939 144V123.898H186.612V141.469H191.476V144H182.939ZM198.602 144.273C197.179 144.273 196.046 144.008 195.202 143.479C194.358 142.949 193.754 142.188 193.39 141.196C193.026 140.203 192.844 139.028 192.844 137.672V130.152C192.844 128.795 193.026 127.637 193.39 126.678C193.754 125.702 194.358 124.957 195.202 124.444C196.046 123.931 197.179 123.675 198.602 123.675C200.058 123.675 201.199 123.931 202.026 124.444C202.87 124.957 203.474 125.702 203.838 126.678C204.219 127.637 204.409 128.795 204.409 130.152V137.696C204.409 139.037 204.219 140.203 203.838 141.196C203.474 142.172 202.87 142.933 202.026 143.479C201.199 144.008 200.058 144.273 198.602 144.273ZM198.602 141.568C199.214 141.568 199.661 141.436 199.942 141.171C200.24 140.906 200.438 140.542 200.537 140.079C200.637 139.616 200.686 139.111 200.686 138.565V129.308C200.686 128.746 200.637 128.241 200.537 127.795C200.438 127.348 200.24 127 199.942 126.752C199.661 126.488 199.214 126.355 198.602 126.355C198.023 126.355 197.584 126.488 197.286 126.752C196.989 127 196.79 127.348 196.691 127.795C196.591 128.241 196.542 128.746 196.542 129.308V138.565C196.542 139.111 196.583 139.616 196.666 140.079C196.765 140.542 196.964 140.906 197.262 141.171C197.559 141.436 198.006 141.568 198.602 141.568ZM207.126 144V123.898H213.032C214.24 123.898 215.216 124.122 215.961 124.568C216.722 125.015 217.276 125.669 217.623 126.529C217.987 127.373 218.169 128.398 218.169 129.606C218.169 130.913 217.946 131.972 217.499 132.783C217.052 133.577 216.424 134.156 215.613 134.52C214.819 134.884 213.876 135.066 212.784 135.066H210.799V144H207.126ZM210.799 132.485H212.188C212.85 132.485 213.363 132.394 213.727 132.212C214.108 132.013 214.364 131.707 214.496 131.294C214.645 130.864 214.72 130.293 214.72 129.581C214.72 128.853 214.662 128.266 214.546 127.819C214.447 127.356 214.215 127.017 213.851 126.802C213.504 126.587 212.949 126.479 212.188 126.479H210.799V132.485ZM220.163 144L220.511 123.898H224.308L227.162 137.821L230.14 123.898H233.812L234.185 144H231.455L231.157 130.028L228.303 144H226.094L223.191 129.978L222.918 144H220.163ZM237.153 144V123.898H245.591V126.479H240.826V132.262H244.574V134.818H240.826V141.469H245.641V144H237.153ZM247.768 144V123.898H250.324L255.213 135.364V123.898H258.241V144H255.809L250.895 131.989V144H247.768ZM263.302 144V126.603H260.1V123.898H270.126V126.603H266.975V144H263.302ZM72.6375 181.273C71.165 181.273 70.0069 180.983 69.1631 180.404C68.3359 179.825 67.7568 179.039 67.4259 178.047C67.095 177.038 66.9296 175.879 66.9296 174.572V167.4C66.9296 166.027 67.095 164.836 67.4259 163.827C67.7568 162.817 68.3359 162.04 69.1631 161.494C70.0069 160.948 71.165 160.675 72.6375 160.675C74.0272 160.675 75.1109 160.915 75.8885 161.395C76.6827 161.858 77.2452 162.528 77.5761 163.405C77.907 164.282 78.0724 165.299 78.0724 166.457V168.145H74.5484V166.408C74.5484 165.845 74.5153 165.332 74.4491 164.869C74.3995 164.406 74.2423 164.042 73.9776 163.777C73.7294 163.496 73.291 163.355 72.6623 163.355C72.0336 163.355 71.5704 163.504 71.2726 163.802C70.9913 164.083 70.8093 164.472 70.7266 164.968C70.6439 165.448 70.6025 165.994 70.6025 166.606V175.342C70.6025 176.07 70.6604 176.674 70.7762 177.153C70.892 177.617 71.0988 177.972 71.3966 178.221C71.711 178.452 72.1329 178.568 72.6623 178.568C73.2745 178.568 73.7046 178.427 73.9528 178.146C74.2175 177.848 74.383 177.459 74.4491 176.98C74.5153 176.5 74.5484 175.962 74.5484 175.367V173.555H78.0724V175.168C78.0724 176.359 77.9152 177.418 77.6009 178.345C77.2865 179.255 76.7323 179.974 75.9381 180.504C75.1605 181.017 74.0603 181.273 72.6375 181.273ZM86.0893 181.273C84.6664 181.273 83.5331 181.008 82.6893 180.479C81.8456 179.949 81.2417 179.188 80.8777 178.196C80.5137 177.203 80.3317 176.028 80.3317 174.672V167.152C80.3317 165.795 80.5137 164.637 80.8777 163.678C81.2417 162.702 81.8456 161.957 82.6893 161.444C83.5331 160.931 84.6664 160.675 86.0893 160.675C87.5452 160.675 88.6868 160.931 89.514 161.444C90.3578 161.957 90.9616 162.702 91.3256 163.678C91.7062 164.637 91.8964 165.795 91.8964 167.152V174.696C91.8964 176.037 91.7062 177.203 91.3256 178.196C90.9616 179.172 90.3578 179.933 89.514 180.479C88.6868 181.008 87.5452 181.273 86.0893 181.273ZM86.0893 178.568C86.7014 178.568 87.1481 178.436 87.4294 178.171C87.7272 177.906 87.9257 177.542 88.025 177.079C88.1242 176.616 88.1739 176.111 88.1739 175.565V166.308C88.1739 165.746 88.1242 165.241 88.025 164.795C87.9257 164.348 87.7272 164 87.4294 163.752C87.1481 163.488 86.7014 163.355 86.0893 163.355C85.5102 163.355 85.0718 163.488 84.774 163.752C84.4761 164 84.2776 164.348 84.1783 164.795C84.0791 165.241 84.0294 165.746 84.0294 166.308V175.565C84.0294 176.111 84.0708 176.616 84.1535 177.079C84.2528 177.542 84.4513 177.906 84.7491 178.171C85.0469 178.436 85.4936 178.568 86.0893 178.568ZM94.5637 181L94.9111 160.898H98.7081L101.562 174.821L104.54 160.898H108.213L108.585 181H105.855L105.558 167.028L102.704 181H100.495L97.5913 166.978L97.3183 181H94.5637ZM111.554 181V160.898H117.46C118.668 160.898 119.644 161.122 120.389 161.568C121.15 162.015 121.704 162.669 122.051 163.529C122.415 164.373 122.597 165.398 122.597 166.606C122.597 167.913 122.374 168.972 121.927 169.783C121.481 170.577 120.852 171.156 120.041 171.52C119.247 171.884 118.304 172.066 117.212 172.066H115.227V181H111.554ZM115.227 169.485H116.616C117.278 169.485 117.791 169.394 118.155 169.212C118.536 169.013 118.792 168.707 118.924 168.294C119.073 167.864 119.148 167.293 119.148 166.581C119.148 165.853 119.09 165.266 118.974 164.819C118.875 164.356 118.643 164.017 118.279 163.802C117.932 163.587 117.377 163.479 116.616 163.479H115.227V169.485ZM122.557 181L126.577 160.898H130.498L134.519 181H131.119L130.325 176.359H126.826L126.007 181H122.557ZM127.198 174.026H129.928L128.563 165.589L127.198 174.026ZM136.54 181V160.898H139.097L143.985 172.364V160.898H147.013V181H144.581L139.667 168.989V181H136.54ZM150.163 181V160.898H153.786V181H150.163ZM156.898 181V160.898H165.336V163.479H160.571V169.262H164.318V171.818H160.571V178.469H165.385V181H156.898ZM172.576 181.273C171.368 181.273 170.359 181.041 169.548 180.578C168.737 180.098 168.125 179.403 167.712 178.493C167.298 177.584 167.066 176.467 167.017 175.143L170.169 174.523C170.202 175.3 170.293 175.987 170.441 176.583C170.607 177.178 170.847 177.641 171.161 177.972C171.492 178.287 171.922 178.444 172.452 178.444C173.047 178.444 173.469 178.27 173.717 177.923C173.966 177.559 174.09 177.104 174.09 176.558C174.09 175.681 173.891 174.961 173.494 174.399C173.097 173.836 172.567 173.274 171.906 172.711L169.374 170.478C168.663 169.865 168.092 169.187 167.662 168.443C167.248 167.682 167.042 166.747 167.042 165.638C167.042 164.05 167.505 162.826 168.431 161.965C169.358 161.105 170.623 160.675 172.228 160.675C173.171 160.675 173.957 160.824 174.586 161.122C175.215 161.403 175.711 161.8 176.075 162.313C176.455 162.826 176.737 163.413 176.919 164.075C177.101 164.72 177.217 165.407 177.266 166.135L174.139 166.681C174.106 166.052 174.032 165.489 173.916 164.993C173.817 164.497 173.626 164.108 173.345 163.827C173.08 163.545 172.683 163.405 172.154 163.405C171.608 163.405 171.186 163.587 170.888 163.951C170.607 164.298 170.466 164.737 170.466 165.266C170.466 165.944 170.607 166.507 170.888 166.954C171.169 167.384 171.575 167.83 172.104 168.294L174.611 170.502C175.438 171.197 176.141 172.016 176.72 172.959C177.316 173.886 177.614 175.011 177.614 176.334C177.614 177.294 177.399 178.146 176.968 178.891C176.555 179.635 175.967 180.222 175.206 180.653C174.462 181.066 173.585 181.273 172.576 181.273ZM185.91 181V160.898H189.533V181H185.91ZM192.645 181V160.898H195.201L200.09 172.364V160.898H203.118V181H200.686L195.772 168.989V181H192.645ZM217.613 181.273C216.141 181.273 214.982 180.983 214.139 180.404C213.311 179.825 212.732 179.039 212.402 178.047C212.071 177.038 211.905 175.879 211.905 174.572V167.4C211.905 166.027 212.071 164.836 212.402 163.827C212.732 162.817 213.311 162.04 214.139 161.494C214.982 160.948 216.141 160.675 217.613 160.675C219.003 160.675 220.087 160.915 220.864 161.395C221.658 161.858 222.221 162.528 222.552 163.405C222.883 164.282 223.048 165.299 223.048 166.457V168.145H219.524V166.408C219.524 165.845 219.491 165.332 219.425 164.869C219.375 164.406 219.218 164.042 218.953 163.777C218.705 163.496 218.267 163.355 217.638 163.355C217.009 163.355 216.546 163.504 216.248 163.802C215.967 164.083 215.785 164.472 215.702 164.968C215.619 165.448 215.578 165.994 215.578 166.606V175.342C215.578 176.07 215.636 176.674 215.752 177.153C215.868 177.617 216.074 177.972 216.372 178.221C216.687 178.452 217.108 178.568 217.638 178.568C218.25 178.568 218.68 178.427 218.928 178.146C219.193 177.848 219.359 177.459 219.425 176.98C219.491 176.5 219.524 175.962 219.524 175.367V173.555H223.048V175.168C223.048 176.359 222.891 177.418 222.576 178.345C222.262 179.255 221.708 179.974 220.914 180.504C220.136 181.017 219.036 181.273 217.613 181.273ZM224.588 181L228.608 160.898H232.529L236.549 181H233.149L232.355 176.359H228.856L228.037 181H224.588ZM229.228 174.026H231.958L230.593 165.589L229.228 174.026ZM238.571 181V160.898H241.127L246.016 172.364V160.898H249.044V181H246.612L241.698 168.989V181H238.571ZM251.077 181L255.097 160.898H259.018L263.039 181H259.639L258.845 176.359H255.345L254.526 181H251.077ZM255.718 174.026H258.447L257.083 165.589L255.718 174.026ZM265.06 181V160.898H269.8C271.438 160.898 272.712 161.122 273.622 161.568C274.549 162.015 275.202 162.702 275.583 163.628C275.98 164.555 276.178 165.729 276.178 167.152V174.498C276.178 175.954 275.98 177.17 275.583 178.146C275.202 179.106 274.557 179.825 273.647 180.305C272.753 180.768 271.521 181 269.949 181H265.06ZM268.733 178.444H269.85C270.694 178.444 271.298 178.295 271.662 177.997C272.025 177.699 272.249 177.269 272.332 176.707C272.414 176.128 272.456 175.424 272.456 174.597V166.904C272.456 166.093 272.398 165.44 272.282 164.943C272.166 164.447 271.926 164.083 271.562 163.851C271.198 163.62 270.611 163.504 269.8 163.504H268.733V178.444ZM277.711 181L281.732 160.898H285.653L289.673 181H286.273L285.479 176.359H281.98L281.161 181H277.711ZM282.352 174.026H285.082L283.717 165.589L282.352 174.026Z" fill="black"/>
<rect x="2.05469" y="216.331" width="351.935" height="44.37" fill="#930043"/>
<circle cx="178.524" cy="235.488" r="37.3111" fill="white"/>
<path d="M70.7257 223.994L75.119 232.894L84.9436 234.33L77.8347 241.254L79.5124 251.036L70.7257 246.416L61.9391 251.036L63.6168 241.254L56.5078 234.33L66.3324 232.894L70.7257 223.994Z" fill="white"/>
<path d="M111.829 223.994L116.223 232.894L126.047 234.33L118.938 241.254L120.616 251.036L111.829 246.416L103.043 251.036L104.72 241.254L97.6113 234.33L107.436 232.894L111.829 223.994Z" fill="white"/>
<path d="M179.732 214.308L187.272 229.582L204.133 232.047L191.933 243.93L194.812 260.717L179.732 252.787L164.653 260.717L167.532 243.93L155.332 232.047L172.193 229.582L179.732 214.308Z" fill="#930043"/>
<path d="M241.505 223.994L245.898 232.894L255.723 234.33L248.614 241.254L250.292 251.036L241.505 246.416L232.718 251.036L234.396 241.254L227.287 234.33L237.112 232.894L241.505 223.994Z" fill="white"/>
<path d="M282.609 223.994L287.002 232.894L296.826 234.33L289.717 241.254L291.395 251.036L282.609 246.416L273.822 251.036L275.5 241.254L268.391 234.33L278.215 232.894L282.609 223.994Z" fill="white"/>
<g clip-path="url(#clip0_929_2171)">
<path d="M186.464 290.466V295.22H181.974V284.392H180.39V295.22H175.636V284.392H174.051V301.295H169.561V290.466H167.977V307.633H169.561V302.879H180.39V313.708H181.974V296.805H186.464V307.633H188.049V290.466H186.464ZM180.39 301.295H175.636V296.805H180.39V301.295Z" fill="#930043"/>
<path d="M175.633 303.674H174.049V313.71H175.633V303.674Z" fill="#930043"/>
</g>
<path d="M135.135 321.788V331.281H133.015V327.721H126.653V331.281H124.533V321.788H126.653V325.349H133.015V321.788H135.135Z" fill="black"/>
<path d="M136.945 331.282V321.774H139.586V331.282H136.945Z" fill="black"/>
<path d="M151.73 324.16H147.491V331.28H145.371V324.16H141.129V321.787H151.73V324.16Z" fill="black"/>
<path d="M163.773 321.787V324.16H155.292V324.162H153.172V321.787H163.773ZM163.773 325.548V327.483H155.292V327.489H153.172V325.548H163.773ZM163.773 328.908V331.28H153.172V328.908H163.773Z" fill="black"/>
<path d="M176.196 324.862V325.94H174.076V325.073C174.076 324.569 173.71 324.16 173.26 324.16H165.594V321.787H173.449C173.665 321.787 173.874 321.815 174.076 321.869C175.089 322.133 175.887 323.026 176.125 324.162C176.171 324.386 176.196 324.62 176.196 324.862ZM168.53 328.908H176.196V331.28H168.341C168.243 331.28 168.148 331.275 168.055 331.262C167.939 331.25 167.825 331.227 167.714 331.199C166.701 330.934 165.903 330.042 165.665 328.905C165.646 328.821 165.633 328.737 165.621 328.653C165.603 328.506 165.592 328.356 165.592 328.203V325.447H167.712V327.992C167.714 328.498 168.08 328.908 168.53 328.908Z" fill="black"/>
<path d="M188.502 321.787V331.28H186.382V327.72H180.02V331.28H177.9V321.787H180.02V325.347H186.382V321.787H188.502Z" fill="black"/>
<path d="M206.522 321.787V331.28H204.402V327.72H198.04V331.28H195.92V321.787H198.04V325.347H204.402V321.787H206.522Z" fill="#930043"/>
<path d="M218.953 321.787V331.28H216.89V330.263L216.066 331.28H210.783C209.533 331.135 208.531 330.052 208.35 328.671V321.787H210.469V327.995C210.469 328.498 210.835 328.908 211.285 328.908H216.827L216.831 321.787H218.953Z" fill="#930043"/>
<path d="M231.455 327.76C231.482 327.931 231.496 328.106 231.496 328.284C231.496 328.493 231.478 328.696 231.442 328.892C231.207 330.166 230.249 331.145 229.067 331.265C228.988 331.272 228.906 331.277 228.822 331.277C228.738 331.277 228.658 331.272 228.576 331.265H222.987V331.277H220.867V328.895H220.869V327.763H220.867V325.411H220.869V324.124H220.867V321.774H228.822C230.108 321.774 231.185 322.791 231.439 324.147C231.478 324.348 231.496 324.554 231.496 324.767C231.496 324.981 231.476 325.187 231.439 325.388C231.362 325.807 231.203 326.194 230.987 326.527C231.219 326.886 231.382 327.305 231.455 327.76ZM229.376 324.767C229.376 324.427 229.129 324.147 228.822 324.147H227.252V324.124H222.989V325.411H227.252V325.388H228.822C228.922 325.388 229.013 325.36 229.094 325.309C229.263 325.202 229.376 324.999 229.376 324.767ZM229.376 328.287C229.376 328.066 229.272 327.872 229.117 327.763H222.992V328.895H228.935C229.185 328.836 229.376 328.584 229.376 328.287Z" fill="#930043"/>
<defs>
<clipPath id="clip0_929_2171">
<rect width="20.072" height="29.3157" fill="white" transform="translate(167.979 284.391)"/>
</clipPath>
</defs>
</svg>
