<svg width="355" height="401" viewBox="0 0 355 401" fill="none" xmlns="http://www.w3.org/2000/svg">
<path d="M16.3151 82.2629L162.311 5.50692C171.582 0.620741 183.011 0.620741 192.283 5.50692L338.278 82.2629C347.549 87.1491 353.264 96.1539 353.264 105.908V294.915C353.264 304.668 347.549 313.673 338.278 318.559L192.283 395.315C183.011 400.201 171.582 400.201 162.311 395.315L16.3151 318.559C7.04393 313.673 1.3291 304.668 1.3291 294.915V105.908C1.3291 96.1352 7.04393 87.1304 16.3151 82.2629Z" fill="white" stroke="#930043" stroke-width="2.23497" stroke-miterlimit="10"/>
<path d="M329.815 286.39C329.815 293.912 325.371 300.928 318.189 304.688L187.319 373.388C180.137 377.149 171.227 377.149 164.087 373.388L33.1751 304.688C25.9937 300.928 21.549 293.912 21.549 286.39V269.733H14.2441V286.39C14.2441 296.269 20.0881 305.474 29.5124 310.413L160.424 379.132C165.116 381.602 170.404 382.836 175.692 382.836C180.96 382.836 186.228 381.602 190.94 379.132L321.852 310.413C331.276 305.474 337.12 296.269 337.12 286.39V269.733H329.836V286.39H329.815ZM321.852 90.3983L190.94 21.698C181.536 16.7401 169.828 16.7588 160.424 21.698L29.533 90.3983C20.1086 95.3562 14.2647 104.561 14.2647 114.44V208.079H21.5696V114.44C21.5696 106.919 26.0143 99.9026 33.1957 96.142L164.046 27.4417C171.227 23.6812 180.137 23.6812 187.277 27.4417L318.189 96.142C325.371 99.9026 329.815 106.919 329.815 114.44V208.079H337.1V114.44C337.12 104.561 331.276 95.3562 321.852 90.3983Z" fill="#930043"/>
<path d="M103.435 96.1575V78.0851H107.005L109.567 91.9218L112.128 78.0851H115.698V96.1575H113.117V81.8972L110.535 96.1575H108.599L106.017 81.8972V96.1575H103.435ZM124.592 96.339C123.684 96.339 122.904 96.2012 122.252 95.9255C121.607 95.6499 121.092 95.2465 120.709 94.7153C120.326 94.1842 120.047 93.5623 119.872 92.8496C119.697 92.1302 119.61 91.2965 119.61 90.3485V83.7932C119.61 82.8452 119.697 82.0183 119.872 81.3123C120.047 80.6064 120.326 79.9945 120.709 79.4768C121.092 78.9524 121.607 78.5591 122.252 78.2969C122.904 78.0347 123.684 77.9036 124.592 77.9036C126.353 77.9036 127.624 78.4078 128.404 79.4163C129.184 80.4248 129.574 81.8838 129.574 83.7932V90.3485C129.574 91.283 129.483 92.11 129.302 92.8294C129.127 93.5421 128.848 94.1674 128.464 94.7052C128.081 95.2364 127.564 95.6431 126.911 95.9255C126.266 96.2012 125.493 96.339 124.592 96.339ZM122.706 93.4043C123.056 93.9489 123.684 94.2211 124.592 94.2211C125.499 94.2211 126.125 93.9489 126.468 93.4043C126.817 92.8597 126.992 92.0562 126.992 90.9939V83.1478C126.992 82.0989 126.821 81.3157 126.478 80.798C126.135 80.2803 125.506 80.0214 124.592 80.0214C123.677 80.0214 123.049 80.2803 122.706 80.798C122.363 81.3157 122.192 82.0989 122.192 83.1478V90.9939C122.192 92.0562 122.363 92.8597 122.706 93.4043ZM138.195 96.339C136.568 96.339 135.324 95.8616 134.463 94.9069C133.61 93.9522 133.132 92.6479 133.031 90.9939L135.613 90.3485C135.741 92.9303 136.601 94.2211 138.195 94.2211C139.486 94.2211 140.131 93.5757 140.131 92.2848C140.131 91.9016 140.077 91.5486 139.97 91.2259C139.869 90.8965 139.711 90.5973 139.496 90.3283C139.281 90.0527 139.086 89.8342 138.911 89.6728C138.736 89.5047 138.497 89.2997 138.195 89.0576L134.968 86.4758C134.376 86.0119 133.902 85.4236 133.546 84.711C133.196 83.9916 133.021 83.1747 133.021 82.2603C133.021 80.9291 133.435 79.8702 134.262 79.0835C135.089 78.2969 136.185 77.9036 137.549 77.9036C139.015 77.9036 140.178 78.2633 141.039 78.9827C141.906 79.6954 142.441 80.7072 142.642 82.0183C142.663 82.1595 142.686 82.3544 142.713 82.6032L140.131 83.2486C140.125 83.1343 140.108 82.9629 140.081 82.7343C139.967 81.9141 139.708 81.2585 139.304 80.7677C138.908 80.2702 138.323 80.0214 137.549 80.0214C136.931 80.0214 136.454 80.1962 136.117 80.5459C135.781 80.8887 135.613 81.3695 135.613 81.988C135.613 83.0032 136.043 83.8537 136.904 84.5395L140.131 87.1213C141.852 88.513 142.713 90.1771 142.713 92.1134C142.713 93.4379 142.303 94.4733 141.483 95.2196C140.669 95.9659 139.573 96.339 138.195 96.339ZM148.177 96.1575V80.3845H144.95V78.0851H153.986V80.3845H150.759V96.1575H148.177ZM165.349 85.8304H165.994C167.07 85.8304 167.877 85.6052 168.415 85.1547C168.953 84.6975 169.222 83.9546 169.222 82.9259C169.222 81.8972 168.953 81.1577 168.415 80.7072C167.877 80.25 167.07 80.0214 165.994 80.0214H165.349V85.8304ZM162.767 96.1575V78.0851H165.994C167.917 78.0851 169.366 78.4583 170.341 79.2045C171.316 79.9508 171.803 81.1913 171.803 82.9259C171.803 84.0017 171.612 84.9026 171.229 85.6287C170.845 86.3548 170.284 86.8524 169.544 87.1213L172.449 96.1575H169.887L167.285 87.7667H165.349V96.1575H162.767ZM175.594 96.1575V78.0851H182.694V80.0214H178.176V85.8304H181.403V87.7667H178.176V94.2211H182.694V96.1575H175.594ZM188.642 96.1575L184.77 78.0851H187.351L189.257 87.7667L189.923 92.2848L190.609 87.7667L192.515 78.0851H195.097L191.224 96.1575H188.642ZM198.282 96.1575V78.0851H200.864V96.1575H198.282ZM205.279 96.1575V78.0851H212.379V80.0214H207.861V85.8304H211.088V87.7667H207.861V94.2211H212.379V96.1575H205.279ZM217.672 96.1575L214.445 78.0851H217.027L218.318 86.4758L218.973 91.6394L219.608 86.4758L220.899 78.0851H223.481L224.772 86.4758L225.407 91.6394L226.063 86.4758L227.354 78.0851H229.936L226.708 96.1575H224.127L222.836 87.7667L222.19 82.6032L221.545 87.7667L220.254 96.1575H217.672ZM232.99 96.1575V78.0851H240.09V80.0214H235.571V85.8304H238.799V87.7667H235.571V94.2211H240.09V96.1575H232.99ZM243.335 96.1575V78.0851H247.339C249.228 78.0851 250.56 78.4717 251.333 79.2449C252.113 80.0181 252.503 81.3527 252.503 83.2486V90.3485C252.503 92.3319 252.106 93.7976 251.313 94.7456C250.526 95.6868 249.195 96.1575 247.319 96.1575H243.335ZM245.917 94.2211H247.339C247.763 94.2211 248.126 94.1842 248.428 94.1102C248.731 94.0295 248.976 93.8883 249.164 93.6866C249.353 93.4782 249.501 93.2832 249.608 93.1017C249.716 92.9135 249.79 92.6244 249.83 92.2344C249.877 91.8444 249.904 91.5251 249.911 91.2763C249.917 91.0208 249.921 90.6275 249.921 90.0964C249.921 89.9216 249.921 89.7905 249.921 89.7031V83.8941C249.921 83.5646 249.917 83.3024 249.911 83.1075C249.911 82.9125 249.901 82.6839 249.88 82.4217C249.867 82.1527 249.843 81.9409 249.81 81.7863C249.776 81.6317 249.729 81.4602 249.669 81.272C249.608 81.077 249.531 80.9257 249.437 80.8182C249.349 80.7106 249.238 80.5996 249.104 80.4853C248.976 80.3643 248.825 80.2769 248.65 80.2231C248.482 80.1626 248.284 80.1156 248.055 80.0819C247.826 80.0416 247.571 80.0214 247.289 80.0214H245.917V94.2211Z" fill="#930043"/>
<path d="M88.2034 144L85.3495 123.898H88.4268L90.0895 136.927L92.1742 123.948H94.6807L96.8149 136.927L98.4528 123.898H101.481L98.6762 144H95.6982L93.4646 130.524L91.2559 144H88.2034ZM103.762 144V123.898H112.199V126.479H107.434V132.262H111.182V134.818H107.434V141.469H112.249V144H103.762ZM114.377 144V123.898H119.315C120.209 123.898 121.011 123.981 121.722 124.146C122.45 124.312 123.071 124.593 123.584 124.99C124.113 125.371 124.518 125.892 124.8 126.554C125.081 127.215 125.222 128.051 125.222 129.06C125.222 129.871 125.106 130.566 124.874 131.145C124.659 131.724 124.336 132.187 123.906 132.535C123.476 132.865 122.938 133.089 122.293 133.205C123.087 133.337 123.741 133.618 124.254 134.048C124.783 134.462 125.172 135.008 125.42 135.686C125.685 136.365 125.817 137.184 125.817 138.143C125.817 139.103 125.693 139.955 125.445 140.699C125.213 141.427 124.858 142.039 124.378 142.536C123.915 143.016 123.327 143.38 122.616 143.628C121.921 143.876 121.102 144 120.159 144H114.377ZM118.05 141.419H119.439C120.548 141.419 121.301 141.154 121.698 140.625C122.095 140.079 122.293 139.243 122.293 138.118C122.293 137.308 122.194 136.654 121.995 136.158C121.813 135.645 121.499 135.264 121.052 135.016C120.622 134.768 120.043 134.644 119.315 134.644H118.05V141.419ZM118.05 132.113H119.29C120.018 132.113 120.581 132.005 120.978 131.79C121.375 131.575 121.648 131.244 121.797 130.797C121.962 130.351 122.045 129.788 122.045 129.11C122.045 128.398 121.921 127.852 121.673 127.472C121.441 127.075 121.085 126.81 120.606 126.678C120.126 126.529 119.514 126.454 118.769 126.454H118.05V132.113ZM134.225 144V123.898H138.965C140.603 123.898 141.877 124.122 142.787 124.568C143.714 125.015 144.367 125.702 144.748 126.628C145.145 127.555 145.343 128.729 145.343 130.152V137.498C145.343 138.954 145.145 140.17 144.748 141.146C144.367 142.106 143.722 142.825 142.812 143.305C141.919 143.768 140.686 144 139.114 144H134.225ZM137.898 141.444H139.015C139.859 141.444 140.463 141.295 140.827 140.997C141.191 140.699 141.414 140.269 141.497 139.707C141.579 139.128 141.621 138.424 141.621 137.597V129.904C141.621 129.093 141.563 128.44 141.447 127.943C141.331 127.447 141.091 127.083 140.727 126.851C140.363 126.62 139.776 126.504 138.965 126.504H137.898V141.444ZM148.039 144V123.898H156.477V126.479H151.712V132.262H155.46V134.818H151.712V141.469H156.527V144H148.039ZM161.732 144L157.687 123.898H160.938L163.593 138.118L166.075 123.898H169.4L165.355 144H161.732ZM171.451 144V123.898H179.889V126.479H175.124V132.262H178.871V134.818H175.124V141.469H179.938V144H171.451ZM182.066 144V123.898H185.739V141.469H190.603V144H182.066ZM197.729 144.273C196.306 144.273 195.172 144.008 194.329 143.479C193.485 142.949 192.881 142.188 192.517 141.196C192.153 140.203 191.971 139.028 191.971 137.672V130.152C191.971 128.795 192.153 127.637 192.517 126.678C192.881 125.702 193.485 124.957 194.329 124.444C195.172 123.931 196.306 123.675 197.729 123.675C199.185 123.675 200.326 123.931 201.153 124.444C201.997 124.957 202.601 125.702 202.965 126.678C203.346 127.637 203.536 128.795 203.536 130.152V137.696C203.536 139.037 203.346 140.203 202.965 141.196C202.601 142.172 201.997 142.933 201.153 143.479C200.326 144.008 199.185 144.273 197.729 144.273ZM197.729 141.568C198.341 141.568 198.787 141.436 199.069 141.171C199.367 140.906 199.565 140.542 199.664 140.079C199.764 139.616 199.813 139.111 199.813 138.565V129.308C199.813 128.746 199.764 128.241 199.664 127.795C199.565 127.348 199.367 127 199.069 126.752C198.787 126.488 198.341 126.355 197.729 126.355C197.15 126.355 196.711 126.488 196.413 126.752C196.116 127 195.917 127.348 195.818 127.795C195.718 128.241 195.669 128.746 195.669 129.308V138.565C195.669 139.111 195.71 139.616 195.793 140.079C195.892 140.542 196.091 140.906 196.388 141.171C196.686 141.436 197.133 141.568 197.729 141.568ZM206.253 144V123.898H212.159C213.367 123.898 214.343 124.122 215.087 124.568C215.849 125.015 216.403 125.669 216.75 126.529C217.114 127.373 217.296 128.398 217.296 129.606C217.296 130.913 217.073 131.972 216.626 132.783C216.179 133.577 215.551 134.156 214.74 134.52C213.946 134.884 213.003 135.066 211.911 135.066H209.926V144H206.253ZM209.926 132.485H211.315C211.977 132.485 212.49 132.394 212.854 132.212C213.234 132.013 213.491 131.707 213.623 131.294C213.772 130.864 213.847 130.293 213.847 129.581C213.847 128.853 213.789 128.266 213.673 127.819C213.574 127.356 213.342 127.017 212.978 126.802C212.631 126.587 212.076 126.479 211.315 126.479H209.926V132.485ZM219.29 144L219.638 123.898H223.435L226.288 137.821L229.266 123.898H232.939L233.312 144H230.582L230.284 130.028L227.43 144H225.221L222.318 129.978L222.045 144H219.29ZM236.28 144V123.898H244.718V126.479H239.953V132.262H243.7V134.818H239.953V141.469H244.768V144H236.28ZM246.895 144V123.898H249.451L254.34 135.364V123.898H257.368V144H254.936L250.022 131.989V144H246.895ZM262.429 144V126.603H259.227V123.898H269.253V126.603H266.102V144H262.429ZM97.878 181.273C96.4055 181.273 95.2474 180.983 94.4036 180.404C93.5764 179.825 92.9973 179.039 92.6664 178.047C92.3355 177.038 92.1701 175.879 92.1701 174.572V167.4C92.1701 166.027 92.3355 164.836 92.6664 163.827C92.9973 162.817 93.5764 162.04 94.4036 161.494C95.2474 160.948 96.4055 160.675 97.878 160.675C99.2677 160.675 100.351 160.915 101.129 161.395C101.923 161.858 102.486 162.528 102.817 163.405C103.147 164.282 103.313 165.299 103.313 166.457V168.145H99.7889V166.408C99.7889 165.845 99.7558 165.332 99.6896 164.869C99.64 164.406 99.4828 164.042 99.2181 163.777C98.9699 163.496 98.5315 163.355 97.9028 163.355C97.2741 163.355 96.8109 163.504 96.5131 163.802C96.2318 164.083 96.0498 164.472 95.9671 164.968C95.8844 165.448 95.843 165.994 95.843 166.606V175.342C95.843 176.07 95.9009 176.674 96.0167 177.153C96.1325 177.617 96.3393 177.972 96.6371 178.221C96.9515 178.452 97.3734 178.568 97.9028 178.568C98.515 178.568 98.9451 178.427 99.1933 178.146C99.458 177.848 99.6234 177.459 99.6896 176.98C99.7558 176.5 99.7889 175.962 99.7889 175.367V173.555H103.313V175.168C103.313 176.359 103.156 177.418 102.841 178.345C102.527 179.255 101.973 179.974 101.179 180.504C100.401 181.017 99.3008 181.273 97.878 181.273ZM111.33 181.273C109.907 181.273 108.774 181.008 107.93 180.479C107.086 179.949 106.482 179.188 106.118 178.196C105.754 177.203 105.572 176.028 105.572 174.672V167.152C105.572 165.795 105.754 164.637 106.118 163.678C106.482 162.702 107.086 161.957 107.93 161.444C108.774 160.931 109.907 160.675 111.33 160.675C112.786 160.675 113.927 160.931 114.754 161.444C115.598 161.957 116.202 162.702 116.566 163.678C116.947 164.637 117.137 165.795 117.137 167.152V174.696C117.137 176.037 116.947 177.203 116.566 178.196C116.202 179.172 115.598 179.933 114.754 180.479C113.927 181.008 112.786 181.273 111.33 181.273ZM111.33 178.568C111.942 178.568 112.389 178.436 112.67 178.171C112.968 177.906 113.166 177.542 113.265 177.079C113.365 176.616 113.414 176.111 113.414 175.565V166.308C113.414 165.746 113.365 165.241 113.265 164.795C113.166 164.348 112.968 164 112.67 163.752C112.389 163.488 111.942 163.355 111.33 163.355C110.751 163.355 110.312 163.488 110.014 163.752C109.717 164 109.518 164.348 109.419 164.795C109.32 165.241 109.27 165.746 109.27 166.308V175.565C109.27 176.111 109.311 176.616 109.394 177.079C109.493 177.542 109.692 177.906 109.99 178.171C110.287 178.436 110.734 178.568 111.33 178.568ZM119.804 181L120.152 160.898H123.949L126.803 174.821L129.781 160.898H133.453L133.826 181H131.096L130.798 167.028L127.944 181H125.735L122.832 166.978L122.559 181H119.804ZM136.794 181V160.898H142.701C143.908 160.898 144.885 161.122 145.629 161.568C146.39 162.015 146.944 162.669 147.292 163.529C147.656 164.373 147.838 165.398 147.838 166.606C147.838 167.913 147.614 168.972 147.168 169.783C146.721 170.577 146.092 171.156 145.282 171.52C144.488 171.884 143.544 172.066 142.453 172.066H140.467V181H136.794ZM140.467 169.485H141.857C142.519 169.485 143.032 169.394 143.396 169.212C143.776 169.013 144.033 168.707 144.165 168.294C144.314 167.864 144.388 167.293 144.388 166.581C144.388 165.853 144.33 165.266 144.215 164.819C144.115 164.356 143.884 164.017 143.52 163.802C143.172 163.587 142.618 163.479 141.857 163.479H140.467V169.485ZM147.797 181L151.818 160.898H155.739L159.759 181H156.359L155.565 176.359H152.066L151.247 181H147.797ZM152.438 174.026H155.168L153.803 165.589L152.438 174.026ZM161.781 181V160.898H164.337L169.226 172.364V160.898H172.254V181H169.822L164.908 168.989V181H161.781ZM175.403 181V160.898H179.027V181H175.403ZM182.139 181V160.898H190.576V163.479H185.811V169.262H189.559V171.818H185.811V178.469H190.626V181H182.139ZM197.816 181.273C196.608 181.273 195.599 181.041 194.789 180.578C193.978 180.098 193.366 179.403 192.952 178.493C192.539 177.584 192.307 176.467 192.257 175.143L195.409 174.523C195.442 175.3 195.533 175.987 195.682 176.583C195.847 177.178 196.087 177.641 196.402 177.972C196.733 178.287 197.163 178.444 197.692 178.444C198.288 178.444 198.71 178.27 198.958 177.923C199.206 177.559 199.33 177.104 199.33 176.558C199.33 175.681 199.132 174.961 198.734 174.399C198.337 173.836 197.808 173.274 197.146 172.711L194.615 170.478C193.903 169.865 193.333 169.187 192.902 168.443C192.489 167.682 192.282 166.747 192.282 165.638C192.282 164.05 192.745 162.826 193.672 161.965C194.598 161.105 195.864 160.675 197.469 160.675C198.412 160.675 199.198 160.824 199.826 161.122C200.455 161.403 200.951 161.8 201.315 162.313C201.696 162.826 201.977 163.413 202.159 164.075C202.341 164.72 202.457 165.407 202.507 166.135L199.38 166.681C199.347 166.052 199.272 165.489 199.156 164.993C199.057 164.497 198.867 164.108 198.586 163.827C198.321 163.545 197.924 163.405 197.394 163.405C196.848 163.405 196.426 163.587 196.129 163.951C195.847 164.298 195.707 164.737 195.707 165.266C195.707 165.944 195.847 166.507 196.129 166.954C196.41 167.384 196.815 167.83 197.345 168.294L199.851 170.502C200.678 171.197 201.382 172.016 201.961 172.959C202.556 173.886 202.854 175.011 202.854 176.334C202.854 177.294 202.639 178.146 202.209 178.891C201.795 179.635 201.208 180.222 200.447 180.653C199.702 181.066 198.825 181.273 197.816 181.273ZM211.151 181V160.898H214.774V181H211.151ZM217.886 181V160.898H220.442L225.331 172.364V160.898H228.358V181H225.926L221.013 168.989V181H217.886ZM242.953 181.273C241.464 181.273 240.306 181 239.478 180.454C238.651 179.908 238.08 179.13 237.766 178.121C237.452 177.112 237.295 175.904 237.295 174.498V160.898H240.868V174.92C240.868 175.549 240.91 176.144 240.992 176.707C241.075 177.253 241.265 177.699 241.563 178.047C241.877 178.378 242.341 178.543 242.953 178.543C243.598 178.543 244.061 178.378 244.343 178.047C244.64 177.699 244.831 177.253 244.913 176.707C245.013 176.144 245.062 175.549 245.062 174.92V160.898H248.611V174.498C248.611 175.904 248.454 177.112 248.14 178.121C247.825 179.13 247.254 179.908 246.427 180.454C245.617 181 244.458 181.273 242.953 181.273ZM251.5 181V160.898H255.173V169.733L259.144 160.898H262.643L258.796 169.882L263.04 181H259.392L256.017 171.843L255.173 173.381V181H251.5Z" fill="black"/>
<rect x="1.3291" y="216.331" width="351.935" height="44.37" fill="#930043"/>
<circle cx="177.799" cy="235.488" r="37.3111" fill="white"/>
<path d="M70.0011 223.994L74.3944 232.894L84.219 234.33L77.1101 241.254L78.7878 251.036L70.0011 246.416L61.2144 251.036L62.8922 241.254L55.7832 234.33L65.6078 232.894L70.0011 223.994Z" fill="white"/>
<path d="M111.106 223.994L115.499 232.894L125.324 234.33L118.215 241.254L119.892 251.036L111.106 246.416L102.319 251.036L103.997 241.254L96.8877 234.33L106.712 232.894L111.106 223.994Z" fill="white"/>
<path d="M179.006 214.308L186.546 229.582L203.406 232.047L191.206 243.93L194.085 260.717L179.006 252.787L163.926 260.717L166.806 243.93L154.605 232.047L171.466 229.582L179.006 214.308Z" fill="#930043"/>
<path d="M240.779 223.994L245.173 232.894L254.997 234.33L247.888 241.254L249.566 251.036L240.779 246.416L231.993 251.036L233.67 241.254L226.562 234.33L236.386 232.894L240.779 223.994Z" fill="white"/>
<path d="M281.884 223.994L286.277 232.894L296.102 234.33L288.993 241.254L290.671 251.036L281.884 246.416L273.097 251.036L274.775 241.254L267.666 234.33L277.491 232.894L281.884 223.994Z" fill="white"/>
<g clip-path="url(#clip0_929_2336)">
<path d="M185.739 290.466V295.22H181.25V284.391H179.665V295.22H174.911V284.391H173.326V301.294H168.837V290.466H167.252V307.633H168.837V302.879H179.665V313.707H181.25V296.804H185.739V307.633H187.324V290.466H185.739ZM179.665 301.294H174.911V296.804H179.665V301.294Z" fill="#930043"/>
<path d="M174.91 303.673H173.325V313.709H174.91V303.673Z" fill="#930043"/>
</g>
<path d="M134.409 321.788V331.281H132.289V327.721H125.927V331.281H123.808V321.788H125.927V325.349H132.289V321.788H134.409Z" fill="black"/>
<path d="M136.219 331.282V321.774H138.86V331.282H136.219Z" fill="black"/>
<path d="M151.005 324.16H146.765V331.281H144.645V324.16H140.403V321.788H151.005V324.16Z" fill="black"/>
<path d="M163.048 321.788V324.16H154.566V324.163H152.446V321.788H163.048ZM163.048 325.549V327.484H154.566V327.489H152.446V325.549H163.048ZM163.048 328.908V331.281H152.446V328.908H163.048Z" fill="black"/>
<path d="M175.469 324.862V325.94H173.349V325.073C173.349 324.57 172.983 324.16 172.534 324.16H164.868V321.788H172.722C172.938 321.788 173.147 321.816 173.349 321.869C174.363 322.134 175.16 323.026 175.399 324.163C175.444 324.387 175.469 324.621 175.469 324.862ZM167.803 328.908H175.469V331.281H167.614C167.517 331.281 167.421 331.276 167.328 331.263C167.212 331.25 167.099 331.227 166.987 331.199C165.974 330.935 165.177 330.042 164.938 328.906C164.92 328.822 164.906 328.738 164.895 328.654C164.877 328.506 164.865 328.356 164.865 328.204V325.447H166.985V327.993C166.987 328.499 167.353 328.908 167.803 328.908Z" fill="black"/>
<path d="M187.775 321.788V331.281H185.656V327.721H179.294V331.281H177.174V321.788H179.294V325.348H185.656V321.788H187.775Z" fill="black"/>
<path d="M205.796 321.788V331.281H203.676V327.721H197.314V331.281H195.194V321.788H197.314V325.348H203.676V321.788H205.796Z" fill="#930043"/>
<path d="M218.229 321.788V331.281H216.166V330.264L215.341 331.281H210.058C208.809 331.136 207.807 330.052 207.625 328.672V321.788H209.745V327.995C209.745 328.499 210.111 328.908 210.561 328.908H216.102L216.107 321.788H218.229Z" fill="#930043"/>
<path d="M230.729 327.76C230.756 327.931 230.769 328.106 230.769 328.284C230.769 328.493 230.751 328.696 230.715 328.892C230.481 330.166 229.522 331.145 228.341 331.265C228.261 331.272 228.179 331.277 228.095 331.277C228.011 331.277 227.932 331.272 227.85 331.265H222.26V331.277H220.141V328.895H220.143V327.763H220.141V325.411H220.143V324.124H220.141V321.774H228.095C229.381 321.774 230.458 322.791 230.713 324.147C230.751 324.348 230.769 324.554 230.769 324.767C230.769 324.981 230.749 325.187 230.713 325.388C230.635 325.807 230.476 326.194 230.261 326.527C230.492 326.886 230.656 327.305 230.729 327.76ZM228.65 324.767C228.65 324.427 228.402 324.147 228.095 324.147H226.525V324.124H222.263V325.411H226.525V325.388H228.095C228.195 325.388 228.286 325.36 228.368 325.309C228.536 325.202 228.65 324.999 228.65 324.767ZM228.65 328.287C228.65 328.066 228.545 327.872 228.391 327.763H222.265V328.895H228.209C228.459 328.836 228.65 328.584 228.65 328.287Z" fill="#930043"/>
<defs>
<clipPath id="clip0_929_2336">
<rect width="20.072" height="29.3157" fill="white" transform="translate(167.253 284.391)"/>
</clipPath>
</defs>
</svg>
