<svg width="355" height="401" viewBox="0 0 355 401" fill="none" xmlns="http://www.w3.org/2000/svg">
<path d="M16.1501 82.2629L162.145 5.50692C171.417 0.620741 182.846 0.620741 192.118 5.50692L338.113 82.2629C347.384 87.1491 353.099 96.1539 353.099 105.908V294.915C353.099 304.668 347.384 313.673 338.113 318.559L192.118 395.315C182.846 400.201 171.417 400.201 162.145 395.315L16.1501 318.559C6.87889 313.673 1.16406 304.668 1.16406 294.915V105.908C1.16406 96.1352 6.87889 87.1304 16.1501 82.2629Z" fill="white" stroke="#930043" stroke-width="2.23497" stroke-miterlimit="10"/>
<path d="M329.651 286.39C329.651 293.912 325.207 300.928 318.025 304.688L187.154 373.388C179.973 377.149 171.063 377.149 163.923 373.388L33.0111 304.688C25.8296 300.928 21.385 293.912 21.385 286.39V269.733H14.0801V286.39C14.0801 296.269 19.924 305.474 29.3483 310.413L160.26 379.132C164.952 381.602 170.24 382.836 175.528 382.836C180.796 382.836 186.064 381.602 190.776 379.132L321.688 310.413C331.112 305.474 336.956 296.269 336.956 286.39V269.733H329.672V286.39H329.651ZM321.688 90.3983L190.776 21.698C181.372 16.7401 169.664 16.7588 160.26 21.698L29.3689 90.3983C19.9446 95.3562 14.1007 104.561 14.1007 114.44V208.079H21.4055V114.44C21.4055 106.919 25.8502 99.9026 33.0316 96.142L163.882 27.4417C171.063 23.6812 179.973 23.6812 187.113 27.4417L318.025 96.142C325.207 99.9026 329.651 106.919 329.651 114.44V208.079H336.936V114.44C336.956 104.561 331.112 95.3562 321.688 90.3983Z" fill="#930043"/>
<path d="M103.271 96.1575V78.0851H106.841L109.403 91.9218L111.964 78.0851H115.534V96.1575H112.953V81.8972L110.371 96.1575H108.435L105.853 81.8972V96.1575H103.271ZM124.428 96.339C123.52 96.339 122.74 96.2012 122.088 95.9255C121.443 95.6499 120.928 95.2465 120.545 94.7153C120.162 94.1842 119.883 93.5623 119.708 92.8496C119.533 92.1302 119.446 91.2965 119.446 90.3485V83.7932C119.446 82.8452 119.533 82.0183 119.708 81.3123C119.883 80.6064 120.162 79.9945 120.545 79.4768C120.928 78.9524 121.443 78.5591 122.088 78.2969C122.74 78.0347 123.52 77.9036 124.428 77.9036C126.189 77.9036 127.46 78.4078 128.24 79.4163C129.02 80.4248 129.41 81.8838 129.41 83.7932V90.3485C129.41 91.283 129.319 92.11 129.137 92.8294C128.963 93.5421 128.684 94.1674 128.3 94.7052C127.917 95.2364 127.399 95.6431 126.747 95.9255C126.102 96.2012 125.329 96.339 124.428 96.339ZM122.542 93.4043C122.891 93.9489 123.52 94.2211 124.428 94.2211C125.335 94.2211 125.961 93.9489 126.304 93.4043C126.653 92.8597 126.828 92.0562 126.828 90.9939V83.1478C126.828 82.0989 126.657 81.3157 126.314 80.798C125.971 80.2803 125.342 80.0214 124.428 80.0214C123.513 80.0214 122.885 80.2803 122.542 80.798C122.199 81.3157 122.028 82.0989 122.028 83.1478V90.9939C122.028 92.0562 122.199 92.8597 122.542 93.4043ZM138.031 96.339C136.404 96.339 135.16 95.8616 134.299 94.9069C133.446 93.9522 132.968 92.6479 132.867 90.9939L135.449 90.3485C135.577 92.9303 136.437 94.2211 138.031 94.2211C139.322 94.2211 139.967 93.5757 139.967 92.2848C139.967 91.9016 139.913 91.5486 139.806 91.2259C139.705 90.8965 139.547 90.5973 139.332 90.3283C139.117 90.0527 138.922 89.8342 138.747 89.6728C138.572 89.5047 138.333 89.2997 138.031 89.0576L134.804 86.4758C134.212 86.0119 133.738 85.4236 133.382 84.711C133.032 83.9916 132.857 83.1747 132.857 82.2603C132.857 80.9291 133.271 79.8702 134.098 79.0835C134.925 78.2969 136.021 77.9036 137.385 77.9036C138.851 77.9036 140.014 78.2633 140.875 78.9827C141.742 79.6954 142.277 80.7072 142.478 82.0183C142.499 82.1595 142.522 82.3544 142.549 82.6032L139.967 83.2486C139.96 83.1343 139.944 82.9629 139.917 82.7343C139.802 81.9141 139.544 81.2585 139.14 80.7677C138.744 80.2702 138.159 80.0214 137.385 80.0214C136.767 80.0214 136.289 80.1962 135.953 80.5459C135.617 80.8887 135.449 81.3695 135.449 81.988C135.449 83.0032 135.879 83.8537 136.74 84.5395L139.967 87.1213C141.688 88.513 142.549 90.1771 142.549 92.1134C142.549 93.4379 142.139 94.4733 141.319 95.2196C140.505 95.9659 139.409 96.339 138.031 96.339ZM148.013 96.1575V80.3845H144.786V78.0851H153.822V80.3845H150.595V96.1575H148.013ZM165.185 85.8304H165.83C166.906 85.8304 167.713 85.6052 168.251 85.1547C168.789 84.6975 169.058 83.9546 169.058 82.9259C169.058 81.8972 168.789 81.1577 168.251 80.7072C167.713 80.25 166.906 80.0214 165.83 80.0214H165.185V85.8304ZM162.603 96.1575V78.0851H165.83C167.753 78.0851 169.202 78.4583 170.177 79.2045C171.152 79.9508 171.639 81.1913 171.639 82.9259C171.639 84.0017 171.448 84.9026 171.065 85.6287C170.681 86.3548 170.12 86.8524 169.38 87.1213L172.285 96.1575H169.723L167.121 87.7667H165.185V96.1575H162.603ZM175.43 96.1575V78.0851H182.53V80.0214H178.012V85.8304H181.239V87.7667H178.012V94.2211H182.53V96.1575H175.43ZM188.478 96.1575L184.605 78.0851H187.187L189.093 87.7667L189.759 92.2848L190.445 87.7667L192.351 78.0851H194.933L191.06 96.1575H188.478ZM198.118 96.1575V78.0851H200.7V96.1575H198.118ZM205.115 96.1575V78.0851H212.215V80.0214H207.697V85.8304H210.924V87.7667H207.697V94.2211H212.215V96.1575H205.115ZM217.508 96.1575L214.281 78.0851H216.863L218.154 86.4758L218.809 91.6394L219.444 86.4758L220.735 78.0851H223.317L224.608 86.4758L225.243 91.6394L225.899 86.4758L227.19 78.0851H229.771L226.544 96.1575H223.962L222.672 87.7667L222.026 82.6032L221.381 87.7667L220.09 96.1575H217.508ZM232.826 96.1575V78.0851H239.925V80.0214H235.407V85.8304H238.635V87.7667H235.407V94.2211H239.925V96.1575H232.826ZM243.171 96.1575V78.0851H247.175C249.064 78.0851 250.395 78.4717 251.169 79.2449C251.949 80.0181 252.339 81.3527 252.339 83.2486V90.3485C252.339 92.3319 251.942 93.7976 251.148 94.7456C250.362 95.6868 249.031 96.1575 247.155 96.1575H243.171ZM245.753 94.2211H247.175C247.599 94.2211 247.962 94.1842 248.264 94.1102C248.567 94.0295 248.812 93.8883 249 93.6866C249.189 93.4782 249.337 93.2832 249.444 93.1017C249.552 92.9135 249.626 92.6244 249.666 92.2344C249.713 91.8444 249.74 91.5251 249.747 91.2763C249.753 91.0208 249.757 90.6275 249.757 90.0964C249.757 89.9216 249.757 89.7905 249.757 89.7031V83.8941C249.757 83.5646 249.753 83.3024 249.747 83.1075C249.747 82.9125 249.737 82.6839 249.716 82.4217C249.703 82.1527 249.679 81.9409 249.646 81.7863C249.612 81.6317 249.565 81.4602 249.505 81.272C249.444 81.077 249.367 80.9257 249.273 80.8182C249.185 80.7106 249.074 80.5996 248.94 80.4853C248.812 80.3643 248.661 80.2769 248.486 80.2231C248.318 80.1626 248.12 80.1156 247.891 80.0819C247.662 80.0416 247.407 80.0214 247.125 80.0214H245.753V94.2211Z" fill="#930043"/>
<path d="M87.6624 144L84.8085 123.898H87.8858L89.5485 136.927L91.6331 123.948H94.1397L96.2739 136.927L97.9118 123.898H100.94L98.1352 144H95.1571L92.9236 130.524L90.7149 144H87.6624ZM103.221 144V123.898H111.658V126.479H106.893V132.262H110.641V134.818H106.893V141.469H111.708V144H103.221ZM113.836 144V123.898H118.774C119.668 123.898 120.47 123.981 121.181 124.146C121.909 124.312 122.53 124.593 123.043 124.99C123.572 125.371 123.977 125.892 124.259 126.554C124.54 127.215 124.681 128.051 124.681 129.06C124.681 129.871 124.565 130.566 124.333 131.145C124.118 131.724 123.795 132.187 123.365 132.535C122.935 132.865 122.397 133.089 121.752 133.205C122.546 133.337 123.2 133.618 123.713 134.048C124.242 134.462 124.631 135.008 124.879 135.686C125.144 136.365 125.276 137.184 125.276 138.143C125.276 139.103 125.152 139.955 124.904 140.699C124.672 141.427 124.317 142.039 123.837 142.536C123.374 143.016 122.786 143.38 122.075 143.628C121.38 143.876 120.561 144 119.618 144H113.836ZM117.508 141.419H118.898C120.007 141.419 120.76 141.154 121.157 140.625C121.554 140.079 121.752 139.243 121.752 138.118C121.752 137.308 121.653 136.654 121.454 136.158C121.272 135.645 120.958 135.264 120.511 135.016C120.081 134.768 119.502 134.644 118.774 134.644H117.508V141.419ZM117.508 132.113H118.749C119.477 132.113 120.04 132.005 120.437 131.79C120.834 131.575 121.107 131.244 121.256 130.797C121.421 130.351 121.504 129.788 121.504 129.11C121.504 128.398 121.38 127.852 121.132 127.472C120.9 127.075 120.544 126.81 120.065 126.678C119.585 126.529 118.973 126.454 118.228 126.454H117.508V132.113ZM133.684 144V123.898H138.424C140.062 123.898 141.336 124.122 142.246 124.568C143.173 125.015 143.826 125.702 144.207 126.628C144.604 127.555 144.802 128.729 144.802 130.152V137.498C144.802 138.954 144.604 140.17 144.207 141.146C143.826 142.106 143.181 142.825 142.271 143.305C141.378 143.768 140.145 144 138.573 144H133.684ZM137.357 141.444H138.474C139.318 141.444 139.922 141.295 140.286 140.997C140.65 140.699 140.873 140.269 140.956 139.707C141.038 139.128 141.08 138.424 141.08 137.597V129.904C141.08 129.093 141.022 128.44 140.906 127.943C140.79 127.447 140.55 127.083 140.186 126.851C139.822 126.62 139.235 126.504 138.424 126.504H137.357V141.444ZM147.498 144V123.898H155.936V126.479H151.171V132.262H154.919V134.818H151.171V141.469H155.986V144H147.498ZM161.191 144L157.146 123.898H160.397L163.052 138.118L165.534 123.898H168.859L164.814 144H161.191ZM170.91 144V123.898H179.348V126.479H174.583V132.262H178.33V134.818H174.583V141.469H179.397V144H170.91ZM181.525 144V123.898H185.198V141.469H190.062V144H181.525ZM197.188 144.273C195.765 144.273 194.631 144.008 193.788 143.479C192.944 142.949 192.34 142.188 191.976 141.196C191.612 140.203 191.43 139.028 191.43 137.672V130.152C191.43 128.795 191.612 127.637 191.976 126.678C192.34 125.702 192.944 124.957 193.788 124.444C194.631 123.931 195.765 123.675 197.188 123.675C198.644 123.675 199.785 123.931 200.612 124.444C201.456 124.957 202.06 125.702 202.424 126.678C202.805 127.637 202.995 128.795 202.995 130.152V137.696C202.995 139.037 202.805 140.203 202.424 141.196C202.06 142.172 201.456 142.933 200.612 143.479C199.785 144.008 198.644 144.273 197.188 144.273ZM197.188 141.568C197.8 141.568 198.246 141.436 198.528 141.171C198.826 140.906 199.024 140.542 199.123 140.079C199.223 139.616 199.272 139.111 199.272 138.565V129.308C199.272 128.746 199.223 128.241 199.123 127.795C199.024 127.348 198.826 127 198.528 126.752C198.246 126.488 197.8 126.355 197.188 126.355C196.609 126.355 196.17 126.488 195.872 126.752C195.574 127 195.376 127.348 195.277 127.795C195.177 128.241 195.128 128.746 195.128 129.308V138.565C195.128 139.111 195.169 139.616 195.252 140.079C195.351 140.542 195.55 140.906 195.847 141.171C196.145 141.436 196.592 141.568 197.188 141.568ZM205.712 144V123.898H211.618C212.826 123.898 213.802 124.122 214.546 124.568C215.308 125.015 215.862 125.669 216.209 126.529C216.573 127.373 216.755 128.398 216.755 129.606C216.755 130.913 216.532 131.972 216.085 132.783C215.638 133.577 215.01 134.156 214.199 134.52C213.405 134.884 212.462 135.066 211.37 135.066H209.385V144H205.712ZM209.385 132.485H210.774C211.436 132.485 211.949 132.394 212.313 132.212C212.693 132.013 212.95 131.707 213.082 131.294C213.231 130.864 213.306 130.293 213.306 129.581C213.306 128.853 213.248 128.266 213.132 127.819C213.033 127.356 212.801 127.017 212.437 126.802C212.09 126.587 211.535 126.479 210.774 126.479H209.385V132.485ZM218.749 144L219.097 123.898H222.893L225.747 137.821L228.725 123.898H232.398L232.771 144H230.041L229.743 130.028L226.889 144H224.68L221.777 129.978L221.504 144H218.749ZM235.739 144V123.898H244.177V126.479H239.412V132.262H243.159V134.818H239.412V141.469H244.227V144H235.739ZM246.354 144V123.898H248.91L253.799 135.364V123.898H256.827V144H254.395L249.481 131.989V144H246.354ZM261.888 144V126.603H258.686V123.898H268.712V126.603H265.561V144H261.888ZM62.6805 181.273C61.208 181.273 60.0499 180.983 59.2061 180.404C58.3789 179.825 57.7998 179.039 57.4689 178.047C57.138 177.038 56.9726 175.879 56.9726 174.572V167.4C56.9726 166.027 57.138 164.836 57.4689 163.827C57.7998 162.817 58.3789 162.04 59.2061 161.494C60.0499 160.948 61.208 160.675 62.6805 160.675C64.0702 160.675 65.1539 160.915 65.9315 161.395C66.7256 161.858 67.2882 162.528 67.6191 163.405C67.95 164.282 68.1154 165.299 68.1154 166.457V168.145H64.5914V166.408C64.5914 165.845 64.5583 165.332 64.4921 164.869C64.4425 164.406 64.2853 164.042 64.0206 163.777C63.7724 163.496 63.334 163.355 62.7053 163.355C62.0766 163.355 61.6134 163.504 61.3156 163.802C61.0343 164.083 60.8523 164.472 60.7696 164.968C60.6869 165.448 60.6455 165.994 60.6455 166.606V175.342C60.6455 176.07 60.7034 176.674 60.8192 177.153C60.935 177.617 61.1418 177.972 61.4396 178.221C61.754 178.452 62.1759 178.568 62.7053 178.568C63.3175 178.568 63.7476 178.427 63.9958 178.146C64.2605 177.848 64.4259 177.459 64.4921 176.98C64.5583 176.5 64.5914 175.962 64.5914 175.367V173.555H68.1154V175.168C68.1154 176.359 67.9582 177.418 67.6439 178.345C67.3295 179.255 66.7753 179.974 65.9811 180.504C65.2035 181.017 64.1033 181.273 62.6805 181.273ZM76.1322 181.273C74.7094 181.273 73.5761 181.008 72.7323 180.479C71.8885 179.949 71.2847 179.188 70.9207 178.196C70.5567 177.203 70.3747 176.028 70.3747 174.672V167.152C70.3747 165.795 70.5567 164.637 70.9207 163.678C71.2847 162.702 71.8885 161.957 72.7323 161.444C73.5761 160.931 74.7094 160.675 76.1322 160.675C77.5882 160.675 78.7298 160.931 79.557 161.444C80.4008 161.957 81.0046 162.702 81.3686 163.678C81.7491 164.637 81.9394 165.795 81.9394 167.152V174.696C81.9394 176.037 81.7491 177.203 81.3686 178.196C81.0046 179.172 80.4008 179.933 79.557 180.479C78.7298 181.008 77.5882 181.273 76.1322 181.273ZM76.1322 178.568C76.7444 178.568 77.1911 178.436 77.4724 178.171C77.7702 177.906 77.9687 177.542 78.068 177.079C78.1672 176.616 78.2169 176.111 78.2169 175.565V166.308C78.2169 165.746 78.1672 165.241 78.068 164.795C77.9687 164.348 77.7702 164 77.4724 163.752C77.1911 163.488 76.7444 163.355 76.1322 163.355C75.5532 163.355 75.1147 163.488 74.8169 163.752C74.5191 164 74.3206 164.348 74.2213 164.795C74.1221 165.241 74.0724 165.746 74.0724 166.308V175.565C74.0724 176.111 74.1138 176.616 74.1965 177.079C74.2958 177.542 74.4943 177.906 74.7921 178.171C75.0899 178.436 75.5366 178.568 76.1322 178.568ZM84.6066 181L84.9541 160.898H88.7511L91.605 174.821L94.5831 160.898H98.256L98.6282 181H95.8984L95.6006 167.028L92.7466 181H90.5379L87.6343 166.978L87.3613 181H84.6066ZM101.597 181V160.898H107.503C108.711 160.898 109.687 161.122 110.432 161.568C111.193 162.015 111.747 162.669 112.094 163.529C112.458 164.373 112.64 165.398 112.64 166.606C112.64 167.913 112.417 168.972 111.97 169.783C111.524 170.577 110.895 171.156 110.084 171.52C109.29 171.884 108.347 172.066 107.255 172.066H105.27V181H101.597ZM105.27 169.485H106.659C107.321 169.485 107.834 169.394 108.198 169.212C108.579 169.013 108.835 168.707 108.967 168.294C109.116 167.864 109.191 167.293 109.191 166.581C109.191 165.853 109.133 165.266 109.017 164.819C108.918 164.356 108.686 164.017 108.322 163.802C107.975 163.587 107.42 163.479 106.659 163.479H105.27V169.485ZM112.6 181L116.62 160.898H120.541L124.562 181H121.162L120.368 176.359H116.868L116.05 181H112.6ZM117.241 174.026H119.971L118.606 165.589L117.241 174.026ZM126.583 181V160.898H129.14L134.028 172.364V160.898H137.056V181H134.624L129.71 168.989V181H126.583ZM140.206 181V160.898H143.829V181H140.206ZM146.941 181V160.898H155.379V163.479H150.614V169.262H154.361V171.818H150.614V178.469H155.428V181H146.941ZM162.619 181.273C161.411 181.273 160.402 181.041 159.591 180.578C158.78 180.098 158.168 179.403 157.755 178.493C157.341 177.584 157.109 176.467 157.06 175.143L160.212 174.523C160.245 175.3 160.336 175.987 160.484 176.583C160.65 177.178 160.89 177.641 161.204 177.972C161.535 178.287 161.965 178.444 162.495 178.444C163.09 178.444 163.512 178.27 163.76 177.923C164.008 177.559 164.133 177.104 164.133 176.558C164.133 175.681 163.934 174.961 163.537 174.399C163.14 173.836 162.61 173.274 161.949 172.711L159.417 170.478C158.706 169.865 158.135 169.187 157.705 168.443C157.291 167.682 157.085 166.747 157.085 165.638C157.085 164.05 157.548 162.826 158.474 161.965C159.401 161.105 160.666 160.675 162.271 160.675C163.214 160.675 164 160.824 164.629 161.122C165.258 161.403 165.754 161.8 166.118 162.313C166.498 162.826 166.78 163.413 166.962 164.075C167.144 164.72 167.26 165.407 167.309 166.135L164.182 166.681C164.149 166.052 164.075 165.489 163.959 164.993C163.86 164.497 163.669 164.108 163.388 163.827C163.123 163.545 162.726 163.405 162.197 163.405C161.651 163.405 161.229 163.587 160.931 163.951C160.65 164.298 160.509 164.737 160.509 165.266C160.509 165.944 160.65 166.507 160.931 166.954C161.212 167.384 161.618 167.83 162.147 168.294L164.654 170.502C165.481 171.197 166.184 172.016 166.763 172.959C167.359 173.886 167.657 175.011 167.657 176.334C167.657 177.294 167.442 178.146 167.011 178.891C166.598 179.635 166.01 180.222 165.249 180.653C164.505 181.066 163.628 181.273 162.619 181.273ZM175.953 181V160.898H179.576V181H175.953ZM182.688 181V160.898H185.244L190.133 172.364V160.898H193.161V181H190.729L185.815 168.989V181H182.688ZM202.196 181L202.544 160.898H206.341L209.195 174.821L212.173 160.898H215.846L216.218 181H213.488L213.19 167.028L210.336 181H208.128L205.224 166.978L204.951 181H202.196ZM218.169 181L222.189 160.898H226.11L230.131 181H226.731L225.937 176.359H222.437L221.619 181H218.169ZM222.81 174.026H225.54L224.175 165.589L222.81 174.026ZM232.152 181V160.898H235.825V178.469H240.689V181H232.152ZM241.58 181L245.601 160.898H249.522L253.542 181H250.142L249.348 176.359H245.849L245.03 181H241.58ZM246.221 174.026H248.951L247.586 165.589L246.221 174.026ZM257.568 181V173.332L253.498 160.898H256.923L259.405 168.865L261.737 160.898H265.088L261.067 173.332V181H257.568ZM271.823 181.273C270.615 181.273 269.606 181.041 268.795 180.578C267.985 180.098 267.373 179.403 266.959 178.493C266.545 177.584 266.314 176.467 266.264 175.143L269.416 174.523C269.449 175.3 269.54 175.987 269.689 176.583C269.854 177.178 270.094 177.641 270.408 177.972C270.739 178.287 271.17 178.444 271.699 178.444C272.295 178.444 272.716 178.27 272.965 177.923C273.213 177.559 273.337 177.104 273.337 176.558C273.337 175.681 273.138 174.961 272.741 174.399C272.344 173.836 271.815 173.274 271.153 172.711L268.622 170.478C267.91 169.865 267.339 169.187 266.909 168.443C266.496 167.682 266.289 166.747 266.289 165.638C266.289 164.05 266.752 162.826 267.679 161.965C268.605 161.105 269.871 160.675 271.476 160.675C272.419 160.675 273.205 160.824 273.833 161.122C274.462 161.403 274.958 161.8 275.322 162.313C275.703 162.826 275.984 163.413 276.166 164.075C276.348 164.72 276.464 165.407 276.513 166.135L273.387 166.681C273.353 166.052 273.279 165.489 273.163 164.993C273.064 164.497 272.874 164.108 272.592 163.827C272.328 163.545 271.931 163.405 271.401 163.405C270.855 163.405 270.433 163.587 270.135 163.951C269.854 164.298 269.714 164.737 269.714 165.266C269.714 165.944 269.854 166.507 270.135 166.954C270.417 167.384 270.822 167.83 271.352 168.294L273.858 170.502C274.685 171.197 275.388 172.016 275.967 172.959C276.563 173.886 276.861 175.011 276.861 176.334C276.861 177.294 276.646 178.146 276.216 178.891C275.802 179.635 275.215 180.222 274.454 180.653C273.709 181.066 272.832 181.273 271.823 181.273ZM279.123 181V160.898H282.746V181H279.123ZM284.84 181L288.861 160.898H292.782L296.802 181H293.402L292.608 176.359H289.109L288.29 181H284.84ZM289.481 174.026H292.211L290.846 165.589L289.481 174.026Z" fill="black"/>
<rect x="1.16406" y="216.331" width="351.935" height="44.37" fill="#930043"/>
<circle cx="177.635" cy="235.488" r="37.3111" fill="white"/>
<path d="M69.8351 223.994L74.2284 232.894L84.053 234.33L76.944 241.254L78.6218 251.036L69.8351 246.416L61.0484 251.036L62.7261 241.254L55.6172 234.33L65.4418 232.894L69.8351 223.994Z" fill="white"/>
<path d="M110.939 223.994L115.332 232.894L125.157 234.33L118.048 241.254L119.725 251.036L110.939 246.416L102.152 251.036L103.83 241.254L96.7207 234.33L106.545 232.894L110.939 223.994Z" fill="white"/>
<path d="M178.842 214.307L186.382 229.582L203.242 232.046L191.042 243.929L193.921 260.717L178.842 252.787L163.762 260.717L166.642 243.929L154.441 232.046L171.302 229.582L178.842 214.307Z" fill="#930043"/>
<path d="M240.614 223.994L245.008 232.894L254.832 234.33L247.723 241.254L249.401 251.036L240.614 246.416L231.828 251.036L233.505 241.254L226.396 234.33L236.221 232.894L240.614 223.994Z" fill="white"/>
<path d="M281.718 223.994L286.111 232.894L295.936 234.33L288.827 241.254L290.505 251.036L281.718 246.416L272.931 251.036L274.609 241.254L267.5 234.33L277.325 232.894L281.718 223.994Z" fill="white"/>
<g clip-path="url(#clip0_929_2237)">
<path d="M185.577 290.466V295.219H181.087V284.391H179.503V295.219H174.749V284.391H173.164V301.294H168.674V290.466H167.09V307.632H168.674V302.879H179.503V313.707H181.087V296.804H185.577V307.632H187.162V290.466H185.577ZM179.503 301.294H174.749V296.804H179.503V301.294Z" fill="#930043"/>
<path d="M174.747 303.673H173.162V313.709H174.747V303.673Z" fill="#930043"/>
</g>
<path d="M134.246 321.788V331.281H132.126V327.721H125.764V331.281H123.645V321.788H125.764V325.348H132.126V321.788H134.246Z" fill="black"/>
<path d="M136.057 331.282V321.774H138.698V331.282H136.057Z" fill="black"/>
<path d="M150.842 324.159H146.602V331.28H144.482V324.159H140.24V321.787H150.842V324.159Z" fill="black"/>
<path d="M162.885 321.787V324.159H154.403V324.162H152.283V321.787H162.885ZM162.885 325.548V327.483H154.403V327.488H152.283V325.548H162.885ZM162.885 328.907V331.28H152.283V328.907H162.885Z" fill="black"/>
<path d="M175.307 324.861V325.94H173.187V325.072C173.187 324.569 172.821 324.159 172.371 324.159H164.705V321.787H172.56C172.776 321.787 172.985 321.815 173.187 321.868C174.2 322.133 174.998 323.025 175.237 324.162C175.282 324.386 175.307 324.62 175.307 324.861ZM167.641 328.907H175.307V331.28H167.452C167.355 331.28 167.259 331.275 167.166 331.262C167.05 331.249 166.937 331.226 166.825 331.198C165.812 330.934 165.014 330.041 164.776 328.905C164.758 328.821 164.744 328.737 164.733 328.653C164.714 328.505 164.703 328.355 164.703 328.203V325.446H166.823V327.992C166.825 328.498 167.191 328.907 167.641 328.907Z" fill="black"/>
<path d="M187.613 321.787V331.28H185.493V327.72H179.132V331.28H177.012V321.787H179.132V325.347H185.493V321.787H187.613Z" fill="black"/>
<path d="M205.633 321.787V331.28H203.513V327.72H197.151V331.28H195.031V321.787H197.151V325.347H203.513V321.787H205.633Z" fill="#930043"/>
<path d="M218.065 321.787V331.28H216.002V330.263L215.177 331.28H209.894C208.645 331.135 207.643 330.051 207.461 328.671V321.787H209.581V327.994C209.581 328.498 209.947 328.907 210.396 328.907H215.938L215.943 321.787H218.065Z" fill="#930043"/>
<path d="M230.566 327.76C230.594 327.93 230.607 328.106 230.607 328.284C230.607 328.492 230.589 328.696 230.553 328.892C230.319 330.166 229.36 331.145 228.179 331.264C228.099 331.272 228.017 331.277 227.933 331.277C227.849 331.277 227.77 331.272 227.688 331.264H222.098V331.277H219.979V328.894H219.981V327.763H219.979V325.41H219.981V324.124H219.979V321.774H227.933C229.219 321.774 230.296 322.791 230.551 324.147C230.589 324.347 230.607 324.553 230.607 324.767C230.607 324.981 230.587 325.187 230.551 325.387C230.473 325.807 230.314 326.194 230.098 326.527C230.33 326.885 230.494 327.305 230.566 327.76ZM228.488 324.767C228.488 324.426 228.24 324.147 227.933 324.147H226.363V324.124H222.101V325.41H226.363V325.387H227.933C228.033 325.387 228.124 325.359 228.206 325.309C228.374 325.202 228.488 324.998 228.488 324.767ZM228.488 328.286C228.488 328.065 228.383 327.872 228.228 327.763H222.103V328.894H228.047C228.297 328.836 228.488 328.584 228.488 328.286Z" fill="#930043"/>
<defs>
<clipPath id="clip0_929_2237">
<rect width="20.072" height="29.3157" fill="white" transform="translate(167.09 284.391)"/>
</clipPath>
</defs>
</svg>
