<svg width="355" height="401" viewBox="0 0 355 401" fill="none" xmlns="http://www.w3.org/2000/svg">
<path d="M16.2048 82.2629L162.2 5.50692C171.471 0.620741 182.901 0.620741 192.172 5.50692L338.168 82.2629C347.439 87.1491 353.154 96.1539 353.154 105.908V294.915C353.154 304.668 347.439 313.673 338.168 318.559L192.172 395.315C182.901 400.201 171.471 400.201 162.2 395.315L16.2048 318.559C6.93358 313.673 1.21875 304.668 1.21875 294.915V105.908C1.21875 96.1352 6.93358 87.1304 16.2048 82.2629Z" fill="white" stroke="#930043" stroke-width="2.23497" stroke-miterlimit="10"/>
<path d="M329.706 286.391C329.706 293.912 325.261 300.928 318.08 304.688L187.209 373.388C180.028 377.149 171.118 377.149 163.978 373.388L33.0657 304.688C25.8843 300.928 21.4397 293.912 21.4397 286.391V269.733H14.1348V286.391C14.1348 296.269 19.9787 305.474 29.403 310.413L160.315 379.132C165.006 381.602 170.295 382.837 175.583 382.837C180.851 382.837 186.119 381.602 190.831 379.132L321.743 310.413C331.167 305.474 337.011 296.269 337.011 286.391V269.733H329.727V286.391H329.706ZM321.743 90.3984L190.831 21.6981C181.427 16.7402 169.719 16.7589 160.315 21.6981L29.4236 90.3984C19.9993 95.3564 14.1553 104.561 14.1553 114.44V208.079H21.4602V114.44C21.4602 106.919 25.9049 99.9027 33.0863 96.1422L163.936 27.4419C171.118 23.6813 180.028 23.6813 187.168 27.4419L318.08 96.1422C325.261 99.9027 329.706 106.919 329.706 114.44V208.079H336.99V114.44C337.011 104.561 331.167 95.3564 321.743 90.3984Z" fill="#930043"/>
<path d="M103.326 96.1575V78.0851H106.896L109.457 91.9218L112.019 78.0851H115.589V96.1575H113.007V81.8972L110.426 96.1575H108.489L105.907 81.8972V96.1575H103.326ZM124.482 96.339C123.575 96.339 122.795 96.2012 122.143 95.9255C121.497 95.6499 120.983 95.2465 120.6 94.7153C120.216 94.1842 119.937 93.5623 119.763 92.8496C119.588 92.1302 119.5 91.2965 119.5 90.3485V83.7932C119.5 82.8452 119.588 82.0183 119.763 81.3123C119.937 80.6064 120.216 79.9945 120.6 79.4768C120.983 78.9524 121.497 78.5591 122.143 78.2969C122.795 78.0347 123.575 77.9036 124.482 77.9036C126.244 77.9036 127.515 78.4078 128.295 79.4163C129.074 80.4248 129.464 81.8838 129.464 83.7932V90.3485C129.464 91.283 129.374 92.11 129.192 92.8294C129.017 93.5421 128.738 94.1674 128.355 94.7052C127.972 95.2364 127.454 95.6431 126.802 95.9255C126.157 96.2012 125.383 96.339 124.482 96.339ZM122.597 93.4043C122.946 93.9489 123.575 94.2211 124.482 94.2211C125.39 94.2211 126.015 93.9489 126.358 93.4043C126.708 92.8597 126.883 92.0562 126.883 90.9939V83.1478C126.883 82.0989 126.711 81.3157 126.368 80.798C126.025 80.2803 125.397 80.0214 124.482 80.0214C123.568 80.0214 122.939 80.2803 122.597 80.798C122.254 81.3157 122.082 82.0989 122.082 83.1478V90.9939C122.082 92.0562 122.254 92.8597 122.597 93.4043ZM138.086 96.339C136.458 96.339 135.215 95.8616 134.354 94.9069C133.5 93.9522 133.023 92.6479 132.922 90.9939L135.504 90.3485C135.632 92.9303 136.492 94.2211 138.086 94.2211C139.376 94.2211 140.022 93.5757 140.022 92.2848C140.022 91.9016 139.968 91.5486 139.86 91.2259C139.76 90.8965 139.602 90.5973 139.386 90.3283C139.171 90.0527 138.976 89.8342 138.802 89.6728C138.627 89.5047 138.388 89.2997 138.086 89.0576L134.858 86.4758C134.267 86.0119 133.793 85.4236 133.436 84.711C133.087 83.9916 132.912 83.1747 132.912 82.2603C132.912 80.9291 133.325 79.8702 134.152 79.0835C134.979 78.2969 136.075 77.9036 137.44 77.9036C138.906 77.9036 140.069 78.2633 140.93 78.9827C141.797 79.6954 142.331 80.7072 142.533 82.0183C142.553 82.1595 142.577 82.3544 142.604 82.6032L140.022 83.2486C140.015 83.1343 139.998 82.9629 139.971 82.7343C139.857 81.9141 139.598 81.2585 139.195 80.7677C138.798 80.2702 138.213 80.0214 137.44 80.0214C136.822 80.0214 136.344 80.1962 136.008 80.5459C135.672 80.8887 135.504 81.3695 135.504 81.988C135.504 83.0032 135.934 83.8537 136.795 84.5395L140.022 87.1213C141.743 88.513 142.604 90.1771 142.604 92.1134C142.604 93.4379 142.193 94.4733 141.373 95.2196C140.56 95.9659 139.464 96.339 138.086 96.339ZM148.068 96.1575V80.3845H144.841V78.0851H153.877V80.3845H150.65V96.1575H148.068ZM165.24 85.8304H165.885C166.961 85.8304 167.768 85.6052 168.306 85.1547C168.843 84.6975 169.112 83.9546 169.112 82.9259C169.112 81.8972 168.843 81.1577 168.306 80.7072C167.768 80.25 166.961 80.0214 165.885 80.0214H165.24V85.8304ZM162.658 96.1575V78.0851H165.885C167.808 78.0851 169.257 78.4583 170.232 79.2045C171.207 79.9508 171.694 81.1913 171.694 82.9259C171.694 84.0017 171.502 84.9026 171.119 85.6287C170.736 86.3548 170.175 86.8524 169.435 87.1213L172.34 96.1575H169.778L167.176 87.7667H165.24V96.1575H162.658ZM175.484 96.1575V78.0851H182.584V80.0214H178.066V85.8304H181.293V87.7667H178.066V94.2211H182.584V96.1575H175.484ZM188.533 96.1575L184.66 78.0851H187.242L189.148 87.7667L189.814 92.2848L190.499 87.7667L192.405 78.0851H194.987L191.115 96.1575H188.533ZM198.173 96.1575V78.0851H200.754V96.1575H198.173ZM205.17 96.1575V78.0851H212.27V80.0214H207.752V85.8304H210.979V87.7667H207.752V94.2211H212.27V96.1575H205.17ZM217.563 96.1575L214.336 78.0851H216.917L218.208 86.4758L218.864 91.6394L219.499 86.4758L220.79 78.0851H223.372L224.663 86.4758L225.298 91.6394L225.954 86.4758L227.244 78.0851H229.826L226.599 96.1575H224.017L222.726 87.7667L222.081 82.6032L221.435 87.7667L220.145 96.1575H217.563ZM232.88 96.1575V78.0851H239.98V80.0214H235.462V85.8304H238.689V87.7667H235.462V94.2211H239.98V96.1575H232.88ZM243.226 96.1575V78.0851H247.23C249.119 78.0851 250.45 78.4717 251.223 79.2449C252.003 80.0181 252.393 81.3527 252.393 83.2486V90.3485C252.393 92.3319 251.997 93.7976 251.203 94.7456C250.417 95.6868 249.085 96.1575 247.209 96.1575H243.226ZM245.808 94.2211H247.23C247.653 94.2211 248.016 94.1842 248.319 94.1102C248.621 94.0295 248.867 93.8883 249.055 93.6866C249.243 93.4782 249.391 93.2832 249.499 93.1017C249.606 92.9135 249.68 92.6244 249.721 92.2344C249.768 91.8444 249.795 91.5251 249.801 91.2763C249.808 91.0208 249.811 90.6275 249.811 90.0964C249.811 89.9216 249.811 89.7905 249.811 89.7031V83.8941C249.811 83.5646 249.808 83.3024 249.801 83.1075C249.801 82.9125 249.791 82.6839 249.771 82.4217C249.758 82.1527 249.734 81.9409 249.7 81.7863C249.667 81.6317 249.62 81.4602 249.559 81.272C249.499 81.077 249.421 80.9257 249.327 80.8182C249.24 80.7106 249.129 80.5996 248.995 80.4853C248.867 80.3643 248.716 80.2769 248.541 80.2231C248.373 80.1626 248.174 80.1156 247.946 80.0819C247.717 80.0416 247.462 80.0214 247.179 80.0214H245.808V94.2211Z" fill="#930043"/>
<path d="M88.1683 144L85.3143 123.898H88.3916L90.0544 136.927L92.139 123.948H94.6455L96.7798 136.927L98.4177 123.898H101.445L98.641 144H95.663L93.4295 130.524L91.2208 144H88.1683ZM103.726 144V123.898H112.164V126.479H107.399V132.262H111.147V134.818H107.399V141.469H112.214V144H103.726ZM114.341 144V123.898H119.28C120.173 123.898 120.976 123.981 121.687 124.146C122.415 124.312 123.036 124.593 123.549 124.99C124.078 125.371 124.483 125.892 124.765 126.554C125.046 127.215 125.186 128.051 125.186 129.06C125.186 129.871 125.071 130.566 124.839 131.145C124.624 131.724 124.301 132.187 123.871 132.535C123.441 132.865 122.903 133.089 122.258 133.205C123.052 133.337 123.706 133.618 124.219 134.048C124.748 134.462 125.137 135.008 125.385 135.686C125.65 136.365 125.782 137.184 125.782 138.143C125.782 139.103 125.658 139.955 125.41 140.699C125.178 141.427 124.822 142.039 124.343 142.536C123.879 143.016 123.292 143.38 122.581 143.628C121.886 143.876 121.067 144 120.124 144H114.341ZM118.014 141.419H119.404C120.513 141.419 121.265 141.154 121.662 140.625C122.06 140.079 122.258 139.243 122.258 138.118C122.258 137.308 122.159 136.654 121.96 136.158C121.778 135.645 121.464 135.264 121.017 135.016C120.587 134.768 120.008 134.644 119.28 134.644H118.014V141.419ZM118.014 132.113H119.255C119.983 132.113 120.546 132.005 120.943 131.79C121.34 131.575 121.613 131.244 121.762 130.797C121.927 130.351 122.01 129.788 122.01 129.11C122.01 128.398 121.886 127.852 121.638 127.472C121.406 127.075 121.05 126.81 120.571 126.678C120.091 126.529 119.479 126.454 118.734 126.454H118.014V132.113ZM134.19 144V123.898H138.93C140.568 123.898 141.842 124.122 142.752 124.568C143.679 125.015 144.332 125.702 144.713 126.628C145.11 127.555 145.308 128.729 145.308 130.152V137.498C145.308 138.954 145.11 140.17 144.713 141.146C144.332 142.106 143.687 142.825 142.777 143.305C141.883 143.768 140.651 144 139.079 144H134.19ZM137.863 141.444H138.98C139.824 141.444 140.427 141.295 140.791 140.997C141.155 140.699 141.379 140.269 141.462 139.707C141.544 139.128 141.586 138.424 141.586 137.597V129.904C141.586 129.093 141.528 128.44 141.412 127.943C141.296 127.447 141.056 127.083 140.692 126.851C140.328 126.62 139.741 126.504 138.93 126.504H137.863V141.444ZM148.004 144V123.898H156.442V126.479H151.677V132.262H155.425V134.818H151.677V141.469H156.492V144H148.004ZM161.697 144L157.651 123.898H160.903L163.558 138.118L166.04 123.898H169.365L165.32 144H161.697ZM171.416 144V123.898H179.853V126.479H175.089V132.262H178.836V134.818H175.089V141.469H179.903V144H171.416ZM182.031 144V123.898H185.704V141.469H190.568V144H182.031ZM197.693 144.273C196.271 144.273 195.137 144.008 194.294 143.479C193.45 142.949 192.846 142.188 192.482 141.196C192.118 140.203 191.936 139.028 191.936 137.672V130.152C191.936 128.795 192.118 127.637 192.482 126.678C192.846 125.702 193.45 124.957 194.294 124.444C195.137 123.931 196.271 123.675 197.693 123.675C199.149 123.675 200.291 123.931 201.118 124.444C201.962 124.957 202.566 125.702 202.93 126.678C203.31 127.637 203.501 128.795 203.501 130.152V137.696C203.501 139.037 203.31 140.203 202.93 141.196C202.566 142.172 201.962 142.933 201.118 143.479C200.291 144.008 199.149 144.273 197.693 144.273ZM197.693 141.568C198.306 141.568 198.752 141.436 199.034 141.171C199.331 140.906 199.53 140.542 199.629 140.079C199.728 139.616 199.778 139.111 199.778 138.565V129.308C199.778 128.746 199.728 128.241 199.629 127.795C199.53 127.348 199.331 127 199.034 126.752C198.752 126.488 198.306 126.355 197.693 126.355C197.114 126.355 196.676 126.488 196.378 126.752C196.08 127 195.882 127.348 195.783 127.795C195.683 128.241 195.634 128.746 195.634 129.308V138.565C195.634 139.111 195.675 139.616 195.758 140.079C195.857 140.542 196.056 140.906 196.353 141.171C196.651 141.436 197.098 141.568 197.693 141.568ZM206.218 144V123.898H212.124C213.332 123.898 214.308 124.122 215.052 124.568C215.813 125.015 216.368 125.669 216.715 126.529C217.079 127.373 217.261 128.398 217.261 129.606C217.261 130.913 217.038 131.972 216.591 132.783C216.144 133.577 215.516 134.156 214.705 134.52C213.911 134.884 212.968 135.066 211.876 135.066H209.89V144H206.218ZM209.89 132.485H211.28C211.942 132.485 212.455 132.394 212.819 132.212C213.199 132.013 213.456 131.707 213.588 131.294C213.737 130.864 213.811 130.293 213.811 129.581C213.811 128.853 213.754 128.266 213.638 127.819C213.539 127.356 213.307 127.017 212.943 126.802C212.595 126.587 212.041 126.479 211.28 126.479H209.89V132.485ZM219.255 144L219.602 123.898H223.399L226.253 137.821L229.231 123.898H232.904L233.277 144H230.547L230.249 130.028L227.395 144H225.186L222.283 129.978L222.01 144H219.255ZM236.245 144V123.898H244.683V126.479H239.918V132.262H243.665V134.818H239.918V141.469H244.732V144H236.245ZM246.86 144V123.898H249.416L254.305 135.364V123.898H257.333V144H254.901L249.987 131.989V144H246.86ZM262.394 144V126.603H259.192V123.898H269.218V126.603H266.066V144H262.394ZM44.8523 181.273C43.3799 181.273 42.2217 180.983 41.378 180.404C40.5507 179.825 39.9717 179.039 39.6408 178.047C39.3099 177.038 39.1444 175.879 39.1444 174.572V167.4C39.1444 166.027 39.3099 164.836 39.6408 163.827C39.9717 162.817 40.5507 162.04 41.378 161.494C42.2217 160.948 43.3799 160.675 44.8523 160.675C46.2421 160.675 47.3258 160.915 48.1034 161.395C48.8975 161.858 49.46 162.528 49.7909 163.405C50.1218 164.282 50.2872 165.299 50.2872 166.457V168.145H46.7632V166.408C46.7632 165.845 46.7302 165.332 46.664 164.869C46.6143 164.406 46.4572 164.042 46.1925 163.777C45.9443 163.496 45.5058 163.355 44.8772 163.355C44.2485 163.355 43.7852 163.504 43.4874 163.802C43.2061 164.083 43.0242 164.472 42.9414 164.968C42.8587 165.448 42.8173 165.994 42.8173 166.606V175.342C42.8173 176.07 42.8753 176.674 42.9911 177.153C43.1069 177.617 43.3137 177.972 43.6115 178.221C43.9258 178.452 44.3477 178.568 44.8772 178.568C45.4893 178.568 45.9195 178.427 46.1676 178.146C46.4323 177.848 46.5978 177.459 46.664 176.98C46.7302 176.5 46.7632 175.962 46.7632 175.367V173.555H50.2872V175.168C50.2872 176.359 50.1301 177.418 49.8157 178.345C49.5014 179.255 48.9471 179.974 48.153 180.504C47.3754 181.017 46.2752 181.273 44.8523 181.273ZM58.3041 181.273C56.8813 181.273 55.7479 181.008 54.9042 180.479C54.0604 179.949 53.4565 179.188 53.0925 178.196C52.7286 177.203 52.5466 176.028 52.5466 174.672V167.152C52.5466 165.795 52.7286 164.637 53.0925 163.678C53.4565 162.702 54.0604 161.957 54.9042 161.444C55.7479 160.931 56.8813 160.675 58.3041 160.675C59.76 160.675 60.9016 160.931 61.7288 161.444C62.5726 161.957 63.1765 162.702 63.5405 163.678C63.921 164.637 64.1113 165.795 64.1113 167.152V174.696C64.1113 176.037 63.921 177.203 63.5405 178.196C63.1765 179.172 62.5726 179.933 61.7288 180.479C60.9016 181.008 59.76 181.273 58.3041 181.273ZM58.3041 178.568C58.9162 178.568 59.363 178.436 59.6442 178.171C59.942 177.906 60.1405 177.542 60.2398 177.079C60.3391 176.616 60.3887 176.111 60.3887 175.565V166.308C60.3887 165.746 60.3391 165.241 60.2398 164.795C60.1405 164.348 59.942 164 59.6442 163.752C59.363 163.488 58.9162 163.355 58.3041 163.355C57.725 163.355 57.2866 163.488 56.9888 163.752C56.691 164 56.4925 164.348 56.3932 164.795C56.2939 165.241 56.2443 165.746 56.2443 166.308V175.565C56.2443 176.111 56.2856 176.616 56.3684 177.079C56.4676 177.542 56.6662 177.906 56.964 178.171C57.2618 178.436 57.7085 178.568 58.3041 178.568ZM66.7785 181L67.1259 160.898H70.9229L73.7769 174.821L76.7549 160.898H80.4278L80.8001 181H78.0702L77.7724 167.028L74.9185 181H72.7098L69.8062 166.978L69.5332 181H66.7785ZM83.7686 181V160.898H89.675C90.8828 160.898 91.8589 161.122 92.6035 161.568C93.3645 162.015 93.9187 162.669 94.2662 163.529C94.6302 164.373 94.8122 165.398 94.8122 166.606C94.8122 167.913 94.5888 168.972 94.1421 169.783C93.6954 170.577 93.0667 171.156 92.256 171.52C91.4619 171.884 90.5188 172.066 89.4269 172.066H87.4415V181H83.7686ZM87.4415 169.485H88.8313C89.4931 169.485 90.0059 169.394 90.3699 169.212C90.7505 169.013 91.0069 168.707 91.1392 168.294C91.2882 167.864 91.3626 167.293 91.3626 166.581C91.3626 165.853 91.3047 165.266 91.1889 164.819C91.0896 164.356 90.858 164.017 90.494 163.802C90.1466 163.587 89.5923 163.479 88.8313 163.479H87.4415V169.485ZM94.7718 181L98.7922 160.898H102.713L106.734 181H103.334L102.54 176.359H99.0403L98.2214 181H94.7718ZM99.4126 174.026H102.142L100.778 165.589L99.4126 174.026ZM108.755 181V160.898H111.311L116.2 172.364V160.898H119.228V181H116.796L111.882 168.989V181H108.755ZM122.378 181V160.898H126.001V181H122.378ZM129.113 181V160.898H137.551V163.479H132.786V169.262H136.533V171.818H132.786V178.469H137.6V181H129.113ZM144.791 181.273C143.583 181.273 142.574 181.041 141.763 180.578C140.952 180.098 140.34 179.403 139.926 178.493C139.513 177.584 139.281 176.467 139.232 175.143L142.383 174.523C142.416 175.3 142.507 175.987 142.656 176.583C142.822 177.178 143.062 177.641 143.376 177.972C143.707 178.287 144.137 178.444 144.667 178.444C145.262 178.444 145.684 178.27 145.932 177.923C146.18 177.559 146.304 177.104 146.304 176.558C146.304 175.681 146.106 174.961 145.709 174.399C145.312 173.836 144.782 173.274 144.121 172.711L141.589 170.478C140.878 169.865 140.307 169.187 139.877 168.443C139.463 167.682 139.256 166.747 139.256 165.638C139.256 164.05 139.72 162.826 140.646 161.965C141.573 161.105 142.838 160.675 144.443 160.675C145.386 160.675 146.172 160.824 146.801 161.122C147.429 161.403 147.926 161.8 148.29 162.313C148.67 162.826 148.952 163.413 149.134 164.075C149.316 164.72 149.431 165.407 149.481 166.135L146.354 166.681C146.321 166.052 146.247 165.489 146.131 164.993C146.031 164.497 145.841 164.108 145.56 163.827C145.295 163.545 144.898 163.405 144.369 163.405C143.823 163.405 143.401 163.587 143.103 163.951C142.822 164.298 142.681 164.737 142.681 165.266C142.681 165.944 142.822 166.507 143.103 166.954C143.384 167.384 143.79 167.83 144.319 168.294L146.826 170.502C147.653 171.197 148.356 172.016 148.935 172.959C149.531 173.886 149.828 175.011 149.828 176.334C149.828 177.294 149.613 178.146 149.183 178.891C148.77 179.635 148.182 180.222 147.421 180.653C146.677 181.066 145.8 181.273 144.791 181.273ZM158.125 181V160.898H161.748V181H158.125ZM164.86 181V160.898H167.416L172.305 172.364V160.898H175.333V181H172.901L167.987 168.989V181H164.86ZM189.481 181.273C188.273 181.273 187.264 181.041 186.453 180.578C185.642 180.098 185.03 179.403 184.616 178.493C184.203 177.584 183.971 176.467 183.922 175.143L187.073 174.523C187.106 175.3 187.197 175.987 187.346 176.583C187.512 177.178 187.752 177.641 188.066 177.972C188.397 178.287 188.827 178.444 189.356 178.444C189.952 178.444 190.374 178.27 190.622 177.923C190.87 177.559 190.994 177.104 190.994 176.558C190.994 175.681 190.796 174.961 190.399 174.399C190.002 173.836 189.472 173.274 188.81 172.711L186.279 170.478C185.568 169.865 184.997 169.187 184.567 168.443C184.153 167.682 183.946 166.747 183.946 165.638C183.946 164.05 184.41 162.826 185.336 161.965C186.263 161.105 187.528 160.675 189.133 160.675C190.076 160.675 190.862 160.824 191.491 161.122C192.119 161.403 192.616 161.8 192.98 162.313C193.36 162.826 193.641 163.413 193.823 164.075C194.005 164.72 194.121 165.407 194.171 166.135L191.044 166.681C191.011 166.052 190.936 165.489 190.821 164.993C190.721 164.497 190.531 164.108 190.25 163.827C189.985 163.545 189.588 163.405 189.059 163.405C188.513 163.405 188.091 163.587 187.793 163.951C187.512 164.298 187.371 164.737 187.371 165.266C187.371 165.944 187.512 166.507 187.793 166.954C188.074 167.384 188.48 167.83 189.009 168.294L191.515 170.502C192.343 171.197 193.046 172.016 193.625 172.959C194.221 173.886 194.518 175.011 194.518 176.334C194.518 177.294 194.303 178.146 193.873 178.891C193.459 179.635 192.872 180.222 192.111 180.653C191.367 181.066 190.49 181.273 189.481 181.273ZM198.79 181L195.936 160.898H199.014L200.676 173.927L202.761 160.948H205.268L207.402 173.927L209.04 160.898H212.067L209.263 181H206.285L204.052 167.524L201.843 181H198.79ZM214.448 181V160.898H218.071V181H214.448ZM223.193 181V163.603H219.992V160.898H230.018V163.603H226.866V181H223.193ZM231.151 181V178.642L236.562 163.43H231.449V160.898H240.259V162.784L234.651 178.469H240.284V181H231.151ZM242.389 181V160.898H250.826V163.479H246.062V169.262H249.809V171.818H246.062V178.469H250.876V181H242.389ZM253.004 181V160.898H257.818C259.175 160.898 260.316 161.064 261.243 161.395C262.186 161.709 262.897 162.255 263.377 163.033C263.874 163.81 264.122 164.869 264.122 166.209C264.122 167.02 264.047 167.748 263.898 168.393C263.75 169.038 263.493 169.592 263.129 170.056C262.782 170.502 262.294 170.85 261.665 171.098L264.469 181H260.796L258.364 171.793H256.677V181H253.004ZM256.677 169.485H257.818C258.53 169.485 259.092 169.386 259.506 169.187C259.936 168.972 260.242 168.641 260.424 168.194C260.606 167.731 260.697 167.144 260.697 166.432C260.697 165.423 260.507 164.67 260.126 164.174C259.762 163.661 259.059 163.405 258.017 163.405H256.677V169.485ZM266.915 181V160.898H270.588V178.469H275.452V181H266.915ZM276.343 181L280.363 160.898H284.284L288.305 181H284.905L284.11 176.359H280.611L279.792 181H276.343ZM280.984 174.026H283.713L282.348 165.589L280.984 174.026ZM290.326 181V160.898H292.882L297.771 172.364V160.898H300.799V181H298.367L293.453 168.989V181H290.326ZM303.849 181V160.898H308.589C310.227 160.898 311.501 161.122 312.411 161.568C313.338 162.015 313.991 162.702 314.372 163.628C314.769 164.555 314.967 165.729 314.967 167.152V174.498C314.967 175.954 314.769 177.17 314.372 178.146C313.991 179.106 313.346 179.825 312.436 180.305C311.543 180.768 310.31 181 308.738 181H303.849ZM307.522 178.444H308.639C309.483 178.444 310.087 178.295 310.451 177.997C310.815 177.699 311.038 177.269 311.121 176.707C311.204 176.128 311.245 175.424 311.245 174.597V166.904C311.245 166.093 311.187 165.44 311.071 164.943C310.955 164.447 310.715 164.083 310.351 163.851C309.987 163.62 309.4 163.504 308.589 163.504H307.522V178.444Z" fill="black"/>
<rect x="1.21875" y="216.331" width="351.935" height="44.37" fill="#930043"/>
<circle cx="177.688" cy="235.488" r="37.3111" fill="white"/>
<path d="M69.8898 223.994L74.2831 232.894L84.1077 234.33L76.9987 241.255L78.6764 251.036L69.8898 246.416L61.1031 251.036L62.7808 241.255L55.6719 234.33L65.4964 232.894L69.8898 223.994Z" fill="white"/>
<path d="M110.993 223.994L115.387 232.894L125.211 234.33L118.102 241.255L119.78 251.036L110.993 246.416L102.207 251.036L103.884 241.255L96.7754 234.33L106.6 232.894L110.993 223.994Z" fill="white"/>
<path d="M178.897 214.308L186.436 229.582L203.297 232.047L191.097 243.93L193.976 260.717L178.897 252.787L163.817 260.717L166.696 243.93L154.496 232.047L171.357 229.582L178.897 214.308Z" fill="#930043"/>
<path d="M240.669 223.994L245.062 232.894L254.887 234.33L247.778 241.255L249.456 251.036L240.669 246.416L231.882 251.036L233.56 241.255L226.451 234.33L236.276 232.894L240.669 223.994Z" fill="white"/>
<path d="M281.773 223.994L286.166 232.894L295.99 234.33L288.882 241.255L290.559 251.036L281.773 246.416L272.986 251.036L274.664 241.255L267.555 234.33L277.379 232.894L281.773 223.994Z" fill="white"/>
<g clip-path="url(#clip0_929_2270)">
<path d="M185.63 290.466V295.22H181.14V284.391H179.556V295.22H174.802V284.391H173.217V301.294H168.727V290.466H167.143V307.633H168.727V302.879H179.556V313.707H181.14V296.804H185.63V307.633H187.215V290.466H185.63ZM179.556 301.294H174.802V296.804H179.556V301.294Z" fill="#930043"/>
<path d="M174.799 303.673H173.215V313.709H174.799V303.673Z" fill="#930043"/>
</g>
<path d="M134.299 321.789V331.281H132.179V327.721H125.817V331.281H123.697V321.789H125.817V325.349H132.179V321.789H134.299Z" fill="black"/>
<path d="M136.109 331.282V321.774H138.75V331.282H136.109Z" fill="black"/>
<path d="M150.895 324.161H146.655V331.281H144.535V324.161H140.293V321.788H150.895V324.161Z" fill="black"/>
<path d="M162.938 321.788V324.161H154.456V324.163H152.336V321.788H162.938ZM162.938 325.549V327.484H154.456V327.489H152.336V325.549H162.938ZM162.938 328.908V331.281H152.336V328.908H162.938Z" fill="black"/>
<path d="M175.358 324.862V325.941H173.238V325.073C173.238 324.57 172.872 324.161 172.422 324.161H164.756V321.788H172.611C172.827 321.788 173.036 321.816 173.238 321.869C174.251 322.134 175.049 323.026 175.287 324.163C175.333 324.387 175.358 324.621 175.358 324.862ZM167.692 328.908H175.358V331.281H167.503C167.405 331.281 167.31 331.276 167.217 331.263C167.101 331.25 166.987 331.227 166.876 331.199C165.863 330.935 165.065 330.042 164.827 328.906C164.808 328.822 164.795 328.738 164.783 328.654C164.765 328.506 164.754 328.356 164.754 328.204V325.447H166.874V327.993C166.876 328.499 167.242 328.908 167.692 328.908Z" fill="black"/>
<path d="M187.666 321.788V331.281H185.546V327.721H179.184V331.281H177.064V321.788H179.184V325.348H185.546V321.788H187.666Z" fill="black"/>
<path d="M205.686 321.788V331.281H203.566V327.721H197.204V331.281H195.084V321.788H197.204V325.348H203.566V321.788H205.686Z" fill="#930043"/>
<path d="M218.118 321.788V331.281H216.054V330.264L215.23 331.281H209.947C208.697 331.136 207.695 330.053 207.514 328.672V321.788H209.634V327.995C209.634 328.499 209.999 328.908 210.449 328.908H215.991L215.995 321.788H218.118Z" fill="#930043"/>
<path d="M230.619 327.761C230.646 327.931 230.66 328.106 230.66 328.284C230.66 328.493 230.642 328.696 230.606 328.892C230.372 330.166 229.413 331.145 228.231 331.265C228.152 331.272 228.07 331.277 227.986 331.277C227.902 331.277 227.822 331.272 227.74 331.265H222.151V331.277H220.031V328.895H220.034V327.763H220.031V325.411H220.034V324.124H220.031V321.774H227.986C229.272 321.774 230.349 322.792 230.603 324.147C230.642 324.348 230.66 324.554 230.66 324.767C230.66 324.981 230.64 325.187 230.603 325.388C230.526 325.808 230.367 326.194 230.151 326.527C230.383 326.886 230.547 327.305 230.619 327.761ZM228.54 324.767C228.54 324.427 228.293 324.147 227.986 324.147H226.416V324.124H222.153V325.411H226.416V325.388H227.986C228.086 325.388 228.177 325.36 228.259 325.309C228.427 325.202 228.54 324.999 228.54 324.767ZM228.54 328.287C228.54 328.066 228.436 327.872 228.281 327.763H222.156V328.895H228.099C228.349 328.836 228.54 328.584 228.54 328.287Z" fill="#930043"/>
<defs>
<clipPath id="clip0_929_2270">
<rect width="20.072" height="29.3157" fill="white" transform="translate(167.143 284.392)"/>
</clipPath>
</defs>
</svg>
