<svg width="356" height="400" viewBox="0 0 356 400" fill="none" xmlns="http://www.w3.org/2000/svg">
<path d="M17.0407 81.782L163.036 5.02596C172.307 0.139784 183.737 0.139784 193.008 5.02596L339.004 81.782C348.275 86.6681 353.99 95.6729 353.99 105.427V294.434C353.99 304.187 348.275 313.192 339.004 318.078L193.008 394.834C183.737 399.72 172.307 399.72 163.036 394.834L17.0407 318.078C7.76952 313.192 2.05469 304.187 2.05469 294.434V105.427C2.05469 95.6542 7.76952 86.6494 17.0407 81.782Z" fill="white" stroke="#930043" stroke-width="2.23497" stroke-miterlimit="10"/>
<path d="M330.542 285.91C330.542 293.431 326.097 300.447 318.916 304.208L188.045 372.908C180.864 376.669 171.954 376.669 164.813 372.908L33.9017 304.208C26.7203 300.447 22.2756 293.431 22.2756 285.91V269.252H14.9707V285.91C14.9707 295.789 20.8146 304.994 30.2389 309.933L161.151 378.652C165.842 381.121 171.131 382.356 176.419 382.356C181.687 382.356 186.954 381.121 191.667 378.652L322.579 309.933C332.003 304.994 337.847 295.789 337.847 285.91V269.252H330.562V285.91H330.542ZM322.579 89.918L191.667 21.2177C182.263 16.2597 170.555 16.2784 161.151 21.2177L30.2595 89.918C20.8352 94.8759 14.9913 104.081 14.9913 113.959V207.598H22.2962V113.959C22.2962 106.438 26.7408 99.4222 33.9223 95.6617L164.772 26.9614C171.954 23.2008 180.864 23.2008 188.004 26.9614L318.916 95.6617C326.097 99.4222 330.542 106.438 330.542 113.959V207.598H337.826V113.959C337.847 104.081 332.003 94.8759 322.579 89.918Z" fill="#930043"/>
<path d="M104.16 121V102.928H107.73L110.291 116.764L112.853 102.928H116.423V121H113.841V106.74L111.26 121H109.323L106.741 106.74V121H104.16ZM125.316 121.182C124.409 121.182 123.629 121.044 122.977 120.768C122.331 120.492 121.817 120.089 121.434 119.558C121.05 119.027 120.771 118.405 120.597 117.692C120.422 116.973 120.334 116.139 120.334 115.191V108.636C120.334 107.688 120.422 106.861 120.597 106.155C120.771 105.449 121.05 104.837 121.434 104.319C121.817 103.795 122.331 103.402 122.977 103.139C123.629 102.877 124.409 102.746 125.316 102.746C127.078 102.746 128.349 103.25 129.129 104.259C129.908 105.267 130.298 106.726 130.298 108.636V115.191C130.298 116.126 130.208 116.953 130.026 117.672C129.851 118.385 129.572 119.01 129.189 119.548C128.806 120.079 128.288 120.486 127.636 120.768C126.991 121.044 126.217 121.182 125.316 121.182ZM123.431 118.247C123.78 118.791 124.409 119.064 125.316 119.064C126.224 119.064 126.849 118.791 127.192 118.247C127.542 117.702 127.717 116.899 127.717 115.836V107.99C127.717 106.941 127.545 106.158 127.202 105.641C126.859 105.123 126.231 104.864 125.316 104.864C124.402 104.864 123.773 105.123 123.431 105.641C123.088 106.158 122.916 106.941 122.916 107.99V115.836C122.916 116.899 123.088 117.702 123.431 118.247ZM138.92 121.182C137.292 121.182 136.049 120.704 135.188 119.749C134.334 118.795 133.857 117.49 133.756 115.836L136.338 115.191C136.465 117.773 137.326 119.064 138.92 119.064C140.21 119.064 140.856 118.418 140.856 117.127C140.856 116.744 140.802 116.391 140.694 116.068C140.594 115.739 140.436 115.44 140.22 115.171C140.005 114.895 139.81 114.677 139.636 114.515C139.461 114.347 139.222 114.142 138.92 113.9L135.692 111.318C135.101 110.854 134.627 110.266 134.27 109.553C133.921 108.834 133.746 108.017 133.746 107.103C133.746 105.772 134.159 104.713 134.986 103.926C135.813 103.139 136.909 102.746 138.274 102.746C139.74 102.746 140.903 103.106 141.763 103.825C142.631 104.538 143.165 105.55 143.367 106.861C143.387 107.002 143.411 107.197 143.438 107.446L140.856 108.091C140.849 107.977 140.832 107.805 140.805 107.577C140.691 106.757 140.432 106.101 140.029 105.61C139.632 105.113 139.047 104.864 138.274 104.864C137.656 104.864 137.178 105.039 136.842 105.388C136.506 105.731 136.338 106.212 136.338 106.831C136.338 107.846 136.768 108.696 137.629 109.382L140.856 111.964C142.577 113.356 143.438 115.02 143.438 116.956C143.438 118.28 143.027 119.316 142.207 120.062C141.394 120.808 140.298 121.182 138.92 121.182ZM148.902 121V105.227H145.675V102.928H154.711V105.227H151.484V121H148.902ZM166.074 110.673H166.719C167.795 110.673 168.602 110.448 169.139 109.997C169.677 109.54 169.946 108.797 169.946 107.768C169.946 106.74 169.677 106 169.139 105.55C168.602 105.093 167.795 104.864 166.719 104.864H166.074V110.673ZM163.492 121V102.928H166.719C168.642 102.928 170.091 103.301 171.066 104.047C172.041 104.793 172.528 106.034 172.528 107.768C172.528 108.844 172.336 109.745 171.953 110.471C171.57 111.197 171.009 111.695 170.269 111.964L173.173 121H170.612L168.01 112.609H166.074V121H163.492ZM176.318 121V102.928H183.418V104.864H178.9V110.673H182.127V112.609H178.9V119.064H183.418V121H176.318ZM189.367 121L185.494 102.928H188.076L189.982 112.609L190.648 117.127L191.333 112.609L193.239 102.928H195.821L191.949 121H189.367ZM199.006 121V102.928H201.588V121H199.006ZM206.004 121V102.928H213.104V104.864H208.586V110.673H211.813V112.609H208.586V119.064H213.104V121H206.004ZM218.397 121L215.17 102.928H217.751L219.042 111.318L219.698 116.482L220.333 111.318L221.624 102.928H224.206L225.497 111.318L226.132 116.482L226.787 111.318L228.078 102.928H230.66L227.433 121H224.851L223.56 112.609L222.915 107.446L222.269 112.609L220.979 121H218.397ZM233.714 121V102.928H240.814V104.864H236.296V110.673H239.523V112.609H236.296V119.064H240.814V121H233.714ZM244.06 121V102.928H248.064C249.953 102.928 251.284 103.314 252.057 104.087C252.837 104.861 253.227 106.195 253.227 108.091V115.191C253.227 117.174 252.831 118.64 252.037 119.588C251.251 120.529 249.919 121 248.043 121H244.06ZM246.642 119.064H248.064C248.487 119.064 248.85 119.027 249.153 118.953C249.455 118.872 249.701 118.731 249.889 118.529C250.077 118.321 250.225 118.126 250.333 117.944C250.44 117.756 250.514 117.467 250.555 117.077C250.602 116.687 250.629 116.368 250.635 116.119C250.642 115.863 250.645 115.47 250.645 114.939C250.645 114.764 250.645 114.633 250.645 114.546V108.737C250.645 108.407 250.642 108.145 250.635 107.95C250.635 107.755 250.625 107.526 250.605 107.264C250.592 106.995 250.568 106.783 250.534 106.629C250.501 106.474 250.454 106.303 250.393 106.115C250.333 105.92 250.255 105.768 250.161 105.661C250.074 105.553 249.963 105.442 249.829 105.328C249.701 105.207 249.55 105.119 249.375 105.066C249.207 105.005 249.008 104.958 248.78 104.924C248.551 104.884 248.296 104.864 248.013 104.864H246.642V119.064Z" fill="#930043"/>
<path d="M63.3058 166L60.4518 145.898H63.5291L65.1919 158.927L67.2765 145.948H69.783L71.9173 158.927L73.5552 145.898H76.5828L73.7785 166H70.8005L68.567 152.524L66.3583 166H63.3058ZM78.8639 166V145.898H87.3016V148.479H82.5368V154.262H86.2841V156.818H82.5368V163.469H87.3513V166H78.8639ZM89.4789 166V145.898H94.4175C95.3109 145.898 96.1133 145.981 96.8248 146.146C97.5527 146.312 98.1731 146.593 98.686 146.99C99.2155 147.371 99.6208 147.892 99.9021 148.554C100.183 149.215 100.324 150.051 100.324 151.06C100.324 151.871 100.208 152.566 99.9765 153.145C99.7614 153.724 99.4388 154.187 99.0086 154.535C98.5785 154.865 98.0408 155.089 97.3955 155.205C98.1897 155.337 98.8432 155.618 99.3561 156.048C99.8855 156.462 100.274 157.008 100.522 157.686C100.787 158.365 100.92 159.184 100.92 160.143C100.92 161.103 100.795 161.955 100.547 162.699C100.316 163.427 99.96 164.039 99.4802 164.536C99.0169 165.016 98.4296 165.38 97.7182 165.628C97.0233 165.876 96.2043 166 95.2613 166H89.4789ZM93.1518 163.419H94.5416C95.6501 163.419 96.4029 163.154 96.7999 162.625C97.197 162.079 97.3955 161.243 97.3955 160.118C97.3955 159.308 97.2963 158.654 97.0977 158.158C96.9158 157.645 96.6014 157.264 96.1547 157.016C95.7245 156.768 95.1455 156.644 94.4175 156.644H93.1518V163.419ZM93.1518 154.113H94.3927C95.1207 154.113 95.6832 154.005 96.0802 153.79C96.4773 153.575 96.7503 153.244 96.8992 152.797C97.0647 152.351 97.1474 151.788 97.1474 151.11C97.1474 150.398 97.0233 149.852 96.7751 149.472C96.5435 149.075 96.1878 148.81 95.708 148.678C95.2282 148.529 94.616 148.454 93.8715 148.454H93.1518V154.113ZM109.328 166V145.898H114.068C115.706 145.898 116.98 146.122 117.89 146.568C118.816 147.015 119.47 147.702 119.85 148.628C120.247 149.555 120.446 150.729 120.446 152.152V159.498C120.446 160.954 120.247 162.17 119.85 163.146C119.47 164.106 118.824 164.825 117.914 165.305C117.021 165.768 115.788 166 114.217 166H109.328ZM113.001 163.444H114.117C114.961 163.444 115.565 163.295 115.929 162.997C116.293 162.699 116.516 162.269 116.599 161.707C116.682 161.128 116.723 160.424 116.723 159.597V151.904C116.723 151.093 116.665 150.44 116.549 149.943C116.434 149.447 116.194 149.083 115.83 148.851C115.466 148.62 114.878 148.504 114.068 148.504H113.001V163.444ZM123.142 166V145.898H131.58V148.479H126.815V154.262H130.562V156.818H126.815V163.469H131.629V166H123.142ZM138.82 166.273C137.612 166.273 136.603 166.041 135.792 165.578C134.981 165.098 134.369 164.403 133.955 163.493C133.542 162.584 133.31 161.467 133.261 160.143L136.412 159.523C136.445 160.3 136.536 160.987 136.685 161.583C136.851 162.178 137.091 162.641 137.405 162.972C137.736 163.287 138.166 163.444 138.695 163.444C139.291 163.444 139.713 163.27 139.961 162.923C140.209 162.559 140.333 162.104 140.333 161.558C140.333 160.681 140.135 159.961 139.738 159.399C139.341 158.836 138.811 158.274 138.149 157.711L135.618 155.478C134.907 154.865 134.336 154.187 133.906 153.443C133.492 152.682 133.285 151.747 133.285 150.638C133.285 149.05 133.749 147.826 134.675 146.965C135.602 146.105 136.867 145.675 138.472 145.675C139.415 145.675 140.201 145.824 140.83 146.122C141.458 146.403 141.955 146.8 142.319 147.313C142.699 147.826 142.98 148.413 143.162 149.075C143.344 149.72 143.46 150.407 143.51 151.135L140.383 151.681C140.35 151.052 140.275 150.489 140.16 149.993C140.06 149.497 139.87 149.108 139.589 148.827C139.324 148.545 138.927 148.405 138.398 148.405C137.852 148.405 137.43 148.587 137.132 148.951C136.851 149.298 136.71 149.737 136.71 150.266C136.71 150.944 136.851 151.507 137.132 151.954C137.413 152.384 137.819 152.83 138.348 153.294L140.854 155.502C141.682 156.197 142.385 157.016 142.964 157.959C143.56 158.886 143.857 160.011 143.857 161.334C143.857 162.294 143.642 163.146 143.212 163.891C142.798 164.635 142.211 165.222 141.45 165.653C140.706 166.066 139.829 166.273 138.82 166.273ZM146.119 166V145.898H149.742V166H146.119ZM157.892 166.273C156.569 166.273 155.518 165.992 154.74 165.429C153.963 164.867 153.4 164.073 153.053 163.047C152.722 162.004 152.556 160.78 152.556 159.374V152.624C152.556 151.184 152.722 149.943 153.053 148.901C153.384 147.859 153.963 147.065 154.79 146.519C155.634 145.956 156.792 145.675 158.264 145.675C159.638 145.675 160.73 145.907 161.54 146.37C162.351 146.833 162.93 147.503 163.277 148.38C163.641 149.24 163.823 150.291 163.823 151.532V152.574H160.324V151.432C160.324 150.787 160.275 150.233 160.175 149.77C160.093 149.306 159.911 148.959 159.629 148.727C159.365 148.479 158.926 148.355 158.314 148.355C157.669 148.355 157.197 148.512 156.899 148.827C156.618 149.141 156.436 149.555 156.353 150.068C156.287 150.58 156.254 151.143 156.254 151.755V160.168C156.254 160.863 156.312 161.467 156.428 161.98C156.544 162.493 156.759 162.89 157.073 163.171C157.387 163.436 157.834 163.568 158.413 163.568C159.009 163.568 159.464 163.419 159.778 163.121C160.093 162.823 160.308 162.41 160.423 161.88C160.556 161.351 160.622 160.722 160.622 159.994V158.108H158.463V155.8H163.923V166H161.565L161.292 164.015C161.027 164.676 160.622 165.222 160.076 165.653C159.547 166.066 158.819 166.273 157.892 166.273ZM166.717 166V145.898H169.273L174.162 157.364V145.898H177.19V166H174.758L169.844 153.989V166H166.717ZM191.685 166.273C190.212 166.273 189.054 165.983 188.21 165.404C187.383 164.825 186.804 164.039 186.473 163.047C186.142 162.038 185.977 160.879 185.977 159.572V152.4C185.977 151.027 186.142 149.836 186.473 148.827C186.804 147.817 187.383 147.04 188.21 146.494C189.054 145.948 190.212 145.675 191.685 145.675C193.075 145.675 194.158 145.915 194.936 146.395C195.73 146.858 196.293 147.528 196.623 148.405C196.954 149.282 197.12 150.299 197.12 151.457V153.145H193.596V151.408C193.596 150.845 193.563 150.332 193.496 149.869C193.447 149.406 193.29 149.042 193.025 148.777C192.777 148.496 192.338 148.355 191.71 148.355C191.081 148.355 190.618 148.504 190.32 148.802C190.039 149.083 189.857 149.472 189.774 149.968C189.691 150.448 189.65 150.994 189.65 151.606V160.342C189.65 161.07 189.708 161.674 189.824 162.153C189.939 162.617 190.146 162.972 190.444 163.221C190.758 163.452 191.18 163.568 191.71 163.568C192.322 163.568 192.752 163.427 193 163.146C193.265 162.848 193.43 162.459 193.496 161.98C193.563 161.5 193.596 160.962 193.596 160.367V158.555H197.12V160.168C197.12 161.359 196.963 162.418 196.648 163.345C196.334 164.255 195.78 164.974 194.986 165.504C194.208 166.017 193.108 166.273 191.685 166.273ZM205.137 166.273C203.714 166.273 202.58 166.008 201.737 165.479C200.893 164.949 200.289 164.188 199.925 163.196C199.561 162.203 199.379 161.028 199.379 159.672V152.152C199.379 150.795 199.561 149.637 199.925 148.678C200.289 147.702 200.893 146.957 201.737 146.444C202.58 145.931 203.714 145.675 205.137 145.675C206.593 145.675 207.734 145.931 208.561 146.444C209.405 146.957 210.009 147.702 210.373 148.678C210.754 149.637 210.944 150.795 210.944 152.152V159.696C210.944 161.037 210.754 162.203 210.373 163.196C210.009 164.172 209.405 164.933 208.561 165.479C207.734 166.008 206.593 166.273 205.137 166.273ZM205.137 163.568C205.749 163.568 206.195 163.436 206.477 163.171C206.775 162.906 206.973 162.542 207.072 162.079C207.172 161.616 207.221 161.111 207.221 160.565V151.308C207.221 150.746 207.172 150.241 207.072 149.795C206.973 149.348 206.775 149 206.477 148.752C206.195 148.488 205.749 148.355 205.137 148.355C204.558 148.355 204.119 148.488 203.821 148.752C203.524 149 203.325 149.348 203.226 149.795C203.126 150.241 203.077 150.746 203.077 151.308V160.565C203.077 161.111 203.118 161.616 203.201 162.079C203.3 162.542 203.499 162.906 203.797 163.171C204.094 163.436 204.541 163.568 205.137 163.568ZM213.611 166L213.958 145.898H217.755L220.609 159.821L223.587 145.898H227.26L227.633 166H224.903L224.605 152.028L221.751 166H219.542L216.639 151.978L216.366 166H213.611ZM230.601 166V145.898H236.508C237.715 145.898 238.691 146.122 239.436 146.568C240.197 147.015 240.751 147.669 241.099 148.529C241.463 149.373 241.645 150.398 241.645 151.606C241.645 152.913 241.421 153.972 240.975 154.783C240.528 155.577 239.899 156.156 239.089 156.52C238.294 156.884 237.351 157.066 236.259 157.066H234.274V166H230.601ZM234.274 154.485H235.664C236.326 154.485 236.838 154.394 237.202 154.212C237.583 154.013 237.839 153.707 237.972 153.294C238.121 152.864 238.195 152.293 238.195 151.581C238.195 150.853 238.137 150.266 238.021 149.819C237.922 149.356 237.69 149.017 237.327 148.802C236.979 148.587 236.425 148.479 235.664 148.479H234.274V154.485ZM241.604 166L245.625 145.898H249.546L253.566 166H250.166L249.372 161.359H245.873L245.054 166H241.604ZM246.245 159.026H248.975L247.61 150.589L246.245 159.026ZM255.588 166V145.898H258.144L263.033 157.364V145.898H266.06V166H263.628L258.715 153.989V166H255.588ZM269.21 166V145.898H272.834V166H269.21ZM275.945 166V145.898H284.383V148.479H279.618V154.262H283.366V156.818H279.618V163.469H284.433V166H275.945ZM291.623 166.273C290.415 166.273 289.406 166.041 288.595 165.578C287.785 165.098 287.173 164.403 286.759 163.493C286.345 162.584 286.114 161.467 286.064 160.143L289.216 159.523C289.249 160.3 289.34 160.987 289.489 161.583C289.654 162.178 289.894 162.641 290.209 162.972C290.539 163.287 290.97 163.444 291.499 163.444C292.095 163.444 292.517 163.27 292.765 162.923C293.013 162.559 293.137 162.104 293.137 161.558C293.137 160.681 292.938 159.961 292.541 159.399C292.144 158.836 291.615 158.274 290.953 157.711L288.422 155.478C287.71 154.865 287.14 154.187 286.709 153.443C286.296 152.682 286.089 151.747 286.089 150.638C286.089 149.05 286.552 147.826 287.479 146.965C288.405 146.105 289.671 145.675 291.276 145.675C292.219 145.675 293.005 145.824 293.633 146.122C294.262 146.403 294.758 146.8 295.122 147.313C295.503 147.826 295.784 148.413 295.966 149.075C296.148 149.72 296.264 150.407 296.314 151.135L293.187 151.681C293.154 151.052 293.079 150.489 292.963 149.993C292.864 149.497 292.674 149.108 292.392 148.827C292.128 148.545 291.731 148.405 291.201 148.405C290.655 148.405 290.233 148.587 289.936 148.951C289.654 149.298 289.514 149.737 289.514 150.266C289.514 150.944 289.654 151.507 289.936 151.954C290.217 152.384 290.622 152.83 291.152 153.294L293.658 155.502C294.485 156.197 295.188 157.016 295.768 157.959C296.363 158.886 296.661 160.011 296.661 161.334C296.661 162.294 296.446 163.146 296.016 163.891C295.602 164.635 295.015 165.222 294.254 165.653C293.509 166.066 292.632 166.273 291.623 166.273Z" fill="black"/>
<rect x="2.05469" y="215.85" width="351.935" height="44.37" fill="#930043"/>
<circle cx="178.524" cy="235.008" r="37.3111" fill="white"/>
<path d="M70.7257 223.514L75.119 232.414L84.9436 233.85L77.8347 240.774L79.5124 250.556L70.7257 245.935L61.9391 250.556L63.6168 240.774L56.5078 233.85L66.3324 232.414L70.7257 223.514Z" fill="white"/>
<path d="M111.829 223.514L116.223 232.414L126.047 233.85L118.938 240.774L120.616 250.556L111.829 245.935L103.043 250.556L104.72 240.774L97.6113 233.85L107.436 232.414L111.829 223.514Z" fill="white"/>
<path d="M179.732 213.827L187.272 229.101L204.133 231.566L191.933 243.449L194.812 260.236L179.732 252.306L164.653 260.236L167.532 243.449L155.332 231.566L172.193 229.101L179.732 213.827Z" fill="#930043"/>
<path d="M241.505 223.514L245.898 232.414L255.723 233.85L248.614 240.774L250.292 250.556L241.505 245.935L232.718 250.556L234.396 240.774L227.287 233.85L237.112 232.414L241.505 223.514Z" fill="white"/>
<path d="M282.609 223.514L287.002 232.414L296.826 233.85L289.717 240.774L291.395 250.556L282.609 245.935L273.822 250.556L275.5 240.774L268.391 233.85L278.215 232.414L282.609 223.514Z" fill="white"/>
<g clip-path="url(#clip0_929_2635)">
<path d="M186.466 289.985V294.739H181.976V283.911H180.391V294.739H175.638V283.911H174.053V300.813H169.563V289.985H167.979V307.152H169.563V302.398H180.391V313.226H181.976V296.324H186.466V307.152H188.051V289.985H186.466ZM180.391 300.813H175.638V296.324H180.391V300.813Z" fill="#930043"/>
<path d="M175.637 303.192H174.053V313.228H175.637V303.192Z" fill="#930043"/>
</g>
<path d="M135.135 321.307V330.8H133.015V327.24H126.653V330.8H124.533V321.307H126.653V324.867H133.015V321.307H135.135Z" fill="black"/>
<path d="M136.945 330.802V321.294H139.586V330.802H136.945Z" fill="black"/>
<path d="M151.73 323.68H147.491V330.8H145.371V323.68H141.129V321.307H151.73V323.68Z" fill="black"/>
<path d="M163.773 321.307V323.68H155.292V323.682H153.172V321.307H163.773ZM163.773 325.068V327.003H155.292V327.008H153.172V325.068H163.773ZM163.773 328.427V330.8H153.172V328.427H163.773Z" fill="black"/>
<path d="M176.196 324.382V325.46H174.076V324.593C174.076 324.089 173.71 323.68 173.26 323.68H165.594V321.307H173.449C173.665 321.307 173.874 321.335 174.076 321.389C175.089 321.653 175.887 322.546 176.125 323.682C176.171 323.906 176.196 324.14 176.196 324.382ZM168.53 328.427H176.196V330.8H168.341C168.243 330.8 168.148 330.795 168.055 330.782C167.939 330.769 167.825 330.747 167.714 330.719C166.701 330.454 165.903 329.562 165.665 328.425C165.646 328.341 165.633 328.257 165.621 328.173C165.603 328.026 165.592 327.876 165.592 327.723V324.966H167.712V327.512C167.714 328.018 168.08 328.427 168.53 328.427Z" fill="black"/>
<path d="M188.502 321.307V330.8H186.382V327.24H180.02V330.8H177.9V321.307H180.02V324.867H186.382V321.307H188.502Z" fill="black"/>
<path d="M206.522 321.307V330.8H204.402V327.24H198.04V330.8H195.92V321.307H198.04V324.867H204.402V321.307H206.522Z" fill="#930043"/>
<path d="M218.953 321.307V330.8H216.89V329.783L216.066 330.8H210.783C209.533 330.655 208.531 329.572 208.35 328.191V321.307H210.469V327.514C210.469 328.018 210.835 328.427 211.285 328.427H216.827L216.831 321.307H218.953Z" fill="#930043"/>
<path d="M231.455 327.28C231.482 327.45 231.496 327.626 231.496 327.804C231.496 328.012 231.478 328.216 231.442 328.411C231.207 329.685 230.249 330.664 229.067 330.784C228.988 330.792 228.906 330.797 228.822 330.797C228.738 330.797 228.658 330.792 228.576 330.784H222.987V330.797H220.867V328.414H220.869V327.282H220.867V324.93H220.869V323.643H220.867V321.294H228.822C230.108 321.294 231.185 322.311 231.439 323.666C231.478 323.867 231.496 324.073 231.496 324.287C231.496 324.5 231.476 324.706 231.439 324.907C231.362 325.327 231.203 325.713 230.987 326.046C231.219 326.405 231.382 326.825 231.455 327.28ZM229.376 324.287C229.376 323.946 229.129 323.666 228.822 323.666H227.252V323.643H222.989V324.93H227.252V324.907H228.822C228.922 324.907 229.013 324.879 229.094 324.828C229.263 324.722 229.376 324.518 229.376 324.287ZM229.376 327.806C229.376 327.585 229.272 327.392 229.117 327.282H222.992V328.414H228.935C229.185 328.355 229.376 328.104 229.376 327.806Z" fill="#930043"/>
<defs>
<clipPath id="clip0_929_2635">
<rect width="20.072" height="29.3157" fill="white" transform="translate(167.979 283.911)"/>
</clipPath>
</defs>
</svg>
