<svg width="355" height="400" viewBox="0 0 355 400" fill="none" xmlns="http://www.w3.org/2000/svg">
<path d="M16.3708 81.9397L162.366 5.18367C171.637 0.297499 183.067 0.297499 192.338 5.18367L338.334 81.9397C347.605 86.8259 353.32 95.8306 353.32 105.584V294.591C353.32 304.345 347.605 313.35 338.334 318.236L192.338 394.992C183.067 399.878 171.637 399.878 162.366 394.992L16.3708 318.236C7.0996 313.35 1.38477 304.345 1.38477 294.591V105.584C1.38477 95.8119 7.0996 86.8071 16.3708 81.9397Z" fill="white" stroke="#930043" stroke-width="2.23497" stroke-miterlimit="10"/>
<path d="M329.871 286.067C329.871 293.588 325.426 300.604 318.245 304.365L187.374 373.065C180.193 376.826 171.283 376.826 164.143 373.065L33.2308 304.365C26.0494 300.604 21.6047 293.588 21.6047 286.067V269.41H14.2998V286.067C14.2998 295.946 20.1437 305.151 29.568 310.09L160.48 378.809C165.171 381.279 170.46 382.513 175.748 382.513C181.016 382.513 186.284 381.279 190.996 378.809L321.908 310.09C331.332 305.151 337.176 295.946 337.176 286.067V269.41H329.892V286.067H329.871ZM321.908 90.0752L190.996 21.375C181.592 16.417 169.884 16.4357 160.48 21.375L29.5886 90.0752C20.1643 95.0332 14.3204 104.238 14.3204 114.117V207.756H21.6253V114.117C21.6253 106.595 26.0699 99.5795 33.2514 95.819L164.101 27.1187C171.283 23.3581 180.193 23.3581 187.333 27.1187L318.245 95.819C325.426 99.5795 329.871 106.595 329.871 114.117V207.756H337.155V114.117C337.176 104.238 331.332 95.0332 321.908 90.0752Z" fill="#930043"/>
<path d="M103.491 95.8344V77.762H107.061L109.622 91.5986L112.184 77.762H115.754V95.8344H113.172V81.5741L110.591 95.8344H108.654L106.072 81.5741V95.8344H103.491ZM124.647 96.0159C123.74 96.0159 122.96 95.8781 122.308 95.6024C121.662 95.3267 121.148 94.9233 120.765 94.3922C120.382 93.861 120.103 93.2391 119.928 92.5265C119.753 91.8071 119.665 90.9734 119.665 90.0254V83.4701C119.665 82.5221 119.753 81.6951 119.928 80.9892C120.103 80.2832 120.382 79.6714 120.765 79.1537C121.148 78.6293 121.662 78.236 122.308 77.9738C122.96 77.7116 123.74 77.5805 124.647 77.5805C126.409 77.5805 127.68 78.0847 128.46 79.0932C129.24 80.1017 129.629 81.5607 129.629 83.4701V90.0254C129.629 90.9599 129.539 91.7869 129.357 92.5063C129.182 93.219 128.903 93.8442 128.52 94.3821C128.137 94.9133 127.619 95.32 126.967 95.6024C126.322 95.8781 125.548 96.0159 124.647 96.0159ZM122.762 93.0811C123.111 93.6257 123.74 93.898 124.647 93.898C125.555 93.898 126.18 93.6257 126.523 93.0811C126.873 92.5365 127.048 91.7331 127.048 90.6708V82.8247C127.048 81.7758 126.876 80.9926 126.533 80.4749C126.19 79.9572 125.562 79.6983 124.647 79.6983C123.733 79.6983 123.104 79.9572 122.762 80.4749C122.419 80.9926 122.247 81.7758 122.247 82.8247V90.6708C122.247 91.7331 122.419 92.5365 122.762 93.0811ZM138.251 96.0159C136.624 96.0159 135.38 95.5385 134.519 94.5838C133.665 93.6291 133.188 92.3248 133.087 90.6708L135.669 90.0254C135.797 92.6071 136.657 93.898 138.251 93.898C139.541 93.898 140.187 93.2526 140.187 91.9617C140.187 91.5785 140.133 91.2255 140.026 90.9028C139.925 90.5733 139.767 90.2741 139.552 90.0052C139.336 89.7295 139.141 89.511 138.967 89.3497C138.792 89.1816 138.553 88.9765 138.251 88.7345L135.023 86.1527C134.432 85.6888 133.958 85.1005 133.601 84.3878C133.252 83.6685 133.077 82.8516 133.077 81.9372C133.077 80.606 133.49 79.547 134.317 78.7604C135.144 77.9738 136.24 77.5805 137.605 77.5805C139.071 77.5805 140.234 77.9402 141.095 78.6596C141.962 79.3722 142.496 80.3841 142.698 81.6951C142.718 81.8363 142.742 82.0313 142.769 82.2801L140.187 82.9255C140.18 82.8112 140.163 82.6398 140.136 82.4112C140.022 81.5909 139.763 80.9354 139.36 80.4446C138.963 79.9471 138.378 79.6983 137.605 79.6983C136.987 79.6983 136.509 79.8731 136.173 80.2227C135.837 80.5656 135.669 81.0463 135.669 81.6649C135.669 82.6801 136.099 83.5306 136.96 84.2164L140.187 86.7982C141.908 88.1899 142.769 89.8539 142.769 91.7903C142.769 93.1148 142.359 94.1502 141.538 94.8964C140.725 95.6427 139.629 96.0159 138.251 96.0159ZM148.233 95.8344V80.0614H145.006V77.762H154.042V80.0614H150.815V95.8344H148.233ZM165.405 85.5073H166.05C167.126 85.5073 167.933 85.2821 168.471 84.8316C169.008 84.3744 169.277 83.6315 169.277 82.6028C169.277 81.5741 169.008 80.8346 168.471 80.3841C167.933 79.9269 167.126 79.6983 166.05 79.6983H165.405V85.5073ZM162.823 95.8344V77.762H166.05C167.973 77.762 169.422 78.1351 170.397 78.8814C171.372 79.6277 171.859 80.8682 171.859 82.6028C171.859 83.6785 171.667 84.5795 171.284 85.3056C170.901 86.0317 170.34 86.5292 169.6 86.7982L172.505 95.8344H169.943L167.341 87.4436H165.405V95.8344H162.823ZM175.649 95.8344V77.762H182.749V79.6983H178.231V85.5073H181.458V87.4436H178.231V93.898H182.749V95.8344H175.649ZM188.698 95.8344L184.825 77.762H187.407L189.313 87.4436L189.979 91.9617L190.664 87.4436L192.571 77.762H195.152L191.28 95.8344H188.698ZM198.338 95.8344V77.762H200.919V95.8344H198.338ZM205.335 95.8344V77.762H212.435V79.6983H207.917V85.5073H211.144V87.4436H207.917V93.898H212.435V95.8344H205.335ZM217.728 95.8344L214.501 77.762H217.082L218.373 86.1527L219.029 91.3163L219.664 86.1527L220.955 77.762H223.537L224.828 86.1527L225.463 91.3163L226.119 86.1527L227.409 77.762H229.991L226.764 95.8344H224.182L222.891 87.4436L222.246 82.2801L221.6 87.4436L220.31 95.8344H217.728ZM233.045 95.8344V77.762H240.145V79.6983H235.627V85.5073H238.854V87.4436H235.627V93.898H240.145V95.8344H233.045ZM243.391 95.8344V77.762H247.395C249.284 77.762 250.615 78.1486 251.388 78.9218C252.168 79.695 252.558 81.0295 252.558 82.9255V90.0254C252.558 92.0088 252.162 93.4745 251.368 94.4224C250.582 95.3637 249.25 95.8344 247.375 95.8344H243.391ZM245.973 93.898H247.395C247.818 93.898 248.181 93.861 248.484 93.7871C248.786 93.7064 249.032 93.5652 249.22 93.3635C249.408 93.1551 249.556 92.9601 249.664 92.7786C249.771 92.5903 249.845 92.3012 249.886 91.9113C249.933 91.5213 249.96 91.202 249.966 90.9532C249.973 90.6977 249.976 90.3044 249.976 89.7733C249.976 89.5984 249.976 89.4673 249.976 89.3799V83.571C249.976 83.2415 249.973 82.9793 249.966 82.7843C249.966 82.5894 249.956 82.3608 249.936 82.0985C249.923 81.8296 249.899 81.6178 249.866 81.4632C249.832 81.3086 249.785 81.1371 249.724 80.9489C249.664 80.7539 249.587 80.6026 249.492 80.495C249.405 80.3875 249.294 80.2765 249.16 80.1622C249.032 80.0412 248.881 79.9538 248.706 79.9C248.538 79.8395 248.339 79.7924 248.111 79.7588C247.882 79.7185 247.627 79.6983 247.344 79.6983H245.973V93.898Z" fill="#930043"/>
<path d="M88.7503 148L85.8964 127.898H88.9737L90.6364 140.927L92.721 127.948H95.2275L97.3618 140.927L98.9997 127.898H102.027L99.2231 148H96.245L94.0115 134.524L91.8028 148H88.7503ZM104.308 148V127.898H112.746V130.479H107.981V136.262H111.729V138.818H107.981V145.469H112.796V148H104.308ZM114.923 148V127.898H119.862C120.755 127.898 121.558 127.981 122.269 128.146C122.997 128.312 123.618 128.593 124.131 128.99C124.66 129.371 125.065 129.892 125.347 130.554C125.628 131.215 125.768 132.051 125.768 133.06C125.768 133.871 125.653 134.566 125.421 135.145C125.206 135.724 124.883 136.187 124.453 136.535C124.023 136.865 123.485 137.089 122.84 137.205C123.634 137.337 124.288 137.618 124.801 138.048C125.33 138.462 125.719 139.008 125.967 139.686C126.232 140.365 126.364 141.184 126.364 142.143C126.364 143.103 126.24 143.955 125.992 144.699C125.76 145.427 125.405 146.039 124.925 146.536C124.461 147.016 123.874 147.38 123.163 147.628C122.468 147.876 121.649 148 120.706 148H114.923ZM118.596 145.419H119.986C121.095 145.419 121.847 145.154 122.244 144.625C122.642 144.079 122.84 143.243 122.84 142.118C122.84 141.308 122.741 140.654 122.542 140.158C122.36 139.645 122.046 139.264 121.599 139.016C121.169 138.768 120.59 138.644 119.862 138.644H118.596V145.419ZM118.596 136.113H119.837C120.565 136.113 121.128 136.005 121.525 135.79C121.922 135.575 122.195 135.244 122.344 134.797C122.509 134.351 122.592 133.788 122.592 133.11C122.592 132.398 122.468 131.852 122.22 131.472C121.988 131.075 121.632 130.81 121.153 130.678C120.673 130.529 120.061 130.454 119.316 130.454H118.596V136.113ZM134.772 148V127.898H139.512C141.15 127.898 142.424 128.122 143.334 128.568C144.261 129.015 144.914 129.702 145.295 130.628C145.692 131.555 145.89 132.729 145.89 134.152V141.498C145.89 142.954 145.692 144.17 145.295 145.146C144.914 146.106 144.269 146.825 143.359 147.305C142.465 147.768 141.233 148 139.661 148H134.772ZM138.445 145.444H139.562C140.406 145.444 141.01 145.295 141.374 144.997C141.737 144.699 141.961 144.269 142.044 143.707C142.126 143.128 142.168 142.424 142.168 141.597V133.904C142.168 133.093 142.11 132.44 141.994 131.943C141.878 131.447 141.638 131.083 141.274 130.851C140.91 130.62 140.323 130.504 139.512 130.504H138.445V145.444ZM148.586 148V127.898H157.024V130.479H152.259V136.262H156.007V138.818H152.259V145.469H157.074V148H148.586ZM162.279 148L158.234 127.898H161.485L164.14 142.118L166.622 127.898H169.947L165.902 148H162.279ZM171.998 148V127.898H180.435V130.479H175.671V136.262H179.418V138.818H175.671V145.469H180.485V148H171.998ZM182.613 148V127.898H186.286V145.469H191.15V148H182.613ZM198.275 148.273C196.853 148.273 195.719 148.008 194.876 147.479C194.032 146.949 193.428 146.188 193.064 145.196C192.7 144.203 192.518 143.028 192.518 141.672V134.152C192.518 132.795 192.7 131.637 193.064 130.678C193.428 129.702 194.032 128.957 194.876 128.444C195.719 127.931 196.853 127.675 198.275 127.675C199.731 127.675 200.873 127.931 201.7 128.444C202.544 128.957 203.148 129.702 203.512 130.678C203.892 131.637 204.083 132.795 204.083 134.152V141.696C204.083 143.037 203.892 144.203 203.512 145.196C203.148 146.172 202.544 146.933 201.7 147.479C200.873 148.008 199.731 148.273 198.275 148.273ZM198.275 145.568C198.888 145.568 199.334 145.436 199.616 145.171C199.913 144.906 200.112 144.542 200.211 144.079C200.31 143.616 200.36 143.111 200.36 142.565V133.308C200.36 132.746 200.31 132.241 200.211 131.795C200.112 131.348 199.913 131 199.616 130.752C199.334 130.488 198.888 130.355 198.275 130.355C197.696 130.355 197.258 130.488 196.96 130.752C196.662 131 196.464 131.348 196.365 131.795C196.265 132.241 196.216 132.746 196.216 133.308V142.565C196.216 143.111 196.257 143.616 196.34 144.079C196.439 144.542 196.638 144.906 196.935 145.171C197.233 145.436 197.68 145.568 198.275 145.568ZM206.8 148V127.898H212.706C213.914 127.898 214.89 128.122 215.634 128.568C216.395 129.015 216.95 129.669 217.297 130.529C217.661 131.373 217.843 132.398 217.843 133.606C217.843 134.913 217.62 135.972 217.173 136.783C216.726 137.577 216.098 138.156 215.287 138.52C214.493 138.884 213.55 139.066 212.458 139.066H210.472V148H206.8ZM210.472 136.485H211.862C212.524 136.485 213.037 136.394 213.401 136.212C213.781 136.013 214.038 135.707 214.17 135.294C214.319 134.864 214.394 134.293 214.394 133.581C214.394 132.853 214.336 132.266 214.22 131.819C214.121 131.356 213.889 131.017 213.525 130.802C213.177 130.587 212.623 130.479 211.862 130.479H210.472V136.485ZM219.837 148L220.184 127.898H223.981L226.835 141.821L229.813 127.898H233.486L233.859 148H231.129L230.831 134.028L227.977 148H225.768L222.865 133.978L222.592 148H219.837ZM236.827 148V127.898H245.265V130.479H240.5V136.262H244.247V138.818H240.5V145.469H245.314V148H236.827ZM247.442 148V127.898H249.998L254.887 139.364V127.898H257.915V148H255.483L250.569 135.989V148H247.442ZM262.976 148V130.603H259.774V127.898H269.8V130.603H266.649V148H262.976ZM137.08 185.273C135.608 185.273 134.45 184.983 133.606 184.404C132.779 183.825 132.2 183.039 131.869 182.047C131.538 181.038 131.372 179.879 131.372 178.572V171.4C131.372 170.027 131.538 168.836 131.869 167.827C132.2 166.817 132.779 166.04 133.606 165.494C134.45 164.948 135.608 164.675 137.08 164.675C138.47 164.675 139.554 164.915 140.331 165.395C141.125 165.858 141.688 166.528 142.019 167.405C142.35 168.282 142.515 169.299 142.515 170.457V172.145H138.991V170.408C138.991 169.845 138.958 169.332 138.892 168.869C138.842 168.406 138.685 168.042 138.42 167.777C138.172 167.496 137.734 167.355 137.105 167.355C136.476 167.355 136.013 167.504 135.715 167.802C135.434 168.083 135.252 168.472 135.169 168.968C135.087 169.448 135.045 169.994 135.045 170.606V179.342C135.045 180.07 135.103 180.674 135.219 181.153C135.335 181.617 135.542 181.972 135.839 182.221C136.154 182.452 136.576 182.568 137.105 182.568C137.717 182.568 138.147 182.427 138.395 182.146C138.66 181.848 138.826 181.459 138.892 180.98C138.958 180.5 138.991 179.962 138.991 179.367V177.555H142.515V179.168C142.515 180.359 142.358 181.418 142.044 182.345C141.729 183.255 141.175 183.974 140.381 184.504C139.603 185.017 138.503 185.273 137.08 185.273ZM150.532 185.273C149.109 185.273 147.976 185.008 147.132 184.479C146.288 183.949 145.684 183.188 145.32 182.196C144.956 181.203 144.774 180.028 144.774 178.672V171.152C144.774 169.795 144.956 168.637 145.32 167.678C145.684 166.702 146.288 165.957 147.132 165.444C147.976 164.931 149.109 164.675 150.532 164.675C151.988 164.675 153.129 164.931 153.957 165.444C154.8 165.957 155.404 166.702 155.768 167.678C156.149 168.637 156.339 169.795 156.339 171.152V178.696C156.339 180.037 156.149 181.203 155.768 182.196C155.404 183.172 154.8 183.933 153.957 184.479C153.129 185.008 151.988 185.273 150.532 185.273ZM150.532 182.568C151.144 182.568 151.591 182.436 151.872 182.171C152.17 181.906 152.368 181.542 152.468 181.079C152.567 180.616 152.617 180.111 152.617 179.565V170.308C152.617 169.746 152.567 169.241 152.468 168.795C152.368 168.348 152.17 168 151.872 167.752C151.591 167.488 151.144 167.355 150.532 167.355C149.953 167.355 149.514 167.488 149.217 167.752C148.919 168 148.72 168.348 148.621 168.795C148.522 169.241 148.472 169.746 148.472 170.308V179.565C148.472 180.111 148.513 180.616 148.596 181.079C148.695 181.542 148.894 181.906 149.192 182.171C149.49 182.436 149.936 182.568 150.532 182.568ZM159.006 185L159.354 164.898H163.151L166.005 178.821L168.983 164.898H172.656L173.028 185H170.298L170 171.028L167.146 185H164.938L162.034 170.978L161.761 185H159.006ZM175.996 185V164.898H181.903C183.111 164.898 184.087 165.122 184.831 165.568C185.592 166.015 186.147 166.669 186.494 167.529C186.858 168.373 187.04 169.398 187.04 170.606C187.04 171.913 186.817 172.972 186.37 173.783C185.923 174.577 185.295 175.156 184.484 175.52C183.69 175.884 182.747 176.066 181.655 176.066H179.669V185H175.996ZM179.669 173.485H181.059C181.721 173.485 182.234 173.394 182.598 173.212C182.978 173.013 183.235 172.707 183.367 172.294C183.516 171.864 183.59 171.293 183.59 170.581C183.59 169.853 183.533 169.266 183.417 168.819C183.317 168.356 183.086 168.017 182.722 167.802C182.374 167.587 181.82 167.479 181.059 167.479H179.669V173.485ZM187 185L191.02 164.898H194.941L198.961 185H195.562L194.767 180.359H191.268L190.449 185H187ZM191.64 178.026H194.37L193.005 169.589L191.64 178.026ZM200.983 185V164.898H203.539L208.428 176.364V164.898H211.456V185H209.024L204.11 172.989V185H200.983ZM217.311 185V177.332L213.241 164.898H216.665L219.147 172.865L221.48 164.898H224.83L220.81 177.332V185H217.311Z" fill="black"/>
<rect x="1.38477" y="216.007" width="351.935" height="44.37" fill="#930043"/>
<circle cx="177.855" cy="235.165" r="37.3111" fill="white"/>
<path d="M70.0568 223.671L74.4501 232.571L84.2747 234.007L77.1657 240.931L78.8434 250.713L70.0568 246.092L61.2701 250.713L62.9478 240.931L55.8389 234.007L65.6634 232.571L70.0568 223.671Z" fill="white"/>
<path d="M111.161 223.671L115.555 232.571L125.379 234.007L118.27 240.931L119.948 250.713L111.161 246.092L102.375 250.713L104.052 240.931L96.9434 234.007L106.768 232.571L111.161 223.671Z" fill="white"/>
<path d="M179.062 213.985L186.601 229.259L203.462 231.724L191.262 243.607L194.141 260.394L179.062 252.464L163.982 260.394L166.861 243.607L154.661 231.724L171.522 229.259L179.062 213.985Z" fill="#930043"/>
<path d="M240.835 223.671L245.228 232.571L255.053 234.007L247.944 240.931L249.622 250.713L240.835 246.092L232.048 250.713L233.726 240.931L226.617 234.007L236.442 232.571L240.835 223.671Z" fill="white"/>
<path d="M281.94 223.671L286.333 232.571L296.157 234.007L289.049 240.931L290.726 250.713L281.94 246.092L273.153 250.713L274.831 240.931L267.722 234.007L277.546 232.571L281.94 223.671Z" fill="white"/>
<g clip-path="url(#clip0_1055_2007)">
<path d="M185.795 290.143V294.897H181.305V284.068H179.721V294.897H174.967V284.068H173.382V300.971H168.892V290.143H167.308V307.31H168.892V302.556H179.721V313.384H181.305V296.481H185.795V307.31H187.38V290.143H185.795ZM179.721 300.971H174.967V296.481H179.721V300.971Z" fill="#930043"/>
<path d="M174.965 303.35H173.381V313.386H174.965V303.35Z" fill="#930043"/>
</g>
<path d="M134.466 321.465V330.958H132.346V327.398H125.984V330.958H123.864V321.465H125.984V325.026H132.346V321.465H134.466Z" fill="black"/>
<path d="M136.275 330.959V321.451H138.916V330.959H136.275Z" fill="black"/>
<path d="M151.062 323.837H146.822V330.957H144.702V323.837H140.46V321.464H151.062V323.837Z" fill="black"/>
<path d="M163.105 321.464V323.837H154.623V323.839H152.503V321.464H163.105ZM163.105 325.225V327.16H154.623V327.166H152.503V325.225H163.105ZM163.105 328.585V330.957H152.503V328.585H163.105Z" fill="black"/>
<path d="M175.525 324.539V325.617H173.405V324.75C173.405 324.246 173.039 323.837 172.589 323.837H164.923V321.464H172.778C172.994 321.464 173.203 321.492 173.405 321.546C174.418 321.81 175.216 322.703 175.454 323.839C175.5 324.063 175.525 324.297 175.525 324.539ZM167.859 328.585H175.525V330.957H167.67C167.572 330.957 167.477 330.952 167.384 330.939C167.268 330.927 167.154 330.904 167.043 330.876C166.03 330.611 165.232 329.719 164.994 328.582C164.975 328.498 164.962 328.414 164.95 328.33C164.932 328.183 164.921 328.033 164.921 327.88V325.124H167.041V327.669C167.043 328.175 167.409 328.585 167.859 328.585Z" fill="black"/>
<path d="M187.832 321.464V330.957H185.712V327.397H179.35V330.957H177.23V321.464H179.35V325.024H185.712V321.464H187.832Z" fill="black"/>
<path d="M205.853 321.464V330.957H203.733V327.397H197.371V330.957H195.251V321.464H197.371V325.024H203.733V321.464H205.853Z" fill="#930043"/>
<path d="M218.286 321.464V330.957H216.222V329.94L215.398 330.957H210.115C208.865 330.812 207.863 329.729 207.682 328.348V321.464H209.802V327.672C209.802 328.175 210.167 328.585 210.617 328.585H216.159L216.163 321.464H218.286Z" fill="#930043"/>
<path d="M230.784 327.437C230.812 327.608 230.825 327.783 230.825 327.961C230.825 328.17 230.807 328.373 230.771 328.569C230.537 329.843 229.578 330.822 228.396 330.942C228.317 330.949 228.235 330.954 228.151 330.954C228.067 330.954 227.987 330.949 227.906 330.942H222.316V330.954H220.196V328.572H220.199V327.44H220.196V325.088H220.199V323.801H220.196V321.451H228.151C229.437 321.451 230.514 322.468 230.768 323.824C230.807 324.025 230.825 324.231 230.825 324.444C230.825 324.658 230.805 324.864 230.768 325.065C230.691 325.484 230.532 325.871 230.316 326.204C230.548 326.563 230.712 326.982 230.784 327.437ZM228.705 324.444C228.705 324.104 228.458 323.824 228.151 323.824H226.581V323.801H222.318V325.088H226.581V325.065H228.151C228.251 325.065 228.342 325.037 228.424 324.986C228.592 324.879 228.705 324.676 228.705 324.444ZM228.705 327.964C228.705 327.743 228.601 327.549 228.446 327.44H222.321V328.572H228.264C228.514 328.513 228.705 328.261 228.705 327.964Z" fill="#930043"/>
<defs>
<clipPath id="clip0_1055_2007">
<rect width="20.072" height="29.3157" fill="white" transform="translate(167.309 284.068)"/>
</clipPath>
</defs>
</svg>
