<?xml version="1.0" encoding="UTF-8"?>
<svg xmlns="http://www.w3.org/2000/svg" width="50" height="50" viewBox="0 0 50 50" fill="none">
  <g clip-path="url(#clip0_357_5435)">
    <mask id="mask0_357_5435" style="mask-type:luminance" maskUnits="userSpaceOnUse" x="0" y="0" width="50" height="50">
      <path d="M50 0H0V50H50V0Z" fill="white"></path>
    </mask>
    <g mask="url(#mask0_357_5435)">
      <mask id="mask1_357_5435" style="mask-type:luminance" maskUnits="userSpaceOnUse" x="0" y="0" width="50" height="50">
        <path d="M0 0H50V50H0V0Z" fill="white"></path>
      </mask>
      <g mask="url(#mask1_357_5435)">
        <path d="M0.974609 15.168H16.2964H45.4589" stroke="white" stroke-width="1.97031" stroke-miterlimit="10" stroke-linecap="round" stroke-linejoin="round"></path>
        <path d="M9.13027 11.0128C10.4092 11.0128 11.4527 9.97253 11.4527 8.69431C11.4527 7.41609 10.4092 6.37585 9.13027 6.37585C7.8542 6.37585 6.81055 7.41609 6.81055 8.69431C6.81055 9.97253 7.8542 11.0128 9.13027 11.0128Z" stroke="white" stroke-width="1.5" stroke-miterlimit="10" stroke-linecap="round" stroke-linejoin="round"></path>
        <path d="M29.2904 6.37537H38.0268C39.3028 6.37537 40.3465 7.41844 40.3465 8.69383C40.3465 9.96932 39.3028 11.0123 38.0268 11.0123H29.2904C28.0144 11.0123 26.9707 9.96932 26.9707 8.69383C26.9707 7.41844 28.0144 6.37537 29.2904 6.37537Z" stroke="white" stroke-width="1.5" stroke-miterlimit="10" stroke-linecap="round" stroke-linejoin="round"></path>
        <path d="M17.6967 11.0128C18.9756 11.0128 20.0191 9.97253 20.0191 8.69431C20.0191 7.41609 18.9756 6.37585 17.6967 6.37585C16.4206 6.37585 15.377 7.41609 15.377 8.69431C15.377 9.97253 16.4206 11.0128 17.6967 11.0128Z" stroke="white" stroke-width="1.5" stroke-miterlimit="10" stroke-linecap="round" stroke-linejoin="round"></path>
        <path d="M15.8607 22.6801L13.9062 30.8585" stroke="white" stroke-width="1.5" stroke-miterlimit="10" stroke-linecap="round" stroke-linejoin="round"></path>
        <path d="M20.3613 30.1196L23.1267 27.0153C23.2484 26.8798 23.2484 26.6585 23.1267 26.5229L20.3613 23.4187" stroke="white" stroke-width="1.5" stroke-miterlimit="10" stroke-linecap="round" stroke-linejoin="round"></path>
        <path d="M9.40557 30.1196L6.64023 27.0153C6.51836 26.8798 6.51836 26.6585 6.64023 26.5229L9.40557 23.4187" stroke="white" stroke-width="1.5" stroke-miterlimit="10" stroke-linecap="round" stroke-linejoin="round"></path>
        <path d="M39.5018 26.9956C40.5702 27.2336 41.5695 27.6541 42.4692 28.2185L43.2692 27.4217C43.7426 26.9458 44.5204 26.9458 44.9966 27.4217L46.2561 28.6806C46.7321 29.1564 46.7321 29.9339 46.2561 30.407L45.4588 31.2065C46.0208 32.0975 46.4359 33.088 46.6769 34.1448H47.7979C48.4706 34.1448 49.0214 34.6954 49.0214 35.3649V37.1495C49.0214 37.8189 48.4706 38.3695 47.7979 38.3695H46.6713C46.4304 39.4209 46.0152 40.4059 45.4588 41.2912L46.2561 42.088C46.7321 42.5639 46.7321 43.3413 46.2561 43.8145L44.9966 45.0761C44.5204 45.552 43.7426 45.552 43.2692 45.0761L42.4692 44.2792C41.5807 44.8381 40.5924 45.2531 39.535 45.4938V46.6281C39.535 47.3005 38.9841 47.8511 38.3143 47.8511H36.5288C35.8588 47.8511 35.308 47.3005 35.308 46.6281V45.4911C34.2561 45.2531 33.2679 44.8354 32.3792 44.2792L31.582 45.0761C31.1059 45.552 30.3281 45.552 29.8547 45.0761L28.5925 43.8145C28.119 43.3413 28.119 42.5639 28.5925 42.088L29.3924 41.2912C28.8333 40.4059 28.4181 39.4209 28.1772 38.3695H27.045C26.3725 38.3695 25.8242 37.8189 25.8242 37.1495V35.3649C25.8242 34.6954 26.3725 34.1448 27.045 34.1448H28.1745C28.4125 33.099 28.8223 32.1196 29.373 31.237L28.5703 30.4319C28.0942 29.9588 28.0942 29.1813 28.5703 28.7055L29.8298 27.4466C30.306 26.9707 31.0838 26.9707 31.5571 27.4466L32.3516 28.2379C33.2375 27.6763 34.2229 27.2584 35.2748 27.0122V25.8862C35.2748 25.2139 35.8229 24.6633 36.4955 24.6633H38.2782C38.9509 24.6633 39.5018 25.2139 39.5018 25.8862V26.9956Z" stroke="white" stroke-width="1.5" stroke-miterlimit="10" stroke-linecap="round" stroke-linejoin="round"></path>
        <path d="M37.424 31.2261C40.2032 31.2261 42.4565 33.4782 42.4565 36.2587C42.4565 39.0365 40.2032 41.2886 37.424 41.2886C34.6421 41.2886 32.3887 39.0365 32.3887 36.2587C32.3887 33.4782 34.6421 31.2261 37.424 31.2261Z" stroke="white" stroke-width="1.5" stroke-miterlimit="10" stroke-linecap="round" stroke-linejoin="round"></path>
        <path d="M10.3919 38.3696H4.61191C2.61348 38.3696 0.974609 36.4137 0.974609 34.026V6.49172C0.974609 4.10139 2.61055 2.14807 4.61191 2.14807H8.8251H41.8216C43.8229 2.14807 45.4589 4.10412 45.4589 6.49172V27.8839M27.0451 38.3696H19.1199" stroke="white" stroke-width="1.5" stroke-miterlimit="10" stroke-linecap="round" stroke-linejoin="round"></path>
        <path d="M14.7656 38.3696H14.7853" stroke="white" stroke-width="1.97031" stroke-miterlimit="10" stroke-linecap="round" stroke-linejoin="round"></path>
      </g>
    </g>
  </g>
  <defs>
    <clipPath id="clip0_357_5435">
      <rect width="50" height="50" fill="white"></rect>
    </clipPath>
  </defs>
</svg>
