<svg width="355" height="401" viewBox="0 0 355 401" fill="none" xmlns="http://www.w3.org/2000/svg">
<path d="M16.2604 82.2629L162.256 5.50692C171.527 0.620741 182.957 0.620741 192.228 5.50692L338.223 82.2629C347.495 87.1491 353.209 96.1539 353.209 105.908V294.915C353.209 304.668 347.495 313.673 338.223 318.559L192.228 395.315C182.957 400.201 171.527 400.201 162.256 395.315L16.2604 318.559C6.98925 313.673 1.27441 304.668 1.27441 294.915V105.908C1.27441 96.1352 6.98925 87.1304 16.2604 82.2629Z" fill="white" stroke="#930043" stroke-width="2.23497" stroke-miterlimit="10"/>
<path d="M329.762 286.391C329.762 293.912 325.317 300.928 318.136 304.688L187.265 373.388C180.083 377.149 171.173 377.149 164.033 373.388L33.1214 304.688C25.94 300.928 21.4953 293.912 21.4953 286.391V269.733H14.1904V286.391C14.1904 296.269 20.0343 305.474 29.4587 310.413L160.37 379.132C165.062 381.602 170.35 382.837 175.639 382.837C180.906 382.837 186.174 381.602 190.886 379.132L321.798 310.413C331.223 305.474 337.066 296.269 337.066 286.391V269.733H329.782V286.391H329.762ZM321.798 90.3984L190.886 21.6981C181.483 16.7402 169.774 16.7589 160.37 21.6981L29.4793 90.3984C20.0549 95.3564 14.211 104.561 14.211 114.44V208.079H21.5159V114.44C21.5159 106.919 25.9606 99.9027 33.142 96.1422L163.992 27.4419C171.173 23.6813 180.083 23.6813 187.224 27.4419L318.136 96.1422C325.317 99.9027 329.762 106.919 329.762 114.44V208.079H337.046V114.44C337.067 104.561 331.223 95.3564 321.798 90.3984Z" fill="#930043"/>
<path d="M103.38 96.1575V78.0851H106.95L109.512 91.9218L112.074 78.0851H115.644V96.1575H113.062V81.8972L110.48 96.1575H108.544L105.962 81.8972V96.1575H103.38ZM124.537 96.339C123.629 96.339 122.85 96.2012 122.197 95.9255C121.552 95.6499 121.038 95.2465 120.654 94.7153C120.271 94.1842 119.992 93.5623 119.817 92.8496C119.643 92.1302 119.555 91.2965 119.555 90.3485V83.7932C119.555 82.8452 119.643 82.0183 119.817 81.3123C119.992 80.6064 120.271 79.9945 120.654 79.4768C121.038 78.9524 121.552 78.5591 122.197 78.2969C122.85 78.0347 123.629 77.9036 124.537 77.9036C126.299 77.9036 127.569 78.4078 128.349 79.4163C129.129 80.4248 129.519 81.8838 129.519 83.7932V90.3485C129.519 91.283 129.428 92.11 129.247 92.8294C129.072 93.5421 128.793 94.1674 128.41 94.7052C128.027 95.2364 127.509 95.6431 126.857 95.9255C126.211 96.2012 125.438 96.339 124.537 96.339ZM122.651 93.4043C123.001 93.9489 123.629 94.2211 124.537 94.2211C125.445 94.2211 126.07 93.9489 126.413 93.4043C126.763 92.8597 126.937 92.0562 126.937 90.9939V83.1478C126.937 82.0989 126.766 81.3157 126.423 80.798C126.08 80.2803 125.452 80.0214 124.537 80.0214C123.623 80.0214 122.994 80.2803 122.651 80.798C122.308 81.3157 122.137 82.0989 122.137 83.1478V90.9939C122.137 92.0562 122.308 92.8597 122.651 93.4043ZM138.14 96.339C136.513 96.339 135.269 95.8616 134.409 94.9069C133.555 93.9522 133.078 92.6479 132.977 90.9939L135.558 90.3485C135.686 92.9303 136.547 94.2211 138.14 94.2211C139.431 94.2211 140.077 93.5757 140.077 92.2848C140.077 91.9016 140.023 91.5486 139.915 91.2259C139.814 90.8965 139.656 90.5973 139.441 90.3283C139.226 90.0527 139.031 89.8342 138.856 89.6728C138.681 89.5047 138.443 89.2997 138.14 89.0576L134.913 86.4758C134.321 86.0119 133.847 85.4236 133.491 84.711C133.141 83.9916 132.967 83.1747 132.967 82.2603C132.967 80.9291 133.38 79.8702 134.207 79.0835C135.034 78.2969 136.13 77.9036 137.495 77.9036C138.96 77.9036 140.124 78.2633 140.984 78.9827C141.852 79.6954 142.386 80.7072 142.588 82.0183C142.608 82.1595 142.631 82.3544 142.658 82.6032L140.077 83.2486C140.07 83.1343 140.053 82.9629 140.026 82.7343C139.912 81.9141 139.653 81.2585 139.25 80.7677C138.853 80.2702 138.268 80.0214 137.495 80.0214C136.876 80.0214 136.399 80.1962 136.063 80.5459C135.727 80.8887 135.558 81.3695 135.558 81.988C135.558 83.0032 135.989 83.8537 136.849 84.5395L140.077 87.1213C141.798 88.513 142.658 90.1771 142.658 92.1134C142.658 93.4379 142.248 94.4733 141.428 95.2196C140.614 95.9659 139.519 96.339 138.14 96.339ZM148.123 96.1575V80.3845H144.896V78.0851H153.932V80.3845H150.705V96.1575H148.123ZM165.294 85.8304H165.94C167.016 85.8304 167.822 85.6052 168.36 85.1547C168.898 84.6975 169.167 83.9546 169.167 82.9259C169.167 81.8972 168.898 81.1577 168.36 80.7072C167.822 80.25 167.016 80.0214 165.94 80.0214H165.294V85.8304ZM162.713 96.1575V78.0851H165.94C167.863 78.0851 169.312 78.4583 170.286 79.2045C171.261 79.9508 171.749 81.1913 171.749 82.9259C171.749 84.0017 171.557 84.9026 171.174 85.6287C170.791 86.3548 170.229 86.8524 169.49 87.1213L172.394 96.1575H169.833L167.231 87.7667H165.294V96.1575H162.713ZM175.539 96.1575V78.0851H182.639V80.0214H178.121V85.8304H181.348V87.7667H178.121V94.2211H182.639V96.1575H175.539ZM188.588 96.1575L184.715 78.0851H187.297L189.203 87.7667L189.868 92.2848L190.554 87.7667L192.46 78.0851H195.042L191.169 96.1575H188.588ZM198.227 96.1575V78.0851H200.809V96.1575H198.227ZM205.225 96.1575V78.0851H212.324V80.0214H207.806V85.8304H211.034V87.7667H207.806V94.2211H212.324V96.1575H205.225ZM217.617 96.1575L214.39 78.0851H216.972L218.263 86.4758L218.918 91.6394L219.554 86.4758L220.845 78.0851H223.426L224.717 86.4758L225.353 91.6394L226.008 86.4758L227.299 78.0851H229.881L226.654 96.1575H224.072L222.781 87.7667L222.136 82.6032L221.49 87.7667L220.199 96.1575H217.617ZM232.935 96.1575V78.0851H240.035V80.0214H235.517V85.8304H238.744V87.7667H235.517V94.2211H240.035V96.1575H232.935ZM243.281 96.1575V78.0851H247.284C249.174 78.0851 250.505 78.4717 251.278 79.2449C252.058 80.0181 252.448 81.3527 252.448 83.2486V90.3485C252.448 92.3319 252.051 93.7976 251.258 94.7456C250.471 95.6868 249.14 96.1575 247.264 96.1575H243.281ZM245.862 94.2211H247.284C247.708 94.2211 248.071 94.1842 248.374 94.1102C248.676 94.0295 248.921 93.8883 249.11 93.6866C249.298 93.4782 249.446 93.2832 249.553 93.1017C249.661 92.9135 249.735 92.6244 249.775 92.2344C249.822 91.8444 249.849 91.5251 249.856 91.2763C249.863 91.0208 249.866 90.6275 249.866 90.0964C249.866 89.9216 249.866 89.7905 249.866 89.7031V83.8941C249.866 83.5646 249.863 83.3024 249.856 83.1075C249.856 82.9125 249.846 82.6839 249.826 82.4217C249.812 82.1527 249.789 81.9409 249.755 81.7863C249.722 81.6317 249.675 81.4602 249.614 81.272C249.553 81.077 249.476 80.9257 249.382 80.8182C249.295 80.7106 249.184 80.5996 249.049 80.4853C248.921 80.3643 248.77 80.2769 248.595 80.2231C248.427 80.1626 248.229 80.1156 248 80.0819C247.772 80.0416 247.516 80.0214 247.234 80.0214H245.862V94.2211Z" fill="#930043"/>
<path d="M88.1507 144L85.2968 123.898H88.3741L90.0368 136.927L92.1214 123.948H94.6279L96.7622 136.927L98.4001 123.898H101.428L98.6235 144H95.6454L93.4119 130.524L91.2032 144H88.1507ZM103.709 144V123.898H112.147V126.479H107.382V132.262H111.129V134.818H107.382V141.469H112.196V144H103.709ZM114.324 144V123.898H119.262C120.156 123.898 120.958 123.981 121.67 124.146C122.398 124.312 123.018 124.593 123.531 124.99C124.06 125.371 124.466 125.892 124.747 126.554C125.028 127.215 125.169 128.051 125.169 129.06C125.169 129.871 125.053 130.566 124.821 131.145C124.606 131.724 124.284 132.187 123.854 132.535C123.423 132.865 122.886 133.089 122.24 133.205C123.035 133.337 123.688 133.618 124.201 134.048C124.73 134.462 125.119 135.008 125.367 135.686C125.632 136.365 125.764 137.184 125.764 138.143C125.764 139.103 125.64 139.955 125.392 140.699C125.161 141.427 124.805 142.039 124.325 142.536C123.862 143.016 123.275 143.38 122.563 143.628C121.868 143.876 121.049 144 120.106 144H114.324ZM117.997 141.419H119.387C120.495 141.419 121.248 141.154 121.645 140.625C122.042 140.079 122.24 139.243 122.24 138.118C122.24 137.308 122.141 136.654 121.943 136.158C121.761 135.645 121.446 135.264 121 135.016C120.569 134.768 119.99 134.644 119.262 134.644H117.997V141.419ZM117.997 132.113H119.238C119.966 132.113 120.528 132.005 120.925 131.79C121.322 131.575 121.595 131.244 121.744 130.797C121.91 130.351 121.992 129.788 121.992 129.11C121.992 128.398 121.868 127.852 121.62 127.472C121.388 127.075 121.033 126.81 120.553 126.678C120.073 126.529 119.461 126.454 118.716 126.454H117.997V132.113ZM134.173 144V123.898H138.913C140.551 123.898 141.824 124.122 142.734 124.568C143.661 125.015 144.314 125.702 144.695 126.628C145.092 127.555 145.291 128.729 145.291 130.152V137.498C145.291 138.954 145.092 140.17 144.695 141.146C144.314 142.106 143.669 142.825 142.759 143.305C141.866 143.768 140.633 144 139.062 144H134.173ZM137.845 141.444H138.962C139.806 141.444 140.41 141.295 140.774 140.997C141.138 140.699 141.361 140.269 141.444 139.707C141.527 139.128 141.568 138.424 141.568 137.597V129.904C141.568 129.093 141.51 128.44 141.394 127.943C141.279 127.447 141.039 127.083 140.675 126.851C140.311 126.62 139.723 126.504 138.913 126.504H137.845V141.444ZM147.987 144V123.898H156.424V126.479H151.66V132.262H155.407V134.818H151.66V141.469H156.474V144H147.987ZM161.679 144L157.634 123.898H160.885L163.54 138.118L166.022 123.898H169.348L165.302 144H161.679ZM171.398 144V123.898H179.836V126.479H175.071V132.262H178.818V134.818H175.071V141.469H179.885V144H171.398ZM182.013 144V123.898H185.686V141.469H190.55V144H182.013ZM197.676 144.273C196.253 144.273 195.12 144.008 194.276 143.479C193.432 142.949 192.828 142.188 192.464 141.196C192.1 140.203 191.918 139.028 191.918 137.672V130.152C191.918 128.795 192.1 127.637 192.464 126.678C192.828 125.702 193.432 124.957 194.276 124.444C195.12 123.931 196.253 123.675 197.676 123.675C199.132 123.675 200.273 123.931 201.101 124.444C201.944 124.957 202.548 125.702 202.912 126.678C203.293 127.637 203.483 128.795 203.483 130.152V137.696C203.483 139.037 203.293 140.203 202.912 141.196C202.548 142.172 201.944 142.933 201.101 143.479C200.273 144.008 199.132 144.273 197.676 144.273ZM197.676 141.568C198.288 141.568 198.735 141.436 199.016 141.171C199.314 140.906 199.512 140.542 199.612 140.079C199.711 139.616 199.761 139.111 199.761 138.565V129.308C199.761 128.746 199.711 128.241 199.612 127.795C199.512 127.348 199.314 127 199.016 126.752C198.735 126.488 198.288 126.355 197.676 126.355C197.097 126.355 196.658 126.488 196.361 126.752C196.063 127 195.864 127.348 195.765 127.795C195.666 128.241 195.616 128.746 195.616 129.308V138.565C195.616 139.111 195.657 139.616 195.74 140.079C195.839 140.542 196.038 140.906 196.336 141.171C196.634 141.436 197.08 141.568 197.676 141.568ZM206.2 144V123.898H212.106C213.314 123.898 214.29 124.122 215.035 124.568C215.796 125.015 216.35 125.669 216.697 126.529C217.061 127.373 217.243 128.398 217.243 129.606C217.243 130.913 217.02 131.972 216.573 132.783C216.127 133.577 215.498 134.156 214.687 134.52C213.893 134.884 212.95 135.066 211.858 135.066H209.873V144H206.2ZM209.873 132.485H211.263C211.924 132.485 212.437 132.394 212.801 132.212C213.182 132.013 213.438 131.707 213.571 131.294C213.719 130.864 213.794 130.293 213.794 129.581C213.794 128.853 213.736 128.266 213.62 127.819C213.521 127.356 213.289 127.017 212.925 126.802C212.578 126.587 212.024 126.479 211.263 126.479H209.873V132.485ZM219.237 144L219.585 123.898H223.382L226.236 137.821L229.214 123.898H232.887L233.259 144H230.529L230.231 130.028L227.377 144H225.169L222.265 129.978L221.992 144H219.237ZM236.227 144V123.898H244.665V126.479H239.9V132.262H243.648V134.818H239.9V141.469H244.715V144H236.227ZM246.843 144V123.898H249.399L254.288 135.364V123.898H257.315V144H254.883L249.969 131.989V144H246.843ZM262.376 144V126.603H259.175V123.898H269.201V126.603H266.049V144H262.376ZM92.6874 181.273C91.2149 181.273 90.0568 180.983 89.213 180.404C88.3858 179.825 87.8067 179.039 87.4758 178.047C87.1449 177.038 86.9795 175.879 86.9795 174.572V167.4C86.9795 166.027 87.1449 164.836 87.4758 163.827C87.8067 162.817 88.3858 162.04 89.213 161.494C90.0568 160.948 91.2149 160.675 92.6874 160.675C94.0771 160.675 95.1608 160.915 95.9384 161.395C96.7325 161.858 97.295 162.528 97.6259 163.405C97.9568 164.282 98.1223 165.299 98.1223 166.457V168.145H94.5983V166.408C94.5983 165.845 94.5652 165.332 94.499 164.869C94.4494 164.406 94.2922 164.042 94.0275 163.777C93.7793 163.496 93.3409 163.355 92.7122 163.355C92.0835 163.355 91.6202 163.504 91.3224 163.802C91.0412 164.083 90.8592 164.472 90.7765 164.968C90.6937 165.448 90.6524 165.994 90.6524 166.606V175.342C90.6524 176.07 90.7103 176.674 90.8261 177.153C90.9419 177.617 91.1487 177.972 91.4465 178.221C91.7609 178.452 92.1828 178.568 92.7122 178.568C93.3243 178.568 93.7545 178.427 94.0027 178.146C94.2674 177.848 94.4328 177.459 94.499 176.98C94.5652 176.5 94.5983 175.962 94.5983 175.367V173.555H98.1223V175.168C98.1223 176.359 97.9651 177.418 97.6508 178.345C97.3364 179.255 96.7822 179.974 95.988 180.504C95.2104 181.017 94.1102 181.273 92.6874 181.273ZM106.139 181.273C104.716 181.273 103.583 181.008 102.739 180.479C101.895 179.949 101.292 179.188 100.928 178.196C100.564 177.203 100.382 176.028 100.382 174.672V167.152C100.382 165.795 100.564 164.637 100.928 163.678C101.292 162.702 101.895 161.957 102.739 161.444C103.583 160.931 104.716 160.675 106.139 160.675C107.595 160.675 108.737 160.931 109.564 161.444C110.408 161.957 111.012 162.702 111.376 163.678C111.756 164.637 111.946 165.795 111.946 167.152V174.696C111.946 176.037 111.756 177.203 111.376 178.196C111.012 179.172 110.408 179.933 109.564 180.479C108.737 181.008 107.595 181.273 106.139 181.273ZM106.139 178.568C106.751 178.568 107.198 178.436 107.479 178.171C107.777 177.906 107.976 177.542 108.075 177.079C108.174 176.616 108.224 176.111 108.224 175.565V166.308C108.224 165.746 108.174 165.241 108.075 164.795C107.976 164.348 107.777 164 107.479 163.752C107.198 163.488 106.751 163.355 106.139 163.355C105.56 163.355 105.122 163.488 104.824 163.752C104.526 164 104.327 164.348 104.228 164.795C104.129 165.241 104.079 165.746 104.079 166.308V175.565C104.079 176.111 104.121 176.616 104.203 177.079C104.303 177.542 104.501 177.906 104.799 178.171C105.097 178.436 105.544 178.568 106.139 178.568ZM114.614 181L114.961 160.898H118.758L121.612 174.821L124.59 160.898H128.263L128.635 181H125.905L125.607 167.028L122.753 181H120.545L117.641 166.978L117.368 181H114.614ZM131.604 181V160.898H137.51C138.718 160.898 139.694 161.122 140.438 161.568C141.2 162.015 141.754 162.669 142.101 163.529C142.465 164.373 142.647 165.398 142.647 166.606C142.647 167.913 142.424 168.972 141.977 169.783C141.53 170.577 140.902 171.156 140.091 171.52C139.297 171.884 138.354 172.066 137.262 172.066H135.277V181H131.604ZM135.277 169.485H136.666C137.328 169.485 137.841 169.394 138.205 169.212C138.585 169.013 138.842 168.707 138.974 168.294C139.123 167.864 139.198 167.293 139.198 166.581C139.198 165.853 139.14 165.266 139.024 164.819C138.925 164.356 138.693 164.017 138.329 163.802C137.982 163.587 137.427 163.479 136.666 163.479H135.277V169.485ZM142.607 181L146.627 160.898H150.548L154.569 181H151.169L150.375 176.359H146.875L146.056 181H142.607ZM147.248 174.026H149.977L148.613 165.589L147.248 174.026ZM156.59 181V160.898H159.146L164.035 172.364V160.898H167.063V181H164.631L159.717 168.989V181H156.59ZM170.213 181V160.898H173.836V181H170.213ZM176.948 181V160.898H185.386V163.479H180.621V169.262H184.368V171.818H180.621V178.469H185.435V181H176.948ZM192.626 181.273C191.418 181.273 190.409 181.041 189.598 180.578C188.787 180.098 188.175 179.403 187.762 178.493C187.348 177.584 187.116 176.467 187.067 175.143L190.218 174.523C190.251 175.3 190.342 175.987 190.491 176.583C190.657 177.178 190.897 177.641 191.211 177.972C191.542 178.287 191.972 178.444 192.502 178.444C193.097 178.444 193.519 178.27 193.767 177.923C194.015 177.559 194.139 177.104 194.139 176.558C194.139 175.681 193.941 174.961 193.544 174.399C193.147 173.836 192.617 173.274 191.956 172.711L189.424 170.478C188.713 169.865 188.142 169.187 187.712 168.443C187.298 167.682 187.091 166.747 187.091 165.638C187.091 164.05 187.555 162.826 188.481 161.965C189.408 161.105 190.673 160.675 192.278 160.675C193.221 160.675 194.007 160.824 194.636 161.122C195.264 161.403 195.761 161.8 196.125 162.313C196.505 162.826 196.787 163.413 196.969 164.075C197.151 164.72 197.266 165.407 197.316 166.135L194.189 166.681C194.156 166.052 194.082 165.489 193.966 164.993C193.866 164.497 193.676 164.108 193.395 163.827C193.13 163.545 192.733 163.405 192.204 163.405C191.658 163.405 191.236 163.587 190.938 163.951C190.657 164.298 190.516 164.737 190.516 165.266C190.516 165.944 190.657 166.507 190.938 166.954C191.219 167.384 191.625 167.83 192.154 168.294L194.661 170.502C195.488 171.197 196.191 172.016 196.77 172.959C197.366 173.886 197.663 175.011 197.663 176.334C197.663 177.294 197.448 178.146 197.018 178.891C196.605 179.635 196.017 180.222 195.256 180.653C194.512 181.066 193.635 181.273 192.626 181.273ZM205.96 181V160.898H209.583V181H205.96ZM212.695 181V160.898H215.251L220.14 172.364V160.898H223.168V181H220.736L215.822 168.989V181H212.695ZM237.762 181.273C236.273 181.273 235.115 181 234.288 180.454C233.461 179.908 232.89 179.13 232.575 178.121C232.261 177.112 232.104 175.904 232.104 174.498V160.898H235.678V174.92C235.678 175.549 235.719 176.144 235.802 176.707C235.884 177.253 236.075 177.699 236.372 178.047C236.687 178.378 237.15 178.543 237.762 178.543C238.407 178.543 238.871 178.378 239.152 178.047C239.45 177.699 239.64 177.253 239.723 176.707C239.822 176.144 239.872 175.549 239.872 174.92V160.898H243.421V174.498C243.421 175.904 243.263 177.112 242.949 178.121C242.635 179.13 242.064 179.908 241.237 180.454C240.426 181 239.268 181.273 237.762 181.273ZM245.195 181L249.215 160.898H253.136L257.157 181H253.757L252.963 176.359H249.463L248.644 181H245.195ZM249.836 174.026H252.566L251.201 165.589L249.836 174.026ZM259.178 181V160.898H267.616V163.479H262.851V169.262H266.599V171.818H262.851V178.469H267.666V181H259.178Z" fill="black"/>
<rect x="1.27441" y="216.331" width="351.935" height="44.37" fill="#930043"/>
<circle cx="177.746" cy="235.488" r="37.3111" fill="white"/>
<path d="M69.9464 223.994L74.3398 232.894L84.1643 234.33L77.0554 241.255L78.7331 251.036L69.9464 246.416L61.1598 251.036L62.8375 241.255L55.7285 234.33L65.5531 232.894L69.9464 223.994Z" fill="white"/>
<path d="M111.051 223.994L115.444 232.894L125.269 234.33L118.16 241.255L119.838 251.036L111.051 246.416L102.264 251.036L103.942 241.255L96.833 234.33L106.658 232.894L111.051 223.994Z" fill="white"/>
<path d="M178.952 214.307L186.492 229.582L203.353 232.046L191.152 243.929L194.032 260.717L178.952 252.787L163.873 260.717L166.752 243.929L154.552 232.046L171.412 229.582L178.952 214.307Z" fill="#930043"/>
<path d="M240.725 223.994L245.118 232.894L254.943 234.33L247.834 241.255L249.511 251.036L240.725 246.416L231.938 251.036L233.616 241.255L226.507 234.33L236.331 232.894L240.725 223.994Z" fill="white"/>
<path d="M281.829 223.994L286.223 232.894L296.047 234.33L288.938 241.255L290.616 251.036L281.829 246.416L273.043 251.036L274.72 241.255L267.611 234.33L277.436 232.894L281.829 223.994Z" fill="white"/>
<g clip-path="url(#clip0_929_2303)">
<path d="M185.688 290.466V295.22H181.198V284.391H179.613V295.22H174.859V284.391H173.275V301.294H168.785V290.466H167.2V307.633H168.785V302.879H179.613V313.707H181.198V296.804H185.688V307.633H187.272V290.466H185.688ZM179.613 301.294H174.859V296.804H179.613V301.294Z" fill="#930043"/>
<path d="M174.858 303.673H173.273V313.709H174.858V303.673Z" fill="#930043"/>
</g>
<path d="M134.355 321.788V331.281H132.236V327.721H125.874V331.281H123.754V321.788H125.874V325.348H132.236V321.788H134.355Z" fill="black"/>
<path d="M136.165 331.282V321.774H138.806V331.282H136.165Z" fill="black"/>
<path d="M150.951 324.16H146.711V331.28H144.592V324.16H140.35V321.787H150.951V324.16Z" fill="black"/>
<path d="M162.994 321.787V324.16H154.512V324.162H152.393V321.787H162.994ZM162.994 325.548V327.483H154.512V327.488H152.393V325.548H162.994ZM162.994 328.907V331.28H152.393V328.907H162.994Z" fill="black"/>
<path d="M175.415 324.861V325.94H173.296V325.072C173.296 324.569 172.93 324.16 172.48 324.16H164.814V321.787H172.668C172.884 321.787 173.093 321.815 173.296 321.868C174.309 322.133 175.106 323.025 175.345 324.162C175.39 324.386 175.415 324.62 175.415 324.861ZM167.749 328.907H175.415V331.28H167.561C167.463 331.28 167.368 331.275 167.274 331.262C167.159 331.249 167.045 331.226 166.934 331.198C165.92 330.934 165.123 330.041 164.884 328.905C164.866 328.821 164.852 328.737 164.841 328.653C164.823 328.505 164.812 328.355 164.812 328.203V325.446H166.931V327.992C166.934 328.498 167.299 328.907 167.749 328.907Z" fill="black"/>
<path d="M187.722 321.787V331.28H185.602V327.72H179.24V331.28H177.12V321.787H179.24V325.347H185.602V321.787H187.722Z" fill="black"/>
<path d="M205.742 321.787V331.28H203.622V327.72H197.26V331.28H195.141V321.787H197.26V325.347H203.622V321.787H205.742Z" fill="#930043"/>
<path d="M218.175 321.787V331.28H216.112V330.263L215.287 331.28H210.005C208.755 331.135 207.753 330.052 207.571 328.671V321.787H209.691V327.994C209.691 328.498 210.057 328.907 210.507 328.907H216.048L216.053 321.787H218.175Z" fill="#930043"/>
<path d="M230.675 327.76C230.702 327.931 230.716 328.106 230.716 328.284C230.716 328.493 230.698 328.696 230.661 328.892C230.427 330.166 229.468 331.145 228.287 331.264C228.207 331.272 228.126 331.277 228.042 331.277C227.957 331.277 227.878 331.272 227.796 331.264H222.207V331.277H220.087V328.894H220.089V327.763H220.087V325.41H220.089V324.124H220.087V321.774H228.042C229.328 321.774 230.404 322.791 230.659 324.147C230.698 324.348 230.716 324.553 230.716 324.767C230.716 324.981 230.695 325.187 230.659 325.388C230.582 325.807 230.423 326.194 230.207 326.527C230.439 326.885 230.602 327.305 230.675 327.76ZM228.596 324.767C228.596 324.426 228.348 324.147 228.042 324.147H226.471V324.124H222.209V325.41H226.471V325.388H228.042C228.141 325.388 228.232 325.36 228.314 325.309C228.482 325.202 228.596 324.999 228.596 324.767ZM228.596 328.287C228.596 328.065 228.491 327.872 228.337 327.763H222.211V328.894H228.155C228.405 328.836 228.596 328.584 228.596 328.287Z" fill="#930043"/>
<defs>
<clipPath id="clip0_929_2303">
<rect width="20.072" height="29.3157" fill="white" transform="translate(167.199 284.391)"/>
</clipPath>
</defs>
</svg>
