<svg width="355" height="401" viewBox="0 0 355 401" fill="none" xmlns="http://www.w3.org/2000/svg">
<path d="M16.3708 82.2629L162.366 5.50692C171.637 0.620741 183.067 0.620741 192.338 5.50692L338.334 82.2629C347.605 87.1491 353.32 96.1539 353.32 105.908V294.915C353.32 304.668 347.605 313.673 338.334 318.559L192.338 395.315C183.067 400.201 171.637 400.201 162.366 395.315L16.3708 318.559C7.0996 313.673 1.38477 304.668 1.38477 294.915V105.908C1.38477 96.1352 7.0996 87.1304 16.3708 82.2629Z" fill="white" stroke="#930043" stroke-width="2.23497" stroke-miterlimit="10"/>
<path d="M329.872 286.391C329.872 293.912 325.427 300.928 318.246 304.688L187.375 373.388C180.194 377.149 171.284 377.149 164.144 373.388L33.2318 304.688C26.0503 300.928 21.6057 293.912 21.6057 286.391V269.733H14.3008V286.391C14.3008 296.269 20.1447 305.474 29.569 310.413L160.481 379.132C165.172 381.602 170.461 382.837 175.749 382.837C181.017 382.837 186.285 381.602 190.997 379.132L321.909 310.413C331.333 305.474 337.177 296.269 337.177 286.391V269.733H329.893V286.391H329.872ZM321.909 90.3984L190.997 21.6981C181.593 16.7402 169.885 16.7589 160.481 21.6981L29.5896 90.3984C20.1653 95.3564 14.3214 104.561 14.3214 114.44V208.079H21.6262V114.44C21.6262 106.919 26.0709 99.9027 33.2523 96.1422L164.102 27.4419C171.284 23.6813 180.194 23.6813 187.334 27.4419L318.246 96.1422C325.427 99.9027 329.872 106.919 329.872 114.44V208.079H337.156V114.44C337.177 104.561 331.333 95.3564 321.909 90.3984Z" fill="#930043"/>
<path d="M103.491 96.1575V78.0851H107.061L109.622 91.9218L112.184 78.0851H115.754V96.1575H113.172V81.8972L110.591 96.1575H108.654L106.072 81.8972V96.1575H103.491ZM124.647 96.339C123.74 96.339 122.96 96.2012 122.308 95.9255C121.662 95.6499 121.148 95.2465 120.765 94.7153C120.382 94.1842 120.103 93.5623 119.928 92.8496C119.753 92.1302 119.665 91.2965 119.665 90.3485V83.7932C119.665 82.8452 119.753 82.0183 119.928 81.3123C120.103 80.6064 120.382 79.9945 120.765 79.4768C121.148 78.9524 121.662 78.5591 122.308 78.2969C122.96 78.0347 123.74 77.9036 124.647 77.9036C126.409 77.9036 127.68 78.4078 128.46 79.4163C129.24 80.4248 129.629 81.8838 129.629 83.7932V90.3485C129.629 91.283 129.539 92.11 129.357 92.8294C129.182 93.5421 128.903 94.1674 128.52 94.7052C128.137 95.2364 127.619 95.6431 126.967 95.9255C126.322 96.2012 125.548 96.339 124.647 96.339ZM122.762 93.4043C123.111 93.9489 123.74 94.2211 124.647 94.2211C125.555 94.2211 126.18 93.9489 126.523 93.4043C126.873 92.8597 127.048 92.0562 127.048 90.9939V83.1478C127.048 82.0989 126.876 81.3157 126.533 80.798C126.19 80.2803 125.562 80.0214 124.647 80.0214C123.733 80.0214 123.104 80.2803 122.762 80.798C122.419 81.3157 122.247 82.0989 122.247 83.1478V90.9939C122.247 92.0562 122.419 92.8597 122.762 93.4043ZM138.251 96.339C136.624 96.339 135.38 95.8616 134.519 94.9069C133.665 93.9522 133.188 92.6479 133.087 90.9939L135.669 90.3485C135.797 92.9303 136.657 94.2211 138.251 94.2211C139.541 94.2211 140.187 93.5757 140.187 92.2848C140.187 91.9016 140.133 91.5486 140.026 91.2259C139.925 90.8965 139.767 90.5973 139.552 90.3283C139.336 90.0527 139.141 89.8342 138.967 89.6728C138.792 89.5047 138.553 89.2997 138.251 89.0576L135.023 86.4758C134.432 86.0119 133.958 85.4236 133.601 84.711C133.252 83.9916 133.077 83.1747 133.077 82.2603C133.077 80.9291 133.49 79.8702 134.317 79.0835C135.144 78.2969 136.24 77.9036 137.605 77.9036C139.071 77.9036 140.234 78.2633 141.095 78.9827C141.962 79.6954 142.496 80.7072 142.698 82.0183C142.718 82.1595 142.742 82.3544 142.769 82.6032L140.187 83.2486C140.18 83.1343 140.163 82.9629 140.136 82.7343C140.022 81.9141 139.763 81.2585 139.36 80.7677C138.963 80.2702 138.378 80.0214 137.605 80.0214C136.987 80.0214 136.509 80.1962 136.173 80.5459C135.837 80.8887 135.669 81.3695 135.669 81.988C135.669 83.0032 136.099 83.8537 136.96 84.5395L140.187 87.1213C141.908 88.513 142.769 90.1771 142.769 92.1134C142.769 93.4379 142.359 94.4733 141.538 95.2196C140.725 95.9659 139.629 96.339 138.251 96.339ZM148.233 96.1575V80.3845H145.006V78.0851H154.042V80.3845H150.815V96.1575H148.233ZM165.405 85.8304H166.05C167.126 85.8304 167.933 85.6052 168.471 85.1547C169.008 84.6975 169.277 83.9546 169.277 82.9259C169.277 81.8972 169.008 81.1577 168.471 80.7072C167.933 80.25 167.126 80.0214 166.05 80.0214H165.405V85.8304ZM162.823 96.1575V78.0851H166.05C167.973 78.0851 169.422 78.4583 170.397 79.2045C171.372 79.9508 171.859 81.1913 171.859 82.9259C171.859 84.0017 171.667 84.9026 171.284 85.6287C170.901 86.3548 170.34 86.8524 169.6 87.1213L172.505 96.1575H169.943L167.341 87.7667H165.405V96.1575H162.823ZM175.649 96.1575V78.0851H182.749V80.0214H178.231V85.8304H181.458V87.7667H178.231V94.2211H182.749V96.1575H175.649ZM188.698 96.1575L184.825 78.0851H187.407L189.313 87.7667L189.979 92.2848L190.664 87.7667L192.571 78.0851H195.152L191.28 96.1575H188.698ZM198.338 96.1575V78.0851H200.919V96.1575H198.338ZM205.335 96.1575V78.0851H212.435V80.0214H207.917V85.8304H211.144V87.7667H207.917V94.2211H212.435V96.1575H205.335ZM217.728 96.1575L214.501 78.0851H217.082L218.373 86.4758L219.029 91.6394L219.664 86.4758L220.955 78.0851H223.537L224.828 86.4758L225.463 91.6394L226.119 86.4758L227.409 78.0851H229.991L226.764 96.1575H224.182L222.891 87.7667L222.246 82.6032L221.6 87.7667L220.31 96.1575H217.728ZM233.045 96.1575V78.0851H240.145V80.0214H235.627V85.8304H238.854V87.7667H235.627V94.2211H240.145V96.1575H233.045ZM243.391 96.1575V78.0851H247.395C249.284 78.0851 250.615 78.4717 251.388 79.2449C252.168 80.0181 252.558 81.3527 252.558 83.2486V90.3485C252.558 92.3319 252.162 93.7976 251.368 94.7456C250.582 95.6868 249.25 96.1575 247.375 96.1575H243.391ZM245.973 94.2211H247.395C247.818 94.2211 248.181 94.1842 248.484 94.1102C248.786 94.0295 249.032 93.8883 249.22 93.6866C249.408 93.4782 249.556 93.2832 249.664 93.1017C249.771 92.9135 249.845 92.6244 249.886 92.2344C249.933 91.8444 249.96 91.5251 249.966 91.2763C249.973 91.0208 249.976 90.6275 249.976 90.0964C249.976 89.9216 249.976 89.7905 249.976 89.7031V83.8941C249.976 83.5646 249.973 83.3024 249.966 83.1075C249.966 82.9125 249.956 82.6839 249.936 82.4217C249.923 82.1527 249.899 81.9409 249.866 81.7863C249.832 81.6317 249.785 81.4602 249.724 81.272C249.664 81.077 249.587 80.9257 249.492 80.8182C249.405 80.7106 249.294 80.5996 249.16 80.4853C249.032 80.3643 248.881 80.2769 248.706 80.2231C248.538 80.1626 248.339 80.1156 248.111 80.0819C247.882 80.0416 247.627 80.0214 247.344 80.0214H245.973V94.2211Z" fill="#930043"/>
<path d="M88.2601 144L85.4061 123.898H88.4834L90.1462 136.927L92.2308 123.948H94.7373L96.8716 136.927L98.5095 123.898H101.537L98.7328 144H95.7548L93.5213 130.524L91.3126 144H88.2601ZM103.818 144V123.898H112.256V126.479H107.491V132.261H111.238V134.818H107.491V141.469H112.306V144H103.818ZM114.433 144V123.898H119.372C120.265 123.898 121.068 123.981 121.779 124.146C122.507 124.312 123.127 124.593 123.64 124.99C124.17 125.371 124.575 125.892 124.856 126.554C125.138 127.215 125.278 128.051 125.278 129.06C125.278 129.871 125.162 130.566 124.931 131.145C124.716 131.724 124.393 132.187 123.963 132.534C123.533 132.865 122.995 133.089 122.35 133.205C123.144 133.337 123.798 133.618 124.31 134.048C124.84 134.462 125.229 135.008 125.477 135.686C125.742 136.365 125.874 137.183 125.874 138.143C125.874 139.103 125.75 139.955 125.502 140.699C125.27 141.427 124.914 142.039 124.434 142.536C123.971 143.015 123.384 143.379 122.672 143.628C121.978 143.876 121.159 144 120.216 144H114.433ZM118.106 141.419H119.496C120.604 141.419 121.357 141.154 121.754 140.625C122.151 140.079 122.35 139.243 122.35 138.118C122.35 137.308 122.251 136.654 122.052 136.158C121.87 135.645 121.556 135.264 121.109 135.016C120.679 134.768 120.1 134.644 119.372 134.644H118.106V141.419ZM118.106 132.113H119.347C120.075 132.113 120.637 132.005 121.035 131.79C121.432 131.575 121.705 131.244 121.854 130.797C122.019 130.351 122.102 129.788 122.102 129.11C122.102 128.398 121.978 127.852 121.729 127.472C121.498 127.075 121.142 126.81 120.662 126.678C120.183 126.529 119.57 126.454 118.826 126.454H118.106V132.113ZM134.282 144V123.898H139.022C140.66 123.898 141.934 124.121 142.844 124.568C143.77 125.015 144.424 125.702 144.804 126.628C145.201 127.555 145.4 128.729 145.4 130.152V137.498C145.4 138.954 145.201 140.17 144.804 141.146C144.424 142.106 143.779 142.825 142.869 143.305C141.975 143.768 140.743 144 139.171 144H134.282ZM137.955 141.444H139.072C139.915 141.444 140.519 141.295 140.883 140.997C141.247 140.699 141.471 140.269 141.553 139.707C141.636 139.127 141.677 138.424 141.677 137.597V129.904C141.677 129.093 141.62 128.44 141.504 127.943C141.388 127.447 141.148 127.083 140.784 126.851C140.42 126.62 139.833 126.504 139.022 126.504H137.955V141.444ZM148.096 144V123.898H156.534V126.479H151.769V132.261H155.516V134.818H151.769V141.469H156.583V144H148.096ZM161.788 144L157.743 123.898H160.994L163.65 138.118L166.131 123.898H169.457L165.412 144H161.788ZM171.507 144V123.898H179.945V126.479H175.18V132.261H178.928V134.818H175.18V141.469H179.995V144H171.507ZM182.122 144V123.898H185.795V141.469H190.659V144H182.122ZM197.785 144.273C196.362 144.273 195.229 144.008 194.385 143.479C193.542 142.949 192.938 142.188 192.574 141.196C192.21 140.203 192.028 139.028 192.028 137.672V130.152C192.028 128.795 192.21 127.637 192.574 126.678C192.938 125.702 193.542 124.957 194.385 124.444C195.229 123.931 196.362 123.675 197.785 123.675C199.241 123.675 200.383 123.931 201.21 124.444C202.054 124.957 202.658 125.702 203.022 126.678C203.402 127.637 203.592 128.795 203.592 130.152V137.696C203.592 139.036 203.402 140.203 203.022 141.196C202.658 142.172 202.054 142.933 201.21 143.479C200.383 144.008 199.241 144.273 197.785 144.273ZM197.785 141.568C198.397 141.568 198.844 141.435 199.125 141.171C199.423 140.906 199.622 140.542 199.721 140.079C199.82 139.616 199.87 139.111 199.87 138.565V129.308C199.87 128.746 199.82 128.241 199.721 127.794C199.622 127.348 199.423 127 199.125 126.752C198.844 126.487 198.397 126.355 197.785 126.355C197.206 126.355 196.768 126.487 196.47 126.752C196.172 127 195.974 127.348 195.874 127.794C195.775 128.241 195.725 128.746 195.725 129.308V138.565C195.725 139.111 195.767 139.616 195.85 140.079C195.949 140.542 196.147 140.906 196.445 141.171C196.743 141.435 197.19 141.568 197.785 141.568ZM206.309 144V123.898H212.216C213.423 123.898 214.4 124.121 215.144 124.568C215.905 125.015 216.459 125.668 216.807 126.529C217.171 127.373 217.353 128.398 217.353 129.606C217.353 130.913 217.129 131.972 216.683 132.783C216.236 133.577 215.607 134.156 214.797 134.52C214.003 134.884 213.06 135.066 211.968 135.066H209.982V144H206.309ZM209.982 132.485H211.372C212.034 132.485 212.547 132.394 212.911 132.212C213.291 132.013 213.548 131.707 213.68 131.294C213.829 130.863 213.903 130.293 213.903 129.581C213.903 128.853 213.845 128.266 213.73 127.819C213.63 127.356 213.399 127.017 213.035 126.802C212.687 126.587 212.133 126.479 211.372 126.479H209.982V132.485ZM219.347 144L219.694 123.898H223.491L226.345 137.82L229.323 123.898H232.996L233.368 144H230.638L230.341 130.028L227.487 144H225.278L222.374 129.978L222.101 144H219.347ZM236.337 144V123.898H244.775V126.479H240.01V132.261H243.757V134.818H240.01V141.469H244.824V144H236.337ZM246.952 144V123.898H249.508L254.397 135.364V123.898H257.425V144H254.993L250.079 131.988V144H246.952ZM262.485 144V126.603H259.284V123.898H269.31V126.603H266.158V144H262.485ZM91.9727 181.273C90.5003 181.273 89.3421 180.983 88.4984 180.404C87.6711 179.825 87.0921 179.039 86.7612 178.047C86.4303 177.037 86.2648 175.879 86.2648 174.572V167.4C86.2648 166.027 86.4303 164.836 86.7612 163.827C87.0921 162.817 87.6711 162.04 88.4984 161.494C89.3421 160.948 90.5003 160.675 91.9727 160.675C93.3625 160.675 94.4462 160.915 95.2238 161.394C96.0179 161.858 96.5804 162.528 96.9113 163.405C97.2422 164.282 97.4077 165.299 97.4077 166.457V168.145H93.8836V166.408C93.8836 165.845 93.8506 165.332 93.7844 164.869C93.7347 164.406 93.5776 164.042 93.3129 163.777C93.0647 163.496 92.6263 163.355 91.9976 163.355C91.3689 163.355 90.9056 163.504 90.6078 163.802C90.3266 164.083 90.1446 164.472 90.0618 164.968C89.9791 165.448 89.9378 165.994 89.9378 166.606V175.342C89.9378 176.07 89.9957 176.673 90.1115 177.153C90.2273 177.616 90.4341 177.972 90.7319 178.22C91.0462 178.452 91.4681 178.568 91.9976 178.568C92.6097 178.568 93.0399 178.427 93.288 178.146C93.5528 177.848 93.7182 177.459 93.7844 176.98C93.8506 176.5 93.8836 175.962 93.8836 175.366V173.555H97.4077V175.168C97.4077 176.359 97.2505 177.418 96.9361 178.344C96.6218 179.254 96.0675 179.974 95.2734 180.504C94.4958 181.016 93.3956 181.273 91.9727 181.273ZM105.425 181.273C104.002 181.273 102.868 181.008 102.025 180.479C101.181 179.949 100.577 179.188 100.213 178.196C99.849 177.203 99.667 176.028 99.667 174.672V167.152C99.667 165.795 99.849 164.637 100.213 163.678C100.577 162.702 101.181 161.957 102.025 161.444C102.868 160.931 104.002 160.675 105.425 160.675C106.88 160.675 108.022 160.931 108.849 161.444C109.693 161.957 110.297 162.702 110.661 163.678C111.041 164.637 111.232 165.795 111.232 167.152V174.696C111.232 176.036 111.041 177.203 110.661 178.196C110.297 179.172 109.693 179.933 108.849 180.479C108.022 181.008 106.88 181.273 105.425 181.273ZM105.425 178.568C106.037 178.568 106.483 178.435 106.765 178.171C107.062 177.906 107.261 177.542 107.36 177.079C107.459 176.616 107.509 176.111 107.509 175.565V166.308C107.509 165.746 107.459 165.241 107.36 164.794C107.261 164.348 107.062 164 106.765 163.752C106.483 163.487 106.037 163.355 105.425 163.355C104.845 163.355 104.407 163.487 104.109 163.752C103.811 164 103.613 164.348 103.514 164.794C103.414 165.241 103.365 165.746 103.365 166.308V175.565C103.365 176.111 103.406 176.616 103.489 177.079C103.588 177.542 103.787 177.906 104.084 178.171C104.382 178.435 104.829 178.568 105.425 178.568ZM113.899 181L114.246 160.898H118.043L120.897 174.82L123.875 160.898H127.548L127.92 181H125.191L124.893 167.028L122.039 181H119.83L116.927 166.978L116.654 181H113.899ZM130.889 181V160.898H136.795C138.003 160.898 138.979 161.121 139.724 161.568C140.485 162.015 141.039 162.668 141.387 163.529C141.751 164.373 141.933 165.398 141.933 166.606C141.933 167.913 141.709 168.972 141.263 169.783C140.816 170.577 140.187 171.156 139.376 171.52C138.582 171.884 137.639 172.066 136.547 172.066H134.562V181H130.889ZM134.562 169.485H135.952C136.613 169.485 137.126 169.394 137.49 169.212C137.871 169.013 138.127 168.707 138.26 168.294C138.409 167.863 138.483 167.293 138.483 166.581C138.483 165.853 138.425 165.266 138.309 164.819C138.21 164.356 137.978 164.017 137.614 163.802C137.267 163.587 136.713 163.479 135.952 163.479H134.562V169.485ZM141.892 181L145.913 160.898H149.834L153.854 181H150.454L149.66 176.359H146.161L145.342 181H141.892ZM146.533 174.026H149.263L147.898 165.589L146.533 174.026ZM155.876 181V160.898H158.432L163.321 172.364V160.898H166.348V181H163.916L159.003 168.988V181H155.876ZM169.498 181V160.898H173.121V181H169.498ZM176.233 181V160.898H184.671V163.479H179.906V169.261H183.654V171.818H179.906V178.469H184.721V181H176.233ZM191.911 181.273C190.703 181.273 189.694 181.041 188.883 180.578C188.073 180.098 187.46 179.403 187.047 178.493C186.633 177.583 186.402 176.467 186.352 175.143L189.504 174.523C189.537 175.3 189.628 175.987 189.777 176.582C189.942 177.178 190.182 177.641 190.496 177.972C190.827 178.287 191.257 178.444 191.787 178.444C192.383 178.444 192.804 178.27 193.053 177.923C193.301 177.559 193.425 177.104 193.425 176.558C193.425 175.681 193.226 174.961 192.829 174.399C192.432 173.836 191.903 173.274 191.241 172.711L188.71 170.477C187.998 169.865 187.427 169.187 186.997 168.442C186.584 167.681 186.377 166.747 186.377 165.638C186.377 164.05 186.84 162.826 187.767 161.965C188.693 161.105 189.959 160.675 191.564 160.675C192.507 160.675 193.292 160.824 193.921 161.121C194.55 161.403 195.046 161.8 195.41 162.313C195.791 162.826 196.072 163.413 196.254 164.075C196.436 164.72 196.552 165.407 196.601 166.135L193.474 166.68C193.441 166.052 193.367 165.489 193.251 164.993C193.152 164.497 192.962 164.108 192.68 163.827C192.416 163.545 192.019 163.405 191.489 163.405C190.943 163.405 190.521 163.587 190.223 163.951C189.942 164.298 189.802 164.737 189.802 165.266C189.802 165.944 189.942 166.507 190.223 166.953C190.505 167.384 190.91 167.83 191.439 168.294L193.946 170.502C194.773 171.197 195.476 172.016 196.055 172.959C196.651 173.886 196.949 175.011 196.949 176.334C196.949 177.294 196.734 178.146 196.304 178.89C195.89 179.635 195.303 180.222 194.542 180.652C193.797 181.066 192.92 181.273 191.911 181.273ZM205.245 181V160.898H208.869V181H205.245ZM211.98 181V160.898H214.537L219.425 172.364V160.898H222.453V181H220.021L215.107 168.988V181H211.98ZM237.048 181.273C235.559 181.273 234.4 181 233.573 180.454C232.746 179.908 232.175 179.13 231.861 178.121C231.547 177.112 231.389 175.904 231.389 174.498V160.898H234.963V174.92C234.963 175.548 235.004 176.144 235.087 176.707C235.17 177.253 235.36 177.699 235.658 178.047C235.972 178.378 236.435 178.543 237.048 178.543C237.693 178.543 238.156 178.378 238.437 178.047C238.735 177.699 238.925 177.253 239.008 176.707C239.107 176.144 239.157 175.548 239.157 174.92V160.898H242.706V174.498C242.706 175.904 242.549 177.112 242.234 178.121C241.92 179.13 241.349 179.908 240.522 180.454C239.711 181 238.553 181.273 237.048 181.273ZM250.657 181.273C249.45 181.273 248.44 181.041 247.63 180.578C246.819 180.098 246.207 179.403 245.793 178.493C245.38 177.583 245.148 176.467 245.098 175.143L248.25 174.523C248.283 175.3 248.374 175.987 248.523 176.582C248.689 177.178 248.928 177.641 249.243 177.972C249.574 178.287 250.004 178.444 250.533 178.444C251.129 178.444 251.551 178.27 251.799 177.923C252.047 177.559 252.171 177.104 252.171 176.558C252.171 175.681 251.973 174.961 251.576 174.399C251.179 173.836 250.649 173.274 249.987 172.711L247.456 170.477C246.745 169.865 246.174 169.187 245.744 168.442C245.33 167.681 245.123 166.747 245.123 165.638C245.123 164.05 245.586 162.826 246.513 161.965C247.439 161.105 248.705 160.675 250.31 160.675C251.253 160.675 252.039 160.824 252.668 161.121C253.296 161.403 253.793 161.8 254.157 162.313C254.537 162.826 254.818 163.413 255 164.075C255.182 164.72 255.298 165.407 255.348 166.135L252.221 166.68C252.188 166.052 252.113 165.489 251.997 164.993C251.898 164.497 251.708 164.108 251.427 163.827C251.162 163.545 250.765 163.405 250.235 163.405C249.69 163.405 249.268 163.587 248.97 163.951C248.689 164.298 248.548 164.737 248.548 165.266C248.548 165.944 248.689 166.507 248.97 166.953C249.251 167.384 249.656 167.83 250.186 168.294L252.692 170.502C253.52 171.197 254.223 172.016 254.802 172.959C255.397 173.886 255.695 175.011 255.695 176.334C255.695 177.294 255.48 178.146 255.05 178.89C254.636 179.635 254.049 180.222 253.288 180.652C252.543 181.066 251.667 181.273 250.657 181.273ZM256.743 181L260.764 160.898H264.685L268.705 181H265.305L264.511 176.359H261.012L260.193 181H256.743ZM261.384 174.026H264.114L262.749 165.589L261.384 174.026Z" fill="black"/>
<rect x="1.38477" y="216.331" width="351.935" height="44.37" fill="#930043"/>
<circle cx="177.855" cy="235.488" r="37.3111" fill="white"/>
<path d="M70.0568 223.994L74.4501 232.894L84.2747 234.33L77.1657 241.255L78.8434 251.036L70.0568 246.416L61.2701 251.036L62.9478 241.255L55.8389 234.33L65.6634 232.894L70.0568 223.994Z" fill="white"/>
<path d="M111.161 223.994L115.555 232.894L125.379 234.33L118.27 241.255L119.948 251.036L111.161 246.416L102.375 251.036L104.052 241.255L96.9434 234.33L106.768 232.894L111.161 223.994Z" fill="white"/>
<path d="M179.063 214.307L186.602 229.582L203.463 232.046L191.263 243.929L194.142 260.717L179.063 252.787L163.983 260.717L166.862 243.929L154.662 232.046L171.523 229.582L179.063 214.307Z" fill="#930043"/>
<path d="M240.835 223.994L245.228 232.894L255.053 234.33L247.944 241.255L249.622 251.036L240.835 246.416L232.048 251.036L233.726 241.255L226.617 234.33L236.442 232.894L240.835 223.994Z" fill="white"/>
<path d="M281.94 223.994L286.333 232.894L296.157 234.33L289.049 241.255L290.726 251.036L281.94 246.416L273.153 251.036L274.831 241.255L267.722 234.33L277.546 232.894L281.94 223.994Z" fill="white"/>
<g clip-path="url(#clip0_929_2369)">
<path d="M185.797 290.466V295.22H181.307V284.391H179.723V295.22H174.969V284.391H173.384V301.294H168.894V290.466H167.31V307.633H168.894V302.879H179.723V313.707H181.307V296.804H185.797V307.633H187.382V290.466H185.797ZM179.723 301.294H174.969V296.804H179.723V301.294Z" fill="#930043"/>
<path d="M174.967 303.673H173.383V313.709H174.967V303.673Z" fill="#930043"/>
</g>
<path d="M134.465 321.788V331.281H132.345V327.721H125.983V331.281H123.863V321.788H125.983V325.348H132.345V321.788H134.465Z" fill="black"/>
<path d="M136.274 331.282V321.774H138.915V331.282H136.274Z" fill="black"/>
<path d="M151.061 324.16H146.821V331.28H144.701V324.16H140.459V321.787H151.061V324.16Z" fill="black"/>
<path d="M163.104 321.787V324.16H154.622V324.162H152.502V321.787H163.104ZM163.104 325.548V327.483H154.622V327.488H152.502V325.548H163.104ZM163.104 328.907V331.28H152.502V328.907H163.104Z" fill="black"/>
<path d="M175.525 324.861V325.94H173.405V325.072C173.405 324.569 173.039 324.16 172.589 324.16H164.923V321.787H172.778C172.994 321.787 173.203 321.815 173.405 321.868C174.418 322.133 175.216 323.025 175.454 324.162C175.5 324.386 175.525 324.62 175.525 324.861ZM167.859 328.907H175.525V331.28H167.67C167.572 331.28 167.477 331.275 167.384 331.262C167.268 331.249 167.154 331.226 167.043 331.198C166.03 330.934 165.232 330.041 164.994 328.905C164.975 328.821 164.962 328.737 164.95 328.653C164.932 328.505 164.921 328.355 164.921 328.203V325.446H167.041V327.992C167.043 328.498 167.409 328.907 167.859 328.907Z" fill="black"/>
<path d="M187.831 321.787V331.28H185.711V327.72H179.349V331.28H177.229V321.787H179.349V325.347H185.711V321.787H187.831Z" fill="black"/>
<path d="M205.852 321.787V331.28H203.732V327.72H197.37V331.28H195.25V321.787H197.37V325.347H203.732V321.787H205.852Z" fill="#930043"/>
<path d="M218.285 321.787V331.28H216.221V330.263L215.397 331.28H210.114C208.864 331.135 207.862 330.052 207.681 328.671V321.787H209.801V327.994C209.801 328.498 210.166 328.907 210.616 328.907H216.158L216.162 321.787H218.285Z" fill="#930043"/>
<path d="M230.784 327.76C230.812 327.931 230.825 328.106 230.825 328.284C230.825 328.493 230.807 328.696 230.771 328.892C230.537 330.166 229.578 331.145 228.396 331.264C228.317 331.272 228.235 331.277 228.151 331.277C228.067 331.277 227.987 331.272 227.906 331.264H222.316V331.277H220.196V328.894H220.199V327.763H220.196V325.41H220.199V324.124H220.196V321.774H228.151C229.437 321.774 230.514 322.791 230.768 324.147C230.807 324.348 230.825 324.553 230.825 324.767C230.825 324.981 230.805 325.187 230.768 325.388C230.691 325.807 230.532 326.194 230.316 326.527C230.548 326.885 230.712 327.305 230.784 327.76ZM228.705 324.767C228.705 324.426 228.458 324.147 228.151 324.147H226.581V324.124H222.318V325.41H226.581V325.388H228.151C228.251 325.388 228.342 325.36 228.424 325.309C228.592 325.202 228.705 324.999 228.705 324.767ZM228.705 328.287C228.705 328.065 228.601 327.872 228.446 327.763H222.321V328.894H228.264C228.514 328.836 228.705 328.584 228.705 328.287Z" fill="#930043"/>
<defs>
<clipPath id="clip0_929_2369">
<rect width="20.072" height="29.3157" fill="white" transform="translate(167.309 284.391)"/>
</clipPath>
</defs>
</svg>
