<?xml version="1.0" encoding="UTF-8"?>
<svg xmlns="http://www.w3.org/2000/svg" width="25" height="25" viewBox="0 0 25 25" fill="none">
  <path d="M13.8397 11.1274C13.4983 10.9433 13.0894 11.004 12.8176 11.2516C12.4542 11.1943 12.0783 11.3661 11.8928 11.7075C11.7797 11.9164 11.7548 12.1571 11.8224 12.3854C11.89 12.6137 12.0424 12.8013 12.2521 12.9144L13.2121 13.4344C13.2632 13.462 13.3197 13.4765 13.3763 13.4765C13.4094 13.4765 13.4425 13.4716 13.4749 13.462C13.5625 13.4358 13.6363 13.3758 13.6797 13.2958L14.1997 12.3351C14.3128 12.1261 14.3377 11.8854 14.2701 11.6571C14.2018 11.4288 14.0494 11.2412 13.8397 11.1274ZM13.5935 12.0068L13.2376 12.664L12.5811 12.3082C12.4838 12.2558 12.4473 12.1337 12.4997 12.0357C12.5362 11.9688 12.6052 11.9302 12.6769 11.9302C12.7094 11.9302 12.7418 11.9378 12.7721 11.9544C12.8521 11.9978 12.9466 12.0068 13.0342 11.9819C13.1218 11.9557 13.1956 11.8957 13.239 11.8157C13.2921 11.7185 13.4149 11.6819 13.5121 11.7344C13.559 11.7599 13.5935 11.8019 13.6094 11.8537C13.6239 11.9054 13.6183 11.9599 13.5935 12.0068Z" fill="black"></path>
  <path d="M6.03221 9.42803C5.88876 8.95836 5.38874 8.69422 4.92183 8.83491C4.69355 8.90388 4.50665 9.05768 4.39492 9.26734C4.33078 9.38734 4.29561 9.517 4.29009 9.64873C4.18388 9.72666 4.09491 9.82804 4.03146 9.94804C3.91904 10.1577 3.8956 10.3991 3.96456 10.626C4.08112 11.0101 4.43561 11.2584 4.817 11.2584C4.90252 11.2584 4.98942 11.246 5.07563 11.2198L6.12049 10.9026C6.30256 10.8467 6.40532 10.655 6.35015 10.4722L6.03221 9.42803ZM4.87493 10.5605C4.82252 10.5763 4.76872 10.5701 4.72114 10.546C4.67424 10.5205 4.63907 10.4784 4.62389 10.4267C4.60803 10.3756 4.61355 10.3212 4.63838 10.2736C4.66389 10.226 4.70596 10.1915 4.757 10.1756C4.84459 10.1487 4.91769 10.0887 4.96114 10.008C5.0039 9.92735 5.01356 9.83287 4.98735 9.74528C4.97149 9.69424 4.97701 9.63976 5.00183 9.59217C5.02735 9.54459 5.06942 9.5101 5.12115 9.49424C5.14046 9.48803 5.15977 9.48527 5.17908 9.48527C5.26529 9.48527 5.34529 9.54183 5.3715 9.62804L5.58875 10.3425L4.87493 10.5605Z" fill="black"></path>
  <path d="M10.1216 8.40119C10.1678 8.54809 10.3037 8.64119 10.4499 8.64119C10.4844 8.64119 10.5202 8.63637 10.5547 8.62464L11.5947 8.29291C12.0623 8.14325 12.3216 7.64116 12.172 7.17357C12.0541 6.8039 11.7161 6.56527 11.3485 6.55424C11.1271 6.26113 10.7354 6.12526 10.3664 6.24181C10.1395 6.31423 9.95468 6.47079 9.84571 6.68183C9.73675 6.89287 9.71606 7.13494 9.78916 7.36116L10.1216 8.40119ZM10.4595 6.99839C10.4844 6.9508 10.5257 6.91563 10.5768 6.89907C10.5968 6.89218 10.6175 6.88942 10.6375 6.88942C10.723 6.88942 10.8023 6.9439 10.8299 7.02942C10.8878 7.21012 11.0823 7.3115 11.263 7.25288C11.3685 7.21977 11.4816 7.27771 11.5161 7.38323C11.5499 7.48875 11.4913 7.60185 11.3858 7.63634L10.674 7.86324L10.4464 7.1515C10.4306 7.10046 10.4347 7.04598 10.4595 6.99839Z" fill="black"></path>
  <path d="M18.9468 14.2993C18.8875 14.0689 18.742 13.8751 18.5371 13.7544C18.1158 13.5054 17.5682 13.6461 17.3171 14.0689L16.7626 15.0096C16.6661 15.1738 16.7205 15.3848 16.884 15.4821L17.824 16.0366C17.9633 16.1193 18.1185 16.1614 18.2758 16.1614C18.3502 16.1614 18.4254 16.1517 18.4992 16.1324C18.7296 16.0731 18.9234 15.9276 19.0441 15.7228C19.2413 15.3889 19.1944 14.9772 18.9585 14.6965C18.9841 14.5655 18.9806 14.431 18.9468 14.2993ZM18.4502 15.3717C18.4227 15.4179 18.3792 15.4503 18.3275 15.4641C18.2758 15.4779 18.2213 15.4703 18.1751 15.4421L17.5323 15.0627L17.9116 14.4193C17.9682 14.3227 18.0909 14.291 18.1875 14.3482C18.2827 14.4048 18.3144 14.5282 18.2585 14.6234C18.162 14.7876 18.2164 14.9986 18.3806 15.0958C18.4744 15.1524 18.5061 15.2758 18.4502 15.3717Z" fill="black"></path>
  <path d="M21.7743 13.5903C21.0736 11.5751 18.9363 10.4592 16.908 10.9847C16.4735 9.99708 15.6562 9.22327 14.6486 8.8336C15.0376 6.77975 13.7913 4.72245 11.7472 4.15071C10.6975 3.85967 9.59882 3.99278 8.65396 4.52727C7.80566 5.0066 7.17047 5.75903 6.83805 6.66733C4.78282 6.27077 2.72069 7.52046 2.15102 9.57569C1.85929 10.6226 1.99308 11.7199 2.52758 12.6661C3.06277 13.6137 3.93521 14.2951 4.9842 14.5869L10.0512 15.9952L11.792 21.0022C11.8416 21.145 11.9754 21.2333 12.1175 21.2333C12.1547 21.2333 12.1934 21.2271 12.2306 21.2139L19.2653 18.7656C21.3847 18.0304 22.5109 15.7083 21.7743 13.5903ZM5.16835 13.9227C4.2966 13.6806 3.57244 13.1144 3.12829 12.3275C2.68414 11.5413 2.5731 10.6302 2.81587 9.76052C3.31381 7.96461 5.17938 6.90872 6.97667 7.40805C7.16081 7.45701 7.35048 7.35149 7.40151 7.16804C7.64359 6.29629 8.20912 5.57144 8.99397 5.12798C9.77951 4.68383 10.6926 4.57348 11.5623 4.81487C13.2403 5.28385 14.2562 6.95838 13.9686 8.64394C13.2603 8.50532 12.5361 8.54394 11.8527 8.78464C10.8244 9.14189 9.99676 9.87846 9.52295 10.8578C9.04983 11.8351 8.98638 12.9379 9.34295 13.96L9.77537 15.2034L5.16835 13.9227ZM19.0391 18.1159L12.3292 20.4512L9.99469 13.7351C9.69813 12.8854 9.75123 11.9702 10.1437 11.1592C10.5368 10.3454 11.2244 9.73363 12.0803 9.43638C12.4403 9.30948 12.8141 9.24672 13.1893 9.24672C13.5107 9.24672 13.8334 9.29293 14.15 9.38672C15.1907 9.69707 16.0238 10.4943 16.3776 11.5206C16.4073 11.6068 16.4707 11.6785 16.5528 11.7185C16.6342 11.7578 16.7301 11.764 16.8163 11.7337C18.5798 11.1233 20.5102 12.0565 21.1226 13.8179C21.7343 15.5752 20.7991 17.5042 19.0391 18.1159Z" fill="black"></path>
</svg>
