<svg width="170" height="54" viewBox="0 0 170 54" fill="none" xmlns="http://www.w3.org/2000/svg">
<g clip-path="url(#clip0_842_1987)">
<path fill-rule="evenodd" clip-rule="evenodd" d="M12.2835 18.0427H15.1313C16.6897 18.0427 17.979 19.3233 17.979 20.9028V26.3526C30.305 22.468 42.6594 28.302 45.9747 39.8134C46.1872 40.5391 46.3572 41.2791 46.4847 42.0332C45.9463 40.9233 45.3229 39.8846 44.6146 38.917C41.3559 47.7249 32.9261 54 23.0228 54C10.3142 54 0 43.6411 0 30.8632C0 18.0854 10.3142 7.74072 23.0228 7.74072C24.4112 7.74072 25.7713 7.86879 27.1031 8.09645V13.034C25.7855 12.7352 24.4254 12.5787 23.0228 12.5787C12.9636 12.5787 4.8029 20.7747 4.8029 30.8775C4.8029 32.2293 4.94458 33.5383 5.22794 34.8047C7.19727 32.4996 9.57747 30.4791 12.2835 28.8854V18.0427ZM34.7254 10.9565V16.8617C38.5365 20.0775 41.0159 24.83 41.2143 30.166C42.9852 31.8308 44.4162 33.7802 45.493 35.9289C45.8613 34.3067 46.0455 32.6134 46.0455 30.8632C46.0455 22.3826 41.4976 14.9692 34.7254 10.9423V10.9565ZM17.979 31.5605V42.9012C17.979 44.4664 16.7039 45.7613 15.1313 45.7613H12.4252C15.4146 47.9099 19.0699 49.1763 23.0228 49.1763C26.9756 49.1763 30.6309 47.9099 33.6203 45.7613H30.9142C29.3558 45.7613 28.0665 44.4806 28.0665 42.9012V29.9953C24.8079 29.8103 21.4076 30.2941 18.0357 31.532L17.9648 31.5605H17.979ZM33.762 31.0625V45.6617C37.2614 43.0862 39.8258 39.287 40.8034 34.8901C38.7207 33.1968 36.3405 31.902 33.762 31.0625ZM6.88557 39.3723C8.18902 41.8625 10.045 44.0111 12.2835 45.6617V34.5202C10.2575 35.9004 8.44404 37.5368 6.88557 39.3723Z" fill="#25395C"/>
<path fill-rule="evenodd" clip-rule="evenodd" d="M30.9141 7.12885H33.7619V25.5984C32.3451 25.0862 30.8716 24.702 29.3698 24.4743C28.9306 24.4032 28.5056 24.3462 28.0664 24.3036V9.9747C28.0664 8.40949 29.3415 7.11462 30.9141 7.11462V7.12885Z" fill="#F2A843"/>
<path fill-rule="evenodd" clip-rule="evenodd" d="M28.0664 0H30.9141C32.4726 0 33.7619 1.28063 33.7619 2.86008V5.72016H28.0664V0Z" fill="#F2A843"/>
<path d="M170 28.3447H55.3965V44.1249H170V28.3447Z" fill="#25395C"/>
<path fill-rule="evenodd" clip-rule="evenodd" d="M157.178 25.1146V8.15332H162.604V20.6039H169.985V25.1146H157.178Z" fill="#25395C"/>
<path fill-rule="evenodd" clip-rule="evenodd" d="M137.994 8.15334H143.42V18.6118C143.42 19.5794 143.619 20.2767 144.03 20.6751C144.426 21.0877 145.092 21.2869 146.041 21.2869C146.991 21.2869 147.614 21.0877 148.011 20.6751C148.408 20.2767 148.606 19.5794 148.606 18.5976V8.13911H154.032V19.0245C154.032 21.1446 153.352 22.7668 151.978 23.8909C150.618 25.015 148.634 25.5699 146.041 25.5699C143.449 25.5699 141.451 25.0008 140.063 23.8767C138.688 22.7525 137.994 21.1304 137.994 19.0103V8.12488V8.15334Z" fill="#25395C"/>
<path fill-rule="evenodd" clip-rule="evenodd" d="M123.203 25.1146V8.15332H135.983V12.4221H128.629V15.0403H134.467V19.1383H128.629V25.1146H123.203Z" fill="#25395C"/>
<path fill-rule="evenodd" clip-rule="evenodd" d="M105.877 25.1146V8.15332H112.819C114.363 8.15332 115.582 8.2387 116.474 8.42368C117.381 8.60866 118.132 8.89324 118.727 9.29166C119.506 9.81814 120.087 10.4727 120.47 11.2553C120.852 12.0379 121.051 12.9628 121.051 14.0442C121.051 15.9367 120.484 17.3881 119.379 18.3984C118.26 19.4087 116.645 19.9067 114.548 19.9067H111.303V25.1004H105.877V25.1146ZM111.303 15.7802H113.046C114.179 15.7802 114.93 15.6521 115.313 15.396C115.695 15.1399 115.879 14.6988 115.879 14.0442C115.879 13.3897 115.695 12.9343 115.327 12.6925C114.959 12.4363 114.193 12.3083 113.032 12.3083H111.289V15.7802H111.303Z" fill="#25395C"/>
<path fill-rule="evenodd" clip-rule="evenodd" d="M90.8594 25.1146V8.15332H96.2857V20.6039H103.667V25.1146H90.8594Z" fill="#25395C"/>
<path fill-rule="evenodd" clip-rule="evenodd" d="M74.4941 12.2087V8.15332H87.9961V12.2087H79.9204H74.4941Z" fill="#F2A843"/>
<path fill-rule="evenodd" clip-rule="evenodd" d="M74.4941 25.1146V14.4711H79.9204H86.7493V18.3699H79.9204V20.9881H88.322V25.1146H74.4941Z" fill="#25395C"/>
<path fill-rule="evenodd" clip-rule="evenodd" d="M55.3965 25.1146V8.15332H60.8228V13.9019H65.8665V8.15332H71.2928V25.1146H65.8665V18.5264H60.8228V25.1146H55.3965Z" fill="#25395C"/>
<path fill-rule="evenodd" clip-rule="evenodd" d="M57.8468 52.6055V50.5423L55.8066 47.0277H57.7901L58.7536 48.9344L59.717 47.0277H61.6296L59.632 50.5423V52.6055H57.8468ZM64.5199 49.8166C64.5199 50.3431 64.6049 50.7273 64.7891 50.9834C64.9591 51.2253 65.2424 51.3534 65.6108 51.3534C65.9792 51.3534 66.2625 51.2253 66.4325 50.9834C66.6025 50.7415 66.6875 50.3431 66.6875 49.8166C66.6875 49.2901 66.6025 48.8917 66.4325 48.6498C66.2625 48.4079 65.9792 48.2798 65.6108 48.2798C65.2424 48.2798 64.9591 48.4079 64.7891 48.6498C64.619 48.8917 64.5199 49.2901 64.5199 49.8166ZM62.7206 49.8166C62.7206 48.9059 62.9756 48.1945 63.4998 47.668C64.0098 47.1415 64.7182 46.8854 65.6108 46.8854C66.5034 46.8854 67.1976 47.1415 67.7218 47.668C68.2318 48.1945 68.501 48.9059 68.501 49.8166C68.501 50.7273 68.246 51.4387 67.7218 51.9652C67.2118 52.4917 66.5034 52.7478 65.6108 52.7478C64.7182 52.7478 64.0098 52.4775 63.4998 51.9652C62.9897 51.4387 62.7206 50.7273 62.7206 49.8166ZM70.3145 47.0277H72.0997V50.4569C72.0997 50.77 72.1705 50.9976 72.298 51.1399C72.4255 51.2822 72.6522 51.3391 72.9639 51.3391C73.2756 51.3391 73.4881 51.268 73.6156 51.1399C73.7431 51.0119 73.814 50.7842 73.814 50.4569V47.0277H75.5991V50.5992C75.5991 51.2964 75.3724 51.8372 74.9191 52.1929C74.4657 52.5628 73.814 52.7478 72.9639 52.7478C72.1138 52.7478 71.4479 52.5628 70.9946 52.1929C70.5412 51.8229 70.3145 51.2964 70.3145 50.5992V47.0277Z" fill="#F2A843"/>
<path fill-rule="evenodd" clip-rule="evenodd" d="M81.3646 52.6055V48.4933H79.7637V47.0276H84.7366V48.4933H83.1356V52.6055H81.3505H81.3646ZM86.3517 52.6055V47.0276H88.1369V48.9201H89.7945V47.0276H91.5797V52.6055H89.7945V50.4427H88.1369V52.6055H86.3517ZM93.6765 52.6055V47.0276H95.49V52.6055H93.6765ZM97.601 52.6055V47.0276H99.287L100.845 49.6174C100.888 49.6885 100.945 49.7881 101.001 49.9304C101.058 50.0585 101.115 50.2292 101.171 50.4142C101.157 50.3146 101.143 50.2008 101.143 50.0869C101.143 49.9731 101.143 49.8308 101.143 49.6601V47.0276H102.843V52.6055H101.143L99.5845 50.03C99.542 49.9589 99.4853 49.845 99.4286 49.7027C99.372 49.5605 99.3153 49.4039 99.2586 49.219C99.2728 49.3186 99.287 49.4182 99.3011 49.532C99.3011 49.6458 99.3011 49.7881 99.3011 49.9873V52.6055H97.6152H97.601ZM104.912 52.6055V47.0276H106.683V48.8775L108.284 47.0276H110.352L108.369 49.0767L110.607 52.5913H108.482L107.122 50.3573L106.683 50.8126V52.5913H104.912V52.6055Z" fill="#F2A843"/>
<path fill-rule="evenodd" clip-rule="evenodd" d="M115.383 52.6055L114.051 47.0276H115.793L116.403 50.6277L117.097 47.0276H118.57L119.236 50.6277L119.817 47.0276H121.517L120.2 52.6055H118.429L117.791 49.2616L117.182 52.6055H115.383ZM123.132 52.6055V47.0276H127.567V48.3652H124.918V49.1051H127.156V50.3858H124.918V51.2395H127.68V52.5913H123.132V52.6055Z" fill="#25395C"/>
<path fill-rule="evenodd" clip-rule="evenodd" d="M135.672 50.4427H137.357C137.301 51.1826 137.046 51.7518 136.578 52.1502C136.111 52.5486 135.487 52.7621 134.694 52.7621C133.801 52.7621 133.107 52.5059 132.597 51.9794C132.087 51.453 131.832 50.7415 131.832 49.8308C131.832 48.9202 132.087 48.2087 132.583 47.6822C133.093 47.1557 133.773 46.8996 134.651 46.8996C135.459 46.8996 136.082 47.0988 136.55 47.483C137.017 47.8672 137.272 48.4364 137.329 49.162H135.629C135.601 48.8775 135.516 48.664 135.36 48.5217C135.204 48.3794 134.977 48.3083 134.694 48.3083C134.34 48.3083 134.085 48.4364 133.901 48.6925C133.731 48.9486 133.631 49.3328 133.631 49.8593C133.631 50.3858 133.731 50.7557 133.915 51.0118C134.099 51.268 134.368 51.396 134.736 51.396C135.02 51.396 135.232 51.3107 135.388 51.1541C135.544 50.9976 135.643 50.77 135.672 50.4711V50.4427ZM140.899 49.4182H141.707C141.99 49.4182 142.189 49.3755 142.288 49.3043C142.401 49.2332 142.444 49.0909 142.444 48.9059C142.444 48.7209 142.387 48.5644 142.288 48.4933C142.175 48.4221 141.962 48.3794 141.65 48.3794H140.885V49.4324L140.899 49.4182ZM139.143 52.5913V47.0134H141.792C142.628 47.0134 143.223 47.1415 143.577 47.3834C143.931 47.6395 144.116 48.0379 144.116 48.6071C144.116 48.9486 144.045 49.2332 143.903 49.4609C143.761 49.6885 143.535 49.8593 143.223 49.9873C143.535 50.0585 143.761 50.1866 143.903 50.3715C144.045 50.5707 144.116 50.8411 144.13 51.2253L144.158 52.0079C144.158 52.0079 144.158 52.0079 144.158 52.0221C144.158 52.2498 144.215 52.3636 144.314 52.3779V52.5913H142.515C142.486 52.4632 142.458 52.3352 142.444 52.2356C142.43 52.136 142.415 52.0648 142.415 52.0079V51.453C142.415 51.1684 142.359 50.9692 142.245 50.8411C142.132 50.7273 141.934 50.6704 141.665 50.6704H140.914V52.5913H139.157H139.143ZM146.057 52.5913V47.0134H150.491V48.351H147.842V49.0909H150.08V50.3715H147.842V51.2253H150.604V52.5771H146.057V52.5913ZM154.203 50.6846H155.322L154.77 48.7494L154.203 50.6846ZM151.908 52.5913L153.863 47.0134H155.662L157.618 52.5913H155.847L155.634 51.8514H153.863L153.651 52.5913H151.894H151.908ZM160.04 52.5913V48.479H158.439V47.0134H163.412V48.479H161.811V52.5913H160.026H160.04ZM165.027 52.5913V47.0134H169.462V48.351H166.812V49.0909H169.051V50.3715H166.812V51.2253H169.575V52.5771H165.027V52.5913Z" fill="#25395C"/>
<path fill-rule="evenodd" clip-rule="evenodd" d="M62.3242 41.1083V31.347H65.4836V41.1083H62.3242ZM74.0835 41.1083V31.347H77.0304L79.7365 35.8861C79.8215 36.0142 79.9065 36.1992 80.0057 36.4269C80.1049 36.6688 80.204 36.9391 80.3032 37.2806C80.2749 37.1099 80.2607 36.9249 80.2465 36.7114C80.2465 36.5122 80.2324 36.2561 80.2324 35.9573V31.3612H83.1935V41.1225H80.2324L77.5263 36.6118C77.4413 36.4838 77.3563 36.2988 77.2571 36.0569C77.158 35.815 77.0588 35.5304 76.9596 35.2174C76.9879 35.3881 77.0163 35.5731 77.0304 35.7581C77.0304 35.9431 77.0446 36.2134 77.0446 36.5549V41.1225H74.0977L74.0835 41.1083ZM91.2833 38.0632H94.301C94.3861 38.419 94.5277 38.6751 94.7544 38.8174C94.9669 38.9739 95.2928 39.045 95.732 39.045C96.0862 39.045 96.3837 38.9881 96.5821 38.8601C96.7946 38.732 96.8938 38.5612 96.8938 38.3336C96.8938 37.9778 96.4546 37.6933 95.5903 37.4798C95.4203 37.4371 95.2786 37.4087 95.1936 37.3802C94.4852 37.1952 93.9185 37.0245 93.4935 36.868C93.0684 36.7114 92.7709 36.5692 92.5726 36.4411C92.2042 36.1707 91.9209 35.8435 91.7367 35.4735C91.5525 35.1035 91.4533 34.6624 91.4533 34.1929C91.4533 33.2253 91.8075 32.4711 92.5301 31.9162C93.2526 31.3612 94.2444 31.0909 95.5053 31.0909C96.7663 31.0909 97.7297 31.3612 98.4381 31.8877C99.1465 32.4142 99.5573 33.1684 99.6423 34.1644H96.6954C96.6529 33.8798 96.5254 33.6664 96.3129 33.5241C96.1145 33.3818 95.817 33.3107 95.4345 33.3107C95.1086 33.3107 94.8536 33.3676 94.6977 33.4814C94.5419 33.5952 94.4569 33.766 94.4569 33.9794C94.4569 34.3067 94.8819 34.5771 95.732 34.7905C95.8028 34.819 95.8595 34.8332 95.902 34.8332C96.0295 34.8616 96.2137 34.9043 96.4687 34.9755C97.588 35.2601 98.3247 35.5162 98.6789 35.7581C99.104 36.0427 99.4156 36.3699 99.614 36.7399C99.8123 37.1099 99.9115 37.5367 99.9115 38.0348C99.9115 39.1162 99.5432 39.9415 98.7923 40.5107C98.0414 41.0941 96.9788 41.3786 95.5903 41.3786C94.3011 41.3786 93.2951 41.0941 92.5442 40.5107C91.7933 39.9273 91.3683 39.1162 91.2833 38.0632ZM108.086 41.1083V31.347H111.246V41.1083H108.086ZM127.043 41.1083L126.887 40.2688C126.533 40.6387 126.108 40.9233 125.626 41.1083C125.13 41.2933 124.564 41.3786 123.898 41.3786C122.509 41.3786 121.418 40.9233 120.625 39.9984C119.832 39.0877 119.435 37.8213 119.435 36.2276C119.435 34.634 119.874 33.3391 120.767 32.4284C121.659 31.532 122.892 31.0767 124.507 31.0767C125.768 31.0767 126.788 31.3897 127.553 32.03C128.332 32.6561 128.786 33.5525 128.927 34.7051H125.98C125.867 34.3209 125.669 34.0221 125.414 33.8229C125.144 33.6237 124.819 33.5241 124.436 33.5241C123.813 33.5241 123.345 33.766 123.048 34.2498C122.736 34.7336 122.58 35.445 122.58 36.3984C122.58 37.2806 122.736 37.9352 123.048 38.3763C123.359 38.8174 123.827 39.0308 124.464 39.0308C124.918 39.0308 125.3 38.9312 125.626 38.7178C125.938 38.5043 126.136 38.2197 126.221 37.8498H124.819V35.7581H129.069V41.1083H127.071H127.043ZM137.513 41.1083V31.347H140.616V34.6624H143.506V31.347H146.609V41.1083H143.506V37.3233H140.616V41.1083H137.513ZM157.178 41.1083V33.9225H154.401V31.3612H163.072V33.9225H160.295V41.1083H157.192H157.178Z" fill="white"/>
</g>
<defs>
<clipPath id="clip0_842_1987">
<rect width="170" height="54" fill="white"/>
</clipPath>
</defs>
</svg>
