<svg xmlns="http://www.w3.org/2000/svg" width="200" height="41" viewBox="0 0 200 41" fill="none">
<g clip-path="url(#clip0_13094_2695)">
<g clip-path="url(#clip1_13094_2695)">
<g clip-path="url(#clip2_13094_2695)">
<path d="M7.15898 18.5241C10.5816 18.5747 14.0042 16.9347 13.9786 13.4711C13.9786 11.2644 12.6563 9.31727 8.01383 8.21233C5.08428 7.5443 2.6446 7.0314 2.6446 5.2616C2.6446 3.49179 4.77052 2.62113 6.8196 2.62113C9.10241 2.62113 11.5645 3.64692 13.3799 5.03048V2.23804C12.2401 1.41804 9.98607 0.161133 6.8196 0.161133C3.32015 0.161133 0 2.03225 0 5.26476C0 7.85457 2.02347 9.26662 6.17286 10.2133C10.0117 11.1124 11.334 12.0337 11.334 13.4964C11.334 15.2409 9.38736 16.0356 7.31266 16.0356C4.90179 16.0356 2.41087 15.0098 0.20811 13.0342V15.8298C2.18035 17.5996 4.48877 18.4956 7.15898 18.5241Z" fill="black"/>
<path d="M24.8066 18.2418V15.7533C21.797 16.7032 20.3979 15.8293 20.3979 13.9835V6.95814H24.7554V4.72609H20.3979V0.572266L17.8301 1.31628V4.72609H15.1055V6.95814H17.8301V14.012C17.8301 17.8841 20.6572 19.3215 24.8066 18.245V18.2418Z" fill="black"/>
<path d="M32.8749 18.5235C35.4683 18.5235 38.1 17.1906 39.1566 15.0567L36.9698 14.2937C36.035 15.5 34.4789 16.244 32.8717 16.244C30.5889 16.244 28.6967 14.756 28.3861 12.4479H39.7969C39.9538 11.8052 39.8994 11.0897 39.7713 10.4217C39.2527 7.08785 36.3743 4.49805 32.8717 4.49805C28.9816 4.49805 25.8184 7.60075 25.8184 11.5235C25.8184 15.4462 28.8792 18.5235 32.8717 18.5235H32.8749ZM37.258 10.4723H28.3893C28.6999 8.44608 30.464 6.78075 32.8493 6.78075C35.2345 6.78075 36.9218 8.44924 37.258 10.4723Z" fill="black"/>
<path d="M114.367 18.5235C116.96 18.5235 119.592 17.1906 120.649 15.0567L118.462 14.2937C117.527 15.5 115.971 16.244 114.364 16.244C112.081 16.244 110.189 14.756 109.878 12.4479H121.289C121.446 11.8052 121.392 11.0897 121.264 10.4217C120.745 7.08785 117.867 4.49805 114.364 4.49805C110.474 4.49805 107.311 7.60075 107.311 11.5235C107.311 15.4462 110.371 18.5235 114.364 18.5235H114.367ZM118.75 10.4723H109.882C110.192 8.44608 111.956 6.78075 114.341 6.78075C116.727 6.78075 118.414 8.44924 118.75 10.4723Z" fill="black"/>
<path d="M153.4 18.5235C155.994 18.5235 158.625 17.1906 159.682 15.0567L157.495 14.2937C156.56 15.5 155.004 16.244 153.397 16.244C151.114 16.244 149.222 14.756 148.912 12.4479H160.322C160.479 11.8052 160.425 11.0897 160.297 10.4217C159.778 7.08785 156.9 4.49805 153.397 4.49805C149.507 4.49805 146.344 7.60075 146.344 11.5235C146.344 15.4462 149.405 18.5235 153.397 18.5235H153.4ZM157.783 10.4723H148.915C149.225 8.44608 150.989 6.78075 153.375 6.78075C155.76 6.78075 157.447 8.44924 157.783 10.4723Z" fill="black"/>
<path d="M42.0371 18.3185H44.6305V0.367188H42.0371V18.3185Z" fill="black"/>
<path d="M47.6074 18.3185H50.2008V0.367188H47.6074V18.3185Z" fill="black"/>
<path d="M59.2236 18.5247C61.2727 18.5247 62.9568 17.5749 63.9685 16.1661V18.319H66.5619V4.72721H63.9685V6.88011C62.9568 5.46806 61.2727 4.49609 59.2236 4.49609C55.4104 4.49609 52.3496 7.5988 52.3496 11.5215C52.3496 15.4442 55.4104 18.5216 59.2236 18.5216V18.5247ZM59.4574 16.1914C56.8384 16.1914 54.7893 14.0891 54.7893 11.5247C54.7893 8.96019 56.8128 6.83262 59.4574 6.83262C62.102 6.83262 64.1254 8.98552 64.1254 11.5247C64.1254 14.0638 62.0251 16.1914 59.4574 16.1914Z" fill="black"/>
<path d="M69.4297 18.3182H72.0231V11.4447C72.0231 8.23755 74.5908 6.62287 77.4691 7.41755V4.6726C74.6933 4.23569 72.8267 5.39129 72.0231 7.18643V4.72326H69.4297V18.315V18.3182Z" fill="black"/>
<path d="M86.5469 18.3244H99.36V15.8612H89.2203V10.5518H98.3227V8.14247H89.2203V2.83621H99.36V0.373047H86.5469V18.3244Z" fill="black"/>
<path d="M102.299 18.3244H104.892V0.373047H102.299V18.3244Z" fill="black"/>
<path d="M123.41 18.3248H126.004V10.9891C126.004 8.83624 127.118 6.83531 129.506 6.83531C131.373 6.83531 132.541 8.27269 132.541 10.7074V18.3248H135.135V10.6314C135.237 8.65578 136.38 6.83531 138.637 6.83531C140.555 6.83531 141.673 8.27269 141.673 10.7074V18.3248H144.266V10.0425C144.266 6.45222 141.801 4.50195 139.13 4.50195C137.184 4.50195 135.343 5.55307 134.411 7.29755C133.531 5.45176 131.843 4.50195 130.002 4.50195C128.161 4.50195 126.788 5.50242 126.01 6.734V4.73307H123.417V18.3248H123.41Z" fill="black"/>
<path d="M162.562 18.3248H165.156V11.3501C165.156 8.78558 166.814 6.88914 169.177 6.88914C171.124 6.88914 172.859 8.30118 172.859 10.7865V18.3248H175.453V10.0425C175.453 6.55354 172.677 4.50195 169.67 4.50195C167.519 4.50195 166.014 5.55307 165.159 6.80998V4.73307H162.566V18.3248H162.562Z" fill="black"/>
<path d="M186.605 18.2487V15.7602C183.596 16.71 182.197 15.8362 182.197 13.9904V6.96497H186.554V4.73292H182.197V0.579102L179.629 1.32312V4.73292H176.904V6.96497H179.629V14.0189C179.629 17.8909 182.456 19.3283 186.605 18.2518V18.2487Z" fill="black"/>
<path d="M194.529 18.5306C197.225 18.5306 200 17.4035 200 14.5826C199.975 12.6576 198.704 11.2741 195.332 10.5047C192.998 9.99184 191.209 9.76072 191.209 8.50381C191.209 7.40203 192.48 6.70867 194.113 6.70867C195.46 6.70867 197.25 7.17091 199.456 8.50381V6.01531C198.159 5.16998 196.213 4.50195 194.113 4.50195C191.052 4.50195 188.535 5.93933 188.535 8.52914C188.535 10.7105 190.274 11.7363 193.619 12.4012C196.187 12.8888 197.327 13.5568 197.327 14.5541C197.327 15.6305 196.03 16.2732 194.526 16.2732C192.32 16.2732 189.857 15.0163 188.769 13.9652V16.6595C190.482 17.8151 192.502 18.5306 194.526 18.5306H194.529Z" fill="black"/>
</g>
</g>
<path d="M85.2813 35.5967L88.3075 27.6092H89.2863L92.3238 35.5967H91.3L90.58 33.6504H87.0138L86.305 35.5967H85.2813ZM87.3288 32.7954H90.2763L88.8025 28.7904H88.78L87.3288 32.7954ZM93.57 35.5967V30.1179H94.4813V31.1079H94.4925C94.92 30.4442 95.64 30.0504 96.4838 30.0504C97.665 30.0504 98.4525 30.7817 98.4525 32.3454V35.5967H97.5413V32.6042C97.5413 31.3217 96.99 30.8829 96.1913 30.8829C95.1563 30.8829 94.4813 31.6254 94.4813 32.8629V35.5967H93.57ZM102.768 35.5967L105.795 27.6092H106.773L109.811 35.5967H108.787L108.067 33.6504H104.501L103.792 35.5967H102.768ZM104.816 32.7954H107.763L106.29 28.7904H106.267L104.816 32.7954ZM111.057 35.5967V30.1179H111.968V31.1079H111.98C112.396 30.4442 113.082 30.0504 113.813 30.0504C114.635 30.0504 115.231 30.4667 115.512 31.2204H115.523C115.94 30.4779 116.682 30.0504 117.537 30.0504C118.752 30.0504 119.427 30.8829 119.427 32.4467V35.5967H118.516V32.6942C118.516 31.5242 118.1 30.8829 117.267 30.8829C116.412 30.8829 115.726 31.6479 115.726 32.8742V35.5967H114.815V32.6942C114.815 31.5242 114.365 30.8829 113.543 30.8829C112.643 30.8829 111.968 31.6479 111.968 32.8742V35.5967H111.057ZM123.452 35.6642C121.933 35.6642 120.763 34.5617 120.763 32.8967C120.763 31.2767 121.9 30.0504 123.441 30.0504C124.273 30.0504 124.982 30.4329 125.398 31.0967H125.41V27.3167H126.321V35.5967H125.443V34.5842H125.432C125.038 35.2479 124.341 35.6642 123.452 35.6642ZM123.576 34.8317C124.611 34.8317 125.443 34.0554 125.443 32.8967C125.443 31.7717 124.69 30.8829 123.587 30.8829C122.541 30.8829 121.697 31.6817 121.697 32.8967C121.697 33.9992 122.462 34.8317 123.576 34.8317ZM130.621 35.6642C128.923 35.6642 127.786 34.4379 127.786 32.8629C127.786 31.2879 128.923 30.0504 130.621 30.0504C132.241 30.0504 133.445 31.1979 133.445 32.8629C133.445 34.5279 132.241 35.6642 130.621 35.6642ZM130.621 34.8317C131.668 34.8317 132.511 34.0329 132.511 32.8629C132.511 31.6929 131.679 30.8829 130.621 30.8829C129.474 30.8829 128.72 31.7717 128.72 32.8629C128.72 33.9542 129.485 34.8317 130.621 34.8317ZM137.301 35.6642C135.704 35.6642 134.568 34.5279 134.568 32.8629C134.568 31.2092 135.704 30.0504 137.335 30.0504C138.156 30.0504 139 30.3879 139.54 31.0292L138.921 31.5804C138.573 31.1754 138.033 30.8829 137.38 30.8829C136.255 30.8829 135.501 31.7042 135.501 32.8629C135.501 34.0329 136.255 34.8317 137.369 34.8317C138.021 34.8317 138.595 34.5504 138.933 34.1342L139.563 34.7079C139.101 35.2592 138.37 35.6642 137.301 35.6642ZM142.549 35.6642C141.638 35.6642 140.941 35.3492 140.412 34.8879L140.873 34.1904C141.301 34.6067 141.784 34.8542 142.549 34.8542C143.213 34.8542 143.596 34.5279 143.596 34.1117C143.596 33.6279 143.089 33.4929 142.291 33.2004C141.402 32.8854 140.648 32.5254 140.648 31.5242C140.648 30.6804 141.413 30.0504 142.448 30.0504C143.112 30.0504 143.731 30.2304 144.338 30.7254L143.866 31.4454C143.393 31.0067 142.887 30.8604 142.414 30.8604C141.987 30.8604 141.571 31.1079 141.571 31.5242C141.571 31.9517 142.009 32.1654 142.606 32.3792C143.764 32.8292 144.529 33.0317 144.518 34.1004C144.518 34.9554 143.866 35.6642 142.549 35.6642ZM152.865 35.6529C150.705 35.6529 148.883 34.2354 148.883 31.6254C148.883 29.3642 150.3 27.5304 152.854 27.5304C154.002 27.5304 155.127 28.0254 155.97 29.0604L155.239 29.6679C154.575 28.8467 153.754 28.4642 152.854 28.4642C151.043 28.4642 149.907 29.7917 149.907 31.6254C149.907 33.5379 151.178 34.7304 152.865 34.7304C153.9 34.7304 154.688 34.2354 155.25 33.5267L155.982 34.1454C155.284 35.0117 154.272 35.6529 152.865 35.6529ZM159.803 35.6642C158.105 35.6642 156.968 34.4379 156.968 32.8629C156.968 31.2879 158.105 30.0504 159.803 30.0504C161.423 30.0504 162.627 31.1979 162.627 32.8629C162.627 34.5279 161.423 35.6642 159.803 35.6642ZM159.803 34.8317C160.85 34.8317 161.693 34.0329 161.693 32.8629C161.693 31.6929 160.861 30.8829 159.803 30.8829C158.656 30.8829 157.902 31.7717 157.902 32.8629C157.902 33.9542 158.667 34.8317 159.803 34.8317ZM164.098 35.5967V30.1179H165.01V31.1079H165.021C165.437 30.4442 166.123 30.0504 166.855 30.0504C167.676 30.0504 168.272 30.4667 168.553 31.2204H168.565C168.981 30.4779 169.723 30.0504 170.578 30.0504C171.793 30.0504 172.468 30.8829 172.468 32.4467V35.5967H171.557V32.6942C171.557 31.5242 171.141 30.8829 170.308 30.8829C169.453 30.8829 168.767 31.6479 168.767 32.8742V35.5967H167.856V32.6942C167.856 31.5242 167.406 30.8829 166.585 30.8829C165.685 30.8829 165.01 31.6479 165.01 32.8742V35.5967H164.098ZM174.164 37.8242V30.1179H175.076V31.0854H175.087C175.503 30.4329 176.201 30.0504 177.033 30.0504C178.586 30.0504 179.699 31.2767 179.699 32.8967C179.699 34.5617 178.541 35.6642 177.033 35.6642C176.167 35.6642 175.492 35.2817 175.087 34.6517H175.076V37.8242H174.164ZM176.909 34.8317C178.012 34.8317 178.777 33.9992 178.777 32.8967C178.777 31.6817 177.933 30.8829 176.898 30.8829C175.784 30.8829 175.031 31.7717 175.031 32.8967C175.031 34.0554 175.863 34.8317 176.909 34.8317ZM183.494 35.6642C181.986 35.6642 180.827 34.5617 180.827 32.8967C180.827 31.2767 181.941 30.0504 183.494 30.0504C184.304 30.0504 185.012 30.4329 185.406 31.0967L185.429 31.0854V30.1179H186.34V35.5967H185.462V34.6067H185.451C185.057 35.2592 184.382 35.6642 183.494 35.6642ZM183.629 34.8317C184.641 34.8317 185.462 34.0554 185.462 32.8967C185.462 31.7717 184.709 30.8829 183.629 30.8829C182.594 30.8829 181.75 31.6817 181.75 32.8967C181.75 33.9992 182.504 34.8317 183.629 34.8317ZM188.089 35.5967V30.1179H189.001V31.1079H189.012C189.439 30.4442 190.159 30.0504 191.003 30.0504C192.184 30.0504 192.972 30.7817 192.972 32.3454V35.5967H192.061V32.6042C192.061 31.3217 191.509 30.8829 190.711 30.8829C189.676 30.8829 189.001 31.6254 189.001 32.8629V35.5967H188.089ZM195.185 37.8242L196.163 35.3829L193.835 30.1179H194.825L196.602 34.2804H196.625L198.278 30.1179H199.235L196.13 37.8242H195.185Z" fill="#0F172A"/>
</g>
<defs>
<clipPath id="clip0_13094_2695">
<rect width="200" height="40.4358" fill="white" transform="translate(0 0.161133)"/>
</clipPath>
<clipPath id="clip1_13094_2695">
<rect width="200" height="18.4358" fill="white" transform="translate(0 0.161133)"/>
</clipPath>
<clipPath id="clip2_13094_2695">
<rect width="200" height="18.4358" fill="white" transform="translate(0 0.161133)"/>
</clipPath>
</defs>
</svg>
