<svg width="20" height="20" viewBox="0 0 20 20" fill="none" xmlns="http://www.w3.org/2000/svg">
    <path d="M7.22461 11.9415C7.22461 13.0165 8.04961 13.8832 9.07461 13.8832H11.1663C12.0579 13.8832 12.7829 13.1248 12.7829 12.1915C12.7829 11.1748 12.3413 10.8165 11.6829 10.5832L8.32461 9.41652C7.66628 9.18318 7.22461 8.82485 7.22461 7.80818C7.22461 6.87485 7.94961 6.11652 8.84127 6.11652H10.9329C11.9579 6.11652 12.7829 6.98318 12.7829 8.05818" stroke="#930043" stroke-width="1.5" stroke-linecap="round" stroke-linejoin="round"/>
    <path d="M9.99854 4.99976V14.9998" stroke="#930043" stroke-width="1.5" stroke-linecap="round" stroke-linejoin="round"/>
    <path d="M10.0003 18.3332C14.6027 18.3332 18.3337 14.6023 18.3337 9.9999C18.3337 5.39753 14.6027 1.66656 10.0003 1.66656C5.39795 1.66656 1.66699 5.39753 1.66699 9.9999C1.66699 14.6023 5.39795 18.3332 10.0003 18.3332Z" stroke="#930043" stroke-width="1.5" stroke-linecap="round" stroke-linejoin="round"/>
    </svg>
    