<svg width="23" height="22" viewBox="0 0 23 22" fill="none" xmlns="http://www.w3.org/2000/svg">
    <path d="M11.5007 20.1668C16.5633 20.1668 20.6673 16.0628 20.6673 11.0002C20.6673 5.93755 16.5633 1.8335 11.5007 1.8335C6.43804 1.8335 2.33398 5.93755 2.33398 11.0002C2.33398 16.0628 6.43804 20.1668 11.5007 20.1668Z" stroke="white" stroke-width="1.5" stroke-linecap="round" stroke-linejoin="round"/>
    <path d="M7.83265 2.75H8.74932C6.96182 8.10333 6.96182 13.8967 8.74932 19.25H7.83265" stroke="white" stroke-width="1.5" stroke-linecap="round" stroke-linejoin="round"/>
    <path d="M14.25 2.75C16.0375 8.10333 16.0375 13.8967 14.25 19.25" stroke="white" stroke-width="1.5" stroke-linecap="round" stroke-linejoin="round"/>
    <path d="M3.25 14.6667V13.75C8.60333 15.5375 14.3967 15.5375 19.75 13.75V14.6667" stroke="white" stroke-width="1.5" stroke-linecap="round" stroke-linejoin="round"/>
    <path d="M3.25 8.25005C8.60333 6.46255 14.3967 6.46255 19.75 8.25005" stroke="white" stroke-width="1.5" stroke-linecap="round" stroke-linejoin="round"/>
    </svg>
    