<svg width="25" height="26" viewBox="0 0 25 26" fill="none" xmlns="http://www.w3.org/2000/svg">
    <path d="M12.5001 23.9251C12.3803 23.9251 12.2606 23.8885 12.1583 23.8153C12.1076 23.7786 10.8952 22.9054 9.26563 21.4478C9.07071 21.2766 8.8643 21.0935 8.65719 20.9027C7.25415 19.6095 5.24727 17.5816 3.65766 15.2646C3.47454 14.9979 3.54211 14.6328 3.80907 14.4501C4.07688 14.267 4.44079 14.3346 4.62352 14.6015C5.83313 16.3639 7.50282 18.245 9.4518 20.0409C9.65172 20.2259 9.85118 20.4021 10.0431 20.5707C11.1264 21.5396 12.032 22.2519 12.4997 22.6078C13.1261 22.1306 14.5371 21.0151 16.1103 19.5095C17.2036 18.4681 18.2145 17.3821 19.117 16.2807C19.6221 15.6517 20.0234 15.1169 20.3759 14.6019C20.559 14.3353 20.9221 14.2658 21.1907 14.4497C21.4577 14.6325 21.5256 14.9971 21.3433 15.2642C20.9725 15.8043 20.5544 16.3621 20.0272 17.0189C19.0911 18.1618 18.0466 19.2837 16.9198 20.3571C14.7446 22.4389 12.9193 23.7595 12.8426 23.8144C12.7403 23.888 12.6202 23.9251 12.5001 23.9251Z" fill="black"/>
    <path d="M23.1337 10.8316C23.0841 10.8316 23.0345 10.8255 22.9842 10.8125C22.6714 10.7305 22.4845 10.4101 22.5661 10.0973C23.1398 7.90767 22.8507 6.02322 21.6826 4.33712C20.3101 2.34392 17.8564 2.15892 16.0177 2.64759C15.9697 2.664 15.9346 2.6747 15.9041 2.68189C15.8957 2.68416 15.8873 2.68611 15.8781 2.68759C14.7413 3.0172 13.7175 3.61494 12.9141 4.41759C12.6852 4.6465 12.3145 4.6465 12.0856 4.41759C10.6955 3.02751 8.64437 2.26994 6.72789 2.44501C5.70437 2.53806 4.28156 2.94134 3.31797 4.33634C2.14914 6.02322 1.86039 7.90728 2.43414 10.0973C2.51617 10.4101 2.32883 10.7305 2.0157 10.8125C1.70367 10.8919 1.38211 10.7065 1.30047 10.3941C0.643984 7.88861 0.99875 5.62611 2.35406 3.66955C3.30695 2.29095 4.82297 1.44134 6.62234 1.27814C8.68797 1.09197 10.8917 1.82212 12.4996 3.20455C13.3804 2.44541 14.4409 1.87744 15.5975 1.549C15.6135 1.54478 15.6287 1.54095 15.6448 1.53791L15.7211 1.51384C18.5547 0.759702 21.2097 1.58439 22.647 3.67103C24.0012 5.62642 24.356 7.88892 23.6999 10.3941C23.6313 10.6573 23.3931 10.8316 23.1337 10.8316Z" fill="black"/>
    <path d="M12.3795 17.8629C12.0968 17.8629 11.8541 17.6611 11.803 17.3827L10.5579 10.6032L9.50234 14.6464C9.43977 14.8867 9.23227 15.0614 8.98469 15.0824C8.74398 15.1003 8.50367 14.9657 8.40141 14.7394L7.21352 12.1058L6.88656 12.8305C6.79195 13.0404 6.58289 13.1754 6.3525 13.1754H0.78125C0.457734 13.1754 0.195312 12.913 0.195312 12.5894C0.195312 12.2659 0.457734 12.0035 0.78125 12.0035H5.97422L6.67953 10.4394C6.86875 10.0198 7.55844 10.0198 7.74766 10.4394L8.78758 12.7451L10.0907 7.7539C10.1602 7.48804 10.3948 7.29578 10.6793 7.31632C10.9536 7.32664 11.1844 7.52578 11.234 7.79624L12.3795 14.0337L12.6641 12.4837C12.7152 12.2053 12.9579 12.0035 13.2405 12.0035H14.5311L15.2643 9.64562C15.3406 9.4007 15.5672 9.23367 15.8235 9.23367C16.0798 9.23367 16.3072 9.40078 16.3827 9.64562L17.592 13.5359L18.7173 10.478C18.7998 10.2548 19.0088 10.1034 19.2468 10.095C19.4772 10.0737 19.7038 10.2228 19.8015 10.4398L20.5064 12.0035H24.2189C24.5424 12.0035 24.8048 12.2659 24.8048 12.5894C24.8048 12.913 24.5424 13.1754 24.2189 13.1754H20.128C19.8977 13.1754 19.6886 13.0403 19.594 12.8302L19.3223 12.2278L18.0955 15.5619C18.0101 15.7927 17.7904 15.9452 17.5455 15.9452C17.5409 15.9452 17.5355 15.9452 17.5302 15.9448C17.2792 15.9387 17.0602 15.7728 16.9862 15.5332L15.8235 11.7933L15.5214 12.7634C15.4451 13.0083 15.2185 13.1753 14.9622 13.1753H13.7285L12.956 17.3826C12.9049 17.661 12.6621 17.8629 12.3795 17.8629Z" fill="black"/>
    </svg>
    