<svg width="23" height="24" viewBox="0 0 23 24" fill="none" xmlns="http://www.w3.org/2000/svg">
    <g clip-path="url(#clip0_234_2546)">
    <path d="M19.4151 7.81754L20.7088 6.64508C22.3305 5.18063 23.9073 2.23375 22.3754 0.701916C20.8436 -0.82992 17.8967 0.746838 16.4323 2.36852L15.2598 3.66227L3.1893 1.8025C2.23696 1.65426 1.26215 1.9732 0.57934 2.65602L0.139106 3.09625C0.0312934 3.20406 -0.0181206 3.35231 0.00434029 3.50504C0.0268012 3.65328 0.116645 3.78356 0.246918 3.85543L10.1747 9.28199L8.00493 11.6763C7.81625 11.8875 7.61411 12.1255 7.41196 12.3816L3.36 12.0627C3.21625 12.0492 3.08149 12.1031 2.98266 12.2019L1.68891 13.4957C1.5811 13.6035 1.53168 13.7607 1.55414 13.9134C1.5811 14.0662 1.67543 14.1964 1.81469 14.2638L5.3186 15.9843C5.28715 16.191 5.0311 16.5279 5.30512 17.0939L5.00414 17.3949C4.81547 17.5836 4.81547 17.8845 5.00414 18.0732C5.19282 18.2619 5.49379 18.2619 5.68246 18.0732L5.98344 17.7722C6.54946 18.0463 6.91782 17.7767 7.09301 17.7588L8.80903 21.2627C8.95278 21.5591 9.34809 21.622 9.57719 21.3884L10.8709 20.0947C10.9698 19.9959 11.0192 19.8566 11.0102 19.7173L10.6913 15.6699C10.9473 15.4677 11.1854 15.2656 11.3965 15.0769L13.7909 12.9072L19.2174 22.8349C19.3702 23.1134 19.752 23.1718 19.9766 22.9427L20.4168 22.5025C21.0997 21.8197 21.4186 20.8449 21.2704 19.8925L19.4151 7.81754ZM1.27114 3.32086C1.73832 2.86266 2.39868 2.65153 3.04555 2.75035L14.4961 4.51578L10.8395 8.55426L1.27114 3.32086ZM3.51274 13.0375L6.74711 13.2935C6.32485 13.9 5.94301 14.5334 5.67348 15.0859L2.85239 13.7023L3.51274 13.0375ZM10.0444 19.5691L9.37953 20.2339L7.99594 17.4129C8.55297 17.1478 9.18188 16.7615 9.78832 16.3392L10.0444 19.5691ZM10.7631 14.3627C9.72993 15.3015 7.96899 16.4964 6.99868 16.7839L6.96274 16.7929L7.93305 15.8226C8.12172 15.6339 8.12172 15.333 7.93305 15.1443C7.74438 14.9556 7.4434 14.9556 7.25473 15.1443L6.28891 16.1146C6.30239 16.0921 6.80551 14.43 8.71918 12.3187L17.1465 3.01539C18.2112 1.83395 20.6774 0.365002 21.7016 1.38473C22.7213 2.40445 21.2838 4.84371 20.0665 5.93981L10.7631 14.3627ZM19.761 21.8107L14.5321 12.2423L18.5661 8.5857L20.3315 20.0318C20.4303 20.6832 20.2192 21.3435 19.761 21.8107Z" fill="black"/>
    <path d="M19.9766 3.10988C19.5318 2.66516 18.7772 2.50793 18.1887 3.07395C18 3.25813 17.991 3.5591 18.1752 3.75227C18.3594 3.94543 18.6604 3.94992 18.8535 3.76574C19.0467 3.57707 19.2309 3.72082 19.3027 3.7882C19.3701 3.85559 19.5139 4.03977 19.3252 4.23293C19.141 4.4216 19.15 4.72707 19.3387 4.91125C19.5273 5.09543 19.8328 5.08645 20.017 4.89777C20.574 4.3093 20.4168 3.55461 19.9766 3.10988Z" fill="black"/>
    </g>
    <defs>
    <clipPath id="clip0_234_2546">
    <rect width="23" height="23" fill="white" transform="translate(0 0.0821533)"/>
    </clipPath>
    </defs>
    </svg>
    