<svg width="19" height="18" viewBox="0 0 19 18" fill="none" xmlns="http://www.w3.org/2000/svg">
    <path d="M18.4382 6.98473C18.3232 6.62891 18.0076 6.37618 17.6342 6.34253L12.5623 5.882L10.5568 1.18781C10.4089 0.843784 10.0721 0.621094 9.6979 0.621094C9.32371 0.621094 8.98693 0.843784 8.83905 1.18861L6.83349 5.882L1.76082 6.34253C1.3881 6.37699 1.07331 6.62891 0.957605 6.98473C0.841902 7.34055 0.948756 7.73083 1.23071 7.97685L5.06444 11.3391L3.93396 16.3188C3.85124 16.685 3.99335 17.0634 4.29716 17.283C4.46045 17.401 4.6515 17.4611 4.84416 17.4611C5.01027 17.4611 5.17505 17.4163 5.32293 17.3278L9.6979 14.7131L14.0713 17.3278C14.3913 17.5204 14.7947 17.5028 15.0978 17.283C15.4018 17.0628 15.5438 16.6842 15.461 16.3188L14.3306 11.3391L18.1643 7.97752C18.4462 7.73083 18.5539 7.34122 18.4382 6.98473Z" fill="#EF4335"/>
    </svg>
    