<svg width="24" height="25" viewBox="0 0 24 25" fill="none" xmlns="http://www.w3.org/2000/svg">
    <path d="M4.17038 15.8L8.70038 20.33C10.5604 22.19 13.5804 22.19 15.4504 20.33L19.8404 15.94C21.7004 14.08 21.7004 11.06 19.8404 9.19005L15.3004 4.67005C14.3504 3.72005 13.0404 3.21005 11.7004 3.28005L6.70038 3.52005C4.70038 3.61005 3.11038 5.20005 3.01038 7.19005L2.77038 12.19C2.71038 13.54 3.22038 14.85 4.17038 15.8Z" stroke="#292D32" stroke-width="1.5" stroke-linecap="round" stroke-linejoin="round"/>
    <path d="M9.5 12.5001C10.8807 12.5001 12 11.3808 12 10.0001C12 8.61935 10.8807 7.50006 9.5 7.50006C8.11929 7.50006 7 8.61935 7 10.0001C7 11.3808 8.11929 12.5001 9.5 12.5001Z" stroke="#292D32" stroke-width="1.5" stroke-linecap="round"/>
    </svg>
    