<svg width="20" height="20" viewBox="0 0 20 20" fill="none" xmlns="http://www.w3.org/2000/svg">
    <path d="M7.63363 9.05829C7.55029 9.04996 7.45029 9.04996 7.35863 9.05829C5.37529 8.99163 3.80029 7.36663 3.80029 5.36663C3.80029 3.32496 5.45029 1.66663 7.50029 1.66663C9.54196 1.66663 11.2003 3.32496 11.2003 5.36663C11.192 7.36663 9.61696 8.99163 7.63363 9.05829Z" stroke="#930043" stroke-width="1.5" stroke-linecap="round" stroke-linejoin="round"/>
    <path d="M13.6757 3.33325C15.2924 3.33325 16.5924 4.64158 16.5924 6.24992C16.5924 7.82492 15.3424 9.10825 13.784 9.16658C13.7174 9.15825 13.6424 9.15825 13.5674 9.16658" stroke="#930043" stroke-width="1.5" stroke-linecap="round" stroke-linejoin="round"/>
    <path d="M3.4666 12.1335C1.44993 13.4835 1.44993 15.6835 3.4666 17.0252C5.75827 18.5585 9.5166 18.5585 11.8083 17.0252C13.8249 15.6752 13.8249 13.4752 11.8083 12.1335C9.52493 10.6085 5.7666 10.6085 3.4666 12.1335Z" stroke="#930043" stroke-width="1.5" stroke-linecap="round" stroke-linejoin="round"/>
    <path d="M15.2827 16.6666C15.8827 16.5416 16.4494 16.2999 16.916 15.9416C18.216 14.9666 18.216 13.3582 16.916 12.3832C16.4577 12.0332 15.8994 11.7999 15.3077 11.6666" stroke="#930043" stroke-width="1.5" stroke-linecap="round" stroke-linejoin="round"/>
    </svg>
    