<svg width="16" height="14" viewBox="0 0 16 14" fill="none" xmlns="http://www.w3.org/2000/svg">
<path d="M5.03169 13.8182C11.0694 13.8182 14.3718 8.50147 14.3718 3.8908C14.3718 3.73981 14.3718 3.58948 14.3623 3.43981C15.0047 2.94588 15.5593 2.33436 16 1.6338C15.4009 1.91596 14.7653 2.10096 14.1146 2.18274C14.7997 1.74683 15.3128 1.06068 15.5577 0.252897C14.9134 0.659279 14.2084 0.945722 13.4733 1.09981C12.8526 0.398278 11.9857 0 11.0798 0C9.27719 0 7.79397 1.5765 7.79397 3.49233C7.79397 3.75811 7.82253 4.02307 7.87903 4.28194C5.24097 4.14141 2.77966 2.81515 1.11359 0.63656C0.247219 2.22177 0.6955 4.27609 2.12991 5.29413C1.60756 5.27768 1.09644 5.12789 0.64 4.85742V4.90163C0.640437 6.55618 1.74772 7.99428 3.27359 8.32188C2.79034 8.46194 2.28319 8.48241 1.79138 8.38173C2.22034 9.7995 3.45734 10.7768 4.85825 10.8047C3.69606 11.7755 2.25959 12.3028 0.781438 12.3013C0.52025 12.3007 0.259313 12.2839 0 12.2509C1.50106 13.2748 3.24813 13.818 5.03169 13.8155" fill="white"/>
</svg>
