<svg width="14" height="16" viewBox="0 0 14 16" fill="none" xmlns="http://www.w3.org/2000/svg">
<path d="M7.09211 0C1.85724 0 0 3.05404 0 5.66927C0 7.66536 1.58092 9.4847 2.42895 9.90039C2.51776 9.94434 2.62237 9.94694 2.7125 9.90755C2.80329 9.86849 2.87237 9.79167 2.90066 9.69792L3.45855 7.86719C3.49408 7.75195 3.46382 7.62695 3.37961 7.54036C3.19211 7.34668 2.69474 6.83236 2.69474 5.99544C2.69474 3.7028 4.31711 2.33398 7.03487 2.33398C9.13421 2.33398 10.7789 3.7959 10.7789 5.66211C10.7789 7.37956 9.38355 9.33757 8.15921 9.33757C6.76049 9.33757 7.36071 7.42473 7.67301 6.06132C7.7515 5.71865 7.78487 5.4384 7.78487 5.31185C7.78553 5.10091 7.78684 4.70833 7.46513 4.40592C7.17961 4.1377 6.69539 4.00195 6.02566 4.00195C4.35658 4.00195 3.91118 5.25944 3.91118 6.0026C3.91118 6.87799 4.14689 7.82457 3.9389 8.67489L2.60987 14.1084C2.59145 14.2054 2.44803 15.0811 3.10789 15.8779C3.17368 15.958 3.27039 16 3.36842 16C3.43289 16 3.49803 15.9818 3.55526 15.944C3.87434 15.7334 4.44868 15.3014 4.70724 14.7741C5.00609 14.1628 5.85141 11.9987 6.33264 10.7526C6.33636 10.7429 6.34184 10.7345 6.34899 10.727C6.37703 10.6979 6.42291 10.6945 6.45599 10.7177C6.664 10.8637 7.42418 11.3382 8.51447 11.3382C12.175 11.3382 13.4737 8.2845 13.4737 5.66927C13.4737 3.56348 12.1296 0 7.09211 0Z" fill="white"/>
</svg>
