<svg width="64" height="65" viewBox="0 0 64 65" fill="none" xmlns="http://www.w3.org/2000/svg">
<path d="M54.4114 41.228C56.6443 36.1361 57.8416 30.5464 57.8416 24.8166C57.8416 20.3958 57.8416 15.2943 57.8416 11.6692C57.8416 8.9976 55.808 6.78136 53.1502 6.50998C43.851 5.56037 38.1618 3.91365 34.8577 2.56604C32.2882 1.51803 29.3931 1.51803 26.8238 2.56604C23.5198 3.91353 17.8305 5.56025 8.53124 6.50986C5.87342 6.78125 3.83984 8.99748 3.83984 11.6691C3.83984 15.2943 3.83984 20.3958 3.83984 24.8164C3.83984 30.5464 5.03723 36.136 7.27018 41.228" stroke="#930043" stroke-width="1.46484" stroke-miterlimit="10" stroke-linecap="round" stroke-linejoin="round"/>
<path d="M18.3525 55.8875C20.2916 57.4702 22.4016 58.874 24.6681 60.0668C25.2741 60.3858 25.8967 60.6944 26.5367 60.9919C29.2566 62.2556 32.4242 62.2556 35.1441 60.9919C35.7841 60.6946 36.4067 60.3858 37.0128 60.0668C39.232 58.8988 41.3013 57.5286 43.2068 55.9862" stroke="#930043" stroke-width="1.46484" stroke-miterlimit="10" stroke-linecap="round" stroke-linejoin="round"/>
<path d="M9.89258 20.58V12.4527C17.7615 11.603 24.2237 10.1633 29.11 8.17035C29.6595 7.94617 30.242 7.83252 30.8412 7.83252C31.4405 7.83252 32.023 7.94606 32.5725 8.17024C37.4588 10.1633 43.921 11.603 51.7899 12.4527V24.8167C51.7899 30.5672 50.3773 36.2088 47.6942 41.2143" stroke="#930043" stroke-width="1.46484" stroke-miterlimit="10" stroke-linecap="round" stroke-linejoin="round"/>
<path d="M13.9957 41.2275C11.3077 36.2187 9.89258 30.5721 9.89258 24.8163" stroke="#930043" stroke-width="1.46484" stroke-miterlimit="10" stroke-linecap="round" stroke-linejoin="round"/>
<path d="M28.4764 24.4181L34.3854 18.5091C36.3433 16.5512 39.5181 16.5512 41.4761 18.5091C43.4341 20.4671 43.4341 23.6417 41.4762 25.5998L32.0219 35.0541C31.0816 35.9944 29.8061 36.5225 28.4764 36.5225C27.1466 36.5226 25.8712 35.9944 24.9309 35.0541L20.2039 30.3268C18.2458 28.3688 18.2459 25.1942 20.204 23.2361C22.1619 21.2782 25.3367 21.2781 27.2946 23.2362L28.4764 24.4181Z" stroke="#930043" stroke-width="1.46484" stroke-miterlimit="10" stroke-linecap="round" stroke-linejoin="round"/>
<path d="M40.433 41.3618H54.5609C56.8189 41.3618 58.2137 43.8253 57.052 45.7617C55.9946 47.5239 55.9946 49.7255 57.052 51.4876C58.2137 53.424 56.8189 55.8874 54.5609 55.8874H7.11958C4.86147 55.8874 3.46664 53.424 4.62844 51.4876C5.68579 49.7255 5.68579 47.5239 4.62844 45.7617C3.46664 43.8253 4.86147 41.3618 7.11958 41.3618H36.1963" stroke="#930043" stroke-width="1.46484" stroke-miterlimit="10" stroke-linecap="round" stroke-linejoin="round"/>
<path d="M38.8623 45.5988V51.6511" stroke="#930043" stroke-width="1.46484" stroke-miterlimit="10" stroke-linecap="round" stroke-linejoin="round"/>
<path d="M29.6299 45.5988V51.6511" stroke="#930043" stroke-width="1.46484" stroke-miterlimit="10" stroke-linecap="round" stroke-linejoin="round"/>
<path d="M35.4735 45.5988H33.0205V51.6511" stroke="#930043" stroke-width="1.46484" stroke-miterlimit="10" stroke-linecap="round" stroke-linejoin="round"/>
<path d="M33.0205 48.5674H35.2786" stroke="#930043" stroke-width="1.46484" stroke-miterlimit="10" stroke-linecap="round" stroke-linejoin="round"/>
<path d="M19.5776 45.5988H17.0273V51.6511H19.5776" stroke="#930043" stroke-width="1.46484" stroke-miterlimit="10" stroke-linecap="round" stroke-linejoin="round"/>
<path d="M19.3896 48.6251H17.0273" stroke="#930043" stroke-width="1.46484" stroke-miterlimit="10" stroke-linecap="round" stroke-linejoin="round"/>
<path d="M44.8003 45.5988H42.25V51.6511H44.8003" stroke="#930043" stroke-width="1.46484" stroke-miterlimit="10" stroke-linecap="round" stroke-linejoin="round"/>
<path d="M44.6121 48.6251H42.25" stroke="#930043" stroke-width="1.46484" stroke-miterlimit="10" stroke-linecap="round" stroke-linejoin="round"/>
<path d="M48.1875 45.605V51.5527" stroke="#930043" stroke-width="1.46484" stroke-miterlimit="10" stroke-linecap="round" stroke-linejoin="round"/>
<path d="M52.3457 48.6249C52.3457 50.2925 51.4201 51.6121 49.9517 51.6378C49.4629 51.6464 48.1997 51.6511 48.1997 51.6511C48.1997 51.6511 48.1919 49.4589 48.1919 48.6183C48.1919 47.928 48.1875 45.5988 48.1875 45.5988C48.1875 45.5988 49.324 45.5988 49.9017 45.5988C51.5123 45.5988 52.3457 46.9572 52.3457 48.6249Z" stroke="#930043" stroke-width="1.46484" stroke-miterlimit="10" stroke-linecap="round" stroke-linejoin="round"/>
<path d="M9.33203 45.5988L11.4013 51.5602C11.4446 51.6822 11.6176 51.6811 11.6594 51.5584L13.6356 45.6099" stroke="#930043" stroke-width="1.46484" stroke-miterlimit="10" stroke-linecap="round" stroke-linejoin="round"/>
<path d="M23.6924 48.7625L26.2348 51.6511" stroke="#930043" stroke-width="1.46484" stroke-miterlimit="10" stroke-linecap="round" stroke-linejoin="round"/>
<path d="M22.9648 45.5988V51.6511" stroke="#930043" stroke-width="1.46484" stroke-miterlimit="10" stroke-linecap="round" stroke-linejoin="round"/>
<path d="M26.238 47.1716C26.238 48.0404 25.4763 48.7445 24.5761 48.7445C24.1296 48.7445 22.979 48.7514 22.979 48.7514C22.979 48.7514 22.9717 47.6096 22.9717 47.1716C22.9717 46.8119 22.9678 45.5988 22.9678 45.5988C22.9678 45.5988 24.0486 45.5988 24.5761 45.5988C25.4763 45.5988 26.238 46.303 26.238 47.1716Z" stroke="#930043" stroke-width="1.46484" stroke-miterlimit="10" stroke-linecap="round" stroke-linejoin="round"/>
</svg>
