<svg width="28" height="28" viewBox="0 0 28 28" fill="none" xmlns="http://www.w3.org/2000/svg">
    <path d="M24.7917 10.675C22.0967 6.44 18.1533 4.00166 14 4.00166C11.9233 4.00166 9.905 4.60833 8.06167 5.74C6.21834 6.88333 4.56167 8.55166 3.20834 10.675C2.04167 12.5067 2.04167 15.4817 3.20834 17.3133C5.90334 21.56 9.84667 23.9867 14 23.9867C16.0767 23.9867 18.095 23.38 19.9383 22.2483C21.7817 21.105 23.4383 19.4367 24.7917 17.3133C25.9583 15.4933 25.9583 12.5067 24.7917 10.675ZM14 18.7133C11.3867 18.7133 9.28667 16.6017 9.28667 14C9.28667 11.3983 11.3867 9.28666 14 9.28666C16.6133 9.28666 18.7133 11.3983 18.7133 14C18.7133 16.6017 16.6133 18.7133 14 18.7133Z" fill="#292D32"/>
    <path d="M14 10.6633C12.1683 10.6633 10.675 12.1567 10.675 14C10.675 15.8317 12.1683 17.325 14 17.325C15.8317 17.325 17.3367 15.8317 17.3367 14C17.3367 12.1683 15.8317 10.6633 14 10.6633Z" fill="#292D32"/>
    </svg>
    